<svg width="180" height="94" viewBox="0 0 180 94" fill="none" xmlns="http://www.w3.org/2000/svg">
<path d="M114.444 75.0505H151.459V86.8561H171.229V75.0505H180V59.113H171.229V11.3005H145.067L114.444 59.113V75.0505ZM151.905 59.113H134.81V58.5228L151.31 32.5505H151.905V59.113Z" fill="#2D374F"/>
<g filter="url(#filter0_i)">
<path fill-rule="evenodd" clip-rule="evenodd" d="M134.815 4.32407C134.815 4.32407 132.647 0.18891 131.536 0.18891C130.425 0.18891 121.462 5.76153 121.462 5.76153L123.319 9.01694C107.8 16.4607 96.1802 23.3483 88.4611 29.6795L87.8042 30.2038C78.9396 37.3962 71.7612 47.289 69.1773 56.9897C66.9059 65.5156 68.6483 72.1508 73.2506 75.7751C74.0797 76.428 73.91 77.9473 72.747 79.3259L68.9948 83.774L67.6875 81.8308C67.6875 81.8308 58.8894 86.3 58.889 87.9667C58.8886 89.6333 62.5614 93.3252 62.5614 93.3252C62.8821 93.6702 63.4791 93.7535 64.2723 93.4009L64.46 93.3174C84.3429 84.3273 98.8258 76.1074 107.908 68.6576L108.564 68.1351C117.429 60.9426 124.609 51.0489 127.193 41.3473C129.47 32.7995 127.713 26.152 123.084 22.5339C122.273 21.9 122.436 20.4208 123.57 19.0766L134.434 6.19497C135.082 5.42723 135.153 4.67997 134.815 4.32407ZM100.956 38.7665C95.2343 40.3092 89.3719 46.1553 87.862 51.8241C86.352 57.4929 89.7663 60.8378 95.4879 59.2951C101.21 57.7524 107.072 51.9063 108.582 46.2375C110.092 40.5687 106.677 37.2238 100.956 38.7665Z" fill="url(#paint0_linear)"/>
</g>
<path fill-rule="evenodd" clip-rule="evenodd" d="M131.637 2.26103C132.745 0.967773 132.181 -0.266986 130.764 0.354848C130.307 0.555469 129.88 0.743427 129.53 0.898808C109.253 9.90182 94.5014 18.1289 85.2752 25.5801L84.6127 26.1007C75.6731 33.2424 68.434 43.0655 65.8283 52.6978C63.5377 61.1636 65.2948 67.7521 69.936 71.3508C70.7721 71.9991 70.601 73.5077 69.4282 74.8767L59.6854 86.2486C58.1732 88.0137 58.9477 89.6991 60.8818 88.8524L61.0711 88.7695C81.1222 79.8428 95.7274 71.6808 104.887 64.2835L105.548 63.7647C114.488 56.6229 121.728 46.7988 124.334 37.1656C126.63 28.6781 124.859 22.0774 120.191 18.4848C119.373 17.8554 119.537 16.3867 120.681 15.0519L131.637 2.26103ZM84.6709 47.5686C86.1937 41.9397 92.1056 36.1348 97.8756 34.603C103.646 33.0712 107.089 36.3925 105.566 42.0214C104.043 47.6503 98.1313 53.4551 92.3613 54.987C86.5913 56.5188 83.1482 53.1975 84.6709 47.5686Z" fill="url(#paint1_linear)"/>
<path d="M0 75.0505H37.0144V86.8561H56.7851V75.0505H65.5556V59.113H56.7851V11.3005H30.6223L0 59.113V75.0505ZM37.4603 59.113H20.3653V58.5228L36.8657 32.5505H37.4603V59.113Z" fill="#2D374F"/>
<defs>
<filter id="filter0_i" x="54.8324" y="-0.390535" width="80.1817" height="94.0186" filterUnits="userSpaceOnUse" color-interpolation-filters="sRGB">
<feFlood flood-opacity="0" result="BackgroundImageFix"/>
<feBlend mode="normal" in="SourceGraphic" in2="BackgroundImageFix" result="shape"/>
<feColorMatrix in="SourceAlpha" type="matrix" values="0 0 0 0 0 0 0 0 0 0 0 0 0 0 0 0 0 0 127 0" result="hardAlpha"/>
<feOffset dx="-4.0565" dy="-0.5795"/>
<feGaussianBlur stdDeviation="2.66245"/>
<feComposite in2="hardAlpha" operator="arithmetic" k2="-1" k3="1"/>
<feColorMatrix type="matrix" values="0 0 0 0 0.540506 0 0 0 0 0.0314858 0 0 0 0 0 0 0 0 0.68 0"/>
<feBlend mode="normal" in2="shape" result="effect1_innerShadow"/>
</filter>
<linearGradient id="paint0_linear" x1="135.07" y1="93.0501" x2="134.838" y2="-0.0979852" gradientUnits="userSpaceOnUse">
<stop stop-color="#CC1D11"/>
<stop offset="1" stop-color="#E83D3D"/>
</linearGradient>
<linearGradient id="paint1_linear" x1="114.131" y1="74.4552" x2="96.8421" y2="9.33195" gradientUnits="userSpaceOnUse">
<stop stop-color="#FF2212"/>
<stop offset="1" stop-color="#FF5050"/>
</linearGradient>
</defs>
</svg>
