<svg width="182" height="94" viewBox="0 0 182 94" fill="none" xmlns="http://www.w3.org/2000/svg">
<path d="M147.982 89.0682C168.553 89.1052 181.332 74.3694 181.369 49.3296C181.406 24.4375 168.553 10.3296 147.982 10.3296C127.374 10.3296 114.67 24.3637 114.596 49.3296C114.522 74.2586 127.374 89.0313 147.982 89.0682ZM147.982 72.375C140.891 72.375 135.795 65.2472 135.869 49.3296C135.943 33.7813 140.891 26.875 147.982 26.875C155.073 26.875 160.059 33.7813 160.096 49.3296C160.133 65.2472 155.073 72.375 147.982 72.375Z" fill="#2D374F"/>
<path d="M48.3398 63.4541L57.1851 65.0726L63.409 64.7141L54.81 63.0305L48.3398 63.4541Z" fill="#575F72"/>
<path d="M62.3945 85.0982L70.9538 85.301L76.497 79.8483L68.2672 79.2183L62.3945 85.0982Z" fill="#5D6D92"/>
<path d="M76.887 12.8083L84.0052 17.8917L79.9682 13.0183L72.7305 7.70679L76.887 12.8083Z" fill="#5D6D92"/>
<path d="M97.8906 11.9502L103.991 17.4536L104.201 9.55699L98.1875 3.5105L97.8906 11.9502Z" fill="#5D6D92"/>
<path d="M88.9668 90.4498L96.2407 90.2543L97.6636 81.152L90.5526 80.4351L88.9668 90.4498Z" fill="#5D6D92"/>
<path d="M113.891 27.7147L119.188 32.389L124.955 25.0427L120.104 19.7058L113.891 27.7147Z" fill="#64769E"/>
<path d="M115.871 71.9952L121.331 73.3059L116.519 65.2644L110.625 63.1934L115.871 71.9952Z" fill="#6D7FA7"/>
<path d="M106.313 82.1909L112.468 82.6579L121.331 73.3058L115.871 71.9951L106.313 82.1909Z" fill="#5D6D92"/>
<path d="M124.641 52.2336L129.38 55.1736L130.184 42.2804L125.589 38.2434L124.641 52.2336Z" fill="#6D7FA7"/>
<path d="M114.428 54.435L120.105 57.1324L129.381 55.1736L124.642 52.2336L114.428 54.435Z" fill="#5D6D92"/>
<path d="M90.8751 80.4746L91.1828 80.3624L91.4906 80.2466L91.7983 80.1234L92.1604 79.9786L92.5225 79.8266L92.8845 79.6672L93.2466 79.508L93.6087 79.345L93.9707 79.1785L94.3328 79.0047L94.6949 78.8273L95.0569 78.6499L95.4009 78.4688L95.7448 78.2805L96.0888 78.0886L96.4255 77.8968L96.7622 77.6976C96.8745 77.6325 96.9867 77.5673 97.0953 77.4985L97.4321 77.2921L97.6602 77.1473L97.8883 77.0024L98.1164 76.854L98.3409 76.7056L104.952 77.589L104.742 77.7266L104.529 77.8642L104.315 77.9981L104.101 78.1285L103.79 78.3167L103.475 78.5014L103.16 78.6861L102.845 78.8598L102.523 79.0372L102.2 79.211L101.878 79.3776L101.552 79.5405L101.223 79.7035L100.893 79.8591L100.56 80.0149L100.227 80.1633L99.8833 80.3117L99.5429 80.4566L99.1989 80.5978L98.855 80.7317L98.5653 80.8403L98.2793 80.949L97.9897 81.054L97.7 81.1517L90.6035 80.5833L90.8751 80.4746Z" fill="#6D7FA7"/>
<path d="M119.188 32.3925L119.261 32.5554C119.283 32.6097 119.304 32.664 119.33 32.7183L119.398 32.8849L119.464 33.0515C119.496 33.1239 119.525 33.1999 119.554 33.2723L119.576 33.3302C119.576 33.352 119.594 33.3773 119.605 33.399C119.648 33.5149 119.695 33.6307 119.739 33.7611L119.869 34.1232L119.909 34.2282L119.909 34.2571L119.909 34.2933L119.978 34.478C120.018 34.6011 120.061 34.7242 120.101 34.8401L120.22 35.2021L120.34 35.5642L120.452 35.9263L120.506 36.1037L120.506 36.1435C120.508 36.1555 120.508 36.1677 120.506 36.1797C120.506 36.2231 120.535 36.2702 120.546 36.3136C120.586 36.444 120.619 36.5743 120.655 36.7047C120.691 36.835 120.724 36.9654 120.76 37.0957L120.76 37.1392L120.76 37.1681C120.785 37.284 120.814 37.3962 120.843 37.5085L120.941 37.9176L120.984 38.1167C120.986 38.1275 120.986 38.1385 120.984 38.1493C120.986 38.1613 120.986 38.1735 120.984 38.1855L121.017 38.3304C121.046 38.4679 121.078 38.6055 121.104 38.7431C121.129 38.8807 121.162 39.0183 121.187 39.1595L121.231 39.4021C121.249 39.489 121.263 39.5759 121.278 39.6628L121.321 39.9271L121.364 40.1878L116.162 36.0964C116.107 35.7344 116.046 35.3723 115.977 34.9849C115.912 34.6228 115.843 34.2861 115.771 33.9385L115.749 33.8371C115.673 33.4968 115.597 33.1564 115.514 32.8197C115.43 32.4794 115.34 32.1427 115.246 31.8023L115.224 31.7227C115.13 31.3896 115.028 31.0601 114.927 30.7306C114.826 30.4011 114.717 30.0789 114.605 29.753L114.583 29.6915C114.471 29.3729 114.355 29.0579 114.221 28.7429L114.199 28.6885C114.076 28.3699 113.632 27.4564 113.498 27.145L119.188 32.3925Z" fill="#5D6D92"/>
<g filter="url(#filter0_i_4475_210191)">
<path d="M47 52.8383L48.3433 63.4577L54.8097 63.0341C55.0125 63.6134 55.2334 64.1818 55.4651 64.7467C55.6968 65.3115 55.9466 65.8654 56.2109 66.4122C56.4752 66.9589 56.754 67.4984 57.0473 68.0306C57.3406 68.5628 57.652 69.0806 57.9778 69.5911L54.9328 77.7991L62.395 85.102L68.2677 79.222C68.5067 79.3451 68.7457 79.4682 68.9919 79.5841C69.2381 79.7 69.4807 79.8195 69.716 79.9462C69.9513 80.0729 70.2156 80.167 70.4727 80.272C70.7298 80.377 70.9832 80.482 71.2439 80.5798L71.3743 80.6305L71.5082 80.6776L71.6422 80.7246L71.7725 80.7717C72.0513 80.8731 72.3301 80.9636 72.6089 81.0541C72.8877 81.1446 73.1701 81.2243 73.4525 81.3039C73.7349 81.3836 74.0173 81.4596 74.3034 81.5248C74.5894 81.59 74.8718 81.6624 75.1578 81.7203L77.3701 91.0471L88.9562 90.457L90.5565 80.5907C91.2227 80.3589 91.8817 80.1019 92.537 79.8267C93.1923 79.5515 93.844 79.2474 94.4885 78.9215C95.133 78.5957 95.7775 78.2517 96.4111 77.886C97.0447 77.5203 97.6747 77.1257 98.2938 76.7129L106.303 82.2018L115.865 72.0025L110.774 63.3129C111.173 62.6286 111.556 61.9298 111.918 61.2165C112.28 60.5033 112.624 59.7683 112.95 59.0441C113.276 58.32 113.584 57.5561 113.87 56.7921C114.156 56.0281 114.424 55.2569 114.67 54.4749L124.63 52.2626L125.597 38.2435L116.245 36.1109C116.133 35.365 115.999 34.6264 115.843 33.9023C115.687 33.1782 115.51 32.454 115.315 31.7625C115.119 31.0709 114.902 30.3722 114.666 29.6987C114.431 29.0253 114.174 28.3627 113.899 27.7182L120.112 19.7057L112.632 10.7591L104.395 15.4369C103.899 15.0749 103.384 14.7128 102.859 14.3906C102.334 14.0683 101.806 13.7497 101.263 13.4601C100.72 13.1704 100.177 12.8989 99.6081 12.6454C99.0397 12.392 98.4785 12.1639 97.8992 11.9539L98.1961 3.5105L87.7505 3L83.8691 10.7554C83.2681 10.8568 82.6707 10.9763 82.0588 11.1175C81.4469 11.2587 80.8785 11.4108 80.2956 11.5809C79.7126 11.7511 79.1406 11.943 78.5685 12.1494C77.9964 12.3558 77.4352 12.573 76.8777 12.812L72.7356 7.71046L64.046 13.967L64.839 21.1576C64.4021 21.6114 63.9724 22.0736 63.55 22.5443C63.1276 23.015 62.7185 23.4977 62.3226 23.9926C61.9207 24.4886 61.5333 24.9919 61.1531 25.5096C60.773 26.0274 60.4073 26.5487 60.0669 27.0846L53.8901 26.6863L49.5453 36.7119L53.9951 40.9191C53.8382 41.5564 53.6982 42.19 53.5751 42.82C53.4484 43.4536 53.3398 44.0872 53.2456 44.7136C53.1515 45.3399 53.0718 45.9736 53.0067 46.5999C52.9415 47.2263 52.8908 47.8491 52.8546 48.4682L47 52.8383ZM63.293 41.1328C64.0777 38.3121 65.2994 35.6317 66.9136 33.189C68.4467 30.8701 70.3385 28.8096 72.5184 27.0846C74.6143 25.4176 76.9921 24.1398 79.5388 23.3119C82.0755 22.4864 84.7615 22.2232 87.4101 22.5407L87.497 22.5407L87.5839 22.5407L87.6672 22.5407L87.7541 22.5407C90.3469 22.9093 92.8151 23.8884 94.9556 25.3974C97.1335 26.9623 98.9336 28.9949 100.224 31.3461C101.644 33.882 102.543 36.6765 102.867 39.565C103.237 42.7906 103.001 46.0569 102.172 49.1959C101.334 52.4585 99.912 55.5424 97.9752 58.2983C96.1766 60.8691 93.9239 63.0899 91.3277 64.8517C88.9264 66.4871 86.2155 67.6133 83.3623 68.1609C80.6503 68.6749 77.8553 68.5409 75.2049 67.7699L75.118 67.7446L75.0347 67.7192L74.9515 67.6939L74.8682 67.6685C72.3813 66.8759 70.1146 65.5119 68.2496 63.6858C66.4286 61.8868 64.9869 59.7409 64.0098 57.375C62.9901 54.9106 62.4069 52.2875 62.2864 49.6232C62.1571 46.7545 62.4921 43.8837 63.2785 41.1219L63.293 41.1328Z" fill="url(#paint0_linear_4475_210191)"/>
</g>
<path d="M62.9219 48.287L62.9219 48.6958L64.1885 55.5934C64.2034 55.6305 64.2257 55.6714 64.2257 55.7086L64.2928 55.9093L64.3598 56.1099L64.4306 56.3106L64.4977 56.489C64.4973 56.4952 64.4973 56.5014 64.4977 56.5076C64.5237 56.5745 64.5461 56.6377 64.5722 56.7046C64.5983 56.7715 64.6243 56.8346 64.6467 56.9015L64.7249 57.0948C64.751 57.1617 64.7994 57.262 64.8069 57.288C64.8143 57.314 64.833 57.3363 64.833 57.3586L64.8777 57.4552C64.9037 57.5221 64.9298 57.5853 64.9596 57.6485L65.0453 57.838C65.0751 57.9012 65.1012 57.9718 65.131 58.0313C65.1608 58.0908 65.1869 58.1502 65.2167 58.2059C65.2465 58.2691 65.28 58.3323 65.3098 58.3955L65.3099 58.3957C65.3397 58.4588 65.3694 58.5219 65.4029 58.585L65.4961 58.7708L65.5929 58.9567L65.6376 59.0384C65.6562 59.0681 65.686 59.0979 65.686 59.1276L65.7903 59.3134L65.8909 59.4955L65.999 59.6776L66.1107 59.8634L66.2225 60.0493C66.2597 60.1087 66.297 60.1719 66.338 60.2314L66.4535 60.4135L66.5727 60.5956L66.5987 60.6327L66.6881 60.7665L66.8148 60.9449L66.9415 61.1233L67.0756 61.3091L67.1277 61.3797L67.206 61.48C67.2507 61.5432 67.2991 61.6027 67.3475 61.6659L67.4891 61.8443L67.6381 62.0301L67.6903 62.0933L67.7797 62.201L67.9324 62.3831L68.0926 62.5615L68.264 62.751L68.2863 62.7771L68.4316 62.9332L68.6104 63.1152L68.7929 63.3011L68.9121 63.4163L68.968 63.4757L69.1767 63.6727L69.389 63.8659L69.579 64.0332L69.8286 64.2487L70.0856 64.4568L70.2644 64.5981L70.3017 64.6278L70.3464 64.6612L70.6109 64.8619L70.9536 65.1072L71.0207 65.1518L71.0803 65.1927L71.3001 65.3413C71.4154 65.4193 71.5345 65.4935 71.6535 65.5678L71.654 65.568L71.803 65.6572L71.8812 65.7055L72.019 65.7873C72.1345 65.8616 72.2649 65.9285 72.3916 65.9991L72.7231 66.1812L72.7976 66.2221C72.9429 66.2964 73.1329 66.3819 73.2409 66.4339C73.349 66.486 73.457 66.5417 73.5688 66.59L73.6135 66.6123C73.7848 66.6904 73.9599 66.7573 74.135 66.8316L74.4368 66.9542L74.4591 66.9542C74.7497 67.0657 75.0403 67.1661 75.3383 67.2627L75.4202 67.2887L75.5022 67.3147L75.5842 67.337L75.6698 67.363L76.0424 67.4671L76.4149 67.56L76.7874 67.6455L77.16 67.7235L85.065 69.2918L84.7149 69.2175L84.3647 69.1357L84.0145 69.0465L83.6681 68.9499L83.5898 68.9276L83.5116 68.9016L83.4334 68.8756L83.3551 68.8533C83.0608 68.7604 82.774 68.6638 82.4909 68.556L82.2152 68.4408C82.0327 68.3665 81.8427 68.2958 81.6601 68.2141L81.3323 68.0617L80.8555 67.8313L80.5202 67.6492C80.3563 67.56 80.1924 67.4745 80.0359 67.3816L79.9539 67.3333C79.723 67.1958 79.492 67.0509 79.2685 66.9022L79.2089 66.8613C78.9705 66.7015 78.7395 66.538 78.516 66.3671L78.4787 66.341C78.2515 66.1738 78.0242 65.988 77.8044 65.8022C77.5809 65.6126 77.3649 65.4194 77.1525 65.2224L77.1264 65.1964C76.9215 65.0031 76.7241 64.8062 76.5304 64.6018C76.3292 64.3974 76.143 64.1856 75.9567 63.97L75.9381 63.9477C75.7667 63.7322 75.5693 63.5092 75.3942 63.2825C75.2154 63.0558 75.044 62.8217 74.8801 62.5838C74.7124 62.3348 74.5523 62.0895 74.3958 61.8405C74.2393 61.6027 74.0903 61.3537 73.9488 61.0973L73.9488 61.0787C73.6619 60.5658 73.3974 60.0344 73.1553 59.4918C72.9169 58.9492 72.7045 58.3992 72.5108 57.8343C72.3196 57.2645 72.1532 56.686 72.0116 56.0988C71.9408 55.8052 71.8775 55.5079 71.8179 55.2106C71.7583 54.9133 71.7061 54.6123 71.6614 54.3112C71.613 54.0065 71.5757 53.7017 71.5422 53.397C71.5087 53.0923 71.4826 52.7838 71.4603 52.4754L71.4603 52.4568C71.4416 52.152 71.423 51.8436 71.423 51.5388C71.4251 51.529 71.4251 51.5189 71.423 51.5091L71.423 50.5726C71.4305 50.2604 71.4454 49.9445 71.464 49.6286L71.464 49.5989C71.4863 49.2905 71.5124 48.982 71.5422 48.6698C71.544 48.655 71.544 48.64 71.5422 48.6252C71.5757 48.3168 71.6167 48.0083 71.6614 47.6961C71.6599 47.6788 71.6599 47.6614 71.6614 47.6441C71.7024 47.3468 71.7546 47.0532 71.8104 46.7559L71.8328 46.6296C71.8887 46.3434 71.9483 46.0535 72.0153 45.7674C72.0228 45.7228 72.0451 45.6781 72.0451 45.6336C72.1159 45.3288 72.1867 45.0427 72.2761 44.7231C72.3655 44.4035 72.4586 44.0913 72.5555 43.7791L72.5778 43.7159C72.671 43.4186 72.7753 43.1287 72.8796 42.8352C72.8908 42.8017 72.9168 42.7683 72.9168 42.7348C73.0212 42.4449 73.1329 42.1588 73.2521 41.8726L73.2782 41.8057C73.3937 41.5158 73.5203 41.2297 73.6507 40.9435L73.6731 40.8989C73.9488 40.3043 74.2443 39.7246 74.5597 39.1597L74.5597 39.1374C74.7162 38.8587 74.8801 38.5836 75.044 38.3161L75.044 38.2975C75.2154 38.0262 75.3867 37.7549 75.5655 37.4911C75.7444 37.2235 75.9306 36.9633 76.1169 36.7069C76.4969 36.1941 76.8955 35.6998 77.309 35.2204C77.7237 34.7422 78.1546 34.2838 78.6017 33.8453C78.8252 33.6261 79.0487 33.4142 79.2797 33.2098C79.5106 33.0054 79.7416 32.8047 79.9763 32.6115C80.2048 32.4182 80.4432 32.2287 80.6915 32.0429C80.6977 32.0445 80.7041 32.0445 80.7102 32.0429C80.956 31.8757 81.2019 31.6787 81.4552 31.504C81.6862 31.3294 81.9432 31.1584 82.2003 30.9949C82.4573 30.8314 82.7181 30.6753 82.9826 30.5229C83.2434 30.3743 83.5079 30.2293 83.7761 30.0918L83.7947 30.0918C84.0629 29.9543 84.3312 29.8205 84.6068 29.6979C84.8788 29.5604 85.1544 29.4415 85.4301 29.3263L85.4525 29.3263C85.7244 29.2185 86.0038 29.1144 86.2795 29.0141L86.313 29.0141C86.5961 28.9174 86.8755 28.8245 87.1587 28.7391C87.4418 28.6573 87.7286 28.5793 88.0155 28.5087L88.0676 28.5087C88.3508 28.438 88.6376 28.3749 88.9245 28.3191L88.9617 28.3191C89.2411 28.2634 89.5242 28.2188 89.8073 28.1779L89.8819 28.1779C90.1687 28.137 90.4556 28.1073 90.7461 28.0813L90.7759 28.0813L91.3794 28.0478L91.6998 28.0478L92.456 28.0478C92.7131 28.0553 92.9739 28.0701 93.2309 28.0887L93.3836 28.0887C93.6928 28.1147 94.0058 28.1482 94.315 28.1928L94.3969 28.1928L94.4751 28.1928L94.5571 28.1928L94.6353 28.1928C95.8447 28.3818 97.0284 28.7085 98.1632 29.1664C98.7209 29.3926 99.2656 29.6494 99.7949 29.9357C100.321 30.2225 100.831 30.5376 101.322 30.8797L94.7247 26.2677C94.2106 25.9073 93.6757 25.5772 93.1229 25.2792C92.5673 24.9807 91.9951 24.7139 91.4092 24.4801C90.8191 24.247 90.2158 24.0484 89.6025 23.8855C88.9781 23.7254 88.345 23.6013 87.7063 23.5139L87.6206 23.5139L87.5349 23.5139L87.453 23.5139L87.3673 23.5139C87.0432 23.473 86.7191 23.4433 86.395 23.421L86.0709 23.421C85.8585 23.3987 85.6425 23.3987 85.4301 23.3987L85.0799 23.3987L84.4727 23.3987L84.1188 23.4247C83.9251 23.4396 83.7277 23.4656 83.5339 23.4656L83.4669 23.4656L83.0944 23.5064L82.666 23.5659L82.5505 23.5845L82.4685 23.5845L82.245 23.6217L81.8203 23.696L81.5819 23.7443L81.5446 23.7443L81.4888 23.7443L81.1609 23.8149L80.8294 23.8967L80.6394 23.945L80.591 23.945L80.5053 23.9673L80.2184 24.049L79.9353 24.1308L79.6783 24.2126L79.6559 24.2126L79.3765 24.3018L79.1232 24.3909L78.8699 24.4801L78.7842 24.5136L78.7544 24.5136L78.6203 24.5619L78.3707 24.6585L78.1434 24.7514L77.9162 24.8443L77.8715 24.8629L77.6964 24.9372L77.4692 25.0376L77.2531 25.1379L77.037 25.242L76.9961 25.242L76.8321 25.3237L76.6198 25.4315L76.4149 25.5319L76.2137 25.6396L76.1392 25.6805L76.0275 25.74L75.8263 25.8515L75.6326 25.9592L75.4426 26.0707L75.2973 26.1562L75.2563 26.1822L75.0663 26.2974L74.8801 26.4126L74.6938 26.5316L74.5076 26.6505L74.4666 26.6765L74.3325 26.762L74.1536 26.8846L73.9748 27.0072L73.7997 27.1299L73.6582 27.2302L73.6321 27.2302L73.457 27.3566L73.2857 27.4867L73.1143 27.6167L72.9429 27.7468L72.8759 27.7988L72.7976 27.862L72.6263 27.9958L72.4624 28.1333L72.2947 28.2708L72.1308 28.4083L71.9818 28.5347L71.8216 28.6759L71.6577 28.8208L71.4975 28.9658L71.3895 29.0624C71.3777 29.0767 71.3639 29.0892 71.3485 29.0995L71.192 29.2482L71.0356 29.4006L70.8791 29.5492L70.7227 29.7016L70.6742 29.7536L70.5774 29.8502L70.4246 30.0063L70.2719 30.1661C70.2235 30.2182 70.175 30.2739 70.1229 30.3259C70.0707 30.378 70.0223 30.4337 69.9739 30.4858L69.8249 30.6493C69.7727 30.7013 69.7243 30.757 69.6759 30.8127L69.6758 30.8128L69.5306 30.98L69.3853 31.1472L69.307 31.2402L69.2549 31.2996L69.1133 31.4706L68.968 31.6453L68.8302 31.8199C68.7818 31.8757 68.7371 31.9351 68.6886 31.9946L68.6663 32.0243L68.5545 32.1692L68.413 32.3513L68.2789 32.5334C68.2342 32.5929 68.1857 32.6524 68.141 32.7156L68.0553 32.8345L68.0367 32.8605C68.0258 32.8734 68.0159 32.8871 68.0069 32.9014L67.8728 33.0872L67.7387 33.2767L67.6083 33.47L67.4742 33.6669L67.4556 33.693L67.3512 33.849L67.2209 34.0534L67.0905 34.2578L66.9601 34.4659C66.9453 34.4928 66.9291 34.5188 66.9117 34.544L66.893 34.5811C66.871 34.612 66.8511 34.6443 66.8334 34.6778L66.7031 34.8896L66.4795 35.0829L66.338 35.3319C66.3193 35.3653 66.3007 35.4025 66.2784 35.4359L66.2784 35.4619L66.215 35.5771L66.0772 35.8299L65.9431 36.0788C65.8947 36.1792 65.8388 36.2758 65.7903 36.3761C65.7419 36.4765 65.6898 36.5731 65.6413 36.6772L65.4961 36.9745L65.3508 37.2792L65.3284 37.3275C65.3245 37.3421 65.3182 37.3559 65.3098 37.3684C65.2539 37.4873 65.2129 37.584 65.1421 37.74C65.0714 37.8961 65.0043 38.0522 64.9373 38.212L64.9037 38.2938C64.8926 38.3161 64.8739 38.3421 64.8739 38.3681C64.8292 38.4759 64.8106 38.5316 64.7435 38.6914C64.6765 38.8512 64.6169 39.0148 64.5536 39.1746C64.5424 39.2117 64.5163 39.2489 64.5163 39.2861C64.5004 39.3236 64.4867 39.3621 64.4753 39.4013C64.4343 39.509 64.3934 39.6168 64.3561 39.7246C64.2891 39.9104 64.2295 40.0962 64.1661 40.282L64.1661 40.3378C64.1552 40.3643 64.1465 40.3916 64.14 40.4195C64.0916 40.5608 64.0581 40.65 64.0022 40.8469C63.9463 41.0439 63.8904 41.226 63.8383 41.4155C63.8197 41.475 63.8048 41.5344 63.7861 41.5939L63.7414 41.7723C63.7228 41.8317 63.693 41.8912 63.693 41.9507L63.6483 42.129C63.6259 42.2182 63.6036 42.3037 63.585 42.3929L63.5515 42.5341C63.5403 42.5862 63.5142 42.6345 63.5142 42.6865L63.3913 43.2402C63.3764 43.3108 63.3577 43.4037 63.3503 43.4521C63.3428 43.5004 63.3391 43.5338 63.3242 43.597C63.3093 43.6602 63.2832 43.7271 63.2832 43.7903C63.2497 43.9724 63.2162 44.1619 63.1864 44.344C63.1752 44.4109 63.1566 44.4778 63.1566 44.5447C63.1548 44.562 63.1548 44.5794 63.1566 44.5967C63.1379 44.6339 63.1379 44.6747 63.1379 44.7119C63.1193 44.8383 63.1044 44.9572 63.0858 45.0835C63.0672 45.2099 63.0374 45.3325 63.0374 45.4552L63.0374 45.6001L63.0374 45.6484L63.0374 45.8231L63.0038 46.1427C62.9964 46.2505 62.9778 46.4028 62.9778 46.4623L62.9778 46.637L62.9778 46.6778C62.9758 46.7125 62.9758 46.7473 62.9778 46.7819L62.9219 47.1127L62.9219 47.4063L62.9219 47.6998L62.9219 47.9934L62.9219 48.287Z" fill="url(#paint1_linear_4475_210191)"/>
<path d="M87.8522 21.5449L87.9464 21.5449L88.0369 21.5449L88.1274 21.5449C90.8488 21.909 93.4448 22.9142 95.7018 24.4777C97.9994 26.0875 99.9081 28.1905 101.288 30.6328C102.799 33.2943 103.759 36.232 104.113 39.2717C104.511 42.6736 104.265 46.1201 103.388 49.4312C102.508 52.8772 101.006 56.1337 98.9568 59.0405C97.0546 61.7452 94.6712 64.077 91.9255 65.9197C89.3948 67.6283 86.539 68.7967 83.5364 69.3521C80.6834 69.8736 77.7473 69.7099 74.97 68.8742L74.8794 68.8452L74.7889 68.8199L74.6984 68.7909L74.6115 68.7619C72.0128 67.9099 69.6495 66.4616 67.7105 64.533C65.8231 62.6496 64.3311 60.408 63.3223 57.9398C62.273 55.3628 61.6765 52.624 61.559 49.844C61.4308 46.8628 61.7804 43.8803 62.5945 41.0096C63.4174 38.0735 64.6926 35.2835 66.3745 32.74C67.9702 30.3214 69.9375 28.1696 72.2038 26.364C74.3845 24.6126 76.8599 23.264 79.5139 22.3813C82.1644 21.5051 84.973 21.2124 87.7472 21.5232L87.8522 21.5449ZM64.2311 41.3463C63.4871 43.9686 63.1717 46.6939 63.297 49.4168C63.4112 51.9518 63.9662 54.4475 64.9371 56.792C65.8652 59.0434 67.2369 61.085 68.9705 62.7951C70.7448 64.5337 72.9027 65.831 75.2705 66.5823L75.3501 66.6076L75.4298 66.633L75.5094 66.6547L75.5927 66.6801C78.1153 67.4124 80.7756 67.5365 83.3554 67.0421C86.0666 66.5205 88.6421 65.4484 90.9226 63.8922C93.3921 62.2196 95.5356 60.1104 97.2479 57.6682C99.086 55.0434 100.435 52.1082 101.231 49.004C102.017 46.0168 102.242 42.9094 101.893 39.8401C101.582 37.0921 100.726 34.4336 99.3768 32.0195C98.1376 29.8042 96.424 27.8903 94.3586 26.4147C92.3221 24.9805 89.9743 24.0498 87.5083 23.6992L87.425 23.6992L87.3417 23.6992L87.2621 23.6992L87.1788 23.6992C84.6588 23.3935 82.1025 23.6406 79.6877 24.4234C77.2634 25.21 75.0006 26.4266 73.0076 28.0151C70.9356 29.6529 69.1356 31.6081 67.6743 33.8081C66.1348 36.132 64.9693 38.683 64.2202 41.368L64.2311 41.3463Z" fill="url(#paint2_linear_4475_210191)"/>
<path d="M111.368 62.2556L111.368 62.2338C111.556 61.8899 111.73 61.5423 111.915 61.1947C112.088 60.8544 112.255 60.5104 112.421 60.1664L112.454 60.0976C112.61 59.7682 112.762 59.4387 112.91 59.1056C112.95 59.0078 112.99 58.9137 113.033 58.8196L113.348 58.0954L113.482 57.7659C113.587 57.5053 113.692 57.2409 113.794 56.9766C113.826 56.8934 113.859 56.8101 113.888 56.7268C114.018 56.3647 114.145 56.028 114.268 55.6768L114.29 55.6153C114.42 55.2351 114.547 54.8513 114.652 54.4675L120.083 57.1577L119.92 57.6646C119.866 57.8347 119.811 58.0013 119.753 58.1679L119.735 58.2185C119.731 58.2348 119.725 58.2506 119.717 58.2656C119.674 58.4032 119.627 58.5371 119.579 58.6711C119.532 58.8051 119.46 59.0042 119.398 59.1672L119.369 59.2396C119.369 59.2396 119.369 59.2758 119.351 59.2939L119.283 59.4677C119.217 59.6378 119.156 59.8044 119.087 59.9709C119.058 60.047 119.029 60.1194 118.997 60.1954C118.964 60.2714 118.917 60.3982 118.873 60.4996L118.765 60.7675L118.58 61.1838C118.555 61.2454 118.533 61.3033 118.504 61.3649L118.472 61.4409C118.453 61.4771 118.439 61.5133 118.421 61.5532C118.305 61.8102 118.186 62.0709 118.059 62.328C118.058 62.3364 118.058 62.3449 118.059 62.3533C118.048 62.3744 118.038 62.3961 118.03 62.4185L117.823 62.8421L117.566 63.3562L117.309 63.8523C117.23 64.0007 117.15 64.1492 117.067 64.2976C117.065 64.3109 117.065 64.3242 117.067 64.3374L116.936 64.5728L116.806 64.8045L116.676 65.0362L116.542 65.2643L110.807 63.2838C110.984 62.9471 111.176 62.6031 111.368 62.2556Z" fill="#5D6D92"/>
<path d="M33.5218 88.034C51.9508 88.034 63.9906 76.8436 63.9537 60.9999C63.9906 46.6334 53.9451 36.4772 40.465 36.4772C32.7832 36.4772 26.5787 39.8749 24.215 44.4544H23.7718L25.2491 27.7613H59.2264V11.3635H8.4082L5.45366 53.0226L23.4764 56.5681C25.2122 52.8749 29.1639 50.659 33.5218 50.659C39.8003 50.659 44.1951 54.98 44.1582 61.5908C44.1951 68.2016 39.8003 72.5226 33.5218 72.5226C28.0929 72.5226 23.6241 69.1988 23.4764 63.9544H3.5332C3.644 78.0624 16.09 88.034 33.5218 88.034Z" fill="#2D374F"/>
<defs>
<filter id="filter0_i_4475_210191" x="46.0634" y="3" width="79.5343" height="88.9835" filterUnits="userSpaceOnUse" color-interpolation-filters="sRGB">
<feFlood flood-opacity="0" result="BackgroundImageFix"/>
<feBlend mode="normal" in="SourceGraphic" in2="BackgroundImageFix" result="shape"/>
<feColorMatrix in="SourceAlpha" type="matrix" values="0 0 0 0 0 0 0 0 0 0 0 0 0 0 0 0 0 0 127 0" result="hardAlpha"/>
<feOffset dx="-0.936594" dy="0.936594"/>
<feGaussianBlur stdDeviation="0.468297"/>
<feComposite in2="hardAlpha" operator="arithmetic" k2="-1" k3="1"/>
<feColorMatrix type="matrix" values="0 0 0 0 1 0 0 0 0 1 0 0 0 0 1 0 0 0 0.1 0"/>
<feBlend mode="normal" in2="shape" result="effect1_innerShadow_4475_210191"/>
</filter>
<linearGradient id="paint0_linear_4475_210191" x1="86.2986" y1="3" x2="86.2986" y2="91.0471" gradientUnits="userSpaceOnUse">
<stop stop-color="#A1ACC6"/>
<stop offset="1" stop-color="#7F8FB5"/>
</linearGradient>
<linearGradient id="paint1_linear_4475_210191" x1="91" y1="23" x2="70.5" y2="67" gradientUnits="userSpaceOnUse">
<stop stop-color="#5D6D92"/>
<stop offset="1" stop-color="#6679A4"/>
</linearGradient>
<linearGradient id="paint2_linear_4475_210191" x1="88.0007" y1="20.9999" x2="79.0007" y2="68.9999" gradientUnits="userSpaceOnUse">
<stop stop-color="#8090B5"/>
<stop offset="1" stop-color="#A0ABC5"/>
</linearGradient>
</defs>
</svg>
