<svg viewBox="0 0 20 20" fill="none" xmlns="http://www.w3.org/2000/svg">
<path d="M4.7642 16H15.2358C16.2983 16 17 15.193 17 14.2245C17 13.9286 16.9198 13.626 16.7661 13.3502L11.5203 3.90792C11.1862 3.29591 10.5981 3 10.0033 3C9.40859 3 8.81384 3.30264 8.47971 3.90792L3.23389 13.357C3.08019 13.6327 3 13.9286 3 14.2245C3 15.193 3.70167 16 4.7642 16ZM10.01 11.2788C9.57566 11.2788 9.3284 11.0367 9.30835 10.5996L9.20811 7.47232C9.18807 7.00828 9.51551 6.69219 10.0033 6.69219C10.4845 6.69219 10.8186 7.015 10.7986 7.47905L10.6916 10.5929C10.6783 11.0435 10.431 11.2788 10.01 11.2788ZM10.01 13.6529C9.51551 13.6529 9.12124 13.3233 9.12124 12.8458C9.12124 12.3683 9.51551 12.0321 10.01 12.0321C10.5045 12.0321 10.8921 12.3683 10.8921 12.8458C10.8921 13.3233 10.4979 13.6529 10.01 13.6529Z" fill="black"/>
</svg>
