<svg width="120" height="40" viewBox="0 0 120 40" fill="none" xmlns="http://www.w3.org/2000/svg">
<g clip-path="url(#clip0)">
<path d="M110.135 7.92969e-06H9.53468C9.16798 7.92969e-06 8.80568 7.92975e-06 8.43995 0.00200793C8.1338 0.00400793 7.83009 0.00981793 7.521 0.0147079C6.84951 0.0226097 6.17961 0.0816842 5.5171 0.191418C4.85552 0.303541 4.21467 0.514924 3.61622 0.818418C3.0185 1.12448 2.47235 1.52218 1.99757 1.99708C1.5203 2.47064 1.12246 3.01802 0.81935 3.61817C0.5154 4.21712 0.304641 4.85895 0.19435 5.52149C0.0830109 6.18319 0.0230984 6.85253 0.01515 7.52349C0.00587 7.83009 0.00489 8.13771 0 8.44435V31.5586C0.00489 31.8691 0.00587 32.1699 0.01515 32.4805C0.0231008 33.1514 0.0830134 33.8207 0.19435 34.4824C0.304336 35.1453 0.515108 35.7875 0.81935 36.3867C1.12233 36.9849 1.52022 37.5301 1.99757 38.001C2.47055 38.478 3.01705 38.876 3.61622 39.1797C4.21467 39.484 4.85545 39.6967 5.5171 39.8105C6.17972 39.9194 6.84956 39.9785 7.521 39.9873C7.83009 39.9941 8.1338 39.998 8.43995 39.998C8.80567 40 9.168 40 9.53468 40H110.135C110.494 40 110.859 40 111.219 39.998C111.523 39.998 111.836 39.9941 112.141 39.9873C112.811 39.9789 113.479 39.9198 114.141 39.8105C114.804 39.6959 115.448 39.4833 116.049 39.1797C116.648 38.8758 117.194 38.4779 117.666 38.001C118.142 37.5282 118.541 36.9835 118.848 36.3867C119.15 35.7871 119.358 35.145 119.467 34.4824C119.578 33.8206 119.64 33.1515 119.652 32.4805C119.656 32.1699 119.656 31.8691 119.656 31.5586C119.664 31.1953 119.664 30.834 119.664 30.4648V9.53614C119.664 9.16993 119.664 8.80665 119.656 8.44435C119.656 8.13771 119.656 7.83009 119.652 7.52345C119.64 6.85243 119.578 6.18324 119.467 5.52145C119.358 4.85929 119.149 4.21751 118.848 3.61813C118.23 2.4152 117.252 1.43603 116.049 0.818328C115.448 0.515575 114.804 0.304248 114.141 0.191328C113.48 0.0811107 112.811 0.0220157 112.141 0.0145679C111.836 0.00968793 111.523 0.00382793 111.219 0.00187793C110.859 -0.00012207 110.494 -0.00012207 110.135 -0.00012207V7.92969e-06Z" fill="#A6A6A6"/>
<path d="M8.44487 39.125C8.14019 39.125 7.84287 39.1211 7.54058 39.1143C6.91436 39.1061 6.2896 39.0516 5.67144 38.9512C5.09503 38.8519 4.53664 38.6672 4.0147 38.4033C3.49754 38.1415 3.02585 37.7982 2.6177 37.3867C2.20364 36.9799 1.85891 36.5082 1.59719 35.9902C1.33258 35.4688 1.14945 34.9099 1.05419 34.333C0.951311 33.7131 0.895651 33.0863 0.887687 32.458C0.881347 32.2471 0.873047 31.5449 0.873047 31.5449V8.44431C0.873047 8.44431 0.881887 7.7529 0.887737 7.54977C0.895363 6.92245 0.950699 6.29662 1.05327 5.6777C1.14871 5.09922 1.33197 4.53872 1.59673 4.0156C1.85749 3.49791 2.2003 3.02583 2.61187 2.61765C3.02297 2.20559 3.49617 1.86057 4.01421 1.59518C4.53495 1.33206 5.09228 1.1487 5.66753 1.05124C6.28772 0.949806 6.91465 0.894966 7.54304 0.887179L8.44536 0.874969H111.214L112.127 0.88767C112.75 0.895069 113.371 0.949419 113.985 1.05026C114.566 1.14894 115.13 1.33359 115.656 1.59811C116.694 2.13296 117.539 2.97913 118.071 4.01804C118.332 4.53755 118.512 5.09348 118.607 5.66696C118.71 6.29096 118.768 6.92171 118.78 7.55417C118.783 7.83737 118.783 8.14157 118.783 8.44431C118.791 8.81931 118.791 9.17624 118.791 9.5361V30.4648C118.791 30.8281 118.791 31.1826 118.783 31.54C118.783 31.8652 118.783 32.1631 118.779 32.4697C118.768 33.0908 118.711 33.7103 118.608 34.3232C118.515 34.9042 118.333 35.4675 118.068 35.9932C117.805 36.5056 117.462 36.9732 117.053 37.3789C116.644 37.7927 116.172 38.1379 115.653 38.4014C115.128 38.6674 114.566 38.8527 113.985 38.9512C113.367 39.0521 112.742 39.1067 112.116 39.1143C111.823 39.1211 111.517 39.125 111.219 39.125L110.135 39.127L8.44487 39.125Z" fill="black"/>
<path d="M24.769 20.3007C24.7797 19.466 25.0014 18.6477 25.4135 17.9217C25.8255 17.1957 26.4145 16.5858 27.1256 16.1486C26.6738 15.5035 26.0779 14.9725 25.385 14.598C24.6922 14.2234 23.9216 14.0156 23.1344 13.991C21.4552 13.8147 19.8272 14.9958 18.9715 14.9958C18.0992 14.9958 16.7817 14.0085 15.363 14.0376C14.4453 14.0673 13.551 14.3341 12.7671 14.8122C11.9832 15.2903 11.3365 15.9632 10.8901 16.7655C8.95607 20.1139 10.3987 25.035 12.2513 27.7416C13.1782 29.0669 14.2615 30.5474 15.6789 30.4949C17.066 30.4374 17.584 29.6104 19.2583 29.6104C20.9171 29.6104 21.4031 30.4949 22.8493 30.4615C24.3377 30.4374 25.2754 29.1303 26.1698 27.7924C26.8358 26.848 27.3483 25.8043 27.6882 24.6999C26.8235 24.3341 26.0856 23.722 25.5665 22.9397C25.0474 22.1574 24.77 21.2396 24.769 20.3007Z" fill="white"/>
<path d="M22.0376 12.2109C22.8491 11.2367 23.2489 9.98448 23.1521 8.72025C21.9123 8.85047 20.767 9.44302 19.9445 10.3799C19.5424 10.8375 19.2344 11.37 19.0381 11.9467C18.8419 12.5235 18.7612 13.1333 18.8008 13.7412C19.4209 13.7476 20.0344 13.6132 20.5951 13.3481C21.1558 13.083 21.649 12.6942 22.0376 12.2109Z" fill="white"/>
<path d="M42.3022 27.1396H37.5688L36.4321 30.4961H34.4272L38.9106 18.0781H40.9936L45.477 30.4961H43.438L42.3022 27.1396ZM38.0591 25.5908H41.8111L39.9615 20.1435H39.9097L38.0591 25.5908Z" fill="white"/>
<path d="M55.1597 25.9697C55.1597 28.7832 53.6538 30.5908 51.3814 30.5908C50.8057 30.6209 50.2332 30.4883 49.7294 30.2082C49.2256 29.928 48.8109 29.5117 48.5327 29.0068H48.4897V33.4912H46.6313V21.4424H48.4302V22.9482H48.4644C48.7553 22.4458 49.1771 22.0316 49.6847 21.7497C50.1923 21.4679 50.7669 21.3289 51.3472 21.3476C53.645 21.3477 55.1597 23.1641 55.1597 25.9697ZM53.2495 25.9697C53.2495 24.1367 52.3023 22.9316 50.857 22.9316C49.437 22.9316 48.482 24.1621 48.482 25.9697C48.482 27.7939 49.437 29.0156 50.857 29.0156C52.3023 29.0156 53.2495 27.8193 53.2495 25.9697Z" fill="white"/>
<path d="M65.1245 25.9697C65.1245 28.7832 63.6187 30.5908 61.3462 30.5908C60.7706 30.6209 60.1981 30.4883 59.6943 30.2082C59.1905 29.928 58.7758 29.5117 58.4976 29.0068H58.4546V33.4912H56.5962V21.4424H58.395V22.9482H58.4292C58.7201 22.4458 59.1419 22.0316 59.6495 21.7497C60.1571 21.4679 60.7317 21.3289 61.312 21.3476C63.6099 21.3476 65.1245 23.164 65.1245 25.9697ZM63.2144 25.9697C63.2144 24.1367 62.2671 22.9316 60.8218 22.9316C59.4019 22.9316 58.4468 24.1621 58.4468 25.9697C58.4468 27.7939 59.4019 29.0156 60.8218 29.0156C62.2671 29.0156 63.2144 27.8193 63.2144 25.9697H63.2144Z" fill="white"/>
<path d="M71.7105 27.0361C71.8482 28.2676 73.0445 29.0761 74.6792 29.0761C76.2456 29.0761 77.3726 28.2675 77.3726 27.1572C77.3726 26.1933 76.6929 25.6162 75.0835 25.2207L73.4742 24.833C71.1939 24.2822 70.1353 23.2158 70.1353 21.4853C70.1353 19.3427 72.0025 17.871 74.6538 17.871C77.2778 17.871 79.0767 19.3427 79.1372 21.4853H77.2612C77.1489 20.246 76.1245 19.498 74.6275 19.498C73.1304 19.498 72.106 20.2548 72.106 21.3564C72.106 22.2343 72.7603 22.7509 74.3609 23.1464L75.729 23.4823C78.2769 24.0849 79.3355 25.1083 79.3355 26.9247C79.3355 29.248 77.4849 30.703 74.5415 30.703C71.7876 30.703 69.9282 29.2821 69.8081 27.036L71.7105 27.0361Z" fill="white"/>
<path d="M83.3462 19.2998V21.4424H85.0679V22.9141H83.3462V27.9053C83.3462 28.6807 83.6909 29.042 84.4477 29.042C84.6521 29.0385 84.8562 29.0241 85.0591 28.999V30.4619C84.7188 30.5255 84.3729 30.5543 84.0268 30.5479C82.1938 30.5479 81.479 29.8594 81.479 28.1035V22.9141H80.1626V21.4424H81.479V19.2998H83.3462Z" fill="white"/>
<path d="M86.0649 25.9698C86.0649 23.1212 87.7427 21.3311 90.3589 21.3311C92.9839 21.3311 94.6538 23.1211 94.6538 25.9698C94.6538 28.8262 92.9927 30.6085 90.3589 30.6085C87.726 30.6085 86.0649 28.8262 86.0649 25.9698ZM92.7603 25.9698C92.7603 24.0157 91.8647 22.8624 90.3589 22.8624C88.853 22.8624 87.9585 24.0245 87.9585 25.9698C87.9585 27.9317 88.853 29.0762 90.3589 29.0762C91.8647 29.0762 92.7602 27.9317 92.7602 25.9698H92.7603Z" fill="white"/>
<path d="M96.186 21.4424H97.9585V22.9834H98.0015C98.1214 22.5021 98.4034 22.0768 98.8 21.7789C99.1966 21.481 99.6836 21.3287 100.179 21.3477C100.393 21.3469 100.607 21.3702 100.816 21.417V23.1553C100.546 23.0727 100.264 23.0347 99.981 23.043C99.711 23.032 99.4418 23.0796 99.192 23.1825C98.9421 23.2854 98.7175 23.4411 98.5335 23.639C98.3496 23.8369 98.2106 24.0723 98.1262 24.329C98.0417 24.5856 98.0139 24.8575 98.0444 25.126V30.4961H96.186L96.186 21.4424Z" fill="white"/>
<path d="M109.384 27.8369C109.134 29.4805 107.534 30.6084 105.486 30.6084C102.852 30.6084 101.217 28.8438 101.217 26.0127C101.217 23.1729 102.861 21.3311 105.408 21.3311C107.913 21.3311 109.488 23.0518 109.488 25.7969V26.4336H103.093V26.5459C103.064 26.8791 103.105 27.2148 103.216 27.5306C103.326 27.8465 103.502 28.1353 103.732 28.3778C103.963 28.6203 104.242 28.8111 104.552 28.9374C104.861 29.0637 105.195 29.1227 105.529 29.1104C105.968 29.1515 106.409 29.0498 106.785 28.8204C107.162 28.5909 107.455 28.246 107.62 27.8369L109.384 27.8369ZM103.102 25.1348H107.628C107.645 24.8352 107.6 24.5354 107.495 24.2542C107.39 23.973 107.229 23.7164 107.02 23.5007C106.812 23.2849 106.561 23.1146 106.283 23.0003C106.006 22.8861 105.708 22.8305 105.408 22.8369C105.105 22.8351 104.805 22.8933 104.525 23.008C104.245 23.1228 103.99 23.2918 103.776 23.5055C103.562 23.7191 103.392 23.9731 103.276 24.2527C103.16 24.5324 103.101 24.8322 103.102 25.1348V25.1348Z" fill="white"/>
<path d="M37.8262 8.73095C38.2158 8.70299 38.6067 8.76185 38.9709 8.90329C39.335 9.04472 39.6632 9.2652 39.9317 9.54883C40.2003 9.83245 40.4026 10.1721 40.524 10.5434C40.6454 10.9147 40.6829 11.3083 40.6338 11.6958C40.6338 13.602 39.6035 14.6978 37.8262 14.6978H35.6709V8.73095H37.8262ZM36.5976 13.854H37.7226C38.0011 13.8706 38.2797 13.8249 38.5382 13.7203C38.7967 13.6157 39.0287 13.4548 39.2172 13.2492C39.4057 13.0436 39.546 12.7986 39.6278 12.532C39.7097 12.2654 39.7311 11.9839 39.6904 11.708C39.7281 11.4331 39.7046 11.1533 39.6215 10.8887C39.5383 10.624 39.3977 10.381 39.2096 10.1771C39.0216 9.97316 38.7907 9.81335 38.5337 9.70911C38.2766 9.60488 37.9996 9.55879 37.7226 9.57416H36.5976V13.854Z" fill="white"/>
<path d="M41.6805 12.4443C41.6521 12.1483 41.686 11.8498 41.7798 11.5677C41.8737 11.2856 42.0254 11.0263 42.2254 10.8063C42.4253 10.5863 42.669 10.4106 42.9409 10.2903C43.2127 10.17 43.5067 10.1079 43.804 10.1079C44.1013 10.1079 44.3952 10.17 44.6671 10.2903C44.9389 10.4106 45.1827 10.5863 45.3826 10.8063C45.5825 11.0263 45.7343 11.2856 45.8281 11.5677C45.922 11.8498 45.9558 12.1483 45.9275 12.4443C45.9564 12.7405 45.9229 13.0395 45.8293 13.322C45.7357 13.6045 45.5841 13.8643 45.3841 14.0847C45.1841 14.3052 44.9402 14.4813 44.6681 14.6018C44.3959 14.7224 44.1016 14.7846 43.804 14.7846C43.5064 14.7846 43.212 14.7224 42.9399 14.6018C42.6678 14.4813 42.4239 14.3052 42.2239 14.0847C42.0239 13.8643 41.8722 13.6045 41.7786 13.322C41.6851 13.0395 41.6516 12.7405 41.6805 12.4443ZM45.0134 12.4443C45.0134 11.4682 44.575 10.8974 43.8055 10.8974C43.033 10.8974 42.5985 11.4682 42.5985 12.4443C42.5985 13.4282 43.033 13.9946 43.8055 13.9946C44.575 13.9945 45.0135 13.4242 45.0135 12.4443H45.0134Z" fill="white"/>
<path d="M51.5732 14.6977H50.6514L49.7207 11.3813H49.6504L48.7236 14.6977H47.8105L46.5693 10.1947H47.4707L48.2773 13.6307H48.3438L49.2695 10.1947H50.1221L51.0478 13.6307H51.1182L51.9209 10.1947H52.8096L51.5732 14.6977Z" fill="white"/>
<path d="M53.8535 10.1947H54.709V10.9101H54.7754C54.8881 10.6532 55.0781 10.4378 55.3189 10.294C55.5598 10.1502 55.8395 10.0851 56.1191 10.1078C56.3382 10.0914 56.5582 10.1244 56.7628 10.2045C56.9674 10.2846 57.1514 10.4097 57.3011 10.5705C57.4508 10.7314 57.5623 10.9238 57.6275 11.1337C57.6927 11.3435 57.7099 11.5653 57.6777 11.7826V14.6976H56.7891V12.0058C56.7891 11.2822 56.4746 10.9223 55.8174 10.9223C55.6686 10.9154 55.5201 10.9407 55.3821 10.9965C55.244 11.0523 55.1197 11.1374 55.0175 11.2457C54.9154 11.3541 54.8379 11.4833 54.7904 11.6244C54.7429 11.7656 54.7264 11.9153 54.7422 12.0634V14.6977H53.8535L53.8535 10.1947Z" fill="white"/>
<path d="M59.0938 8.43692H59.9824V14.6977H59.0938V8.43692Z" fill="white"/>
<path d="M61.218 12.4443C61.1897 12.1483 61.2236 11.8498 61.3175 11.5677C61.4113 11.2856 61.5631 11.0262 61.7631 10.8063C61.963 10.5863 62.2068 10.4105 62.4786 10.2902C62.7505 10.1699 63.0445 10.1078 63.3418 10.1078C63.6391 10.1078 63.9331 10.1699 64.205 10.2902C64.4768 10.4105 64.7206 10.5863 64.9205 10.8063C65.1205 11.0262 65.2723 11.2856 65.3661 11.5677C65.46 11.8498 65.4939 12.1483 65.4656 12.4443C65.4944 12.7405 65.4609 13.0395 65.3673 13.322C65.2737 13.6045 65.122 13.8644 64.922 14.0848C64.722 14.3052 64.4781 14.4813 64.2059 14.6018C63.9338 14.7224 63.6394 14.7846 63.3418 14.7846C63.0442 14.7846 62.7498 14.7224 62.4777 14.6018C62.2056 14.4813 61.9617 14.3052 61.7616 14.0848C61.5616 13.8644 61.4099 13.6045 61.3163 13.322C61.2227 13.0395 61.1892 12.7405 61.218 12.4443ZM64.551 12.4443C64.551 11.4682 64.1126 10.8974 63.343 10.8974C62.5706 10.8974 62.136 11.4682 62.136 12.4443C62.136 13.4282 62.5706 13.9946 63.343 13.9946C64.1126 13.9946 64.551 13.4243 64.551 12.4443H64.551Z" fill="white"/>
<path d="M66.4009 13.4243C66.4009 12.6137 67.0044 12.1464 68.0757 12.08L69.2954 12.0097V11.6211C69.2954 11.1455 68.9809 10.8769 68.3735 10.8769C67.8774 10.8769 67.5337 11.059 67.4351 11.3774H66.5747C66.6655 10.604 67.3931 10.1079 68.4145 10.1079C69.5435 10.1079 70.1802 10.6699 70.1802 11.6211V14.6977H69.3247V14.0649H69.2544C69.1117 14.2919 68.9113 14.477 68.6736 14.6012C68.436 14.7254 68.1697 14.7843 67.9019 14.7719C67.7128 14.7916 67.5218 14.7714 67.341 14.7127C67.1602 14.654 66.9938 14.5581 66.8524 14.4311C66.711 14.3041 66.5977 14.1489 66.52 13.9755C66.4422 13.8021 66.4016 13.6143 66.4009 13.4243ZM69.2954 13.0395V12.663L68.1958 12.7334C67.5757 12.7749 67.2944 12.9858 67.2944 13.3828C67.2944 13.788 67.646 14.0239 68.1294 14.0239C68.2711 14.0382 68.4141 14.0239 68.5502 13.9818C68.6862 13.9397 68.8123 13.8707 68.9211 13.7789C69.0299 13.687 69.1191 13.5742 69.1834 13.4472C69.2477 13.3202 69.2858 13.1816 69.2954 13.0395Z" fill="white"/>
<path d="M71.3481 12.4443C71.3481 11.0214 72.0796 10.12 73.2173 10.12C73.4987 10.1071 73.778 10.1745 74.0225 10.3144C74.267 10.4543 74.4667 10.6609 74.5981 10.91H74.6646V8.43692H75.5532V14.6977H74.7017V13.9862H74.6314C74.4897 14.2337 74.2831 14.4378 74.0339 14.5762C73.7846 14.7147 73.5022 14.7824 73.2173 14.7719C72.0718 14.7719 71.3481 13.8705 71.3481 12.4443ZM72.2661 12.4443C72.2661 13.3993 72.7163 13.974 73.4693 13.974C74.2183 13.974 74.6812 13.391 74.6812 12.4482C74.6812 11.5097 74.2134 10.9184 73.4693 10.9184C72.7212 10.9184 72.2661 11.497 72.2661 12.4443H72.2661Z" fill="white"/>
<path d="M79.2298 12.4443C79.2015 12.1483 79.2353 11.8498 79.3292 11.5677C79.423 11.2856 79.5748 11.0263 79.7747 10.8063C79.9746 10.5863 80.2183 10.4106 80.4902 10.2903C80.762 10.17 81.056 10.1079 81.3533 10.1079C81.6506 10.1079 81.9446 10.17 82.2164 10.2903C82.4883 10.4106 82.732 10.5863 82.9319 10.8063C83.1319 11.0263 83.2836 11.2856 83.3775 11.5677C83.4713 11.8498 83.5051 12.1483 83.4768 12.4443C83.5057 12.7405 83.4722 13.0395 83.3786 13.322C83.2851 13.6045 83.1334 13.8643 82.9334 14.0847C82.7334 14.3052 82.4895 14.4813 82.2174 14.6018C81.9453 14.7224 81.6509 14.7846 81.3533 14.7846C81.0557 14.7846 80.7613 14.7224 80.4892 14.6018C80.2171 14.4813 79.9732 14.3052 79.7732 14.0847C79.5732 13.8643 79.4216 13.6045 79.328 13.322C79.2344 13.0395 79.2009 12.7405 79.2298 12.4443ZM82.5628 12.4443C82.5628 11.4682 82.1243 10.8974 81.3548 10.8974C80.5823 10.8974 80.1478 11.4682 80.1478 12.4443C80.1478 13.4282 80.5823 13.9946 81.3548 13.9946C82.1243 13.9945 82.5628 13.4242 82.5628 12.4443Z" fill="white"/>
<path d="M84.6694 10.1947H85.5249V10.9101H85.5913C85.704 10.6532 85.894 10.4378 86.1348 10.294C86.3757 10.1502 86.6555 10.0851 86.9351 10.1078C87.1542 10.0914 87.3742 10.1244 87.5788 10.2045C87.7834 10.2846 87.9673 10.4097 88.117 10.5705C88.2667 10.7314 88.3783 10.9238 88.4435 11.1337C88.5087 11.3435 88.5258 11.5653 88.4937 11.7826V14.6976H87.605V12.0058C87.605 11.2822 87.2905 10.9223 86.6333 10.9223C86.4846 10.9154 86.3361 10.9407 86.198 10.9965C86.0599 11.0523 85.9356 11.1374 85.8335 11.2457C85.7313 11.3541 85.6539 11.4833 85.6063 11.6244C85.5588 11.7656 85.5424 11.9153 85.5581 12.0634V14.6977H84.6694V10.1947Z" fill="white"/>
<path d="M93.5151 9.07364V10.2152H94.4907V10.9638H93.5151V13.2792C93.5151 13.7509 93.7095 13.9574 94.1519 13.9574C94.2651 13.9571 94.3783 13.9502 94.4907 13.9369V14.6771C94.3311 14.7057 94.1694 14.7209 94.0073 14.7226C93.019 14.7226 92.6255 14.3749 92.6255 13.5067V10.9637H91.9106V10.2152H92.6255V9.07364H93.5151Z" fill="white"/>
<path d="M95.7046 8.43692H96.5854V10.9184H96.6558C96.7739 10.659 96.9691 10.4425 97.2148 10.2981C97.4605 10.1538 97.7447 10.0887 98.0288 10.1117C98.2467 10.0999 98.4646 10.1363 98.6669 10.2183C98.8692 10.3003 99.0508 10.426 99.199 10.5864C99.3471 10.7467 99.458 10.9377 99.5238 11.1459C99.5896 11.354 99.6086 11.5741 99.5795 11.7904V14.6977H98.69V12.0097C98.69 11.2904 98.355 10.9262 97.7271 10.9262C97.5743 10.9136 97.4207 10.9346 97.2769 10.9877C97.1332 11.0407 97.0027 11.1246 96.8947 11.2333C96.7867 11.3421 96.7038 11.4731 96.6517 11.6172C96.5997 11.7613 96.5797 11.9151 96.5933 12.0678V14.6977H95.7046L95.7046 8.43692Z" fill="white"/>
<path d="M104.761 13.4819C104.641 13.8934 104.379 14.2494 104.022 14.4875C103.666 14.7257 103.237 14.8308 102.81 14.7846C102.514 14.7924 102.219 14.7356 101.946 14.6181C101.674 14.5005 101.43 14.3251 101.232 14.104C101.034 13.8828 100.887 13.6213 100.8 13.3375C100.713 13.0536 100.69 12.7544 100.73 12.4604C100.691 12.1655 100.715 11.8656 100.801 11.5809C100.888 11.2962 101.035 11.0334 101.231 10.8104C101.428 10.5873 101.671 10.4091 101.943 10.2879C102.214 10.1667 102.509 10.1053 102.806 10.1078C104.059 10.1078 104.815 10.9638 104.815 12.3778V12.6879H101.635V12.7377C101.621 12.903 101.642 13.0693 101.696 13.226C101.751 13.3828 101.837 13.5265 101.95 13.648C102.063 13.7694 102.2 13.8659 102.352 13.9313C102.504 13.9967 102.669 14.0296 102.835 14.0277C103.047 14.0532 103.263 14.015 103.453 13.9178C103.644 13.8206 103.802 13.6688 103.906 13.4818L104.761 13.4819ZM101.635 12.0307H103.91C103.921 11.8796 103.9 11.7278 103.85 11.585C103.799 11.4423 103.718 11.3118 103.614 11.202C103.51 11.0921 103.383 11.0053 103.243 10.9471C103.103 10.889 102.953 10.8607 102.801 10.8642C102.648 10.8623 102.495 10.8911 102.353 10.9491C102.21 11.007 102.081 11.0929 101.972 11.2016C101.864 11.3103 101.778 11.4397 101.72 11.582C101.662 11.7244 101.633 11.877 101.635 12.0307H101.635Z" fill="white"/>
</g>
<defs>
<clipPath id="clip0">
<rect width="119.664" height="40" fill="white"/>
</clipPath>
</defs>
</svg>
