<svg width="17" height="14" viewBox="0 0 17 14" fill="none" xmlns="http://www.w3.org/2000/svg">
<g id="arrow-right">
<path id="Shape" d="M1.5 8C0.947715 8 0.5 7.55228 0.5 7C0.5 6.44772 0.947715 6 1.5 6H15.5C16.0523 6 16.5 6.44772 16.5 7C16.5 7.55228 16.0523 8 15.5 8H1.5Z" fill="#080B15"/>
<path id="Shape_2" d="M14.0858 7L8.79289 1.70711C8.40237 1.31658 8.40237 0.683418 8.79289 0.292893C9.18342 -0.0976311 9.81658 -0.0976311 10.2071 0.292893L16.2071 6.29289C16.5976 6.68342 16.5976 7.31658 16.2071 7.70711L10.2071 13.7071C9.81658 14.0976 9.18342 14.0976 8.79289 13.7071C8.40237 13.3166 8.40237 12.6834 8.79289 12.2929L14.0858 7Z" fill="#080B15"/>
</g>
</svg>
