<svg width="12" height="12" viewBox="0 0 12 12" fill="none" xmlns="http://www.w3.org/2000/svg">
<path d="M5.75394 1.12007C5.67812 1.15144 5.60708 1.19794 5.54545 1.25958L2.11688 4.68815C1.86583 4.9392 1.86583 5.34623 2.11688 5.59729C2.36793 5.84834 2.77496 5.84834 3.02601 5.59729L5.35716 3.26614V10.2856C5.35716 10.6406 5.64498 10.9284 6.00002 10.9284C6.35506 10.9284 6.64287 10.6406 6.64287 10.2856V3.26614L8.97402 5.59729C9.22507 5.84834 9.63211 5.84834 9.88316 5.59729C10.1342 5.34623 10.1342 4.9392 9.88316 4.68815L6.45459 1.25958C6.32906 1.13405 6.16454 1.07129 6.00002 1.07129C5.91285 1.07129 5.82974 1.08864 5.75394 1.12007Z" fill="#2D374F"/>
</svg>
