<svg width="14" height="14" viewBox="0 0 14 14" fill="none" xmlns="http://www.w3.org/2000/svg">
<path d="M6.71291 12.6931C6.62445 12.6565 6.54158 12.6022 6.46967 12.5303L2.46967 8.53033C2.17678 8.23744 2.17678 7.76256 2.46967 7.46967C2.76256 7.17678 3.23744 7.17678 3.53033 7.46967L6.25 10.1893V2C6.25 1.58579 6.58579 1.25 7 1.25C7.41421 1.25 7.75 1.58579 7.75 2V10.1893L10.4697 7.46967C10.7626 7.17678 11.2374 7.17678 11.5303 7.46967C11.8232 7.76256 11.8232 8.23744 11.5303 8.53033L7.53033 12.5303C7.38388 12.6768 7.19194 12.75 7 12.75C6.89831 12.75 6.80134 12.7298 6.71291 12.6931Z" fill="#3C83E8"/>
</svg>
