<svg width="12" height="12" viewBox="0 0 12 12" fill="none" xmlns="http://www.w3.org/2000/svg">
<path d="M5.75394 10.8794C5.67812 10.8481 5.60708 10.8016 5.54545 10.7399L2.11688 7.31136C1.86583 7.06031 1.86583 6.65328 2.11688 6.40223C2.36793 6.15117 2.77496 6.15117 3.02601 6.40223L5.35716 8.73337V1.71394C5.35716 1.3589 5.64498 1.07108 6.00002 1.07108C6.35506 1.07108 6.64287 1.3589 6.64287 1.71394V8.73337L8.97402 6.40223C9.22507 6.15117 9.63211 6.15117 9.88316 6.40223C10.1342 6.65328 10.1342 7.06031 9.88316 7.31136L6.45459 10.7399C6.32906 10.8655 6.16454 10.9282 6.00002 10.9282C5.91285 10.9282 5.82974 10.9109 5.75394 10.8794Z" fill="#818795"/>
</svg>
