<svg width="14" height="14" viewBox="0 0 14 14" fill="none" xmlns="http://www.w3.org/2000/svg">
<path d="M6.71291 1.30691C6.62445 1.34351 6.54158 1.39776 6.46967 1.46967L2.46967 5.46967C2.17678 5.76256 2.17678 6.23744 2.46967 6.53033C2.76256 6.82322 3.23744 6.82322 3.53033 6.53033L6.25 3.81066V12C6.25 12.4142 6.58579 12.75 7 12.75C7.41421 12.75 7.75 12.4142 7.75 12V3.81066L10.4697 6.53033C10.7626 6.82322 11.2374 6.82322 11.5303 6.53033C11.8232 6.23744 11.8232 5.76256 11.5303 5.46967L7.53033 1.46967C7.38388 1.32322 7.19194 1.25 7 1.25C6.89831 1.25 6.80134 1.27024 6.71291 1.30691Z" fill="#FB7F04"/>
</svg>
