<svg viewBox="0 0 40 40" fill="none" xmlns="http://www.w3.org/2000/svg">
<path d="M35.3871 15.0478C35.7144 15.0478 35.9435 14.7458 35.9108 14.3934L35.7635 12.7993L37.0565 13.739C37.3183 13.9404 37.6948 13.8732 37.8748 13.588C38.0549 13.3027 37.9403 12.9 37.5966 12.7322L36.189 12.0778L37.6129 11.373C37.9403 11.222 38.0385 10.836 37.8912 10.5508C37.7275 10.2655 37.3183 10.1984 37.0565 10.3997L35.7799 11.3394L35.9272 9.74531C35.9599 9.37614 35.7144 9.09088 35.3871 9.09088C35.0106 9.09088 34.7979 9.37614 34.8142 9.74531L34.9452 11.3394L33.6686 10.3997C33.4067 10.1984 33.0303 10.2487 32.8502 10.5508C32.6866 10.836 32.7848 11.2052 33.1285 11.373L34.536 12.061L33.1121 12.749C32.7848 12.9 32.6702 13.2859 32.8339 13.588C32.9975 13.89 33.4067 13.9404 33.6686 13.739L34.9452 12.8161L34.8306 14.3934C34.7979 14.7458 35.0106 15.0478 35.3871 15.0478Z" fill="#96C0FF"/>
<path d="M7.84096 35.8604C8.16829 35.8604 8.39743 35.5584 8.36469 35.206L8.21739 33.6119L9.51037 34.5516C9.77223 34.7529 10.165 34.6858 10.3287 34.4005C10.5087 34.1153 10.3942 33.7125 10.0505 33.5447L8.64293 32.8903L10.0668 32.1855C10.3942 32.0345 10.4924 31.6486 10.3451 31.3633C10.1814 31.0781 9.77223 31.0109 9.51037 31.2123L8.23376 32.152L8.38106 30.5579C8.41379 30.1887 8.16829 29.9034 7.84096 29.9034C7.46452 29.9034 7.25175 30.1887 7.26812 30.5579L7.39905 32.152L6.12245 31.2123C5.86058 31.0109 5.48414 31.0613 5.30411 31.3633C5.14044 31.6486 5.23864 32.0177 5.58234 32.1855L6.98988 32.8735L5.58234 33.5615C5.23864 33.7125 5.12407 34.0985 5.28774 34.4005C5.45141 34.7026 5.86058 34.7529 6.12245 34.5516L7.39905 33.6286L7.28449 35.206C7.25175 35.5584 7.46452 35.8604 7.84096 35.8604Z" fill="#96C0FF"/>
<path d="M30.9395 37.3014C31.4401 37.3014 31.7602 36.9485 31.7602 36.4314V34.9213L32.6795 35.545C33.0488 35.8487 33.5002 35.8405 33.7711 35.4547C34.0009 35.1182 33.9434 34.6832 33.5331 34.4288L31.7602 33.3536V32.3851L31.5633 29.7505L33.7711 31.2361L34.6 31.7121L34.6493 33.7804C34.6657 34.2647 35.0186 34.5355 35.4208 34.4945C35.8886 34.4616 36.1184 34.0759 36.0446 33.6163L35.9625 32.5L37.2757 33.2551C37.7189 33.5178 38.1867 33.4029 38.4247 32.9761C38.6628 32.5493 38.5314 32.0815 38.0964 31.8352L36.7914 31.0719L37.7928 30.5877C38.2196 30.4235 38.4494 30.0296 38.2442 29.6028C38.0636 29.2334 37.6614 29.0775 37.2346 29.2991L35.4208 30.284L34.5836 29.808L32.187 28.6507L34.5836 27.5017L35.4208 27.0174L37.2346 28.0105C37.6614 28.2321 38.0718 28.068 38.2524 27.6986C38.4494 27.2801 38.2278 26.8779 37.7928 26.7137L36.7914 26.2295L38.0964 25.4662C38.5396 25.2118 38.671 24.7604 38.4329 24.3254C38.1867 23.9068 37.7189 23.7837 37.2757 24.0463L35.9625 24.7932L36.0446 23.6934C36.1184 23.2173 35.8886 22.8316 35.4208 22.807C35.0186 22.7741 34.6657 23.0368 34.6493 23.521L34.6 25.5893L33.7711 26.0736L31.5633 27.5591L31.7602 24.9163V23.9478L33.5331 22.8726C33.9434 22.6182 33.9927 22.1832 33.7711 21.8385C33.5002 21.4609 33.0488 21.4527 32.6795 21.7564L31.7602 22.3802V20.87C31.7602 20.3529 31.4401 20 30.9395 20C30.4552 20 30.1187 20.3529 30.1187 20.87V22.3802L29.1913 21.7564C28.822 21.4527 28.387 21.4609 28.1079 21.8385C27.8781 22.1832 27.9437 22.61 28.3459 22.8726L30.1187 23.9478V24.9163L30.3239 27.5673L28.1161 26.0736L27.2871 25.5893L27.2297 23.521C27.2133 23.0368 26.8686 22.7741 26.4664 22.807C25.9904 22.8398 25.7688 23.2256 25.8426 23.6852L25.9247 24.7932L24.6115 24.0463C24.1765 23.7919 23.6923 23.9068 23.4542 24.3254C23.208 24.7604 23.3475 25.22 23.7825 25.4662L25.0957 26.2295L24.0944 26.7137C23.6512 26.8779 23.4378 27.2719 23.6348 27.6986C23.8154 28.068 24.2175 28.2321 24.6443 28.0105L26.4582 27.0174L27.2954 27.5017L29.6919 28.6507L27.2954 29.808L26.4582 30.284L24.6443 29.2909C24.2175 29.0611 23.8154 29.2334 23.6348 29.6028C23.4378 30.0296 23.6512 30.4153 24.0944 30.5877L25.0957 31.0719L23.7907 31.8352C23.3475 32.0815 23.208 32.5575 23.4542 32.9761C23.7005 33.4111 24.1683 33.5178 24.6115 33.2551L25.9247 32.5082L25.8426 33.6081C25.7605 34.0759 25.9904 34.4616 26.4582 34.4945C26.8686 34.5273 27.2133 34.2564 27.2297 33.7804L27.2871 31.7039L28.1161 31.2279L30.3239 29.7423L30.1187 32.3851V33.3536L28.3459 34.4288C27.9437 34.6832 27.8863 35.1182 28.1079 35.4547C28.3787 35.8405 28.822 35.8487 29.1913 35.545L30.1187 34.9213V36.4314C30.1187 36.9403 30.4552 37.3014 30.9395 37.3014Z" fill="#63A1FF"/>
<path d="M30.9395 37.3014C31.4401 37.3014 31.7602 36.9485 31.7602 36.4314V34.9213L32.6795 35.545C33.0488 35.8487 33.5002 35.8405 33.7711 35.4547C34.0009 35.1182 33.9434 34.6832 33.5331 34.4288L31.7602 33.3536V32.3851L31.5633 29.7505L33.7711 31.2361L34.6 31.7121L34.6493 33.7804C34.6657 34.2647 35.0186 34.5355 35.4208 34.4945C35.8886 34.4616 36.1184 34.0759 36.0446 33.6163L35.9625 32.5L37.2757 33.2551C37.7189 33.5178 38.1867 33.4029 38.4247 32.9761C38.6628 32.5493 38.5314 32.0815 38.0964 31.8352L36.7914 31.0719L37.7928 30.5877C38.2196 30.4235 38.4494 30.0296 38.2442 29.6028C38.0636 29.2334 37.6614 29.0775 37.2346 29.2991L35.4208 30.284L34.5836 29.808L32.187 28.6507L34.5836 27.5017L35.4208 27.0174L37.2346 28.0105C37.6614 28.2321 38.0718 28.068 38.2524 27.6986C38.4494 27.2801 38.2278 26.8779 37.7928 26.7137L36.7914 26.2295L38.0964 25.4662C38.5396 25.2118 38.671 24.7604 38.4329 24.3254C38.1867 23.9068 37.7189 23.7837 37.2757 24.0463L35.9625 24.7932L36.0446 23.6934C36.1184 23.2173 35.8886 22.8316 35.4208 22.807C35.0186 22.7741 34.6657 23.0368 34.6493 23.521L34.6 25.5893L33.7711 26.0736L31.5633 27.5591L31.7602 24.9163V23.9478L33.5331 22.8726C33.9434 22.6182 33.9927 22.1832 33.7711 21.8385C33.5002 21.4609 33.0488 21.4527 32.6795 21.7564L31.7602 22.3802V20.87C31.7602 20.3529 31.4401 20 30.9395 20C30.4552 20 30.1187 20.3529 30.1187 20.87V22.3802L29.1913 21.7564C28.822 21.4527 28.387 21.4609 28.1079 21.8385C27.8781 22.1832 27.9437 22.61 28.3459 22.8726L30.1187 23.9478V24.9163L30.3239 27.5673L28.1161 26.0736L27.2871 25.5893L27.2297 23.521C27.2133 23.0368 26.8686 22.7741 26.4664 22.807C25.9904 22.8398 25.7688 23.2256 25.8426 23.6852L25.9247 24.7932L24.6115 24.0463C24.1765 23.7919 23.6923 23.9068 23.4542 24.3254C23.208 24.7604 23.3475 25.22 23.7825 25.4662L25.0957 26.2295L24.0944 26.7137C23.6512 26.8779 23.4378 27.2719 23.6348 27.6986C23.8154 28.068 24.2175 28.2321 24.6443 28.0105L26.4582 27.0174L27.2954 27.5017L29.6919 28.6507L27.2954 29.808L26.4582 30.284L24.6443 29.2909C24.2175 29.0611 23.8154 29.2334 23.6348 29.6028C23.4378 30.0296 23.6512 30.4153 24.0944 30.5877L25.0957 31.0719L23.7907 31.8352C23.3475 32.0815 23.208 32.5575 23.4542 32.9761C23.7005 33.4111 24.1683 33.5178 24.6115 33.2551L25.9247 32.5082L25.8426 33.6081C25.7605 34.0759 25.9904 34.4616 26.4582 34.4945C26.8686 34.5273 27.2133 34.2564 27.2297 33.7804L27.2871 31.7039L28.1161 31.2279L30.3239 29.7423L30.1187 32.3851V33.3536L28.3459 34.4288C27.9437 34.6832 27.8863 35.1182 28.1079 35.4547C28.3787 35.8405 28.822 35.8487 29.1913 35.545L30.1187 34.9213V36.4314C30.1187 36.9403 30.4552 37.3014 30.9395 37.3014Z" fill="url(#paint0_linear)" fill-opacity="0.2"/>
<path d="M13.1376 25.6349C13.783 25.6349 14.1956 25.18 14.1956 24.5134V22.5668L15.3805 23.3709C15.8566 23.7623 16.4384 23.7517 16.7875 23.2545C17.0838 22.8207 17.0097 22.26 16.4807 21.9321L14.1956 20.5462V19.2978L13.9417 15.9018L16.7875 17.8167L17.8561 18.4303L17.9195 21.0963C17.9407 21.7205 18.3956 22.0696 18.914 22.0167C19.517 21.9744 19.8133 21.4772 19.718 20.8847L19.6122 19.4459L21.305 20.4192C21.8762 20.7578 22.4793 20.6096 22.7861 20.0595C23.0929 19.5094 22.9236 18.9064 22.3629 18.589L20.6808 17.6051L21.9715 16.9809C22.5216 16.7693 22.8178 16.2615 22.5533 15.7114C22.3206 15.2353 21.8022 15.0343 21.2521 15.3199L18.914 16.5895L17.8349 15.9759L14.7457 14.4842L17.8349 13.003L18.914 12.3788L21.2521 13.659C21.8022 13.9446 22.3312 13.733 22.5639 13.2569C22.8178 12.7174 22.5322 12.199 21.9715 11.9874L20.6808 11.3632L22.3629 10.3793C22.9342 10.0514 23.1035 9.4695 22.7967 8.90879C22.4793 8.36924 21.8762 8.21055 21.305 8.54909L19.6122 9.51182L19.718 8.09418C19.8133 7.48057 19.517 6.98334 18.914 6.9516C18.3956 6.90928 17.9407 7.24782 17.9195 7.87201L17.8561 10.538L16.7875 11.1622L13.9417 13.0771L14.1956 9.67051V8.42214L16.4807 7.03623C17.0097 6.70827 17.0732 6.14756 16.7875 5.70323C16.4384 5.21657 15.8566 5.20599 15.3805 5.59743L14.1956 6.40147V4.45485C14.1956 3.78835 13.783 3.33344 13.1376 3.33344C12.5135 3.33344 12.0797 3.78835 12.0797 4.45485V6.40147L10.8842 5.59743C10.4081 5.20599 9.84744 5.21657 9.48774 5.70323C9.19151 6.14756 9.27615 6.69769 9.79454 7.03623L12.0797 8.42214V9.67051L12.3442 13.0877L9.49832 11.1622L8.42979 10.538L8.35574 7.87201C8.33458 7.24782 7.89024 6.90928 7.37185 6.9516C6.75825 6.99392 6.4726 7.49115 6.56782 8.0836L6.67361 9.51182L4.9809 8.54909C4.42019 8.22113 3.79601 8.36924 3.4892 8.90879C3.17182 9.4695 3.35167 10.062 3.91238 10.3793L5.60509 11.3632L4.3144 11.9874C3.74311 12.199 3.46804 12.7068 3.72195 13.2569C3.9547 13.733 4.47309 13.9446 5.02322 13.659L7.36127 12.3788L8.44037 13.003L11.5296 14.4842L8.44037 15.9759L7.36127 16.5895L5.02322 15.3093C4.47309 15.0131 3.9547 15.2353 3.72195 15.7114C3.46804 16.2615 3.74311 16.7587 4.3144 16.9809L5.60509 17.6051L3.92296 18.589C3.35167 18.9064 3.17182 19.52 3.4892 20.0595C3.80659 20.6202 4.40961 20.7578 4.9809 20.4192L6.67361 19.4565L6.56782 20.8741C6.46202 21.4772 6.75825 21.9744 7.36127 22.0167C7.89024 22.059 8.33458 21.7099 8.35574 21.0963L8.42979 18.4197L9.49832 17.8061L12.3442 15.8912L12.0797 19.2978V20.5462L9.79454 21.9321C9.27615 22.26 9.20209 22.8207 9.48774 23.2545C9.83686 23.7517 10.4081 23.7623 10.8842 23.3709L12.0797 22.5668V24.5134C12.0797 25.1694 12.5135 25.6349 13.1376 25.6349Z" fill="#63A1FF"/>
<path d="M13.1376 25.6349C13.783 25.6349 14.1956 25.18 14.1956 24.5134V22.5668L15.3805 23.3709C15.8566 23.7623 16.4384 23.7517 16.7875 23.2545C17.0838 22.8207 17.0097 22.26 16.4807 21.9321L14.1956 20.5462V19.2978L13.9417 15.9018L16.7875 17.8167L17.8561 18.4303L17.9195 21.0963C17.9407 21.7205 18.3956 22.0696 18.914 22.0167C19.517 21.9744 19.8133 21.4772 19.718 20.8847L19.6122 19.4459L21.305 20.4192C21.8762 20.7578 22.4793 20.6096 22.7861 20.0595C23.0929 19.5094 22.9236 18.9064 22.3629 18.589L20.6808 17.6051L21.9715 16.9809C22.5216 16.7693 22.8178 16.2615 22.5533 15.7114C22.3206 15.2353 21.8022 15.0343 21.2521 15.3199L18.914 16.5895L17.8349 15.9759L14.7457 14.4842L17.8349 13.003L18.914 12.3788L21.2521 13.659C21.8022 13.9446 22.3312 13.733 22.5639 13.2569C22.8178 12.7174 22.5322 12.199 21.9715 11.9874L20.6808 11.3632L22.3629 10.3793C22.9342 10.0514 23.1035 9.4695 22.7967 8.90879C22.4793 8.36924 21.8762 8.21055 21.305 8.54909L19.6122 9.51182L19.718 8.09418C19.8133 7.48057 19.517 6.98334 18.914 6.9516C18.3956 6.90928 17.9407 7.24782 17.9195 7.87201L17.8561 10.538L16.7875 11.1622L13.9417 13.0771L14.1956 9.67051V8.42214L16.4807 7.03623C17.0097 6.70827 17.0732 6.14756 16.7875 5.70323C16.4384 5.21657 15.8566 5.20599 15.3805 5.59743L14.1956 6.40147V4.45485C14.1956 3.78835 13.783 3.33344 13.1376 3.33344C12.5135 3.33344 12.0797 3.78835 12.0797 4.45485V6.40147L10.8842 5.59743C10.4081 5.20599 9.84744 5.21657 9.48774 5.70323C9.19151 6.14756 9.27615 6.69769 9.79454 7.03623L12.0797 8.42214V9.67051L12.3442 13.0877L9.49832 11.1622L8.42979 10.538L8.35574 7.87201C8.33458 7.24782 7.89024 6.90928 7.37185 6.9516C6.75825 6.99392 6.4726 7.49115 6.56782 8.0836L6.67361 9.51182L4.9809 8.54909C4.42019 8.22113 3.79601 8.36924 3.4892 8.90879C3.17182 9.4695 3.35167 10.062 3.91238 10.3793L5.60509 11.3632L4.3144 11.9874C3.74311 12.199 3.46804 12.7068 3.72195 13.2569C3.9547 13.733 4.47309 13.9446 5.02322 13.659L7.36127 12.3788L8.44037 13.003L11.5296 14.4842L8.44037 15.9759L7.36127 16.5895L5.02322 15.3093C4.47309 15.0131 3.9547 15.2353 3.72195 15.7114C3.46804 16.2615 3.74311 16.7587 4.3144 16.9809L5.60509 17.6051L3.92296 18.589C3.35167 18.9064 3.17182 19.52 3.4892 20.0595C3.80659 20.6202 4.40961 20.7578 4.9809 20.4192L6.67361 19.4565L6.56782 20.8741C6.46202 21.4772 6.75825 21.9744 7.36127 22.0167C7.89024 22.059 8.33458 21.7099 8.35574 21.0963L8.42979 18.4197L9.49832 17.8061L12.3442 15.8912L12.0797 19.2978V20.5462L9.79454 21.9321C9.27615 22.26 9.20209 22.8207 9.48774 23.2545C9.83686 23.7517 10.4081 23.7623 10.8842 23.3709L12.0797 22.5668V24.5134C12.0797 25.1694 12.5135 25.6349 13.1376 25.6349Z" fill="url(#paint1_linear)" fill-opacity="0.2"/>
<defs>
<linearGradient id="paint0_linear" x1="30.9416" y1="20" x2="30.9416" y2="37.3014" gradientUnits="userSpaceOnUse">
<stop stop-color="white"/>
<stop offset="0.615101" stop-color="white" stop-opacity="0"/>
</linearGradient>
<linearGradient id="paint1_linear" x1="13.1404" y1="3.33344" x2="13.1404" y2="25.6349" gradientUnits="userSpaceOnUse">
<stop stop-color="white"/>
<stop offset="0.615101" stop-color="white" stop-opacity="0"/>
</linearGradient>
</defs>
</svg>
