<svg viewBox="0 0 40 40" fill="none" xmlns="http://www.w3.org/2000/svg">
<path d="M32.3974 28.8688C34.9893 28.8688 36.8513 27.1761 36.8513 24.8486C36.8513 22.5529 35.1057 20.8496 32.8629 20.8496C31.0432 20.8496 29.5198 22.0557 29.0754 23.7272C28.9062 24.2773 29.1495 24.8063 29.6467 24.965C30.1757 25.1343 30.7152 24.8592 30.9163 24.2456C31.1384 23.3675 31.953 22.7645 32.8629 22.7645C34.0372 22.7645 34.9364 23.6214 34.9364 24.8486C34.9364 26.097 33.942 26.9539 32.3974 26.9539C29.1918 26.9539 25.616 25.1131 21.363 25.1131C19.1519 25.1131 17.0995 25.4622 15.1318 26.1182C14.5605 26.3086 14.2854 26.8058 14.4335 27.3242C14.5922 27.8638 15.1212 28.1494 15.7136 27.9378C17.5015 27.3031 19.3106 27.028 21.363 27.028C25.5102 27.028 28.7263 28.8688 32.3974 28.8688ZM25.5207 36.6341C27.3087 36.6341 28.684 35.2905 28.684 33.4391C28.684 30.7625 25.9545 29.2814 21.0774 29.2814C19.1308 29.2814 16.9832 29.6517 15.1318 30.2653C14.5605 30.4557 14.2854 30.9635 14.4335 31.4714C14.5922 32.0109 15.1212 32.2965 15.7136 32.085C17.3852 31.5031 19.2154 31.1963 21.0774 31.1963C24.7061 31.1963 26.7691 32.0744 26.7691 33.4391C26.7691 34.2326 26.2401 34.7192 25.5207 34.7192C24.8966 34.7192 24.4628 34.3172 24.2724 33.6296C24.0819 33.1217 23.5847 32.8361 23.0452 33.0054C22.495 33.1746 22.2834 33.7459 22.4845 34.3066C22.8865 35.6502 24.0396 36.6341 25.5207 36.6341Z" fill="#CAE6FA"/>
<path d="M9.88735 21.5714C10.3458 21.7726 10.7807 21.5781 10.9885 21.1046L11.5955 19.7217L12.1865 20.6624C12.4027 21.0889 12.8193 21.2628 13.2224 21.0184C13.568 20.8026 13.6903 20.3812 13.4167 19.9833L12.2255 18.2863L12.6147 17.3994L13.4931 14.9078L14.9178 17.1554L15.4856 17.9244L14.6994 19.8382C14.5198 20.2882 14.7342 20.678 15.1189 20.8021C15.5605 20.96 15.926 20.6991 16.043 20.2486L16.4165 19.1935L17.3155 20.4127C17.6158 20.8313 18.0903 20.9141 18.4798 20.6189C18.8693 20.3238 18.9371 19.8426 18.6377 19.4423L17.7495 18.2189L18.861 18.1779C19.3178 18.1991 19.6865 17.9308 19.6702 17.4575C19.6532 17.0467 19.3477 16.7423 18.8678 16.7737L16.811 16.9466L16.2358 16.1742L14.5063 14.1514L17.1626 14.0624L18.1238 13.9554L19.3857 15.5938C19.6874 15.9682 20.1291 15.9828 20.4429 15.7172C20.7915 15.413 20.7502 14.9557 20.4179 14.6306L19.6956 13.7848L21.1973 13.6103C21.7054 13.5554 22.0071 13.1948 21.9639 12.7009C21.9067 12.2186 21.5278 11.9179 21.0164 11.9802L19.5138 12.1364L20.0309 11.1623C20.2899 10.7561 20.2345 10.3105 19.816 10.0999C19.4609 9.90825 19.0322 10.0069 18.8225 10.4437L17.9462 12.3179L16.9925 12.4281L14.3738 12.9011L15.6163 10.5603L16.0055 9.67348L18.061 9.40141C18.539 9.33336 18.7589 8.95482 18.6946 8.55011C18.5983 8.09555 18.1882 7.90662 17.728 8.03626L16.6356 8.23801L17.2425 6.85515C17.4503 6.38167 17.299 5.92986 16.8406 5.72866C16.3971 5.53405 15.9472 5.72198 15.7394 6.19545L15.1324 7.57831L14.5339 6.6344C14.3177 6.2079 13.9161 6.04059 13.5088 6.27416C13.1599 6.49745 13.0485 6.91465 13.3112 7.31677L14.5024 9.01378L14.1132 9.90061L13.2357 12.4106L11.8143 10.1555L11.2499 9.37891L12.0285 7.4619C12.2081 7.01189 11.998 6.63286 11.6165 6.50129C11.1674 6.34004 10.8095 6.60421 10.6924 7.05477L10.3223 8.10235L9.41993 6.89068C9.12386 6.48288 8.63427 6.39349 8.24809 6.68112C7.84781 6.98049 7.79086 7.45744 8.09023 7.85772L8.98595 9.08442L7.87445 9.12542C7.40264 9.09762 7.04891 9.3726 7.05776 9.84257C7.07467 10.2533 7.37696 10.5653 7.85683 10.5339L9.91688 10.3535L10.4888 11.1333L12.2216 13.1487L9.56197 13.2452L8.60408 13.3446L7.34226 11.7063C7.04381 11.3243 6.60628 11.3205 6.29251 11.5862C5.94062 11.8978 5.98099 12.3368 6.31756 12.6728L7.03985 13.5186L5.53812 13.6931C5.03332 13.7404 4.71425 14.1202 4.77149 14.6025C4.82214 15.0998 5.20764 15.3855 5.71903 15.3231L7.22168 15.167L6.70453 16.141C6.44136 16.5364 6.49676 16.982 6.91195 17.2001C7.27454 17.3951 7.69904 17.2856 7.90538 16.8563L8.79251 14.978L9.74289 14.8752L12.3616 14.4022L11.1116 16.7397L10.7224 17.6266L8.66692 17.8986C8.1964 17.97 7.96897 18.3452 8.03665 18.7424C8.12964 19.2045 8.53218 19.3901 8.99242 19.2605L10.0924 19.062L9.48544 20.4449C9.28093 20.9109 9.44394 21.3768 9.88735 21.5714Z" fill="#63A1FF"/>
<path d="M9.88735 21.5714C10.3458 21.7726 10.7807 21.5781 10.9885 21.1046L11.5955 19.7217L12.1865 20.6624C12.4027 21.0889 12.8193 21.2628 13.2224 21.0184C13.568 20.8026 13.6903 20.3812 13.4167 19.9833L12.2255 18.2863L12.6147 17.3994L13.4931 14.9078L14.9178 17.1554L15.4856 17.9244L14.6994 19.8382C14.5198 20.2882 14.7342 20.678 15.1189 20.8021C15.5605 20.96 15.926 20.6991 16.043 20.2486L16.4165 19.1935L17.3155 20.4127C17.6158 20.8313 18.0903 20.9141 18.4798 20.6189C18.8693 20.3238 18.9371 19.8426 18.6377 19.4423L17.7495 18.2189L18.861 18.1779C19.3178 18.1991 19.6865 17.9308 19.6702 17.4575C19.6532 17.0467 19.3477 16.7423 18.8678 16.7737L16.811 16.9466L16.2358 16.1742L14.5063 14.1514L17.1626 14.0624L18.1238 13.9554L19.3857 15.5938C19.6874 15.9682 20.1291 15.9828 20.4429 15.7172C20.7915 15.413 20.7502 14.9557 20.4179 14.6306L19.6956 13.7848L21.1973 13.6103C21.7054 13.5554 22.0071 13.1948 21.9639 12.7009C21.9067 12.2186 21.5278 11.9179 21.0164 11.9802L19.5138 12.1364L20.0309 11.1623C20.2899 10.7561 20.2345 10.3105 19.816 10.0999C19.4609 9.90825 19.0322 10.0069 18.8225 10.4437L17.9462 12.3179L16.9925 12.4281L14.3738 12.9011L15.6163 10.5603L16.0055 9.67348L18.061 9.40141C18.539 9.33336 18.7589 8.95482 18.6946 8.55011C18.5983 8.09555 18.1882 7.90662 17.728 8.03626L16.6356 8.23801L17.2425 6.85515C17.4503 6.38167 17.299 5.92986 16.8406 5.72866C16.3971 5.53405 15.9472 5.72198 15.7394 6.19545L15.1324 7.57831L14.5339 6.6344C14.3177 6.2079 13.9161 6.04059 13.5088 6.27416C13.1599 6.49745 13.0485 6.91465 13.3112 7.31677L14.5024 9.01378L14.1132 9.90061L13.2357 12.4106L11.8143 10.1555L11.2499 9.37891L12.0285 7.4619C12.2081 7.01189 11.998 6.63286 11.6165 6.50129C11.1674 6.34004 10.8095 6.60421 10.6924 7.05477L10.3223 8.10235L9.41993 6.89068C9.12386 6.48288 8.63427 6.39349 8.24809 6.68112C7.84781 6.98049 7.79086 7.45744 8.09023 7.85772L8.98595 9.08442L7.87445 9.12542C7.40264 9.09762 7.04891 9.3726 7.05776 9.84257C7.07467 10.2533 7.37696 10.5653 7.85683 10.5339L9.91688 10.3535L10.4888 11.1333L12.2216 13.1487L9.56197 13.2452L8.60408 13.3446L7.34226 11.7063C7.04381 11.3243 6.60628 11.3205 6.29251 11.5862C5.94062 11.8978 5.98099 12.3368 6.31756 12.6728L7.03985 13.5186L5.53812 13.6931C5.03332 13.7404 4.71425 14.1202 4.77149 14.6025C4.82214 15.0998 5.20764 15.3855 5.71903 15.3231L7.22168 15.167L6.70453 16.141C6.44136 16.5364 6.49676 16.982 6.91195 17.2001C7.27454 17.3951 7.69904 17.2856 7.90538 16.8563L8.79251 14.978L9.74289 14.8752L12.3616 14.4022L11.1116 16.7397L10.7224 17.6266L8.66692 17.8986C8.1964 17.97 7.96897 18.3452 8.03665 18.7424C8.12964 19.2045 8.53218 19.3901 8.99242 19.2605L10.0924 19.062L9.48544 20.4449C9.28093 20.9109 9.44394 21.3768 9.88735 21.5714Z" fill="url(#paint0_linear)" fill-opacity="0.2"/>
<path d="M6.55458 32.9446C6.88191 32.9446 7.11105 32.6425 7.07832 32.2901L6.93101 30.696L8.22399 31.6357C8.48586 31.8371 8.87866 31.77 9.04233 31.4847C9.22236 31.1994 9.10779 30.7967 8.76409 30.6289L7.35655 29.9745L8.78046 29.2697C9.10779 29.1187 9.206 28.7327 9.05869 28.4475C8.89503 28.1622 8.48586 28.0951 8.22399 28.2965L6.94738 29.2362L7.09468 27.642C7.12742 27.2729 6.88191 26.9876 6.55458 26.9876C6.17814 26.9876 5.96538 27.2729 5.98174 27.642L6.11268 29.2362L4.83607 28.2965C4.5742 28.0951 4.19776 28.1454 4.01773 28.4475C3.85406 28.7327 3.95226 29.1019 4.29597 29.2697L5.70351 29.9577L4.29597 30.6457C3.95226 30.7967 3.8377 31.1827 4.00136 31.4847C4.16503 31.7867 4.5742 31.8371 4.83607 31.6357L6.11268 30.7128L5.99811 32.2901C5.96538 32.6425 6.17814 32.9446 6.55458 32.9446Z" fill="#96C0FF"/>
<defs>
<linearGradient id="paint0_linear" x1="16.8425" y1="5.72951" x2="9.8893" y2="21.5723" gradientUnits="userSpaceOnUse">
<stop stop-color="white"/>
<stop offset="0.615101" stop-color="white" stop-opacity="0"/>
</linearGradient>
</defs>
</svg>
