<svg viewBox="0 0 40 40" fill="none" xmlns="http://www.w3.org/2000/svg">
<path d="M28.2244 20.3063C30.8164 20.3063 32.6783 18.6136 32.6783 16.2861C32.6783 13.9904 30.9327 12.2871 28.6899 12.2871C26.8702 12.2871 25.3468 13.4932 24.9025 15.1647C24.7332 15.7148 24.9765 16.2438 25.4738 16.4025C26.0027 16.5718 26.5423 16.2967 26.7433 15.6831C26.9655 14.805 27.7801 14.202 28.6899 14.202C29.8642 14.202 30.7635 15.0589 30.7635 16.2861C30.7635 17.5345 29.769 18.3914 28.2244 18.3914C25.0188 18.3914 21.443 16.5506 17.1901 16.5506C14.979 16.5506 12.9266 16.8997 10.9588 17.5557C10.3875 17.7461 10.1124 18.2433 10.2605 18.7617C10.4192 19.3013 10.9482 19.5869 11.5406 19.3753C13.3286 18.7406 15.1377 18.4655 17.1901 18.4655C21.3372 18.4655 24.5533 20.3063 28.2244 20.3063ZM21.3478 28.0716C23.1357 28.0716 24.511 26.728 24.511 24.8766C24.511 22.2 21.7815 20.7189 16.9044 20.7189C14.9578 20.7189 12.8102 21.0892 10.9588 21.7028C10.3875 21.8932 10.1124 22.401 10.2605 22.9089C10.4192 23.4484 10.9482 23.734 11.5406 23.5225C13.2122 22.9406 15.0424 22.6338 16.9044 22.6338C20.5332 22.6338 22.5961 23.5119 22.5961 24.8766C22.5961 25.6701 22.0672 26.1567 21.3478 26.1567C20.7236 26.1567 20.2898 25.7547 20.0994 25.0671C19.909 24.5592 19.4117 24.2736 18.8722 24.4429C18.3221 24.6121 18.1105 25.1834 18.3115 25.7441C18.7135 27.0877 19.8667 28.0716 21.3478 28.0716Z" fill="#63A1FF"/>
<path d="M28.2244 20.3063C30.8164 20.3063 32.6783 18.6136 32.6783 16.2861C32.6783 13.9904 30.9327 12.2871 28.6899 12.2871C26.8702 12.2871 25.3468 13.4932 24.9025 15.1647C24.7332 15.7148 24.9765 16.2438 25.4738 16.4025C26.0027 16.5718 26.5423 16.2967 26.7433 15.6831C26.9655 14.805 27.7801 14.202 28.6899 14.202C29.8642 14.202 30.7635 15.0589 30.7635 16.2861C30.7635 17.5345 29.769 18.3914 28.2244 18.3914C25.0188 18.3914 21.443 16.5506 17.1901 16.5506C14.979 16.5506 12.9266 16.8997 10.9588 17.5557C10.3875 17.7461 10.1124 18.2433 10.2605 18.7617C10.4192 19.3013 10.9482 19.5869 11.5406 19.3753C13.3286 18.7406 15.1377 18.4655 17.1901 18.4655C21.3372 18.4655 24.5533 20.3063 28.2244 20.3063ZM21.3478 28.0716C23.1357 28.0716 24.511 26.728 24.511 24.8766C24.511 22.2 21.7815 20.7189 16.9044 20.7189C14.9578 20.7189 12.8102 21.0892 10.9588 21.7028C10.3875 21.8932 10.1124 22.401 10.2605 22.9089C10.4192 23.4484 10.9482 23.734 11.5406 23.5225C13.2122 22.9406 15.0424 22.6338 16.9044 22.6338C20.5332 22.6338 22.5961 23.5119 22.5961 24.8766C22.5961 25.6701 22.0672 26.1567 21.3478 26.1567C20.7236 26.1567 20.2898 25.7547 20.0994 25.0671C19.909 24.5592 19.4117 24.2736 18.8722 24.4429C18.3221 24.6121 18.1105 25.1834 18.3115 25.7441C18.7135 27.0877 19.8667 28.0716 21.3478 28.0716Z" fill="url(#paint0_linear)" fill-opacity="0.25"/>
<circle cx="6.95304" cy="20" r="0.909091" fill="#63A1FF"/>
<circle cx="12.7736" cy="25.9562" r="0.909091" fill="#63A1FF"/>
<circle cx="21.4496" cy="12.2871" r="0.909091" fill="#63A1FF"/>
<circle cx="34.4965" cy="24.1381" r="0.909091" fill="#63A1FF"/>
<circle cx="4.04727" cy="25.0472" r="0.909091" fill="#63A1FF"/>
<circle cx="28.5692" cy="25.0472" r="0.909091" fill="#63A1FF"/>
<circle cx="31.2628" cy="30.3323" r="0.909091" fill="#63A1FF"/>
<defs>
<linearGradient id="paint0_linear" x1="33.0007" y1="20.426" x2="10.4359" y2="20.426" gradientUnits="userSpaceOnUse">
<stop stop-color="white"/>
<stop offset="1" stop-color="white" stop-opacity="0"/>
</linearGradient>
</defs>
</svg>
