<svg viewBox="0 0 40 40" fill="none" xmlns="http://www.w3.org/2000/svg">
<path fill-rule="evenodd" clip-rule="evenodd" d="M26.2964 14.171C26.2964 16.4985 24.4344 18.1912 21.8424 18.1912C20.0628 18.1912 18.3901 17.7586 16.6665 17.3129C14.8344 16.8391 12.9448 16.3504 10.8081 16.3504C8.75566 16.3504 6.94658 16.6254 5.15865 17.2602C4.56621 17.4718 4.03724 17.1862 3.87854 16.6466C3.73043 16.1282 4.0055 15.631 4.57679 15.4406C6.54456 14.7846 8.59697 14.4355 10.8081 14.4355C13.0846 14.4355 15.1671 14.9629 17.1027 15.4532C18.7831 15.8788 20.3527 16.2763 21.8424 16.2763C23.387 16.2763 24.3815 15.4194 24.3815 14.171C24.3815 12.9438 23.4822 12.0869 22.3079 12.0869C21.3981 12.0869 20.5835 12.6899 20.3613 13.568C20.1603 14.1816 19.6207 14.4567 19.0918 14.2874C18.5945 14.1287 18.3512 13.5997 18.5205 13.0496C18.9648 11.3781 20.4882 10.172 22.3079 10.172C24.5507 10.172 26.2964 11.8753 26.2964 14.171ZM18.1289 26.633C18.1289 28.4844 16.7536 29.828 14.9657 29.828C13.4846 29.828 12.3314 28.8441 11.9294 27.5005C11.7284 26.9398 11.94 26.3685 12.4901 26.1992C13.0297 26.0299 13.5269 26.3156 13.7173 26.8234C13.9078 27.5111 14.3415 27.9131 14.9657 27.9131C15.6851 27.9131 16.2141 27.4264 16.2141 26.633C16.2141 25.2682 14.1511 24.3901 10.5223 24.3901C8.66036 24.3901 6.83012 24.6969 5.15857 25.2788C4.56612 25.4904 4.03715 25.2047 3.87846 24.6652C3.73034 24.1574 4.00541 23.6496 4.5767 23.4591C6.4281 22.8455 8.57572 22.4753 10.5223 22.4753C15.3995 22.4753 18.1289 23.9564 18.1289 26.633ZM31.7074 18.1324C34.2993 18.1324 36.1613 19.8251 36.1613 22.1525C36.1613 24.4483 34.4157 26.1516 32.1729 26.1516C30.3532 26.1516 28.8298 24.9455 28.3854 23.274C28.2162 22.7238 28.4595 22.1949 28.9567 22.0362C29.4857 21.8669 30.0253 22.142 30.2263 22.7556C30.4484 23.6337 31.263 24.2367 32.1729 24.2367C33.3472 24.2367 34.2464 23.3798 34.2464 22.1525C34.2464 20.9042 33.252 20.0472 31.7074 20.0472C30.2177 20.0472 28.648 20.4448 26.9676 20.8704C25.0321 21.3606 22.9496 21.8881 20.673 21.8881C18.4619 21.8881 16.4095 21.5389 14.4418 20.883C13.8705 20.6926 13.5954 20.1953 13.7435 19.677C13.9022 19.1374 14.4312 18.8518 15.0236 19.0634C16.8115 19.6981 18.6206 19.9732 20.673 19.9732C22.8098 19.9732 24.6994 19.4845 26.5314 19.0107C28.2551 18.5649 29.9278 18.1324 31.7074 18.1324ZM4.5767 19.4495C6.4281 18.8359 8.57572 18.4656 10.5223 18.4656C12.074 18.4656 12.2188 20.3805 10.5223 20.3805C8.66036 20.3805 6.83012 20.6873 5.15857 21.2691C4.56612 21.4807 4.03715 21.1951 3.87846 20.6555C3.73034 20.1477 4.00541 19.6399 4.5767 19.4495Z" fill="#DA9D40"/>
<path fill-rule="evenodd" clip-rule="evenodd" d="M26.2964 14.171C26.2964 16.4985 24.4344 18.1912 21.8424 18.1912C20.0628 18.1912 18.3901 17.7586 16.6665 17.3129C14.8344 16.8391 12.9448 16.3504 10.8081 16.3504C8.75566 16.3504 6.94658 16.6254 5.15865 17.2602C4.56621 17.4718 4.03724 17.1862 3.87854 16.6466C3.73043 16.1282 4.0055 15.631 4.57679 15.4406C6.54456 14.7846 8.59697 14.4355 10.8081 14.4355C13.0846 14.4355 15.1671 14.9629 17.1027 15.4532C18.7831 15.8788 20.3527 16.2763 21.8424 16.2763C23.387 16.2763 24.3815 15.4194 24.3815 14.171C24.3815 12.9438 23.4822 12.0869 22.3079 12.0869C21.3981 12.0869 20.5835 12.6899 20.3613 13.568C20.1603 14.1816 19.6207 14.4567 19.0918 14.2874C18.5945 14.1287 18.3512 13.5997 18.5205 13.0496C18.9648 11.3781 20.4882 10.172 22.3079 10.172C24.5507 10.172 26.2964 11.8753 26.2964 14.171ZM18.1289 26.633C18.1289 28.4844 16.7536 29.828 14.9657 29.828C13.4846 29.828 12.3314 28.8441 11.9294 27.5005C11.7284 26.9398 11.94 26.3685 12.4901 26.1992C13.0297 26.0299 13.5269 26.3156 13.7173 26.8234C13.9078 27.5111 14.3415 27.9131 14.9657 27.9131C15.6851 27.9131 16.2141 27.4264 16.2141 26.633C16.2141 25.2682 14.1511 24.3901 10.5223 24.3901C8.66036 24.3901 6.83012 24.6969 5.15857 25.2788C4.56612 25.4904 4.03715 25.2047 3.87846 24.6652C3.73034 24.1574 4.00541 23.6496 4.5767 23.4591C6.4281 22.8455 8.57572 22.4753 10.5223 22.4753C15.3995 22.4753 18.1289 23.9564 18.1289 26.633ZM31.7074 18.1324C34.2993 18.1324 36.1613 19.8251 36.1613 22.1525C36.1613 24.4483 34.4157 26.1516 32.1729 26.1516C30.3532 26.1516 28.8298 24.9455 28.3854 23.274C28.2162 22.7238 28.4595 22.1949 28.9567 22.0362C29.4857 21.8669 30.0253 22.142 30.2263 22.7556C30.4484 23.6337 31.263 24.2367 32.1729 24.2367C33.3472 24.2367 34.2464 23.3798 34.2464 22.1525C34.2464 20.9042 33.252 20.0472 31.7074 20.0472C30.2177 20.0472 28.648 20.4448 26.9676 20.8704C25.0321 21.3606 22.9496 21.8881 20.673 21.8881C18.4619 21.8881 16.4095 21.5389 14.4418 20.883C13.8705 20.6926 13.5954 20.1953 13.7435 19.677C13.9022 19.1374 14.4312 18.8518 15.0236 19.0634C16.8115 19.6981 18.6206 19.9732 20.673 19.9732C22.8098 19.9732 24.6994 19.4845 26.5314 19.0107C28.2551 18.5649 29.9278 18.1324 31.7074 18.1324ZM4.5767 19.4495C6.4281 18.8359 8.57572 18.4656 10.5223 18.4656C12.074 18.4656 12.2188 20.3805 10.5223 20.3805C8.66036 20.3805 6.83012 20.6873 5.15857 21.2691C4.56612 21.4807 4.03715 21.1951 3.87846 20.6555C3.73034 20.1477 4.00541 19.6399 4.5767 19.4495Z" fill="url(#paint0_linear)" fill-opacity="0.35"/>
<circle cx="34.8114" cy="15.0144" r="0.909091" fill="#DA9D40"/>
<circle cx="24.2228" cy="31.2722" r="0.909091" fill="#DA9D40"/>
<circle cx="27.1708" cy="27.1143" r="0.909091" fill="#DA9D40"/>
<circle cx="21.3637" cy="24.6913" r="0.909091" fill="#DA9D40"/>
<circle cx="29.4587" cy="12.8362" r="0.909091" fill="#DA9D40"/>
<defs>
<linearGradient id="paint0_linear" x1="36.6253" y1="20.3071" x2="4.14821" y2="20.3071" gradientUnits="userSpaceOnUse">
<stop stop-color="white"/>
<stop offset="1" stop-color="white" stop-opacity="0"/>
</linearGradient>
</defs>
</svg>
