<svg width="141" height="30" fill="none" xmlns="http://www.w3.org/2000/svg"><mask id="a" style="mask-type:alpha" maskUnits="userSpaceOnUse" x="0" y="0" width="30" height="30"><rect width="30" height="30" rx="7" fill="#fff"/></mask><g mask="url(#a)"><path fill="#000" d="M0 0h30v30H0z"/><mask id="b" style="mask-type:alpha" maskUnits="userSpaceOnUse" x="0" y="0" width="30" height="30"><path fill="#fff" d="M0 0h30v30H0z"/></mask><g mask="url(#b)"><path fill-rule="evenodd" clip-rule="evenodd" d="m21.54 18.1-1.31-3.503s6.436-.145 8.154 1.243c1.719 1.388 1.617 3.089 1.617 3.089l.03 3.565-.007 7.572-6.84-9.35-2.227-2.4.583-.217z" fill="#009000"/><path fill-rule="evenodd" clip-rule="evenodd" d="M27.634 18.575c0 .473 2.397 3 2.397 3v-1.642s-2.397-1.83-2.397-1.358z" fill="#00CD00"/><path fill-rule="evenodd" clip-rule="evenodd" d="M25.916 20.89c-.136-.027-.427.339.09.97.518.632 1.181 2.22 1.43 2.428.25.21 1.003 1.34 1.288 1.058.284-.282-.418-2.464-.766-2.746-.348-.282-.873-.456-1.113-.74-.24-.283-.792-.941-.928-.97z" fill="#02C800"/><path fill-rule="evenodd" clip-rule="evenodd" d="m11.725 30.042 1.51-.041.414-1.16s.147-.814.227-1.32c.084-.535-.087-1.145.317-1.826.704-1.19 3.268-3.744 5.596-3.066.609.177.36 1.239.777 2.026.301.567.526 1.017.953 1.548.074.092.694.81.993 1.686.353 1.034.464 1.326.464 2.112h7.048s-3.956-6.435-6.294-9.003c-2.337-2.57-5.46-4.11-6.136-4.056-1.034.083-4.48.437-4.48.437H10.78L9.3 18.576l-1.57 1.378-1.473 1.044s-1.346 1.798-.091 2.44c.978.501 2.651-.314 3.364 0 .989.436.816 1.996.496 2.883-.556 1.542-3.35 1.173-4.897 1.074-.143-.009.485.227.395.443-.052.126-.452.026-.873.05-.06.004.212.532.212.532l6.862 1.622z" fill="#00C800"/><path fill-rule="evenodd" clip-rule="evenodd" d="M11.37 30c.525-.496.396-.623.396-.955 0-.333-.159-.053-.863.118-.705.17.93-1.01.863-1.908-.066-.9.29-1.688.395-2.8.104-1.112-.954-1.156-1.258-1.511-.304-.355-.558-.597-1.267-.726-.71-.13-1.153-.061-1.358.098-.204.16-.02.34.33.387.35.047 1.05.377 1.193.477.144.101.347.294.602.804.256.511.239 1.918-.18 2.427-.42.509-.051.586-.682 1.192-.63.606-1.352.893-2.553.81-1.202-.081-2.705-.579-2.348-.394.93.483 5.373 1.98 6.73 1.98zM12.314 30s.206-.909.415-.909 0 .91 0 .91h-.415z" fill="#0F0"/><path fill-rule="evenodd" clip-rule="evenodd" d="M13.024 30s.805-1.938.49-3.13c-.315-1.192-.375-1.339-.375-2.115 0-.776-.164-1.167-.423-1.643-.26-.477-.625-.47-.625-1.082 0-.613-.359-.98-.852-1.314-.493-.334-1.354-.456-1.828-.395-.475.061-1.261.515-1.688.752-.427.236-.823.825-.333.656.49-.169.692.196.692.718 0 .523-.78.858-1.112.784-.332-.075-.642-.66-.473-1.201.169-.54.775-1.291 1.234-1.477.458-.186 1.79-.662 2.371-.662.583 0 1.346.172 1.474-.189.128-.361-.419-.773-.893-.773-.475 0-.93.3-1.059.102-.129-.198.241-.355.684-.437.443-.083 1.237.137 1.783.335.546.198.835.346 1.268.346.433 0 1.31.003 1.723.215.412.212 1.45.618 1.679 1.063.23.444-.039.617.19.875.23.258.496.488.713.301.217-.187.217 0 .43 0s.638.571.935.571c.296 0 .172-.224.496-.075.323.15.752.59.885.886.133.297.1 1.51.337 1.729.237.219 1.1.855 1.162 1.31.063.455-.702.367-1.162 0-.558-.447-.484-.934-.86-1.554-.45-.745-.76-.983-.858-1.105-.181-.222-.504-.814-.504-.414 0 .401-.125.61-.294.61-.17 0-.329.002 0 .596.328.594.436 1.152.141 1.152-.294 0-1.194-1.095-1.578-.976-.385.12.044.797-.167.931-.21.134-.179.469-.37.469-.19 0-.4-.16-.539 0-.139.159-.121.397-.379.56-.257.164.079.102-.257.45-.336.35-.511.033-.605.35-.095.317-.189.239-.284.763-.096.525-.721 1.015-.257 1.19.088.033.258-.512.434-.512s.218.78.339.886c.107.094.183.454.183.454h-1.868z" fill="#009000"/><path fill-rule="evenodd" clip-rule="evenodd" d="M9.903 21.39c-.12.306.23.006.564.201.335.195.576.42.744.345.169-.075.212-.62-.12-.62-.333 0-1.068-.233-1.188.073z" fill="#009100"/><path fill-rule="evenodd" clip-rule="evenodd" d="M12.237 18.36c-.29.215.317.472.739.472.421 0 1.014.174 1.014-.204s-1.465-.482-1.753-.267z" fill="#0F0"/><path fill-rule="evenodd" clip-rule="evenodd" d="M19.647 20.756c.218.22.509.298.73.612.242.342.325.947.576 1.246.379.45.546 1.304.546 1.903 0 .652.46 1.091.86 1.78.26.45.485.995.57 1.184.212.481.468 2.055.468 2.52h2.744c0-1.623-1.808-4.171-2.027-4.673-.219-.502-.401-.657-.778-.51-.18.07-.568-.757-.977-1.527-.444-.835-.908-1.627-.991-1.8-.16-.334-.506-.516-.65-.814-.145-.298.08-.136-.145-.47-.224-.333-.294-.404-.762-.706-.467-.302-1.493-.81-1.493-.713 0 .099.855.726.822.838-.032.112-.708-.228-.985-.228s-.755-.474-1.038-.566c-.282-.09-.638.091-.9 0-.262-.09-.678-.48-1.072-.515-.394-.034.47.947 1.62 1.89 1.15.945 1.87 1.211 1.711.79-.158-.42 0-.702.358-.702.357 0 .357 0 .813.46z" fill="#07F901"/><path fill-rule="evenodd" clip-rule="evenodd" d="M14.357 30s-.066-.482-.438-.764c-.371-.283.11-.822.262-1.286.153-.463.026-1.074.354-1.074.329 0 .404-.203.513-.316.11-.114.172-.082.315-.315.144-.233.039-.464.268-.55.23-.087.23.086.441 0 .212-.087.187-.465.362-.55.175-.086-.112-.72.284-.817.395-.098 1.3 1.098 1.587.899.286-.2-.38-1.258-.38-1.607s.298 0 .38-.129c.081-.128-.082-1.106.397-.665.238.22.715.767 1.113 1.462.402.702.725 1.551.94 1.688.43.273.69.1 1.131.584.179.195.579.716.853 1.5.178.508.446 1.94.446 1.94h-8.828z" fill="#FEFB00"/><mask id="c" style="mask-type:alpha" maskUnits="userSpaceOnUse" x="13" y="22" width="11" height="9"><path fill-rule="evenodd" clip-rule="evenodd" d="M14.357 30s-.066-.482-.438-.764c-.371-.283.11-.822.262-1.286.153-.463.026-1.074.354-1.074.329 0 .404-.203.513-.316.11-.114.172-.082.315-.315.144-.233.039-.464.268-.55.23-.087.23.086.441 0 .212-.087.187-.465.362-.55.175-.086-.112-.72.284-.817.395-.098 1.3 1.098 1.587.899.286-.2-.38-1.258-.38-1.607s.298 0 .38-.129c.081-.128-.082-1.106.397-.665.238.22.715.767 1.113 1.462.402.702.725 1.551.94 1.688.43.273.69.1 1.131.584.179.195.579.716.853 1.5.178.508.446 1.94.446 1.94h-8.828z" fill="#fff"/></mask><g mask="url(#c)" fill-rule="evenodd" clip-rule="evenodd"><path d="M15.173 30s.11-.754-.172-.912c-.282-.157-.42-.826-.21-1.06.21-.235.546-.177.706-.356.16-.178.164-.05.338-.114.173-.064.187-.744.48-.744.294 0 .282.151.46.076.176-.076.105-.213.536-.076.43.138 1.227 1.4 1.56 1.4.332 0 .03-.959.313-.959.283 0 .674 1.893.966 1.833.293-.06.255-2 .43-2.198.174-.198.815.267 1.199.365.384.099.334-.44.334-.44s.434.47.64 1.073c.205.604.43 2.112.43 2.112h-8.01z" fill="#E7C001"/><path d="M15.77 28.888c-.042-.333.08-.508.335-.55.256-.042.569.167.569.55s-.122.87-.346.87c-.223 0-.516-.538-.558-.87z" fill="#FE9001"/><path d="M18.91 30s.29-.5.624-.448c.333.053.524.448.524.448H18.91zM20.498 30h1.615s-.4-.332-.496-.555c-.096-.223-.128-.74-.497-.657-.368.082-.622 1.213-.622 1.213z" fill="#FF9001"/></g><path fill-rule="evenodd" clip-rule="evenodd" d="M24.177 28.58c-.114 0-.114.218-.114.377s.107.804.334.757c.227-.047.06-.55.06-.726 0-.175-.167-.408-.28-.408z" fill="#042FF0"/><path fill-rule="evenodd" clip-rule="evenodd" d="M22.587 24.855c-.38.075.622 3.38.836 3.865.214.487.314.198.314-.144 0-.342-.77-3.796-1.15-3.721z" fill="#0430F5"/><path fill-rule="evenodd" clip-rule="evenodd" d="M27.024 28.679s-.287.1-.63-.45c-.78-1.245-1.074-2.505-1.463-3.022-.314-.419-.86-1.216-1.407-1.86-.657-.775-1.312-1.379-1.483-1.51-.314-.242.248-.445.883.305.257.304.651.701 1.035 1.153.566.666 1.122 1.383 1.283 1.552.27.284 2.775 2.716 2.775 2.951 0 .235-.993.88-.993.88z" fill="#0430F6"/><mask id="d" style="mask-type:alpha" maskUnits="userSpaceOnUse" x="21" y="21" width="8" height="8"><path fill-rule="evenodd" clip-rule="evenodd" d="M27.024 28.679s-.287.1-.63-.45c-.78-1.245-1.074-2.505-1.463-3.022-.314-.419-.86-1.216-1.407-1.86-.657-.775-1.312-1.379-1.483-1.51-.314-.242.248-.445.883.305.257.304.651.701 1.035 1.153.566.666 1.122 1.383 1.283 1.552.27.284 2.775 2.716 2.775 2.951 0 .235-.993.88-.993.88z" fill="#fff"/></mask><g mask="url(#d)"><path fill-rule="evenodd" clip-rule="evenodd" d="M25.211 25.831s1.142 3.213 1.641 2.947c.5-.266 1.407-.651 1.196-.98-.21-.33-1.878-2.177-1.756-1.967.123.21.39.566.06.7-.329.133-1.14-.7-1.14-.7z" fill="#00BDF9"/></g><path fill-rule="evenodd" clip-rule="evenodd" d="M26.514 27.395c-.687.087.263 1.214.563 1.486.3.272.93-.136.93-.136s-.806-1.438-1.493-1.35z" fill="#02EAED"/><path fill-rule="evenodd" clip-rule="evenodd" d="M12.059 18.088c-.276.317.84.305 1.408.237.567-.067 1.027-.175 1.533-.058.506.116 1.265 1.03 1.608.836.343-.194.553-.354.793-.204s1.087.629 1.287.629c.2 0 .481-.488-.76-.875-1.24-.386-1.862-.676-2.757-.676s-2.837-.206-3.112.11z" fill="#00AEF7"/><mask id="e" style="mask-type:alpha" maskUnits="userSpaceOnUse" x="12" y="17" width="7" height="3"><path fill-rule="evenodd" clip-rule="evenodd" d="M12.059 18.088c-.276.317.84.305 1.408.237.567-.067 1.027-.175 1.533-.058.506.116 1.265 1.03 1.608.836.343-.194.553-.354.793-.204s1.087.629 1.287.629c.2 0 .481-.488-.76-.875-1.24-.386-1.862-.676-2.757-.676s-2.837-.206-3.112.11z" fill="#fff"/></mask><g mask="url(#e)" fill-rule="evenodd" clip-rule="evenodd" fill="#034FF8"><path d="M12.016 18.202c.082.232.957.223 1.103.054.147-.168.119-.37-.223-.37-.343 0-.963.084-.88.316zM15.727 18.608c-.017.523.94.652 1.087.483.147-.169.119-.37-.224-.37-.342 0-.845-.636-.863-.113zM17.941 18.9c.923.657 1.092 1.269 1.302 1.185.47-.188-.268-1.213-.57-1.363-.6-.298-1.366-.274-.732.178z"/></g><path fill-rule="evenodd" clip-rule="evenodd" d="M9.903 24.79c.053-.376.63-.006.45.813-.178.819-.077.996-.331 2.049-.255 1.052-.208.828-.454 1.357-.245.529.085.646.335.404.25-.241.943-.49.79-.194-.155.297-.065.78-.403.78-.339 0-3.017.23-5.588-.271-.747-.146-2.006-.776-2.598-1.193-.193-.136-.568-.46-.757-.748-.031-.304.025-.333-.084-.628a2.882 2.882 0 0 0-.628-.955c-.61-.601-.955-1.49-.217-1.026.182.115.435.78.645 1.026.201.235.966.788 1.52 1.06.425.207.756.208 1.113.388.48.241.618.453 1.006.506 1.17.161 2.222.24 2.76.192.537-.048 1.114-.51 1.389-.784.274-.274.706-.322.855-.775.075-.23.173-.612.197-1.014.023-.39-.027-.802 0-.987z" fill="#01A0F6"/><path fill-rule="evenodd" clip-rule="evenodd" d="M8.64 28.207c.85-.56.85-.894 1.554-1.166.75-.29.218-3.48.824-2.896.14.135.47 1.147.41 2.17-.04.668-.556 2.577-.556 2.577l.734.1.34 1.008H9.913s0-.428.28-.428c.473 0 .476-.907.59-1.365.235-.955-.442-.664-.592-.267-.214.561-.892.35-1.468.834-.479.402-.517-.28-.082-.567zM5.893 28.341c-.265.086-.494.37 0 .37.495 0 1.143-.03 1.35-.104.207-.074.207-.22-.084-.266-.29-.046-1-.086-1.266 0z" fill="#0000F6"/><path fill-rule="evenodd" clip-rule="evenodd" d="M3.977 29.538a1.83 1.83 0 0 1 1.203-.167c.563.12 1.105.164 1.317 0 .213-.165.753-.605 1.03-.409.276.196.125.576.42.576.294 0 .637-.054.77.081.134.135.328-.096.722-.248.393-.152 0 .628 0 .628H3.977s-.18-.367 0-.461zM2.633 28.919c.256.06.675-.155.563-.69-.112-.533-1.184-1.706-1.44-1.968-.255-.263-1.578-1.618-1.578-1.618s-.266.375-.134.674c.132.299.658.414.862.72.205.307.777 1.135.601 1.801-.176.666.87 1.02 1.126 1.08z" fill="#00ECEC"/><path fill-rule="evenodd" clip-rule="evenodd" d="M1.654 19.263s-.315 1.38.232 3.061 3.065 4.93 4.824 4.93 1.508-2.042 2.797-2.63c.496-.107.538 1.496.621 1.07.083-.425.488-1.39-.33-2.165-.819-.775-1.165-.748-1.75-.542-.403.141-.508.318-.939.464-.43.146-.853-.359-.894-.607-.086-.52.094-1.061.448-1.48.354-.419 1.22-1.253 1.94-1.468.722-.215 1.031-.743.904-1-.128-.255.395-.345.782-.549.387-.204.404-.273.845-.472.441-.199 1.627-.362 2.603-.313.975.05 1.515-.279 2.1-.213.586.065 1.086.109 2.067.606.98.496 1.78.546 2.393 1.023.612.477 2.049 1.448 2.371 1.917.323.469 1.637 1.424 2.241 2.138.604.714 1.887 1.686 2.306 2.661.419.976.618 1.646.87 1.486.252-.159.105-.655-.176-1.327-.28-.672-.545-1.23-1.235-2.13-.691-.901-1.737-2.487-2.18-2.828-.445-.341-.401-.439-.653-.519-.252-.08-.446-.428-.785-.691-.165-.128-.471-.311-.727-.534-.272-.236-.538-.45-.538-.52 0-.135-.411-.569 0-.284.41.285 1.554 1.015 1.629.804.074-.21.14-.322.366-.173.227.149.878.991 1.123.767.246-.223.226-.59.468-.435.241.156.864 1.198 1.297 1.198.432 0 .967.314 1.606.856.639.541 1.85 1.15 1.566.787-.284-.364-.886-1.157-1.297-1.466a9.137 9.137 0 0 1-1.334-1.211c-.442-.496-.69-.939-1.264-1.033-.574-.094-.806-.194-1.458-.643-.652-.45-.545-.09-.767-.163-.222-.073-.502-.356-.843-.467-.137-.045-.498-.347-.908-.591-.611-.365-1.308-.718-1.35-.843-.072-.208.276-.388 1.527.176 1.25.565 2.071 1.06 2.485.971.413-.089.513-.105 1.423.182.91.286.99.332 1.304.572.315.24.783.808 1.65.997.867.188.986.41.986.41V14.84l-.681-.335-7.71-3.181-6.718 2.008-4.234 1.664-4.016 2.354-1.733 4.802-1.281-3.254 1.8-3.785 5.257-3.167 2.75-1.536h-2.159l-5.534.344-3.308 4.359-.779 4.151z" fill="#FF0"/><path fill-rule="evenodd" clip-rule="evenodd" d="M6.476 12.243c.589-.322 1.07-.454 1.74-.699.153-.055 11.636-2.07 15.674-1.38.377.065 6.11 5.073 6.11 5.073l.023 1.429s-1.12-.64-1.64-.827c-.788-.282-1.242-.71-1.123-.444.525 1.166 1.266 1.512.74 1.62-.297.06-.943-.6-1.458-.913-.395-.242-.938-.43-1.045-.207-.126.262-.577.135-1.225-.182-.379-.186-.641.01-.907.064-.189.038-.43-.085-.486-.064-.284.106.073.495-.232.42-.14-.034-.444-.225-.83-.356-.64-.216-1.118-.216-1.033 0 .214.54-2.17-1.151-2.46-1.194-.289-.043-.39.179.797.864 1.189.686 2.136.805 3.069 1.727.345.341.688.848.688.925 0 .214-.8.05-1.51-.49-.576-.439-1.325-1.345-2.05-1.714-.646-.328-1.385-.469-1.927-.556-.48-.077-.803-.13-.803.056 0 .258.658.387 1.082.569.35.15.614.357.46.427-.368.17-.938-.036-1.543-.208-.64-.183-1.31-.337-1.462-.288-.351.114-.62.227-.757.207-.375-.058-.375 0-.543 0-.47 0 .09.403.543.49.763.148.243.544.384.73.255.333-3.132.037-3.716.562-.183.164-.376.255-.754.494-.378.238-.838.222-.76.521.077.3-.136-.255-.56-.054-1.104.523-1.129 1.256-.54 1.09.328-.091-.53.27-1.103.77-.49.428-1.003 1.067-1.126 1.348-.268.61-.06 1.54.136 1.406.197-.134.381.8.84 1.044.457.244.6-.02.377-.37-.222-.348-.046-.793.184-.953.23-.161.97-.508 1.57-.123.599.386 1.003.82 1.003 1.72s.043 1.338-.495 1.978c-.537.64-.785.684-1.201.885-.524.253-1.67.189-1.273-.098.396-.287-.858-1.156-.858-1.156l-1.513-.54s.24-.19-.089-.645c-.328-.455-1.026-1.382-1.502-1.64-.476-.256-.863-.256-.863 0 0 .258-.618-.911-.618-.911l-.458-1.822.458-1.352s.106-.369.324-.529c.218-.16.483-.702.483-1.063s.465-.769.465-1.104c0-.335.166-.884.461-1.673.296-.789.414-.729.832-1.252.418-.524 1.43-1.29 2.02-1.612z" fill="#EABF01"/><path fill-rule="evenodd" clip-rule="evenodd" d="M9.444 11.701c0-.283-1.292 0-1.823.244-.53.246-.973.62-1.42.79-.447.17-.947.62-1.388 1.12-.441.5-.8.793-.914 1.528-.113.735-.316 1.352-.527 1.723-.212.37-.816 1.326-.94 1.835-.123.508-.356 2.29-.106 2.853.25.562.196.138.495.138.3 0 .931 1.153 1.078 1.547.147.394.401.917 1.318 1.655.155.124.59.577 1.544.683.954.107 1.895-.391 2.035-1.067.14-.675.27-.675.549-.455.277.22.704-.398.314-.816-.252-.27-.455-.434-.82-.477-.362-.043-.866.105-1.117.303-.847.67.377 1.323-.21 1.323-.589 0-.766-.575-1.224-.937-.459-.362-.95-.388.251-2.694.385-.739.192-.863 1.124-1.532.273-.195 1.181-.637 1.637-1.244.134-.18.738-.178 1.282-.515.543-.338.937-.225 1.772-.345.835-.12 1.626-.263 1.626-.495 0-.231-.791-.553-1.435-.448-.902.148-1.863.333-2.496.448-.633.115.335-.591.378-.613.939-.478 1.145-.39 1.882-.589.738-.199 3.47-.47 3.47-.824 0-.58 1.407-.014 1.407-.468 0-.453.867-.354 2.071 0 1.368.403 2.662 1.549 2.996.468.083-.268-.084-.765.08-.91.124-.106.627.157.51-.075-.19-.373.361-.373 1.372-.069.865.26 2.749 1.08 4.001 1.461.273.083 0-.352.554-.135.85.333 3.937 1.937 2.71.757-1.083-1.042-7.625-5.5-7.781-5.51-2.626-.175-14.255 1.353-14.255 1.342z" fill="#FF8F00"/><ellipse cx="8.606" cy="23.562" rx=".329" ry=".257" fill="#FF2600"/><path fill-rule="evenodd" clip-rule="evenodd" d="M30 15.4v-2.743l-2.506-1.992.785-.899-.997-1.267 2.22-1.947V4.853l-4.11-.333-4.555.333-1.955.808-3.991.89L12.727 8.5l-2.07 2.572s-.812.198-1.542.536-2.51.955-3.149 1.704c-.638.75-1.31 1.065-1.502 1.688-.19.624-.092.842-.418 1.45-.326.607-1.15 1.721-1.349 2.512-.198.791-.358 1.523-.2 1.876.157.354.61.278.875.959.263.681.43 1.892 1.512 2.85 1.082.958 1.299 1.047 2.197 1.047.898 0 1.617-.494 1.706-.989.089-.495-.51-.93-.51-.71 0 .22.061.555-.615.652-.677.096-.546-.169-.799-.253-.252-.084-.387-.362-.438-.14-.05.22-.26-.111-.53-.431s-.319-.701-.218-1.255c.101-.553.59-1.413.888-2.165.298-.752 1.72-1.242 2.054-1.655.335-.412.485-.592.95-.83.467-.24.807-.54 1.21-.54.183 0 .557-.138.929-.193.446-.066.89-.058 1.02-.154.235-.177.133-.368-.231-.368-.365 0-3.296.565-3.789.823-.492.259-.8.431-.896.097-.096-.334.943-.707 1.303-.92.361-.213 1.77-.887 2.317-1.066.545-.18 3.326-.467 3.729-.77.402-.303 0-.556.478-.66.478-.104 1.248 0 1.904 0 .656 0 3.422.92 3.824.746.401-.174-.434-.64-.53-.994-.097-.353-.097-.435.132-.52.229-.087.765.038 1.107-.087.342-.124.767.14 1.098-.104.332-.244.895-.068 1.433.104.538.173 2.179 1.154 2.887 1.273.708.119 1.832.415 2.506.816z" fill="#FF2500"/><path fill-rule="evenodd" clip-rule="evenodd" d="M8.51 24.728c.216.093.115.387-.267.584-.381.197-1.404.342-1.991 0-.586-.341-.833-1.108-.986-.809-.153.299-.708-.446-.894-.864-.186-.418-.647-1.287-.44-2.575.206-1.287 1.008-2.308 1.334-2.853.326-.545.794-1.021 1.169-1.745.375-.724 1.823-.962 2.517-1.214.694-.253 1.423-.18 1.495-.541.072-.36-.185-.617.237-1.058.423-.441.712-.62.712-.902 0-.282-.098-.562.18-.807.277-.244 1.105-.332 1.306-.622.201-.29-.388-1.041 0-1.362.388-.32.976-.097 1.445-.566.468-.47.753-.182.944-.483.192-.301.24-.582.678-.987.438-.404 2.588-.526 3.533-.876.377-.14 1.235-.01 2.11.084 1.318.144 2.236.284 2.521.956.509 1.202-1.836.397-2.941.312-1.106-.085-1.706-.25-1.598.213.108.462 1.222.556 1.793.4.572-.157 1.447.032 1.7.48.254.449-.264.916.184 1.588.448.671 2.018 1.22 3.222 1.398 1.204.178 3.527 1.174 3.527 1.174l.023.927s-3.124-.75-3.98-1.063c-.857-.313-2.074-.86-2.976-.86-.902 0-1.583.517-2.278.306-.694-.212-1.03-.045-.949.336.081.381.607.718.448.974-.16.255-1.859-.483-2.68-.419-.31.024-.635-.2-.997-.201-.601-.003-1.253.201-1.72.201-.747 0-1.24.202-1.24.379s.275.216.475.347c.2.131-.56.516-.908.516-.347 0-1.238.086-2.186.387-.948.3-2.566 1.047-3.208 1.53-.642.482-.64.752-.533.91.105.157.941-.219 1.466-.219s.336.103-.171.507-.593.833-.978 1.004c-.384.17-1.067.86-1.067 1.01 0 .148-.319.368-.583.912-.264.545-.287.704-.374 1.363-.088.658-.232.86.129 1.518.36.657.954.995 1.087 1.073.134.078-.259-.69.127-.363.386.327 1.367-.092 1.583 0z" fill="#D60000"/><path fill-rule="evenodd" clip-rule="evenodd" d="M19.035 12.657c.149-.165.31-.197.835-.197.526 0 1.2.048 1.069-.141-.131-.19-.97-.329-1.647-.702-.677-.372-1.49-.429-1.844.083-.353.512-.868.335-1.658.335-.79 0 .368.743 1.024.928.655.185 2.017.59 2.221.505.204-.085-.148-.646 0-.811zM11.58 12.763c-.194.148.378.544.187.613-.192.068-.642.564-.428.708.214.143.753-.088 1.267-.152.514-.064 1.077-.29 1.32-.637.243-.348-.243-.825-.966-.825s-1.185.146-1.38.293z" fill="#BF0000"/><path fill-rule="evenodd" clip-rule="evenodd" d="M7.392 19.089c-.491.194-.52.41-.892.665-.372.256-.87.408-.87.825s-.52 1.274-.52 1.62c0 .347-.324-.31-.392-.072-.068.239 0 .606 0 .754 0 .147-.206.041-.346-.389-.14-.43-.121-.966 0-1.287.122-.321.21-.158.278-.08.068.08.46-.171.46-.546s.582-1.028.969-1.296.474-.571 1.026-.571c.553 0 .78.183.287.377z" fill="#C00000"/><path fill-rule="evenodd" clip-rule="evenodd" d="M6.847 13.299c-.05.096.542-.042.774-.195.232-.152.532-.447.232-.447-.3 0-.956.546-1.006.642z" fill="#BF0000"/><path fill-rule="evenodd" clip-rule="evenodd" d="M16.389 10.213c-.05.097.22.145.78.145.562 0 .824-.206.509-.346-.316-.139-1.239.105-1.289.201z" fill="#F40000"/><path fill-rule="evenodd" clip-rule="evenodd" d="M11.788 11.04c-1.13.286-1.823-.082-2.02-.367-.197-.285.475-.848.475-.848l2.722-2.49 2.332-1.671 3.402-.977 3.086-1.404 1.513-1.187 1.92.359 2.292-.844 2.614.662s0 9.43.01 10.387c-.227 0-.841-.422-1.088-.545-.145-.071-.694-.271-1.205-.412-.363-.1-.8-.12-.942-.23-.34-.266-.321-.355 0-.6.322-.247-.195-.595.208-.821.403-.227.734-.117.63-.59-.105-.472-1.04-.372-1.3-.972s.67-.535.67-.893 1.577-.461 1.838-.803c.26-.342.423-1.113-.197-1.39-.619-.277-.82-.044-1.344-.152-.524-.108-.56-.373-.968-.195-.408.178-1.918.96-2.654.96-.735 0-1.05-.957-1.405-1.085-.355-.129-.828-.053-1.25.125-.422.178-1.076.544-1.622.813-.546.268-1.83.685-3.019.685-1.19 0-1.54.13-1.841.356-.301.227-.171.296-.489.585-.317.288-.676.392-.79.801-.114.409-.003.565-.401.805-.399.24-.933.357-1.1.833-.166.477 1.052.818-.077 1.104z" fill="#FF9001"/><path fill-rule="evenodd" clip-rule="evenodd" d="M6.476 11.43s.204.34.698.34 2.385-.696 2.573-1.178c.187-.482.928-.423 1.034-.809.106-.385 1.186-.53 1.366-.975.18-.445 0-.548.509-.89.509-.342 1.608-1.128 1.79-1.363.184-.234.682-.47 1.623-.797.94-.327 1.62-.54 2.231-.54.611 0 .96-.03 1.566-.272.606-.242 1.342-.917 1.65-1.139.308-.221.776-.987 1.39-.987.614 0 .889.646 1.52.646.63 0 1.026-.99 1.732-.99s.414 1.143 1.313 1.331c.9.188 2.653-1.21 2.653-1.21V.002h-6.826l-2.67 1.875L18.3 3.807l-2.522.71-2.646 1.147-2.351.755-1.686.276-3.372 2.518-2.856.949-.857 1.001.74 1.643 2.101.15 1.625-1.526z" fill="#FF0"/><mask id="f" style="mask-type:alpha" maskUnits="userSpaceOnUse" x="2" y="0" width="29" height="13"><path fill-rule="evenodd" clip-rule="evenodd" d="M6.476 11.43s.204.34.698.34 2.385-.696 2.573-1.178c.187-.482.928-.423 1.034-.809.106-.385 1.186-.53 1.366-.975.18-.445 0-.548.509-.89.509-.342 1.608-1.128 1.79-1.363.184-.234.682-.47 1.623-.797.94-.327 1.62-.54 2.231-.54.611 0 .96-.03 1.566-.272.606-.242 1.342-.917 1.65-1.139.308-.221.776-.987 1.39-.987.614 0 .889.646 1.52.646.63 0 1.026-.99 1.732-.99s.414 1.143 1.313 1.331c.9.188 2.653-1.21 2.653-1.21V.002h-6.826l-2.67 1.875L18.3 3.807l-2.522.71-2.646 1.147-2.351.755-1.686.276-3.372 2.518-2.856.949-.857 1.001.74 1.643 2.101.15 1.625-1.526z" fill="#fff"/></mask><g mask="url(#f)" fill-rule="evenodd" clip-rule="evenodd" fill="#E6BF00"><path d="M7.684 11.212c.091.314 1.108.168 1.595-.28.488-.449 1.383-.645 1.508-.838.126-.193.446-.264.743-.391.298-.128.723-.412.928-.667.204-.256-.033-.473.26-.743.292-.27 1.366-1.083 1.665-1.389.298-.306.132-.455.922-.7.79-.246 1.613-.72 2.182-.847.568-.127 1.304.017 1.925-.123.62-.14 1.074-.494 1.368-.747.293-.252.292-.188.467-.305.175-.117.594-.462.709-.723.115-.26.544-.374.876-.374.332 0 .992.28 1.262.468.271.188 1.17-.365 1.181-.382.28-.471.66-.382 1.029-.277.381.108.711 1.15 1.435 1.205.723.054 2.499-1.299 2.499-1.299L31.5-.895S24.866.062 24.265.437c-.602.376-1.092 1.315-1.568 1.533-.913.42-1.677.998-1.917 1.311-1.017 1.325-1.373 1.149-1.795 1.127-1.065-.055-1.322.184-2.346.607-1.024.422-1.67.204-2.123.515-.265.182-.587.811-.99 1.202-.285.277-.578.263-1.068.648-1.184.928-2.283 1.24-2.544 1.598-.224.306-.254.583-.287.725-.137.589-.736.598-.862.902-.125.303-1.171.293-1.08.607zM6.142 9.987c-.116.084-.085.136-.312.467-.227.332-.413.552-.148.614.265.061.642-.322.965-.566.323-.243.731-.48.868-.732s.508-.216.458-.348c-.05-.131-.1-.271-.637-.114-.536.157-1.078.594-1.194.679z"/></g><path fill-rule="evenodd" clip-rule="evenodd" d="M2.015 21s.188-1.19.188-1.677c0-1.021.339-1.416.437-1.8.125-.484.152-1.168.286-1.372.548-.839.446-1.741 1.23-2.333.387-.291.928-.686 1.45-1.038.54-.363 1.26-.664 1.053-1.185-.207-.52-1.292-.298-1.886.512-.212.29-.695.86-.881.554-.178-.292-.799-.257-.966-.488-.369-.509-.569-.761-.469-1.343.1-.581.798-.966 1.211-.673.414.293.224.465.051.757-.172.291.346.146.438-.084.17-.428.25-.044.417-.328.454-.773 1.513-1.166 2.483-1.946.97-.78 2.395-1.824 2.955-1.706.56.117.312.42.708.42.397 0 1.934-.644 2.304-.97.371-.324.757-.866 1.321-1.103.565-.237 2.586-.74 3.337-.96.751-.221 1.403-.462 1.745-.905.342-.444 1.6-1.218 2.003-1.434.402-.216 1.817-1.384 1.867-1.76.05-.378-1.982-.3-1.982-.3l-.831 1.253-2.41 1.324-2.95 1.704-3.68 1.197-1.27.349-2.73 1.36S3.708 8.96 3.072 9.506c-.637.547-1.302 1.476-1.302 1.476L.708 13.7.1 16.484l.025 4.18 1.89.336z" fill="#009000"/><path fill-rule="evenodd" clip-rule="evenodd" d="M21.373.003s.29.48-.042.788c-.333.307-1.207.723-1.518 1.108-.31.385-.829.497-.829.756 0 .258-.745.925-1.093 1.049-.347.123-1.846.332-2.385.604-.538.273-1.803.948-2.6 1.233-.798.284-1.055.419-1.493.434-.438.016-.573-.27-1.039-.127-.466.143-1.08.506-1.635.816-.556.31-2 .873-2.875 1.58-.875.707-1.022 1.09-1.432 1.09-.41 0-.408-.18-.863 0s-1.152.865-1.34 1.22c-.187.356-.395.905-.668 1.394-.274.49-1.028 2.514-1.086 3.372-.057.86.427 1.181 0 1.712-.426.53-.403 1.927-.147 2.67.256.743.424 1.195.623.969.198-.226.098-1.439.352-1.585.254-.146.409.826.742.705.334-.12-.064 1.304 0 2.231.065.927 1.071 1.849 1.416 2.183.345.335.54.705 1.392 1.239.852.533 2.196.821 3.12.553.925-.27 1.078-1.253 1.55-1.403.473-.15.645.385.645.918 0 .534-.114.813-.645 1.361-.53.55-1.39.967-2.174.967-.785 0-1.42-.082-2.496-.418-1.075-.336-1.668-1.15-2.091-1.641-.424-.49-.674-.661-.965-1.037-.21-.271-.647-1.119-1.042-1.797-.154-.265-.473-.383-.513-.612-.006-.034-.242-.313-.242-.313v-9.464l3.134-4.134 3.03-1.869L9.206 5.14l5.196-2.484L15.985.003h5.388z" fill="#02C800"/><mask id="g" style="mask-type:alpha" maskUnits="userSpaceOnUse" x="0" y="0" width="22" height="28"><path fill-rule="evenodd" clip-rule="evenodd" d="M21.373.003s.29.48-.042.788c-.333.307-1.207.723-1.518 1.108-.31.385-.829.497-.829.756 0 .258-.745.925-1.093 1.049-.347.123-1.846.332-2.385.604-.538.273-1.803.948-2.6 1.233-.798.284-1.055.419-1.493.434-.438.016-.573-.27-1.039-.127-.466.143-1.08.506-1.635.816-.556.31-2 .873-2.875 1.58-.875.707-1.022 1.09-1.432 1.09-.41 0-.408-.18-.863 0s-1.152.865-1.34 1.22c-.187.356-.395.905-.668 1.394-.274.49-1.028 2.514-1.086 3.372-.057.86.427 1.181 0 1.712-.426.53-.403 1.927-.147 2.67.256.743.424 1.195.623.969.198-.226.098-1.439.352-1.585.254-.146.409.826.742.705.334-.12-.064 1.304 0 2.231.065.927 1.071 1.849 1.416 2.183.345.335.54.705 1.392 1.239.852.533 2.196.821 3.12.553.925-.27 1.078-1.253 1.55-1.403.473-.15.645.385.645.918 0 .534-.114.813-.645 1.361-.53.55-1.39.967-2.174.967-.785 0-1.42-.082-2.496-.418-1.075-.336-1.668-1.15-2.091-1.641-.424-.49-.674-.661-.965-1.037-.21-.271-.647-1.119-1.042-1.797-.154-.265-.473-.383-.513-.612-.006-.034-.242-.313-.242-.313v-9.464l3.134-4.134 3.03-1.869L9.206 5.14l5.196-2.484L15.985.003h5.388z" fill="#fff"/></mask><g mask="url(#g)" fill-rule="evenodd" clip-rule="evenodd"><path d="M2.774 24.115c.057.288.261.513.563.816.303.303.821.728.77.47-.05-.256-.627-1.095-.93-1.286-.305-.191-.46-.288-.403 0z" fill="#009000"/><path d="M.487 21.923c.057.288.261.513.563.816.303.303.821.728.77.47-.05-.257-.627-1.095-.931-1.286-.304-.191-.459-.288-.402 0z" fill="#02F900"/></g><path fill-rule="evenodd" clip-rule="evenodd" d="M8.917 27.355c-.934.48-1.55.321-2.297.321a6.849 6.849 0 0 1-1.753-.208c-.585-.134-1.12-.555-1.669-.99-.548-.435-.56-.763-1.006-1.142-.446-.378-.942-1.183-1.086-1.46C.962 23.6 0 22.337 0 22.221v-1.037s.928 1.289 1.252 1.554c.323.265.772.69.94 1.057.168.367.677 1.178 1.006 1.421.33.243 1.196.617 1.669.79.472.173 1.194.69 2.233.472 1.038-.218 1.46-.689 1.817-.689s.934 1.085 0 1.566z" fill="#01A1F6"/><mask id="h" style="mask-type:alpha" maskUnits="userSpaceOnUse" x="0" y="21" width="10" height="7"><path fill-rule="evenodd" clip-rule="evenodd" d="M8.917 27.355c-.934.48-1.55.321-2.297.321a6.849 6.849 0 0 1-1.753-.208c-.585-.134-1.12-.555-1.669-.99-.548-.435-.56-.763-1.006-1.142-.446-.378-.942-1.183-1.086-1.46C.962 23.6 0 22.337 0 22.221v-1.037s.928 1.289 1.252 1.554c.323.265.772.69.94 1.057.168.367.677 1.178 1.006 1.421.33.243 1.196.617 1.669.79.472.173 1.194.69 2.233.472 1.038-.218 1.46-.689 1.817-.689s.934 1.085 0 1.566z" fill="#fff"/></mask><g mask="url(#h)" fill-rule="evenodd" clip-rule="evenodd"><path d="M8.978 25.772c.299.162.298.68-.104.963-.401.282-.616.423-1.302.506-.686.082-1.696-.21-2.377-.688-.68-.479-.916-.778-.598-.606.318.172.647.514 1.815.606 1.168.091 2.267-.943 2.566-.78z" fill="#0000F6"/><path d="M2.989 26.086c-.121-.203-.121-.554.46-.302.583.25.893 1.002 1.294 1.11.402.107.779.528 1.323.528.544 0 1.328.168 1.622.168.295 0 .2.183-.328.183s-1.154-.107-1.52-.107c-.365 0-.63-.089-1.035-.244-.404-.155-1.696-1.133-1.816-1.336z" fill="#00EBEB"/></g><path fill-rule="evenodd" clip-rule="evenodd" d="M16.797.003s-.975.532-1.139 1.26c-.163.727-.163 1.44-.534 1.726-.371.286-.458.234-.72.45-.26.215-.192.402-.636.69-.444.287-1.73.782-2.229.855-.5.074-1.023.15-1.425.327-.403.177-1.854.776-2.193.972-.338.196-1.877 1.084-2.469 1.516-.592.431-.958.286-1.283.431-.325.145-1.181.517-1.541 1.157-.36.641-.57.868-.858 1.239-.288.37-.598.64-.896 1.2C.575 12.386 0 13.11 0 13.11l-.018-1.009s.04-.506.786-1.476c.747-.97 2.679-3.407 3.255-3.588.575-.182 1.75-1.37 2.078-1.659.33-.29 1.322-.232 1.82-.534.5-.301 2.012-.515 2.436-1.09.424-.575.724-1.14 1.288-1.266.565-.125 1.738-.367 2.123-.78.385-.414.725-1.061.398-1.319-.327-.257 0-.387 0-.387h2.63z" fill="#0F0"/><path fill-rule="evenodd" clip-rule="evenodd" d="M14.225.003s.536.263.536.683c0 .42-.324.86-.684 1.084-.36.223-.929.82-1.357.82-.427 0-.886.028-1.163.353-.277.326-.616 1.068-1.28 1.298-.664.229-1.61.62-1.855.863-.244.242-.906.702-1.087.406-.182-.297-.198-.247-.384-.247s-1.043.734-1.371.98c-.33.245-.994.999-1.337.954-.342-.045-.981.61-1.213.862-.231.253-1.08 1.237-1.408 1.699A674.32 674.32 0 0 1 0 12.008v-.766s.774-1.057 1.16-1.624c.387-.568.8-1.35 1.754-2.318S5.288 5.134 6.29 4.346c1.002-.789 1.935-1.008 2.277-1.622.341-.615.106-.856.446-1.241.34-.386.661-.16 1.11-.522.45-.363.656-.958.656-.958h3.445z" fill="#0001F6"/><path fill-rule="evenodd" clip-rule="evenodd" d="M10.78.003s-.155.984-.653 1.238c-.497.255-.9.034-1.102.384-.202.35.167.805-.243 1.247-.41.442-1.676 1.126-2.334 1.54-.659.415-2.795 2.28-3.411 2.88C2.42 7.892 0 11.384 0 11.384v-.57S1.854 7.39 2.15 7.15c.296-.242 2.346-2.403 2.346-2.403s3.01-1.944 3.01-2.666S6.963.787 6.845.598C6.727.41 6.742.003 6.742.003h4.038z" fill="#01A0F6"/><path fill-rule="evenodd" clip-rule="evenodd" d="M0 10.25s1.383-2.6 2.004-3.333C2.624 6.185 3.18 5.77 3.7 5.09c.283-.37.728-.889 1.229-1.329.418-.368.9-.665 1.133-.916.51-.551.511-.412.598-.799.063-.283-.214-.41-.34-.66-.112-.226 0-.612 0-.674 0-.131-.258-.708-.258-.708h.84s.025.48.184.617c.16.137.545.194.762.527.217.333-.093 1.167-.347 1.564s-.836.806-1.18 1.05c-.344.242-.834.4-1.139.704-.304.305-.634.62-1.072 1.198-.438.578-1.661 1.275-2.021 1.882-.36.608-.583 1.07-1.061 1.813C.549 10.1 0 10.815 0 10.815v-.565z" fill="#00EBEB"/><path fill-rule="evenodd" clip-rule="evenodd" d="M1.377 5.31C.962 5.664.294 6.486 0 7.195v.864s.494-.97.798-1.412c.304-.442.658-.992.862-1.204.205-.212.131-.487-.283-.133z" fill="#00E8E8"/><path fill-rule="evenodd" clip-rule="evenodd" d="M.857 16.456c0 .306-.23.746 0 .634.232-.113.404-.387.404-.78s-.404-.16-.404.146z" fill="#9AD000"/><path fill-rule="evenodd" clip-rule="evenodd" d="M4.056 18.342c.364.135 1.955-2.49 2.667-2.945.713-.454 1.502-.401 1.756-.737.255-.337 2.309-.956 1.202-1.279-.491-.143-.967.047-1.4.161-.544.143-1.01.254-1.226.447-.39.347-.73.94-1.493 1.033-.764.092-1.87 3.185-1.506 3.32z" fill="#FF9001"/><path fill-rule="evenodd" clip-rule="evenodd" d="M17.51 1.494c-.665 0-1.127 1.07-1.496 1.219-.37.15-.324.553.108.553.433 0 1.416-.352 1.727-.829.31-.476.326-.943-.339-.943z" fill="#0F0"/></g></g><path d="M52.2 3.746c-6.318 0-12.133 5.638-12.149 11.778l-.001.597c-.016 5.885 4.382 10.17 10.436 10.17h6.012l1.312-7.157h-6.537c-2.388 0-4.122-1.69-4.116-4.01.006-2.2 2.09-4.22 4.353-4.22h7.807l1.311-7.158H52.2zM64.556 3.746h7.147l-2.819 15.388h8.04l-1.31 7.157H60.425l4.13-22.545zM79.49 26.291l2.672-14.593c2.52-.13 4.977-.504 7.348-1.099l-2.874 15.692h-7.147zM82.225 11.36a17.063 17.063 0 0 0 8.033-4.84l.508-2.774h-7.147l-1.394 7.614zM103.268 3.746h-8.576l-4.13 22.546h7.147l2.032-11.094 1.81 5.725h-.001 5.361l3.905-5.722-2.032 11.09h7.147l4.13-22.545h-8.575l-6.013 10.396-2.205-10.396zM124.027 3.746H141l-.983 5.368h-9.827l-.59 3.22h6.253l-.983 5.369h-6.253l-.59 3.22h9.826l-.983 5.368h-16.973l4.13-22.545z" fill="#0F1527"/></svg>