<svg width="32" height="32" viewBox="0 0 32 32" fill="none" xmlns="http://www.w3.org/2000/svg">
<mask id="mask0_6801_253030" style="mask-type:alpha" maskUnits="userSpaceOnUse" x="0" y="0" width="32" height="32">
<rect width="32" height="32" rx="7.46667" fill="white"/>
</mask>
<g mask="url(#mask0_6801_253030)">
<rect width="32" height="32" fill="black"/>
<mask id="mask1_6801_253030" style="mask-type:alpha" maskUnits="userSpaceOnUse" x="0" y="0" width="32" height="32">
<rect width="32" height="32" fill="white"/>
</mask>
<g mask="url(#mask1_6801_253030)">
<path fill-rule="evenodd" clip-rule="evenodd" d="M22.9763 19.3058L21.5784 15.5707C21.5784 15.5707 28.4434 15.4155 30.2764 16.8959C32.1094 18.3763 32.0012 20.1908 32.0012 20.1908L32.0334 23.9937L32.0255 32.0703L24.7302 22.0967L22.3537 19.5372L22.9763 19.3058Z" fill="#009000"/>
<path fill-rule="evenodd" clip-rule="evenodd" d="M29.4763 19.8137C29.4763 20.3181 32.0328 23.013 32.0328 23.013V21.2614C32.0328 21.2614 29.4763 19.3094 29.4763 19.8137Z" fill="#00CD00"/>
<path fill-rule="evenodd" clip-rule="evenodd" d="M27.6443 22.2836C27.499 22.2537 27.1887 22.6443 27.7407 23.3178C28.2927 23.9913 28.9995 25.6848 29.2655 25.9076C29.5315 26.1304 30.3351 27.3357 30.6387 27.0352C30.9423 26.7346 30.1934 24.4073 29.822 24.1067C29.4505 23.8062 28.8902 23.6204 28.6347 23.3178C28.3791 23.0152 27.7895 22.3135 27.6443 22.2836Z" fill="#02C800"/>
<path fill-rule="evenodd" clip-rule="evenodd" d="M12.5067 32.0448L14.1172 32.0006L14.5588 30.764C14.5588 30.764 14.7161 29.8951 14.801 29.3558C14.891 28.7848 14.7085 28.1344 15.139 27.4077C15.8906 26.1385 18.6255 23.4142 21.1085 24.1374C21.7575 24.3264 21.4926 25.4593 21.9374 26.2985C22.2582 26.904 22.4976 27.3835 22.9539 27.9499C23.0327 28.0477 23.6943 28.8146 24.013 29.7479C24.3895 30.8507 24.5077 31.1627 24.5077 32.0006C25.5143 32.0006 26.2421 32.0006 27.3005 32.0006C28.2009 32.0006 32.0255 32.0006 32.0255 32.0006C32.0255 32.0006 27.8054 25.1376 25.3123 22.3974C22.8192 19.6573 19.4877 18.0147 18.7666 18.072C17.664 18.1597 13.9883 18.5373 13.9883 18.5373H11.4989L9.92077 19.8144L8.24616 21.2842L6.67426 22.3974C6.67426 22.3974 5.23843 24.3162 6.57659 25.0011C7.62064 25.5354 9.40475 24.6661 10.1654 25.0011C11.2202 25.4656 11.0352 27.1295 10.6941 28.0758C10.1012 29.7207 7.12082 29.3275 5.47097 29.2219C5.31808 29.2121 5.98839 29.4638 5.89268 29.6939C5.83689 29.828 5.41063 29.7215 4.961 29.7479C4.89631 29.7516 5.18685 30.3145 5.18685 30.3145L12.5067 32.0448Z" fill="#00C800"/>
<path fill-rule="evenodd" clip-rule="evenodd" d="M12.1289 31.9999C12.6881 31.4711 12.5506 31.3354 12.5506 30.9809C12.5506 30.6265 12.3813 30.9253 11.6298 31.1073C10.8783 31.2892 12.6218 30.0306 12.5506 29.0718C12.4794 28.113 12.8607 27.271 12.9719 26.0851C13.0831 24.8992 11.9537 24.8527 11.6298 24.4736C11.3059 24.0946 11.0348 23.8372 10.2782 23.6992C9.52164 23.5613 9.04843 23.6339 8.83022 23.8038C8.61201 23.9738 8.80762 24.1666 9.18114 24.2167C9.55465 24.2668 10.3013 24.6187 10.4547 24.7259C10.6081 24.8331 10.8242 25.0387 11.0969 25.5835C11.3695 26.1283 11.3512 27.6294 10.9039 28.1719C10.4567 28.7143 10.8502 28.7966 10.1776 29.4431C9.50501 30.0896 8.73546 30.396 7.45371 30.3082C6.17196 30.2204 4.56856 29.6901 4.94883 29.8874C5.94051 30.4019 10.6806 31.9999 12.1289 31.9999Z" fill="#00FF00"/>
<path fill-rule="evenodd" clip-rule="evenodd" d="M13.1346 32.0003C13.1346 32.0003 13.3545 31.031 13.5772 31.031C13.8 31.031 13.5772 32.0003 13.5772 32.0003H13.1346Z" fill="#00FF00"/>
<path fill-rule="evenodd" clip-rule="evenodd" d="M13.8927 32.0005C13.8927 32.0005 14.7508 29.9329 14.4151 28.6612C14.0793 27.3896 14.0152 27.2331 14.0152 26.4052C14.0152 25.5773 13.8402 25.1603 13.5632 24.6523C13.2862 24.1444 12.8969 24.1524 12.8969 23.4986C12.8969 22.8448 12.5143 22.4533 11.9885 22.0973C11.4626 21.7413 10.5436 21.6104 10.0379 21.6758C9.5322 21.7413 8.69335 22.2252 8.23768 22.4775C7.78202 22.7297 7.36014 23.3578 7.88294 23.1777C8.40574 22.9976 8.62077 23.3865 8.62077 23.944C8.62077 24.5015 7.78883 24.8593 7.43478 24.7797C7.08074 24.7002 6.75015 24.0755 6.93004 23.4986C7.10992 22.9217 7.75703 22.1215 8.24592 21.9231C8.73481 21.7246 10.155 21.2168 10.776 21.2168C11.3971 21.2168 12.2111 21.4009 12.3476 21.0156C12.4842 20.6303 11.901 20.191 11.3948 20.191C10.8885 20.191 10.4034 20.5105 10.2659 20.2993C10.1284 20.0881 10.5227 19.9215 10.9951 19.8334C11.4675 19.7452 12.3148 19.9798 12.8969 20.191C13.479 20.4022 13.7873 20.5595 14.2492 20.5595C14.7111 20.5595 15.6475 20.563 16.0873 20.7893C16.5271 21.0156 17.6334 21.4489 17.8784 21.9231C18.1234 22.3973 17.8369 22.5813 18.0819 22.8566C18.3269 23.1319 18.6097 23.3771 18.8416 23.1777C19.0736 22.9784 19.0736 23.1777 19.3007 23.1777C19.5278 23.1777 19.981 23.7867 20.2972 23.7867C20.6133 23.7867 20.4808 23.5479 20.8262 23.7072C21.1716 23.8666 21.6284 24.3361 21.7706 24.6523C21.9128 24.9686 21.8774 26.2626 22.1304 26.496C22.3833 26.7293 23.3026 27.4075 23.3699 27.8929C23.4372 28.3782 22.6209 28.285 22.1304 27.8929C21.5347 27.4167 21.6136 26.8973 21.2135 26.2358C20.7331 25.4416 20.4024 25.1868 20.2972 25.0575C20.1043 24.8206 19.7604 24.1883 19.7604 24.6158C19.7604 25.0432 19.6267 25.2652 19.4461 25.2652C19.2655 25.2652 19.0959 25.268 19.4461 25.9017C19.7962 26.5354 19.9116 27.1313 19.5972 27.1313C19.2829 27.1313 18.3237 25.9625 17.9131 26.0901C17.5025 26.2176 17.9601 26.9401 17.7356 27.0828C17.5112 27.2254 17.5449 27.5826 17.3414 27.5826C17.1379 27.5826 16.9141 27.4129 16.7661 27.5826C16.6182 27.7523 16.6364 28.0064 16.3618 28.1811C16.0873 28.3557 16.4456 28.2889 16.0873 28.6612C15.7289 29.0336 15.5421 28.6953 15.4417 29.0336C15.3413 29.3719 15.2409 29.2882 15.1387 29.8479C15.0365 30.4077 14.3701 30.9298 14.8649 31.1163C14.9586 31.1516 15.1406 30.5702 15.3281 30.5702C15.5155 30.5702 15.5601 31.403 15.6892 31.5158C15.8042 31.6163 15.8847 32.0005 15.8847 32.0005H13.8927Z" fill="#009000"/>
<path fill-rule="evenodd" clip-rule="evenodd" d="M10.5635 22.8153C10.4355 23.142 10.8081 22.8224 11.1653 23.0305C11.5226 23.2385 11.7788 23.4787 11.9585 23.3983C12.1382 23.318 12.1847 22.7372 11.8297 22.7372C11.4747 22.7372 10.6916 22.4885 10.5635 22.8153Z" fill="#009100"/>
<path fill-rule="evenodd" clip-rule="evenodd" d="M13.0523 19.585C12.7444 19.8138 13.3913 20.0876 13.8407 20.0876C14.2901 20.0876 14.9231 20.2733 14.9231 19.8701C14.9231 19.4669 13.3602 19.3561 13.0523 19.585Z" fill="#00FF00"/>
<path fill-rule="evenodd" clip-rule="evenodd" d="M20.9566 22.1397C21.1891 22.3748 21.4997 22.4575 21.7358 22.7923C21.9934 23.1574 22.0823 23.8025 22.35 24.1213C22.754 24.6025 22.9319 25.5121 22.9319 26.1517C22.9319 26.8472 23.4226 27.3152 23.8495 28.0501C24.1278 28.5292 24.367 29.1112 24.4567 29.3135C24.6841 29.8264 24.9571 31.5049 24.9571 32.0004C25.725 32.0004 26.5916 32.0004 27.8839 32.0004C27.8839 30.2699 25.9546 27.5516 25.7213 27.0165C25.488 26.4813 25.2939 26.3154 24.8919 26.4727C24.6991 26.5482 24.2862 25.6651 23.8495 24.8438C23.3761 23.9532 22.8816 23.1086 22.7924 22.9233C22.621 22.5673 22.2529 22.3734 22.0988 22.0555C21.9447 21.7376 22.1838 21.9108 21.9447 21.5548C21.7057 21.1989 21.631 21.1228 21.1323 20.8011C20.6335 20.4794 19.5389 19.9362 19.5389 20.0411C19.5389 20.146 20.4507 20.8151 20.4164 20.9344C20.3822 21.0537 19.6611 20.6908 19.3655 20.6908C19.07 20.6908 18.5597 20.1851 18.2586 20.088C17.9574 19.9909 17.578 20.1851 17.2985 20.088C17.019 19.9909 16.5753 19.5749 16.1546 19.5382C15.7338 19.5015 16.6559 20.548 17.8828 21.5548C19.1097 22.5617 19.8769 22.8459 19.7079 22.3972C19.5389 21.9485 19.7079 21.648 20.0892 21.648C20.4704 21.648 20.4704 21.648 20.9566 22.1397Z" fill="#07F901"/>
<path fill-rule="evenodd" clip-rule="evenodd" d="M15.3144 32.0006C15.3144 32.0006 15.2436 31.486 14.8472 31.1849C14.4508 30.8838 14.9642 30.3079 15.127 29.8136C15.2897 29.3192 15.1541 28.6679 15.5044 28.6679C15.8548 28.6679 15.9352 28.4515 16.0515 28.3304C16.1678 28.2093 16.2345 28.2436 16.3876 27.9947C16.5408 27.7457 16.4285 27.4995 16.6735 27.4076C16.9185 27.3157 16.9185 27.4995 17.1438 27.4076C17.3691 27.3157 17.343 26.9126 17.5299 26.8211C17.7167 26.7297 17.4105 26.0534 17.8323 25.9494C18.2541 25.8453 19.2201 27.1215 19.525 26.9085C19.83 26.6956 19.121 25.5673 19.121 25.1951C19.121 24.8229 19.4382 25.1951 19.525 25.0577C19.6118 24.9202 19.4382 23.8773 19.9486 24.348C20.2026 24.5823 20.7111 25.1659 21.1358 25.9075C21.5645 26.6559 21.9093 27.562 22.1396 27.708C22.5981 27.9988 22.8749 27.8145 23.3455 28.3304C23.5359 28.5391 23.9626 29.095 24.2553 29.9308C24.4451 30.4725 24.7303 32.0006 24.7303 32.0006H15.3144Z" fill="#FEFB00"/>
<mask id="mask2_6801_253030" style="mask-type:alpha" maskUnits="userSpaceOnUse" x="14" y="24" width="11" height="9">
<path fill-rule="evenodd" clip-rule="evenodd" d="M15.3144 32.0006C15.3144 32.0006 15.2436 31.486 14.8472 31.1849C14.4508 30.8838 14.9642 30.3079 15.127 29.8136C15.2897 29.3192 15.1541 28.6679 15.5044 28.6679C15.8548 28.6679 15.9352 28.4515 16.0515 28.3304C16.1678 28.2093 16.2345 28.2436 16.3876 27.9947C16.5408 27.7457 16.4285 27.4995 16.6735 27.4076C16.9185 27.3157 16.9185 27.4995 17.1438 27.4076C17.3691 27.3157 17.343 26.9126 17.5299 26.8211C17.7167 26.7297 17.4105 26.0534 17.8323 25.9494C18.2541 25.8453 19.2201 27.1215 19.525 26.9085C19.83 26.6956 19.121 25.5673 19.121 25.1951C19.121 24.8229 19.4382 25.1951 19.525 25.0577C19.6118 24.9202 19.4382 23.8773 19.9486 24.348C20.2026 24.5823 20.7111 25.1659 21.1358 25.9075C21.5645 26.6559 21.9093 27.562 22.1396 27.708C22.5981 27.9988 22.8749 27.8145 23.3455 28.3304C23.5359 28.5391 23.9626 29.095 24.2553 29.9308C24.4451 30.4725 24.7303 32.0006 24.7303 32.0006H15.3144Z" fill="white"/>
</mask>
<g mask="url(#mask2_6801_253030)">
<path fill-rule="evenodd" clip-rule="evenodd" d="M16.1848 32.0003C16.1848 32.0003 16.3011 31.1954 16.0005 31.0275C15.6999 30.8597 15.5538 30.1464 15.7772 29.8962C16.0005 29.6461 16.3594 29.7075 16.5298 29.5171C16.7001 29.3266 16.7049 29.4638 16.8902 29.3952C17.0755 29.3266 17.0902 28.602 17.403 28.602C17.7159 28.602 17.7039 28.7628 17.8926 28.6824C18.0814 28.602 18.0057 28.455 18.4645 28.602C18.9234 28.749 19.7734 30.0951 20.1281 30.0951C20.4827 30.0951 20.161 29.0722 20.4629 29.0722C20.7649 29.0722 21.1814 31.0916 21.4936 31.0275C21.8057 30.9635 21.7653 28.8932 21.9516 28.6824C22.1379 28.4717 22.8213 28.9674 23.2307 29.0722C23.6402 29.1771 23.5874 28.602 23.5874 28.602C23.5874 28.602 24.0496 29.1034 24.269 29.7476C24.4884 30.3917 24.7295 32.0003 24.7295 32.0003H16.1848Z" fill="#E7C001"/>
<path fill-rule="evenodd" clip-rule="evenodd" d="M16.8214 30.8135C16.7769 30.4587 16.9059 30.2716 17.1787 30.2272C17.4515 30.1828 17.7856 30.4049 17.7856 30.8135C17.7856 31.2222 17.6555 31.7409 17.4171 31.7409C17.1787 31.7409 16.8659 31.1684 16.8214 30.8135Z" fill="#FE9001"/>
<path fill-rule="evenodd" clip-rule="evenodd" d="M20.17 31.9999C20.17 31.9999 20.4808 31.4667 20.8362 31.5228C21.1916 31.5788 21.3953 31.9999 21.3953 31.9999H20.17Z" fill="#FF9001"/>
<path fill-rule="evenodd" clip-rule="evenodd" d="M21.8648 32.0006H23.5876C23.5876 32.0006 23.1615 31.6462 23.0584 31.4084C22.9554 31.1705 22.9212 30.6192 22.5284 30.7071C22.1357 30.7949 21.8648 32.0006 21.8648 32.0006Z" fill="#FF9001"/>
</g>
<path fill-rule="evenodd" clip-rule="evenodd" d="M25.7883 30.4854C25.667 30.4854 25.667 30.7176 25.667 30.8872C25.667 31.0569 25.7813 31.7455 26.0234 31.6952C26.2654 31.6449 26.0872 31.1079 26.0872 30.9207C26.0872 30.7335 25.9097 30.4854 25.7883 30.4854Z" fill="#042FF0"/>
<path fill-rule="evenodd" clip-rule="evenodd" d="M24.0932 26.5117C23.6882 26.5918 24.7558 30.1163 24.9843 30.635C25.2129 31.1537 25.3193 30.8453 25.3193 30.4808C25.3193 30.1163 24.4981 26.4317 24.0932 26.5117Z" fill="#0430F5"/>
<path fill-rule="evenodd" clip-rule="evenodd" d="M28.8255 30.5904C28.8255 30.5904 28.5195 30.6969 28.1534 30.1116C27.3221 28.7827 27.0075 27.4391 26.5931 26.887C26.258 26.4406 25.6766 25.5902 25.0925 24.9026C24.3911 24.077 23.6931 23.4328 23.5103 23.2922C23.1752 23.0345 23.7754 22.8175 24.4528 23.6185C24.7265 23.942 25.1468 24.3663 25.5561 24.8478C26.1598 25.5582 26.7529 26.3235 26.9245 26.5038C27.2125 26.8063 29.8844 29.4006 29.8844 29.6512C29.8844 29.9018 28.8255 30.5904 28.8255 30.5904Z" fill="#0430F6"/>
<mask id="mask3_6801_253030" style="mask-type:alpha" maskUnits="userSpaceOnUse" x="23" y="23" width="7" height="8">
<path fill-rule="evenodd" clip-rule="evenodd" d="M28.8255 30.5904C28.8255 30.5904 28.5195 30.6969 28.1534 30.1116C27.3221 28.7827 27.0075 27.4391 26.5931 26.887C26.258 26.4406 25.6766 25.5902 25.0925 24.9026C24.3911 24.077 23.6931 23.4328 23.5103 23.2922C23.1752 23.0345 23.7754 22.8175 24.4528 23.6185C24.7265 23.942 25.1468 24.3663 25.5561 24.8478C26.1598 25.5582 26.7529 26.3235 26.9245 26.5038C27.2125 26.8063 29.8844 29.4006 29.8844 29.6512C29.8844 29.9018 28.8255 30.5904 28.8255 30.5904Z" fill="white"/>
</mask>
<g mask="url(#mask3_6801_253030)">
<path fill-rule="evenodd" clip-rule="evenodd" d="M26.892 27.5531C26.892 27.5531 28.1098 30.9804 28.6425 30.6963C29.1752 30.4123 30.1431 30.0021 29.9181 29.6507C29.6931 29.2993 27.9142 27.3292 28.045 27.5531C28.1758 27.777 28.4617 28.1569 28.1098 28.2991C27.758 28.4413 26.892 27.5531 26.892 27.5531Z" fill="#00BDF9"/>
</g>
<path fill-rule="evenodd" clip-rule="evenodd" d="M28.2817 29.221C27.5487 29.3143 28.5618 30.5163 28.8823 30.8062C29.2029 31.096 29.8746 30.6612 29.8746 30.6612C29.8746 30.6612 29.0146 29.1276 28.2817 29.221Z" fill="#02EAED"/>
<path fill-rule="evenodd" clip-rule="evenodd" d="M12.8626 19.2938C12.5687 19.6322 13.7591 19.6189 14.3646 19.5471C14.9702 19.4754 15.4605 19.3604 15.9999 19.4843C16.5393 19.6082 17.3497 20.5834 17.7153 20.3767C18.0808 20.1699 18.305 19.9994 18.5615 20.1591C18.818 20.3187 19.72 20.8298 19.9335 20.8298C20.1471 20.8298 20.4474 20.3094 19.124 19.8969C17.8006 19.4843 17.1367 19.1756 16.1823 19.1756C15.2279 19.1756 13.1565 18.9555 12.8626 19.2938Z" fill="#00AEF7"/>
<mask id="mask4_6801_253030" style="mask-type:alpha" maskUnits="userSpaceOnUse" x="12" y="19" width="9" height="2">
<path fill-rule="evenodd" clip-rule="evenodd" d="M12.8626 19.2938C12.5687 19.6322 13.7591 19.6189 14.3646 19.5471C14.9702 19.4754 15.4605 19.3604 15.9999 19.4843C16.5393 19.6082 17.3497 20.5834 17.7153 20.3767C18.0808 20.1699 18.305 19.9994 18.5615 20.1591C18.818 20.3187 19.72 20.8298 19.9335 20.8298C20.1471 20.8298 20.4474 20.3094 19.124 19.8969C17.8006 19.4843 17.1367 19.1756 16.1823 19.1756C15.2279 19.1756 13.1565 18.9555 12.8626 19.2938Z" fill="white"/>
</mask>
<g mask="url(#mask4_6801_253030)">
<path fill-rule="evenodd" clip-rule="evenodd" d="M12.8168 19.4153C12.9045 19.6632 13.8373 19.6537 13.994 19.4736C14.1507 19.2934 14.1203 19.0786 13.7553 19.0786C13.3904 19.0786 12.7291 19.1674 12.8168 19.4153Z" fill="#034FF8"/>
<path fill-rule="evenodd" clip-rule="evenodd" d="M16.776 19.8484C16.7579 20.4063 17.7784 20.5443 17.9351 20.3642C18.0918 20.184 18.0613 19.9692 17.6964 19.9692C17.3315 19.9692 16.7942 19.2906 16.776 19.8484Z" fill="#034FF8"/>
<path fill-rule="evenodd" clip-rule="evenodd" d="M19.1373 20.1596C20.1214 20.8608 20.3015 21.5135 20.5257 21.424C21.0273 21.2236 20.2399 20.1307 19.9171 19.9702C19.2784 19.6527 18.4607 19.6775 19.1373 20.1596Z" fill="#034FF8"/>
</g>
<path fill-rule="evenodd" clip-rule="evenodd" d="M10.5628 26.4429C10.6202 26.0419 11.2355 26.4358 11.0441 27.3096C10.8528 28.1834 10.9607 28.3727 10.6897 29.4952C10.4186 30.6177 10.4679 30.3792 10.2062 30.9431C9.94442 31.5069 10.2964 31.6324 10.5628 31.3744C10.8292 31.1163 11.5692 30.8514 11.4051 31.1675C11.2409 31.4837 11.3365 32 10.9756 32C10.6147 32 7.7574 32.2441 5.01558 31.7095C4.21826 31.554 2.87608 30.8818 2.2438 30.4373C2.03789 30.2925 1.63854 29.947 1.43634 29.6395C1.40347 29.3151 1.46332 29.284 1.34754 28.9697C1.20114 28.5723 0.902537 28.1731 0.676994 27.9508C0.0266867 27.3096 -0.341118 26.3613 0.446098 26.8571C0.640316 26.9795 0.909834 27.6887 1.13388 27.9508C1.3487 28.2021 2.16384 28.7911 2.7549 29.0807C3.20853 29.303 3.56151 29.3034 3.9423 29.4952C4.45424 29.753 4.60124 29.9789 5.01558 30.0357C6.26427 30.2071 7.38607 30.2912 7.95912 30.24C8.53217 30.1889 9.14821 29.6961 9.44054 29.4039C9.73286 29.1116 10.1942 29.0601 10.3526 28.5771C10.4329 28.332 10.5372 27.924 10.5628 27.4951C10.5877 27.0786 10.5345 26.6404 10.5628 26.4429Z" fill="#01A0F6"/>
<path fill-rule="evenodd" clip-rule="evenodd" d="M9.21681 30.0879C10.1235 29.49 10.1235 29.1343 10.8733 28.844C11.6746 28.5338 11.1058 25.1324 11.7521 25.7548C11.902 25.8992 12.2545 26.9783 12.1895 28.0686C12.147 28.7816 11.5968 30.8186 11.5968 30.8186L12.38 30.925L12.7428 31.9996H10.5737C10.5737 31.9996 10.5737 31.5431 10.8733 31.5431C11.3768 31.5431 11.3808 30.5759 11.501 30.0879C11.7521 29.0688 11.0308 29.3798 10.8699 29.8028C10.6421 30.4016 9.91905 30.177 9.30461 30.6926C8.79382 31.1213 8.75324 30.3936 9.21681 30.0879Z" fill="#0000F6"/>
<path fill-rule="evenodd" clip-rule="evenodd" d="M6.28638 30.2307C6.00356 30.3222 5.7593 30.626 6.28638 30.626C6.81346 30.626 7.50541 30.5938 7.72611 30.5146C7.9468 30.4354 7.9468 30.2795 7.63639 30.2307C7.32597 30.1818 6.5692 30.1391 6.28638 30.2307Z" fill="#0000F6"/>
<path fill-rule="evenodd" clip-rule="evenodd" d="M4.24171 31.507C4.43345 31.4068 4.92429 31.2016 5.52491 31.329C6.12552 31.4564 6.70382 31.5043 6.93068 31.329C7.15754 31.1537 7.73367 30.6839 8.02839 30.893C8.32311 31.1022 8.16262 31.507 8.47657 31.507C8.79053 31.507 9.15625 31.4498 9.29853 31.5939C9.44082 31.7379 9.64834 31.4914 10.068 31.329C10.4877 31.1667 10.068 31.9995 10.068 31.9995H4.24171C4.24171 31.9995 4.04998 31.6071 4.24171 31.507Z" fill="#00ECEC"/>
<path fill-rule="evenodd" clip-rule="evenodd" d="M2.8081 30.8467C3.08119 30.9107 3.52812 30.6816 3.40872 30.1119C3.28932 29.5422 2.14593 28.2917 1.8737 28.0113C1.60147 27.7309 0.19013 26.2857 0.19013 26.2857C0.19013 26.2857 -0.0943665 26.6862 0.0468366 27.0049C0.18804 27.3236 0.74833 27.4465 0.9667 27.7733C1.18507 28.1001 1.7956 28.9836 1.60783 29.6939C1.42005 30.4042 2.53502 30.7828 2.8081 30.8467Z" fill="#00ECEC"/>
<path fill-rule="evenodd" clip-rule="evenodd" d="M1.7643 20.5477C1.7643 20.5477 1.42809 22.0198 2.01154 23.8126C2.59499 25.6054 5.28098 29.072 7.15729 29.072C9.0336 29.072 8.76557 26.893 10.1407 26.2651C10.6701 26.1512 10.7147 27.8609 10.8035 27.4071C10.8923 26.9533 11.3236 25.9236 10.4506 25.0973C9.57755 24.2711 9.20849 24.2998 8.5838 24.5195C8.15477 24.6704 8.04263 24.8589 7.58316 25.0146C7.12368 25.1703 6.6727 24.6315 6.62909 24.367C6.5377 23.8126 6.7292 23.2349 7.107 22.7881C7.4848 22.3414 8.4083 21.4513 9.17746 21.222C9.94661 20.9928 10.2768 20.4296 10.1407 20.1567C10.0047 19.8838 10.5625 19.7877 10.9753 19.5704C11.3882 19.3531 11.4056 19.2785 11.8762 19.0667C12.3469 18.8548 13.6119 18.6804 14.6525 18.7331C15.6931 18.7858 16.269 18.4355 16.8932 18.5054C17.5174 18.5753 18.0509 18.6218 19.097 19.1516C20.1432 19.6814 20.9967 19.734 21.6497 20.243C22.3026 20.752 23.8353 21.7878 24.1795 22.288C24.5237 22.7881 25.9258 23.8073 26.5699 24.5689C27.2139 25.3304 28.5821 26.3666 29.029 27.4071C29.476 28.4476 29.6889 29.1627 29.9576 28.9926C30.2263 28.8225 30.0693 28.2934 29.77 27.5768C29.4708 26.8602 29.1885 26.2651 28.4518 25.3041C27.7151 24.3431 26.5996 22.6521 26.1261 22.288C25.6527 21.9238 25.6992 21.8199 25.4305 21.7346C25.1618 21.6494 24.9545 21.2778 24.5929 20.997C24.4175 20.8608 24.0906 20.6655 23.8173 20.4281C23.5271 20.1761 23.2435 19.9486 23.2435 19.8741C23.2435 19.7295 22.8053 19.2667 23.2435 19.5704C23.6817 19.8741 24.9015 20.6534 24.981 20.4281C25.0605 20.2028 25.1298 20.084 25.3718 20.243C25.6139 20.4019 26.3081 21.3004 26.5699 21.062C26.8316 20.8236 26.8111 20.4311 27.0685 20.5974C27.3259 20.7637 27.9904 21.8752 28.4518 21.8752C28.9132 21.8752 29.4833 22.2103 30.165 22.7881C30.8467 23.3659 32.138 24.0157 31.8352 23.6278C31.5324 23.2399 30.8908 22.3931 30.4522 22.0639C30.0137 21.7346 29.4998 21.3008 29.029 20.7719C28.5582 20.243 28.293 19.7709 27.6807 19.6707C27.0685 19.5704 26.8218 19.4633 26.1261 18.9843C25.4305 18.5054 25.5449 18.8879 25.3079 18.8105C25.071 18.7331 24.7727 18.4306 24.4088 18.3122C24.2627 18.2648 23.8772 17.9426 23.4402 17.6819C22.7883 17.2931 22.0451 16.916 21.9995 16.7829C21.9233 16.5607 22.2943 16.3687 23.6283 16.971C24.9623 17.5734 25.8381 18.1017 26.2789 18.0068C26.7197 17.9119 26.8265 17.8947 27.7969 18.2001C28.7672 18.5056 28.8524 18.5543 29.1885 18.8105C29.5246 19.0667 30.0236 19.6732 30.9486 19.8741C31.8735 20.075 32.0002 20.3122 32.0002 20.3122V15.8285L31.2731 15.4714L23.0497 12.0778L15.8839 14.2201L11.3675 15.9942L7.08331 18.5054L5.23507 23.6278L3.86857 20.1567L5.7897 16.1194L11.3963 12.7415L14.3297 11.1034H12.027L6.12369 11.4702L2.59499 16.1194L1.7643 20.5477Z" fill="#FFFF00"/>
<path fill-rule="evenodd" clip-rule="evenodd" d="M6.90723 13.0595C7.53559 12.716 8.04912 12.5745 8.76393 12.3139C8.92677 12.2546 21.1757 10.1052 25.4828 10.8423C25.8848 10.9111 32.0003 16.2529 32.0003 16.2529L32.0246 17.7767C32.0246 17.7767 30.8291 17.0938 30.2755 16.8953C29.4349 16.5938 28.9499 16.1374 29.0778 16.4218C29.6373 17.6656 30.428 18.0339 29.8673 18.149C29.55 18.2142 28.8612 17.5103 28.3117 17.175C27.8899 16.9178 27.3105 16.7171 27.1964 16.9552C27.0628 17.2343 26.5815 17.0991 25.8902 16.7604C25.4861 16.5625 25.2062 16.7714 24.9227 16.8289C24.7212 16.8698 24.463 16.7382 24.4038 16.7604C24.1017 16.8737 24.4825 17.2885 24.1568 17.2086C24.0079 17.1721 23.683 16.9682 23.2709 16.8289C22.5887 16.5983 22.0785 16.5983 22.1698 16.8289C22.3981 17.4053 19.8544 15.6009 19.546 15.5554C19.2377 15.5099 19.1289 15.7457 20.3963 16.4772C21.6637 17.2086 22.6745 17.3359 23.6693 18.3192C24.0373 18.6829 24.4038 19.2235 24.4038 19.3052C24.4038 19.5343 23.5491 19.359 22.7916 18.782C22.1785 18.3151 21.3791 17.3479 20.6059 16.9552C19.9164 16.6049 19.1284 16.4546 18.5509 16.3622C18.0377 16.28 17.6934 16.2232 17.6934 16.4218C17.6934 16.6964 18.3962 16.8345 18.8482 17.0281C19.2219 17.1882 19.5025 17.4088 19.3391 17.4841C18.9457 17.6654 18.3383 17.4459 17.6934 17.2618C17.0105 17.0669 16.2961 16.9026 16.1338 16.9552C15.7588 17.0766 15.4714 17.1971 15.3264 17.175C14.9259 17.1141 14.9259 17.175 14.747 17.175C14.2453 17.175 14.8429 17.6056 15.3264 17.699C16.1396 17.8559 15.5851 18.2783 15.736 18.4764C16.0072 18.8322 12.3947 18.5162 11.7716 19.0761C11.5769 19.251 11.3702 19.3486 10.9673 19.6028C10.5643 19.857 10.0731 19.8397 10.1561 20.159C10.239 20.4783 10.0115 19.8874 9.55868 20.1019C8.38213 20.6591 8.35541 21.4411 8.98409 21.2645C9.33321 21.1665 8.41857 21.5515 7.80678 22.0856C7.28388 22.542 6.73742 23.2232 6.60575 23.5233C6.32004 24.1744 6.54172 25.1664 6.75129 25.0234C6.96086 24.8804 7.15733 25.877 7.64602 26.1372C8.1347 26.3973 8.28647 26.1144 8.04912 25.7429C7.81176 25.3713 7.99981 24.8963 8.24521 24.725C8.49061 24.5537 9.28097 24.1832 9.91982 24.5946C10.5587 25.0061 10.9904 25.4679 10.9904 26.4283C10.9904 27.3886 11.0359 27.8562 10.4624 28.5387C9.88891 29.2212 9.62499 29.2678 9.18057 29.4824C8.62176 29.7523 7.40026 29.6842 7.82273 29.3779C8.24521 29.0716 6.90723 28.1452 6.90723 28.1452L5.29343 27.5683C5.29343 27.5683 5.54932 27.3663 5.19934 26.8812C4.84937 26.3961 4.10429 25.4065 3.59654 25.1325C3.08879 24.8585 2.67662 24.8585 2.67662 25.1325C2.67662 25.4065 2.01704 24.1598 2.01704 24.1598L1.52814 22.2165L2.01704 20.7747C2.01704 20.7747 2.1304 20.3811 2.36271 20.2107C2.59503 20.0402 2.87749 19.4614 2.87749 19.0761C2.87749 18.6907 3.3735 18.2565 3.3735 17.899C3.3735 17.5415 3.55059 16.956 3.86586 16.1144C4.18112 15.2729 4.30721 15.3367 4.75327 14.7782C5.19934 14.2197 6.27887 13.403 6.90723 13.0595Z" fill="#EABF01"/>
<path fill-rule="evenodd" clip-rule="evenodd" d="M10.0734 12.4813C10.0734 12.1797 8.6953 12.4801 8.12904 12.7418C7.56279 13.0034 7.09077 13.402 6.6144 13.5835C6.13803 13.765 5.60403 14.2458 5.13353 14.7789C4.66304 15.3119 4.27947 15.6247 4.15876 16.4085C4.03805 17.1922 3.82199 17.8511 3.59629 18.246C3.37058 18.6409 2.72633 19.6614 2.59477 20.2037C2.46321 20.746 2.21421 22.6467 2.48062 23.2467C2.74703 23.8467 2.69008 23.3938 3.00927 23.3938C3.32845 23.3938 4.00219 24.6243 4.15876 25.0443C4.31534 25.4643 4.58712 26.0228 5.56448 26.8091C5.72976 26.9421 6.19315 27.4248 7.2114 27.5387C8.22964 27.6527 9.23283 27.1207 9.38203 26.4002C9.53123 25.6797 9.67132 25.6797 9.96747 25.9148C10.2636 26.15 10.719 25.4906 10.3031 25.0443C10.0344 24.7558 9.8175 24.5813 9.42883 24.5351C9.0421 24.4892 8.50449 24.6473 8.23672 24.8592C7.33327 25.574 8.63873 26.2696 8.01177 26.2696C7.38481 26.2696 7.19547 25.6563 6.70676 25.2701C6.21805 24.884 5.69472 24.8563 6.9754 22.3972C7.38608 21.6086 7.18022 21.4758 8.17404 20.7633C8.46507 20.5546 9.43386 20.0837 9.91956 19.4361C10.0631 19.2447 10.7072 19.2462 11.2872 18.8863C11.8672 18.5263 12.2867 18.6466 13.1772 18.5182C14.0678 18.3898 14.9116 18.2375 14.9116 17.9908C14.9116 17.744 14.0678 17.4003 13.3816 17.5126C12.4196 17.6702 11.3938 17.8682 10.719 17.9908C10.0441 18.1134 11.076 17.3599 11.1219 17.3365C12.1233 16.8264 12.3431 16.9201 13.1297 16.7083C13.9162 16.4965 16.831 16.2063 16.831 15.8296C16.831 15.2115 18.3319 15.8139 18.3319 15.3305C18.3319 14.847 19.2561 14.9527 20.5408 15.3305C22.0003 15.7597 23.3805 16.9819 23.737 15.8296C23.8255 15.5435 23.6468 15.0132 23.8228 14.8597C23.9539 14.7455 24.4904 15.026 24.3649 14.7789C24.1626 14.3807 24.7513 14.3807 25.8294 14.7054C26.7516 14.9833 28.7615 15.858 30.0974 16.264C30.3882 16.3524 30.0974 15.8882 30.6879 16.1197C31.5948 16.4751 34.8878 18.1854 33.5787 16.9268C32.4231 15.8158 25.4454 11.0605 25.2785 11.0494C22.4779 10.8634 10.0734 12.4933 10.0734 12.4813Z" fill="#FF8F00"/>
<ellipse cx="9.1798" cy="25.1326" rx="0.350916" ry="0.274024" fill="#FF2600"/>
<path fill-rule="evenodd" clip-rule="evenodd" d="M32 16.4266C32 15.3503 32 13.5008 32 13.5008L29.3268 11.3758L30.1641 10.4171L29.1013 9.06523L31.4698 6.9887V5.17673L27.0854 4.82187L22.2258 5.17673L20.1407 6.03832L15.8837 6.9887L13.5758 9.06523L11.3673 11.8089C11.3673 11.8089 10.5015 12.0206 9.72307 12.3807C8.94465 12.7409 7.04448 13.3993 6.36408 14.1987C5.68368 14.9982 4.9655 15.3341 4.76185 15.9994C4.5582 16.6648 4.66306 16.8973 4.31535 17.5452C3.96765 18.1931 3.08896 19.3816 2.87726 20.2253C2.66555 21.069 2.49481 21.8496 2.66273 22.2265C2.83064 22.6034 3.31494 22.5223 3.5963 23.249C3.87767 23.9757 4.05595 25.2669 5.21002 26.2887C6.36408 27.3105 6.59485 27.4065 7.55314 27.4065C8.51144 27.4065 9.27772 26.8791 9.37259 26.3512C9.46745 25.8233 8.82942 25.358 8.82942 25.5932C8.82942 25.8283 8.89427 26.1858 8.17233 26.2887C7.4504 26.3917 7.58993 26.1094 7.321 26.0193C7.05207 25.9292 6.9078 25.6328 6.85356 25.8691C6.79931 26.1053 6.57647 25.7514 6.28781 25.4096C5.99914 25.0678 5.94818 24.6623 6.05584 24.072C6.16349 23.4817 6.6845 22.5641 7.00275 21.7622C7.321 20.9604 8.83683 20.4372 9.19394 19.9972C9.55104 19.5571 9.71089 19.3657 10.2078 19.1107C10.7047 18.8558 11.068 18.5361 11.4977 18.5361C11.6931 18.5361 12.0918 18.3885 12.4885 18.3295C12.9642 18.2588 13.4385 18.2675 13.5758 18.1649C13.8275 17.9769 13.7185 17.7725 13.3297 17.7725C12.9408 17.7725 9.81391 18.3755 9.2888 18.6513C8.76369 18.927 8.43464 19.1107 8.33271 18.7541C8.23077 18.3975 9.33835 17.9998 9.72307 17.7725C10.1078 17.5452 11.6116 16.8269 12.1937 16.6352C12.7758 16.4435 15.7416 16.1372 16.1713 15.8141C16.6011 15.491 16.1713 15.221 16.6812 15.1105C17.1911 14.9999 18.0128 15.1105 18.7128 15.1105C19.4127 15.1105 22.3631 16.0914 22.7913 15.9061C23.2196 15.7208 22.3289 15.2232 22.2258 14.8461C22.1227 14.469 22.1227 14.3821 22.3669 14.2904C22.6111 14.1987 23.1825 14.3313 23.5478 14.1987C23.913 14.0661 24.3656 14.3475 24.7191 14.0873C25.0727 13.827 25.6734 14.0147 26.2472 14.1987C26.8209 14.3827 28.5713 15.4298 29.3268 15.5564C30.0822 15.6831 31.2808 15.9994 32 16.4266Z" fill="#FF2500"/>
<path fill-rule="evenodd" clip-rule="evenodd" d="M9.07757 26.3768C9.30815 26.4754 9.20032 26.7898 8.79305 26.9998C8.38578 27.2098 7.29445 27.3644 6.66882 26.9998C6.04319 26.6352 5.78 25.8181 5.61703 26.1368C5.45405 26.4554 4.86206 25.6611 4.66353 25.2151C4.465 24.7691 3.97339 23.8419 4.19361 22.4687C4.41383 21.0955 5.26897 20.0062 5.61703 19.4249C5.96509 18.8437 6.46418 18.336 6.86383 17.5637C7.26347 16.7913 8.80858 16.5379 9.5488 16.2686C10.289 15.9993 11.0666 16.0761 11.1437 15.6917C11.2207 15.3073 10.946 15.0332 11.3966 14.563C11.8472 14.0928 12.1555 13.9024 12.1555 13.6013C12.1555 13.3003 12.0512 13.0012 12.3472 12.7407C12.6431 12.4802 13.5265 12.3867 13.7409 12.077C13.9553 11.7674 13.3267 10.9663 13.7409 10.6242C14.1551 10.282 14.7823 10.521 15.282 10.0199C15.7817 9.51882 16.0848 9.82605 16.2891 9.50486C16.4934 9.18368 16.5441 8.88402 17.0118 8.45257C17.4795 8.02112 19.773 7.89103 20.7803 7.51735C21.1823 7.36821 22.0978 7.50654 23.0315 7.60793C24.4375 7.76058 25.417 7.91019 25.7208 8.62766C26.2634 9.90947 23.7624 9.05051 22.583 8.95992C21.4036 8.86933 20.7643 8.69346 20.879 9.18676C20.9937 9.68006 22.1821 9.77992 22.7918 9.61335C23.4015 9.44679 24.3344 9.64807 24.605 10.1262C24.8755 10.6044 24.3227 11.1026 24.8009 11.8192C25.2791 12.5359 26.9537 13.121 28.2376 13.3108C29.5215 13.5006 32.0005 14.563 32.0005 14.563L32.0248 15.5522C32.0248 15.5522 28.6922 14.7516 27.7789 14.4181C26.8655 14.0847 25.5673 13.5006 24.605 13.5006C23.6426 13.5006 22.9159 14.0524 22.1752 13.8269C21.4346 13.6013 21.0762 13.7792 21.1628 14.1857C21.2494 14.5921 21.8099 14.952 21.6401 15.224C21.4702 15.4961 19.6576 14.7096 18.7812 14.7778C18.4515 14.8034 18.1049 14.5651 17.7181 14.563C17.0769 14.5596 16.3817 14.7778 15.8842 14.7778C15.0866 14.7778 14.5606 14.9932 14.5606 15.1818C14.5606 15.3705 14.854 15.4127 15.068 15.5522C15.282 15.6917 14.4696 16.102 14.0992 16.102C13.7288 16.102 12.7787 16.1947 11.7673 16.5152C10.7559 16.8358 9.03044 17.6325 8.34549 18.1468C7.66054 18.6611 7.66361 18.9496 7.77659 19.1172C7.88956 19.2848 8.78081 18.8846 9.34069 18.8846C9.90057 18.8846 9.69871 18.9941 9.15839 19.4249C8.61807 19.8558 8.52579 20.3135 8.11569 20.4955C7.7056 20.6776 6.97756 21.4136 6.97756 21.5724C6.97756 21.7312 6.63686 21.9655 6.35542 22.5465C6.07397 23.1275 6.04906 23.2971 5.95576 23.9997C5.86246 24.7022 5.70904 24.9175 6.09369 25.6188C6.47835 26.3202 7.11105 26.6802 7.25366 26.7637C7.39628 26.8471 6.97756 26.0279 7.38895 26.3768C7.80034 26.7256 8.84698 26.2782 9.07757 26.3768Z" fill="#D60000"/>
<path fill-rule="evenodd" clip-rule="evenodd" d="M20.3043 13.5006C20.4626 13.3244 20.634 13.2912 21.1948 13.2912C21.7556 13.2912 22.4749 13.3421 22.3349 13.1401C22.1949 12.9381 21.2996 12.7896 20.5777 12.392C19.8559 11.9943 18.9885 11.934 18.6115 12.4802C18.2345 13.0265 17.6855 12.8375 16.8427 12.8375C16 12.8375 17.2347 13.6297 17.9343 13.8269C18.6339 14.0241 20.0866 14.4574 20.3043 14.3662C20.5221 14.275 20.146 13.6769 20.3043 13.5006Z" fill="#BF0000"/>
<path fill-rule="evenodd" clip-rule="evenodd" d="M12.3522 13.6142C12.1445 13.7718 12.7553 14.1941 12.5511 14.2675C12.3469 14.3408 11.867 14.8699 12.0949 15.023C12.3228 15.1761 12.8978 14.9295 13.4465 14.8614C13.9952 14.7932 14.5955 14.5516 14.8548 14.1812C15.114 13.8107 14.5955 13.3018 13.8241 13.3018C13.0526 13.3018 12.5598 13.4567 12.3522 13.6142Z" fill="#BF0000"/>
<path fill-rule="evenodd" clip-rule="evenodd" d="M7.88528 20.3616C7.36057 20.5686 7.32937 20.7985 6.93307 21.0712C6.53676 21.3439 6.0046 21.5057 6.0046 21.9509C6.0046 22.3961 5.45104 23.3096 5.45104 23.6795C5.45104 24.0494 5.10477 23.3482 5.03252 23.6025C4.96027 23.8568 5.03252 24.2486 5.03252 24.406C5.03252 24.5635 4.81274 24.4505 4.66352 23.9919C4.5143 23.5333 4.53394 22.9608 4.66352 22.6185C4.7931 22.2761 4.88802 22.45 4.96027 22.5343C5.03252 22.6185 5.45104 22.3506 5.45104 21.9509C5.45104 21.5513 6.07104 20.8545 6.48409 20.5686C6.89714 20.2827 6.98948 19.9591 7.57904 19.9591C8.1686 19.9591 8.40999 20.1547 7.88528 20.3616Z" fill="#C00000"/>
<path fill-rule="evenodd" clip-rule="evenodd" d="M7.30371 14.1855C7.25022 14.2881 7.88141 14.1407 8.12907 13.978C8.37673 13.8153 8.69669 13.5008 8.37673 13.5008C8.05678 13.5008 7.3572 14.0829 7.30371 14.1855Z" fill="#BF0000"/>
<path fill-rule="evenodd" clip-rule="evenodd" d="M17.4816 10.8945C17.4281 10.997 17.7155 11.0482 18.3144 11.0482C18.9134 11.0482 19.1927 10.8285 18.8563 10.6799C18.52 10.5313 17.535 10.7919 17.4816 10.8945Z" fill="#F40000"/>
<path fill-rule="evenodd" clip-rule="evenodd" d="M12.5736 11.775C11.3693 12.0805 10.6293 11.6885 10.4194 11.3846C10.2095 11.0808 10.9258 10.4803 10.9258 10.4803L13.8289 7.82419L16.3165 6.04167L19.9454 4.99937L23.2376 3.50168L24.8509 2.23569L26.899 2.61852L29.3444 1.71873L32.1318 2.4251C32.1318 2.4251 32.1318 12.4837 32.1431 13.5041C31.9013 13.5041 31.2455 13.0537 30.982 12.9231C30.8279 12.8468 30.2423 12.6333 29.6972 12.4837C29.3102 12.3775 28.8433 12.3547 28.6925 12.2373C28.3293 11.9545 28.3499 11.8598 28.6925 11.597C29.0352 11.3342 28.4843 10.9636 28.9143 10.7219C29.3444 10.4803 29.6972 10.5977 29.5857 10.0937C29.4743 9.58965 28.4763 9.69585 28.1988 9.05599C27.9213 8.41613 28.9143 8.48485 28.9143 8.10316C28.9143 7.72148 30.5964 7.61143 30.8743 7.24702C31.1522 6.88261 31.3255 6.05991 30.6651 5.76434C30.0046 5.46877 29.7906 5.71734 29.2315 5.60224C28.6724 5.48713 28.6345 5.20429 28.1988 5.39408C27.7631 5.58388 26.1531 6.41899 25.368 6.41899C24.583 6.41899 24.2472 5.3977 23.8685 5.26073C23.4898 5.12376 22.9858 5.20429 22.5357 5.39408C22.0856 5.58388 21.3873 5.97403 20.8049 6.26089C20.2224 6.54776 18.8536 6.99205 17.585 6.99205C16.3165 6.99205 15.942 7.12977 15.6209 7.3718C15.2999 7.61383 15.4389 7.68759 15.1002 7.99552C14.7615 8.30344 14.3783 8.4144 14.2566 8.85036C14.135 9.28632 14.254 9.45319 13.8289 9.70888C13.4038 9.96457 12.8339 10.0894 12.6562 10.5977C12.4784 11.1061 13.7779 11.4695 12.5736 11.775Z" fill="#FF9001"/>
<path fill-rule="evenodd" clip-rule="evenodd" d="M6.90769 12.1917C6.90769 12.1917 7.12579 12.5553 7.65223 12.5553C8.17866 12.5553 10.1963 11.8125 10.3963 11.2982C10.5964 10.7839 11.3863 10.8469 11.4994 10.4357C11.6126 10.0245 12.7647 9.86924 12.9566 9.3951C13.1486 8.92096 12.9566 8.81081 13.4995 8.44612C14.0424 8.08143 15.2148 7.24247 15.4099 6.99237C15.6049 6.74228 16.1362 6.49087 17.1399 6.14196C18.1436 5.79304 18.8681 5.56551 19.5199 5.56551C20.1717 5.56551 20.5442 5.53423 21.1903 5.27575C21.8364 5.01728 22.6215 4.29718 22.9501 4.06093C23.2787 3.82469 23.7777 3.00835 24.4326 3.00835C25.0875 3.00835 25.3812 3.69677 26.0543 3.69677C26.7274 3.69677 27.1491 2.64119 27.9021 2.64119C28.655 2.64119 28.3431 3.86066 29.3028 4.06093C30.2624 4.26121 32.1322 2.76927 32.1322 2.76927V0.00311279H24.8512L22.0042 2.00323L19.5199 4.06093L16.8304 4.81879L14.0072 6.04199L11.4994 6.84678L9.7016 7.14117L6.1047 9.82719L3.05811 10.8391L2.14346 11.9077L2.9334 13.6599L5.17471 13.8189L6.90769 12.1917Z" fill="#FFFF00"/>
<mask id="mask5_6801_253030" style="mask-type:alpha" maskUnits="userSpaceOnUse" x="2" y="0" width="31" height="14">
<path fill-rule="evenodd" clip-rule="evenodd" d="M6.90769 12.1917C6.90769 12.1917 7.12579 12.5553 7.65223 12.5553C8.17866 12.5553 10.1963 11.8125 10.3963 11.2982C10.5964 10.7839 11.3863 10.8469 11.4994 10.4357C11.6126 10.0245 12.7647 9.86924 12.9566 9.3951C13.1486 8.92096 12.9566 8.81081 13.4995 8.44612C14.0424 8.08143 15.2148 7.24247 15.4099 6.99237C15.6049 6.74228 16.1362 6.49087 17.1399 6.14196C18.1436 5.79304 18.8681 5.56551 19.5199 5.56551C20.1717 5.56551 20.5442 5.53423 21.1903 5.27575C21.8364 5.01728 22.6215 4.29718 22.9501 4.06093C23.2787 3.82469 23.7777 3.00835 24.4326 3.00835C25.0875 3.00835 25.3812 3.69677 26.0543 3.69677C26.7274 3.69677 27.1491 2.64119 27.9021 2.64119C28.655 2.64119 28.3431 3.86066 29.3028 4.06093C30.2624 4.26121 32.1322 2.76927 32.1322 2.76927V0.00311279H24.8512L22.0042 2.00323L19.5199 4.06093L16.8304 4.81879L14.0072 6.04199L11.4994 6.84678L9.7016 7.14117L6.1047 9.82719L3.05811 10.8391L2.14346 11.9077L2.9334 13.6599L5.17471 13.8189L6.90769 12.1917Z" fill="white"/>
</mask>
<g mask="url(#mask5_6801_253030)">
<path fill-rule="evenodd" clip-rule="evenodd" d="M8.19655 11.9591C8.2933 12.2943 9.37794 12.1389 9.89782 11.6606C10.4177 11.1824 11.3729 10.9731 11.5065 10.7669C11.6401 10.5606 11.9817 10.4856 12.2992 10.3495C12.6168 10.2133 13.0702 9.91092 13.2884 9.63831C13.5066 9.36571 13.2529 9.13361 13.5652 8.84609C13.8776 8.55857 15.0226 7.69055 15.3414 7.36427C15.6602 7.03799 15.4827 6.87916 16.3253 6.61736C17.168 6.35557 18.0462 5.84986 18.6527 5.71445C19.2591 5.57905 20.0436 5.73232 20.7057 5.5829C21.3677 5.43348 21.8516 5.05562 22.165 4.78634C22.4784 4.51705 22.4768 4.58549 22.6635 4.46073C22.8503 4.33598 23.2967 3.96799 23.4196 3.68992C23.5424 3.41185 23.9995 3.29064 24.3539 3.29064C24.7084 3.29064 25.4119 3.58956 25.7006 3.78998C25.9893 3.99039 26.9491 3.40084 26.96 3.3824C27.2586 2.87975 27.6643 2.97543 28.0572 3.08684C28.4644 3.20234 28.8163 4.31426 29.588 4.37185C30.3597 4.42944 32.2539 2.98684 32.2539 2.98684L33.5997 -0.9552C33.5997 -0.9552 26.5242 0.0656105 25.8822 0.466308C25.2401 0.867005 24.7183 1.86873 24.2103 2.10185C23.236 2.54894 22.4213 3.16576 22.165 3.49994C21.081 4.91342 20.7004 4.72525 20.2505 4.70184C19.1142 4.64272 18.8411 4.8986 17.7486 5.34905C16.6562 5.7995 15.9667 5.5669 15.4836 5.89873C15.2008 6.093 14.8577 6.76412 14.4279 7.18118C14.1237 7.47647 13.8117 7.4611 13.2884 7.87167C12.0261 8.86211 10.8533 9.19478 10.5745 9.57661C10.3358 9.90342 10.3038 10.1982 10.2687 10.3495C10.1227 10.9779 9.48356 10.9877 9.34961 11.3114C9.21566 11.6352 8.0998 11.624 8.19655 11.9591Z" fill="#E6BF00"/>
<path fill-rule="evenodd" clip-rule="evenodd" d="M6.55129 10.6528C6.42745 10.7428 6.46063 10.7984 6.21872 11.1516C5.97681 11.5048 5.7778 11.7396 6.06048 11.8055C6.34316 11.8714 6.74574 11.4621 7.09013 11.2028C7.43451 10.9434 7.87021 10.6908 8.01602 10.4219C8.16184 10.1531 8.55734 10.1916 8.50423 10.0508C8.45111 9.9101 8.3971 9.76122 7.82505 9.92865C7.25299 10.0961 6.67514 10.5628 6.55129 10.6528Z" fill="#E6BF00"/>
</g>
<path fill-rule="evenodd" clip-rule="evenodd" d="M2.14879 22.4006C2.14879 22.4006 2.34979 21.1309 2.34979 20.6113C2.34979 19.5221 2.71115 19.1011 2.81647 18.6922C2.9496 18.1754 2.97854 17.4456 3.12087 17.2278C3.70577 16.3329 3.59691 15.3703 4.43402 14.7393C4.84583 14.4288 5.4232 14.0071 5.97984 13.6321C6.55471 13.2449 7.32326 12.9236 7.10247 12.3684C6.88169 11.8132 5.72427 12.0505 5.09071 12.9147C4.86454 13.2232 4.34934 13.8314 4.15118 13.5051C3.96204 13.1937 3.2995 13.2306 3.12087 12.9843C2.72752 12.442 2.51407 12.1725 2.6208 11.5523C2.72752 10.9321 3.47218 10.5214 3.91296 10.8341C4.35375 11.1469 4.15118 11.3304 3.96721 11.6414C3.78325 11.9524 4.33637 11.7974 4.43402 11.5523C4.61581 11.096 4.70052 11.5049 4.87844 11.2022C5.3632 10.3773 6.49258 9.95875 7.52773 9.12655C8.56288 8.29436 10.0819 7.18104 10.6795 7.30648C11.2772 7.43192 11.0123 7.75404 11.435 7.75404C11.8577 7.75404 13.4972 7.0677 13.8928 6.72109C14.2884 6.37449 14.6995 5.79672 15.3017 5.54364C15.9039 5.29056 18.0594 4.75524 18.8607 4.51942C19.6619 4.2836 20.357 4.02686 20.7219 3.55393C21.0867 3.08099 22.4297 2.25469 22.8584 2.02449C23.287 1.79429 24.7969 0.548636 24.8506 0.146455C24.9042 -0.255726 22.7363 -0.172074 22.7363 -0.172074L21.8493 1.16364L19.2779 2.57609L16.1328 4.39371L12.2074 5.67065L10.8528 6.04266L7.93928 7.49354C7.93928 7.49354 3.9565 9.5563 3.27765 10.1401C2.59881 10.7238 1.88886 11.7144 1.88886 11.7144L0.755578 14.6134L0.106995 17.5827L0.132771 22.0412L2.14879 22.4006Z" fill="#009000"/>
<path fill-rule="evenodd" clip-rule="evenodd" d="M22.798 0.00311279C22.798 0.00311279 23.1077 0.516283 22.753 0.84365C22.3982 1.17102 21.4653 1.6148 21.1341 2.02556C20.8028 2.43631 20.2497 2.55593 20.2497 2.83184C20.2497 3.10775 19.4549 3.81894 19.084 3.95071C18.7131 4.08248 17.1147 4.30519 16.5401 4.59571C15.9656 4.88622 14.6171 5.60615 13.7664 5.90999C12.9156 6.21384 12.6415 6.35731 12.1742 6.37382C11.7068 6.39032 11.5629 6.086 11.0656 6.23816C10.5682 6.39032 9.91413 6.77717 9.32141 7.10828C8.72868 7.43938 7.18907 8.04002 6.25509 8.79388C5.32112 9.54773 5.16444 9.95695 4.72755 9.95695C4.29065 9.95695 4.29258 9.76476 3.8071 9.95695C3.32162 10.1491 2.57838 10.8791 2.37804 11.2581C2.17769 11.6371 1.9566 12.2227 1.66454 12.7445C1.37248 13.2663 0.56798 15.4259 0.50691 16.3419C0.44584 17.2578 0.961968 17.6013 0.50691 18.1672C0.0518518 18.7331 0.0772623 20.2233 0.349945 21.0155C0.622627 21.8078 0.802028 22.2902 1.01399 22.049C1.22596 21.8078 1.11855 20.5145 1.38962 20.3588C1.66069 20.2031 1.82575 21.2392 2.1817 21.1107C2.53764 20.9823 2.11262 22.5013 2.1817 23.4903C2.25077 24.4793 3.32368 25.4624 3.69174 25.8192C4.0598 26.176 4.26837 26.5707 5.1767 27.1399C6.08504 27.7091 7.51857 28.0166 8.50485 27.7298C9.49112 27.443 9.65394 26.3932 10.1581 26.2338C10.6623 26.0743 10.8462 26.6446 10.8462 27.2134C10.8462 27.7823 10.7244 28.0797 10.1581 28.6651C9.59187 29.2505 8.67537 29.6964 7.83869 29.6964C7.002 29.6964 6.32374 29.6087 5.1767 29.2505C4.02967 28.8923 3.39774 28.0226 2.94561 27.4998C2.49348 26.977 2.22673 26.7945 1.91633 26.3932C1.69303 26.1045 1.22652 25.2001 0.805003 24.4768C0.640598 24.1947 0.30057 24.0678 0.257967 23.8244C0.251592 23.7879 -3.05176e-05 23.4903 -3.05176e-05 23.4903V17.9828V13.3952L3.34268 8.98587L6.574 6.99237L9.8204 5.48221L15.3634 2.83184L17.0505 0.00311279H22.798Z" fill="#02C800"/>
<mask id="mask6_6801_253030" style="mask-type:alpha" maskUnits="userSpaceOnUse" x="0" y="0" width="23" height="30">
<path fill-rule="evenodd" clip-rule="evenodd" d="M22.798 0.00311279C22.798 0.00311279 23.1077 0.516283 22.753 0.84365C22.3982 1.17102 21.4653 1.6148 21.1341 2.02556C20.8028 2.43631 20.2497 2.55593 20.2497 2.83184C20.2497 3.10775 19.4549 3.81894 19.084 3.95071C18.7131 4.08248 17.1147 4.30519 16.5401 4.59571C15.9656 4.88622 14.6171 5.60615 13.7664 5.90999C12.9156 6.21384 12.6415 6.35731 12.1742 6.37382C11.7068 6.39032 11.5629 6.086 11.0656 6.23816C10.5682 6.39032 9.91413 6.77717 9.32141 7.10828C8.72868 7.43938 7.18907 8.04002 6.25509 8.79388C5.32112 9.54773 5.16444 9.95695 4.72755 9.95695C4.29065 9.95695 4.29258 9.76476 3.8071 9.95695C3.32162 10.1491 2.57838 10.8791 2.37804 11.2581C2.17769 11.6371 1.9566 12.2227 1.66454 12.7445C1.37248 13.2663 0.56798 15.4259 0.50691 16.3419C0.44584 17.2578 0.961968 17.6013 0.50691 18.1672C0.0518518 18.7331 0.0772623 20.2233 0.349945 21.0155C0.622627 21.8078 0.802028 22.2902 1.01399 22.049C1.22596 21.8078 1.11855 20.5145 1.38962 20.3588C1.66069 20.2031 1.82575 21.2392 2.1817 21.1107C2.53764 20.9823 2.11262 22.5013 2.1817 23.4903C2.25077 24.4793 3.32368 25.4624 3.69174 25.8192C4.0598 26.176 4.26837 26.5707 5.1767 27.1399C6.08504 27.7091 7.51857 28.0166 8.50485 27.7298C9.49112 27.443 9.65394 26.3932 10.1581 26.2338C10.6623 26.0743 10.8462 26.6446 10.8462 27.2134C10.8462 27.7823 10.7244 28.0797 10.1581 28.6651C9.59187 29.2505 8.67537 29.6964 7.83869 29.6964C7.002 29.6964 6.32374 29.6087 5.1767 29.2505C4.02967 28.8923 3.39774 28.0226 2.94561 27.4998C2.49348 26.977 2.22673 26.7945 1.91633 26.3932C1.69303 26.1045 1.22652 25.2001 0.805003 24.4768C0.640598 24.1947 0.30057 24.0678 0.257967 23.8244C0.251592 23.7879 -3.05176e-05 23.4903 -3.05176e-05 23.4903V17.9828V13.3952L3.34268 8.98587L6.574 6.99237L9.8204 5.48221L15.3634 2.83184L17.0505 0.00311279H22.798Z" fill="white"/>
</mask>
<g mask="url(#mask6_6801_253030)">
<path fill-rule="evenodd" clip-rule="evenodd" d="M2.95929 25.7227C3.02002 26.0298 3.2375 26.2698 3.55989 26.593C3.88227 26.9163 4.43551 27.3698 4.38122 27.0953C4.32693 26.8208 3.71249 25.9266 3.38777 25.7227C3.06305 25.5188 2.89855 25.4156 2.95929 25.7227Z" fill="#009000"/>
<path fill-rule="evenodd" clip-rule="evenodd" d="M0.51971 23.3842C0.580443 23.6913 0.797926 23.9313 1.12031 24.2545C1.44269 24.5777 1.99593 25.0313 1.94164 24.7568C1.88735 24.4822 1.27291 23.5881 0.948193 23.3842C0.623474 23.1803 0.458977 23.0771 0.51971 23.3842Z" fill="#02F900"/>
</g>
<path fill-rule="evenodd" clip-rule="evenodd" d="M9.51118 29.1783C8.5147 29.6911 7.85711 29.5214 7.06096 29.5214C6.26481 29.5214 5.81466 29.4413 5.19093 29.2988C4.5672 29.1563 3.9961 28.7067 3.41134 28.2429C2.82658 27.7791 2.81453 27.4296 2.33824 27.0256C1.86195 26.6217 1.33281 25.7634 1.17954 25.4683C1.02628 25.1731 -3.05176e-05 23.8249 -3.05176e-05 23.7019C-3.05176e-05 23.579 -3.05176e-05 22.5969 -3.05176e-05 22.5969C-3.05176e-05 22.5969 0.99009 23.9712 1.33517 24.2539C1.68025 24.5367 2.1589 24.99 2.33824 25.3817C2.51758 25.7734 3.06039 26.6377 3.41134 26.8971C3.76229 27.1566 4.68679 27.5556 5.19093 27.7401C5.69508 27.9246 6.46544 28.4752 7.57312 28.2429C8.6808 28.0106 9.13 27.5086 9.51118 27.5086C9.89237 27.5086 10.5077 28.6656 9.51118 29.1783Z" fill="#01A1F6"/>
<mask id="mask7_6801_253030" style="mask-type:alpha" maskUnits="userSpaceOnUse" x="0" y="22" width="11" height="8">
<path fill-rule="evenodd" clip-rule="evenodd" d="M9.51118 29.1783C8.5147 29.6911 7.85711 29.5214 7.06096 29.5214C6.26481 29.5214 5.81466 29.4413 5.19093 29.2988C4.5672 29.1563 3.9961 28.7067 3.41134 28.2429C2.82658 27.7791 2.81453 27.4296 2.33824 27.0256C1.86195 26.6217 1.33281 25.7634 1.17954 25.4683C1.02628 25.1731 -3.05176e-05 23.8249 -3.05176e-05 23.7019C-3.05176e-05 23.579 -3.05176e-05 22.5969 -3.05176e-05 22.5969C-3.05176e-05 22.5969 0.99009 23.9712 1.33517 24.2539C1.68025 24.5367 2.1589 24.99 2.33824 25.3817C2.51758 25.7734 3.06039 26.6377 3.41134 26.8971C3.76229 27.1566 4.68679 27.5556 5.19093 27.7401C5.69508 27.9246 6.46544 28.4752 7.57312 28.2429C8.6808 28.0106 9.13 27.5086 9.51118 27.5086C9.89237 27.5086 10.5077 28.6656 9.51118 29.1783Z" fill="white"/>
</mask>
<g mask="url(#mask7_6801_253030)">
<path fill-rule="evenodd" clip-rule="evenodd" d="M9.57613 27.4903C9.89512 27.6628 9.89452 28.2157 9.46601 28.5172C9.0375 28.8187 8.80806 28.969 8.07652 29.057C7.34498 29.145 6.26825 28.8331 5.54171 28.3228C4.81518 27.8125 4.56379 27.4937 4.90336 27.6769C5.24294 27.8601 5.59333 28.2252 6.83912 28.3228C8.08492 28.4204 9.25714 27.3177 9.57613 27.4903Z" fill="#0000F6"/>
<path fill-rule="evenodd" clip-rule="evenodd" d="M3.18782 27.8253C3.05892 27.6089 3.05892 27.2345 3.67974 27.5024C4.30056 27.7704 4.63112 28.5714 5.05942 28.6863C5.48772 28.8012 5.88993 29.2501 6.47022 29.2501C7.05051 29.2501 7.88699 29.4292 8.20086 29.4292C8.51474 29.4292 8.41417 29.6246 7.85057 29.6246C7.28696 29.6246 6.61926 29.5102 6.2298 29.5102C5.84035 29.5102 5.55707 29.4156 5.12581 29.2501C4.69455 29.0845 3.31673 28.0417 3.18782 27.8253Z" fill="#00EBEB"/>
</g>
<path fill-rule="evenodd" clip-rule="evenodd" d="M17.9163 0.00311279C17.9163 0.00311279 16.877 0.570236 16.7023 1.34636C16.5276 2.12248 16.5276 2.88297 16.132 3.18797C15.7364 3.49296 15.6433 3.43815 15.3648 3.66813C15.0862 3.8981 15.1595 4.09721 14.6859 4.40399C14.2122 4.71076 12.8414 5.23844 12.3084 5.3167C11.7754 5.39495 11.2174 5.47653 10.7877 5.66549C10.3581 5.85445 8.81022 6.49297 8.44949 6.70214C8.08876 6.9113 6.44707 7.85864 5.81565 8.31868C5.18422 8.77871 4.79317 8.62387 4.44645 8.77872C4.09972 8.93356 3.18717 9.32985 2.80276 10.0132C2.41836 10.6966 2.19537 10.9392 1.88809 11.3342C1.58082 11.7291 1.25047 12.0174 0.932075 12.6144C0.613683 13.2114 6.71409e-05 13.9857 6.71409e-05 13.9857L-0.0187683 12.909C-0.0187683 12.909 0.0237292 12.3687 0.819657 11.3342C1.61559 10.2997 3.67648 7.70089 4.29075 7.50722C4.90502 7.31355 6.15737 6.04693 6.50822 5.73815C6.85908 5.42937 7.91758 5.49024 8.44949 5.1685C8.9814 4.84675 10.5955 4.6192 11.0474 4.00587C11.4993 3.39254 11.8194 2.78919 12.4216 2.65523C13.0238 2.52128 14.2751 2.26318 14.6859 1.82211C15.0967 1.38105 15.459 0.690965 15.1105 0.416611C14.7621 0.142257 15.1105 0.00311279 15.1105 0.00311279H17.9163Z" fill="#00FF00"/>
<path fill-rule="evenodd" clip-rule="evenodd" d="M15.1735 0.00311279C15.1735 0.00311279 15.7449 0.283961 15.7449 0.731788C15.7449 1.17961 15.3992 1.64967 15.0155 1.88807C14.6319 2.12646 14.0249 2.76329 13.5685 2.76329C13.112 2.76329 12.623 2.79265 12.3276 3.13978C12.0322 3.4869 11.6702 4.27859 10.9621 4.52334C10.2539 4.76808 9.2441 5.18511 8.98342 5.44384C8.72274 5.70256 8.01751 6.19316 7.82344 5.87711C7.62938 5.56106 7.61261 5.61437 7.41446 5.61437C7.21632 5.61437 6.30232 6.3967 5.95156 6.65888C5.6008 6.92105 4.89147 7.72487 4.52634 7.67664C4.16122 7.62842 3.47926 8.3279 3.23228 8.59682C2.98531 8.86574 2.07998 9.91545 1.7297 10.4082C1.37942 10.9009 -3.05176e-05 12.8079 -3.05176e-05 12.8079V11.9917C-3.05176e-05 11.9917 0.825702 10.8645 1.23782 10.2589C1.64994 9.6533 2.09026 8.81915 3.10785 7.78655C4.12544 6.75395 5.641 5.47605 6.71035 4.63535C7.77969 3.79465 8.77464 3.56061 9.13877 2.90528C9.50289 2.24994 9.25187 1.99296 9.61497 1.58182C9.97806 1.17067 10.3205 1.41154 10.7993 1.02495C11.2782 0.638356 11.4992 0.00311279 11.4992 0.00311279L15.1735 0.00311279Z" fill="#0001F6"/>
<path fill-rule="evenodd" clip-rule="evenodd" d="M11.4992 0.00311279C11.4992 0.00311279 11.3332 1.05257 10.8024 1.32434C10.2716 1.5961 9.84239 1.36052 9.62684 1.73376C9.4113 2.10699 9.80482 2.59233 9.36736 3.06388C8.9299 3.53543 7.57987 4.26476 6.8776 4.70702C6.17534 5.14928 3.896 7.13819 3.23892 7.77833C2.58184 8.41847 -3.05176e-05 12.1435 -3.05176e-05 12.1435V11.5358C-3.05176e-05 11.5358 1.97788 7.88262 2.29359 7.62518C2.60929 7.36773 4.79549 5.06219 4.79549 5.06219C4.79549 5.06219 8.00597 2.98849 8.00597 2.21851C8.00597 1.44853 7.42685 0.839059 7.30108 0.638355C7.17531 0.437651 7.19193 0.00311279 7.19193 0.00311279L11.4992 0.00311279Z" fill="#01A0F6"/>
<path fill-rule="evenodd" clip-rule="evenodd" d="M-3.05176e-05 10.9334C-3.05176e-05 10.9334 1.47541 8.15926 2.13751 7.37852C2.79961 6.59778 3.39216 6.15421 3.94677 5.42889C4.24885 5.03383 4.72307 4.48019 5.25728 4.01091C5.70388 3.6186 6.21784 3.3011 6.46588 3.03354C7.01064 2.44591 7.01119 2.59445 7.10381 2.18163C7.17157 1.87962 6.87606 1.74509 6.74209 1.47672C6.62189 1.23594 6.74209 0.825168 6.74209 0.758831C6.74209 0.618555 6.46588 0.00311279 6.46588 0.00311279L7.36229 0.00311279C7.36229 0.00311279 7.38838 0.51463 7.55859 0.661259C7.7288 0.807888 8.13959 0.868738 8.37116 1.2237C8.60273 1.57866 8.27243 2.46808 8.0013 2.89151C7.73017 3.31494 7.10907 3.75191 6.74209 4.01091C6.37511 4.26991 5.85224 4.43792 5.52785 4.7628C5.20347 5.08767 4.85167 5.4245 4.38397 6.04078C3.91627 6.65707 2.6122 7.4005 2.22821 8.04842C1.84423 8.69634 1.60677 9.19042 1.09639 9.9822C0.586012 10.774 -3.05176e-05 11.5358 -3.05176e-05 11.5358V10.9334Z" fill="#00EBEB"/>
<path fill-rule="evenodd" clip-rule="evenodd" d="M1.46843 5.66405C1.02596 6.04205 0.313951 6.9188 -3.05176e-05 7.67461C-3.05176e-05 7.92217 -3.05176e-05 8.5966 -3.05176e-05 8.5966C-3.05176e-05 8.5966 0.526913 7.56205 0.851204 7.09024C1.17549 6.61844 1.5527 6.03213 1.77074 5.80588C1.98878 5.57963 1.91089 5.28605 1.46843 5.66405Z" fill="#00E8E8"/>
<path fill-rule="evenodd" clip-rule="evenodd" d="M0.914608 17.5528C0.914608 17.8793 0.667836 18.3492 0.914608 18.2288C1.16138 18.1085 1.345 17.8165 1.345 17.3972C1.345 16.9778 0.914608 17.2263 0.914608 17.5528Z" fill="#9AD000"/>
<path fill-rule="evenodd" clip-rule="evenodd" d="M4.32616 19.5652C4.71413 19.7091 6.41176 16.9088 7.1717 16.4238C7.93165 15.9388 8.7736 15.9955 9.0447 15.637C9.3158 15.2784 11.5072 14.6176 10.3262 14.2734C9.80224 14.1208 9.29446 14.3235 8.83219 14.4449C8.25244 14.5972 7.75617 14.7161 7.52504 14.9218C7.10961 15.2915 6.74655 15.9249 5.93233 16.0233C5.11811 16.1216 3.93819 19.4213 4.32616 19.5652Z" fill="#FF9001"/>
<path fill-rule="evenodd" clip-rule="evenodd" d="M18.6774 1.59375C17.9684 1.59375 17.4754 2.73451 17.0815 2.89369C16.6877 3.05288 16.7356 3.48381 17.197 3.48381C17.6585 3.48381 18.7072 3.10809 19.0387 2.59994C19.3703 2.09179 19.3863 1.59375 18.6774 1.59375Z" fill="#00FF00"/>
</g>
</g>
</svg>
