<svg width="126" height="28" viewBox="0 0 126 28" fill="none" xmlns="http://www.w3.org/2000/svg">
<path d="M15.1647 0C7.27959 0 0.0218189 7.00171 0.00197778 14.6278L4.92437e-05 15.369C-0.0189646 22.6771 5.47021 27.9993 13.0265 27.9993H20.5304L22.1668 19.1106H14.0083C11.0283 19.1106 8.86352 17.0117 8.87102 14.1296C8.87813 11.3973 11.4785 8.88867 14.3036 8.88867H24.0487L25.6851 0H15.1647Z" fill="white"/>
<path d="M30.588 0H39.508L35.9897 19.1106H46.0248L44.3884 27.9993H25.4333L30.588 0Z" fill="white"/>
<path d="M49.2262 27.9993L52.5627 9.87611C55.7072 9.71375 58.7736 9.24938 61.7341 8.5111L58.1462 27.9993H49.2262Z" fill="white"/>
<path d="M52.6401 9.4559C56.5242 8.42037 59.9777 6.3045 62.6667 3.44524L63.301 0H54.3809L52.6401 9.4559Z" fill="white"/>
<path d="M78.9053 0H69.9852L69.9855 0.000688743H68.2013L63.0466 28H71.9666L74.5031 14.2223L76.7617 21.3325L76.7615 21.3328H83.4519L83.4518 21.3325L88.3258 14.2261L85.7901 27.9993H94.7102L99.8649 0H89.163L81.6571 12.9116L78.9053 0Z" fill="white"/>
<path d="M104.815 2.54307e-06L126 0L124.773 6.6665L112.508 6.6665L111.771 10.6664H119.576L118.349 17.3329H110.544L109.808 21.3328H122.073L120.845 27.9993H99.6602L104.815 2.54307e-06Z" fill="white"/>
</svg>
