<svg width="63" height="63" viewBox="0 0 63 63" fill="none" xmlns="http://www.w3.org/2000/svg">
<g clip-path="url(#clip0_5339_308)">
<rect width="62.6866" height="62.6866" rx="16.7164" fill="#0F1527"/>
<mask id="mask0_5339_308" style="mask-type:alpha" maskUnits="userSpaceOnUse" x="0" y="0" width="63" height="63">
<rect width="62.6866" height="62.6866" fill="white"/>
</mask>
<g mask="url(#mask0_5339_308)">
<rect width="62.6866" height="62.6866" fill="black"/>
<mask id="mask1_5339_308" style="mask-type:alpha" maskUnits="userSpaceOnUse" x="0" y="0" width="63" height="63">
<rect width="62.6866" height="62.6866" fill="white"/>
</mask>
<g mask="url(#mask1_5339_308)">
<path fill-rule="evenodd" clip-rule="evenodd" d="M45.0079 37.8184L42.2695 30.5015C42.2695 30.5015 55.7178 30.1975 59.3086 33.0975C62.8994 35.9975 62.6873 39.5521 62.6873 39.5521L62.7505 47.0017L62.7349 62.8234L48.4437 43.2857L43.7884 38.2716L45.0079 37.8184Z" fill="#009000"/>
<path fill-rule="evenodd" clip-rule="evenodd" d="M57.7461 38.8142C57.7461 39.8022 62.7542 45.0815 62.7542 45.0815V41.6501C62.7542 41.6501 57.7461 37.8262 57.7461 38.8142Z" fill="#00CD00"/>
<path fill-rule="evenodd" clip-rule="evenodd" d="M54.1556 43.6506C53.871 43.5921 53.2632 44.3571 54.3445 45.6765C55.4258 46.9958 56.8105 50.3134 57.3315 50.7499C57.8525 51.1863 59.4268 53.5474 60.0215 52.9586C60.6162 52.3699 59.1492 47.8107 58.4216 47.222C57.694 46.6332 56.5964 46.2693 56.0958 45.6765C55.5951 45.0836 54.4402 43.7091 54.1556 43.6506Z" fill="#02C800"/>
<path fill-rule="evenodd" clip-rule="evenodd" d="M24.4981 62.7727L27.6531 62.6863L28.518 60.2637C28.518 60.2637 28.8261 58.5617 28.9926 57.5053C29.1689 56.3866 28.8114 55.1125 29.6546 53.6889C31.1271 51.2026 36.4847 45.8659 41.3486 47.2825C42.6201 47.6528 42.1011 49.8721 42.9724 51.5161C43.6009 52.7022 44.0699 53.6415 44.9637 54.7511C45.1181 54.9428 46.4142 56.445 47.0384 58.2732C47.7761 60.4336 48.0075 61.0448 48.0075 62.6863C49.9794 62.6863 51.4051 62.6863 53.4785 62.6863C55.2424 62.6863 62.7347 62.6863 62.7347 62.6863C62.7347 62.6863 54.4676 49.2419 49.5837 43.8741C44.6999 38.5063 38.1735 35.2884 36.761 35.4008C34.601 35.5726 27.4005 36.3122 27.4005 36.3122H22.5239L19.4324 38.8141L16.1519 41.6933L13.0726 43.8741C13.0726 43.8741 10.2599 47.6328 12.8813 48.9745C14.9266 50.0213 18.4215 48.3183 19.9116 48.9745C21.978 49.8846 21.6155 53.144 20.9474 54.9977C19.7859 58.2201 13.9474 57.4498 10.7154 57.243C10.4159 57.2238 11.7291 57.7169 11.5415 58.1676C11.4323 58.4303 10.5972 58.2216 9.71644 58.2732C9.58971 58.2806 10.1589 59.3833 10.1589 59.3833L24.4981 62.7727Z" fill="#00C800"/>
<path fill-rule="evenodd" clip-rule="evenodd" d="M23.7609 62.6867C24.8564 61.6509 24.587 61.3849 24.587 60.6906C24.587 59.9963 24.2553 60.5816 22.7832 60.938C21.311 61.2945 24.7265 58.8289 24.587 56.9507C24.4476 55.0725 25.1944 53.423 25.4122 51.0999C25.6301 48.7768 23.4176 48.6856 22.7832 47.9431C22.1487 47.2005 21.6176 46.6963 20.1355 46.4261C18.6534 46.1558 17.7264 46.298 17.2989 46.631C16.8714 46.964 17.2546 47.3415 17.9863 47.4397C18.718 47.538 20.1806 48.2273 20.4812 48.4372C20.7818 48.6472 21.2051 49.0499 21.7392 50.1172C22.2733 51.1844 22.2374 54.125 21.3612 55.1877C20.485 56.2504 21.2559 56.4116 19.9383 57.678C18.6208 58.9444 17.1133 59.5446 14.6024 59.3727C12.0915 59.2007 8.9505 58.1619 9.69544 58.5484C11.6381 59.5563 20.9237 62.6867 23.7609 62.6867Z" fill="#00FF00"/>
<path fill-rule="evenodd" clip-rule="evenodd" d="M25.7285 62.6864C25.7285 62.6864 26.1591 60.7876 26.5955 60.7876C27.0319 60.7876 26.5955 62.6864 26.5955 62.6864H25.7285Z" fill="#00FF00"/>
<path fill-rule="evenodd" clip-rule="evenodd" d="M27.2152 62.6861C27.2152 62.6861 28.8961 58.6358 28.2385 56.1447C27.5809 53.6535 27.4553 53.3471 27.4553 51.7252C27.4553 50.1033 27.1123 49.2864 26.5697 48.2914C26.0271 47.2964 25.2645 47.3121 25.2645 46.0313C25.2645 44.7505 24.515 43.9837 23.4849 43.2863C22.4548 42.5889 20.6545 42.3323 19.6638 42.4606C18.6732 42.5889 17.03 43.5368 16.1373 44.031C15.2447 44.5251 14.4183 45.7556 15.4424 45.4028C16.4665 45.05 16.8878 45.8118 16.8878 46.9038C16.8878 47.9959 15.258 48.6968 14.5645 48.541C13.8709 48.3851 13.2233 47.1614 13.5757 46.0313C13.9281 44.9013 15.1957 43.3337 16.1535 42.945C17.1112 42.5562 19.8932 41.5613 21.1098 41.5613C22.3265 41.5613 23.9211 41.9221 24.1885 41.1673C24.456 40.4125 23.3135 39.5519 22.3219 39.5519C21.3302 39.5519 20.3798 40.1777 20.1105 39.764C19.8411 39.3503 20.6136 39.024 21.539 38.8513C22.4644 38.6786 24.1242 39.1381 25.2645 39.5519C26.4049 39.9656 27.0087 40.2737 27.9136 40.2737C28.8184 40.2737 30.6529 40.2806 31.5143 40.7239C32.3758 41.1673 34.5431 42.016 35.023 42.945C35.5029 43.8739 34.9418 44.2344 35.4217 44.7737C35.9016 45.3131 36.4556 45.7933 36.91 45.4028C37.3643 45.0122 37.3643 45.4028 37.8093 45.4028C38.2542 45.4028 39.142 46.5957 39.7613 46.5957C40.3806 46.5957 40.121 46.1278 40.7977 46.44C41.4743 46.7523 42.3691 47.6719 42.6477 48.2914C42.9263 48.9109 42.857 51.4459 43.3524 51.903C43.8479 52.3602 45.6487 53.6887 45.7807 54.6395C45.9126 55.5903 44.3134 55.4077 43.3524 54.6395C42.1855 53.7066 42.3401 52.6893 41.5563 51.3934C40.6153 49.8375 39.9675 49.3385 39.7613 49.0852C39.3834 48.621 38.7098 47.3824 38.7098 48.2198C38.7098 49.0572 38.4478 49.492 38.094 49.492C37.7402 49.492 37.408 49.4976 38.094 50.739C38.78 51.9803 39.0059 53.1476 38.3902 53.1476C37.7744 53.1476 35.8953 50.858 35.091 51.1079C34.2867 51.3577 35.183 52.773 34.7434 53.0525C34.3038 53.332 34.3698 54.0317 33.9711 54.0317C33.5725 54.0317 33.134 53.6993 32.8442 54.0317C32.5543 54.3642 32.59 54.8619 32.0522 55.204C31.5143 55.5462 32.2163 55.4153 31.5143 56.1447C30.8124 56.8741 30.4463 56.2113 30.2497 56.8741C30.0531 57.5368 29.8563 57.3729 29.6561 58.4694C29.456 59.5659 28.1505 60.5886 29.1197 60.954C29.3033 61.0232 29.6598 59.8843 30.0271 59.8843C30.3943 59.8843 30.4816 61.5157 30.7345 61.7367C30.9598 61.9336 31.1174 62.6861 31.1174 62.6861H27.2152Z" fill="#009000"/>
<path fill-rule="evenodd" clip-rule="evenodd" d="M20.695 44.6927C20.4442 45.3328 21.1741 44.7067 21.8739 45.1143C22.5738 45.5218 23.0758 45.9923 23.4278 45.8349C23.7797 45.6775 23.8708 44.5397 23.1754 44.5397C22.48 44.5397 20.9458 44.0526 20.695 44.6927Z" fill="#009100"/>
<path fill-rule="evenodd" clip-rule="evenodd" d="M25.5672 38.3659C24.9641 38.8142 26.2312 39.3505 27.1116 39.3505C27.9921 39.3505 29.232 39.7144 29.232 38.9246C29.232 38.1347 26.1704 37.9176 25.5672 38.3659Z" fill="#00FF00"/>
<path fill-rule="evenodd" clip-rule="evenodd" d="M41.0526 43.37C41.5082 43.8307 42.1165 43.9927 42.5791 44.6485C43.0837 45.3638 43.2579 46.6274 43.7823 47.2519C44.5737 48.1946 44.9222 49.9765 44.9222 51.2293C44.9222 52.5918 45.8835 53.5087 46.7197 54.9483C47.2649 55.8868 47.7334 57.0268 47.9092 57.4233C48.3547 58.4279 48.8894 61.716 48.8894 62.6868C50.3936 62.6868 52.0913 62.6868 54.6229 62.6868C54.6229 59.2968 50.8435 53.9717 50.3865 52.9234C49.9295 51.8751 49.5492 51.5501 48.7618 51.8582C48.384 52.006 47.5751 50.2762 46.7197 48.6672C45.7923 46.9225 44.8236 45.268 44.6489 44.9052C44.3131 44.2078 43.5921 43.8278 43.2902 43.2051C42.9883 42.5824 43.4567 42.9216 42.9883 42.2243C42.52 41.527 42.3738 41.378 41.3967 40.7478C40.4197 40.1176 38.2754 39.0535 38.2754 39.259C38.2754 39.4645 40.0617 40.7753 39.9945 41.009C39.9273 41.2426 38.5147 40.5317 37.9358 40.5317C37.3569 40.5317 36.3572 39.541 35.7673 39.3509C35.1774 39.1607 34.4341 39.541 33.8866 39.3509C33.3391 39.1607 32.4699 38.3457 31.6457 38.2738C30.8214 38.2019 32.6277 40.2519 35.0312 42.2243C37.4347 44.1967 38.9376 44.7535 38.6065 43.8745C38.2754 42.9956 38.6065 42.4068 39.3534 42.4068C40.1003 42.4068 40.1003 42.4068 41.0526 43.37Z" fill="#07F901"/>
<path fill-rule="evenodd" clip-rule="evenodd" d="M30.0019 62.6865C30.0019 62.6865 29.8632 61.6783 29.0867 61.0885C28.3101 60.4987 29.3158 59.3706 29.6347 58.4022C29.9536 57.4337 29.6879 56.1579 30.3742 56.1579C31.0604 56.1579 31.218 55.734 31.4458 55.4967C31.6737 55.2594 31.8042 55.3267 32.1044 54.839C32.4045 54.3513 32.1844 53.8691 32.6643 53.6891C33.1442 53.5091 33.1442 53.8691 33.5856 53.6891C34.0269 53.5091 33.9759 52.7192 34.3419 52.5401C34.7079 52.361 34.108 51.0362 34.9344 50.8324C35.7607 50.6286 37.6529 53.1285 38.2503 52.7114C38.8477 52.2942 37.4588 50.0839 37.4588 49.3548C37.4588 48.6257 38.0802 49.3548 38.2503 49.0856C38.4204 48.8163 38.0802 46.7732 39.0801 47.6954C39.5778 48.1544 40.5738 49.2976 41.4058 50.7504C42.2455 52.2164 42.921 53.9914 43.3722 54.2775C44.2704 54.8471 44.8126 54.4861 45.7345 55.4967C46.1075 55.9055 46.9432 56.9945 47.5168 58.6319C47.8885 59.693 48.4472 62.6865 48.4472 62.6865H30.0019Z" fill="#FEFB00"/>
<mask id="mask2_5339_308" style="mask-type:alpha" maskUnits="userSpaceOnUse" x="28" y="47" width="21" height="16">
<path fill-rule="evenodd" clip-rule="evenodd" d="M30.0019 62.6865C30.0019 62.6865 29.8632 61.6783 29.0867 61.0885C28.3101 60.4987 29.3158 59.3706 29.6347 58.4022C29.9536 57.4337 29.6879 56.1579 30.3742 56.1579C31.0604 56.1579 31.218 55.734 31.4458 55.4967C31.6737 55.2594 31.8042 55.3267 32.1044 54.839C32.4045 54.3513 32.1844 53.8691 32.6643 53.6891C33.1442 53.5091 33.1442 53.8691 33.5856 53.6891C34.0269 53.5091 33.9759 52.7192 34.3419 52.5401C34.7079 52.361 34.108 51.0362 34.9344 50.8324C35.7607 50.6286 37.6529 53.1285 38.2503 52.7114C38.8477 52.2942 37.4588 50.0839 37.4588 49.3548C37.4588 48.6257 38.0802 49.3548 38.2503 49.0856C38.4204 48.8163 38.0802 46.7732 39.0801 47.6954C39.5778 48.1544 40.5738 49.2976 41.4058 50.7504C42.2455 52.2164 42.921 53.9914 43.3722 54.2775C44.2704 54.8471 44.8126 54.4861 45.7345 55.4967C46.1075 55.9055 46.9432 56.9945 47.5168 58.6319C47.8885 59.693 48.4472 62.6865 48.4472 62.6865H30.0019Z" fill="white"/>
</mask>
<g mask="url(#mask2_5339_308)">
<path fill-rule="evenodd" clip-rule="evenodd" d="M31.7058 62.6862C31.7058 62.6862 31.9336 61.1093 31.3447 60.7805C30.7558 60.4517 30.4697 59.0544 30.9072 58.5644C31.3447 58.0744 32.0478 58.1947 32.3815 57.8216C32.7152 57.4486 32.7247 57.7173 33.0877 57.5829C33.4507 57.4486 33.4793 56.029 34.0922 56.029C34.7051 56.029 34.6815 56.3441 35.0513 56.1866C35.4211 56.029 35.2727 55.7411 36.1716 56.029C37.0705 56.3169 38.7356 58.9539 39.4304 58.9539C40.1252 58.9539 39.4949 56.9502 40.0864 56.9502C40.6779 56.9502 41.4939 60.906 42.1054 60.7805C42.7169 60.6551 42.6378 56.5995 43.0026 56.1866C43.3675 55.7737 44.7063 56.7448 45.5083 56.9502C46.3104 57.1556 46.2071 56.029 46.2071 56.029C46.2071 56.029 47.1124 57.0112 47.5423 58.2731C47.9722 59.535 48.4444 62.6862 48.4444 62.6862H31.7058Z" fill="#E7C001"/>
<path fill-rule="evenodd" clip-rule="evenodd" d="M32.9524 60.3617C32.8653 59.6666 33.118 59.3001 33.6524 59.2131C34.1868 59.1261 34.8412 59.5612 34.8412 60.3617C34.8412 61.1622 34.5864 62.1783 34.1194 62.1783C33.6524 62.1783 33.0396 61.0568 32.9524 60.3617Z" fill="#FE9001"/>
<path fill-rule="evenodd" clip-rule="evenodd" d="M39.5117 62.6869C39.5117 62.6869 40.1204 61.6424 40.8167 61.7521C41.5129 61.8619 41.9119 62.6869 41.9119 62.6869H39.5117Z" fill="#FF9001"/>
<path fill-rule="evenodd" clip-rule="evenodd" d="M42.834 62.6858H46.2088C46.2088 62.6858 45.374 61.9915 45.1722 61.5256C44.9704 61.0596 44.9033 59.9796 44.1339 60.1517C43.3645 60.3238 42.834 62.6858 42.834 62.6858Z" fill="#FF9001"/>
</g>
<path fill-rule="evenodd" clip-rule="evenodd" d="M50.5171 59.7197C50.2793 59.7197 50.2793 60.1746 50.2793 60.5069C50.2793 60.8392 50.5032 62.1881 50.9774 62.0896C51.4517 61.9912 51.1025 60.9392 51.1025 60.5724C51.1025 60.2057 50.7549 59.7197 50.5171 59.7197Z" fill="#042FF0"/>
<path fill-rule="evenodd" clip-rule="evenodd" d="M47.1935 51.9342C46.4002 52.091 48.4916 58.9954 48.9392 60.0115C49.3869 61.0276 49.5955 60.4235 49.5955 59.7094C49.5955 58.9954 47.9868 51.7773 47.1935 51.9342Z" fill="#0430F5"/>
<path fill-rule="evenodd" clip-rule="evenodd" d="M56.467 59.9251C56.467 59.9251 55.8675 60.1336 55.1503 58.987C53.5219 56.3837 52.9056 53.7516 52.0938 52.6702C51.4373 51.7957 50.2984 50.1298 49.1541 48.7829C47.7801 47.1655 46.4127 45.9036 46.0546 45.6282C45.3983 45.1234 46.5741 44.6983 47.9011 46.2673C48.4372 46.9011 49.2606 47.7322 50.0623 48.6755C51.245 50.0672 52.4068 51.5663 52.743 51.9194C53.3072 52.512 58.5413 57.5942 58.5413 58.0851C58.5413 58.5761 56.467 59.9251 56.467 59.9251Z" fill="#0430F6"/>
<mask id="mask3_5339_308" style="mask-type:alpha" maskUnits="userSpaceOnUse" x="45" y="45" width="14" height="15">
<path fill-rule="evenodd" clip-rule="evenodd" d="M56.467 59.9251C56.467 59.9251 55.8675 60.1336 55.1503 58.987C53.5219 56.3837 52.9056 53.7516 52.0938 52.6702C51.4373 51.7957 50.2984 50.1298 49.1541 48.7829C47.7801 47.1655 46.4127 45.9036 46.0546 45.6282C45.3983 45.1234 46.5741 44.6983 47.9011 46.2673C48.4372 46.9011 49.2606 47.7322 50.0623 48.6755C51.245 50.0672 52.4068 51.5663 52.743 51.9194C53.3072 52.512 58.5413 57.5942 58.5413 58.0851C58.5413 58.5761 56.467 59.9251 56.467 59.9251Z" fill="white"/>
</mask>
<g mask="url(#mask3_5339_308)">
<path fill-rule="evenodd" clip-rule="evenodd" d="M52.6797 53.9765C52.6797 53.9765 55.0655 60.6904 56.109 60.134C57.1525 59.5777 59.0485 58.7739 58.6077 58.0856C58.167 57.3972 54.6821 53.5379 54.9384 53.9765C55.1946 54.4152 55.7548 55.1594 55.0655 55.438C54.3761 55.7165 52.6797 53.9765 52.6797 53.9765Z" fill="#00BDF9"/>
</g>
<path fill-rule="evenodd" clip-rule="evenodd" d="M55.401 57.2415C53.9652 57.4243 55.9498 59.779 56.5777 60.3467C57.2056 60.9145 58.5215 60.0628 58.5215 60.0628C58.5215 60.0628 56.8368 57.0586 55.401 57.2415Z" fill="#02EAED"/>
<path fill-rule="evenodd" clip-rule="evenodd" d="M25.1973 37.7962C24.6216 38.459 26.9536 38.4331 28.1398 38.2925C29.326 38.1519 30.2865 37.9268 31.3432 38.1695C32.3998 38.4122 33.9874 40.3226 34.7035 39.9175C35.4196 39.5124 35.8588 39.1785 36.3613 39.4912C36.8638 39.8039 38.6307 40.8052 39.049 40.8052C39.4673 40.8052 40.0556 39.7857 37.4632 38.9776C34.8707 38.1695 33.5702 37.5646 31.7005 37.5646C29.8308 37.5646 25.7731 37.1334 25.1973 37.7962Z" fill="#00AEF7"/>
<mask id="mask4_5339_308" style="mask-type:alpha" maskUnits="userSpaceOnUse" x="25" y="37" width="15" height="4">
<path fill-rule="evenodd" clip-rule="evenodd" d="M25.1973 37.7962C24.6216 38.459 26.9536 38.4331 28.1398 38.2925C29.326 38.1519 30.2865 37.9268 31.3432 38.1695C32.3998 38.4122 33.9874 40.3226 34.7035 39.9175C35.4196 39.5124 35.8588 39.1785 36.3613 39.4912C36.8638 39.8039 38.6307 40.8052 39.049 40.8052C39.4673 40.8052 40.0556 39.7857 37.4632 38.9776C34.8707 38.1695 33.5702 37.5646 31.7005 37.5646C29.8308 37.5646 25.7731 37.1334 25.1973 37.7962Z" fill="white"/>
</mask>
<g mask="url(#mask4_5339_308)">
<path fill-rule="evenodd" clip-rule="evenodd" d="M25.1073 38.0345C25.279 38.5201 27.1065 38.5015 27.4135 38.1486C27.7204 37.7957 27.6608 37.375 26.9459 37.375C26.231 37.375 24.9356 37.549 25.1073 38.0345Z" fill="#034FF8"/>
<path fill-rule="evenodd" clip-rule="evenodd" d="M32.8618 38.8818C32.8262 39.9745 34.8254 40.2449 35.1324 39.892C35.4393 39.5391 35.3797 39.1184 34.6648 39.1184C33.9499 39.1184 32.8974 37.789 32.8618 38.8818Z" fill="#034FF8"/>
<path fill-rule="evenodd" clip-rule="evenodd" d="M37.4902 39.491C39.4181 40.8647 39.7709 42.1432 40.2099 41.9679C41.1926 41.5754 39.6502 39.4344 39.0178 39.12C37.7667 38.498 36.1648 38.5467 37.4902 39.491Z" fill="#034FF8"/>
</g>
<path fill-rule="evenodd" clip-rule="evenodd" d="M22.4476 51.0737C22.566 50.2168 23.8356 51.0586 23.4408 52.9258C23.0459 54.793 23.2687 55.1977 22.7093 57.5964C22.15 59.995 22.2518 59.4855 21.7117 60.6904C21.1716 61.8953 21.8979 62.1635 22.4476 61.612C22.9973 61.0605 24.5242 60.4945 24.1855 61.17C23.8468 61.8456 23.7907 62.6865 23.0459 62.6865C22.3012 62.6865 16.6589 63.4706 11.0015 62.3281C9.35629 61.9959 6.58684 60.5595 5.28219 59.6096C4.85731 59.3002 4.0333 58.5618 3.61608 57.9046C3.54826 57.2116 3.67176 57.145 3.43286 56.4734C3.13076 55.6242 2.51463 54.7711 2.04925 54.2959C0.707409 52.9258 -0.0515186 52.1792 1.57282 53.2387C1.97357 53.5001 2.52969 53.7359 2.99199 54.2959C3.43524 54.8329 5.1172 56.0917 6.3368 56.7106C7.27282 57.1856 8.00115 57.1865 8.78687 57.5964C9.84321 58.1473 10.1465 58.6299 11.0015 58.7514C13.578 59.1176 15.8927 59.2973 17.0752 59.1879C18.2576 59.0786 19.5287 58.0257 20.1319 57.4012C20.7351 56.7766 21.6871 56.6665 22.0138 55.6344C22.1796 55.1107 22.3948 54.2388 22.4476 53.3222C22.4989 52.4322 22.3892 51.4958 22.4476 51.0737Z" fill="#01A0F6"/>
<mask id="mask5_5339_308" style="mask-type:alpha" maskUnits="userSpaceOnUse" x="0" y="50" width="25" height="13">
<path fill-rule="evenodd" clip-rule="evenodd" d="M22.4476 51.0737C22.566 50.2168 23.8356 51.0586 23.4408 52.9258C23.0459 54.793 23.2687 55.1977 22.7093 57.5964C22.15 59.995 22.2518 59.4855 21.7117 60.6904C21.1716 61.8953 21.8979 62.1635 22.4476 61.612C22.9973 61.0605 24.5242 60.4945 24.1855 61.17C23.8468 61.8456 23.7907 62.6865 23.0459 62.6865C22.3012 62.6865 16.6589 63.4706 11.0015 62.3281C9.35629 61.9959 6.58684 60.5595 5.28219 59.6096C4.85731 59.3002 4.0333 58.5618 3.61608 57.9046C3.54826 57.2116 3.67176 57.145 3.43286 56.4734C3.13076 55.6242 2.51463 54.7711 2.04925 54.2959C0.707409 52.9258 -0.0515186 52.1792 1.57282 53.2387C1.97357 53.5001 2.52969 53.7359 2.99199 54.2959C3.43524 54.8329 5.1172 56.0917 6.3368 56.7106C7.27282 57.1856 8.00115 57.1865 8.78687 57.5964C9.84321 58.1473 10.1465 58.6299 11.0015 58.7514C13.578 59.1176 15.8927 59.2973 17.0752 59.1879C18.2576 59.0786 19.5287 58.0257 20.1319 57.4012C20.7351 56.7766 21.6871 56.6665 22.0138 55.6344C22.1796 55.1107 22.3948 54.2388 22.4476 53.3222C22.4989 52.4322 22.3892 51.4958 22.4476 51.0737Z" fill="white"/>
</mask>
<g mask="url(#mask5_5339_308)">
<path fill-rule="evenodd" clip-rule="evenodd" d="M18.0587 58.9432C19.8349 57.7719 19.8349 57.075 21.3037 56.5063C22.8733 55.8986 21.759 49.2356 23.0251 50.4548C23.3188 50.7376 24.0094 52.8515 23.8821 54.9874C23.7988 56.3842 22.721 60.3745 22.721 60.3745L24.2552 60.5829L24.966 62.6881H20.7168C20.7168 62.6881 20.7168 61.7937 21.3037 61.7937C22.2899 61.7937 22.2977 59.899 22.5332 58.9432C23.0251 56.9468 21.6122 57.556 21.2969 58.3847C20.8507 59.5577 19.4343 59.1177 18.2307 60.1278C17.23 60.9674 17.1505 59.542 18.0587 58.9432Z" fill="#0000F6"/>
<path fill-rule="evenodd" clip-rule="evenodd" d="M12.3169 59.2219C11.7629 59.4008 11.2844 59.9945 12.3169 59.9945C13.3494 59.9945 14.7049 59.9315 15.1373 59.7768C15.5696 59.622 15.5696 59.3173 14.9615 59.2219C14.3534 59.1264 12.8709 59.043 12.3169 59.2219Z" fill="#0000F6"/>
<path fill-rule="evenodd" clip-rule="evenodd" d="M8.3089 61.7223C8.6845 61.526 9.64604 61.1242 10.8226 61.3737C11.9992 61.6232 13.1321 61.7171 13.5765 61.3737C14.0209 61.0302 15.1495 60.1099 15.7268 60.5196C16.3042 60.9293 15.9898 61.7223 16.6048 61.7223C17.2198 61.7223 17.9362 61.6103 18.215 61.8925C18.4937 62.1747 18.9002 61.6917 19.7224 61.3737C20.5445 61.0556 19.7224 62.6871 19.7224 62.6871H8.3089C8.3089 62.6871 7.93329 61.9185 8.3089 61.7223Z" fill="#00ECEC"/>
<path fill-rule="evenodd" clip-rule="evenodd" d="M5.85529 60.2454C6.39698 60.3606 7.2835 59.9479 7.04666 58.9213C6.80983 57.8947 4.54181 55.6411 4.00181 55.1359C3.46181 54.6307 0.662297 52.0264 0.662297 52.0264C0.662297 52.0264 0.0979717 52.7481 0.378061 53.3224C0.65815 53.8967 1.76954 54.1181 2.20269 54.707C2.63585 55.2959 3.8469 56.888 3.47443 58.168C3.10196 59.448 5.3136 60.1302 5.85529 60.2454Z" fill="#00ECEC"/>
</g>
<path fill-rule="evenodd" clip-rule="evenodd" d="M3.45172 40.2501C3.45172 40.2501 2.79309 43.1338 3.93604 46.6459C5.07899 50.1579 10.3407 56.9487 14.0163 56.9487C17.6919 56.9487 17.1669 52.6802 19.8607 51.4502C20.8979 51.227 20.9852 54.5764 21.1591 53.6873C21.333 52.7983 22.1779 50.7812 20.4677 49.1626C18.7575 47.544 18.0345 47.6002 16.8108 48.0306C15.9704 48.3262 15.7507 48.6954 14.8506 49.0005C13.9505 49.3055 13.067 48.2501 12.9816 47.7319C12.8026 46.6459 13.1777 45.5141 13.9178 44.639C14.6579 43.7638 16.467 42.0202 17.9738 41.5711C19.4805 41.1219 20.1272 40.0187 19.8607 39.4841C19.5942 38.9496 20.6869 38.7612 21.4957 38.3355C22.3044 37.9099 22.3385 37.7638 23.2605 37.3488C24.1825 36.9338 26.6607 36.592 28.6991 36.6953C30.7376 36.7986 31.8658 36.1124 33.0886 36.2493C34.3114 36.3861 35.3564 36.4774 37.4058 37.5152C39.4551 38.5531 41.1271 38.656 42.4062 39.6531C43.6854 40.6502 46.6878 42.6793 47.3621 43.6591C48.0364 44.639 50.7829 46.6356 52.0447 48.1273C53.3064 49.6191 55.9865 51.649 56.8621 53.6873C57.7376 55.7257 58.1548 57.1264 58.6812 56.7932C59.2075 56.46 58.8999 55.4236 58.3137 54.0198C57.7274 52.616 57.1744 51.4502 55.7313 49.5676C54.2883 47.6851 52.1029 44.3725 51.1755 43.6591C50.248 42.9458 50.3391 42.7422 49.8128 42.5752C49.2864 42.4083 48.8802 41.6803 48.1719 41.1302C47.8282 40.8633 47.188 40.4808 46.6525 40.0158C46.0841 39.5222 45.5284 39.0764 45.5284 38.9305C45.5284 38.6472 44.6701 37.7406 45.5284 38.3355C46.3868 38.9305 48.7765 40.4571 48.9322 40.0158C49.0878 39.5744 49.2237 39.3417 49.6978 39.6531C50.172 39.9645 51.5319 41.7246 52.0447 41.2575C52.5574 40.7904 52.5173 40.0217 53.0216 40.3475C53.5258 40.6732 54.8276 42.8505 55.7313 42.8505C56.6351 42.8505 57.752 43.507 59.0874 44.639C60.4228 45.7709 62.9524 47.0437 62.3593 46.2838C61.7661 45.5239 60.5092 43.8651 59.6501 43.2202C58.791 42.5752 57.7842 41.7253 56.8621 40.6892C55.9399 39.6531 55.4202 38.7284 54.2209 38.532C53.0216 38.3355 52.5382 38.1257 51.1755 37.1875C49.8128 36.2493 50.0368 36.9986 49.5727 36.847C49.1085 36.6953 48.5242 36.1027 47.8112 35.8709C47.5251 35.7779 46.7699 35.1468 45.9138 34.6362C44.6367 33.8745 43.1809 33.1356 43.0916 32.8751C42.9424 32.4398 43.669 32.0635 46.2823 33.2435C48.8956 34.4235 50.6112 35.4584 51.4747 35.2725C52.3383 35.0866 52.5475 35.0529 54.4483 35.6513C56.3492 36.2497 56.516 36.3451 57.1744 36.847C57.8328 37.3488 58.8105 38.5369 60.6224 38.9305C62.4342 39.3241 62.6826 39.7888 62.6826 39.7888V31.0054L61.2581 30.3059L45.1489 23.658L31.1114 27.8545L22.264 31.3299L13.8714 36.2493L10.2508 46.2838L7.57388 39.4841L11.3373 31.5752L22.3204 24.958L28.0668 21.749H23.5559L11.9916 22.4675L5.07899 31.5752L3.45172 40.2501Z" fill="#FFFF00"/>
<path fill-rule="evenodd" clip-rule="evenodd" d="M13.5296 25.5836C14.7605 24.9107 15.7665 24.6334 17.1668 24.1231C17.4858 24.0068 41.4809 19.7963 49.9183 21.2401C50.7059 21.3749 62.6857 31.8393 62.6857 31.8393L62.7334 34.8244C62.7334 34.8244 60.3915 33.4867 59.3071 33.0977C57.6604 32.507 56.7101 31.613 56.9607 32.1701C58.0568 34.6067 59.6058 35.3283 58.5073 35.5537C57.8858 35.6813 56.5365 34.3024 55.4599 33.6457C54.6338 33.1418 53.4986 32.7487 53.2753 33.215C53.0134 33.7618 52.0706 33.4969 50.7165 32.8335C49.9248 32.4457 49.3764 32.8551 48.821 32.9677C48.4263 33.0477 47.9206 32.79 47.8045 32.8335C47.2127 33.0555 47.9587 33.8679 47.3207 33.7115C47.029 33.64 46.3926 33.2406 45.5853 32.9677C44.2488 32.5159 43.2494 32.5159 43.4283 32.9677C43.8755 34.0967 38.8925 30.562 38.2884 30.4729C37.6844 30.3838 37.4712 30.8458 39.954 32.2787C42.4368 33.7115 44.417 33.9608 46.3658 35.8871C47.0866 36.5996 47.8045 37.6586 47.8045 37.8186C47.8045 38.2675 46.1302 37.924 44.6463 36.7938C43.4454 35.8791 41.8794 33.9844 40.3647 33.215C39.014 32.5289 37.4703 32.2344 36.3391 32.0534C35.3338 31.8924 34.6592 31.7811 34.6592 32.1701C34.6592 32.7081 36.0359 32.9787 36.9214 33.358C37.6535 33.6716 38.2032 34.1037 37.8831 34.2513C37.1124 34.6064 35.9225 34.1763 34.6592 33.8157C33.3215 33.4339 31.9219 33.112 31.6039 33.215C30.8694 33.4529 30.3064 33.6889 30.0224 33.6457C29.2378 33.5264 29.2378 33.6457 28.8873 33.6457C27.9046 33.6457 29.0752 34.4892 30.0224 34.6721C31.6153 34.9796 30.5291 35.8071 30.8248 36.1951C31.356 36.892 24.2793 36.273 23.0586 37.3698C22.6772 37.7125 22.2724 37.9036 21.483 38.4015C20.6937 38.8995 19.7314 38.8656 19.8939 39.4911C20.0564 40.1166 19.6106 38.9592 18.7237 39.3792C16.4189 40.4708 16.3665 42.0028 17.5981 41.6568C18.282 41.4648 16.4902 42.2191 15.2918 43.2652C14.2674 44.1594 13.1969 45.4939 12.939 46.0816C12.3793 47.3571 12.8136 49.3004 13.2241 49.0203C13.6347 48.7402 14.0195 50.6925 14.9768 51.2021C15.9342 51.7118 16.2315 51.1576 15.7665 50.4297C15.3015 49.7018 15.6699 48.7714 16.1506 48.4358C16.6314 48.1002 18.1796 47.3743 19.4311 48.1804C20.6826 48.9865 21.5283 49.8912 21.5283 51.7724C21.5283 53.6536 21.6175 54.5697 20.494 55.9067C19.3706 57.2436 18.8536 57.3349 17.983 57.7554C16.8883 58.2841 14.4954 58.1506 15.323 57.5506C16.1506 56.9506 13.5296 55.1358 13.5296 55.1358L10.3682 54.0057C10.3682 54.0057 10.8695 53.61 10.1839 52.6597C9.49833 51.7094 8.03876 49.7709 7.0441 49.2341C6.04944 48.6973 5.24202 48.6973 5.24202 49.2341C5.24202 49.7709 3.94992 47.3286 3.94992 47.3286L2.99219 43.5217L3.94992 40.6974C3.94992 40.6974 4.17199 39.9262 4.62708 39.5924C5.08218 39.2585 5.63552 38.1247 5.63552 37.3698C5.63552 36.6149 6.60717 35.7643 6.60717 35.064C6.60717 34.3637 6.95409 33.2166 7.57168 31.5681C8.18927 29.9196 8.43626 30.0445 9.31009 28.9504C10.1839 27.8564 12.2987 26.2564 13.5296 25.5836Z" fill="#EABF01"/>
<path fill-rule="evenodd" clip-rule="evenodd" d="M19.7343 24.4477C19.7343 23.857 17.0347 24.4455 15.9254 24.958C14.8161 25.4705 13.8914 26.2514 12.9583 26.607C12.0251 26.9625 10.979 27.9043 10.0573 28.9486C9.13565 29.9928 8.38426 30.6056 8.14779 32.1409C7.91133 33.6762 7.48807 34.967 7.04593 35.7405C6.60378 36.5141 5.34172 38.5132 5.084 39.5755C4.82628 40.6379 4.33849 44.3613 4.86038 45.5366C5.38226 46.712 5.27071 45.8248 5.89598 45.8248C6.52125 45.8248 7.84107 48.2353 8.14779 49.058C8.45451 49.8808 8.98693 50.975 10.9015 52.5153C11.2253 52.7757 12.1331 53.7213 14.1278 53.9446C16.1225 54.1678 18.0877 53.1257 18.3799 51.7142C18.6722 50.3028 18.9466 50.3028 19.5268 50.7635C20.1069 51.2241 20.9989 49.9324 20.1843 49.058C19.6578 48.4929 19.233 48.1511 18.4716 48.0607C17.714 47.9707 16.6609 48.2804 16.1363 48.6954C14.3665 50.0958 16.9238 51.4584 15.6957 51.4584C14.4675 51.4584 14.0966 50.2569 13.1392 49.5005C12.1818 48.744 11.1567 48.6898 13.6655 43.8725C14.47 42.3278 14.0667 42.0676 16.0135 40.6718C16.5837 40.263 18.4815 39.3405 19.4329 38.0718C19.7141 37.6969 20.9759 37.7 22.1121 36.9948C23.2482 36.2897 24.07 36.5253 25.8145 36.2738C27.5591 36.0222 29.212 35.7239 29.212 35.2406C29.212 34.7572 27.5591 34.0838 26.2149 34.3039C24.3303 34.6125 22.3209 35.0004 20.9989 35.2406C19.6769 35.4807 21.6983 34.0047 21.7882 33.9589C23.75 32.9596 24.1806 33.1432 25.7214 32.7283C27.2621 32.3133 32.9721 31.7449 32.9721 31.0068C32.9721 29.7961 35.9124 30.9762 35.9124 30.0292C35.9124 29.0821 37.7228 29.289 40.2394 30.0292C43.0986 30.8701 45.8022 33.2643 46.5006 31.0068C46.674 30.4464 46.3239 29.4077 46.6688 29.107C46.9255 28.8832 47.9766 29.4327 47.7307 28.9486C47.3344 28.1685 48.4877 28.1685 50.5996 28.8047C52.4062 29.349 56.3435 31.0625 58.9604 31.8579C59.53 32.031 58.9604 31.1217 60.1171 31.5752C61.8937 32.2715 68.3446 35.6218 65.7802 33.1564C63.5164 30.9799 49.8474 21.6645 49.5204 21.6428C44.0341 21.2783 19.7343 24.4712 19.7343 24.4477Z" fill="#FF8F00"/>
<ellipse cx="17.9843" cy="49.2341" rx="0.687429" ry="0.5368" fill="#FF2600"/>
<path fill-rule="evenodd" clip-rule="evenodd" d="M62.6895 32.18C62.6895 30.0715 62.6895 26.4484 62.6895 26.4484L57.4527 22.2856L59.093 20.4075L57.011 17.7593L61.6507 13.6915V10.1419L53.0619 9.44678L43.5423 10.1419L39.4575 11.8298L31.1184 13.6915L26.5972 17.7593L22.2709 23.134C22.2709 23.134 20.5748 23.5488 19.0499 24.2542C17.525 24.9597 13.8027 26.2495 12.4698 27.8156C11.1369 29.3817 9.73006 30.0397 9.33112 31.3432C8.93218 32.6466 9.13758 33.1021 8.45645 34.3713C7.77531 35.6404 6.05401 37.9686 5.63928 39.6214C5.22456 41.2742 4.89009 42.8033 5.21903 43.5416C5.54796 44.28 6.49668 44.1211 7.04786 45.5446C7.59904 46.9682 7.9483 49.4977 10.2091 51.4994C12.4698 53.501 12.9219 53.689 14.7991 53.689C16.6764 53.689 18.1775 52.656 18.3633 51.6218C18.5492 50.5876 17.2993 49.6761 17.2993 50.1368C17.2993 50.5975 17.4263 51.2977 16.0121 51.4994C14.5979 51.7011 14.8712 51.1481 14.3444 50.9716C13.8176 50.7951 13.5349 50.2144 13.4287 50.6773C13.3224 51.1401 12.8859 50.4469 12.3204 49.7773C11.7549 49.1077 11.6551 48.3134 11.866 47.157C12.0769 46.0006 13.0975 44.2029 13.7209 42.6322C14.3444 41.0614 17.3138 40.0365 18.0134 39.1745C18.7129 38.3125 19.0261 37.9375 19.9995 37.438C20.9728 36.9386 21.6847 36.3123 22.5264 36.3123C22.9091 36.3123 23.6902 36.0232 24.4673 35.9077C25.3992 35.7692 26.3283 35.7861 26.5972 35.5852C27.0904 35.2169 26.8769 34.8165 26.1151 34.8165C25.3533 34.8165 19.2279 35.9978 18.1992 36.538C17.1705 37.0781 16.526 37.438 16.3263 36.7394C16.1266 36.0408 18.2963 35.2618 19.0499 34.8165C19.8036 34.3713 22.7494 32.9642 23.8898 32.5886C25.0302 32.2131 30.84 31.6131 31.6818 30.9801C32.5236 30.3472 31.6818 29.8182 32.6806 29.6017C33.6794 29.3851 35.2891 29.6017 36.6603 29.6017C38.0315 29.6017 43.8111 31.5234 44.6501 31.1603C45.489 30.7973 43.7442 29.8225 43.5423 29.0838C43.3403 28.3451 43.3403 28.1748 43.8186 27.9952C44.2969 27.8156 45.4164 28.0753 46.1319 27.8156C46.8474 27.5559 47.7339 28.1071 48.4265 27.5973C49.1191 27.0875 50.296 27.4551 51.4199 27.8156C52.5439 28.1761 55.9728 30.2272 57.4527 30.4753C58.9326 30.7235 61.2806 31.3432 62.6895 32.18Z" fill="#FF2500"/>
<path fill-rule="evenodd" clip-rule="evenodd" d="M17.7858 51.6719C18.2375 51.8651 18.0262 52.481 17.2284 52.8924C16.4306 53.3039 14.2927 53.6066 13.0671 52.8924C11.8416 52.1782 11.326 50.5776 11.0067 51.2018C10.6875 51.826 9.52777 50.2699 9.13886 49.3962C8.74995 48.5225 7.7869 46.7062 8.21831 44.0162C8.64971 41.3263 10.3249 39.1922 11.0067 38.0536C11.6886 36.9151 12.6663 35.9204 13.4491 34.4075C14.232 32.8945 17.2588 32.398 18.7089 31.8705C20.159 31.343 21.6822 31.4934 21.8332 30.7404C21.9841 29.9874 21.4459 29.4505 22.3287 28.5293C23.2114 27.6081 23.8152 27.2353 23.8152 26.6455C23.8152 26.0557 23.6111 25.4699 24.1908 24.9595C24.7704 24.4492 26.501 24.266 26.921 23.6594C27.341 23.0529 26.1097 21.4835 26.921 20.8133C27.7324 20.1431 28.9611 20.6113 29.94 19.6296C30.9188 18.648 31.5127 19.2498 31.9129 18.6207C32.3131 17.9915 32.4124 17.4045 33.3286 16.5593C34.2447 15.7141 38.7376 15.4592 40.7109 14.7272C41.4985 14.435 43.2918 14.706 45.121 14.9046C47.8751 15.2037 49.794 15.4967 50.3891 16.9022C51.4521 19.4133 46.5527 17.7306 44.2423 17.5531C41.9318 17.3757 40.6795 17.0311 40.9042 17.9975C41.1289 18.9639 43.4569 19.1595 44.6513 18.8332C45.8457 18.5069 47.6732 18.9012 48.2032 19.8379C48.7333 20.7746 47.6504 21.7505 48.5871 23.1544C49.5238 24.5583 52.8044 25.7044 55.3195 26.0763C57.8346 26.4482 62.6908 28.5293 62.6908 28.5293L62.7384 30.4671C62.7384 30.4671 56.21 28.8987 54.4208 28.2455C52.6316 27.5924 50.0885 26.4482 48.2032 26.4482C46.318 26.4482 44.8944 27.5291 43.4435 27.0873C41.9926 26.6455 41.2905 26.9938 41.4601 27.7901C41.6298 28.5864 42.7278 29.2913 42.3951 29.8243C42.0624 30.3573 38.5115 28.8165 36.7948 28.9501C36.1489 29.0003 35.4699 28.5333 34.7121 28.5293C33.4561 28.5226 32.0942 28.9501 31.1196 28.9501C29.5573 28.9501 28.5267 29.372 28.5267 29.7416C28.5267 30.1112 29.1016 30.1939 29.5208 30.4671C29.94 30.7404 28.3485 31.5442 27.6229 31.5442C26.8972 31.5442 25.0361 31.7256 23.0548 32.3537C21.0735 32.9817 17.6934 34.5422 16.3517 35.5498C15.0099 36.5573 15.0159 37.1226 15.2372 37.4508C15.4585 37.779 17.2044 36.995 18.3012 36.995C19.398 36.995 19.0026 37.2096 17.9441 38.0536C16.8856 38.8977 16.7049 39.7943 15.9015 40.1509C15.0981 40.5075 13.6719 41.9494 13.6719 42.2605C13.6719 42.5716 13.0045 43.0304 12.4532 44.1686C11.9019 45.3068 11.8531 45.6391 11.6703 47.0153C11.4875 48.3916 11.187 48.8134 11.9405 50.1872C12.694 51.5611 13.9334 52.2664 14.2128 52.4299C14.4922 52.5934 13.6719 50.9885 14.4778 51.6719C15.2837 52.3554 17.3341 51.4788 17.7858 51.6719Z" fill="#D60000"/>
<path fill-rule="evenodd" clip-rule="evenodd" d="M39.7787 26.4489C40.0888 26.1036 40.4244 26.0385 41.523 26.0385C42.6216 26.0385 44.0306 26.1383 43.7565 25.7426C43.4823 25.3469 41.7283 25.056 40.3142 24.277C38.9002 23.4981 37.201 23.3798 36.4625 24.4499C35.724 25.52 34.6484 25.1498 32.9976 25.1498C31.3467 25.1498 33.7654 26.7017 35.1359 27.088C36.5064 27.4743 39.352 28.3231 39.7787 28.1445C40.2053 27.9658 39.4686 26.7942 39.7787 26.4489Z" fill="#BF0000"/>
<path fill-rule="evenodd" clip-rule="evenodd" d="M24.1977 26.6711C23.7909 26.9797 24.9874 27.8071 24.5874 27.9508C24.1874 28.0944 23.2473 29.1309 23.6938 29.4308C24.1402 29.7307 25.2667 29.2477 26.3415 29.1141C27.4163 28.9806 28.5923 28.5074 29.1002 27.7817C29.6081 27.0559 28.5923 26.0591 27.0811 26.0591C25.5699 26.0591 24.6045 26.3625 24.1977 26.6711Z" fill="#BF0000"/>
<path fill-rule="evenodd" clip-rule="evenodd" d="M15.446 39.8886C14.4182 40.294 14.357 40.7443 13.5807 41.2786C12.8043 41.8129 11.7619 42.1298 11.7619 43.002C11.7619 43.8741 10.6775 45.6635 10.6775 46.3881C10.6775 47.1127 9.99914 45.7392 9.85761 46.2374C9.71607 46.7355 9.85761 47.503 9.85761 47.8114C9.85761 48.1198 9.42707 47.8984 9.13475 47.0001C8.84244 46.1017 8.88091 44.9802 9.13475 44.3096C9.3886 43.639 9.57454 43.9797 9.71607 44.1447C9.85761 44.3096 10.6775 43.7849 10.6775 43.002C10.6775 42.219 11.892 40.8541 12.7012 40.294C13.5103 39.7339 13.6912 39.1001 14.8461 39.1001C16.0011 39.1001 16.4739 39.4832 15.446 39.8886Z" fill="#C00000"/>
<path fill-rule="evenodd" clip-rule="evenodd" d="M14.311 27.7896C14.2062 27.9905 15.4427 27.7018 15.9278 27.383C16.413 27.0643 17.0397 26.4482 16.413 26.4482C15.7862 26.4482 14.4157 27.5886 14.311 27.7896Z" fill="#BF0000"/>
<path fill-rule="evenodd" clip-rule="evenodd" d="M34.2448 21.3419C34.14 21.5424 34.703 21.6424 35.8764 21.6424C37.0497 21.6424 37.5968 21.213 36.9379 20.9226C36.2791 20.6323 34.3496 21.1414 34.2448 21.3419Z" fill="#F40000"/>
<path fill-rule="evenodd" clip-rule="evenodd" d="M24.6295 23.0666C22.2703 23.665 20.8208 22.897 20.4096 22.3018C19.9984 21.7066 21.4015 20.5303 21.4015 20.5303L27.0886 15.327L31.9617 11.8351L39.0705 9.79331L45.5198 6.85941L48.6801 4.37938L52.6924 5.12933L57.4827 3.3667L62.9431 4.75043C62.9431 4.75043 62.9431 24.4548 62.9653 26.4537C62.4916 26.4537 61.2069 25.5714 60.6908 25.3156C60.389 25.1661 59.2416 24.7479 58.1739 24.4548C57.4157 24.2467 56.5011 24.202 56.2057 23.972C55.4943 23.4182 55.5345 23.2325 56.2057 22.7177C56.877 22.203 55.7978 21.4769 56.6403 21.0036C57.4827 20.5303 58.1739 20.7602 57.9555 19.7729C57.7371 18.7855 55.7822 18.9935 55.2386 17.7401C54.695 16.4866 56.6403 16.6212 56.6403 15.8735C56.6403 15.1258 59.9353 14.9102 60.4798 14.1964C61.0242 13.4825 61.3637 11.8709 60.0699 11.2919C58.7761 10.7129 58.3568 11.1998 57.2616 10.9743C56.1663 10.7488 56.0922 10.1947 55.2386 10.5665C54.385 10.9383 51.2311 12.5743 49.6932 12.5743C48.1554 12.5743 47.4976 10.5736 46.7558 10.3053C46.0139 10.037 45.0266 10.1947 44.1448 10.5665C43.263 10.9383 41.8952 11.7026 40.7542 12.2646C39.6132 12.8265 36.9318 13.6969 34.4467 13.6969C31.9617 13.6969 31.2281 13.9667 30.5991 14.4408C29.9701 14.9149 30.2425 15.0594 29.579 15.6626C28.9155 16.2658 28.1648 16.4832 27.9265 17.3372C27.6881 18.1913 27.9213 18.5181 27.0886 19.019C26.2559 19.5199 25.1395 19.7644 24.7913 20.7602C24.4431 21.7561 26.9887 22.4681 24.6295 23.0666Z" fill="#FF9001"/>
<path fill-rule="evenodd" clip-rule="evenodd" d="M13.5321 23.8822C13.5321 23.8822 13.9594 24.5946 14.9906 24.5946C16.0219 24.5946 19.9743 23.1395 20.3662 22.1319C20.7581 21.1244 22.3055 21.248 22.5272 20.4424C22.7488 19.6367 25.0058 19.3327 25.3818 18.4039C25.7577 17.475 25.3818 17.2593 26.4452 16.5448C27.5086 15.8304 29.8055 14.1869 30.1875 13.697C30.5695 13.2071 31.6104 12.7146 33.5766 12.0311C35.5428 11.3476 36.9621 10.9019 38.2389 10.9019C39.5158 10.9019 40.2454 10.8406 41.5111 10.3342C42.7769 9.82789 44.3149 8.41726 44.9586 7.95446C45.6023 7.49166 46.5798 5.8925 47.8627 5.8925C49.1456 5.8925 49.7208 7.24109 51.0394 7.24109C52.358 7.24109 53.1841 5.17325 54.6592 5.17325C56.1342 5.17325 55.5232 7.56213 57.4031 7.95446C59.283 8.34679 62.9457 5.42416 62.9457 5.42416V0.00537109H48.6827L43.1054 3.92351L38.2389 7.95446L32.9702 9.43907L27.4397 11.8353L22.5272 13.4118L19.0053 13.9885L11.9591 19.2503L5.99098 21.2326L4.19922 23.3259L5.74666 26.7583L10.1373 27.0699L13.5321 23.8822Z" fill="#FFFF00"/>
<mask id="mask6_5339_308" style="mask-type:alpha" maskUnits="userSpaceOnUse" x="4" y="0" width="59" height="28">
<path fill-rule="evenodd" clip-rule="evenodd" d="M13.5321 23.8822C13.5321 23.8822 13.9594 24.5946 14.9906 24.5946C16.0219 24.5946 19.9743 23.1395 20.3662 22.1319C20.7581 21.1244 22.3055 21.248 22.5272 20.4424C22.7488 19.6367 25.0058 19.3327 25.3818 18.4039C25.7577 17.475 25.3818 17.2593 26.4452 16.5448C27.5086 15.8304 29.8055 14.1869 30.1875 13.697C30.5695 13.2071 31.6104 12.7146 33.5766 12.0311C35.5428 11.3476 36.9621 10.9019 38.2389 10.9019C39.5158 10.9019 40.2454 10.8406 41.5111 10.3342C42.7769 9.82789 44.3149 8.41726 44.9586 7.95446C45.6023 7.49166 46.5798 5.8925 47.8627 5.8925C49.1456 5.8925 49.7208 7.24109 51.0394 7.24109C52.358 7.24109 53.1841 5.17325 54.6592 5.17325C56.1342 5.17325 55.5232 7.56213 57.4031 7.95446C59.283 8.34679 62.9457 5.42416 62.9457 5.42416V0.00537109H48.6827L43.1054 3.92351L38.2389 7.95446L32.9702 9.43907L27.4397 11.8353L22.5272 13.4118L19.0053 13.9885L11.9591 19.2503L5.99098 21.2326L4.19922 23.3259L5.74666 26.7583L10.1373 27.0699L13.5321 23.8822Z" fill="white"/>
</mask>
<g mask="url(#mask6_5339_308)">
<path fill-rule="evenodd" clip-rule="evenodd" d="M16.0585 23.4278C16.248 24.0843 18.3728 23.7799 19.3912 22.843C20.4096 21.9061 22.2808 21.4962 22.5425 21.0922C22.8042 20.6881 23.4734 20.5411 24.0955 20.2745C24.7175 20.0078 25.6057 19.4154 26.0332 18.8814C26.4607 18.3473 25.9636 17.8927 26.5755 17.3294C27.1875 16.7662 29.4304 15.0658 30.0549 14.4266C30.6794 13.7874 30.3317 13.4763 31.9824 12.9635C33.6332 12.4506 35.3536 11.46 36.5416 11.1947C37.7296 10.9294 39.2664 11.2297 40.5633 10.937C41.8603 10.6443 42.8081 9.90408 43.4221 9.37657C44.036 8.84905 44.0329 8.98312 44.3987 8.73873C44.7645 8.49434 45.6391 7.77346 45.8797 7.22873C46.1203 6.68401 47.0157 6.44656 47.7101 6.44656C48.4045 6.44656 49.7826 7.03214 50.3481 7.42474C50.9137 7.81734 52.7938 6.66244 52.8153 6.62631C53.4001 5.64166 54.195 5.82908 54.9646 6.04732C55.7623 6.27358 56.4517 8.45178 57.9634 8.56461C59.4751 8.67743 63.1858 5.85144 63.1858 5.85144L65.8221 -1.87085C65.8221 -1.87085 51.9615 0.128873 50.7038 0.913821C49.4461 1.69877 48.4239 3.66111 47.4287 4.11778C45.52 4.9936 43.9241 6.20192 43.4221 6.85656C41.2986 9.62551 40.5529 9.25691 39.6716 9.21105C37.4457 9.09522 36.9106 9.59648 34.7706 10.4789C32.6306 11.3613 31.2798 10.9057 30.3335 11.5557C29.7795 11.9363 29.1074 13.251 28.2655 14.068C27.6694 14.6464 27.0582 14.6163 26.0332 15.4206C23.5605 17.3608 21.263 18.0125 20.7167 18.7605C20.2491 19.4007 20.1866 19.9781 20.1177 20.2745C19.8317 21.5056 18.5797 21.5247 18.3173 22.1589C18.0549 22.7932 15.869 22.7713 16.0585 23.4278Z" fill="#E6BF00"/>
<path fill-rule="evenodd" clip-rule="evenodd" d="M12.8365 20.8677C12.5939 21.0441 12.6589 21.1528 12.185 21.8447C11.7111 22.5366 11.3213 22.9966 11.875 23.1257C12.4288 23.2549 13.2174 22.453 13.8921 21.945C14.5667 21.437 15.4202 20.9421 15.7059 20.4154C15.9915 19.8887 16.7663 19.9641 16.6622 19.6884C16.5582 19.4127 16.4524 19.1211 15.3317 19.4491C14.2111 19.7771 13.0791 20.6913 12.8365 20.8677Z" fill="#E6BF00"/>
</g>
<path fill-rule="evenodd" clip-rule="evenodd" d="M4.20683 43.8806C4.20683 43.8806 4.60057 41.3934 4.60057 40.3755C4.60057 38.2417 5.30846 37.417 5.51477 36.6161C5.77558 35.6036 5.83226 34.174 6.11107 33.7474C7.25688 31.9943 7.04363 30.1086 8.68348 28.8724C9.4902 28.2643 10.6212 27.4381 11.7117 26.7036C12.8378 25.945 14.3434 25.3157 13.9109 24.228C13.4784 23.1404 11.211 23.6053 9.96991 25.2982C9.52686 25.9025 8.51759 27.0939 8.12941 26.4548C7.75889 25.8447 6.46101 25.917 6.11107 25.4345C5.34052 24.3721 4.92239 23.8443 5.13146 22.6293C5.34052 21.4144 6.79927 20.6097 7.66276 21.2224C8.52624 21.8351 8.12941 22.1945 7.76903 22.8038C7.40864 23.4131 8.49219 23.1095 8.68348 22.6293C9.03959 21.7354 9.20554 22.5365 9.55407 21.9434C10.5037 20.3275 12.7161 19.5076 14.7439 17.8774C16.7717 16.2471 19.7474 14.0662 20.9182 14.3119C22.089 14.5576 21.5701 15.1887 22.3981 15.1887C23.226 15.1887 26.4379 13.8441 27.2128 13.1652C27.9877 12.4862 28.7931 11.3544 29.9727 10.8586C31.1524 10.3628 35.3749 9.31415 36.9446 8.85219C38.5143 8.39022 39.8759 7.88729 40.5906 6.96083C41.3053 6.03436 43.9362 4.41568 44.7759 3.96473C45.6157 3.51378 48.5734 1.0736 48.6786 0.285744C48.7837 -0.50211 44.5368 -0.33824 44.5368 -0.33824L42.7992 2.27837L37.762 5.04529L31.6008 8.60592L23.9112 11.1074L21.2576 11.8362L15.5501 14.6783C15.5501 14.6783 7.74803 18.7192 6.4182 19.8628C5.08838 21.0064 3.69762 22.9468 3.69762 22.9468L1.47758 28.6258L0.207031 34.4426L0.257525 43.1766L4.20683 43.8806Z" fill="#009000"/>
<path fill-rule="evenodd" clip-rule="evenodd" d="M44.6603 0.00537109C44.6603 0.00537109 45.267 1.01065 44.5721 1.65195C43.8772 2.29324 42.0497 3.1626 41.4008 3.96725C40.7519 4.77189 39.6683 5.00623 39.6683 5.54672C39.6683 6.08722 38.1114 7.48041 37.3848 7.73853C36.6581 7.99666 33.5271 8.43294 32.4015 9.00206C31.2759 9.57117 28.6343 10.9815 26.9677 11.5767C25.3012 12.1719 24.7642 12.453 23.8487 12.4853C22.9332 12.5176 22.6514 11.9215 21.677 12.2195C20.7026 12.5176 19.4214 13.2754 18.2603 13.9241C17.0992 14.5727 14.0831 15.7493 12.2535 17.2261C10.4239 18.7029 10.117 19.5045 9.26112 19.5045C8.40525 19.5045 8.40903 19.128 7.458 19.5045C6.50697 19.881 5.05098 21.3109 4.65852 22.0534C4.26606 22.7958 3.83294 23.943 3.26082 24.9652C2.6887 25.9875 1.11271 30.218 0.993074 32.0123C0.873441 33.8066 1.88451 34.4794 0.993074 35.588C0.101635 36.6967 0.151413 39.6157 0.685586 41.1678C1.21976 42.7198 1.5712 43.6649 1.98643 43.1924C2.40166 42.7198 2.19125 40.1862 2.72226 39.8812C3.25327 39.5763 3.57663 41.6058 4.27391 41.3542C4.97119 41.1026 4.13859 44.0783 4.27391 46.0157C4.40923 47.9531 6.51101 49.879 7.23202 50.5779C7.95302 51.2769 8.36161 52.0501 10.141 53.1651C11.9204 54.2801 14.7286 54.8825 16.6607 54.3206C18.5927 53.7588 18.9117 51.7024 19.8993 51.3901C20.887 51.0777 21.2473 52.1948 21.2473 53.3091C21.2473 54.4235 21.0086 55.0061 19.8993 56.1529C18.7901 57.2997 16.9947 58.1732 15.3557 58.1732C13.7167 58.1732 12.388 58.0013 10.141 57.2997C7.89401 56.598 6.65608 54.8944 5.77038 53.8702C4.88468 52.8461 4.36212 52.4886 3.75407 51.7024C3.31663 51.1369 2.40276 49.3652 1.57702 47.9483C1.25496 47.3956 0.588863 47.1471 0.505405 46.6701C0.492918 46.5988 0 46.0157 0 46.0157V35.2268V26.2398L6.54823 17.6022L12.8782 13.697L19.2378 10.7387L30.0962 5.54672L33.4011 0.00537109H44.6603Z" fill="#02C800"/>
<mask id="mask7_5339_308" style="mask-type:alpha" maskUnits="userSpaceOnUse" x="0" y="0" width="45" height="59">
<path fill-rule="evenodd" clip-rule="evenodd" d="M44.6603 0.00537109C44.6603 0.00537109 45.267 1.01065 44.5721 1.65195C43.8772 2.29324 42.0497 3.1626 41.4008 3.96725C40.7519 4.77189 39.6683 5.00623 39.6683 5.54672C39.6683 6.08722 38.1114 7.48041 37.3848 7.73853C36.6581 7.99666 33.5271 8.43294 32.4015 9.00206C31.2759 9.57117 28.6343 10.9815 26.9677 11.5767C25.3012 12.1719 24.7642 12.453 23.8487 12.4853C22.9332 12.5176 22.6514 11.9215 21.677 12.2195C20.7026 12.5176 19.4214 13.2754 18.2603 13.9241C17.0992 14.5727 14.0831 15.7493 12.2535 17.2261C10.4239 18.7029 10.117 19.5045 9.26112 19.5045C8.40525 19.5045 8.40903 19.128 7.458 19.5045C6.50697 19.881 5.05098 21.3109 4.65852 22.0534C4.26606 22.7958 3.83294 23.943 3.26082 24.9652C2.6887 25.9875 1.11271 30.218 0.993074 32.0123C0.873441 33.8066 1.88451 34.4794 0.993074 35.588C0.101635 36.6967 0.151413 39.6157 0.685586 41.1678C1.21976 42.7198 1.5712 43.6649 1.98643 43.1924C2.40166 42.7198 2.19125 40.1862 2.72226 39.8812C3.25327 39.5763 3.57663 41.6058 4.27391 41.3542C4.97119 41.1026 4.13859 44.0783 4.27391 46.0157C4.40923 47.9531 6.51101 49.879 7.23202 50.5779C7.95302 51.2769 8.36161 52.0501 10.141 53.1651C11.9204 54.2801 14.7286 54.8825 16.6607 54.3206C18.5927 53.7588 18.9117 51.7024 19.8993 51.3901C20.887 51.0777 21.2473 52.1948 21.2473 53.3091C21.2473 54.4235 21.0086 55.0061 19.8993 56.1529C18.7901 57.2997 16.9947 58.1732 15.3557 58.1732C13.7167 58.1732 12.388 58.0013 10.141 57.2997C7.89401 56.598 6.65608 54.8944 5.77038 53.8702C4.88468 52.8461 4.36212 52.4886 3.75407 51.7024C3.31663 51.1369 2.40276 49.3652 1.57702 47.9483C1.25496 47.3956 0.588863 47.1471 0.505405 46.6701C0.492918 46.5988 0 46.0157 0 46.0157V35.2268V26.2398L6.54823 17.6022L12.8782 13.697L19.2378 10.7387L30.0962 5.54672L33.4011 0.00537109H44.6603Z" fill="white"/>
</mask>
<g mask="url(#mask7_5339_308)">
<path fill-rule="evenodd" clip-rule="evenodd" d="M5.79587 50.3894C5.91484 50.991 6.34088 51.4611 6.97242 52.0943C7.60395 52.7275 8.68772 53.616 8.58137 53.0782C8.47501 52.5404 7.27136 50.7888 6.63525 50.3894C5.99914 49.99 5.67689 49.7878 5.79587 50.3894Z" fill="#009000"/>
<path fill-rule="evenodd" clip-rule="evenodd" d="M1.01657 45.8078C1.13554 46.4094 1.56158 46.8796 2.19312 47.5128C2.82466 48.1459 3.90842 49.0344 3.80207 48.4967C3.69572 47.9589 2.49206 46.2072 1.85595 45.8078C1.21984 45.4084 0.897596 45.2062 1.01657 45.8078Z" fill="#02F900"/>
</g>
<path fill-rule="evenodd" clip-rule="evenodd" d="M18.632 57.1594C16.68 58.1638 15.3918 57.8314 13.8322 57.8314C12.2725 57.8314 11.3907 57.6745 10.1689 57.3954C8.947 57.1162 7.82824 56.2354 6.68272 55.3269C5.5372 54.4184 5.5136 53.7336 4.58057 52.9423C3.64753 52.151 2.61097 50.4697 2.31073 49.8915C2.0105 49.3133 0 46.6722 0 46.4313C0 46.1904 0 44.2666 0 44.2666C0 44.2666 1.9396 46.9588 2.6156 47.5127C3.29159 48.0665 4.22924 48.9546 4.58057 49.7219C4.93189 50.4892 5.99522 52.1823 6.68272 52.6906C7.37022 53.1989 9.18126 53.9805 10.1689 54.3419C11.1565 54.7033 12.6656 55.7819 14.8355 55.3269C17.0054 54.8718 17.8853 53.8885 18.632 53.8885C19.3788 53.8885 20.5841 56.1549 18.632 57.1594Z" fill="#01A1F6"/>
<mask id="mask8_5339_308" style="mask-type:alpha" maskUnits="userSpaceOnUse" x="0" y="44" width="20" height="14">
<path fill-rule="evenodd" clip-rule="evenodd" d="M18.632 57.1594C16.68 58.1638 15.3918 57.8314 13.8322 57.8314C12.2725 57.8314 11.3907 57.6745 10.1689 57.3954C8.947 57.1162 7.82824 56.2354 6.68272 55.3269C5.5372 54.4184 5.5136 53.7336 4.58057 52.9423C3.64753 52.151 2.61097 50.4697 2.31073 49.8915C2.0105 49.3133 0 46.6722 0 46.4313C0 46.1904 0 44.2666 0 44.2666C0 44.2666 1.9396 46.9588 2.6156 47.5127C3.29159 48.0665 4.22924 48.9546 4.58057 49.7219C4.93189 50.4892 5.99522 52.1823 6.68272 52.6906C7.37022 53.1989 9.18126 53.9805 10.1689 54.3419C11.1565 54.7033 12.6656 55.7819 14.8355 55.3269C17.0054 54.8718 17.8853 53.8885 18.632 53.8885C19.3788 53.8885 20.5841 56.1549 18.632 57.1594Z" fill="white"/>
</mask>
<g mask="url(#mask8_5339_308)">
<path fill-rule="evenodd" clip-rule="evenodd" d="M18.7585 53.8519C19.3834 54.1899 19.3823 55.273 18.5428 55.8636C17.7034 56.4543 17.2539 56.7486 15.8209 56.921C14.3878 57.0935 12.2785 56.4825 10.8553 55.4829C9.43205 54.4832 8.93959 53.8587 9.6048 54.2176C10.27 54.5764 10.9564 55.2916 13.3969 55.4829C15.8373 55.6741 18.1337 53.5139 18.7585 53.8519Z" fill="#0000F6"/>
<path fill-rule="evenodd" clip-rule="evenodd" d="M6.24663 54.509C5.99411 54.0851 5.99411 53.3517 7.21027 53.8766C8.42642 54.4016 9.07398 55.9706 9.913 56.1957C10.752 56.4208 11.5399 57.3002 12.6767 57.3002C13.8135 57.3002 15.4521 57.6511 16.0669 57.6511C16.6818 57.6511 16.4848 58.0338 15.3807 58.0338C14.2767 58.0338 12.9687 57.8098 12.2057 57.8098C11.4428 57.8098 10.8879 57.6245 10.0431 57.3002C9.19825 56.9759 6.49915 54.933 6.24663 54.509Z" fill="#00EBEB"/>
</g>
<path fill-rule="evenodd" clip-rule="evenodd" d="M35.0968 0.00537109C35.0968 0.00537109 33.0609 1.11634 32.7187 2.63673C32.3766 4.15713 32.3766 5.64689 31.6015 6.24436C30.8265 6.84183 30.6442 6.73447 30.0985 7.18498C29.5529 7.63549 29.6965 8.02553 28.7686 8.62648C27.8408 9.22744 25.1555 10.2611 24.1113 10.4144C23.0672 10.5677 21.974 10.7276 21.1324 11.0977C20.2908 11.4679 17.2585 12.7187 16.5518 13.1285C15.8452 13.5382 12.6292 15.394 11.3922 16.2952C10.1553 17.1964 9.38927 16.893 8.71005 17.1964C8.03083 17.4997 6.24318 18.276 5.49014 19.6148C4.73711 20.9535 4.30028 21.4288 3.69835 22.2024C3.09642 22.9761 2.44927 23.5409 1.82555 24.7104C1.20183 25.8798 -0.000211567 27.3966 -0.000211567 27.3966L-0.0371094 25.2875C-0.0371094 25.2875 0.0461412 24.229 1.60533 22.2024C3.16452 20.1759 7.20172 15.085 8.40504 14.7056C9.60837 14.3262 12.0617 11.8449 12.749 11.24C13.4363 10.6352 15.5098 10.7544 16.5518 10.1241C17.5938 9.49384 20.7558 9.04809 21.641 7.84659C22.5262 6.6451 23.1532 5.46316 24.333 5.20075C25.5128 4.93834 27.9639 4.43274 28.7686 3.56871C29.5733 2.70469 30.2831 1.35284 29.6005 0.815395C28.918 0.277948 29.6005 0.00537109 29.6005 0.00537109H35.0968Z" fill="#00FF00"/>
<path fill-rule="evenodd" clip-rule="evenodd" d="M29.7243 0.00537109C29.7243 0.00537109 30.8437 0.555541 30.8437 1.43281C30.8437 2.31008 30.1663 3.23091 29.4148 3.69791C28.6633 4.16491 27.4743 5.41243 26.5801 5.41243C25.6859 5.41243 24.7279 5.46996 24.1492 6.14995C23.5705 6.82994 22.8615 8.38085 21.4743 8.86029C20.087 9.33973 18.1088 10.1567 17.5982 10.6635C17.0875 11.1703 15.706 12.1314 15.3258 11.5123C14.9457 10.8931 14.9128 10.9976 14.5247 10.9976C14.1365 10.9976 12.346 12.5301 11.6589 13.0437C10.9718 13.5573 9.58222 15.1319 8.86697 15.0375C8.15171 14.943 6.81577 16.3133 6.33196 16.8401C5.84815 17.3669 4.07464 19.4232 3.38847 20.3884C2.70229 21.3537 0 25.0893 0 25.0893V23.4904C0 23.4904 1.61757 21.2824 2.42489 20.096C3.23221 18.9097 4.09478 17.2756 6.08819 15.2528C8.0816 13.23 11.0505 10.7266 13.1453 9.07971C15.2401 7.43282 17.1892 6.97435 17.9025 5.69058C18.6158 4.40681 18.1241 3.9034 18.8353 3.09798C19.5466 2.29257 20.2174 2.76441 21.1555 2.0071C22.0936 1.24978 22.5265 0.00537109 22.5265 0.00537109L29.7243 0.00537109Z" fill="#0001F6"/>
<path fill-rule="evenodd" clip-rule="evenodd" d="M22.5265 0.00537109C22.5265 0.00537109 22.2013 2.06121 21.1615 2.59359C20.1218 3.12596 19.2809 2.66448 18.8586 3.39563C18.4364 4.12677 19.2073 5.07754 18.3503 6.00128C17.4933 6.92503 14.8487 8.35374 13.473 9.22011C12.0973 10.0865 7.63215 13.9827 6.34496 15.2367C5.05776 16.4907 0 23.7878 0 23.7878V22.5974C0 22.5974 3.87465 15.441 4.49309 14.9367C5.11154 14.4323 9.39422 9.91588 9.39422 9.91588C9.39422 9.91588 15.6834 5.85359 15.6834 4.34523C15.6834 2.83687 14.5489 1.64295 14.3025 1.24978C14.0562 0.856612 14.0887 0.00537109 14.0887 0.00537109L22.5265 0.00537109Z" fill="#01A0F6"/>
<path fill-rule="evenodd" clip-rule="evenodd" d="M0 21.4173C0 21.4173 2.89033 15.9829 4.18735 14.4535C5.48437 12.924 6.64515 12.0551 7.73161 10.6342C8.32337 9.86033 9.25235 8.77576 10.2988 7.85647C11.1737 7.08794 12.1805 6.46599 12.6664 5.94184C13.7336 4.79071 13.7347 5.08168 13.9161 4.273C14.0488 3.68136 13.47 3.41782 13.2075 2.8921C12.972 2.42043 13.2075 1.61574 13.2075 1.48579C13.2075 1.211 12.6664 0.00537109 12.6664 0.00537109L14.4225 0.00537109C14.4225 0.00537109 14.4736 1.00741 14.807 1.29465C15.1404 1.58189 15.9452 1.70109 16.3988 2.39644C16.8524 3.0918 16.2054 4.83413 15.6743 5.66361C15.1431 6.49309 13.9264 7.3491 13.2075 7.85647C12.4886 8.36383 11.4643 8.69297 10.8289 9.32938C10.1934 9.9658 9.50427 10.6256 8.58806 11.8329C7.67186 13.0402 5.11725 14.4965 4.36503 15.7658C3.61282 17.035 3.14765 18.0029 2.14784 19.554C1.14803 21.105 0 22.5974 0 22.5974V21.4173Z" fill="#00EBEB"/>
<path fill-rule="evenodd" clip-rule="evenodd" d="M2.87664 11.0949C2.00988 11.8353 0.615075 13.5529 0 15.0335C0 15.5184 0 16.8396 0 16.8396C0 16.8396 1.03226 14.813 1.66753 13.8887C2.3028 12.9645 3.04173 11.8159 3.46886 11.3727C3.89599 10.9295 3.74341 10.3544 2.87664 11.0949Z" fill="#00E8E8"/>
<path fill-rule="evenodd" clip-rule="evenodd" d="M1.78907 34.3856C1.78907 35.0251 1.30565 35.9456 1.78907 35.7098C2.27249 35.474 2.6322 34.9022 2.6322 34.0807C2.6322 33.2591 1.78907 33.746 1.78907 34.3856Z" fill="#9AD000"/>
<path fill-rule="evenodd" clip-rule="evenodd" d="M8.47537 38.3274C9.23539 38.6094 12.561 33.1238 14.0497 32.1736C15.5384 31.2235 17.1877 31.3345 17.7188 30.6322C18.2499 29.9299 22.5427 28.6352 20.2291 27.9612C19.2028 27.6621 18.208 28.0592 17.3025 28.297C16.1668 28.5953 15.1946 28.8283 14.7418 29.2312C13.928 29.9555 13.2168 31.1963 11.6218 31.389C10.0268 31.5816 7.71535 38.0455 8.47537 38.3274Z" fill="#FF9001"/>
<path fill-rule="evenodd" clip-rule="evenodd" d="M36.5865 3.12207C35.1977 3.12207 34.2319 5.35677 33.4603 5.6686C32.6888 5.98044 32.7827 6.82461 33.6866 6.82461C34.5906 6.82461 36.6451 6.08859 37.2945 5.09315C37.9439 4.09771 37.9754 3.12207 36.5865 3.12207Z" fill="#00FF00"/>
</g>
</g>
</g>
<defs>
<clipPath id="clip0_5339_308">
<rect width="62.6866" height="62.6866" rx="16.7164" fill="white"/>
</clipPath>
</defs>
</svg>
