<svg width="132" height="30" viewBox="0 0 132 30" fill="none" xmlns="http://www.w3.org/2000/svg">
<mask id="mask0_3594_188624" style="mask-type:alpha" maskUnits="userSpaceOnUse" x="0" y="0" width="30" height="30">
<rect width="30" height="30" rx="7" fill="white"/>
</mask>
<g mask="url(#mask0_3594_188624)">
<rect width="30" height="30" fill="black"/>
<mask id="mask1_3594_188624" style="mask-type:alpha" maskUnits="userSpaceOnUse" x="0" y="0" width="30" height="30">
<rect width="30" height="30" fill="white"/>
</mask>
<g mask="url(#mask1_3594_188624)">
<path fill-rule="evenodd" clip-rule="evenodd" d="M21.5402 18.0992L20.2297 14.5975C20.2297 14.5975 26.6657 14.452 28.3842 15.8399C30.1026 17.2277 30.0011 18.9289 30.0011 18.9289L30.0313 22.4941L30.0239 30.0659L23.1845 20.7157L20.9566 18.3161L21.5402 18.0992Z" fill="#009000"/>
<path fill-rule="evenodd" clip-rule="evenodd" d="M27.634 18.5754C27.634 19.0482 30.0308 21.5747 30.0308 21.5747V19.9325C30.0308 19.9325 27.634 18.1025 27.634 18.5754Z" fill="#00CD00"/>
<path fill-rule="evenodd" clip-rule="evenodd" d="M25.9165 20.8909C25.7803 20.8629 25.4894 21.229 26.0069 21.8604C26.5244 22.4918 27.1871 24.0795 27.4364 24.2884C27.6857 24.4973 28.4392 25.6272 28.7238 25.3455C29.0084 25.0637 28.3063 22.8818 27.9581 22.6001C27.6099 22.3183 27.0846 22.1442 26.845 21.8604C26.6054 21.5767 26.0527 20.9189 25.9165 20.8909Z" fill="#02C800"/>
<path fill-rule="evenodd" clip-rule="evenodd" d="M11.725 30.042L13.2349 30.0006L13.6489 28.8412C13.6489 28.8412 13.7963 28.0267 13.876 27.5211C13.9603 26.9857 13.7893 26.376 14.1928 25.6947C14.8974 24.5048 17.4614 21.9508 19.7892 22.6288C20.3977 22.806 20.1493 23.8681 20.5663 24.6549C20.8671 25.2225 21.0915 25.672 21.5193 26.203C21.5932 26.2948 22.2134 27.0137 22.5122 27.8886C22.8652 28.9225 22.976 29.215 22.976 30.0006C23.9196 30.0006 24.6019 30.0006 25.5942 30.0006C26.4384 30.0006 30.0239 30.0006 30.0239 30.0006C30.0239 30.0006 26.0676 23.5665 23.7303 20.9976C21.393 18.4287 18.2697 16.8888 17.5937 16.9425C16.56 17.0248 13.114 17.3787 13.114 17.3787H10.7802L9.30072 18.576L7.73078 19.9539L6.25712 20.9976C6.25712 20.9976 4.91103 22.7964 6.16555 23.4385C7.14435 23.9395 8.81695 23.1245 9.53004 23.4385C10.519 23.874 10.3455 25.4339 10.0257 26.321C9.46987 27.8632 6.67577 27.4945 5.12903 27.3956C4.9857 27.3864 5.61412 27.6223 5.52438 27.8381C5.47208 27.9638 5.07246 27.8639 4.65094 27.8886C4.59029 27.8922 4.86268 28.4199 4.86268 28.4199L11.725 30.042Z" fill="#00C800"/>
<path fill-rule="evenodd" clip-rule="evenodd" d="M11.3708 29.9999C11.8951 29.5042 11.7662 29.3769 11.7662 29.0446C11.7662 28.7124 11.6075 28.9925 10.9029 29.1631C10.1984 29.3337 11.833 28.1537 11.7662 27.2548C11.6995 26.356 12.0569 25.5666 12.1611 24.4548C12.2654 23.343 11.2066 23.2994 10.9029 22.944C10.5993 22.5887 10.3451 22.3474 9.63583 22.218C8.92653 22.0887 8.48289 22.1567 8.27832 22.3161C8.07375 22.4755 8.25713 22.6562 8.60731 22.7032C8.95748 22.7502 9.65742 23.08 9.80127 23.1805C9.94512 23.281 10.1477 23.4738 10.4033 23.9845C10.6589 24.4953 10.6417 25.9025 10.2224 26.4111C9.8031 26.9197 10.172 26.9968 9.54148 27.6029C8.91093 28.209 8.18948 28.4962 6.98784 28.4139C5.78621 28.3316 4.28302 27.8345 4.63952 28.0195C5.56921 28.5018 10.013 29.9999 11.3708 29.9999Z" fill="#00FF00"/>
<path fill-rule="evenodd" clip-rule="evenodd" d="M12.3137 30.0003C12.3137 30.0003 12.5198 29.0916 12.7286 29.0916C12.9375 29.0916 12.7286 30.0003 12.7286 30.0003H12.3137Z" fill="#00FF00"/>
<path fill-rule="evenodd" clip-rule="evenodd" d="M13.0244 30.0005C13.0244 30.0005 13.8288 28.0621 13.5141 26.8699C13.1994 25.6777 13.1393 25.5311 13.1393 24.7549C13.1393 23.9787 12.9751 23.5877 12.7155 23.1116C12.4558 22.6354 12.0908 22.6429 12.0908 22.03C12.0908 21.417 11.7322 21.05 11.2392 20.7163C10.7462 20.3825 9.8846 20.2597 9.41052 20.3211C8.93643 20.3825 8.15002 20.8361 7.72283 21.0726C7.29564 21.3091 6.90013 21.898 7.39025 21.7291C7.88038 21.5603 8.08197 21.9249 8.08197 22.4475C8.08197 22.9701 7.30203 23.3056 6.97011 23.231C6.63819 23.1564 6.32827 22.5708 6.49691 22.03C6.66555 21.4891 7.27221 20.739 7.73055 20.5529C8.18889 20.3668 9.5203 19.8907 10.1025 19.8907C10.6848 19.8907 11.4479 20.0634 11.5759 19.7022C11.7039 19.3409 11.1572 18.9291 10.6826 18.9291C10.208 18.9291 9.75317 19.2286 9.62426 19.0306C9.49535 18.8326 9.86503 18.6765 10.3079 18.5938C10.7508 18.5111 11.5451 18.7311 12.0908 18.9291C12.6366 19.1271 12.9256 19.2745 13.3586 19.2745C13.7916 19.2745 14.6695 19.2778 15.0818 19.49C15.4941 19.7022 16.5313 20.1083 16.761 20.5529C16.9906 20.9975 16.7221 21.17 16.9518 21.4281C17.1814 21.6862 17.4466 21.916 17.664 21.7291C17.8815 21.5422 17.8815 21.7291 18.0944 21.7291C18.3073 21.7291 18.7322 22.3 19.0286 22.3C19.325 22.3 19.2007 22.0761 19.5246 22.2255C19.8484 22.375 20.2766 22.8151 20.4099 23.1116C20.5433 23.4081 20.5101 24.6212 20.7472 24.84C20.9843 25.0588 21.8461 25.6946 21.9093 26.1496C21.9724 26.6046 21.2071 26.5172 20.7472 26.1496C20.1887 25.7031 20.2627 25.2163 19.8876 24.5961C19.4373 23.8515 19.1272 23.6126 19.0286 23.4915C18.8478 23.2693 18.5254 22.6765 18.5254 23.0773C18.5254 23.478 18.4 23.6861 18.2307 23.6861C18.0614 23.6861 17.9024 23.6888 18.2307 24.2829C18.559 24.877 18.6671 25.4356 18.3724 25.4356C18.0777 25.4356 17.1784 24.3399 16.7935 24.4594C16.4086 24.579 16.8376 25.2563 16.6272 25.3901C16.4168 25.5239 16.4484 25.8587 16.2576 25.8587C16.0668 25.8587 15.8569 25.6996 15.7182 25.8587C15.5795 26.0178 15.5966 26.256 15.3392 26.4198C15.0818 26.5835 15.4178 26.5208 15.0818 26.8699C14.7459 27.219 14.5707 26.9018 14.4766 27.219C14.3825 27.5362 14.2884 27.4577 14.1925 27.9824C14.0967 28.5072 13.472 28.9967 13.9358 29.1715C14.0237 29.2046 14.1943 28.6596 14.3701 28.6596C14.5458 28.6596 14.5876 29.4403 14.7086 29.5461C14.8164 29.6403 14.8919 30.0005 14.8919 30.0005H13.0244Z" fill="#009000"/>
<path fill-rule="evenodd" clip-rule="evenodd" d="M9.9033 21.3893C9.78326 21.6956 10.1326 21.396 10.4675 21.5911C10.8024 21.7861 11.0427 22.0113 11.2111 21.9359C11.3796 21.8606 11.4231 21.3161 11.0903 21.3161C10.7575 21.3161 10.0233 21.083 9.9033 21.3893Z" fill="#009100"/>
<path fill-rule="evenodd" clip-rule="evenodd" d="M12.2366 18.3609C11.9479 18.5754 12.5543 18.8321 12.9757 18.8321C13.397 18.8321 13.9904 19.0062 13.9904 18.6282C13.9904 18.2503 12.5252 18.1464 12.2366 18.3609Z" fill="#00FF00"/>
<path fill-rule="evenodd" clip-rule="evenodd" d="M19.6468 20.7559C19.8648 20.9764 20.156 21.0539 20.3774 21.3678C20.6188 21.7101 20.7022 22.3148 20.9531 22.6137C21.3319 23.0649 21.4987 23.9176 21.4987 24.5172C21.4987 25.1692 21.9587 25.608 22.3589 26.297C22.6198 26.7461 22.8441 27.2917 22.9282 27.4814C23.1414 27.9622 23.3973 29.5358 23.3973 30.0004C24.1171 30.0004 24.9296 30.0004 26.1412 30.0004C26.1412 28.378 24.3325 25.8296 24.1137 25.3279C23.895 24.8262 23.713 24.6707 23.3362 24.8181C23.1554 24.8889 22.7683 24.061 22.3589 23.291C21.9151 22.4561 21.4515 21.6643 21.3679 21.4906C21.2072 21.1569 20.8621 20.975 20.7177 20.677C20.5732 20.379 20.7973 20.5414 20.5732 20.2076C20.3491 19.8739 20.2791 19.8026 19.8115 19.501C19.3439 19.1994 18.3177 18.6902 18.3177 18.7885C18.3177 18.8869 19.1726 19.5142 19.1404 19.626C19.1083 19.7378 18.4322 19.3976 18.1552 19.3976C17.8782 19.3976 17.3997 18.9235 17.1174 18.8325C16.8351 18.7415 16.4794 18.9235 16.2174 18.8325C15.9554 18.7415 15.5394 18.3515 15.1449 18.317C14.7505 18.2826 15.6149 19.2637 16.7651 20.2076C17.9154 21.1516 18.6346 21.418 18.4762 20.9974C18.3177 20.5767 18.4762 20.295 18.8336 20.295C19.191 20.295 19.191 20.295 19.6468 20.7559Z" fill="#07F901"/>
<path fill-rule="evenodd" clip-rule="evenodd" d="M14.3573 30.0006C14.3573 30.0006 14.2909 29.5181 13.9192 29.2358C13.5476 28.9536 14.0289 28.4137 14.1815 27.9502C14.3341 27.4867 14.207 26.8762 14.5354 26.8762C14.8638 26.8762 14.9392 26.6733 15.0483 26.5597C15.1573 26.4462 15.2198 26.4784 15.3634 26.245C15.507 26.0116 15.4017 25.7808 15.6314 25.6947C15.8611 25.6085 15.8611 25.7808 16.0723 25.6947C16.2835 25.6085 16.2591 25.2305 16.4342 25.1448C16.6094 25.0591 16.3223 24.4251 16.7178 24.3275C17.1132 24.23 18.0188 25.4264 18.3047 25.2267C18.5906 25.0271 17.9259 23.9693 17.9259 23.6204C17.9259 23.2715 18.2233 23.6204 18.3047 23.4916C18.3861 23.3627 18.2233 22.3849 18.7018 22.8263C18.94 23.0459 19.4166 23.593 19.8148 24.2883C20.2167 24.9899 20.54 25.8394 20.7559 25.9763C21.1857 26.2488 21.4452 26.0761 21.8864 26.5597C22.0649 26.7554 22.4649 27.2765 22.7394 28.0601C22.9173 28.568 23.1847 30.0006 23.1847 30.0006H14.3573Z" fill="#FEFB00"/>
<mask id="mask2_3594_188624" style="mask-type:alpha" maskUnits="userSpaceOnUse" x="13" y="22" width="11" height="9">
<path fill-rule="evenodd" clip-rule="evenodd" d="M14.3573 30.0006C14.3573 30.0006 14.2909 29.5181 13.9192 29.2358C13.5476 28.9536 14.0289 28.4137 14.1815 27.9502C14.3341 27.4867 14.207 26.8762 14.5354 26.8762C14.8638 26.8762 14.9392 26.6733 15.0483 26.5597C15.1573 26.4462 15.2198 26.4784 15.3634 26.245C15.507 26.0116 15.4017 25.7808 15.6314 25.6947C15.8611 25.6085 15.8611 25.7808 16.0723 25.6947C16.2835 25.6085 16.2591 25.2305 16.4342 25.1448C16.6094 25.0591 16.3223 24.4251 16.7178 24.3275C17.1132 24.23 18.0188 25.4264 18.3047 25.2267C18.5906 25.0271 17.9259 23.9693 17.9259 23.6204C17.9259 23.2715 18.2233 23.6204 18.3047 23.4916C18.3861 23.3627 18.2233 22.3849 18.7018 22.8263C18.94 23.0459 19.4166 23.593 19.8148 24.2883C20.2167 24.9899 20.54 25.8394 20.7559 25.9763C21.1857 26.2488 21.4452 26.0761 21.8864 26.5597C22.0649 26.7554 22.4649 27.2765 22.7394 28.0601C22.9173 28.568 23.1847 30.0006 23.1847 30.0006H14.3573Z" fill="white"/>
</mask>
<g mask="url(#mask2_3594_188624)">
<path fill-rule="evenodd" clip-rule="evenodd" d="M15.1733 30.0003C15.1733 30.0003 15.2823 29.2456 15.0005 29.0883C14.7187 28.931 14.5817 28.2622 14.7911 28.0277C15.0005 27.7932 15.337 27.8508 15.4967 27.6723C15.6563 27.4937 15.6609 27.6223 15.8346 27.558C16.0083 27.4937 16.022 26.8144 16.3153 26.8144C16.6086 26.8144 16.5974 26.9652 16.7744 26.8898C16.9513 26.8144 16.8803 26.6766 17.3105 26.8144C17.7407 26.9522 18.5376 28.2141 18.8701 28.2141C19.2026 28.2141 18.9009 27.2552 19.184 27.2552C19.4671 27.2552 19.8576 29.1483 20.1502 29.0883C20.4429 29.0283 20.405 27.0874 20.5796 26.8898C20.7542 26.6922 21.3949 27.1569 21.7788 27.2552C22.1626 27.3535 22.1132 26.8144 22.1132 26.8144C22.1132 26.8144 22.5465 27.2844 22.7522 27.8883C22.9579 28.4922 23.1839 30.0003 23.1839 30.0003H15.1733Z" fill="#E7C001"/>
<path fill-rule="evenodd" clip-rule="evenodd" d="M15.77 28.8877C15.7283 28.555 15.8493 28.3797 16.105 28.338C16.3608 28.2964 16.6739 28.5046 16.6739 28.8877C16.6739 29.2708 16.552 29.7571 16.3285 29.7571C16.105 29.7571 15.8118 29.2203 15.77 28.8877Z" fill="#FE9001"/>
<path fill-rule="evenodd" clip-rule="evenodd" d="M18.9094 30C18.9094 30 19.2007 29.5001 19.5339 29.5526C19.8671 29.6051 20.0581 30 20.0581 30H18.9094Z" fill="#FF9001"/>
<path fill-rule="evenodd" clip-rule="evenodd" d="M20.4983 30.0006H22.1134C22.1134 30.0006 21.7139 29.6683 21.6173 29.4453C21.5207 29.2224 21.4886 28.7055 21.1204 28.7879C20.7522 28.8702 20.4983 30.0006 20.4983 30.0006Z" fill="#FF9001"/>
</g>
<path fill-rule="evenodd" clip-rule="evenodd" d="M24.1765 28.5801C24.0627 28.5801 24.0627 28.7977 24.0627 28.9568C24.0627 29.1158 24.1699 29.7614 24.3969 29.7142C24.6238 29.6671 24.4567 29.1637 24.4567 28.9882C24.4567 28.8126 24.2903 28.5801 24.1765 28.5801Z" fill="#042FF0"/>
<path fill-rule="evenodd" clip-rule="evenodd" d="M22.5873 24.8547C22.2077 24.9298 23.2085 28.234 23.4228 28.7203C23.637 29.2066 23.7369 28.9175 23.7369 28.5757C23.7369 28.234 22.967 24.7797 22.5873 24.8547Z" fill="#0430F5"/>
<path fill-rule="evenodd" clip-rule="evenodd" d="M27.0239 28.6785C27.0239 28.6785 26.737 28.7783 26.3938 28.2296C25.6145 26.9838 25.3196 25.7241 24.931 25.2066C24.6169 24.7881 24.0718 23.9908 23.5242 23.3462C22.8666 22.5722 22.2123 21.9683 22.0409 21.8365C21.7268 21.5949 22.2895 21.3914 22.9245 22.1423C23.1811 22.4457 23.5751 22.8434 23.9588 23.2948C24.5249 23.9608 25.0809 24.6782 25.2418 24.8473C25.5117 25.1309 28.0166 27.563 28.0166 27.798C28.0166 28.033 27.0239 28.6785 27.0239 28.6785Z" fill="#0430F6"/>
<mask id="mask3_3594_188624" style="mask-type:alpha" maskUnits="userSpaceOnUse" x="21" y="21" width="8" height="8">
<path fill-rule="evenodd" clip-rule="evenodd" d="M27.0239 28.6785C27.0239 28.6785 26.737 28.7783 26.3938 28.2296C25.6145 26.9838 25.3196 25.7241 24.931 25.2066C24.6169 24.7881 24.0718 23.9908 23.5242 23.3462C22.8666 22.5722 22.2123 21.9683 22.0409 21.8365C21.7268 21.5949 22.2895 21.3914 22.9245 22.1423C23.1811 22.4457 23.5751 22.8434 23.9588 23.2948C24.5249 23.9608 25.0809 24.6782 25.2418 24.8473C25.5117 25.1309 28.0166 27.563 28.0166 27.798C28.0166 28.033 27.0239 28.6785 27.0239 28.6785Z" fill="white"/>
</mask>
<g mask="url(#mask3_3594_188624)">
<path fill-rule="evenodd" clip-rule="evenodd" d="M25.2112 25.831C25.2112 25.831 26.3529 29.0441 26.8523 28.7778C27.3517 28.5116 28.2591 28.1269 28.0482 27.7975C27.8372 27.4681 26.1695 25.6211 26.2921 25.831C26.4147 26.041 26.6828 26.3971 26.3529 26.5304C26.023 26.6637 25.2112 25.831 25.2112 25.831Z" fill="#00BDF9"/>
</g>
<path fill-rule="evenodd" clip-rule="evenodd" d="M26.514 27.3947C25.8269 27.4822 26.7766 28.6091 27.0771 28.8808C27.3777 29.1525 28.0074 28.7449 28.0074 28.7449C28.0074 28.7449 27.2012 27.3072 26.514 27.3947Z" fill="#02EAED"/>
<path fill-rule="evenodd" clip-rule="evenodd" d="M12.0587 18.088C11.7831 18.4052 12.8991 18.3927 13.4668 18.3254C14.0345 18.2582 14.4942 18.1504 14.9999 18.2666C15.5056 18.3827 16.2653 19.297 16.608 19.1031C16.9507 18.9093 17.1609 18.7495 17.4014 18.8991C17.6419 19.0488 18.4875 19.5279 18.6877 19.5279C18.8879 19.5279 19.1694 19.0401 17.9287 18.6533C16.6881 18.2666 16.0657 17.9771 15.1709 17.9771C14.2761 17.9771 12.3342 17.7707 12.0587 18.088Z" fill="#00AEF7"/>
<mask id="mask4_3594_188624" style="mask-type:alpha" maskUnits="userSpaceOnUse" x="12" y="17" width="7" height="3">
<path fill-rule="evenodd" clip-rule="evenodd" d="M12.0587 18.088C11.7831 18.4052 12.8991 18.3927 13.4668 18.3254C14.0345 18.2582 14.4942 18.1504 14.9999 18.2666C15.5056 18.3827 16.2653 19.297 16.608 19.1031C16.9507 18.9093 17.1609 18.7495 17.4014 18.8991C17.6419 19.0488 18.4875 19.5279 18.6877 19.5279C18.8879 19.5279 19.1694 19.0401 17.9287 18.6533C16.6881 18.2666 16.0657 17.9771 15.1709 17.9771C14.2761 17.9771 12.3342 17.7707 12.0587 18.088Z" fill="white"/>
</mask>
<g mask="url(#mask4_3594_188624)">
<path fill-rule="evenodd" clip-rule="evenodd" d="M12.0157 18.2019C12.0979 18.4342 12.9725 18.4254 13.1194 18.2565C13.2663 18.0876 13.2377 17.8862 12.8956 17.8862C12.5535 17.8862 11.9335 17.9695 12.0157 18.2019Z" fill="#034FF8"/>
<path fill-rule="evenodd" clip-rule="evenodd" d="M15.7275 18.6079C15.7105 19.1309 16.6672 19.2603 16.8141 19.0914C16.9611 18.9225 16.9325 18.7212 16.5904 18.7212C16.2482 18.7212 15.7445 18.085 15.7275 18.6079Z" fill="#034FF8"/>
<path fill-rule="evenodd" clip-rule="evenodd" d="M17.9412 18.8996C18.8638 19.557 19.0327 20.1689 19.2428 20.085C19.7131 19.8971 18.9749 18.8725 18.6723 18.7221C18.0735 18.4244 17.3069 18.4477 17.9412 18.8996Z" fill="#034FF8"/>
</g>
<path fill-rule="evenodd" clip-rule="evenodd" d="M9.90263 24.7902C9.95644 24.4143 10.5333 24.7836 10.3539 25.6027C10.1745 26.4219 10.2757 26.5994 10.0216 27.6517C9.76742 28.7041 9.81367 28.4805 9.56828 29.0091C9.3229 29.5377 9.65286 29.6554 9.90263 29.4134C10.1524 29.1715 10.8461 28.9232 10.6923 29.2195C10.5384 29.5159 10.628 30 10.2896 30C9.95125 30 7.27256 30.2288 4.70211 29.7276C3.95462 29.5819 2.69633 28.9517 2.10356 28.535C1.91052 28.3992 1.53613 28.0753 1.34657 27.787C1.31575 27.4829 1.37187 27.4537 1.26332 27.1591C1.12607 26.7865 0.846128 26.4123 0.634682 26.2038C0.0250188 25.6027 -0.319799 24.7137 0.418217 25.1785C0.600296 25.2932 0.852969 25.9581 1.06301 26.2038C1.2644 26.4394 2.0286 26.9916 2.58272 27.2631C3.008 27.4715 3.33892 27.4719 3.69591 27.6517C4.17585 27.8935 4.31367 28.1052 4.70211 28.1585C5.87275 28.3191 6.92444 28.3979 7.46167 28.35C7.99891 28.302 8.57645 27.8401 8.8505 27.5661C9.12456 27.2921 9.55708 27.2438 9.70553 26.791C9.78086 26.5613 9.87863 26.1788 9.90263 25.7766C9.92593 25.3862 9.87612 24.9754 9.90263 24.7902Z" fill="#01A0F6"/>
<path fill-rule="evenodd" clip-rule="evenodd" d="M8.64077 28.2074C9.49084 27.6469 9.49084 27.3134 10.1938 27.0412C10.9449 26.7504 10.4117 23.5616 11.0176 24.1451C11.1581 24.2805 11.4886 25.2921 11.4277 26.3143C11.3878 26.9828 10.8721 28.8924 10.8721 28.8924L11.6062 28.9921L11.9464 29.9996H9.9129C9.9129 29.9996 9.9129 29.5716 10.1938 29.5716C10.6657 29.5716 10.6695 28.6648 10.7822 28.2074C11.0176 27.252 10.3414 27.5435 10.1905 27.9401C9.97695 28.5015 9.29912 28.2909 8.72308 28.7743C8.24421 29.1762 8.20617 28.494 8.64077 28.2074Z" fill="#0000F6"/>
<path fill-rule="evenodd" clip-rule="evenodd" d="M5.89348 28.3412C5.62833 28.427 5.39934 28.7119 5.89348 28.7119C6.38761 28.7119 7.03632 28.6816 7.24322 28.6074C7.45013 28.5332 7.45013 28.387 7.15911 28.3412C6.86809 28.2954 6.15862 28.2554 5.89348 28.3412Z" fill="#0000F6"/>
<path fill-rule="evenodd" clip-rule="evenodd" d="M3.9766 29.5377C4.15635 29.4438 4.61651 29.2515 5.17959 29.3709C5.74267 29.4903 6.28482 29.5353 6.4975 29.3709C6.71018 29.2065 7.25031 28.7661 7.52661 28.9622C7.8029 29.1583 7.65245 29.5377 7.94678 29.5377C8.24111 29.5377 8.58397 29.4842 8.71736 29.6192C8.85076 29.7543 9.04531 29.5231 9.43876 29.3709C9.83222 29.2187 9.43876 29.9995 9.43876 29.9995H3.9766C3.9766 29.9995 3.79684 29.6317 3.9766 29.5377Z" fill="#00ECEC"/>
<path fill-rule="evenodd" clip-rule="evenodd" d="M2.6326 28.9188C2.88862 28.9787 3.30761 28.764 3.19568 28.2299C3.08374 27.6958 2.01181 26.5234 1.75659 26.2606C1.50138 25.9977 0.178247 24.6428 0.178247 24.6428C0.178247 24.6428 -0.0884686 25.0183 0.0439093 25.3171C0.176287 25.6159 0.701559 25.731 0.906282 26.0374C1.111 26.3438 1.68338 27.1721 1.50734 27.838C1.3313 28.504 2.37658 28.8588 2.6326 28.9188Z" fill="#00ECEC"/>
<path fill-rule="evenodd" clip-rule="evenodd" d="M1.65405 19.2635C1.65405 19.2635 1.33885 20.6436 1.88583 22.3243C2.43282 24.0051 4.95094 27.255 6.70998 27.255C8.46902 27.255 8.21774 25.2122 9.50694 24.6236C10.0033 24.5168 10.0451 26.1197 10.1283 25.6942C10.2115 25.2687 10.6159 24.3034 9.79743 23.5288C8.97897 22.7542 8.63297 22.7811 8.04733 22.987C7.64511 23.1285 7.53999 23.3052 7.10923 23.4512C6.67847 23.5972 6.25567 23.0921 6.21479 22.8441C6.12911 22.3243 6.30864 21.7827 6.66283 21.3639C7.01701 20.9451 7.8828 20.1106 8.60388 19.8957C9.32496 19.6807 9.63448 19.1528 9.50694 18.8969C9.37939 18.6411 9.90232 18.551 10.2894 18.3473C10.6764 18.1435 10.6927 18.0736 11.134 17.875C11.5752 17.6764 12.7612 17.5129 13.7367 17.5623C14.7123 17.6117 15.2522 17.2833 15.8374 17.3488C16.4226 17.4143 16.9227 17.458 17.9035 17.9547C18.8842 18.4514 19.6844 18.5006 20.2966 18.9778C20.9087 19.455 22.3456 20.4261 22.6683 20.895C22.991 21.3639 24.3054 22.3194 24.9093 23.0333C25.5131 23.7472 26.7957 24.7187 27.2147 25.6942C27.6337 26.6697 27.8334 27.34 28.0853 27.1806C28.3372 27.0211 28.19 26.5251 27.9094 25.8533C27.6289 25.1815 27.3642 24.6236 26.6736 23.7226C25.983 22.8217 24.9371 21.2364 24.4933 20.895C24.0494 20.5536 24.093 20.4561 23.8411 20.3762C23.5892 20.2964 23.3948 19.948 23.0558 19.6847C22.8914 19.557 22.585 19.3739 22.3287 19.1514C22.0567 18.9152 21.7908 18.7018 21.7908 18.632C21.7908 18.4964 21.38 18.0625 21.7908 18.3473C22.2016 18.632 23.3452 19.3626 23.4197 19.1514C23.4942 18.9402 23.5592 18.8288 23.7861 18.9778C24.013 19.1268 24.6639 19.9691 24.9093 19.7456C25.1546 19.5221 25.1354 19.1542 25.3768 19.3101C25.6181 19.466 26.2411 20.508 26.6736 20.508C27.1061 20.508 27.6406 20.8222 28.2797 21.3639C28.9188 21.9056 30.1294 22.5147 29.8455 22.1511C29.5617 21.7874 28.9601 20.9936 28.549 20.6849C28.1379 20.3762 27.656 19.9695 27.2147 19.4737C26.7734 18.9778 26.5247 18.5353 25.9507 18.4413C25.3768 18.3473 25.1454 18.2468 24.4933 17.7978C23.8411 17.3488 23.9483 17.7074 23.7262 17.6349C23.5041 17.5623 23.2245 17.2787 22.8832 17.1678C22.7463 17.1232 22.3849 16.8212 21.9752 16.5768C21.364 16.2123 20.6673 15.8587 20.6245 15.734C20.5532 15.5257 20.9009 15.3456 22.1516 15.9103C23.4022 16.4751 24.2232 16.9703 24.6365 16.8814C25.0498 16.7924 25.1499 16.7763 26.0596 17.0626C26.9693 17.349 27.0491 17.3947 27.3642 17.6349C27.6793 17.875 28.1472 18.4436 29.0143 18.632C29.8814 18.8204 30.0002 19.0427 30.0002 19.0427V14.8393L29.3185 14.5045L21.6091 11.323L14.8912 13.3313L10.6571 14.9946L6.64062 17.3488L4.90789 22.1511L3.6268 18.8969L5.42786 15.1119L10.6841 11.9452L13.4341 10.4094H11.2753L5.74097 10.7533L2.43282 15.1119L1.65405 19.2635Z" fill="#FFFF00"/>
<path fill-rule="evenodd" clip-rule="evenodd" d="M6.47552 12.2433C7.0646 11.9213 7.54603 11.7886 8.21617 11.5443C8.36884 11.4887 19.8522 9.47367 23.8901 10.1646C24.267 10.2291 30.0002 15.2371 30.0002 15.2371L30.023 16.6657C30.023 16.6657 28.9023 16.0255 28.3833 15.8393C27.5952 15.5567 27.1405 15.1288 27.2604 15.3954C27.785 16.5615 28.5263 16.9068 28.0006 17.0147C27.7031 17.0758 27.0574 16.4159 26.5422 16.1016C26.1468 15.8604 25.6036 15.6723 25.4967 15.8955C25.3713 16.1571 24.9201 16.0304 24.2721 15.7129C23.8932 15.5273 23.6308 15.7232 23.365 15.7771C23.1761 15.8154 22.9341 15.6921 22.8785 15.7129C22.5953 15.8191 22.9523 16.2079 22.647 16.1331C22.5074 16.0988 22.2028 15.9077 21.8165 15.7771C21.1769 15.5609 20.6986 15.5609 20.7842 15.7771C20.9982 16.3174 18.6135 14.6258 18.3244 14.5832C18.0353 14.5405 17.9333 14.7616 19.1215 15.4474C20.3097 16.1331 21.2573 16.2524 22.19 17.1743C22.5349 17.5153 22.8785 18.022 22.8785 18.0986C22.8785 18.3134 22.0773 18.1491 21.3671 17.6082C20.7924 17.1704 20.0429 16.2637 19.318 15.8955C18.6716 15.5671 17.9329 15.4262 17.3915 15.3395C16.9104 15.2625 16.5875 15.2093 16.5875 15.3954C16.5875 15.6529 17.2464 15.7824 17.6702 15.9639C18.0205 16.114 18.2836 16.3208 18.1304 16.3914C17.7616 16.5614 17.1921 16.3555 16.5875 16.183C15.9474 16.0002 15.2776 15.8462 15.1254 15.8955C14.7739 16.0093 14.5044 16.1223 14.3685 16.1016C13.993 16.0445 13.993 16.1016 13.8253 16.1016C13.355 16.1016 13.9152 16.5053 14.3685 16.5928C15.1308 16.74 14.611 17.136 14.7525 17.3217C15.0067 17.6552 11.62 17.3589 11.0358 17.8838C10.8533 18.0478 10.6596 18.1393 10.2818 18.3776C9.90404 18.6159 9.44351 18.5997 9.52129 18.899C9.59906 19.1984 9.38573 18.6445 8.96125 18.8455C7.85824 19.3679 7.83318 20.101 8.42257 19.9355C8.74987 19.8436 7.8924 20.2046 7.31885 20.7052C6.82863 21.1331 6.31632 21.7718 6.19288 22.0531C5.92502 22.6635 6.13285 23.5935 6.32933 23.4594C6.5258 23.3254 6.70999 24.2597 7.16813 24.5036C7.62627 24.7475 7.76855 24.4823 7.54603 24.1339C7.32351 23.7856 7.49981 23.3403 7.72987 23.1797C7.95994 23.0191 8.7009 22.6717 9.29982 23.0575C9.89873 23.4432 10.3035 23.8762 10.3035 24.7765C10.3035 25.6768 10.3461 26.1152 9.8085 26.755C9.27084 27.3949 9.02342 27.4385 8.60677 27.6398C8.08288 27.8928 6.93773 27.8289 7.3338 27.5418C7.72987 27.2546 6.47552 26.3861 6.47552 26.3861L4.96258 25.8453C4.96258 25.8453 5.20247 25.6559 4.87437 25.2012C4.54627 24.7464 3.84776 23.8186 3.37175 23.5617C2.89573 23.3048 2.50932 23.3048 2.50932 23.5617C2.50932 23.8186 1.89096 22.6498 1.89096 22.6498L1.43262 20.8279L1.89096 19.4763C1.89096 19.4763 1.99724 19.1072 2.21503 18.9475C2.43283 18.7877 2.69764 18.2451 2.69764 17.8838C2.69764 17.5226 3.16265 17.1155 3.16265 16.7804C3.16265 16.4452 3.32867 15.8962 3.62423 15.1073C3.91979 14.3184 4.038 14.3782 4.45618 13.8546C4.87437 13.331 5.88643 12.5653 6.47552 12.2433Z" fill="#EABF01"/>
<path fill-rule="evenodd" clip-rule="evenodd" d="M9.44387 11.7012C9.44387 11.4185 8.15188 11.7001 7.62102 11.9454C7.09015 12.1907 6.64763 12.5644 6.20104 12.7346C5.75444 12.9047 5.25381 13.3554 4.81273 13.8552C4.37164 14.355 4.01205 14.6482 3.89888 15.3829C3.78572 16.1177 3.58316 16.7354 3.37156 17.1056C3.15996 17.4758 2.55598 18.4325 2.43264 18.9409C2.3093 19.4494 2.07586 21.2313 2.32562 21.7938C2.57538 22.3563 2.52199 21.9317 2.82123 21.9317C3.12046 21.9317 3.7521 23.0853 3.89888 23.479C4.04567 23.8728 4.30047 24.3964 5.21674 25.1335C5.37169 25.2582 5.80612 25.7107 6.76072 25.8176C7.71533 25.9244 8.65582 25.4257 8.79569 24.7502C8.93557 24.0747 9.0669 24.0747 9.34454 24.2952C9.62219 24.5156 10.0491 23.8975 9.65921 23.479C9.40725 23.2086 9.20395 23.045 8.83957 23.0017C8.47701 22.9587 7.973 23.1068 7.72197 23.3055C6.87498 23.9757 8.09885 24.6278 7.51107 24.6278C6.9233 24.6278 6.7458 24.0528 6.28763 23.6908C5.82946 23.3287 5.33884 23.3028 6.53948 20.9974C6.92449 20.2581 6.73149 20.1336 7.6632 19.4656C7.93605 19.27 8.84429 18.8285 9.29963 18.2213C9.43417 18.0419 10.0381 18.0434 10.5818 17.7059C11.1255 17.3685 11.5188 17.4812 12.3537 17.3608C13.1886 17.2404 13.9796 17.0977 13.9796 16.8664C13.9796 16.6351 13.1886 16.3128 12.5453 16.4181C11.6434 16.5658 10.6817 16.7514 10.0491 16.8664C9.4164 16.9813 10.3838 16.2749 10.4268 16.253C11.3657 15.7747 11.5717 15.8626 12.3091 15.664C13.0465 15.4655 15.7791 15.1934 15.7791 14.8402C15.7791 14.2608 17.1862 14.8256 17.1862 14.3723C17.1862 13.9191 18.0526 14.0181 19.257 14.3723C20.6253 14.7748 21.9192 15.9206 22.2534 14.8402C22.3364 14.572 22.1689 14.0749 22.3339 13.931C22.4568 13.8239 22.9598 14.0869 22.8421 13.8552C22.6525 13.4819 23.2044 13.4819 24.2151 13.7864C25.0797 14.0468 26.964 14.8668 28.2163 15.2475C28.489 15.3304 28.2163 14.8952 28.7699 15.1122C29.6201 15.4455 32.7074 17.0488 31.4801 15.8689C30.3967 14.8273 23.8551 10.3692 23.6987 10.3588C21.0731 10.1844 9.44387 11.7125 9.44387 11.7012Z" fill="#FF8F00"/>
<ellipse cx="8.60608" cy="23.5618" rx="0.328984" ry="0.256897" fill="#FF2600"/>
<path fill-rule="evenodd" clip-rule="evenodd" d="M30 15.4C30 14.3909 30 12.657 30 12.657L27.4939 10.6648L28.2788 9.76599L27.2825 8.49866L29.5029 6.55192V4.85319L25.3925 4.52051L20.8367 4.85319L18.8819 5.66093L14.891 6.55192L12.7273 8.49866L10.6569 11.0708C10.6569 11.0708 9.84515 11.2693 9.11538 11.6069C8.38562 11.9446 6.60421 12.5618 5.96633 13.3113C5.32845 14.0608 4.65516 14.3757 4.46424 14.9995C4.27332 15.6233 4.37162 15.8413 4.04565 16.4486C3.71967 17.056 2.89591 18.1702 2.69743 18.9612C2.49896 19.7522 2.33889 20.484 2.49631 20.8373C2.65373 21.1907 3.10776 21.1146 3.37154 21.7959C3.63532 22.4772 3.80246 23.6877 4.88439 24.6457C5.96633 25.6036 6.18267 25.6936 7.08107 25.6936C7.97947 25.6936 8.69787 25.1992 8.7868 24.7043C8.87574 24.2093 8.27758 23.7731 8.27758 23.9936C8.27758 24.2141 8.33838 24.5492 7.66157 24.6457C6.98475 24.7422 7.11556 24.4776 6.86344 24.3931C6.61132 24.3087 6.47607 24.0307 6.42521 24.2522C6.37436 24.4738 6.16545 24.142 5.89482 23.8215C5.6242 23.5011 5.57642 23.121 5.67735 22.5675C5.77828 22.0141 6.26672 21.1538 6.56508 20.4021C6.86344 19.6504 8.28453 19.1599 8.61932 18.7473C8.9541 18.3348 9.10397 18.1554 9.5698 17.9163C10.0356 17.6773 10.3763 17.3776 10.7791 17.3776C10.9623 17.3776 11.3361 17.2392 11.708 17.184C12.154 17.1177 12.5986 17.1257 12.7273 17.0296C12.9633 16.8534 12.8611 16.6617 12.4966 16.6617C12.132 16.6617 9.20054 17.2271 8.70825 17.4856C8.21596 17.7441 7.90748 17.9163 7.81191 17.582C7.71635 17.2477 8.75471 16.8748 9.11538 16.6617C9.47605 16.4486 10.8859 15.7753 11.4316 15.5955C11.9774 15.4158 14.7578 15.1287 15.1606 14.8258C15.5635 14.5228 15.1606 14.2697 15.6386 14.1661C16.1166 14.0624 16.887 14.1661 17.5432 14.1661C18.1994 14.1661 20.9654 15.0857 21.3669 14.912C21.7684 14.7383 20.9334 14.2718 20.8367 13.9182C20.74 13.5647 20.74 13.4832 20.969 13.3973C21.1979 13.3113 21.7336 13.4356 22.076 13.3113C22.4184 13.187 22.8427 13.4508 23.1742 13.2068C23.5056 12.9628 24.0688 13.1388 24.6067 13.3113C25.1446 13.4838 26.7856 14.4654 27.4939 14.5842C28.2021 14.7029 29.3258 14.9995 30 15.4Z" fill="#FF2500"/>
<path fill-rule="evenodd" clip-rule="evenodd" d="M8.51024 24.7282C8.72641 24.8206 8.62532 25.1154 8.2435 25.3123C7.86169 25.5092 6.83857 25.6541 6.25204 25.3123C5.66551 24.9705 5.41877 24.2045 5.26598 24.5032C5.11319 24.8019 4.5582 24.0572 4.37208 23.6391C4.18596 23.221 3.72507 22.3517 3.93153 21.0644C4.13798 19.777 4.93968 18.7558 5.26598 18.2109C5.59229 17.666 6.06019 17.19 6.43486 16.4659C6.80952 15.7419 8.25806 15.5043 8.95202 15.2518C9.64599 14.9993 10.375 15.0713 10.4472 14.7109C10.5194 14.3506 10.2619 14.0936 10.6843 13.6528C11.1068 13.2119 11.3958 13.0335 11.3958 12.7512C11.3958 12.469 11.2981 12.1886 11.5755 11.9444C11.8529 11.7002 12.6811 11.6125 12.8821 11.3222C13.0831 11.0319 12.4938 10.2809 12.8821 9.96012C13.2704 9.63939 13.8584 9.86345 14.3269 9.39366C14.7954 8.92387 15.0796 9.2119 15.2711 8.91079C15.4626 8.60968 15.5101 8.32875 15.9486 7.92426C16.387 7.51978 18.5372 7.39783 19.4816 7.04749C19.8585 6.90768 20.7167 7.03736 21.5921 7.13241C22.9101 7.27553 23.8285 7.41578 24.1132 8.08841C24.622 9.29011 22.2773 8.48483 21.1716 8.39991C20.0659 8.31498 19.4665 8.1501 19.5741 8.61257C19.6816 9.07504 20.7957 9.16865 21.3673 9.0125C21.9389 8.85635 22.8135 9.04505 23.0672 9.49333C23.3208 9.94161 22.8026 10.4086 23.2509 11.0805C23.6992 11.7524 25.2692 12.3009 26.4728 12.4788C27.6765 12.6568 30.0005 13.6528 30.0005 13.6528L30.0233 14.5802C30.0233 14.5802 26.899 13.8296 26.0427 13.517C25.1864 13.2044 23.9694 12.6568 23.0672 12.6568C22.165 12.6568 21.4836 13.1741 20.7893 12.9627C20.0949 12.7512 19.7589 12.918 19.8401 13.299C19.9213 13.6801 20.4468 14.0174 20.2876 14.2725C20.1283 14.5276 18.429 13.7902 17.6074 13.8542C17.2983 13.8782 16.9733 13.6547 16.6107 13.6528C16.0096 13.6496 15.3578 13.8542 14.8915 13.8542C14.1437 13.8542 13.6506 14.0561 13.6506 14.2329C13.6506 14.4098 13.9257 14.4494 14.1263 14.5802C14.3269 14.7109 13.5653 15.0956 13.218 15.0956C12.8707 15.0956 11.9801 15.1825 11.0319 15.483C10.0837 15.7836 8.46605 16.5304 7.82391 17.0126C7.18177 17.4948 7.18466 17.7653 7.29057 17.9224C7.39648 18.0794 8.23203 17.7042 8.75692 17.7042C9.2818 17.7042 9.09256 17.8069 8.58601 18.2109C8.07946 18.6148 7.99295 19.0439 7.60848 19.2145C7.22402 19.3852 6.54148 20.0753 6.54148 20.2241C6.54148 20.373 6.22208 20.5926 5.95822 21.1373C5.69437 21.682 5.67101 21.841 5.58354 22.4997C5.49607 23.1583 5.35224 23.3602 5.71285 24.0177C6.07347 24.6751 6.66663 25.0127 6.80033 25.0909C6.93403 25.1692 6.54148 24.4011 6.92716 24.7282C7.31284 25.0553 8.29406 24.6358 8.51024 24.7282Z" fill="#D60000"/>
<path fill-rule="evenodd" clip-rule="evenodd" d="M19.0353 12.6568C19.1837 12.4916 19.3444 12.4605 19.8701 12.4605C20.3959 12.4605 21.0702 12.5082 20.939 12.3188C20.8078 12.1294 19.9683 11.9902 19.2916 11.6175C18.6149 11.2447 17.8017 11.1881 17.4483 11.7002C17.0949 12.2123 16.5801 12.0351 15.7901 12.0351C15 12.0351 16.1576 12.7778 16.8135 12.9627C17.4693 13.1476 18.8312 13.5538 19.0353 13.4683C19.2395 13.3828 18.8869 12.8221 19.0353 12.6568Z" fill="#BF0000"/>
<path fill-rule="evenodd" clip-rule="evenodd" d="M11.5802 12.7633C11.3855 12.911 11.9581 13.307 11.7667 13.3758C11.5752 13.4445 11.1253 13.9405 11.339 14.0841C11.5527 14.2276 12.0917 13.9964 12.6061 13.9325C13.1205 13.8686 13.6833 13.6421 13.9264 13.2948C14.1694 12.9475 13.6833 12.4705 12.9601 12.4705C12.2369 12.4705 11.7749 12.6157 11.5802 12.7633Z" fill="#BF0000"/>
<path fill-rule="evenodd" clip-rule="evenodd" d="M7.39246 19.089C6.90055 19.283 6.8713 19.4986 6.49976 19.7542C6.12823 20.0099 5.62933 20.1616 5.62933 20.579C5.62933 20.9964 5.11037 21.8527 5.11037 22.1995C5.11037 22.5463 4.78574 21.889 4.718 22.1274C4.65027 22.3658 4.718 22.7331 4.718 22.8807C4.718 23.0282 4.51196 22.9223 4.37206 22.4924C4.23217 22.0624 4.25058 21.5257 4.37206 21.2048C4.49355 20.8839 4.58253 21.0469 4.65027 21.1259C4.718 21.2048 5.11037 20.9537 5.11037 20.579C5.11037 20.2043 5.69162 19.5511 6.07885 19.283C6.46609 19.015 6.55265 18.7117 7.10537 18.7117C7.65808 18.7117 7.88438 18.895 7.39246 19.089Z" fill="#C00000"/>
<path fill-rule="evenodd" clip-rule="evenodd" d="M6.84724 13.2989C6.79709 13.3951 7.38884 13.2569 7.62102 13.1044C7.8532 12.9518 8.15316 12.657 7.8532 12.657C7.55324 12.657 6.89739 13.2027 6.84724 13.2989Z" fill="#BF0000"/>
<path fill-rule="evenodd" clip-rule="evenodd" d="M16.389 10.2135C16.3388 10.3097 16.6083 10.3577 17.1698 10.3577C17.7313 10.3577 17.9931 10.1517 17.6778 10.0124C17.3625 9.87312 16.4391 10.1173 16.389 10.2135Z" fill="#F40000"/>
<path fill-rule="evenodd" clip-rule="evenodd" d="M11.7877 11.0391C10.6587 11.3255 9.965 10.958 9.76823 10.6731C9.57145 10.3883 10.2429 9.82533 10.2429 9.82533L12.9646 7.33519L15.2967 5.66408L18.6988 4.68692L21.7852 3.28284L23.2977 2.09597L25.2179 2.45487L27.5104 1.61133L30.1236 2.27354C30.1236 2.27354 30.1236 11.7035 30.1342 12.6601C29.9075 12.6601 29.2927 12.2379 29.0457 12.1155C28.9012 12.0439 28.3521 11.8437 27.8411 11.7035C27.4783 11.6039 27.0406 11.5825 26.8992 11.4725C26.5588 11.2074 26.578 11.1185 26.8992 10.8722C27.2205 10.6258 26.704 10.2784 27.1072 10.0518C27.5104 9.82533 27.8411 9.93538 27.7366 9.46285C27.6321 8.99031 26.6965 9.08987 26.4364 8.49001C26.1763 7.89014 27.1072 7.95456 27.1072 7.59673C27.1072 7.2389 28.6841 7.13573 28.9447 6.79409C29.2052 6.45246 29.3677 5.68118 28.7485 5.40408C28.1293 5.12699 27.9287 5.36002 27.4045 5.25211C26.8804 5.1442 26.8449 4.87904 26.4364 5.05697C26.0279 5.2349 24.5185 6.01782 23.7825 6.01782C23.0466 6.01782 22.7318 5.06036 22.3768 4.93195C22.0217 4.80354 21.5492 4.87904 21.1272 5.05697C20.7052 5.2349 20.0506 5.60066 19.5046 5.8696C18.9585 6.13854 17.6753 6.55507 16.486 6.55507C15.2967 6.55507 14.9456 6.68417 14.6446 6.91108C14.3436 7.13798 14.474 7.20713 14.1565 7.49581C13.8389 7.78449 13.4797 7.88851 13.3656 8.29722C13.2515 8.70594 13.3631 8.86238 12.9646 9.10209C12.5661 9.3418 12.0318 9.4588 11.8652 9.93538C11.6986 10.412 12.9168 10.7527 11.7877 11.0391Z" fill="#FF9001"/>
<path fill-rule="evenodd" clip-rule="evenodd" d="M6.47599 11.4297C6.47599 11.4297 6.68045 11.7706 7.17399 11.7706C7.66752 11.7706 9.55903 11.0743 9.74657 10.5921C9.93412 10.1099 10.6747 10.169 10.7807 9.78348C10.8868 9.39794 11.967 9.25242 12.1469 8.80792C12.3268 8.36341 12.1469 8.26015 12.6558 7.91825C13.1647 7.57635 14.2639 6.78982 14.4468 6.55536C14.6296 6.32089 15.1277 6.0852 16.0687 5.75809C17.0097 5.43099 17.6889 5.21768 18.3 5.21768C18.911 5.21768 19.2602 5.18835 19.8659 4.94603C20.4717 4.70371 21.2077 4.02862 21.5158 3.80714C21.8238 3.58565 22.2916 2.82034 22.9056 2.82034C23.5196 2.82034 23.7949 3.46574 24.4259 3.46574C25.0569 3.46574 25.4523 2.47613 26.1582 2.47613C26.8641 2.47613 26.5717 3.61938 27.4714 3.80714C28.371 3.9949 30.1239 2.59621 30.1239 2.59621V0.00292969H23.2981L20.6289 1.87804L18.3 3.80714L15.7785 4.51763L13.1318 5.66437L10.7807 6.41887L9.09528 6.69486L5.72318 9.21301L2.86701 10.1617L2.00952 11.1635L2.75008 12.8061L4.85132 12.9553L6.47599 11.4297Z" fill="#FFFF00"/>
<mask id="mask5_3594_188624" style="mask-type:alpha" maskUnits="userSpaceOnUse" x="2" y="0" width="29" height="13">
<path fill-rule="evenodd" clip-rule="evenodd" d="M6.47599 11.4297C6.47599 11.4297 6.68045 11.7706 7.17399 11.7706C7.66752 11.7706 9.55903 11.0743 9.74657 10.5921C9.93412 10.1099 10.6747 10.169 10.7807 9.78348C10.8868 9.39794 11.967 9.25242 12.1469 8.80792C12.3268 8.36341 12.1469 8.26015 12.6558 7.91825C13.1647 7.57635 14.2639 6.78982 14.4468 6.55536C14.6296 6.32089 15.1277 6.0852 16.0687 5.75809C17.0097 5.43099 17.6889 5.21768 18.3 5.21768C18.911 5.21768 19.2602 5.18835 19.8659 4.94603C20.4717 4.70371 21.2077 4.02862 21.5158 3.80714C21.8238 3.58565 22.2916 2.82034 22.9056 2.82034C23.5196 2.82034 23.7949 3.46574 24.4259 3.46574C25.0569 3.46574 25.4523 2.47613 26.1582 2.47613C26.8641 2.47613 26.5717 3.61938 27.4714 3.80714C28.371 3.9949 30.1239 2.59621 30.1239 2.59621V0.00292969H23.2981L20.6289 1.87804L18.3 3.80714L15.7785 4.51763L13.1318 5.66437L10.7807 6.41887L9.09528 6.69486L5.72318 9.21301L2.86701 10.1617L2.00952 11.1635L2.75008 12.8061L4.85132 12.9553L6.47599 11.4297Z" fill="white"/>
</mask>
<g mask="url(#mask5_3594_188624)">
<path fill-rule="evenodd" clip-rule="evenodd" d="M7.68428 11.2117C7.77498 11.5259 8.79183 11.3802 9.27922 10.9318C9.7666 10.4835 10.6621 10.2873 10.7873 10.0939C10.9126 9.90056 11.2328 9.83022 11.5305 9.70261C11.8282 9.575 12.2533 9.29148 12.4579 9.03591C12.6625 8.78034 12.4246 8.56275 12.7174 8.2932C13.0103 8.02365 14.0837 7.20988 14.3826 6.90399C14.6814 6.5981 14.515 6.4492 15.305 6.20377C16.095 5.95834 16.9184 5.48423 17.4869 5.35729C18.0554 5.23035 18.7909 5.37404 19.4116 5.23396C20.0323 5.09388 20.4859 4.73964 20.7797 4.48718C21.0735 4.23473 21.072 4.29889 21.2471 4.18193C21.4222 4.06497 21.8407 3.71998 21.9558 3.45929C22.071 3.1986 22.4995 3.08496 22.8318 3.08496C23.1641 3.08496 23.8236 3.36521 24.0943 3.55309C24.365 3.74098 25.2648 3.18828 25.275 3.17099C25.5549 2.69976 25.9353 2.78946 26.3036 2.8939C26.6854 3.00218 27.0153 4.04461 27.7388 4.0986C28.4622 4.1526 30.238 2.80016 30.238 2.80016L31.4997 -0.895508C31.4997 -0.895508 24.8664 0.0615022 24.2645 0.437156C23.6626 0.812809 23.1734 1.75193 22.6971 1.97048C21.7837 2.38962 21.0199 2.96789 20.7797 3.28118C19.7635 4.60632 19.4066 4.42992 18.9848 4.40797C17.9196 4.35254 17.6635 4.59243 16.6394 5.01473C15.6152 5.43703 14.9688 5.21896 14.5159 5.53005C14.2508 5.71218 13.9291 6.34136 13.5262 6.73235C13.2409 7.00918 12.9484 6.99478 12.4579 7.37968C11.2745 8.30822 10.175 8.6201 9.91356 8.97806C9.68979 9.28445 9.65985 9.56078 9.6269 9.70261C9.49002 10.2918 8.89085 10.3009 8.76527 10.6045C8.6397 10.908 7.59357 10.8975 7.68428 11.2117Z" fill="#E6BF00"/>
<path fill-rule="evenodd" clip-rule="evenodd" d="M6.14184 9.98701C6.02573 10.0714 6.05684 10.1235 5.83005 10.4546C5.60326 10.7857 5.41669 11.0058 5.6817 11.0676C5.94671 11.1294 6.32413 10.7457 6.64699 10.5026C6.96985 10.2594 7.37833 10.0226 7.51502 9.77055C7.65172 9.5185 8.02251 9.55459 7.97271 9.42265C7.92291 9.2907 7.87229 9.15113 7.33598 9.30809C6.79968 9.46506 6.25794 9.90261 6.14184 9.98701Z" fill="#E6BF00"/>
</g>
<path fill-rule="evenodd" clip-rule="evenodd" d="M2.01453 21.0006C2.01453 21.0006 2.20297 19.8103 2.20297 19.3231C2.20297 18.302 2.54174 17.9073 2.64047 17.524C2.76529 17.0394 2.79241 16.3553 2.92585 16.1511C3.4742 15.3121 3.37214 14.4097 4.15693 13.8181C4.543 13.527 5.08428 13.1317 5.60613 12.7802C6.14507 12.4171 6.86559 12.1159 6.6586 11.5954C6.45162 11.0749 5.36654 11.2974 4.77257 12.1076C4.56054 12.3968 4.07754 12.9669 3.89177 12.6611C3.71445 12.3691 3.09332 12.4037 2.92585 12.1728C2.55708 11.6644 2.35698 11.4118 2.45703 10.8303C2.55708 10.2489 3.2552 9.86379 3.66844 10.157C4.08168 10.4502 3.89177 10.6222 3.7193 10.9138C3.54683 11.2054 4.06538 11.0601 4.15693 10.8303C4.32735 10.4025 4.40677 10.7859 4.57357 10.502C5.02804 9.72871 6.08683 9.33634 7.05728 8.55616C8.02774 7.77598 9.45179 6.73224 10.0121 6.84984C10.5724 6.96744 10.3241 7.26943 10.7203 7.26943C11.1166 7.26943 12.6537 6.62598 13.0245 6.30104C13.3954 5.9761 13.7808 5.43444 14.3454 5.19718C14.9099 4.95992 16.9307 4.45806 17.6819 4.23697C18.4331 4.01589 19.0847 3.7752 19.4268 3.33182C19.7688 2.88844 21.0279 2.11379 21.4298 1.89798C21.8316 1.68217 23.2471 0.514364 23.2974 0.137319C23.3477 -0.239725 21.3153 -0.161302 21.3153 -0.161302L20.4837 1.09093L18.0731 2.4151L15.1245 4.11912L11.4445 5.31625L10.1745 5.66501L7.44311 7.02521C7.44311 7.02521 3.70925 8.95905 3.07283 9.50633C2.43642 10.0536 1.77084 10.9823 1.77084 10.9823L0.708389 13.7L0.100342 16.4838L0.124507 20.6637L2.01453 21.0006Z" fill="#009000"/>
<path fill-rule="evenodd" clip-rule="evenodd" d="M21.3731 0.00292969C21.3731 0.00292969 21.6635 0.484027 21.3309 0.790933C20.9984 1.09784 20.1238 1.51389 19.8132 1.89897C19.5027 2.28405 18.9841 2.3962 18.9841 2.65486C18.9841 2.91353 18.239 3.58027 17.8913 3.7038C17.5435 3.82733 16.0451 4.03613 15.5064 4.30849C14.9678 4.58085 13.7035 5.25578 12.906 5.54063C12.1084 5.82548 11.8514 5.95999 11.4133 5.97546C10.9752 5.99094 10.8403 5.70563 10.374 5.84829C9.90768 5.99094 9.29452 6.3536 8.73885 6.66402C8.18317 6.97443 6.73978 7.53753 5.86418 8.24427C4.98857 8.95101 4.8417 9.33465 4.4321 9.33465C4.02251 9.33465 4.02432 9.15447 3.56919 9.33465C3.11405 9.51483 2.41726 10.1992 2.22944 10.5545C2.04162 10.9098 1.83434 11.4588 1.56054 11.948C1.28673 12.4372 0.53251 14.4618 0.475257 15.3205C0.418004 16.1792 0.901874 16.5012 0.475257 17.0318C0.0486397 17.5623 0.072462 18.9593 0.328102 19.7021C0.583742 20.4449 0.75193 20.8971 0.950647 20.671C1.14936 20.4449 1.04867 19.2323 1.3028 19.0864C1.55692 18.9404 1.71167 19.9117 2.04537 19.7913C2.37907 19.6709 1.98061 21.095 2.04537 22.0222C2.11013 22.9494 3.11598 23.871 3.46104 24.2055C3.80609 24.54 4.00163 24.9101 4.85319 25.4437C5.70475 25.9772 7.04869 26.2655 7.97332 25.9967C8.89795 25.7278 9.0506 24.7437 9.52326 24.5942C9.99592 24.4447 10.1683 24.9793 10.1683 25.5126C10.1683 26.0459 10.0541 26.3247 9.52326 26.8735C8.99241 27.4223 8.13319 27.8404 7.3488 27.8404C6.56441 27.8404 5.92853 27.7581 4.85319 27.4223C3.77785 27.0865 3.18541 26.2712 2.76154 25.7811C2.33767 25.291 2.08759 25.1199 1.79659 24.7437C1.58725 24.473 1.14989 23.6251 0.754719 22.947C0.600589 22.6825 0.281813 22.5636 0.241873 22.3354C0.235896 22.3012 0 22.0222 0 22.0222V16.8589V12.558L3.13379 8.42426L6.16316 6.55536L9.20665 5.13958L14.4032 2.65486L15.9848 0.00292969H21.3731Z" fill="#02C800"/>
<mask id="mask6_3594_188624" style="mask-type:alpha" maskUnits="userSpaceOnUse" x="0" y="0" width="22" height="28">
<path fill-rule="evenodd" clip-rule="evenodd" d="M21.3731 0.00292969C21.3731 0.00292969 21.6635 0.484027 21.3309 0.790933C20.9984 1.09784 20.1238 1.51389 19.8132 1.89897C19.5027 2.28405 18.9841 2.3962 18.9841 2.65486C18.9841 2.91353 18.239 3.58027 17.8913 3.7038C17.5435 3.82733 16.0451 4.03613 15.5064 4.30849C14.9678 4.58085 13.7035 5.25578 12.906 5.54063C12.1084 5.82548 11.8514 5.95999 11.4133 5.97546C10.9752 5.99094 10.8403 5.70563 10.374 5.84829C9.90768 5.99094 9.29452 6.3536 8.73885 6.66402C8.18317 6.97443 6.73978 7.53753 5.86418 8.24427C4.98857 8.95101 4.8417 9.33465 4.4321 9.33465C4.02251 9.33465 4.02432 9.15447 3.56919 9.33465C3.11405 9.51483 2.41726 10.1992 2.22944 10.5545C2.04162 10.9098 1.83434 11.4588 1.56054 11.948C1.28673 12.4372 0.53251 14.4618 0.475257 15.3205C0.418004 16.1792 0.901874 16.5012 0.475257 17.0318C0.0486397 17.5623 0.072462 18.9593 0.328102 19.7021C0.583742 20.4449 0.75193 20.8971 0.950647 20.671C1.14936 20.4449 1.04867 19.2323 1.3028 19.0864C1.55692 18.9404 1.71167 19.9117 2.04537 19.7913C2.37907 19.6709 1.98061 21.095 2.04537 22.0222C2.11013 22.9494 3.11598 23.871 3.46104 24.2055C3.80609 24.54 4.00163 24.9101 4.85319 25.4437C5.70475 25.9772 7.04869 26.2655 7.97332 25.9967C8.89795 25.7278 9.0506 24.7437 9.52326 24.5942C9.99592 24.4447 10.1683 24.9793 10.1683 25.5126C10.1683 26.0459 10.0541 26.3247 9.52326 26.8735C8.99241 27.4223 8.13319 27.8404 7.3488 27.8404C6.56441 27.8404 5.92853 27.7581 4.85319 27.4223C3.77785 27.0865 3.18541 26.2712 2.76154 25.7811C2.33767 25.291 2.08759 25.1199 1.79659 24.7437C1.58725 24.473 1.14989 23.6251 0.754719 22.947C0.600589 22.6825 0.281813 22.5636 0.241873 22.3354C0.235896 22.3012 0 22.0222 0 22.0222V16.8589V12.558L3.13379 8.42426L6.16316 6.55536L9.20665 5.13958L14.4032 2.65486L15.9848 0.00292969H21.3731Z" fill="white"/>
</mask>
<g mask="url(#mask6_3594_188624)">
<path fill-rule="evenodd" clip-rule="evenodd" d="M2.77436 24.115C2.8313 24.4029 3.03519 24.6279 3.33743 24.931C3.63966 25.234 4.15832 25.6592 4.10742 25.4018C4.05653 25.1445 3.48049 24.3062 3.17607 24.115C2.87164 23.9239 2.71743 23.8271 2.77436 24.115Z" fill="#009000"/>
<path fill-rule="evenodd" clip-rule="evenodd" d="M0.487255 21.9227C0.544192 22.2106 0.748082 22.4356 1.05032 22.7386C1.35255 23.0416 1.87121 23.4668 1.82032 23.2094C1.76942 22.9521 1.19338 22.1138 0.888958 21.9227C0.584533 21.7315 0.430317 21.6347 0.487255 21.9227Z" fill="#02F900"/>
</g>
<path fill-rule="evenodd" clip-rule="evenodd" d="M8.91676 27.3547C7.98256 27.8354 7.36607 27.6763 6.61968 27.6763C5.87329 27.6763 5.45128 27.6012 4.86653 27.4676C4.28178 27.334 3.74637 26.9125 3.19816 26.4777C2.64994 26.0429 2.63865 25.7152 2.19213 25.3365C1.74561 24.9578 1.24953 24.1532 1.10585 23.8765C0.962168 23.5998 0 22.3358 0 22.2205C0 22.1053 0 21.1846 0 21.1846C0 21.1846 0.928238 22.473 1.25175 22.738C1.57526 23.0031 2.02399 23.4281 2.19213 23.7953C2.36026 24.1625 2.86914 24.9728 3.19816 25.216C3.52718 25.4593 4.39389 25.8334 4.86653 26.0063C5.33917 26.1793 6.06138 26.6955 7.09983 26.4777C8.13828 26.2599 8.5594 25.7893 8.91676 25.7893C9.27412 25.7893 9.85097 26.874 8.91676 27.3547Z" fill="#01A1F6"/>
<mask id="mask7_3594_188624" style="mask-type:alpha" maskUnits="userSpaceOnUse" x="0" y="21" width="10" height="7">
<path fill-rule="evenodd" clip-rule="evenodd" d="M8.91676 27.3547C7.98256 27.8354 7.36607 27.6763 6.61968 27.6763C5.87329 27.6763 5.45128 27.6012 4.86653 27.4676C4.28178 27.334 3.74637 26.9125 3.19816 26.4777C2.64994 26.0429 2.63865 25.7152 2.19213 25.3365C1.74561 24.9578 1.24953 24.1532 1.10585 23.8765C0.962168 23.5998 0 22.3358 0 22.2205C0 22.1053 0 21.1846 0 21.1846C0 21.1846 0.928238 22.473 1.25175 22.738C1.57526 23.0031 2.02399 23.4281 2.19213 23.7953C2.36026 24.1625 2.86914 24.9728 3.19816 25.216C3.52718 25.4593 4.39389 25.8334 4.86653 26.0063C5.33917 26.1793 6.06138 26.6955 7.09983 26.4777C8.13828 26.2599 8.5594 25.7893 8.91676 25.7893C9.27412 25.7893 9.85097 26.874 8.91676 27.3547Z" fill="white"/>
</mask>
<g mask="url(#mask7_3594_188624)">
<path fill-rule="evenodd" clip-rule="evenodd" d="M8.97764 25.7721C9.27669 25.9339 9.27613 26.4522 8.8744 26.7349C8.47267 27.0175 8.25757 27.1584 7.57175 27.2409C6.88594 27.3234 5.8765 27.031 5.19537 26.5526C4.51424 26.0742 4.27857 25.7753 4.59692 25.9471C4.91527 26.1188 5.24376 26.4611 6.41169 26.5526C7.57963 26.6441 8.67859 25.6103 8.97764 25.7721Z" fill="#0000F6"/>
<path fill-rule="evenodd" clip-rule="evenodd" d="M2.98862 26.0862C2.86777 25.8833 2.86777 25.5323 3.44979 25.7835C4.03181 26.0347 4.34171 26.7857 4.74324 26.8934C5.14477 27.0011 5.52185 27.4219 6.06587 27.4219C6.6099 27.4219 7.39409 27.5899 7.68834 27.5899C7.9826 27.5899 7.88832 27.773 7.35994 27.773C6.83156 27.773 6.20559 27.6658 5.84048 27.6658C5.47537 27.6658 5.20979 27.5771 4.80549 27.4219C4.40118 27.2667 3.10947 26.2891 2.98862 26.0862Z" fill="#00EBEB"/>
</g>
<path fill-rule="evenodd" clip-rule="evenodd" d="M16.7965 0.00292969C16.7965 0.00292969 15.8222 0.534607 15.6584 1.26222C15.4947 1.98984 15.4947 2.7028 15.1238 2.98873C14.7529 3.27466 14.6656 3.22328 14.4045 3.43888C14.1433 3.65448 14.2121 3.84115 13.768 4.12875C13.324 4.41635 12.0389 4.91105 11.5392 4.98441C11.0395 5.05778 10.5163 5.13426 10.1135 5.31141C9.71076 5.48855 8.2596 6.08717 7.92141 6.28327C7.58323 6.47936 6.04414 7.36749 5.45219 7.79877C4.86023 8.23006 4.49362 8.08489 4.16856 8.23006C3.84351 8.37522 2.98799 8.74674 2.62761 9.38743C2.26723 10.0281 2.05817 10.2555 1.77011 10.6258C1.48204 10.9961 1.17233 11.2663 0.873837 11.826C0.575345 12.3857 8.01105e-05 13.1116 8.01105e-05 13.1116L-0.0175781 12.1022C-0.0175781 12.1022 0.0222633 11.5957 0.768446 10.6258C1.51463 9.65596 3.44672 7.2196 4.02259 7.03803C4.59847 6.85647 5.77255 5.669 6.10148 5.37952C6.4304 5.09004 7.42275 5.14711 7.92141 4.84548C8.42008 4.54384 9.9333 4.33051 10.3569 3.75552C10.7806 3.18052 11.0807 2.61487 11.6453 2.48929C12.2099 2.36371 13.3829 2.12174 13.768 1.70824C14.1531 1.29474 14.4928 0.647791 14.1662 0.390584C13.8395 0.133377 14.1662 0.00292969 14.1662 0.00292969H16.7965Z" fill="#00FF00"/>
<path fill-rule="evenodd" clip-rule="evenodd" d="M14.2252 0.00292969C14.2252 0.00292969 14.7609 0.266225 14.7609 0.686062C14.7609 1.1059 14.4367 1.54658 14.0771 1.77007C13.7175 1.99357 13.1484 2.59059 12.7205 2.59059C12.2926 2.59059 11.8341 2.61812 11.5571 2.94355C11.2802 3.26898 10.9409 4.01119 10.277 4.24064C9.61308 4.47009 8.66637 4.86105 8.42198 5.10361C8.1776 5.34616 7.51644 5.8061 7.33451 5.5098C7.15258 5.2135 7.13685 5.26348 6.95109 5.26348C6.76532 5.26348 5.90846 5.99692 5.57962 6.24271C5.25078 6.4885 4.58578 7.24207 4.24348 7.19687C3.90118 7.15166 3.26183 7.80742 3.03029 8.05953C2.79876 8.31164 1.95001 9.29575 1.62162 9.75768C1.29324 10.2196 0 12.0074 0 12.0074V11.2422C0 11.2422 0.774124 10.1855 1.16048 9.61775C1.54684 9.04998 1.95965 8.26796 2.91364 7.2999C3.86763 6.33184 5.28847 5.1338 6.29098 4.34565C7.29349 3.55749 8.22625 3.33808 8.56762 2.72371C8.90899 2.10933 8.67366 1.86841 9.01406 1.48297C9.35446 1.09752 9.67546 1.32333 10.1244 0.960899C10.5734 0.59847 10.7805 0.00292969 10.7805 0.00292969L14.2252 0.00292969Z" fill="#0001F6"/>
<path fill-rule="evenodd" clip-rule="evenodd" d="M10.7805 0.00292969C10.7805 0.00292969 10.6249 0.986796 10.1273 1.24158C9.6297 1.49636 9.22727 1.2755 9.0252 1.62541C8.82312 1.97531 9.19205 2.43032 8.78193 2.8724C8.37181 3.31448 7.10616 3.99822 6.44778 4.41284C5.78941 4.82746 3.65253 6.69207 3.03652 7.2922C2.4205 7.89233 0 11.3845 0 11.3845V10.8148C0 10.8148 1.8543 7.38997 2.15027 7.14861C2.44624 6.90726 4.4958 4.74581 4.4958 4.74581C4.4958 4.74581 7.50563 2.80172 7.50563 2.07986C7.50563 1.35801 6.9627 0.78663 6.84479 0.598469C6.72688 0.410309 6.74246 0.00292969 6.74246 0.00292969L10.7805 0.00292969Z" fill="#01A0F6"/>
<path fill-rule="evenodd" clip-rule="evenodd" d="M0 10.25C0 10.25 1.38323 7.64932 2.00395 6.91738C2.62466 6.18543 3.18018 5.76958 3.70013 5.08959C3.98333 4.71923 4.42791 4.20019 4.92873 3.76024C5.34741 3.39244 5.82925 3.0948 6.0618 2.84395C6.5725 2.29306 6.57302 2.4323 6.65985 2.04529C6.72338 1.76215 6.44634 1.63603 6.32073 1.38444C6.20805 1.15871 6.32073 0.773606 6.32073 0.711416C6.32073 0.579907 6.0618 0.00292969 6.0618 0.00292969L6.90218 0.00292969C6.90218 0.00292969 6.92663 0.482477 7.08621 0.619942C7.24578 0.757407 7.63089 0.814453 7.84799 1.14723C8.06509 1.48 7.75543 2.31384 7.50125 2.7108C7.24707 3.10776 6.66478 3.51743 6.32073 3.76024C5.97669 4.00305 5.4865 4.16056 5.18239 4.46514C4.87828 4.7697 4.54847 5.08548 4.11 5.66325C3.67153 6.24101 2.44897 6.93798 2.08898 7.54541C1.72899 8.15283 1.50638 8.61603 1.0279 9.35832C0.549415 10.1006 0 10.8148 0 10.8148V10.25Z" fill="#00EBEB"/>
<path fill-rule="evenodd" clip-rule="evenodd" d="M1.37668 5.31007C0.96187 5.66444 0.294357 6.48639 0 7.19497C0 7.42705 0 8.05933 0 8.05933C0 8.05933 0.494009 7.08944 0.798032 6.64713C1.10205 6.20481 1.45568 5.65514 1.6601 5.44303C1.86451 5.23092 1.79149 4.95569 1.37668 5.31007Z" fill="#00E8E8"/>
<path fill-rule="evenodd" clip-rule="evenodd" d="M0.85746 16.4558C0.85746 16.7618 0.626112 17.2024 0.85746 17.0895C1.08881 16.9767 1.26096 16.703 1.26096 16.3099C1.26096 15.9167 0.85746 16.1497 0.85746 16.4558Z" fill="#9AD000"/>
<path fill-rule="evenodd" clip-rule="evenodd" d="M4.05578 18.3424C4.4195 18.4773 6.01102 15.852 6.72347 15.3973C7.43592 14.9426 8.22524 14.9958 8.4794 14.6597C8.73356 14.3235 10.788 13.704 9.68078 13.3814C9.1896 13.2382 8.71356 13.4283 8.28018 13.5421C7.73666 13.6848 7.27141 13.7964 7.05472 13.9892C6.66526 14.3358 6.32489 14.9296 5.56156 15.0218C4.79823 15.114 3.69205 18.2074 4.05578 18.3424Z" fill="#FF9001"/>
<path fill-rule="evenodd" clip-rule="evenodd" d="M17.51 1.49414C16.8454 1.49414 16.3832 2.5636 16.0139 2.71284C15.6447 2.86207 15.6896 3.26607 16.1222 3.26607C16.5548 3.26607 17.5381 2.91383 17.8488 2.43744C18.1596 1.96105 18.1747 1.49414 17.51 1.49414Z" fill="#00FF00"/>
</g>
</g>
<path fill-rule="evenodd" clip-rule="evenodd" d="M49.3187 5C43.4334 5 38.0163 10.0013 38.0015 15.4486L38 15.9781C37.9858 21.1982 42.0829 24.9999 47.7228 24.9999H52.5015C52.9555 24.9999 53.3901 24.6538 53.4722 24.227L54.3995 19.407C54.4798 18.9893 54.1848 18.6507 53.7405 18.6507H48.4556C46.2313 18.6507 44.6156 17.1514 44.6212 15.0928C44.6265 13.1411 46.5674 11.3492 48.676 11.3492H55.1275C55.5815 11.3492 56.0161 11.0031 56.0983 10.5763L57.0223 5.7729C57.1044 5.34604 56.8029 5 56.3489 5H49.3187ZM59.7929 5.7729C59.8751 5.34604 60.3097 5 60.7637 5H65.7773C66.2313 5 66.5328 5.34604 66.4507 5.7729L63.9734 18.6507H70.6413C71.0953 18.6507 71.3968 18.9967 71.3147 19.4236L70.3907 24.227C70.3085 24.6538 69.8739 24.9999 69.4199 24.9999H56.9163C56.4623 24.9999 56.1608 24.6538 56.2429 24.227L59.7929 5.7729ZM75.6678 12.0434C77.9404 11.9183 80.1576 11.591 82.3005 11.0796L79.7714 24.2263C79.6892 24.6535 79.2545 24.9999 78.8005 24.9999H73.7869C73.3329 24.9999 73.0315 24.6535 73.1136 24.2263L76.6634 5.77354C76.7456 5.34632 77.1803 5 77.6343 5H82.6479C83.102 5 83.4034 5.34632 83.3212 5.77354L82.8475 8.23621C80.8676 10.0585 78.4058 11.3938 75.6678 12.0434ZM90.9442 15.1578L89.1995 24.2271C89.1174 24.654 88.6828 25 88.2288 25H83.2152C82.7611 25 82.4596 24.654 82.5418 24.2271L86.0918 5.77304C86.1739 5.34618 86.6086 5.00014 87.0626 5.00014H89.6909C89.6977 5.00005 89.7044 5 89.7112 5H93.3878C93.8959 5 94.2956 5.29293 94.3946 5.73788L96.2841 14.222L101.438 5.73788C101.708 5.29293 102.22 5 102.728 5H109.053C109.507 5 109.809 5.34604 109.727 5.7729L106.176 24.227C106.094 24.6538 105.66 24.9999 105.206 24.9999H100.192C99.7381 24.9999 99.4366 24.6538 99.5187 24.227L101.263 15.1588L97.932 19.8068C97.7428 20.0708 97.4248 20.238 97.1117 20.238H93.1418C92.8287 20.238 92.575 20.0708 92.4874 19.8068L90.9442 15.1578ZM112.483 5.7729C112.565 5.34604 113 5 113.454 5L127.154 5C127.608 5 127.91 5.34604 127.828 5.7729L127.209 8.98897C127.127 9.41583 126.692 9.76187 126.238 9.76187L117.906 9.76187L117.356 12.619H122.771C122.998 12.619 123.149 12.792 123.107 13.0054L122.34 16.9944C122.299 17.2078 122.082 17.3809 121.855 17.3809H116.44L115.891 20.238H124.223C124.677 20.238 124.978 20.584 124.896 21.0109L124.278 24.227C124.196 24.6538 123.761 24.9999 123.307 24.9999H109.606C109.152 24.9999 108.851 24.6538 108.933 24.227L112.483 5.7729Z" fill="#0F1527"/>
</svg>
