<svg width="141" height="30" viewBox="0 0 141 30" fill="none" xmlns="http://www.w3.org/2000/svg">
<mask id="mask0_3744:219976" style="mask-type:alpha" maskUnits="userSpaceOnUse" x="0" y="0" width="30" height="30">
<rect width="30" height="30" rx="7" fill="white"/>
</mask>
<g mask="url(#mask0_3744:219976)">
<rect width="30" height="30" fill="black"/>
<mask id="mask1_3744:219976" style="mask-type:alpha" maskUnits="userSpaceOnUse" x="0" y="0" width="30" height="30">
<rect width="30" height="30" fill="white"/>
</mask>
<g mask="url(#mask1_3744:219976)">
<path fill-rule="evenodd" clip-rule="evenodd" d="M21.5402 18.0991L20.2297 14.5975C20.2297 14.5975 26.6657 14.452 28.3842 15.8398C30.1026 17.2277 30.0011 18.9288 30.0011 18.9288L30.0313 22.494L30.0239 30.0658L23.1845 20.7156L20.9566 18.316L21.5402 18.0991Z" fill="#009000"/>
<path fill-rule="evenodd" clip-rule="evenodd" d="M27.634 18.5753C27.634 19.0481 30.0308 21.5746 30.0308 21.5746V19.9325C30.0308 19.9325 27.634 18.1024 27.634 18.5753Z" fill="#00CD00"/>
<path fill-rule="evenodd" clip-rule="evenodd" d="M25.9165 20.8909C25.7803 20.8629 25.4894 21.229 26.0069 21.8604C26.5244 22.4918 27.1871 24.0795 27.4364 24.2884C27.6857 24.4973 28.4392 25.6272 28.7238 25.3455C29.0084 25.0637 28.3063 22.8818 27.9581 22.6001C27.6099 22.3183 27.0846 22.1442 26.845 21.8604C26.6054 21.5767 26.0527 20.9189 25.9165 20.8909Z" fill="#02C800"/>
<path fill-rule="evenodd" clip-rule="evenodd" d="M11.725 30.0419L13.2349 30.0006L13.6489 28.8412C13.6489 28.8412 13.7963 28.0266 13.876 27.5211C13.9603 26.9857 13.7893 26.376 14.1928 25.6946C14.8974 24.5048 17.4614 21.9508 19.7892 22.6288C20.3977 22.806 20.1493 23.868 20.5663 24.6548C20.8671 25.2225 21.0915 25.672 21.5193 26.203C21.5932 26.2947 22.2134 27.0137 22.5122 27.8886C22.8652 28.9225 22.976 29.215 22.976 30.0006C23.9196 30.0006 24.6019 30.0006 25.5942 30.0006C26.4384 30.0006 30.0239 30.0006 30.0239 30.0006C30.0239 30.0006 26.0676 23.5664 23.7303 20.9976C21.393 18.4287 18.2697 16.8887 17.5937 16.9425C16.56 17.0247 13.114 17.3786 13.114 17.3786H10.7802L9.30072 18.576L7.73078 19.9539L6.25712 20.9976C6.25712 20.9976 4.91103 22.7964 6.16555 23.4385C7.14435 23.9394 8.81695 23.1244 9.53004 23.4385C10.519 23.874 10.3455 25.4339 10.0257 26.321C9.46987 27.8631 6.67577 27.4945 5.12903 27.3955C4.9857 27.3864 5.61412 27.6223 5.52438 27.838C5.47208 27.9638 5.07246 27.8639 4.65094 27.8886C4.59029 27.8921 4.86268 28.4198 4.86268 28.4198L11.725 30.0419Z" fill="#00C800"/>
<path fill-rule="evenodd" clip-rule="evenodd" d="M11.3708 29.9999C11.8951 29.5041 11.7662 29.3769 11.7662 29.0446C11.7662 28.7123 11.6075 28.9924 10.9029 29.163C10.1984 29.3336 11.833 28.1536 11.7662 27.2548C11.6995 26.3559 12.0569 25.5665 12.1611 24.4547C12.2654 23.343 11.2066 23.2993 10.9029 22.944C10.5993 22.5886 10.3451 22.3473 9.63583 22.218C8.92653 22.0886 8.48289 22.1567 8.27832 22.3161C8.07375 22.4754 8.25713 22.6561 8.60731 22.7031C8.95748 22.7501 9.65742 23.08 9.80127 23.1805C9.94512 23.281 10.1477 23.4737 10.4033 23.9844C10.6589 24.4952 10.6417 25.9025 10.2224 26.4111C9.8031 26.9196 10.172 26.9968 9.54148 27.6028C8.91093 28.2089 8.18948 28.4962 6.98784 28.4139C5.78621 28.3316 4.28302 27.8344 4.63952 28.0194C5.56921 28.5018 10.013 29.9999 11.3708 29.9999Z" fill="#00FF00"/>
<path fill-rule="evenodd" clip-rule="evenodd" d="M12.3137 30.0002C12.3137 30.0002 12.5198 29.0915 12.7286 29.0915C12.9375 29.0915 12.7286 30.0002 12.7286 30.0002H12.3137Z" fill="#00FF00"/>
<path fill-rule="evenodd" clip-rule="evenodd" d="M13.0244 30.0004C13.0244 30.0004 13.8288 28.062 13.5141 26.8699C13.1994 25.6777 13.1393 25.531 13.1393 24.7548C13.1393 23.9786 12.9751 23.5877 12.7155 23.1115C12.4558 22.6353 12.0908 22.6429 12.0908 22.0299C12.0908 21.4169 11.7322 21.05 11.2392 20.7162C10.7462 20.3824 9.8846 20.2597 9.41052 20.321C8.93643 20.3824 8.15002 20.8361 7.72283 21.0726C7.29564 21.3091 6.90013 21.8979 7.39025 21.7291C7.88038 21.5602 8.08197 21.9248 8.08197 22.4474C8.08197 22.9701 7.30203 23.3055 6.97011 23.2309C6.63819 23.1563 6.32827 22.5707 6.49691 22.0299C6.66555 21.4891 7.27221 20.7389 7.73055 20.5528C8.18889 20.3668 9.5203 19.8907 10.1025 19.8907C10.6848 19.8907 11.4479 20.0633 11.5759 19.7021C11.7039 19.3409 11.1572 18.929 10.6826 18.929C10.208 18.929 9.75317 19.2285 9.62426 19.0305C9.49535 18.8325 9.86503 18.6764 10.3079 18.5937C10.7508 18.5111 11.5451 18.731 12.0908 18.929C12.6366 19.127 12.9256 19.2745 13.3586 19.2745C13.7916 19.2745 14.6695 19.2778 15.0818 19.4899C15.4941 19.7021 16.5313 20.1083 16.761 20.5528C16.9906 20.9974 16.7221 21.1699 16.9518 21.428C17.1814 21.6861 17.4466 21.916 17.664 21.7291C17.8815 21.5422 17.8815 21.7291 18.0944 21.7291C18.3073 21.7291 18.7322 22.3 19.0286 22.3C19.325 22.3 19.2007 22.0761 19.5246 22.2255C19.8484 22.3749 20.2766 22.815 20.4099 23.1115C20.5433 23.408 20.5101 24.6211 20.7472 24.8399C20.9843 25.0587 21.8461 25.6945 21.9093 26.1495C21.9724 26.6045 21.2071 26.5172 20.7472 26.1495C20.1887 25.7031 20.2627 25.2162 19.8876 24.596C19.4373 23.8514 19.1272 23.6126 19.0286 23.4914C18.8478 23.2692 18.5254 22.6765 18.5254 23.0772C18.5254 23.478 18.4 23.6861 18.2307 23.6861C18.0614 23.6861 17.9024 23.6887 18.2307 24.2828C18.559 24.8769 18.6671 25.4355 18.3724 25.4355C18.0777 25.4355 17.1784 24.3398 16.7935 24.4594C16.4086 24.5789 16.8376 25.2563 16.6272 25.39C16.4168 25.5238 16.4484 25.8587 16.2576 25.8587C16.0668 25.8587 15.8569 25.6996 15.7182 25.8587C15.5795 26.0178 15.5966 26.256 15.3392 26.4197C15.0818 26.5834 15.4178 26.5208 15.0818 26.8699C14.7459 27.2189 14.5707 26.9018 14.4766 27.2189C14.3825 27.5361 14.2884 27.4576 14.1925 27.9824C14.0967 28.5072 13.472 28.9966 13.9358 29.1714C14.0237 29.2046 14.1943 28.6595 14.3701 28.6595C14.5458 28.6595 14.5876 29.4403 14.7086 29.546C14.8164 29.6402 14.8919 30.0004 14.8919 30.0004H13.0244Z" fill="#009000"/>
<path fill-rule="evenodd" clip-rule="evenodd" d="M9.9033 21.3893C9.78326 21.6956 10.1326 21.396 10.4675 21.591C10.8024 21.7861 11.0427 22.0112 11.2111 21.9359C11.3796 21.8606 11.4231 21.316 11.0903 21.316C10.7575 21.316 10.0233 21.083 9.9033 21.3893Z" fill="#009100"/>
<path fill-rule="evenodd" clip-rule="evenodd" d="M12.2366 18.3609C11.9479 18.5754 12.5543 18.8321 12.9757 18.8321C13.397 18.8321 13.9904 19.0062 13.9904 18.6282C13.9904 18.2503 12.5252 18.1464 12.2366 18.3609Z" fill="#00FF00"/>
<path fill-rule="evenodd" clip-rule="evenodd" d="M19.6468 20.7559C19.8648 20.9764 20.156 21.0539 20.3774 21.3677C20.6188 21.7101 20.7022 22.3148 20.9531 22.6137C21.3319 23.0648 21.4987 23.9176 21.4987 24.5172C21.4987 25.1692 21.9587 25.608 22.3589 26.2969C22.6198 26.7461 22.8441 27.2917 22.9282 27.4814C23.1414 27.9622 23.3973 29.5358 23.3973 30.0003C24.1171 30.0003 24.9296 30.0003 26.1412 30.0003C26.1412 28.378 24.3325 25.8296 24.1137 25.3279C23.895 24.8262 23.713 24.6707 23.3362 24.8181C23.1554 24.8889 22.7683 24.061 22.3589 23.291C21.9151 22.456 21.4515 21.6642 21.3679 21.4906C21.2072 21.1568 20.8621 20.975 20.7177 20.677C20.5732 20.379 20.7973 20.5413 20.5732 20.2076C20.3491 19.8739 20.2791 19.8026 19.8115 19.501C19.3439 19.1994 18.3177 18.6901 18.3177 18.7885C18.3177 18.8869 19.1726 19.5142 19.1404 19.626C19.1083 19.7378 18.4322 19.3976 18.1552 19.3976C17.8782 19.3976 17.3997 18.9235 17.1174 18.8325C16.8351 18.7414 16.4794 18.9235 16.2174 18.8325C15.9554 18.7414 15.5394 18.3514 15.1449 18.317C14.7505 18.2826 15.6149 19.2637 16.7651 20.2076C17.9154 21.1516 18.6346 21.418 18.4762 20.9974C18.3177 20.5767 18.4762 20.295 18.8336 20.295C19.191 20.295 19.191 20.295 19.6468 20.7559Z" fill="#07F901"/>
<path fill-rule="evenodd" clip-rule="evenodd" d="M14.3573 30.0005C14.3573 30.0005 14.2909 29.5181 13.9192 29.2358C13.5476 28.9535 14.0289 28.4136 14.1815 27.9502C14.3341 27.4867 14.207 26.8762 14.5354 26.8762C14.8638 26.8762 14.9392 26.6733 15.0483 26.5597C15.1573 26.4462 15.2198 26.4784 15.3634 26.245C15.507 26.0116 15.4017 25.7808 15.6314 25.6946C15.8611 25.6085 15.8611 25.7808 16.0723 25.6946C16.2835 25.6085 16.2591 25.2305 16.4342 25.1448C16.6094 25.0591 16.3223 24.425 16.7178 24.3275C17.1132 24.23 18.0188 25.4264 18.3047 25.2267C18.5906 25.0271 17.9259 23.9693 17.9259 23.6204C17.9259 23.2714 18.2233 23.6204 18.3047 23.4915C18.3861 23.3627 18.2233 22.3849 18.7018 22.8262C18.94 23.0459 19.4166 23.593 19.8148 24.2883C20.2167 24.9899 20.54 25.8393 20.7559 25.9762C21.1857 26.2488 21.4452 26.0761 21.8864 26.5597C22.0649 26.7554 22.4649 27.2765 22.7394 28.0601C22.9173 28.5679 23.1847 30.0005 23.1847 30.0005H14.3573Z" fill="#FEFB00"/>
<mask id="mask2_3744:219976" style="mask-type:alpha" maskUnits="userSpaceOnUse" x="13" y="22" width="11" height="9">
<path fill-rule="evenodd" clip-rule="evenodd" d="M14.3573 30.0005C14.3573 30.0005 14.2909 29.5181 13.9192 29.2358C13.5476 28.9535 14.0289 28.4136 14.1815 27.9502C14.3341 27.4867 14.207 26.8762 14.5354 26.8762C14.8638 26.8762 14.9392 26.6733 15.0483 26.5597C15.1573 26.4462 15.2198 26.4784 15.3634 26.245C15.507 26.0116 15.4017 25.7808 15.6314 25.6946C15.8611 25.6085 15.8611 25.7808 16.0723 25.6946C16.2835 25.6085 16.2591 25.2305 16.4342 25.1448C16.6094 25.0591 16.3223 24.425 16.7178 24.3275C17.1132 24.23 18.0188 25.4264 18.3047 25.2267C18.5906 25.0271 17.9259 23.9693 17.9259 23.6204C17.9259 23.2714 18.2233 23.6204 18.3047 23.4915C18.3861 23.3627 18.2233 22.3849 18.7018 22.8262C18.94 23.0459 19.4166 23.593 19.8148 24.2883C20.2167 24.9899 20.54 25.8393 20.7559 25.9762C21.1857 26.2488 21.4452 26.0761 21.8864 26.5597C22.0649 26.7554 22.4649 27.2765 22.7394 28.0601C22.9173 28.5679 23.1847 30.0005 23.1847 30.0005H14.3573Z" fill="white"/>
</mask>
<g mask="url(#mask2_3744:219976)">
<path fill-rule="evenodd" clip-rule="evenodd" d="M15.1733 30.0003C15.1733 30.0003 15.2823 29.2456 15.0005 29.0883C14.7187 28.9309 14.5817 28.2622 14.7911 28.0277C15.0005 27.7932 15.337 27.8508 15.4967 27.6722C15.6563 27.4937 15.6609 27.6223 15.8346 27.558C16.0083 27.4937 16.022 26.8143 16.3153 26.8143C16.6086 26.8143 16.5974 26.9651 16.7744 26.8897C16.9513 26.8143 16.8803 26.6766 17.3105 26.8143C17.7407 26.9521 18.5376 28.2141 18.8701 28.2141C19.2026 28.2141 18.9009 27.2552 19.184 27.2552C19.4671 27.2552 19.8576 29.1483 20.1502 29.0883C20.4429 29.0282 20.405 27.0873 20.5796 26.8897C20.7542 26.6922 21.3949 27.1569 21.7788 27.2552C22.1626 27.3535 22.1132 26.8143 22.1132 26.8143C22.1132 26.8143 22.5465 27.2844 22.7522 27.8883C22.9579 28.4922 23.1839 30.0003 23.1839 30.0003H15.1733Z" fill="#E7C001"/>
<path fill-rule="evenodd" clip-rule="evenodd" d="M15.77 28.8877C15.7283 28.555 15.8493 28.3797 16.105 28.338C16.3608 28.2964 16.6739 28.5046 16.6739 28.8877C16.6739 29.2708 16.552 29.7571 16.3285 29.7571C16.105 29.7571 15.8118 29.2204 15.77 28.8877Z" fill="#FE9001"/>
<path fill-rule="evenodd" clip-rule="evenodd" d="M18.9094 29.9999C18.9094 29.9999 19.2007 29.5 19.5339 29.5525C19.8671 29.6051 20.0581 29.9999 20.0581 29.9999H18.9094Z" fill="#FF9001"/>
<path fill-rule="evenodd" clip-rule="evenodd" d="M20.4983 30.0006H22.1134C22.1134 30.0006 21.7139 29.6683 21.6173 29.4453C21.5207 29.2224 21.4886 28.7055 21.1204 28.7878C20.7522 28.8702 20.4983 30.0006 20.4983 30.0006Z" fill="#FF9001"/>
</g>
<path fill-rule="evenodd" clip-rule="evenodd" d="M24.1765 28.5801C24.0627 28.5801 24.0627 28.7977 24.0627 28.9568C24.0627 29.1158 24.1699 29.7614 24.3969 29.7142C24.6238 29.6671 24.4567 29.1637 24.4567 28.9881C24.4567 28.8126 24.2903 28.5801 24.1765 28.5801Z" fill="#042FF0"/>
<path fill-rule="evenodd" clip-rule="evenodd" d="M22.5873 24.8548C22.2077 24.9299 23.2085 28.2341 23.4228 28.7204C23.637 29.2067 23.7369 28.9176 23.7369 28.5758C23.7369 28.2341 22.967 24.7798 22.5873 24.8548Z" fill="#0430F5"/>
<path fill-rule="evenodd" clip-rule="evenodd" d="M27.0239 28.6786C27.0239 28.6786 26.737 28.7784 26.3938 28.2297C25.6145 26.9838 25.3196 25.7242 24.931 25.2066C24.6169 24.7881 24.0718 23.9909 23.5242 23.3463C22.8666 22.5722 22.2123 21.9683 22.0409 21.8365C21.7268 21.5949 22.2895 21.3915 22.9245 22.1424C23.1811 22.4457 23.5751 22.8434 23.9588 23.2949C24.5249 23.9609 25.0809 24.6783 25.2418 24.8473C25.5117 25.1309 28.0166 27.5631 28.0166 27.798C28.0166 28.033 27.0239 28.6786 27.0239 28.6786Z" fill="#0430F6"/>
<mask id="mask3_3744:219976" style="mask-type:alpha" maskUnits="userSpaceOnUse" x="21" y="21" width="8" height="8">
<path fill-rule="evenodd" clip-rule="evenodd" d="M27.0239 28.6786C27.0239 28.6786 26.737 28.7784 26.3938 28.2297C25.6145 26.9838 25.3196 25.7242 24.931 25.2066C24.6169 24.7881 24.0718 23.9909 23.5242 23.3463C22.8666 22.5722 22.2123 21.9683 22.0409 21.8365C21.7268 21.5949 22.2895 21.3915 22.9245 22.1424C23.1811 22.4457 23.5751 22.8434 23.9588 23.2949C24.5249 23.9609 25.0809 24.6783 25.2418 24.8473C25.5117 25.1309 28.0166 27.5631 28.0166 27.798C28.0166 28.033 27.0239 28.6786 27.0239 28.6786Z" fill="white"/>
</mask>
<g mask="url(#mask3_3744:219976)">
<path fill-rule="evenodd" clip-rule="evenodd" d="M25.2112 25.8311C25.2112 25.8311 26.3529 29.0441 26.8523 28.7779C27.3517 28.5116 28.2591 28.127 28.0482 27.7976C27.8372 27.4681 26.1695 25.6212 26.2921 25.8311C26.4147 26.041 26.6828 26.3972 26.3529 26.5305C26.023 26.6638 25.2112 25.8311 25.2112 25.8311Z" fill="#00BDF9"/>
</g>
<path fill-rule="evenodd" clip-rule="evenodd" d="M26.514 27.3948C25.8269 27.4823 26.7766 28.6092 27.0771 28.8809C27.3777 29.1526 28.0074 28.745 28.0074 28.745C28.0074 28.745 27.2012 27.3072 26.514 27.3948Z" fill="#02EAED"/>
<path fill-rule="evenodd" clip-rule="evenodd" d="M12.0587 18.0879C11.7831 18.4051 12.8991 18.3927 13.4668 18.3254C14.0345 18.2581 14.4942 18.1504 14.9999 18.2666C15.5056 18.3827 16.2653 19.297 16.608 19.1031C16.9507 18.9093 17.1609 18.7494 17.4014 18.8991C17.6419 19.0488 18.4875 19.5279 18.6877 19.5279C18.8879 19.5279 19.1694 19.0401 17.9287 18.6533C16.6881 18.2666 16.0657 17.9771 15.1709 17.9771C14.2761 17.9771 12.3342 17.7707 12.0587 18.0879Z" fill="#00AEF7"/>
<mask id="mask4_3744:219976" style="mask-type:alpha" maskUnits="userSpaceOnUse" x="12" y="17" width="7" height="3">
<path fill-rule="evenodd" clip-rule="evenodd" d="M12.0587 18.0879C11.7831 18.4051 12.8991 18.3927 13.4668 18.3254C14.0345 18.2581 14.4942 18.1504 14.9999 18.2666C15.5056 18.3827 16.2653 19.297 16.608 19.1031C16.9507 18.9093 17.1609 18.7494 17.4014 18.8991C17.6419 19.0488 18.4875 19.5279 18.6877 19.5279C18.8879 19.5279 19.1694 19.0401 17.9287 18.6533C16.6881 18.2666 16.0657 17.9771 15.1709 17.9771C14.2761 17.9771 12.3342 17.7707 12.0587 18.0879Z" fill="white"/>
</mask>
<g mask="url(#mask4_3744:219976)">
<path fill-rule="evenodd" clip-rule="evenodd" d="M12.0157 18.2019C12.0979 18.4343 12.9725 18.4254 13.1194 18.2565C13.2663 18.0876 13.2377 17.8862 12.8956 17.8862C12.5535 17.8862 11.9335 17.9695 12.0157 18.2019Z" fill="#034FF8"/>
<path fill-rule="evenodd" clip-rule="evenodd" d="M15.7275 18.6079C15.7105 19.1308 16.6672 19.2602 16.8141 19.0914C16.9611 18.9225 16.9325 18.7211 16.5904 18.7211C16.2482 18.7211 15.7445 18.0849 15.7275 18.6079Z" fill="#034FF8"/>
<path fill-rule="evenodd" clip-rule="evenodd" d="M17.9412 18.8996C18.8638 19.557 19.0327 20.1689 19.2428 20.0849C19.7131 19.8971 18.9749 18.8725 18.6723 18.722C18.0735 18.4244 17.3069 18.4477 17.9412 18.8996Z" fill="#034FF8"/>
</g>
<path fill-rule="evenodd" clip-rule="evenodd" d="M9.90263 24.7902C9.95644 24.4142 10.5333 24.7836 10.3539 25.6027C10.1745 26.4218 10.2757 26.5994 10.0216 27.6517C9.76742 28.704 9.81367 28.4805 9.56828 29.0091C9.3229 29.5377 9.65286 29.6554 9.90263 29.4134C10.1524 29.1715 10.8461 28.9231 10.6923 29.2195C10.5384 29.5159 10.628 29.9999 10.2896 29.9999C9.95125 29.9999 7.27256 30.2288 4.70211 29.7276C3.95462 29.5818 2.69633 28.9517 2.10356 28.5349C1.91052 28.3992 1.53613 28.0753 1.34657 27.787C1.31575 27.4829 1.37187 27.4537 1.26332 27.1591C1.12607 26.7865 0.846128 26.4123 0.634682 26.2038C0.0250188 25.6027 -0.319799 24.7137 0.418217 25.1785C0.600296 25.2932 0.852969 25.9581 1.06301 26.2038C1.2644 26.4394 2.0286 26.9916 2.58272 27.2631C3.008 27.4715 3.33892 27.4719 3.69591 27.6517C4.17585 27.8934 4.31367 28.1052 4.70211 28.1585C5.87275 28.3191 6.92444 28.3979 7.46167 28.35C7.99891 28.302 8.57645 27.8401 8.8505 27.5661C9.12456 27.2921 9.55708 27.2438 9.70553 26.791C9.78086 26.5612 9.87863 26.1787 9.90263 25.7766C9.92593 25.3862 9.87612 24.9754 9.90263 24.7902Z" fill="#01A0F6"/>
<path fill-rule="evenodd" clip-rule="evenodd" d="M8.64077 28.2073C9.49084 27.6468 9.49084 27.3133 10.1938 27.0411C10.9449 26.7503 10.4117 23.5615 11.0176 24.145C11.1581 24.2804 11.4886 25.292 11.4277 26.3142C11.3878 26.9827 10.8721 28.8923 10.8721 28.8923L11.6062 28.992L11.9464 29.9995H9.9129C9.9129 29.9995 9.9129 29.5715 10.1938 29.5715C10.6657 29.5715 10.6695 28.6647 10.7822 28.2073C11.0176 27.2519 10.3414 27.5434 10.1905 27.94C9.97695 28.5014 9.29912 28.2909 8.72308 28.7742C8.24421 29.1761 8.20617 28.4939 8.64077 28.2073Z" fill="#0000F6"/>
<path fill-rule="evenodd" clip-rule="evenodd" d="M5.89348 28.3411C5.62833 28.4269 5.39934 28.7118 5.89348 28.7118C6.38761 28.7118 7.03632 28.6815 7.24322 28.6073C7.45013 28.5331 7.45013 28.3869 7.15911 28.3411C6.86809 28.2953 6.15862 28.2553 5.89348 28.3411Z" fill="#0000F6"/>
<path fill-rule="evenodd" clip-rule="evenodd" d="M3.9766 29.5376C4.15635 29.4437 4.61651 29.2514 5.17959 29.3708C5.74267 29.4902 6.28482 29.5352 6.4975 29.3708C6.71018 29.2064 7.25031 28.766 7.52661 28.9621C7.8029 29.1581 7.65245 29.5376 7.94678 29.5376C8.24111 29.5376 8.58397 29.484 8.71736 29.6191C8.85076 29.7541 9.04531 29.523 9.43876 29.3708C9.83222 29.2186 9.43876 29.9993 9.43876 29.9993H3.9766C3.9766 29.9993 3.79684 29.6315 3.9766 29.5376Z" fill="#00ECEC"/>
<path fill-rule="evenodd" clip-rule="evenodd" d="M2.6326 28.9188C2.88862 28.9787 3.30761 28.764 3.19568 28.2299C3.08374 27.6958 2.01181 26.5234 1.75659 26.2606C1.50138 25.9977 0.178247 24.6428 0.178247 24.6428C0.178247 24.6428 -0.0884686 25.0183 0.0439093 25.3171C0.176287 25.6159 0.701559 25.731 0.906282 26.0374C1.111 26.3438 1.68338 27.1721 1.50734 27.838C1.3313 28.5039 2.37658 28.8588 2.6326 28.9188Z" fill="#00ECEC"/>
<path fill-rule="evenodd" clip-rule="evenodd" d="M1.65405 19.2634C1.65405 19.2634 1.33885 20.6435 1.88583 22.3243C2.43282 24.005 4.95094 27.2549 6.70998 27.2549C8.46902 27.2549 8.21774 25.2121 9.50694 24.6235C10.0033 24.5167 10.0451 26.1196 10.1283 25.6941C10.2115 25.2686 10.6159 24.3033 9.79743 23.5287C8.97897 22.7541 8.63297 22.781 8.04733 22.987C7.64511 23.1284 7.53999 23.3051 7.10923 23.4511C6.67847 23.5971 6.25567 23.092 6.21479 22.844C6.12911 22.3243 6.30864 21.7826 6.66283 21.3638C7.01701 20.945 7.8828 20.1106 8.60388 19.8956C9.32496 19.6807 9.63448 19.1527 9.50694 18.8969C9.37939 18.641 9.90232 18.5509 10.2894 18.3472C10.6764 18.1435 10.6927 18.0736 11.134 17.875C11.5752 17.6764 12.7612 17.5128 13.7367 17.5622C14.7123 17.6117 15.2522 17.2832 15.8374 17.3488C16.4226 17.4143 16.9227 17.4579 17.9035 17.9546C18.8842 18.4513 19.6844 18.5006 20.2966 18.9777C20.9087 19.4549 22.3456 20.426 22.6683 20.8949C22.991 21.3638 24.3054 22.3193 24.9093 23.0332C25.5131 23.7472 26.7957 24.7186 27.2147 25.6941C27.6337 26.6696 27.8334 27.3399 28.0853 27.1805C28.3372 27.021 28.19 26.525 27.9094 25.8532C27.6289 25.1814 27.3642 24.6235 26.6736 23.7225C25.983 22.8216 24.9371 21.2363 24.4933 20.8949C24.0494 20.5535 24.093 20.4561 23.8411 20.3762C23.5892 20.2963 23.3948 19.9479 23.0558 19.6846C22.8914 19.5569 22.585 19.3738 22.3287 19.1513C22.0567 18.9151 21.7908 18.7017 21.7908 18.6319C21.7908 18.4963 21.38 18.0625 21.7908 18.3472C22.2016 18.6319 23.3452 19.3625 23.4197 19.1513C23.4942 18.9401 23.5592 18.8287 23.7861 18.9777C24.013 19.1268 24.6639 19.9691 24.9093 19.7455C25.1546 19.522 25.1354 19.1541 25.3768 19.31C25.6181 19.4659 26.2411 20.5079 26.6736 20.5079C27.1061 20.5079 27.6406 20.8221 28.2797 21.3638C28.9188 21.9055 30.1294 22.5147 29.8455 22.151C29.5617 21.7873 28.9601 20.9935 28.549 20.6848C28.1379 20.3762 27.656 19.9694 27.2147 19.4736C26.7734 18.9777 26.5247 18.5352 25.9507 18.4412C25.3768 18.3472 25.1454 18.2468 24.4933 17.7978C23.8411 17.3488 23.9483 17.7074 23.7262 17.6348C23.5041 17.5622 23.2245 17.2786 22.8832 17.1677C22.7463 17.1232 22.3849 16.8211 21.9752 16.5768C21.364 16.2123 20.6673 15.8587 20.6245 15.7339C20.5532 15.5256 20.9009 15.3456 22.1516 15.9103C23.4022 16.475 24.2232 16.9703 24.6365 16.8813C25.0498 16.7923 25.1499 16.7762 26.0596 17.0626C26.9693 17.3489 27.0491 17.3946 27.3642 17.6348C27.6793 17.875 28.1472 18.4435 29.0143 18.6319C29.8814 18.8203 30.0002 19.0427 30.0002 19.0427V14.8392L29.3185 14.5044L21.6091 11.3229L14.8912 13.3313L10.6571 14.9945L6.64062 17.3488L4.90789 22.151L3.6268 18.8969L5.42786 15.1119L10.6841 11.9451L13.4341 10.4093H11.2753L5.74097 10.7532L2.43282 15.1119L1.65405 19.2634Z" fill="#FFFF00"/>
<path fill-rule="evenodd" clip-rule="evenodd" d="M6.47552 12.2432C7.0646 11.9212 7.54603 11.7885 8.21617 11.5443C8.36884 11.4886 19.8522 9.47361 23.8901 10.1646C24.267 10.2291 30.0002 15.237 30.0002 15.237L30.023 16.6656C30.023 16.6656 28.9023 16.0254 28.3833 15.8393C27.5952 15.5566 27.1405 15.1288 27.2604 15.3954C27.785 16.5615 28.5263 16.9067 28.0006 17.0147C27.7031 17.0757 27.0574 16.4158 26.5422 16.1015C26.1468 15.8604 25.6036 15.6722 25.4967 15.8954C25.3713 16.1571 24.9201 16.0303 24.2721 15.7128C23.8932 15.5272 23.6308 15.7232 23.365 15.777C23.1761 15.8153 22.9341 15.692 22.8785 15.7128C22.5953 15.8191 22.9523 16.2079 22.647 16.133C22.5074 16.0988 22.2028 15.9076 21.8165 15.777C21.1769 15.5608 20.6986 15.5608 20.7842 15.777C20.9982 16.3174 18.6135 14.6257 18.3244 14.5831C18.0353 14.5405 17.9333 14.7616 19.1215 15.4473C20.3097 16.133 21.2573 16.2523 22.19 17.1742C22.5349 17.5152 22.8785 18.022 22.8785 18.0986C22.8785 18.3134 22.0773 18.149 21.3671 17.6081C20.7924 17.1704 20.0429 16.2636 19.318 15.8954C18.6716 15.5671 17.9329 15.4261 17.3915 15.3395C16.9104 15.2625 16.5875 15.2092 16.5875 15.3954C16.5875 15.6528 17.2464 15.7823 17.6702 15.9638C18.0205 16.1139 18.2836 16.3207 18.1304 16.3913C17.7616 16.5613 17.1921 16.3554 16.5875 16.1829C15.9474 16.0002 15.2776 15.8461 15.1254 15.8954C14.7739 16.0093 14.5044 16.1222 14.3685 16.1015C13.993 16.0444 13.993 16.1015 13.8253 16.1015C13.355 16.1015 13.9152 16.5052 14.3685 16.5927C15.1308 16.7399 14.611 17.1359 14.7525 17.3216C15.0067 17.6551 11.62 17.3589 11.0358 17.8838C10.8533 18.0478 10.6596 18.1392 10.2818 18.3775C9.90404 18.6159 9.44351 18.5996 9.52129 18.899C9.59906 19.1983 9.38573 18.6444 8.96125 18.8454C7.85824 19.3678 7.83318 20.101 8.42257 19.9354C8.74987 19.8435 7.8924 20.2045 7.31885 20.7052C6.82863 21.1331 6.31632 21.7717 6.19288 22.053C5.92502 22.6634 6.13285 23.5934 6.32933 23.4594C6.5258 23.3253 6.70999 24.2596 7.16813 24.5035C7.62627 24.7475 7.76855 24.4822 7.54603 24.1339C7.32351 23.7855 7.49981 23.3402 7.72987 23.1796C7.95994 23.019 8.7009 22.6717 9.29982 23.0574C9.89873 23.4432 10.3035 23.8761 10.3035 24.7764C10.3035 25.6767 10.3461 26.1152 9.8085 26.755C9.27084 27.3948 9.02342 27.4385 8.60677 27.6397C8.08288 27.8928 6.93773 27.8289 7.3338 27.5417C7.72987 27.2546 6.47552 26.3861 6.47552 26.3861L4.96258 25.8452C4.96258 25.8452 5.20247 25.6559 4.87437 25.2011C4.54627 24.7463 3.84776 23.8186 3.37175 23.5617C2.89573 23.3048 2.50932 23.3048 2.50932 23.5617C2.50932 23.8186 1.89096 22.6498 1.89096 22.6498L1.43262 20.8279L1.89096 19.4763C1.89096 19.4763 1.99724 19.1072 2.21503 18.9474C2.43283 18.7877 2.69764 18.2451 2.69764 17.8838C2.69764 17.5225 3.16265 17.1154 3.16265 16.7803C3.16265 16.4451 3.32867 15.8962 3.62423 15.1072C3.91979 14.3183 4.038 14.3781 4.45618 13.8545C4.87437 13.3309 5.88643 12.5652 6.47552 12.2432Z" fill="#EABF01"/>
<path fill-rule="evenodd" clip-rule="evenodd" d="M9.44387 11.7011C9.44387 11.4184 8.15188 11.7001 7.62102 11.9453C7.09015 12.1906 6.64763 12.5643 6.20104 12.7345C5.75444 12.9046 5.25381 13.3553 4.81273 13.8551C4.37164 14.3549 4.01205 14.6481 3.89888 15.3829C3.78572 16.1176 3.58316 16.7353 3.37156 17.1055C3.15996 17.4757 2.55598 18.4324 2.43264 18.9409C2.3093 19.4493 2.07586 21.2312 2.32562 21.7937C2.57538 22.3562 2.52199 21.9316 2.82123 21.9316C3.12046 21.9316 3.7521 23.0852 3.89888 23.4789C4.04567 23.8727 4.30047 24.3963 5.21674 25.1335C5.37169 25.2581 5.80612 25.7106 6.76072 25.8175C7.71533 25.9243 8.65582 25.4256 8.79569 24.7501C8.93557 24.0746 9.0669 24.0746 9.34454 24.2951C9.62219 24.5155 10.0491 23.8974 9.65921 23.4789C9.40725 23.2085 9.20395 23.0449 8.83957 23.0016C8.47701 22.9586 7.973 23.1067 7.72197 23.3054C6.87498 23.9756 8.09885 24.6277 7.51107 24.6277C6.9233 24.6277 6.7458 24.0527 6.28763 23.6907C5.82946 23.3286 5.33884 23.3027 6.53948 20.9973C6.92449 20.258 6.73149 20.1335 7.6632 19.4655C7.93605 19.2699 8.84429 18.8284 9.29963 18.2212C9.43417 18.0418 10.0381 18.0433 10.5818 17.7058C11.1255 17.3684 11.5188 17.4811 12.3537 17.3607C13.1886 17.2403 13.9796 17.0976 13.9796 16.8663C13.9796 16.635 13.1886 16.3127 12.5453 16.418C11.6434 16.5657 10.6817 16.7514 10.0491 16.8663C9.4164 16.9812 10.3838 16.2748 10.4268 16.2529C11.3657 15.7746 11.5717 15.8625 12.3091 15.664C13.0465 15.4654 15.7791 15.1933 15.7791 14.8401C15.7791 14.2607 17.1862 14.8255 17.1862 14.3722C17.1862 13.919 18.0526 14.018 19.257 14.3722C20.6253 14.7747 21.9192 15.9205 22.2534 14.8401C22.3364 14.5719 22.1689 14.0748 22.3339 13.9309C22.4568 13.8238 22.9598 14.0868 22.8421 13.8551C22.6525 13.4818 23.2044 13.4818 24.2151 13.7863C25.0797 14.0468 26.964 14.8668 28.2163 15.2474C28.489 15.3303 28.2163 14.8951 28.7699 15.1121C29.6201 15.4454 32.7074 17.0487 31.4801 15.8688C30.3967 14.8272 23.8551 10.3691 23.6987 10.3588C21.0731 10.1843 9.44387 11.7124 9.44387 11.7011Z" fill="#FF8F00"/>
<ellipse cx="8.60608" cy="23.5617" rx="0.328984" ry="0.256897" fill="#FF2600"/>
<path fill-rule="evenodd" clip-rule="evenodd" d="M30 15.3999C30 14.3909 30 12.6569 30 12.6569L27.4939 10.6648L28.2788 9.76596L27.2825 8.49863L29.5029 6.55188V4.85316L25.3925 4.52048L20.8367 4.85316L18.8819 5.6609L14.891 6.55188L12.7273 8.49863L10.6569 11.0708C10.6569 11.0708 9.84515 11.2693 9.11538 11.6069C8.38562 11.9445 6.60421 12.5618 5.96633 13.3113C5.32845 14.0607 4.65516 14.3756 4.46424 14.9995C4.27332 15.6233 4.37162 15.8412 4.04565 16.4486C3.71967 17.056 2.89591 18.1702 2.69743 18.9612C2.49896 19.7522 2.33889 20.4839 2.49631 20.8373C2.65373 21.1907 3.10776 21.1146 3.37154 21.7959C3.63532 22.4772 3.80246 23.6877 4.88439 24.6456C5.96633 25.6036 6.18267 25.6935 7.08107 25.6935C7.97947 25.6935 8.69787 25.1992 8.7868 24.7042C8.87574 24.2093 8.27758 23.7731 8.27758 23.9936C8.27758 24.214 8.33838 24.5491 7.66157 24.6456C6.98475 24.7422 7.11556 24.4775 6.86344 24.3931C6.61132 24.3086 6.47607 24.0307 6.42521 24.2522C6.37436 24.4737 6.16545 24.1419 5.89482 23.8215C5.6242 23.5011 5.57642 23.1209 5.67735 22.5675C5.77828 22.0141 6.26672 21.1538 6.56508 20.4021C6.86344 19.6503 8.28453 19.1598 8.61932 18.7473C8.9541 18.3348 9.10397 18.1553 9.5698 17.9163C10.0356 17.6773 10.3763 17.3775 10.7791 17.3775C10.9623 17.3775 11.3361 17.2392 11.708 17.1839C12.154 17.1176 12.5986 17.1257 12.7273 17.0296C12.9633 16.8533 12.8611 16.6617 12.4966 16.6617C12.132 16.6617 9.20054 17.227 8.70825 17.4855C8.21596 17.744 7.90748 17.9163 7.81191 17.582C7.71635 17.2476 8.75471 16.8748 9.11538 16.6617C9.47605 16.4486 10.8859 15.7752 11.4316 15.5955C11.9774 15.4158 14.7578 15.1286 15.1606 14.8257C15.5635 14.5228 15.1606 14.2697 15.6386 14.166C16.1166 14.0624 16.887 14.166 17.5432 14.166C18.1994 14.166 20.9654 15.0857 21.3669 14.912C21.7684 14.7382 20.9334 14.2717 20.8367 13.9182C20.74 13.5647 20.74 13.4832 20.969 13.3972C21.1979 13.3113 21.7336 13.4356 22.076 13.3113C22.4184 13.187 22.8427 13.4508 23.1742 13.2068C23.5056 12.9628 24.0688 13.1387 24.6067 13.3113C25.1446 13.4838 26.7856 14.4654 27.4939 14.5841C28.2021 14.7029 29.3258 14.9995 30 15.3999Z" fill="#FF2500"/>
<path fill-rule="evenodd" clip-rule="evenodd" d="M8.51024 24.7282C8.72641 24.8206 8.62532 25.1154 8.2435 25.3123C7.86169 25.5092 6.83857 25.6541 6.25204 25.3123C5.66551 24.9705 5.41877 24.2045 5.26598 24.5032C5.11319 24.8019 4.5582 24.0572 4.37208 23.6391C4.18596 23.221 3.72507 22.3517 3.93153 21.0644C4.13798 19.7771 4.93968 18.7558 5.26598 18.2109C5.59229 17.666 6.06019 17.19 6.43486 16.4659C6.80952 15.7419 8.25806 15.5043 8.95202 15.2518C9.64599 14.9993 10.375 15.0713 10.4472 14.711C10.5194 14.3506 10.2619 14.0937 10.6843 13.6528C11.1068 13.212 11.3958 13.0335 11.3958 12.7513C11.3958 12.469 11.2981 12.1886 11.5755 11.9444C11.8529 11.7002 12.6811 11.6125 12.8821 11.3222C13.0831 11.0319 12.4938 10.2809 12.8821 9.96014C13.2704 9.63941 13.8584 9.86346 14.3269 9.39368C14.7954 8.92389 15.0796 9.21191 15.2711 8.91081C15.4626 8.6097 15.5101 8.32877 15.9486 7.92428C16.387 7.51979 18.5372 7.39784 19.4816 7.04751C19.8585 6.90769 20.7167 7.03738 21.5921 7.13243C22.9101 7.27554 23.8285 7.41579 24.1132 8.08842C24.622 9.29012 22.2773 8.48485 21.1716 8.39992C20.0659 8.315 19.4665 8.15011 19.5741 8.61258C19.6816 9.07505 20.7957 9.16867 21.3673 9.01251C21.9389 8.85636 22.8135 9.04506 23.0672 9.49334C23.3208 9.94162 22.8026 10.4087 23.2509 11.0805C23.6992 11.7524 25.2692 12.3009 26.4728 12.4789C27.6765 12.6568 30.0005 13.6528 30.0005 13.6528L30.0233 14.5802C30.0233 14.5802 26.899 13.8296 26.0427 13.517C25.1864 13.2044 23.9694 12.6568 23.0672 12.6568C22.165 12.6568 21.4836 13.1741 20.7893 12.9627C20.0949 12.7513 19.7589 12.918 19.8401 13.299C19.9213 13.6801 20.4468 14.0174 20.2876 14.2725C20.1283 14.5276 18.429 13.7903 17.6074 13.8542C17.2983 13.8782 16.9733 13.6547 16.6107 13.6528C16.0096 13.6496 15.3578 13.8542 14.8915 13.8542C14.1437 13.8542 13.6506 14.0561 13.6506 14.233C13.6506 14.4098 13.9257 14.4494 14.1263 14.5802C14.3269 14.711 13.5653 15.0956 13.218 15.0956C12.8707 15.0956 11.9801 15.1825 11.0319 15.483C10.0837 15.7836 8.46605 16.5304 7.82391 17.0126C7.18177 17.4948 7.18466 17.7653 7.29057 17.9224C7.39648 18.0795 8.23203 17.7043 8.75692 17.7043C9.2818 17.7043 9.09256 17.8069 8.58601 18.2109C8.07946 18.6148 7.99295 19.0439 7.60848 19.2146C7.22402 19.3852 6.54148 20.0753 6.54148 20.2242C6.54148 20.373 6.22208 20.5926 5.95822 21.1373C5.69437 21.682 5.67101 21.8411 5.58354 22.4997C5.49607 23.1583 5.35224 23.3602 5.71285 24.0177C6.07347 24.6752 6.66663 25.0127 6.80033 25.0909C6.93403 25.1692 6.54148 24.4011 6.92716 24.7282C7.31284 25.0553 8.29406 24.6358 8.51024 24.7282Z" fill="#D60000"/>
<path fill-rule="evenodd" clip-rule="evenodd" d="M19.0353 12.6568C19.1837 12.4915 19.3444 12.4604 19.8701 12.4604C20.3959 12.4604 21.0702 12.5082 20.939 12.3188C20.8078 12.1294 19.9683 11.9902 19.2916 11.6174C18.6149 11.2446 17.8017 11.188 17.4483 11.7001C17.0949 12.2123 16.5801 12.0351 15.7901 12.0351C15 12.0351 16.1576 12.7778 16.8135 12.9627C17.4693 13.1475 18.8312 13.5538 19.0353 13.4683C19.2395 13.3827 18.8869 12.822 19.0353 12.6568Z" fill="#BF0000"/>
<path fill-rule="evenodd" clip-rule="evenodd" d="M11.5802 12.7632C11.3855 12.9109 11.9581 13.3069 11.7667 13.3757C11.5752 13.4444 11.1253 13.9404 11.339 14.084C11.5527 14.2275 12.0917 13.9963 12.6061 13.9324C13.1205 13.8685 13.6833 13.6421 13.9264 13.2947C14.1694 12.9474 13.6833 12.4704 12.9601 12.4704C12.2369 12.4704 11.7749 12.6156 11.5802 12.7632Z" fill="#BF0000"/>
<path fill-rule="evenodd" clip-rule="evenodd" d="M7.39246 19.089C6.90055 19.283 6.8713 19.4985 6.49976 19.7542C6.12823 20.0099 5.62933 20.1616 5.62933 20.579C5.62933 20.9964 5.11037 21.8527 5.11037 22.1995C5.11037 22.5463 4.78574 21.8889 4.718 22.1274C4.65027 22.3658 4.718 22.7331 4.718 22.8806C4.718 23.0282 4.51196 22.9223 4.37206 22.4924C4.23217 22.0624 4.25058 21.5257 4.37206 21.2048C4.49355 20.8838 4.58253 21.0469 4.65027 21.1258C4.718 21.2048 5.11037 20.9536 5.11037 20.579C5.11037 20.2043 5.69162 19.5511 6.07885 19.283C6.46609 19.015 6.55265 18.7117 7.10537 18.7117C7.65808 18.7117 7.88438 18.895 7.39246 19.089Z" fill="#C00000"/>
<path fill-rule="evenodd" clip-rule="evenodd" d="M6.84724 13.2989C6.79709 13.3951 7.38884 13.2569 7.62102 13.1044C7.8532 12.9518 8.15316 12.657 7.8532 12.657C7.55324 12.657 6.89739 13.2027 6.84724 13.2989Z" fill="#BF0000"/>
<path fill-rule="evenodd" clip-rule="evenodd" d="M16.389 10.2135C16.3388 10.3097 16.6083 10.3577 17.1698 10.3577C17.7313 10.3577 17.9931 10.1517 17.6778 10.0124C17.3625 9.87312 16.4391 10.1173 16.389 10.2135Z" fill="#F40000"/>
<path fill-rule="evenodd" clip-rule="evenodd" d="M11.7877 11.0391C10.6587 11.3255 9.965 10.9579 9.76823 10.673C9.57145 10.3882 10.2429 9.82526 10.2429 9.82526L12.9646 7.33513L15.2967 5.66402L18.6988 4.68686L21.7852 3.28278L23.2977 2.09591L25.2179 2.45481L27.5104 1.61127L30.1236 2.27348C30.1236 2.27348 30.1236 11.7034 30.1342 12.6601C29.9075 12.6601 29.2927 12.2378 29.0457 12.1154C28.9012 12.0438 28.3521 11.8437 27.8411 11.7034C27.4783 11.6038 27.0406 11.5825 26.8992 11.4724C26.5588 11.2073 26.578 11.1185 26.8992 10.8721C27.2205 10.6258 26.704 10.2783 27.1072 10.0518C27.5104 9.82526 27.8411 9.93532 27.7366 9.46279C27.6321 8.99025 26.6965 9.08981 26.4364 8.48995C26.1763 7.89008 27.1072 7.9545 27.1072 7.59667C27.1072 7.23884 28.6841 7.13567 28.9447 6.79403C29.2052 6.4524 29.3677 5.68112 28.7485 5.40402C28.1293 5.12693 27.9287 5.35996 27.4045 5.25205C26.8804 5.14414 26.8449 4.87898 26.4364 5.05691C26.0279 5.23484 24.5185 6.01776 23.7825 6.01776C23.0466 6.01776 22.7318 5.0603 22.3768 4.93189C22.0217 4.80348 21.5492 4.87898 21.1272 5.05691C20.7052 5.23484 20.0506 5.6006 19.5046 5.86954C18.9585 6.13848 17.6753 6.555 16.486 6.555C15.2967 6.555 14.9456 6.68411 14.6446 6.91101C14.3436 7.13792 14.474 7.20707 14.1565 7.49575C13.8389 7.78443 13.4797 7.88845 13.3656 8.29716C13.2515 8.70588 13.3631 8.86232 12.9646 9.10203C12.5661 9.34174 12.0318 9.45874 11.8652 9.93532C11.6986 10.4119 12.9168 10.7526 11.7877 11.0391Z" fill="#FF9001"/>
<path fill-rule="evenodd" clip-rule="evenodd" d="M6.47599 11.4296C6.47599 11.4296 6.68045 11.7705 7.17399 11.7705C7.66752 11.7705 9.55903 11.0741 9.74657 10.592C9.93412 10.1098 10.6747 10.1689 10.7807 9.78338C10.8868 9.39784 11.967 9.25231 12.1469 8.80781C12.3268 8.36331 12.1469 8.26004 12.6558 7.91814C13.1647 7.57624 14.2639 6.78972 14.4468 6.55525C14.6296 6.32079 15.1277 6.08509 16.0687 5.75799C17.0097 5.43088 17.6889 5.21757 18.3 5.21757C18.911 5.21757 19.2602 5.18824 19.8659 4.94592C20.4717 4.7036 21.2077 4.02851 21.5158 3.80703C21.8238 3.58555 22.2916 2.82023 22.9056 2.82023C23.5196 2.82023 23.7949 3.46563 24.4259 3.46563C25.0569 3.46563 25.4523 2.47602 26.1582 2.47602C26.8641 2.47602 26.5717 3.61927 27.4714 3.80703C28.371 3.99479 30.1239 2.5961 30.1239 2.5961V0.00282288H23.2981L20.6289 1.87793L18.3 3.80703L15.7785 4.51752L13.1318 5.66427L10.7807 6.41876L9.09528 6.69476L5.72318 9.2129L2.86701 10.1616L2.00952 11.1634L2.75008 12.806L4.85132 12.9552L6.47599 11.4296Z" fill="#FFFF00"/>
<mask id="mask5_3744:219976" style="mask-type:alpha" maskUnits="userSpaceOnUse" x="2" y="0" width="29" height="13">
<path fill-rule="evenodd" clip-rule="evenodd" d="M6.47599 11.4296C6.47599 11.4296 6.68045 11.7705 7.17399 11.7705C7.66752 11.7705 9.55903 11.0741 9.74657 10.592C9.93412 10.1098 10.6747 10.1689 10.7807 9.78338C10.8868 9.39784 11.967 9.25231 12.1469 8.80781C12.3268 8.36331 12.1469 8.26004 12.6558 7.91814C13.1647 7.57624 14.2639 6.78972 14.4468 6.55525C14.6296 6.32079 15.1277 6.08509 16.0687 5.75799C17.0097 5.43088 17.6889 5.21757 18.3 5.21757C18.911 5.21757 19.2602 5.18824 19.8659 4.94592C20.4717 4.7036 21.2077 4.02851 21.5158 3.80703C21.8238 3.58555 22.2916 2.82023 22.9056 2.82023C23.5196 2.82023 23.7949 3.46563 24.4259 3.46563C25.0569 3.46563 25.4523 2.47602 26.1582 2.47602C26.8641 2.47602 26.5717 3.61927 27.4714 3.80703C28.371 3.99479 30.1239 2.5961 30.1239 2.5961V0.00282288H23.2981L20.6289 1.87793L18.3 3.80703L15.7785 4.51752L13.1318 5.66427L10.7807 6.41876L9.09528 6.69476L5.72318 9.2129L2.86701 10.1616L2.00952 11.1634L2.75008 12.806L4.85132 12.9552L6.47599 11.4296Z" fill="white"/>
</mask>
<g mask="url(#mask5_3744:219976)">
<path fill-rule="evenodd" clip-rule="evenodd" d="M7.68428 11.2117C7.77498 11.5259 8.79183 11.3802 9.27922 10.9318C9.7666 10.4835 10.6621 10.2873 10.7873 10.0939C10.9126 9.90058 11.2328 9.83024 11.5305 9.70263C11.8282 9.57502 12.2533 9.29149 12.4579 9.03592C12.6625 8.78036 12.4246 8.56276 12.7174 8.29322C13.0103 8.02367 14.0837 7.2099 14.3826 6.90401C14.6814 6.59812 14.515 6.44922 15.305 6.20379C16.095 5.95836 16.9184 5.48425 17.4869 5.35731C18.0554 5.23036 18.7909 5.37406 19.4116 5.23397C20.0323 5.09389 20.4859 4.73965 20.7797 4.4872C21.0735 4.23474 21.072 4.2989 21.2471 4.18195C21.4222 4.06499 21.8407 3.72 21.9558 3.45931C22.071 3.19862 22.4995 3.08498 22.8318 3.08498C23.1641 3.08498 23.8236 3.36522 24.0943 3.55311C24.365 3.741 25.2648 3.18829 25.275 3.171C25.5549 2.69978 25.9353 2.78947 26.3036 2.89392C26.6854 3.0022 27.0153 4.04462 27.7388 4.09862C28.4622 4.15261 30.238 2.80017 30.238 2.80017L31.4997 -0.895493C31.4997 -0.895493 24.8664 0.0615174 24.2645 0.437171C23.6626 0.812825 23.1734 1.75195 22.6971 1.9705C21.7837 2.38963 21.0199 2.9679 20.7797 3.2812C19.7635 4.60634 19.4066 4.42993 18.9848 4.40799C17.9196 4.35255 17.6635 4.59244 16.6394 5.01474C15.6152 5.43704 14.9688 5.21898 14.5159 5.53006C14.2508 5.7122 13.9291 6.34137 13.5262 6.73236C13.2409 7.0092 12.9484 6.99479 12.4579 7.3797C11.2745 8.30824 10.175 8.62012 9.91356 8.97808C9.68979 9.28446 9.65985 9.5608 9.6269 9.70263C9.49002 10.2918 8.89085 10.3009 8.76527 10.6045C8.6397 10.908 7.59357 10.8975 7.68428 11.2117Z" fill="#E6BF00"/>
<path fill-rule="evenodd" clip-rule="evenodd" d="M6.14184 9.98682C6.02573 10.0712 6.05684 10.1233 5.83005 10.4544C5.60326 10.7855 5.41669 11.0056 5.6817 11.0675C5.94671 11.1293 6.32413 10.7455 6.64699 10.5024C6.96985 10.2593 7.37833 10.0224 7.51502 9.77036C7.65172 9.51832 8.02251 9.5544 7.97271 9.42246C7.92291 9.29052 7.87229 9.15094 7.33598 9.30791C6.79968 9.46488 6.25794 9.90242 6.14184 9.98682Z" fill="#E6BF00"/>
</g>
<path fill-rule="evenodd" clip-rule="evenodd" d="M2.01453 21.0005C2.01453 21.0005 2.20297 19.8102 2.20297 19.323C2.20297 18.3018 2.54174 17.9072 2.64047 17.5239C2.76529 17.0393 2.79241 16.3552 2.92585 16.151C3.4742 15.312 3.37214 14.4096 4.15693 13.818C4.543 13.5269 5.08428 13.1316 5.60613 12.78C6.14507 12.417 6.86559 12.1158 6.6586 11.5953C6.45162 11.0748 5.36654 11.2973 4.77257 12.1074C4.56054 12.3966 4.07754 12.9668 3.89177 12.6609C3.71445 12.369 3.09332 12.4036 2.92585 12.1727C2.55708 11.6642 2.35698 11.4116 2.45703 10.8302C2.55708 10.2487 3.2552 9.86367 3.66844 10.1569C4.08168 10.4501 3.89177 10.6221 3.7193 10.9137C3.54683 11.2053 4.06538 11.06 4.15693 10.8302C4.32735 10.4024 4.40677 10.7858 4.57357 10.5019C5.02804 9.72859 6.08683 9.33622 7.05728 8.55604C8.02774 7.77586 9.45179 6.73212 10.0121 6.84972C10.5724 6.96732 10.3241 7.26931 10.7203 7.26931C11.1166 7.26931 12.6537 6.62586 13.0245 6.30092C13.3954 5.97598 13.7808 5.43432 14.3454 5.19706C14.9099 4.9598 16.9307 4.45793 17.6819 4.23685C18.4331 4.01577 19.0847 3.77508 19.4268 3.3317C19.7688 2.88832 21.0279 2.11367 21.4298 1.89786C21.8316 1.68204 23.2471 0.514242 23.2974 0.137197C23.3477 -0.239847 21.3153 -0.161424 21.3153 -0.161424L20.4837 1.09081L18.0731 2.41498L15.1245 4.11899L11.4445 5.31613L10.1745 5.66489L7.44311 7.02509C7.44311 7.02509 3.70925 8.95893 3.07283 9.50621C2.43642 10.0535 1.77084 10.9822 1.77084 10.9822L0.708389 13.6999L0.100342 16.4837L0.124507 20.6636L2.01453 21.0005Z" fill="#009000"/>
<path fill-rule="evenodd" clip-rule="evenodd" d="M21.3731 0.00282288C21.3731 0.00282288 21.6635 0.48392 21.3309 0.790827C20.9984 1.09773 20.1238 1.51378 19.8132 1.89886C19.5027 2.28395 18.9841 2.39609 18.9841 2.65476C18.9841 2.91342 18.239 3.58016 17.8913 3.70369C17.5435 3.82723 16.0451 4.03602 15.5064 4.30838C14.9678 4.58074 13.7035 5.25567 12.906 5.54052C12.1084 5.82538 11.8514 5.95988 11.4133 5.97536C10.9752 5.99083 10.8403 5.70553 10.374 5.84818C9.90768 5.99083 9.29452 6.3535 8.73885 6.66391C8.18317 6.97433 6.73978 7.53743 5.86418 8.24417C4.98857 8.95091 4.8417 9.33455 4.4321 9.33455C4.02251 9.33455 4.02432 9.15436 3.56919 9.33455C3.11405 9.51473 2.41726 10.1991 2.22944 10.5544C2.04162 10.9097 1.83434 11.4587 1.56054 11.9479C1.28673 12.4371 0.53251 14.4617 0.475257 15.3204C0.418004 16.1791 0.901874 16.5011 0.475257 17.0317C0.0486397 17.5622 0.072462 18.9592 0.328102 19.702C0.583742 20.4448 0.75193 20.897 0.950647 20.6709C1.14936 20.4448 1.04867 19.2322 1.3028 19.0863C1.55692 18.9403 1.71167 19.9116 2.04537 19.7912C2.37907 19.6708 1.98061 21.0949 2.04537 22.0221C2.11013 22.9492 3.11598 23.8709 3.46104 24.2054C3.80609 24.5399 4.00163 24.91 4.85319 25.4436C5.70475 25.9771 7.04869 26.2654 7.97332 25.9966C8.89795 25.7277 9.0506 24.7436 9.52326 24.5941C9.99592 24.4446 10.1683 24.9792 10.1683 25.5125C10.1683 26.0458 10.0541 26.3246 9.52326 26.8734C8.99241 27.4222 8.13319 27.8403 7.3488 27.8403C6.56441 27.8403 5.92853 27.758 4.85319 27.4222C3.77785 27.0864 3.18541 26.2711 2.76154 25.781C2.33767 25.2909 2.08759 25.1198 1.79659 24.7436C1.58725 24.4729 1.14989 23.625 0.754719 22.9469C0.600589 22.6824 0.281813 22.5635 0.241873 22.3352C0.235896 22.3011 0 22.0221 0 22.0221V16.8588V12.5579L3.13379 8.42415L6.16316 6.55525L9.20665 5.13948L14.4032 2.65476L15.9848 0.00282288H21.3731Z" fill="#02C800"/>
<mask id="mask6_3744:219976" style="mask-type:alpha" maskUnits="userSpaceOnUse" x="0" y="0" width="22" height="28">
<path fill-rule="evenodd" clip-rule="evenodd" d="M21.3731 0.00282288C21.3731 0.00282288 21.6635 0.48392 21.3309 0.790827C20.9984 1.09773 20.1238 1.51378 19.8132 1.89886C19.5027 2.28395 18.9841 2.39609 18.9841 2.65476C18.9841 2.91342 18.239 3.58016 17.8913 3.70369C17.5435 3.82723 16.0451 4.03602 15.5064 4.30838C14.9678 4.58074 13.7035 5.25567 12.906 5.54052C12.1084 5.82538 11.8514 5.95988 11.4133 5.97536C10.9752 5.99083 10.8403 5.70553 10.374 5.84818C9.90768 5.99083 9.29452 6.3535 8.73885 6.66391C8.18317 6.97433 6.73978 7.53743 5.86418 8.24417C4.98857 8.95091 4.8417 9.33455 4.4321 9.33455C4.02251 9.33455 4.02432 9.15436 3.56919 9.33455C3.11405 9.51473 2.41726 10.1991 2.22944 10.5544C2.04162 10.9097 1.83434 11.4587 1.56054 11.9479C1.28673 12.4371 0.53251 14.4617 0.475257 15.3204C0.418004 16.1791 0.901874 16.5011 0.475257 17.0317C0.0486397 17.5622 0.072462 18.9592 0.328102 19.702C0.583742 20.4448 0.75193 20.897 0.950647 20.6709C1.14936 20.4448 1.04867 19.2322 1.3028 19.0863C1.55692 18.9403 1.71167 19.9116 2.04537 19.7912C2.37907 19.6708 1.98061 21.0949 2.04537 22.0221C2.11013 22.9492 3.11598 23.8709 3.46104 24.2054C3.80609 24.5399 4.00163 24.91 4.85319 25.4436C5.70475 25.9771 7.04869 26.2654 7.97332 25.9966C8.89795 25.7277 9.0506 24.7436 9.52326 24.5941C9.99592 24.4446 10.1683 24.9792 10.1683 25.5125C10.1683 26.0458 10.0541 26.3246 9.52326 26.8734C8.99241 27.4222 8.13319 27.8403 7.3488 27.8403C6.56441 27.8403 5.92853 27.758 4.85319 27.4222C3.77785 27.0864 3.18541 26.2711 2.76154 25.781C2.33767 25.2909 2.08759 25.1198 1.79659 24.7436C1.58725 24.4729 1.14989 23.625 0.754719 22.9469C0.600589 22.6824 0.281813 22.5635 0.241873 22.3352C0.235896 22.3011 0 22.0221 0 22.0221V16.8588V12.5579L3.13379 8.42415L6.16316 6.55525L9.20665 5.13948L14.4032 2.65476L15.9848 0.00282288H21.3731Z" fill="white"/>
</mask>
<g mask="url(#mask6_3744:219976)">
<path fill-rule="evenodd" clip-rule="evenodd" d="M2.77436 24.115C2.8313 24.403 3.03519 24.628 3.33743 24.931C3.63966 25.234 4.15832 25.6592 4.10742 25.4018C4.05653 25.1445 3.48049 24.3062 3.17607 24.115C2.87164 23.9239 2.71743 23.8271 2.77436 24.115Z" fill="#009000"/>
<path fill-rule="evenodd" clip-rule="evenodd" d="M0.487255 21.9226C0.544192 22.2105 0.748082 22.4355 1.05032 22.7385C1.35255 23.0416 1.87121 23.4668 1.82032 23.2094C1.76942 22.952 1.19338 22.1138 0.888958 21.9226C0.584533 21.7315 0.430317 21.6347 0.487255 21.9226Z" fill="#02F900"/>
</g>
<path fill-rule="evenodd" clip-rule="evenodd" d="M8.91676 27.3546C7.98256 27.8354 7.36607 27.6763 6.61968 27.6763C5.87329 27.6763 5.45128 27.6012 4.86653 27.4676C4.28178 27.334 3.74637 26.9125 3.19816 26.4777C2.64994 26.0429 2.63865 25.7152 2.19213 25.3365C1.74561 24.9578 1.24953 24.1532 1.10585 23.8765C0.962168 23.5997 0 22.3358 0 22.2205C0 22.1052 0 21.1845 0 21.1845C0 21.1845 0.928238 22.4729 1.25175 22.738C1.57526 23.0031 2.02399 23.4281 2.19213 23.7953C2.36026 24.1625 2.86914 24.9728 3.19816 25.216C3.52718 25.4593 4.39389 25.8333 4.86653 26.0063C5.33917 26.1793 6.06138 26.6954 7.09983 26.4777C8.13828 26.2599 8.5594 25.7893 8.91676 25.7893C9.27412 25.7893 9.85097 26.8739 8.91676 27.3546Z" fill="#01A1F6"/>
<mask id="mask7_3744:219976" style="mask-type:alpha" maskUnits="userSpaceOnUse" x="0" y="21" width="10" height="7">
<path fill-rule="evenodd" clip-rule="evenodd" d="M8.91676 27.3546C7.98256 27.8354 7.36607 27.6763 6.61968 27.6763C5.87329 27.6763 5.45128 27.6012 4.86653 27.4676C4.28178 27.334 3.74637 26.9125 3.19816 26.4777C2.64994 26.0429 2.63865 25.7152 2.19213 25.3365C1.74561 24.9578 1.24953 24.1532 1.10585 23.8765C0.962168 23.5997 0 22.3358 0 22.2205C0 22.1052 0 21.1845 0 21.1845C0 21.1845 0.928238 22.4729 1.25175 22.738C1.57526 23.0031 2.02399 23.4281 2.19213 23.7953C2.36026 24.1625 2.86914 24.9728 3.19816 25.216C3.52718 25.4593 4.39389 25.8333 4.86653 26.0063C5.33917 26.1793 6.06138 26.6954 7.09983 26.4777C8.13828 26.2599 8.5594 25.7893 8.91676 25.7893C9.27412 25.7893 9.85097 26.8739 8.91676 27.3546Z" fill="white"/>
</mask>
<g mask="url(#mask7_3744:219976)">
<path fill-rule="evenodd" clip-rule="evenodd" d="M8.97764 25.7721C9.27669 25.9338 9.27613 26.4522 8.8744 26.7348C8.47267 27.0175 8.25757 27.1584 7.57175 27.2409C6.88594 27.3234 5.8765 27.031 5.19537 26.5526C4.51424 26.0742 4.27857 25.7753 4.59692 25.9471C4.91527 26.1188 5.24376 26.4611 6.41169 26.5526C7.57963 26.6441 8.67859 25.6103 8.97764 25.7721Z" fill="#0000F6"/>
<path fill-rule="evenodd" clip-rule="evenodd" d="M2.98862 26.0862C2.86777 25.8833 2.86777 25.5323 3.44979 25.7835C4.03181 26.0347 4.34171 26.7856 4.74324 26.8934C5.14477 27.0011 5.52185 27.4219 6.06587 27.4219C6.6099 27.4219 7.39409 27.5898 7.68834 27.5898C7.9826 27.5898 7.88832 27.773 7.35994 27.773C6.83156 27.773 6.20559 27.6658 5.84048 27.6658C5.47537 27.6658 5.20979 27.5771 4.80549 27.4219C4.40118 27.2667 3.10947 26.289 2.98862 26.0862Z" fill="#00EBEB"/>
</g>
<path fill-rule="evenodd" clip-rule="evenodd" d="M16.7965 0.00282288C16.7965 0.00282288 15.8222 0.534501 15.6584 1.26212C15.4947 1.98973 15.4947 2.70269 15.1238 2.98862C14.7529 3.27456 14.6656 3.22317 14.4045 3.43878C14.1433 3.65438 14.2121 3.84104 13.768 4.12864C13.324 4.41624 12.0389 4.91094 11.5392 4.98431C11.0395 5.05767 10.5163 5.13415 10.1135 5.3113C9.71076 5.48845 8.2596 6.08707 7.92141 6.28316C7.58323 6.47925 6.04414 7.36738 5.45219 7.79867C4.86023 8.22995 4.49362 8.08478 4.16856 8.22995C3.84351 8.37512 2.98799 8.74663 2.62761 9.38732C2.26723 10.028 2.05817 10.2554 1.77011 10.6257C1.48204 10.996 1.17233 11.2662 0.873837 11.8259C0.575345 12.3856 8.01105e-05 13.1115 8.01105e-05 13.1115L-0.0175781 12.1021C-0.0175781 12.1021 0.0222633 11.5956 0.768446 10.6257C1.51463 9.65586 3.44672 7.21949 4.02259 7.03793C4.59847 6.85636 5.77255 5.6689 6.10148 5.37942C6.4304 5.08993 7.42275 5.14701 7.92141 4.84537C8.42008 4.54373 9.9333 4.33041 10.3569 3.75541C10.7806 3.18041 11.0807 2.61477 11.6453 2.48918C12.2099 2.3636 13.3829 2.12163 13.768 1.70814C14.1531 1.29464 14.4928 0.647684 14.1662 0.390477C13.8395 0.13327 14.1662 0.00282288 14.1662 0.00282288H16.7965Z" fill="#00FF00"/>
<path fill-rule="evenodd" clip-rule="evenodd" d="M14.2252 0.00282288C14.2252 0.00282288 14.7609 0.266118 14.7609 0.685955C14.7609 1.10579 14.4367 1.54647 14.0771 1.76997C13.7175 1.99346 13.1484 2.59049 12.7205 2.59049C12.2926 2.59049 11.8341 2.61802 11.5571 2.94344C11.2802 3.26887 10.9409 4.01109 10.277 4.24053C9.61308 4.46998 8.66637 4.86095 8.42198 5.1035C8.1776 5.34605 7.51644 5.80599 7.33451 5.50969C7.15258 5.21339 7.13685 5.26338 6.95109 5.26338C6.76532 5.26338 5.90846 5.99681 5.57962 6.2426C5.25078 6.48839 4.58578 7.24197 4.24348 7.19676C3.90118 7.15155 3.26183 7.80731 3.03029 8.05942C2.79876 8.31154 1.95001 9.29564 1.62162 9.75758C1.29324 10.2195 0 12.0073 0 12.0073V11.2421C0 11.2421 0.774124 10.1854 1.16048 9.61764C1.54684 9.04987 1.95965 8.26786 2.91364 7.2998C3.86763 6.33173 5.28847 5.1337 6.29098 4.34554C7.29349 3.55739 8.22625 3.33798 8.56762 2.7236C8.90899 2.10922 8.67366 1.86831 9.01406 1.48286C9.35446 1.09741 9.67546 1.32322 10.1244 0.960792C10.5734 0.598363 10.7805 0.00282288 10.7805 0.00282288L14.2252 0.00282288Z" fill="#0001F6"/>
<path fill-rule="evenodd" clip-rule="evenodd" d="M10.7805 0.00282288C10.7805 0.00282288 10.6249 0.986689 10.1273 1.24147C9.6297 1.49625 9.22727 1.27539 9.0252 1.6253C8.82312 1.97521 9.19205 2.43022 8.78193 2.87229C8.37181 3.31437 7.10616 3.99812 6.44778 4.41273C5.78941 4.82735 3.65253 6.69196 3.03652 7.29209C2.4205 7.89222 0 11.3844 0 11.3844V10.8147C0 10.8147 1.8543 7.38986 2.15027 7.14851C2.44624 6.90715 4.4958 4.74571 4.4958 4.74571C4.4958 4.74571 7.50563 2.80161 7.50563 2.07976C7.50563 1.3579 6.9627 0.786523 6.84479 0.598363C6.72688 0.410202 6.74246 0.00282288 6.74246 0.00282288L10.7805 0.00282288Z" fill="#01A0F6"/>
<path fill-rule="evenodd" clip-rule="evenodd" d="M0 10.2499C0 10.2499 1.38323 7.64922 2.00395 6.91727C2.62466 6.18533 3.18018 5.76947 3.70013 5.08949C3.98333 4.71912 4.42791 4.20008 4.92873 3.76013C5.34741 3.39234 5.82925 3.09469 6.0618 2.84385C6.5725 2.29295 6.57302 2.4322 6.65985 2.04519C6.72338 1.76205 6.44634 1.63593 6.32073 1.38433C6.20805 1.1586 6.32073 0.7735 6.32073 0.711309C6.32073 0.5798 6.0618 0.00282288 6.0618 0.00282288L6.90218 0.00282288C6.90218 0.00282288 6.92663 0.48237 7.08621 0.619835C7.24578 0.7573 7.63089 0.814347 7.84799 1.14712C8.06509 1.4799 7.75543 2.31373 7.50125 2.71069C7.24707 3.10766 6.66478 3.51732 6.32073 3.76013C5.97669 4.00294 5.4865 4.16046 5.18239 4.46503C4.87828 4.7696 4.54847 5.08538 4.11 5.66314C3.67153 6.2409 2.44897 6.93788 2.08898 7.5453C1.72899 8.15273 1.50638 8.61592 1.0279 9.35822C0.549415 10.1005 0 10.8147 0 10.8147V10.2499Z" fill="#00EBEB"/>
<path fill-rule="evenodd" clip-rule="evenodd" d="M1.37668 5.30999C0.96187 5.66436 0.294357 6.48632 0 7.19489C0 7.42698 0 8.05926 0 8.05926C0 8.05926 0.494009 7.08937 0.798032 6.64705C1.10205 6.20473 1.45568 5.65507 1.6601 5.44296C1.86451 5.23084 1.79149 4.95562 1.37668 5.30999Z" fill="#00E8E8"/>
<path fill-rule="evenodd" clip-rule="evenodd" d="M0.85746 16.4557C0.85746 16.7618 0.626112 17.2023 0.85746 17.0895C1.08881 16.9766 1.26096 16.703 1.26096 16.3098C1.26096 15.9166 0.85746 16.1497 0.85746 16.4557Z" fill="#9AD000"/>
<path fill-rule="evenodd" clip-rule="evenodd" d="M4.05578 18.3424C4.4195 18.4773 6.01102 15.852 6.72347 15.3973C7.43592 14.9426 8.22524 14.9958 8.4794 14.6597C8.73356 14.3235 10.788 13.704 9.68078 13.3814C9.1896 13.2382 8.71356 13.4283 8.28018 13.5421C7.73666 13.6848 7.27141 13.7964 7.05472 13.9892C6.66526 14.3358 6.32489 14.9296 5.56156 15.0218C4.79823 15.114 3.69205 18.2074 4.05578 18.3424Z" fill="#FF9001"/>
<path fill-rule="evenodd" clip-rule="evenodd" d="M17.51 1.49414C16.8454 1.49414 16.3832 2.5636 16.0139 2.71284C15.6447 2.86207 15.6896 3.26607 16.1222 3.26607C16.5548 3.26607 17.5381 2.91383 17.8488 2.43744C18.1596 1.96105 18.1747 1.49414 17.51 1.49414Z" fill="#00FF00"/>
</g>
</g>
<path d="M52.1994 3.74609C45.8819 3.74609 40.067 9.38387 40.0511 15.5244L40.0496 16.1212C40.0344 22.0057 44.4323 26.2911 50.4863 26.2911H56.4984L57.8095 19.134H51.2729C48.8854 19.134 47.151 17.4439 47.157 15.1233C47.1627 12.9232 49.2461 10.9032 51.5095 10.9032H59.3172L60.6283 3.74609H52.1994Z" fill="#0F1527"/>
<path d="M64.5565 3.74609H71.7032L68.8843 19.134H76.9243L75.6132 26.2911H60.4265L64.5565 3.74609Z" fill="#0F1527"/>
<path d="M79.4893 26.2911L82.1625 11.6983C84.6818 11.5676 87.1386 11.1937 89.5105 10.5992L86.636 26.2911H79.4893Z" fill="#0F1527"/>
<path d="M82.2245 11.36C85.3364 10.5262 88.1033 8.82247 90.2577 6.5202L90.7659 3.74609H83.6192L82.2245 11.36Z" fill="#0F1527"/>
<path d="M103.268 3.74609H96.1213L96.1215 3.74665H94.692L90.5621 26.2917H97.7088L99.741 15.1979L101.551 20.923L101.55 20.9233H106.911L106.911 20.923L110.816 15.2009L108.784 26.2911H115.931L120.061 3.74609H111.486L105.473 14.1425L103.268 3.74609Z" fill="#0F1527"/>
<path d="M124.027 3.7461L141 3.74609L140.017 9.11396L130.19 9.11396L129.6 12.3347H135.853L134.87 17.7025H128.617L128.027 20.9233H137.853L136.87 26.2911H119.897L124.027 3.7461Z" fill="#0F1527"/>
</svg>
