<svg width="91" height="20" viewBox="0 0 91 20" fill="none" xmlns="http://www.w3.org/2000/svg">
<path d="M10.8953 0C5.23012 0 0.015676 5.00122 0.00142096 10.4484L3.53798e-05 10.9779C-0.0136254 16.1979 3.93014 19.9995 9.35907 19.9995H14.7503L15.926 13.6505H10.0644C7.92342 13.6505 6.36811 12.1512 6.3735 10.0926C6.3786 8.14092 8.24687 6.34905 10.2766 6.34905H17.2781L18.4538 0H10.8953Z" fill="#0F1527"/>
<path d="M21.9763 0H28.3851L25.8573 13.6505H33.0671L31.8914 19.9995H18.2729L21.9763 0Z" fill="#0F1527"/>
<path d="M35.3672 19.9995L37.7644 7.05437C40.0235 6.93839 42.2266 6.6067 44.3536 6.07936L41.7759 19.9995H35.3672Z" fill="#0F1527"/>
<path d="M37.8199 6.75421C40.6105 6.01455 43.0917 4.50321 45.0237 2.46088L45.4794 0H39.0707L37.8199 6.75421Z" fill="#0F1527"/>
<path d="M56.6905 0H50.2818L50.2819 0.00049196H49.0001L45.2966 20H51.7053L53.5277 10.1588L55.1505 15.2375L55.1503 15.2377H59.9571L59.957 15.2375L63.4588 10.1615L61.637 19.9995H68.0457L71.7492 0H64.0603L58.6676 9.22254L56.6905 0Z" fill="#0F1527"/>
<path d="M75.3056 1.81648e-06L90.5263 0L89.6445 4.76179L80.8325 4.76179L80.3035 7.61886H85.9111L85.0293 12.3806H79.4217L78.8926 15.2377H87.7046L86.8228 19.9995H71.6021L75.3056 1.81648e-06Z" fill="#0F1527"/>
</svg>
