<svg viewBox="0 0 24 24" fill="none" xmlns="http://www.w3.org/2000/svg">
<path d="M6.34309 4.92888C5.95257 4.53836 5.3194 4.53836 4.92888 4.92888C4.53836 5.3194 4.53836 5.95257 4.92888 6.34309L10.5857 11.9999L4.92888 17.6568C4.53836 18.0473 4.53836 18.6805 4.92888 19.071C5.3194 19.4615 5.95257 19.4615 6.34309 19.071L11.9999 13.4142L17.6568 19.071C18.0473 19.4615 18.6805 19.4615 19.071 19.071C19.4615 18.6805 19.4615 18.0473 19.071 17.6568L13.4142 11.9999L19.071 6.34309C19.4615 5.95257 19.4615 5.3194 19.071 4.92888C18.6805 4.53836 18.0473 4.53836 17.6568 4.92888L11.9999 10.5857L6.34309 4.92888Z" fill="#3C83E8"/>
</svg>
