<svg width="107" height="24" viewBox="0 0 107 24" fill="none" xmlns="http://www.w3.org/2000/svg">
<g clip-path="url(#clip0_2277_5337)">
<path d="M0.591309 7.04414C0.591309 2.38529 3.49495 0.034729 8.8552 0.034729H24.5218V9.99275H23.2405C22.7008 4.20963 20.1187 1.83222 14.8726 1.83222H11.6387C9.121 1.83222 7.89739 3.08738 7.89739 5.56547V18.4352C7.89739 20.9133 9.12033 22.1684 11.6387 22.1684H14.8746C20.0435 22.1684 22.6733 19.6501 23.2398 13.6837H24.5212V23.9659H8.85588C3.49562 23.9659 0.59198 21.6154 0.59198 16.9565V7.04414H0.591309Z" fill="#575F72"/>
<path d="M52.1815 0.0354009V23.9666H45.8104L30.1545 4.9144V13.4924C30.1545 19.8024 32.6856 22.1423 38.3976 22.7645V23.9666H28.251V0.0354009H35.5792L50.278 17.9278V10.4237C50.278 4.15594 47.7361 1.79262 42.1651 1.23686V0.034729H52.1815V0.0354009Z" fill="#575F72"/>
<path d="M55.9712 0.034729H79.9024V9.99275H78.6211C78.0787 4.18815 75.4993 1.80604 70.2531 1.80604H63.0551V10.7801H65.4936C69.5645 10.7801 71.2955 8.95305 71.7076 5.03387H73.0104V18.1882H71.7076C71.2982 14.2502 69.5725 12.4366 65.4936 12.4366H63.0551V22.1953H70.2558C75.4248 22.1953 78.0546 19.6695 78.6211 13.6837H79.9024V23.9659H55.9712V0.034729Z" fill="#575F72"/>
<path d="M106.781 0.034729V9.99275H105.5C104.947 4.51503 102.657 1.97049 98.3577 1.50803V18.3365C98.3577 21.2616 99.3893 22.4315 103.165 22.6759V23.9653H86.4666V22.6759C90.2428 22.4309 91.2744 21.2616 91.2744 18.3365V1.50736C86.9747 1.96982 84.6852 4.51436 84.1321 9.99208H82.8501V0.034729H106.781Z" fill="#575F72"/>
</g>
<defs>
<clipPath id="clip0_2277_5337">
<rect width="106.264" height="24" fill="white" transform="translate(0.557129)"/>
</clipPath>
</defs>
</svg>
