<svg width="20" height="20" viewBox="0 0 20 20" fill="none" xmlns="http://www.w3.org/2000/svg">
<circle cx="10.0001" cy="9.99999" r="8.33333" fill="url(#paint0_linear_7379_3478)"/>
<g filter="url(#filter0_d_7379_3478)">
<path fill-rule="evenodd" clip-rule="evenodd" d="M9.99984 14.1667C10.4601 14.1667 10.8332 13.7936 10.8332 13.3333L10.8332 9.99999C10.8332 9.53975 10.4601 9.16666 9.99984 9.16666C9.5396 9.16666 9.1665 9.53975 9.1665 9.99999L9.1665 13.3333C9.1665 13.7936 9.5396 14.1667 9.99984 14.1667ZM9.99992 7.49997C10.4602 7.49997 10.8333 7.12687 10.8333 6.66664C10.8333 6.2064 10.4602 5.8333 9.99992 5.8333C9.53968 5.8333 9.16658 6.2064 9.16658 6.66664C9.16658 7.12687 9.53968 7.49997 9.99992 7.49997Z" fill="white"/>
</g>
<defs>
<filter id="filter0_d_7379_3478" x="7.49984" y="4.99998" width="5.00008" height="11.6667" filterUnits="userSpaceOnUse" color-interpolation-filters="sRGB">
<feFlood flood-opacity="0" result="BackgroundImageFix"/>
<feColorMatrix in="SourceAlpha" type="matrix" values="0 0 0 0 0 0 0 0 0 0 0 0 0 0 0 0 0 0 127 0" result="hardAlpha"/>
<feOffset dy="0.833333"/>
<feGaussianBlur stdDeviation="0.833333"/>
<feComposite in2="hardAlpha" operator="out"/>
<feColorMatrix type="matrix" values="0 0 0 0 0 0 0 0 0 0 0 0 0 0 0 0 0 0 0.2 0"/>
<feBlend mode="normal" in2="BackgroundImageFix" result="effect1_dropShadow_7379_3478"/>
<feBlend mode="normal" in="SourceGraphic" in2="effect1_dropShadow_7379_3478" result="shape"/>
</filter>
<linearGradient id="paint0_linear_7379_3478" x1="10.0001" y1="1.66666" x2="10.0001" y2="18.3333" gradientUnits="userSpaceOnUse">
<stop stop-color="#369FFF"/>
<stop offset="1" stop-color="#1C72EB"/>
</linearGradient>
</defs>
</svg>
