<svg width="40" height="40" viewBox="0 0 40 40" fill="none" xmlns="http://www.w3.org/2000/svg">
<path opacity="0.2" d="M20.0005 35C24.833 35 28.7505 31.2286 28.7505 26.5764C28.7505 22.1983 26.1315 15.2991 20.8936 5.8785C20.8127 5.73287 20.7133 5.55535 20.5956 5.34595L20.5956 5.34592C20.4132 5.02152 19.9989 4.90448 19.6703 5.08452C19.5589 5.14549 19.4672 5.23606 19.4054 5.34592C19.2882 5.55434 19.1893 5.73109 19.1086 5.87615C13.8699 15.2979 11.2505 22.198 11.2505 26.5764C11.2505 31.2286 15.168 35 20.0005 35Z" fill="#3C83E8"/>
<path opacity="0.5" d="M11.2505 26.5765C11.2505 31.2287 15.168 35.0001 20.0005 35.0001C24.833 35.0001 28.7505 31.2287 28.7505 26.5765C28.7505 26.083 28.7172 25.5575 28.6507 25C28.6507 25 27.5005 23.75 23.7505 23.75C20.0005 23.75 20.0005 26.25 16.2505 26.25C12.5005 26.25 11.3503 25 11.3503 25C11.2838 25.5575 11.2505 26.083 11.2505 26.5765Z" fill="url(#paint0_radial)"/>
<path d="M28.7505 26.5765C28.7505 31.2287 24.833 35.0001 20.0005 35.0001C15.168 35.0001 11.2505 31.2287 11.2505 26.5765C11.2505 26.083 11.2838 25.5575 11.3503 25C11.3503 25 12.5005 23.75 16.2505 23.75C20.0005 23.75 20.0005 26.25 23.7505 26.25C27.5005 26.25 28.6507 25 28.6507 25C28.7172 25.5575 28.7505 26.083 28.7505 26.5765Z" fill="url(#paint1_radial)"/>
<defs>
<radialGradient id="paint0_radial" cx="0" cy="0" r="1" gradientUnits="userSpaceOnUse" gradientTransform="translate(20.0005 -6.66652) rotate(90) scale(41.6667 83.546)">
<stop stop-color="#D0E3FF"/>
<stop offset="1" stop-color="#3A82E8"/>
</radialGradient>
<radialGradient id="paint1_radial" cx="0" cy="0" r="1" gradientUnits="userSpaceOnUse" gradientTransform="translate(20.0005 -6.66652) rotate(90) scale(41.6666 83.546)">
<stop stop-color="#D0E3FF"/>
<stop offset="1" stop-color="#3A82E8"/>
</radialGradient>
</defs>
</svg>
