<svg width="40" height="40" viewBox="0 0 40 40" fill="none" xmlns="http://www.w3.org/2000/svg">
<path opacity="0.2" d="M20.0005 35C24.833 35 28.7505 31.2286 28.7505 26.5764C28.7505 22.1983 26.1315 15.2991 20.8936 5.8785C20.8127 5.73287 20.7133 5.55535 20.5956 5.34595L20.5956 5.34592C20.4132 5.02152 19.9989 4.90448 19.6703 5.08452C19.5589 5.14549 19.4672 5.23606 19.4054 5.34592C19.2882 5.55434 19.1893 5.73109 19.1086 5.87615C13.8699 15.2979 11.2505 22.198 11.2505 26.5764C11.2505 31.2286 15.168 35 20.0005 35Z" fill="#3C83E8"/>
<path opacity="0.5" d="M11.2505 26.5765C11.2505 31.2287 15.168 35.0001 20.0005 35.0001C24.833 35.0001 28.7505 31.2287 28.7505 26.5765C28.7505 24.5226 28.1741 21.9137 27.0212 18.75C27.0212 18.75 25.6255 17.5 23.1255 17.5C20.6255 17.5 19.3755 20 16.8755 20C14.3755 20 12.9799 18.75 12.9799 18.75C11.827 21.9137 11.2505 24.5226 11.2505 26.5765Z" fill="url(#paint0_radial)"/>
<path d="M28.7505 26.5765C28.7505 31.2287 24.833 35.0001 20.0005 35.0001C15.168 35.0001 11.2505 31.2287 11.2505 26.5765C11.2505 24.5226 11.8269 21.9137 12.9798 18.75C12.9798 18.75 14.3755 17.5 16.8755 17.5C19.3755 17.5 20.6255 20 23.1255 20C25.6255 20 27.0211 18.75 27.0211 18.75C28.174 21.9137 28.7505 24.5226 28.7505 26.5765Z" fill="url(#paint1_radial)"/>
<defs>
<radialGradient id="paint0_radial" cx="0" cy="0" r="1" gradientUnits="userSpaceOnUse" gradientTransform="translate(20.0005 -6.66653) rotate(90) scale(41.6667 83.546)">
<stop stop-color="#D0E3FF"/>
<stop offset="1" stop-color="#3A82E8"/>
</radialGradient>
<radialGradient id="paint1_radial" cx="0" cy="0" r="1" gradientUnits="userSpaceOnUse" gradientTransform="translate(20.0005 -6.66653) rotate(90) scale(41.6667 83.546)">
<stop stop-color="#D0E3FF"/>
<stop offset="1" stop-color="#3A82E8"/>
</radialGradient>
</defs>
</svg>
