<svg viewBox="0 0 40 40" fill="none" xmlns="http://www.w3.org/2000/svg">
<path fill-rule="evenodd" clip-rule="evenodd" d="M3.33325 11.3636C3.33325 10.6105 3.94377 10 4.69689 10H25.3029C26.0561 10 26.6666 10.6105 26.6666 11.3636C26.6666 12.1168 26.0561 12.7273 25.3029 12.7273H4.69689C3.94377 12.7273 3.33325 12.1168 3.33325 11.3636ZM6.66659 28.0302C6.66659 27.2771 7.27711 26.6666 8.03023 26.6666H28.6363C29.3894 26.6666 29.9999 27.2771 29.9999 28.0302C29.9999 28.7833 29.3894 29.3939 28.6363 29.3939H8.03023C7.27711 29.3939 6.66659 28.7833 6.66659 28.0302ZM13.0302 18.3334C12.2771 18.3334 11.6666 18.9439 11.6666 19.697C11.6666 20.4502 12.2771 21.0607 13.0302 21.0607H33.6363C34.3894 21.0607 34.9999 20.4502 34.9999 19.697C34.9999 18.9439 34.3894 18.3334 33.6363 18.3334H13.0302Z" fill="#CAE6FA"/>
<path fill-rule="evenodd" clip-rule="evenodd" d="M3.33325 11.3636C3.33325 10.6105 3.94377 10 4.69689 10H25.3029C26.0561 10 26.6666 10.6105 26.6666 11.3636C26.6666 12.1168 26.0561 12.7273 25.3029 12.7273H4.69689C3.94377 12.7273 3.33325 12.1168 3.33325 11.3636ZM6.66659 28.0302C6.66659 27.2771 7.27711 26.6666 8.03023 26.6666H28.6363C29.3894 26.6666 29.9999 27.2771 29.9999 28.0302C29.9999 28.7833 29.3894 29.3939 28.6363 29.3939H8.03023C7.27711 29.3939 6.66659 28.7833 6.66659 28.0302ZM13.0302 18.3334C12.2771 18.3334 11.6666 18.9439 11.6666 19.697C11.6666 20.4502 12.2771 21.0607 13.0302 21.0607H33.6363C34.3894 21.0607 34.9999 20.4502 34.9999 19.697C34.9999 18.9439 34.3894 18.3334 33.6363 18.3334H13.0302Z" fill="url(#paint0_linear)" fill-opacity="0.25"/>
<defs>
<linearGradient id="paint0_linear" x1="35.4545" y1="20" x2="3.63632" y2="20" gradientUnits="userSpaceOnUse">
<stop stop-color="white"/>
<stop offset="1" stop-color="white" stop-opacity="0"/>
</linearGradient>
</defs>
</svg>
