<svg viewBox="0 0 40 40" fill="none" xmlns="http://www.w3.org/2000/svg">
<path d="M10.945 27.2727C7.15366 27.2727 4.54541 24.9267 4.54541 21.5453C4.54541 18.8848 6.27976 16.7222 8.90145 15.9752C9.37201 11.0473 13.5936 7.27271 18.6219 7.27271C22.4536 7.27271 25.6131 9.1862 27.3474 12.5807C31.9589 12.5414 35.4545 15.7 35.4545 19.907C35.4545 24.0486 32.0799 27.2727 27.7104 27.2727H10.945Z" fill="#CAE6FA"/>
<path d="M10.945 27.2727C7.15366 27.2727 4.54541 24.9267 4.54541 21.5453C4.54541 18.8848 6.27976 16.7222 8.90145 15.9752C9.37201 11.0473 13.5936 7.27271 18.6219 7.27271C22.4536 7.27271 25.6131 9.1862 27.3474 12.5807C31.9589 12.5414 35.4545 15.7 35.4545 19.907C35.4545 24.0486 32.0799 27.2727 27.7104 27.2727H10.945Z" fill="url(#paint0_linear)" fill-opacity="0.5"/>
<path d="M17.0682 34.204C17.5626 33.9344 18.203 34.2553 18.1812 34.7618L18.1225 36.1256C18.0926 36.8206 17.6688 37.4578 16.9903 37.8278L15.659 38.5538C15.1645 38.8235 14.5242 38.5025 14.546 37.996L14.6046 36.6323C14.6346 35.9373 15.0584 35.3 15.7369 34.93L17.0682 34.204Z" fill="#63A1FF"/>
<path d="M17.0682 34.204C17.5626 33.9344 18.203 34.2553 18.1812 34.7618L18.1225 36.1256C18.0926 36.8206 17.6688 37.4578 16.9903 37.8278L15.659 38.5538C15.1645 38.8235 14.5242 38.5025 14.546 37.996L14.6046 36.6323C14.6346 35.9373 15.0584 35.3 15.7369 34.93L17.0682 34.204Z" fill="url(#paint1_linear)" fill-opacity="0.2"/>
<path d="M23.432 34.204C23.9264 33.9344 24.5668 34.2553 24.545 34.7618L24.4863 36.1256C24.4564 36.8206 24.0325 37.4578 23.3541 37.8278L22.0227 38.5538C21.5283 38.8235 20.8879 38.5025 20.9097 37.996L20.9684 36.6323C20.9983 35.9373 21.4222 35.3 22.1007 34.93L23.432 34.204Z" fill="#63A1FF"/>
<path d="M23.432 34.204C23.9264 33.9344 24.5668 34.2553 24.545 34.7618L24.4863 36.1256C24.4564 36.8206 24.0325 37.4578 23.3541 37.8278L22.0227 38.5538C21.5283 38.8235 20.8879 38.5025 20.9097 37.996L20.9684 36.6323C20.9983 35.9373 21.4222 35.3 22.1007 34.93L23.432 34.204Z" fill="url(#paint2_linear)" fill-opacity="0.2"/>
<path d="M10.7047 34.204C11.1991 33.9344 11.8395 34.2553 11.8177 34.7618L11.759 36.1256C11.7291 36.8206 11.3052 37.4578 10.6268 37.8278L9.29545 38.5538C8.80101 38.8235 8.16063 38.5025 8.18243 37.996L8.24112 36.6323C8.27103 35.9373 8.69489 35.3 9.37338 34.93L10.7047 34.204Z" fill="#63A1FF"/>
<path d="M10.7047 34.204C11.1991 33.9344 11.8395 34.2553 11.8177 34.7618L11.759 36.1256C11.7291 36.8206 11.3052 37.4578 10.6268 37.8278L9.29545 38.5538C8.80101 38.8235 8.16063 38.5025 8.18243 37.996L8.24112 36.6323C8.27103 35.9373 8.69489 35.3 9.37338 34.93L10.7047 34.204Z" fill="url(#paint3_linear)" fill-opacity="0.2"/>
<path d="M9.09102 30.9091L8.63647 31.8181" stroke="#63A1FF" stroke-width="1.81818" stroke-linecap="round" stroke-linejoin="round"/>
<path d="M15.4545 30.9091L15 31.8181" stroke="#63A1FF" stroke-width="1.81818" stroke-linecap="round" stroke-linejoin="round"/>
<path d="M21.8181 30.9091L21.3635 31.8181" stroke="#63A1FF" stroke-width="1.81818" stroke-linecap="round" stroke-linejoin="round"/>
<path d="M28.1818 30.9091L27.7273 31.8181" stroke="#63A1FF" stroke-width="1.81818" stroke-linecap="round" stroke-linejoin="round"/>
<defs>
<linearGradient id="paint0_linear" x1="20" y1="7.27271" x2="20" y2="27.2727" gradientUnits="userSpaceOnUse">
<stop stop-color="white"/>
<stop offset="1" stop-color="white" stop-opacity="0"/>
</linearGradient>
<linearGradient id="paint1_linear" x1="16.3636" y1="34.1062" x2="16.3636" y2="38.6517" gradientUnits="userSpaceOnUse">
<stop stop-color="white" stop-opacity="0"/>
<stop offset="1" stop-color="white"/>
</linearGradient>
<linearGradient id="paint2_linear" x1="22.7274" y1="34.1062" x2="22.7274" y2="38.6517" gradientUnits="userSpaceOnUse">
<stop stop-color="white" stop-opacity="0"/>
<stop offset="1" stop-color="white"/>
</linearGradient>
<linearGradient id="paint3_linear" x1="10.0001" y1="34.1062" x2="10.0001" y2="38.6517" gradientUnits="userSpaceOnUse">
<stop stop-color="white" stop-opacity="0"/>
<stop offset="1" stop-color="white"/>
</linearGradient>
</defs>
</svg>
