<svg viewBox="0 0 40 40" fill="none" xmlns="http://www.w3.org/2000/svg">
<path fill-rule="evenodd" clip-rule="evenodd" d="M9.24461 23.2297C9.57195 23.2297 9.80108 22.9276 9.76835 22.5752L9.62105 20.9811L10.914 21.9208C11.1759 22.1222 11.5523 22.0551 11.7324 21.7698C11.9124 21.4845 11.7978 21.0818 11.4541 20.914L10.0466 20.2596L11.4705 19.5548C11.7978 19.4038 11.896 19.0178 11.7487 18.7326C11.5851 18.4473 11.1759 18.3802 10.914 18.5816L9.63741 19.5212L9.78472 17.9271C9.81745 17.558 9.57195 17.2727 9.24461 17.2727C8.86818 17.2727 8.65541 17.558 8.67178 17.9271L8.80271 19.5212L7.5261 18.5816C7.26423 18.3802 6.8878 18.4305 6.70776 18.7326C6.5441 19.0178 6.6423 19.387 6.986 19.5548L8.39354 20.2428L6.96963 20.9308C6.6423 21.0818 6.52773 21.4677 6.6914 21.7698C6.85506 22.0718 7.26423 22.1222 7.5261 21.9208L8.80271 20.9979L8.68814 22.5752C8.65541 22.9276 8.86818 23.2297 9.24461 23.2297Z" fill="#63A1FF"/>
<path fill-rule="evenodd" clip-rule="evenodd" d="M30.0825 31.4116C30.4098 31.4116 30.639 31.1095 30.6062 30.7571L30.4589 29.163L31.7519 30.1027C32.0138 30.3041 32.3902 30.2369 32.5703 29.9517C32.7503 29.6664 32.6357 29.2637 32.292 29.0959L30.8845 28.4415L32.3084 27.7367C32.6357 27.5857 32.7339 27.1997 32.5866 26.9145C32.423 26.6292 32.0138 26.5621 31.7519 26.7634L30.4753 27.7031L30.6226 26.109C30.6553 25.7399 30.4098 25.4546 30.0825 25.4546C29.7061 25.4546 29.4933 25.7399 29.5097 26.109L29.6406 27.7031L28.364 26.7634C28.1021 26.5621 27.7257 26.6124 27.5457 26.9145C27.382 27.1997 27.4802 27.5689 27.8239 27.7367L29.2314 28.4247L27.8075 29.1127C27.4802 29.2637 27.3656 29.6496 27.5293 29.9517C27.693 30.2537 28.1021 30.3041 28.364 30.1027L29.6406 29.1798L29.526 30.7571C29.4933 31.1095 29.7061 31.4116 30.0825 31.4116Z" fill="#63A1FF"/>
<path fill-rule="evenodd" clip-rule="evenodd" d="M3.63647 12.2727C3.63647 11.5196 4.247 10.9091 5.00011 10.9091C5.75323 10.9091 6.36375 11.5196 6.36375 12.2727C6.36375 13.0258 5.75323 13.6363 5.00011 13.6363C4.247 13.6363 3.63647 13.0258 3.63647 12.2727ZM7.72727 27.2727C6.97416 27.2727 6.36364 27.8832 6.36364 28.6364C6.36364 29.3895 6.97416 30 7.72727 30C8.48039 30 9.09091 29.3895 9.09091 28.6364C9.09091 27.8832 8.48039 27.2727 7.72727 27.2727ZM12.2727 27.2727C11.5196 27.2727 10.9091 27.8832 10.9091 28.6364C10.9091 29.3895 11.5196 30 12.2727 30H23.2291C23.9822 30 24.5927 29.3895 24.5927 28.6364C24.5927 27.8832 23.9822 27.2727 23.2291 27.2727H12.2727ZM9.54545 10.9091C8.79234 10.9091 8.18182 11.5196 8.18182 12.2727C8.18182 13.0258 8.79234 13.6364 9.54545 13.6364C10.2986 13.6364 10.9091 13.0258 10.9091 12.2727C10.9091 11.5196 10.2986 10.9091 9.54545 10.9091ZM12.8471 12.2727C12.8471 11.5196 13.4576 10.9091 14.2108 10.9091H24.7065C25.4596 10.9091 26.0701 11.5196 26.0701 12.2727C26.0701 13.0258 25.4596 13.6364 24.7065 13.6364H14.2108C13.4576 13.6364 12.8471 13.0258 12.8471 12.2727ZM29.5455 10.9091C28.7923 10.9091 28.1818 11.5196 28.1818 12.2727C28.1818 13.0258 28.7923 13.6364 29.5455 13.6364C30.2986 13.6364 30.9091 13.0258 30.9091 12.2727C30.9091 11.5196 30.2986 10.9091 29.5455 10.9091ZM17.2727 20.4545C17.2727 19.7014 17.8832 19.0909 18.6364 19.0909H30.4545C31.2077 19.0909 31.8182 19.7014 31.8182 20.4545C31.8182 21.2077 31.2077 21.8182 30.4545 21.8182H18.6364C17.8832 21.8182 17.2727 21.2077 17.2727 20.4545ZM35 19.0909C34.2469 19.0909 33.6364 19.7014 33.6364 20.4545C33.6364 21.2077 34.2469 21.8182 35 21.8182C35.7531 21.8182 36.3636 21.2077 36.3636 20.4545C36.3636 19.7014 35.7531 19.0909 35 19.0909Z" fill="#63A1FF"/>
<path fill-rule="evenodd" clip-rule="evenodd" d="M3.63647 12.2727C3.63647 11.5196 4.247 10.9091 5.00011 10.9091C5.75323 10.9091 6.36375 11.5196 6.36375 12.2727C6.36375 13.0258 5.75323 13.6363 5.00011 13.6363C4.247 13.6363 3.63647 13.0258 3.63647 12.2727ZM7.72727 27.2727C6.97416 27.2727 6.36364 27.8832 6.36364 28.6364C6.36364 29.3895 6.97416 30 7.72727 30C8.48039 30 9.09091 29.3895 9.09091 28.6364C9.09091 27.8832 8.48039 27.2727 7.72727 27.2727ZM12.2727 27.2727C11.5196 27.2727 10.9091 27.8832 10.9091 28.6364C10.9091 29.3895 11.5196 30 12.2727 30H23.2291C23.9822 30 24.5927 29.3895 24.5927 28.6364C24.5927 27.8832 23.9822 27.2727 23.2291 27.2727H12.2727ZM9.54545 10.9091C8.79234 10.9091 8.18182 11.5196 8.18182 12.2727C8.18182 13.0258 8.79234 13.6364 9.54545 13.6364C10.2986 13.6364 10.9091 13.0258 10.9091 12.2727C10.9091 11.5196 10.2986 10.9091 9.54545 10.9091ZM12.8471 12.2727C12.8471 11.5196 13.4576 10.9091 14.2108 10.9091H24.7065C25.4596 10.9091 26.0701 11.5196 26.0701 12.2727C26.0701 13.0258 25.4596 13.6364 24.7065 13.6364H14.2108C13.4576 13.6364 12.8471 13.0258 12.8471 12.2727ZM29.5455 10.9091C28.7923 10.9091 28.1818 11.5196 28.1818 12.2727C28.1818 13.0258 28.7923 13.6364 29.5455 13.6364C30.2986 13.6364 30.9091 13.0258 30.9091 12.2727C30.9091 11.5196 30.2986 10.9091 29.5455 10.9091ZM17.2727 20.4545C17.2727 19.7014 17.8832 19.0909 18.6364 19.0909H30.4545C31.2077 19.0909 31.8182 19.7014 31.8182 20.4545C31.8182 21.2077 31.2077 21.8182 30.4545 21.8182H18.6364C17.8832 21.8182 17.2727 21.2077 17.2727 20.4545ZM35 19.0909C34.2469 19.0909 33.6364 19.7014 33.6364 20.4545C33.6364 21.2077 34.2469 21.8182 35 21.8182C35.7531 21.8182 36.3636 21.2077 36.3636 20.4545C36.3636 19.7014 35.7531 19.0909 35 19.0909Z" fill="url(#paint0_linear)" fill-opacity="0.25"/>
<defs>
<linearGradient id="paint0_linear" x1="36.8334" y1="20.7528" x2="3.94969" y2="20.7528" gradientUnits="userSpaceOnUse">
<stop stop-color="white"/>
<stop offset="1" stop-color="white" stop-opacity="0"/>
</linearGradient>
</defs>
</svg>
