<svg width="24" height="24" viewBox="0 0 24 24" fill="none" xmlns="http://www.w3.org/2000/svg">
<path fill-rule="evenodd" clip-rule="evenodd" d="M21 16C21 15.4477 20.5522 15 20 15C19.4477 15 18.9999 15.4477 18.9999 16L18.9999 19.0001H16C15.4477 19.0001 15 19.4478 15 20.0001C15 20.5524 15.4477 21.0001 16 21.0001H20C20.5523 21.0001 21 20.5524 21 20.0001C21 19.996 21 19.9919 21 19.9878V16Z" fill="#3C83E8"/>
<path opacity="0.5" d="M15.2499 15.25L19.4926 19.4927" stroke="#3C83E8" stroke-width="1.50001" stroke-linecap="round"/>
<path fill-rule="evenodd" clip-rule="evenodd" d="M3.00004 8C3.00004 8.55228 3.44776 9 4.00005 9C4.55233 9 5.00005 8.55228 5.00005 8L5.00005 4.99994L7.99999 4.99994C8.55228 4.99994 9 4.55222 9 3.99993C9 3.44764 8.55228 2.99993 7.99999 2.99993L3.99997 2.99993C3.44769 2.99993 2.99997 3.44764 2.99997 3.99993C2.99997 4.00402 2.99999 4.0081 3.00004 4.01218L3.00004 8Z" fill="#3C83E8"/>
<path opacity="0.5" d="M8.75006 8.75L4.5074 4.50734" stroke="#3C83E8" stroke-width="1.50001" stroke-linecap="round"/>
<path fill-rule="evenodd" clip-rule="evenodd" d="M16 2.99993C15.4477 2.99993 15 3.44764 15 3.99993C15 4.55222 15.4477 4.99994 16 4.99994L18.9999 4.99994L18.9999 7.99999C18.9999 8.55228 19.4477 9 20 9C20.5522 9 21 8.55228 21 7.99999L21 4.01222C21 4.00813 21 4.00403 21 3.99993C21 3.44764 20.5523 2.99993 20 2.99993L16 2.99993Z" fill="#3C83E8"/>
<path opacity="0.5" d="M15.2499 8.75L19.4926 4.50734" stroke="#3C83E8" stroke-width="1.50001" stroke-linecap="round"/>
<path fill-rule="evenodd" clip-rule="evenodd" d="M8 21.0001C8.55228 21.0001 9 20.5524 9 20.0001C9 19.4478 8.55228 19.0001 8 19.0001L5.00005 19.0001L5.00005 16C5.00005 15.4477 4.55234 15 4.00005 15C3.44776 15 3.00004 15.4477 3.00004 16L3.00004 19.9877C2.99999 19.9918 2.99997 19.996 2.99997 20.0001C2.99997 20.5524 3.44769 21.0001 3.99997 21.0001L8 21.0001Z" fill="#3C83E8"/>
<path opacity="0.5" d="M8.75006 15.25L4.5074 19.4927" stroke="#3C83E8" stroke-width="1.50001" stroke-linecap="round"/>
</svg>
