<svg width="24" height="24" viewBox="0 0 24 24" fill="none" xmlns="http://www.w3.org/2000/svg">
<path fill-rule="evenodd" clip-rule="evenodd" d="M15 20C15 20.5523 15.4478 21 16 21C16.5523 21 17.0001 20.5523 17.0001 20L17.0001 16.9999L20 16.9999C20.5523 16.9999 21 16.5522 21 15.9999C21 15.4476 20.5523 14.9999 20 14.9999L16 14.9999C15.4477 14.9999 15 15.4476 15 15.9999C15 16.004 15 16.0081 15 16.0122L15 20Z" fill="#3C83E8"/>
<path opacity="0.5" d="M20.7501 20.75L16.5074 16.5073" stroke="#3C83E8" stroke-width="1.50001" stroke-linecap="round"/>
<path fill-rule="evenodd" clip-rule="evenodd" d="M8.9999 4.00001C8.9999 3.44772 8.55218 3 7.99989 3C7.4476 3 6.99989 3.44772 6.99989 4.00001L6.99989 7.00006L3.99994 7.00006C3.44766 7.00006 2.99994 7.44778 2.99994 8.00007C2.99994 8.55236 3.44766 9.00007 3.99994 9.00007H7.99997C8.55225 9.00007 8.99997 8.55236 8.99997 8.00007C8.99997 7.99598 8.99995 7.9919 8.9999 7.98782V4.00001Z" fill="#3C83E8"/>
<path opacity="0.5" d="M3.24988 3.25L7.49254 7.49266" stroke="#3C83E8" stroke-width="1.50001" stroke-linecap="round"/>
<path fill-rule="evenodd" clip-rule="evenodd" d="M20 9.00007C20.5523 9.00007 21 8.55236 21 8.00007C21 7.44778 20.5523 7.00006 20 7.00006L17.0001 7.00006L17.0001 4.00001C17.0001 3.44772 16.5523 3 16 3C15.4478 3 15 3.44772 15 4.00001L15 7.98778C15 7.99187 15 7.99597 15 8.00007C15 8.55236 15.4477 9.00007 16 9.00007L20 9.00007Z" fill="#3C83E8"/>
<path opacity="0.5" d="M20.7501 3.25L16.5074 7.49266" stroke="#3C83E8" stroke-width="1.50001" stroke-linecap="round"/>
<path fill-rule="evenodd" clip-rule="evenodd" d="M4 14.9999C3.44772 14.9999 3 15.4476 3 15.9999C3 16.5522 3.44772 16.9999 4.00001 16.9999L6.99995 16.9999L6.99995 20C6.99995 20.5523 7.44766 21 7.99995 21C8.55224 21 8.99996 20.5523 8.99996 20L8.99996 16.0123C9.00001 16.0082 9.00003 16.004 9.00003 15.9999C9.00003 15.4476 8.55231 14.9999 8.00003 14.9999L4 14.9999Z" fill="#3C83E8"/>
<path opacity="0.5" d="M3.24994 20.75L7.4926 16.5073" stroke="#3C83E8" stroke-width="1.50001" stroke-linecap="round"/>
</svg>
