<svg width="203" height="60" viewBox="0 0 203 60" fill="none" xmlns="http://www.w3.org/2000/svg">
<g clip-path="url(#clip0_134_7129)">
<path d="M195 0H7.5C3.35786 0 0 3.35786 0 7.5V52.5C0 56.6421 3.35786 60 7.5 60H195C199.142 60 202.5 56.6421 202.5 52.5V7.5C202.5 3.35786 199.142 0 195 0Z" fill="black"/>
<path d="M195 1.2C196.671 1.2 198.273 1.86375 199.455 3.04523C200.636 4.22671 201.3 5.82914 201.3 7.5V52.5C201.3 54.1709 200.636 55.7733 199.455 56.9548C198.273 58.1363 196.671 58.8 195 58.8H7.5C5.82914 58.8 4.22671 58.1363 3.04523 56.9548C1.86375 55.7733 1.2 54.1709 1.2 52.5V7.5C1.2 5.82914 1.86375 4.22671 3.04523 3.04523C4.22671 1.86375 5.82914 1.2 7.5 1.2H195ZM195 0H7.5C5.51088 0 3.60322 0.790176 2.1967 2.1967C0.790176 3.60322 0 5.51088 0 7.5L0 52.5C0 54.4891 0.790176 56.3968 2.1967 57.8033C3.60322 59.2098 5.51088 60 7.5 60H195C196.989 60 198.897 59.2098 200.303 57.8033C201.71 56.3968 202.5 54.4891 202.5 52.5V7.5C202.5 5.51088 201.71 3.60322 200.303 2.1967C198.897 0.790176 196.989 0 195 0V0Z" fill="#A6A6A6"/>
<path d="M71.1299 15.36C71.1545 15.9101 71.0676 16.4594 70.8742 16.975C70.6809 17.4906 70.3852 17.9617 70.0049 18.36C69.5788 18.7999 69.0646 19.1449 68.4959 19.3724C67.9272 19.5998 67.3169 19.7047 66.7049 19.68C66.0894 19.6937 65.4776 19.5809 64.9074 19.3487C64.3372 19.1165 63.8207 18.7698 63.3899 18.33C62.9455 17.8987 62.5949 17.3804 62.36 16.8074C62.1252 16.2344 62.0111 15.6191 62.0249 15C62.009 14.3784 62.1221 13.7602 62.357 13.1845C62.5919 12.6087 62.9436 12.088 63.3899 11.655C64.0582 11.002 64.9045 10.5611 65.8226 10.3876C66.7406 10.2141 67.6895 10.3158 68.5499 10.68C69.0908 10.9023 69.5733 11.2462 69.9599 11.685L69.1649 12.48C68.867 12.1211 68.4896 11.8367 68.0626 11.6492C67.6355 11.4617 67.1707 11.3764 66.7049 11.4C66.2364 11.3977 65.7722 11.49 65.3402 11.6714C64.9082 11.8529 64.5173 12.1197 64.191 12.4559C63.8646 12.792 63.6095 13.1907 63.4409 13.6278C63.2723 14.065 63.1938 14.5317 63.2099 15C63.2001 15.6992 63.3976 16.3856 63.7774 16.9727C64.1573 17.5598 64.7025 18.0213 65.3443 18.2988C65.9861 18.5764 66.6958 18.6577 67.3837 18.5324C68.0717 18.4072 68.7071 18.081 69.2099 17.595C69.6724 17.0941 69.9434 16.446 69.9749 15.765H66.7049V14.685H71.0699C71.1035 14.9086 71.1235 15.134 71.1299 15.36Z" fill="white" stroke="white" stroke-width="0.2" stroke-miterlimit="10"/>
<path d="M78 11.61H73.95V14.46H77.64V15.54H73.95V18.39H78V19.5H72.78V10.5H78V11.61Z" fill="white" stroke="white" stroke-width="0.2" stroke-miterlimit="10"/>
<path d="M82.9201 19.5H81.7651V11.61H79.2451V10.5H85.5001V11.61H82.9201V19.5Z" fill="white" stroke="white" stroke-width="0.2" stroke-miterlimit="10"/>
<path d="M89.9099 19.5V10.5H91.0649V19.5H89.9099Z" fill="white" stroke="white" stroke-width="0.2" stroke-miterlimit="10"/>
<path d="M96.195 19.5H95.04V11.61H92.52V10.5H98.7V11.61H96.195V19.5Z" fill="white" stroke="white" stroke-width="0.2" stroke-miterlimit="10"/>
<path d="M110.415 18.33C109.982 18.7636 109.467 19.1075 108.901 19.3422C108.335 19.5769 107.728 19.6977 107.115 19.6977C106.502 19.6977 105.895 19.5769 105.329 19.3422C104.763 19.1075 104.248 18.7636 103.815 18.33C103.379 17.8949 103.036 17.3748 102.809 16.802C102.582 16.2292 102.475 15.6158 102.495 15C102.475 14.3841 102.582 13.7708 102.809 13.198C103.036 12.6252 103.379 12.1051 103.815 11.67C104.239 11.2242 104.752 10.8723 105.32 10.6372C105.889 10.4021 106.5 10.2889 107.115 10.305C107.729 10.2953 108.339 10.4114 108.906 10.6461C109.474 10.8809 109.987 11.2293 110.415 11.67C110.846 12.1087 111.185 12.6294 111.412 13.2014C111.639 13.7733 111.749 14.3849 111.735 15C111.755 15.6158 111.648 16.2292 111.421 16.802C111.194 17.3748 110.851 17.8949 110.415 18.33ZM104.67 17.58C104.99 17.9038 105.37 18.1609 105.79 18.3364C106.21 18.5119 106.66 18.6023 107.115 18.6023C107.57 18.6023 108.02 18.5119 108.44 18.3364C108.86 18.1609 109.24 17.9038 109.56 17.58C109.892 17.2395 110.153 16.8356 110.325 16.3923C110.498 15.949 110.579 15.4755 110.565 15C110.572 14.5202 110.481 14.0441 110.297 13.6006C110.114 13.1571 109.843 12.7554 109.5 12.42C109.18 12.0962 108.8 11.839 108.38 11.6635C107.96 11.4881 107.51 11.3977 107.055 11.3977C106.6 11.3977 106.15 11.4881 105.73 11.6635C105.31 11.839 104.93 12.0962 104.61 12.42C104.288 12.7653 104.039 13.1715 103.877 13.6145C103.715 14.0576 103.643 14.5287 103.665 15C103.651 15.4755 103.732 15.949 103.905 16.3923C104.077 16.8356 104.338 17.2395 104.67 17.58Z" fill="white" stroke="white" stroke-width="0.2" stroke-miterlimit="10"/>
<path d="M113.37 19.5V10.5H114.765L119.145 17.505V15.765V10.5H120.3V19.5H119.1L114.525 12.165V13.89V19.5H113.37Z" fill="white" stroke="white" stroke-width="0.2" stroke-miterlimit="10"/>
<path d="M102.21 32.6249C100.946 32.6279 99.7115 33.0055 98.6624 33.7101C97.6132 34.4147 96.7965 35.4146 96.3156 36.5834C95.8347 37.7521 95.7112 39.0373 95.9607 40.2762C96.2101 41.5152 96.8214 42.6523 97.7171 43.5439C98.6129 44.4354 99.7529 45.0413 100.993 45.285C102.233 45.5286 103.518 45.3991 104.684 44.9127C105.851 44.4263 106.847 43.605 107.546 42.5525C108.246 41.5 108.618 40.2637 108.615 38.9999C108.627 38.1568 108.47 37.3198 108.152 36.5389C107.834 35.758 107.362 35.049 106.764 34.4541C106.167 33.8593 105.455 33.3908 104.673 33.0766C103.891 32.7623 103.053 32.6087 102.21 32.6249ZM102.21 42.8699C101.435 42.9241 100.662 42.7439 99.9914 42.353C99.3204 41.962 98.7827 41.3782 98.4479 40.6775C98.1132 39.9769 97.997 39.1917 98.1144 38.4241C98.2318 37.6565 98.5775 36.942 99.1064 36.3734C99.6353 35.8049 100.323 35.4086 101.08 35.236C101.837 35.0635 102.629 35.1227 103.352 35.406C104.075 35.6893 104.696 36.1835 105.134 36.8244C105.573 37.4654 105.808 38.2234 105.81 38.9999C105.834 39.4919 105.759 39.9838 105.591 40.4465C105.422 40.9092 105.162 41.3335 104.826 41.6941C104.491 42.0548 104.086 42.3447 103.637 42.5466C103.188 42.7485 102.702 42.8585 102.21 42.8699ZM88.2299 32.6249C86.9661 32.6279 85.7315 33.0055 84.6824 33.7101C83.6332 34.4147 82.8165 35.4146 82.3356 36.5834C81.8547 37.7521 81.7312 39.0373 81.9806 40.2762C82.2301 41.5152 82.8414 42.6523 83.7371 43.5439C84.6329 44.4354 85.7729 45.0413 87.013 45.285C88.2531 45.5286 89.5376 45.3991 90.7041 44.9127C91.8706 44.4263 92.8667 43.605 93.5663 42.5525C94.266 41.5 94.6379 40.2637 94.6349 38.9999C94.6471 38.1568 94.4896 37.3198 94.1717 36.5389C93.8537 35.758 93.3819 35.049 92.7843 34.4541C92.1867 33.8593 91.4755 33.3908 90.693 33.0766C89.9106 32.7623 89.0729 32.6087 88.2299 32.6249ZM88.2299 42.8699C87.4553 42.9241 86.6823 42.7439 86.0114 42.353C85.3404 41.962 84.8027 41.3782 84.4679 40.6775C84.1332 39.9769 84.017 39.1917 84.1344 38.4241C84.2518 37.6565 84.5975 36.942 85.1264 36.3734C85.6552 35.8049 86.3429 35.4086 87.1001 35.236C87.8572 35.0635 88.6487 35.1227 89.3717 35.406C90.0947 35.6893 90.7158 36.1835 91.1542 36.8244C91.5926 37.4654 91.828 38.2234 91.8299 38.9999C91.8541 39.4919 91.7795 39.9838 91.6105 40.4465C91.4415 40.9092 91.1816 41.3335 90.8461 41.6941C90.5106 42.0548 90.1062 42.3447 89.6569 42.5466C89.2076 42.7485 88.7224 42.8585 88.2299 42.8699ZM71.6099 34.5899V37.2899H78.0899C77.9883 38.5616 77.4597 39.7616 76.5899 40.6949C75.9399 41.3572 75.1581 41.8756 74.2951 42.2167C73.4321 42.5577 72.5071 42.7138 71.5799 42.6749C69.6703 42.6749 67.839 41.9163 66.4887 40.5661C65.1385 39.2158 64.3799 37.3844 64.3799 35.4749C64.3799 33.5653 65.1385 31.734 66.4887 30.3837C67.839 29.0335 69.6703 28.2749 71.5799 28.2749C73.4106 28.2477 75.1782 28.9429 76.4999 30.2099L78.4049 28.3049C77.5109 27.4206 76.4494 26.7237 75.2826 26.2549C74.1158 25.7862 72.8672 25.555 71.6099 25.5749C70.2764 25.523 68.9461 25.7408 67.6988 26.2153C66.4515 26.6899 65.3129 27.4113 64.351 28.3364C63.3892 29.2615 62.6241 30.3713 62.1014 31.5992C61.5787 32.8271 61.3093 34.1479 61.3093 35.4824C61.3093 36.8169 61.5787 38.1377 62.1014 39.3656C62.6241 40.5935 63.3892 41.7033 64.351 42.6284C65.3129 43.5535 66.4515 44.2749 67.6988 44.7494C68.9461 45.2239 70.2764 45.4418 71.6099 45.3899C72.893 45.4411 74.1725 45.2204 75.3643 44.7421C76.556 44.2639 77.6332 43.5389 78.5249 42.6149C80.1001 40.8845 80.9394 38.6087 80.8649 36.2699C80.8703 35.707 80.8251 35.1447 80.7299 34.5899H71.6099ZM139.575 36.6899C139.184 35.539 138.452 34.5341 137.477 33.8082C136.502 33.0823 135.33 32.6696 134.115 32.6249C133.294 32.6233 132.482 32.79 131.729 33.1147C130.975 33.4394 130.296 33.9152 129.734 34.5127C129.172 35.1102 128.738 35.8167 128.459 36.5885C128.181 37.3603 128.064 38.181 128.115 38.9999C128.102 40.3692 128.533 41.7058 129.342 42.8103C130.152 43.9147 131.297 44.7276 132.606 45.1276C133.916 45.5276 135.32 45.4931 136.608 45.0294C137.897 44.5658 139.001 43.6977 139.755 42.5549L137.58 41.0549C137.256 41.5953 136.796 42.0416 136.246 42.3494C135.696 42.6573 135.075 42.816 134.445 42.8099C133.795 42.8367 133.152 42.6663 132.6 42.3209C132.049 41.9756 131.615 41.4715 131.355 40.8749L139.89 37.3499L139.575 36.6899ZM130.875 38.8199C130.845 38.3547 130.907 37.8882 131.06 37.4477C131.213 37.0072 131.452 36.6017 131.764 36.2551C132.075 35.9085 132.453 35.6277 132.875 35.4293C133.297 35.2309 133.754 35.1189 134.22 35.0999C134.702 35.0691 135.182 35.1806 135.6 35.4207C136.019 35.6607 136.358 36.0186 136.575 36.4499L130.875 38.8199ZM123.945 44.9999H126.75V26.2499H123.945V44.9999ZM119.355 34.0499H119.25C118.824 33.5863 118.304 33.2193 117.724 32.9735C117.145 32.7277 116.519 32.6088 115.89 32.6249C114.251 32.7044 112.705 33.4115 111.573 34.5998C110.441 35.788 109.809 37.3662 109.809 39.0074C109.809 40.6485 110.441 42.2268 111.573 43.415C112.705 44.6033 114.251 45.3104 115.89 45.3899C116.526 45.4026 117.157 45.2748 117.738 45.0155C118.318 44.7562 118.835 44.3719 119.25 43.8899H119.355V44.8049C119.355 47.2499 118.05 48.5549 115.95 48.5549C115.248 48.5395 114.567 48.3159 113.993 47.9127C113.419 47.5094 112.977 46.9445 112.725 46.2899L110.295 47.2949C110.744 48.4233 111.525 49.3887 112.535 50.0637C113.545 50.7386 114.736 51.0912 115.95 51.0749C119.235 51.0749 121.95 49.1399 121.95 44.4299V32.9999H119.355V34.0499ZM116.13 42.8699C115.147 42.8086 114.225 42.375 113.55 41.6574C112.876 40.9398 112.501 39.9921 112.501 39.0074C112.501 38.0227 112.876 37.075 113.55 36.3574C114.225 35.6398 115.147 35.2062 116.13 35.1449C116.61 35.1656 117.082 35.2828 117.516 35.4893C117.95 35.6959 118.338 35.9877 118.657 36.3474C118.976 36.7071 119.22 37.1272 119.373 37.5829C119.526 38.0386 119.587 38.5205 119.55 38.9999C119.591 39.4809 119.534 39.9653 119.382 40.4236C119.231 40.882 118.988 41.3048 118.668 41.6666C118.348 42.0283 117.958 42.3215 117.522 42.5283C117.086 42.7351 116.612 42.8513 116.13 42.8699ZM152.715 26.2499H145.995V44.9999H148.8V37.8899H152.715C153.514 37.9473 154.317 37.8394 155.073 37.573C155.829 37.3065 156.522 36.8872 157.108 36.3411C157.695 35.7951 158.163 35.134 158.483 34.3991C158.803 33.6643 158.968 32.8714 158.968 32.0699C158.968 31.2684 158.803 30.4755 158.483 29.7406C158.163 29.0058 157.695 28.3447 157.108 27.7986C156.522 27.2526 155.829 26.8333 155.073 26.5668C154.317 26.3003 153.514 26.1925 152.715 26.2499ZM152.715 35.2499H148.8V28.8599H152.775C153.626 28.8599 154.443 29.1981 155.045 29.8001C155.647 30.4021 155.985 31.2185 155.985 32.0699C155.985 32.9212 155.647 33.7377 155.045 34.3397C154.443 34.9417 153.626 35.2799 152.775 35.2799L152.715 35.2499ZM170.025 32.5649C169.003 32.5019 167.986 32.7397 167.098 33.2489C166.21 33.7581 165.491 34.5164 165.03 35.4299L167.505 36.4649C167.755 36.014 168.13 35.6451 168.585 35.4029C169.041 35.1607 169.556 35.0554 170.07 35.0999C170.426 35.0583 170.787 35.088 171.131 35.1874C171.476 35.2867 171.797 35.4536 172.076 35.6784C172.355 35.9033 172.587 36.1814 172.758 36.4967C172.928 36.812 173.034 37.1581 173.07 37.5149V37.6949C172.168 37.2208 171.164 36.9736 170.145 36.9749C167.475 36.9749 164.745 38.4749 164.745 41.2049C164.771 41.7851 164.914 42.3542 165.165 42.8782C165.415 43.4022 165.769 43.8705 166.204 44.2553C166.639 44.6401 167.147 44.9335 167.698 45.1181C168.249 45.3027 168.831 45.3747 169.41 45.3299C170.114 45.3688 170.815 45.2199 171.443 44.8983C172.07 44.5767 172.601 44.0941 172.98 43.4999H173.07V44.9999H175.77V37.7849C175.77 34.4999 173.28 32.5949 170.085 32.5949L170.025 32.5649ZM169.68 42.8399C168.765 42.8399 167.49 42.3749 167.49 41.2499C167.49 39.7499 169.08 39.2399 170.49 39.2399C171.381 39.2179 172.262 39.4355 173.04 39.8699C172.946 40.6845 172.559 41.4373 171.953 41.989C171.346 42.5406 170.56 42.8535 169.74 42.8699L169.68 42.8399ZM185.61 32.9999L182.4 41.1299H182.31L178.98 32.9999H175.98L180.975 44.3699L178.125 50.6849H181.125L188.73 32.9999H185.61ZM160.41 44.9999H163.2V26.2499H160.41V44.9999Z" fill="white"/>
<path d="M31.0801 29.1299L15.1201 46.0799C15.2918 46.721 15.6094 47.3138 16.0481 47.8119C16.4867 48.3099 17.0347 48.6998 17.649 48.9511C18.2633 49.2023 18.9274 49.3082 19.5894 49.2602C20.2514 49.2123 20.8934 49.012 21.4651 48.6749L39.4651 38.3099L31.0801 29.1299Z" fill="#EA4335"/>
<path d="M47.2349 26.25L39.4799 21.75L30.7349 29.535L39.4949 38.295L47.2199 33.795C47.9024 33.4238 48.4722 32.8753 48.8692 32.2075C49.2662 31.5396 49.4758 30.777 49.4758 30C49.4758 29.223 49.2662 28.4604 48.8692 27.7926C48.4722 27.1247 47.9024 26.5762 47.2199 26.205L47.2349 26.25Z" fill="#FBBC04"/>
<path d="M15.105 13.905C15.015 14.2681 14.9696 14.6409 14.97 15.015V45.015C14.9653 45.3904 15.0158 45.7644 15.12 46.125L31.62 29.625L15.105 13.905Z" fill="#4285F4"/>
<path d="M31.1999 30.0001L39.465 21.7351L21.4649 11.3251C20.8921 10.9821 20.2475 10.7765 19.5818 10.7245C18.916 10.6726 18.2473 10.7756 17.6282 11.0256C17.009 11.2756 16.4562 11.6657 16.0132 12.1654C15.5702 12.665 15.249 13.2605 15.075 13.9051L31.1999 30.0001Z" fill="#34A853"/>
</g>
<defs>
<clipPath id="clip0_134_7129">
<rect width="202.5" height="60" fill="white"/>
</clipPath>
</defs>
</svg>
