<svg width="325" height="107" viewBox="0 0 325 107" fill="none" xmlns="http://www.w3.org/2000/svg">
<path d="M4.14071 98.7428C4.46 98.7451 4.77462 98.8033 5.08458 98.9175C5.39453 99.0317 5.6742 99.2182 5.92356 99.4769C6.17526 99.7356 6.37568 100.085 6.52484 100.526C6.67632 100.964 6.75323 101.509 6.75556 102.162C6.75556 102.789 6.69264 103.347 6.56679 103.836C6.44094 104.323 6.26032 104.735 6.02494 105.07C5.79189 105.406 5.50873 105.661 5.17547 105.836C4.8422 106.01 4.46699 106.098 4.04982 106.098C3.62334 106.098 3.24463 106.014 2.91369 105.846C2.58276 105.678 2.31358 105.447 2.10617 105.151C1.89875 104.852 1.76941 104.51 1.71814 104.123H2.78435C2.85427 104.43 2.99643 104.68 3.21084 104.871C3.42757 105.06 3.70724 105.154 4.04982 105.154C4.57419 105.154 4.9832 104.926 5.27684 104.469C5.57049 104.01 5.71848 103.369 5.72081 102.546H5.66488C5.54369 102.747 5.3922 102.919 5.21042 103.064C5.03097 103.208 4.82938 103.32 4.60565 103.399C4.38192 103.478 4.14304 103.518 3.88902 103.518C3.47652 103.518 3.1013 103.417 2.76338 103.214C2.42545 103.011 2.15627 102.733 1.95585 102.378C1.75543 102.024 1.65521 101.62 1.65521 101.165C1.65521 100.713 1.75776 100.303 1.96284 99.9348C2.17026 99.5666 2.45924 99.2753 2.8298 99.0609C3.20268 98.8441 3.63965 98.7381 4.14071 98.7428ZM4.14421 99.6517C3.87154 99.6517 3.62567 99.7192 3.4066 99.8544C3.18986 99.9873 3.01857 100.168 2.89272 100.396C2.76687 100.622 2.70395 100.874 2.70395 101.151C2.70395 101.429 2.76454 101.68 2.88573 101.906C3.00925 102.13 3.17704 102.308 3.38912 102.441C3.60353 102.572 3.84823 102.637 4.12324 102.637C4.32832 102.637 4.51942 102.597 4.69654 102.518C4.87366 102.439 5.02864 102.329 5.16148 102.19C5.29432 102.047 5.39803 101.887 5.47261 101.707C5.54718 101.528 5.58447 101.339 5.58447 101.141C5.58447 100.878 5.52155 100.633 5.3957 100.407C5.27218 100.181 5.10205 99.9989 4.88532 99.8614C4.66858 99.7216 4.42154 99.6517 4.14421 99.6517ZM8.72106 106.066C8.52996 106.066 8.36566 105.999 8.22816 105.864C8.09066 105.726 8.02191 105.561 8.02191 105.367C8.02191 105.176 8.09066 105.013 8.22816 104.878C8.36566 104.74 8.52996 104.672 8.72106 104.672C8.91217 104.672 9.07647 104.74 9.21397 104.878C9.35147 105.013 9.42022 105.176 9.42022 105.367C9.42022 105.495 9.38759 105.613 9.32234 105.72C9.25941 105.825 9.17551 105.909 9.07064 105.972C8.96577 106.035 8.84924 106.066 8.72106 106.066ZM8.72106 102.158C8.52996 102.158 8.36566 102.089 8.22816 101.952C8.09066 101.814 8.02191 101.65 8.02191 101.459C8.02191 101.268 8.09066 101.105 8.22816 100.97C8.36566 100.832 8.52996 100.763 8.72106 100.763C8.91217 100.763 9.07647 100.832 9.21397 100.97C9.35147 101.105 9.42022 101.268 9.42022 101.459C9.42022 101.587 9.38759 101.705 9.32234 101.812C9.25941 101.917 9.17551 102.001 9.07064 102.064C8.96577 102.127 8.84924 102.158 8.72106 102.158ZM10.656 104.602V103.728L13.7497 98.8406H14.4384V100.127H14.0014L11.7886 103.63V103.686H16.029V104.602H10.656ZM14.0504 106V104.336L14.0574 103.937V98.8406H15.0816V106H14.0504ZM17.2473 106V105.217L19.6699 102.707C19.9285 102.434 20.1418 102.195 20.3096 101.99C20.4797 101.783 20.6067 101.586 20.6906 101.4C20.7745 101.213 20.8165 101.015 20.8165 100.805C20.8165 100.568 20.7605 100.362 20.6487 100.19C20.5368 100.015 20.3842 99.8812 20.1907 99.788C19.9973 99.6924 19.7794 99.6447 19.537 99.6447C19.2807 99.6447 19.0569 99.6971 18.8658 99.802C18.6747 99.9069 18.5279 100.055 18.4254 100.246C18.3228 100.437 18.2715 100.661 18.2715 100.917H17.2403C17.2403 100.481 17.3405 100.1 17.5409 99.774C17.7413 99.4477 18.0163 99.1949 18.3659 99.0154C18.7155 98.8336 19.1129 98.7428 19.558 98.7428C20.0078 98.7428 20.404 98.8325 20.7466 99.0119C21.0915 99.189 21.3606 99.4314 21.5541 99.7391C21.7475 100.044 21.8442 100.389 21.8442 100.774C21.8442 101.039 21.7941 101.299 21.6939 101.553C21.596 101.807 21.4247 102.091 21.18 102.403C20.9353 102.713 20.5951 103.089 20.1593 103.532L18.7365 105.021V105.074H21.9596V106H17.2473ZM26.5924 106H25.4458L28.0222 98.8406H29.2701L31.8465 106H30.6999L28.6759 100.141H28.6199L26.5924 106ZM26.7846 103.196H30.5042V104.105H26.7846V103.196ZM32.8804 98.8406H34.1913L36.4706 104.406H36.5545L38.8337 98.8406H40.1447V106H39.1169V100.819H39.0505L36.939 105.99H36.086L33.9746 100.816H33.9082V106H32.8804V98.8406Z" fill="white"/>
<path opacity="0.6" d="M22.1826 89.9081C22.1826 89.65 21.9734 89.4408 21.7153 89.4408C21.4573 89.4408 21.248 89.65 21.248 89.9081V92.7118C21.248 92.9699 21.4573 93.1791 21.7153 93.1791C21.9734 93.1791 22.1826 92.9699 22.1826 92.7118V89.9081Z" fill="white"/>
<path d="M75.5655 98.3237C75.8848 98.326 76.1994 98.3843 76.5093 98.4985C76.8193 98.6127 77.099 98.7991 77.3483 99.0578C77.6 99.3165 77.8005 99.6661 77.9496 100.107C78.1011 100.545 78.178 101.09 78.1803 101.743C78.1803 102.369 78.1174 102.928 77.9916 103.417C77.8657 103.904 77.6851 104.315 77.4497 104.651C77.2167 104.987 76.9335 105.242 76.6002 105.417C76.267 105.591 75.8918 105.679 75.4746 105.679C75.0481 105.679 74.6694 105.595 74.3385 105.427C74.0075 105.259 73.7384 105.027 73.5309 104.731C73.3235 104.433 73.1942 104.091 73.1429 103.704H74.2091C74.279 104.011 74.4212 104.261 74.6356 104.452C74.8523 104.641 75.132 104.735 75.4746 104.735C75.999 104.735 76.408 104.507 76.7016 104.05C76.9953 103.591 77.1432 102.95 77.1456 102.127H77.0896C76.9685 102.328 76.817 102.5 76.6352 102.644C76.4557 102.789 76.2542 102.901 76.0304 102.98C75.8067 103.059 75.5678 103.099 75.3138 103.099C74.9013 103.099 74.5261 102.998 74.1881 102.795C73.8502 102.592 73.581 102.314 73.3806 101.959C73.1802 101.605 73.08 101.201 73.08 100.746C73.08 100.294 73.1825 99.884 73.3876 99.5157C73.595 99.1475 73.884 98.8562 74.2546 98.6418C74.6274 98.4251 75.0644 98.319 75.5655 98.3237ZM75.569 99.2326C75.2963 99.2326 75.0504 99.3002 74.8314 99.4353C74.6146 99.5682 74.4433 99.7488 74.3175 99.9772C74.1916 100.203 74.1287 100.455 74.1287 100.732C74.1287 101.01 74.1893 101.261 74.3105 101.487C74.434 101.711 74.6018 101.889 74.8139 102.022C75.0283 102.153 75.273 102.218 75.548 102.218C75.7531 102.218 75.9442 102.178 76.1213 102.099C76.2984 102.02 76.4534 101.91 76.5863 101.771C76.7191 101.628 76.8228 101.468 76.8974 101.288C76.972 101.109 77.0092 100.92 77.0092 100.722C77.0092 100.458 76.9463 100.214 76.8205 99.9877C76.697 99.7616 76.5268 99.5798 76.3101 99.4423C76.0933 99.3025 75.8463 99.2326 75.569 99.2326ZM80.1458 105.647C79.9547 105.647 79.7904 105.58 79.6529 105.445C79.5154 105.307 79.4467 105.142 79.4467 104.948C79.4467 104.757 79.5154 104.594 79.6529 104.459C79.7904 104.321 79.9547 104.253 80.1458 104.253C80.3369 104.253 80.5012 104.321 80.6387 104.459C80.7762 104.594 80.845 104.757 80.845 104.948C80.845 105.076 80.8124 105.194 80.7471 105.301C80.6842 105.406 80.6003 105.49 80.4954 105.553C80.3905 105.616 80.274 105.647 80.1458 105.647ZM80.1458 101.739C79.9547 101.739 79.7904 101.67 79.6529 101.533C79.5154 101.395 79.4467 101.231 79.4467 101.04C79.4467 100.849 79.5154 100.686 79.6529 100.551C79.7904 100.413 79.9547 100.344 80.1458 100.344C80.3369 100.344 80.5012 100.413 80.6387 100.551C80.7762 100.686 80.845 100.849 80.845 101.04C80.845 101.168 80.8124 101.286 80.7471 101.393C80.6842 101.498 80.6003 101.582 80.4954 101.645C80.3905 101.708 80.274 101.739 80.1458 101.739ZM84.5942 105.679C84.1561 105.679 83.7622 105.595 83.4126 105.427C83.0654 105.257 82.7881 105.024 82.5806 104.728C82.3732 104.432 82.2625 104.094 82.2485 103.714H83.2973C83.3229 104.022 83.4593 104.275 83.7063 104.473C83.9533 104.671 84.2493 104.77 84.5942 104.77C84.8692 104.77 85.1128 104.707 85.3248 104.581C85.5392 104.453 85.707 104.277 85.8282 104.053C85.9517 103.83 86.0135 103.574 86.0135 103.288C86.0135 102.996 85.9506 102.737 85.8247 102.508C85.6989 102.28 85.5253 102.1 85.3039 101.97C85.0848 101.839 84.8331 101.773 84.5488 101.771C84.332 101.771 84.1141 101.808 83.8951 101.882C83.676 101.957 83.4989 102.055 83.3637 102.176L82.3744 102.029L82.7764 98.4216H86.7127V99.348H83.6748L83.4476 101.351H83.4895C83.6294 101.216 83.8147 101.103 84.0454 101.012C84.2784 100.921 84.5278 100.876 84.7935 100.876C85.2293 100.876 85.6173 100.979 85.9576 101.187C86.3002 101.394 86.5693 101.677 86.7651 102.036C86.9632 102.393 87.0611 102.803 87.0587 103.267C87.0611 103.73 86.9562 104.144 86.7441 104.508C86.5344 104.871 86.2431 105.158 85.8702 105.368C85.4996 105.575 85.0743 105.679 84.5942 105.679ZM88.5768 105.581L91.702 99.4004V99.348H88.0874V98.4216H92.8207V99.3794L89.7059 105.581H88.5768ZM97.3442 105.581H96.1976L98.774 98.4216H100.022L102.598 105.581H101.452L99.4277 99.722H99.3718L97.3442 105.581ZM97.5365 102.777H101.256V103.686H97.5365V102.777ZM103.632 98.4216H104.943L107.222 103.987H107.306L109.586 98.4216H110.896V105.581H109.869V100.4H109.802L107.691 105.57H106.838L104.726 100.397H104.66V105.581H103.632V98.4216Z" fill="white"/>
<path opacity="0.6" d="M92.5371 89.9081C92.5371 89.65 92.3279 89.4408 92.0698 89.4408C91.8117 89.4408 91.6025 89.65 91.6025 89.9081V92.7118C91.6025 92.9699 91.8117 93.1791 92.0698 93.1791C92.3279 93.1791 92.5371 92.9699 92.5371 92.7118V89.9081Z" fill="white"/>
<path d="M143.977 98.4216V105.581H142.894V99.5053H142.852L141.139 100.624V99.5892L142.925 98.4216H143.977ZM148.406 105.7C147.854 105.697 147.382 105.552 146.991 105.263C146.599 104.974 146.3 104.553 146.092 104.001C145.885 103.449 145.781 102.783 145.781 102.005C145.781 101.229 145.885 100.566 146.092 100.016C146.302 99.4656 146.603 99.0461 146.994 98.7572C147.388 98.4682 147.859 98.3237 148.406 98.3237C148.954 98.3237 149.424 98.4693 149.815 98.7607C150.207 99.0496 150.506 99.4691 150.714 100.019C150.923 100.567 151.028 101.229 151.028 102.005C151.028 102.785 150.924 103.452 150.717 104.004C150.51 104.554 150.21 104.975 149.819 105.266C149.427 105.555 148.956 105.7 148.406 105.7ZM148.406 104.766C148.891 104.766 149.27 104.53 149.542 104.057C149.818 103.584 149.955 102.9 149.955 102.005C149.955 101.41 149.892 100.908 149.766 100.498C149.643 100.086 149.464 99.7733 149.231 99.5612C149.001 99.3468 148.726 99.2396 148.406 99.2396C147.924 99.2396 147.545 99.4773 147.27 99.9527C146.995 100.428 146.857 101.112 146.854 102.005C146.854 102.601 146.916 103.106 147.04 103.518C147.165 103.929 147.344 104.24 147.574 104.452C147.805 104.662 148.082 104.766 148.406 104.766ZM152.971 105.647C152.78 105.647 152.616 105.58 152.478 105.445C152.341 105.307 152.272 105.142 152.272 104.948C152.272 104.757 152.341 104.594 152.478 104.459C152.616 104.321 152.78 104.253 152.971 104.253C153.162 104.253 153.326 104.321 153.464 104.459C153.601 104.594 153.67 104.757 153.67 104.948C153.67 105.076 153.638 105.194 153.572 105.301C153.509 105.406 153.425 105.49 153.321 105.553C153.216 105.616 153.099 105.647 152.971 105.647ZM152.971 101.739C152.78 101.739 152.616 101.67 152.478 101.533C152.341 101.395 152.272 101.231 152.272 101.04C152.272 100.849 152.341 100.686 152.478 100.551C152.616 100.413 152.78 100.344 152.971 100.344C153.162 100.344 153.326 100.413 153.464 100.551C153.601 100.686 153.67 100.849 153.67 101.04C153.67 101.168 153.638 101.286 153.572 101.393C153.509 101.498 153.425 101.582 153.321 101.645C153.216 101.708 153.099 101.739 152.971 101.739ZM157.772 98.4216V105.581H156.689V99.5053H156.647L154.934 100.624V99.5892L156.72 98.4216H157.772ZM159.709 105.581V104.798L162.132 102.288C162.39 102.015 162.604 101.776 162.771 101.571C162.942 101.364 163.069 101.167 163.152 100.98C163.236 100.794 163.278 100.596 163.278 100.386C163.278 100.148 163.222 99.9434 163.111 99.7709C162.999 99.5962 162.846 99.4621 162.653 99.3689C162.459 99.2734 162.241 99.2256 161.999 99.2256C161.742 99.2256 161.519 99.278 161.328 99.3829C161.137 99.4878 160.99 99.6358 160.887 99.8269C160.785 100.018 160.733 100.242 160.733 100.498H159.702C159.702 100.062 159.802 99.6812 160.003 99.3549C160.203 99.0287 160.478 98.7758 160.828 98.5964C161.177 98.4146 161.575 98.3237 162.02 98.3237C162.47 98.3237 162.866 98.4134 163.208 98.5929C163.553 98.77 163.822 99.0124 164.016 99.32C164.209 99.6253 164.306 99.9702 164.306 100.355C164.306 100.62 164.256 100.88 164.156 101.134C164.058 101.388 163.887 101.671 163.642 101.984C163.397 102.294 163.057 102.67 162.621 103.113L161.198 104.602V104.655H164.421V105.581H159.709ZM169.054 105.581H167.908L170.484 98.4216H171.732L174.308 105.581H173.162L171.138 99.722H171.082L169.054 105.581ZM169.246 102.777H172.966V103.686H169.246V102.777ZM175.342 98.4216H176.653L178.932 103.987H179.016L181.296 98.4216H182.606V105.581H181.579V100.4H181.512L179.401 105.57H178.548L176.436 100.397H176.37V105.581H175.342V98.4216Z" fill="white"/>
<path opacity="0.6" d="M162.891 89.9081C162.891 89.65 162.682 89.4408 162.424 89.4408C162.166 89.4408 161.957 89.65 161.957 89.9081V92.7118C161.957 92.9699 162.166 93.1791 162.424 93.1791C162.682 93.1791 162.891 92.9699 162.891 92.7118V89.9081Z" fill="white"/>
<path d="M213.347 98.4216V105.581H212.263V99.5053H212.221L210.508 100.624V99.5892L212.295 98.4216H213.347ZM217.776 105.7C217.224 105.697 216.752 105.552 216.36 105.263C215.969 104.974 215.669 104.553 215.462 104.001C215.254 103.449 215.151 102.783 215.151 102.005C215.151 101.229 215.254 100.566 215.462 100.016C215.672 99.4656 215.972 99.0461 216.364 98.7572C216.758 98.4682 217.228 98.3237 217.776 98.3237C218.324 98.3237 218.793 98.4693 219.185 98.7607C219.576 99.0496 219.876 99.4691 220.083 100.019C220.293 100.567 220.398 101.229 220.398 102.005C220.398 102.785 220.294 103.452 220.087 104.004C219.879 104.554 219.58 104.975 219.188 105.266C218.797 105.555 218.326 105.7 217.776 105.7ZM217.776 104.766C218.261 104.766 218.639 104.53 218.912 104.057C219.187 103.584 219.325 102.9 219.325 102.005C219.325 101.41 219.262 100.908 219.136 100.498C219.012 100.086 218.834 99.7733 218.601 99.5612C218.37 99.3468 218.095 99.2396 217.776 99.2396C217.294 99.2396 216.915 99.4773 216.64 99.9527C216.365 100.428 216.226 101.112 216.224 102.005C216.224 102.601 216.286 103.106 216.409 103.518C216.535 103.929 216.713 104.24 216.944 104.452C217.175 104.662 217.452 104.766 217.776 104.766ZM222.341 105.647C222.15 105.647 221.985 105.58 221.848 105.445C221.71 105.307 221.641 105.142 221.641 104.948C221.641 104.757 221.71 104.594 221.848 104.459C221.985 104.321 222.15 104.253 222.341 104.253C222.532 104.253 222.696 104.321 222.834 104.459C222.971 104.594 223.04 104.757 223.04 104.948C223.04 105.076 223.007 105.194 222.942 105.301C222.879 105.406 222.795 105.49 222.69 105.553C222.585 105.616 222.469 105.647 222.341 105.647ZM222.341 101.739C222.15 101.739 221.985 101.67 221.848 101.533C221.71 101.395 221.641 101.231 221.641 101.04C221.641 100.849 221.71 100.686 221.848 100.551C221.985 100.413 222.15 100.344 222.341 100.344C222.532 100.344 222.696 100.413 222.834 100.551C222.971 100.686 223.04 100.849 223.04 101.04C223.04 101.168 223.007 101.286 222.942 101.393C222.879 101.498 222.795 101.582 222.69 101.645C222.585 101.708 222.469 101.739 222.341 101.739ZM224.426 105.581V104.798L226.848 102.288C227.107 102.015 227.32 101.776 227.488 101.571C227.658 101.364 227.785 101.167 227.869 100.98C227.953 100.794 227.995 100.596 227.995 100.386C227.995 100.148 227.939 99.9434 227.827 99.7709C227.715 99.5962 227.563 99.4621 227.369 99.3689C227.176 99.2734 226.958 99.2256 226.716 99.2256C226.459 99.2256 226.235 99.278 226.044 99.3829C225.853 99.4878 225.706 99.6358 225.604 99.8269C225.501 100.018 225.45 100.242 225.45 100.498H224.419C224.419 100.062 224.519 99.6812 224.719 99.3549C224.92 99.0287 225.195 98.7758 225.544 98.5964C225.894 98.4146 226.291 98.3237 226.737 98.3237C227.186 98.3237 227.583 98.4134 227.925 98.5929C228.27 98.77 228.539 99.0124 228.733 99.32C228.926 99.6253 229.023 99.9702 229.023 100.355C229.023 100.62 228.973 100.88 228.872 101.134C228.775 101.388 228.603 101.671 228.359 101.984C228.114 102.294 227.774 102.67 227.338 103.113L225.915 104.602V104.655H229.138V105.581H224.426ZM230.704 105.581L233.83 99.4004V99.348H230.215V98.4216H234.948V99.3794L231.833 105.581H230.704ZM239.472 105.581H238.325L240.901 98.4216H242.149L244.726 105.581H243.579L241.555 99.722H241.499L239.472 105.581ZM239.664 102.777H243.383V103.686H239.664V102.777ZM245.76 98.4216H247.071L249.35 103.987H249.434L251.713 98.4216H253.024V105.581H251.996V100.4H251.93L249.818 105.57H248.965L246.854 100.397H246.787V105.581H245.76V98.4216Z" fill="white"/>
<path opacity="0.6" d="M233.246 89.9081C233.246 89.65 233.036 89.4408 232.778 89.4408C232.52 89.4408 232.311 89.65 232.311 89.9081V92.7118C232.311 92.9699 232.52 93.1791 232.778 93.1791C233.036 93.1791 233.246 92.9699 233.246 92.7118V89.9081Z" fill="white"/>
<path d="M283.461 98.4216V105.581H282.377V99.5053H282.335L280.622 100.624V99.5892L282.408 98.4216H283.461ZM287.89 105.7C287.337 105.697 286.865 105.552 286.474 105.263C286.082 104.974 285.783 104.553 285.576 104.001C285.368 103.449 285.264 102.783 285.264 102.005C285.264 101.229 285.368 100.566 285.576 100.016C285.785 99.4656 286.086 99.0461 286.477 98.7572C286.871 98.4682 287.342 98.3237 287.89 98.3237C288.437 98.3237 288.907 98.4693 289.299 98.7607C289.69 99.0496 289.99 99.4691 290.197 100.019C290.407 100.567 290.512 101.229 290.512 102.005C290.512 102.785 290.408 103.452 290.2 104.004C289.993 104.554 289.694 104.975 289.302 105.266C288.91 105.555 288.44 105.7 287.89 105.7ZM287.89 104.766C288.374 104.766 288.753 104.53 289.026 104.057C289.301 103.584 289.438 102.9 289.438 102.005C289.438 101.41 289.375 100.908 289.25 100.498C289.126 100.086 288.948 99.7733 288.715 99.5612C288.484 99.3468 288.209 99.2396 287.89 99.2396C287.407 99.2396 287.029 99.4773 286.754 99.9527C286.479 100.428 286.34 101.112 286.338 102.005C286.338 102.601 286.399 103.106 286.523 103.518C286.649 103.929 286.827 104.24 287.058 104.452C287.288 104.662 287.566 104.766 287.89 104.766ZM292.454 105.647C292.263 105.647 292.099 105.58 291.961 105.445C291.824 105.307 291.755 105.142 291.755 104.948C291.755 104.757 291.824 104.594 291.961 104.459C292.099 104.321 292.263 104.253 292.454 104.253C292.645 104.253 292.81 104.321 292.947 104.459C293.085 104.594 293.154 104.757 293.154 104.948C293.154 105.076 293.121 105.194 293.056 105.301C292.993 105.406 292.909 105.49 292.804 105.553C292.699 105.616 292.583 105.647 292.454 105.647ZM292.454 101.739C292.263 101.739 292.099 101.67 291.961 101.533C291.824 101.395 291.755 101.231 291.755 101.04C291.755 100.849 291.824 100.686 291.961 100.551C292.099 100.413 292.263 100.344 292.454 100.344C292.645 100.344 292.81 100.413 292.947 100.551C293.085 100.686 293.154 100.849 293.154 101.04C293.154 101.168 293.121 101.286 293.056 101.393C292.993 101.498 292.909 101.582 292.804 101.645C292.699 101.708 292.583 101.739 292.454 101.739ZM294.389 104.183V103.309L297.483 98.4216H298.172V99.708H297.735L295.522 103.211V103.267H299.762V104.183H294.389ZM297.784 105.581V103.917L297.791 103.518V98.4216H298.815V105.581H297.784ZM300.981 105.581V104.798L303.403 102.288C303.662 102.015 303.875 101.776 304.043 101.571C304.213 101.364 304.34 101.167 304.424 100.98C304.508 100.794 304.55 100.596 304.55 100.386C304.55 100.148 304.494 99.9434 304.382 99.7709C304.27 99.5962 304.117 99.4621 303.924 99.3689C303.731 99.2734 303.513 99.2256 303.27 99.2256C303.014 99.2256 302.79 99.278 302.599 99.3829C302.408 99.4878 302.261 99.6358 302.159 99.8269C302.056 100.018 302.005 100.242 302.005 100.498H300.974C300.974 100.062 301.074 99.6812 301.274 99.3549C301.475 99.0287 301.75 98.7758 302.099 98.5964C302.449 98.4146 302.846 98.3237 303.291 98.3237C303.741 98.3237 304.137 98.4134 304.48 98.5929C304.825 98.77 305.094 99.0124 305.287 99.32C305.481 99.6253 305.578 99.9702 305.578 100.355C305.578 100.62 305.527 100.88 305.427 101.134C305.329 101.388 305.158 101.671 304.913 101.984C304.669 102.294 304.328 102.67 303.893 103.113L302.47 104.602V104.655H305.693V105.581H300.981ZM310.326 105.581H309.179L311.755 98.4216H313.003L315.58 105.581H314.433L312.409 99.722H312.353L310.326 105.581ZM310.518 102.777H314.237V103.686H310.518V102.777ZM316.614 98.4216H317.925L320.204 103.987H320.288L322.567 98.4216H323.878V105.581H322.85V100.4H322.784L320.672 105.57H319.819L317.708 100.397H317.641V105.581H316.614V98.4216Z" fill="white"/>
<path opacity="0.6" d="M303.667 89.9081C303.667 89.65 303.458 89.4408 303.2 89.4408C302.942 89.4408 302.733 89.65 302.733 89.9081V92.7118C302.733 92.9699 302.942 93.1791 303.2 93.1791C303.458 93.1791 303.667 92.9699 303.667 92.7118V89.9081Z" fill="white"/>
<path opacity="0.1" fill-rule="evenodd" clip-rule="evenodd" d="M25.0023 31.7829C25.0023 31.0059 25.6322 30.3761 26.4091 30.3761C27.1861 30.3761 27.8159 31.0059 27.8159 31.7829V85.2415C27.8159 86.0185 27.1861 86.6483 26.4091 86.6483C25.6322 86.6483 25.0023 86.0185 25.0023 85.2415V31.7829ZM20.313 31.7831C20.313 31.0061 20.9428 30.3762 21.7198 30.3762C22.4968 30.3762 23.1266 31.0061 23.1266 31.783V85.2417C23.1266 86.0186 22.4968 86.6485 21.7198 86.6485C20.9428 86.6485 20.313 86.0186 20.313 85.2417V31.7831ZM31.099 30.3761C30.3221 30.3761 29.6922 31.0059 29.6922 31.7829V85.2415C29.6922 86.0185 30.3221 86.6483 31.099 86.6483C31.876 86.6483 32.5058 86.0185 32.5058 85.2415V31.7829C32.5058 31.0059 31.876 30.3761 31.099 30.3761ZM34.3812 31.7829C34.3812 31.0059 35.011 30.3761 35.788 30.3761C36.5649 30.3761 37.1948 31.0059 37.1948 31.7829V85.2415C37.1948 86.0185 36.5649 86.6483 35.788 86.6483C35.011 86.6483 34.3812 86.0185 34.3812 85.2415V31.7829ZM40.4774 30.3761C39.7004 30.3761 39.0706 31.0059 39.0706 31.7829V85.2415C39.0706 86.0185 39.7004 86.6483 40.4774 86.6483C41.2543 86.6483 41.8842 86.0185 41.8842 85.2415V31.7829C41.8842 31.0059 41.2543 30.3761 40.4774 30.3761ZM43.76 31.7829C43.76 31.0059 44.3898 30.3761 45.1668 30.3761C45.9438 30.3761 46.5736 31.0059 46.5736 31.7829V85.2415C46.5736 86.0185 45.9438 86.6483 45.1668 86.6483C44.3898 86.6483 43.76 86.0185 43.76 85.2415V31.7829ZM49.8562 30.3761C49.0793 30.3761 48.4494 31.0059 48.4494 31.7829V85.2415C48.4494 86.0185 49.0793 86.6483 49.8562 86.6483C50.6332 86.6483 51.263 86.0185 51.263 85.2415V31.7829C51.263 31.0059 50.6332 30.3761 49.8562 30.3761ZM53.1388 31.7829C53.1388 31.0059 53.7687 30.3761 54.5456 30.3761C55.3226 30.3761 55.9524 31.0059 55.9524 31.7829V85.2415C55.9524 86.0185 55.3226 86.6483 54.5456 86.6483C53.7687 86.6483 53.1388 86.0185 53.1388 85.2415V31.7829ZM59.2351 30.3761C58.4581 30.3761 57.8282 31.0059 57.8282 31.7829V85.2415C57.8282 86.0185 58.4581 86.6483 59.2351 86.6483C60.012 86.6483 60.6419 86.0185 60.6419 85.2415V31.7829C60.6419 31.0059 60.012 30.3761 59.2351 30.3761ZM62.5172 31.7829C62.5172 31.0059 63.147 30.3761 63.924 30.3761C64.701 30.3761 65.3308 31.0059 65.3308 31.7829V85.2415C65.3308 86.0185 64.701 86.6483 63.924 86.6483C63.147 86.6483 62.5172 86.0185 62.5172 85.2415V31.7829ZM68.6139 30.3761C67.8369 30.3761 67.2071 31.0059 67.2071 31.7829V85.2415C67.2071 86.0185 67.8369 86.6483 68.6139 86.6483C69.3909 86.6483 70.0207 86.0185 70.0207 85.2415V31.7829C70.0207 31.0059 69.3909 30.3761 68.6139 30.3761ZM71.896 31.7829C71.896 31.0059 72.5259 30.3761 73.3028 30.3761C74.0798 30.3761 74.7096 31.0059 74.7096 31.7829V85.2415C74.7096 86.0185 74.0798 86.6483 73.3028 86.6483C72.5259 86.6483 71.896 86.0185 71.896 85.2415V31.7829ZM77.9922 30.3761C77.2153 30.3761 76.5854 31.0059 76.5854 31.7829V85.2415C76.5854 86.0185 77.2153 86.6483 77.9922 86.6483C78.7692 86.6483 79.3991 86.0185 79.3991 85.2415V31.7829C79.3991 31.0059 78.7692 30.3761 77.9922 30.3761ZM81.2744 31.7829C81.2744 31.0059 81.9042 30.3761 82.6812 30.3761C83.4581 30.3761 84.088 31.0059 84.088 31.7829V85.2415C84.088 86.0185 83.4581 86.6483 82.6812 86.6483C81.9042 86.6483 81.2744 86.0185 81.2744 85.2415V31.7829ZM87.3711 30.3761C86.5941 30.3761 85.9643 31.0059 85.9643 31.7829V85.2415C85.9643 86.0185 86.5941 86.6483 87.3711 86.6483C88.148 86.6483 88.7779 86.0185 88.7779 85.2415V31.7829C88.7779 31.0059 88.148 30.3761 87.3711 30.3761ZM90.6537 31.7829C90.6537 31.0059 91.2835 30.3761 92.0605 30.3761C92.8375 30.3761 93.4673 31.0059 93.4673 31.7829V85.2415C93.4673 86.0185 92.8375 86.6483 92.0605 86.6483C91.2835 86.6483 90.6537 86.0185 90.6537 85.2415V31.7829ZM96.7499 30.3761C95.973 30.3761 95.3431 31.0059 95.3431 31.7829V85.2415C95.3431 86.0185 95.973 86.6483 96.7499 86.6483C97.5269 86.6483 98.1567 86.0185 98.1567 85.2415V31.7829C98.1567 31.0059 97.5269 30.3761 96.7499 30.3761ZM100.032 31.7829C100.032 31.0059 100.662 30.3761 101.439 30.3761C102.216 30.3761 102.846 31.0059 102.846 31.7829V85.2415C102.846 86.0185 102.216 86.6483 101.439 86.6483C100.662 86.6483 100.032 86.0185 100.032 85.2415V31.7829ZM106.129 30.3761C105.352 30.3761 104.722 31.0059 104.722 31.7829V85.2415C104.722 86.0185 105.352 86.6483 106.129 86.6483C106.906 86.6483 107.536 86.0185 107.536 85.2415V31.7829C107.536 31.0059 106.906 30.3761 106.129 30.3761ZM109.411 31.7829C109.411 31.0059 110.041 30.3761 110.818 30.3761C111.595 30.3761 112.224 31.0059 112.224 31.7829V85.2415C112.224 86.0185 111.595 86.6483 110.818 86.6483C110.041 86.6483 109.411 86.0185 109.411 85.2415V31.7829ZM115.507 30.3761C114.73 30.3761 114.1 31.0059 114.1 31.7829V85.2415C114.1 86.0185 114.73 86.6483 115.507 86.6483C116.284 86.6483 116.914 86.0185 116.914 85.2415V31.7829C116.914 31.0059 116.284 30.3761 115.507 30.3761ZM118.789 31.7829C118.789 31.0059 119.419 30.3761 120.196 30.3761C120.973 30.3761 121.603 31.0059 121.603 31.7829V85.2415C121.603 86.0185 120.973 86.6483 120.196 86.6483C119.419 86.6483 118.789 86.0185 118.789 85.2415V31.7829ZM124.886 30.3761C124.109 30.3761 123.479 31.0059 123.479 31.7829V85.2415C123.479 86.0185 124.109 86.6483 124.886 86.6483C125.663 86.6483 126.293 86.0185 126.293 85.2415V31.7829C126.293 31.0059 125.663 30.3761 124.886 30.3761ZM128.169 31.7829C128.169 31.0059 128.798 30.3761 129.575 30.3761C130.352 30.3761 130.982 31.0059 130.982 31.7829V85.2415C130.982 86.0185 130.352 86.6483 129.575 86.6483C128.798 86.6483 128.169 86.0185 128.169 85.2415V31.7829ZM134.265 30.3761C133.488 30.3761 132.858 31.0059 132.858 31.7829V85.2415C132.858 86.0185 133.488 86.6483 134.265 86.6483C135.042 86.6483 135.672 86.0185 135.672 85.2415V31.7829C135.672 31.0059 135.042 30.3761 134.265 30.3761ZM137.547 31.7829C137.547 31.0059 138.177 30.3761 138.954 30.3761C139.731 30.3761 140.361 31.0059 140.361 31.7829V85.2415C140.361 86.0185 139.731 86.6483 138.954 86.6483C138.177 86.6483 137.547 86.0185 137.547 85.2415V31.7829ZM143.644 30.3761C142.867 30.3761 142.237 31.0059 142.237 31.7829V85.2415C142.237 86.0185 142.867 86.6483 143.644 86.6483C144.421 86.6483 145.05 86.0185 145.05 85.2415V31.7829C145.05 31.0059 144.421 30.3761 143.644 30.3761ZM146.926 31.7829C146.926 31.0059 147.556 30.3761 148.333 30.3761C149.11 30.3761 149.739 31.0059 149.739 31.7829V85.2415C149.739 86.0185 149.11 86.6483 148.333 86.6483C147.556 86.6483 146.926 86.0185 146.926 85.2415V31.7829ZM153.022 30.3761C152.245 30.3761 151.615 31.0059 151.615 31.7829V85.2415C151.615 86.0185 152.245 86.6483 153.022 86.6483C153.799 86.6483 154.429 86.0185 154.429 85.2415V31.7829C154.429 31.0059 153.799 30.3761 153.022 30.3761ZM156.305 31.7829C156.305 31.0059 156.934 30.3761 157.711 30.3761C158.488 30.3761 159.118 31.0059 159.118 31.7829V85.2415C159.118 86.0185 158.488 86.6483 157.711 86.6483C156.934 86.6483 156.305 86.0185 156.305 85.2415V31.7829ZM162.4 30.3761C161.623 30.3761 160.994 31.0059 160.994 31.7829V85.2415C160.994 86.0185 161.623 86.6483 162.4 86.6483C163.177 86.6483 163.807 86.0185 163.807 85.2415V31.7829C163.807 31.0059 163.177 30.3761 162.4 30.3761ZM165.683 31.7829C165.683 31.0059 166.313 30.3761 167.09 30.3761C167.867 30.3761 168.497 31.0059 168.497 31.7829V85.2415C168.497 86.0185 167.867 86.6483 167.09 86.6483C166.313 86.6483 165.683 86.0185 165.683 85.2415V31.7829ZM171.779 30.3761C171.002 30.3761 170.372 31.0059 170.372 31.7829V85.2415C170.372 86.0185 171.002 86.6483 171.779 86.6483C172.556 86.6483 173.186 86.0185 173.186 85.2415V31.7829C173.186 31.0059 172.556 30.3761 171.779 30.3761ZM175.062 31.7829C175.062 31.0059 175.692 30.3761 176.469 30.3761C177.246 30.3761 177.875 31.0059 177.875 31.7829V85.2415C177.875 86.0185 177.246 86.6483 176.469 86.6483C175.692 86.6483 175.062 86.0185 175.062 85.2415V31.7829ZM181.158 30.3761C180.381 30.3761 179.751 31.0059 179.751 31.7829V85.2415C179.751 86.0185 180.381 86.6483 181.158 86.6483C181.934 86.6483 182.564 86.0185 182.564 85.2415V31.7829C182.564 31.0059 181.934 30.3761 181.158 30.3761ZM184.441 31.7829C184.441 31.0059 185.07 30.3761 185.847 30.3761C186.624 30.3761 187.254 31.0059 187.254 31.7829V85.2415C187.254 86.0185 186.624 86.6483 185.847 86.6483C185.07 86.6483 184.441 86.0185 184.441 85.2415V31.7829ZM190.536 30.3761C189.759 30.3761 189.13 31.0059 189.13 31.7829V85.2415C189.13 86.0185 189.759 86.6483 190.536 86.6483C191.313 86.6483 191.943 86.0185 191.943 85.2415V31.7829C191.943 31.0059 191.313 30.3761 190.536 30.3761ZM193.819 31.7829C193.819 31.0059 194.449 30.3761 195.226 30.3761C196.003 30.3761 196.633 31.0059 196.633 31.7829V85.2415C196.633 86.0185 196.003 86.6483 195.226 86.6483C194.449 86.6483 193.819 86.0185 193.819 85.2415V31.7829ZM199.915 30.3761C199.138 30.3761 198.508 31.0059 198.508 31.7829V85.2415C198.508 86.0185 199.138 86.6483 199.915 86.6483C200.692 86.6483 201.322 86.0185 201.322 85.2415V31.7829C201.322 31.0059 200.692 30.3761 199.915 30.3761ZM203.198 31.7829C203.198 31.0059 203.828 30.3761 204.605 30.3761C205.382 30.3761 206.011 31.0059 206.011 31.7829V85.2415C206.011 86.0185 205.382 86.6483 204.605 86.6483C203.828 86.6483 203.198 86.0185 203.198 85.2415V31.7829ZM209.294 30.3761C208.517 30.3761 207.887 31.0059 207.887 31.7829V85.2415C207.887 86.0185 208.517 86.6483 209.294 86.6483C210.071 86.6483 210.701 86.0185 210.701 85.2415V31.7829C210.701 31.0059 210.071 30.3761 209.294 30.3761ZM212.577 31.7829C212.577 31.0059 213.206 30.3761 213.983 30.3761C214.76 30.3761 215.39 31.0059 215.39 31.7829V85.2415C215.39 86.0185 214.76 86.6483 213.983 86.6483C213.206 86.6483 212.577 86.0185 212.577 85.2415V31.7829ZM218.672 30.3761C217.895 30.3761 217.266 31.0059 217.266 31.7829V85.2415C217.266 86.0185 217.895 86.6483 218.672 86.6483C219.449 86.6483 220.079 86.0185 220.079 85.2415V31.7829C220.079 31.0059 219.449 30.3761 218.672 30.3761ZM221.955 31.7829C221.955 31.0059 222.585 30.3761 223.362 30.3761C224.139 30.3761 224.769 31.0059 224.769 31.7829V85.2415C224.769 86.0185 224.139 86.6483 223.362 86.6483C222.585 86.6483 221.955 86.0185 221.955 85.2415V31.7829ZM228.051 30.3761C227.274 30.3761 226.644 31.0059 226.644 31.7829V85.2415C226.644 86.0185 227.274 86.6483 228.051 86.6483C228.828 86.6483 229.458 86.0185 229.458 85.2415V31.7829C229.458 31.0059 228.828 30.3761 228.051 30.3761ZM231.334 31.7829C231.334 31.0059 231.964 30.3761 232.741 30.3761C233.518 30.3761 234.147 31.0059 234.147 31.7829V85.2415C234.147 86.0185 233.518 86.6483 232.741 86.6483C231.964 86.6483 231.334 86.0185 231.334 85.2415V31.7829ZM237.43 30.3761C236.653 30.3761 236.023 31.0059 236.023 31.7829V85.2415C236.023 86.0185 236.653 86.6483 237.43 86.6483C238.207 86.6483 238.837 86.0185 238.837 85.2415V31.7829C238.837 31.0059 238.207 30.3761 237.43 30.3761ZM240.713 31.7829C240.713 31.0059 241.343 30.3761 242.119 30.3761C242.896 30.3761 243.526 31.0059 243.526 31.7829V85.2415C243.526 86.0185 242.896 86.6483 242.119 86.6483C241.343 86.6483 240.713 86.0185 240.713 85.2415V31.7829ZM246.808 30.3761C246.031 30.3761 245.402 31.0059 245.402 31.7829V85.2415C245.402 86.0185 246.031 86.6483 246.808 86.6483C247.585 86.6483 248.215 86.0185 248.215 85.2415V31.7829C248.215 31.0059 247.585 30.3761 246.808 30.3761ZM250.091 31.7829C250.091 31.0059 250.721 30.3761 251.498 30.3761C252.275 30.3761 252.905 31.0059 252.905 31.7829V85.2415C252.905 86.0185 252.275 86.6483 251.498 86.6483C250.721 86.6483 250.091 86.0185 250.091 85.2415V31.7829ZM256.187 30.3761C255.41 30.3761 254.78 31.0059 254.78 31.7829V85.2415C254.78 86.0185 255.41 86.6483 256.187 86.6483C256.964 86.6483 257.594 86.0185 257.594 85.2415V31.7829C257.594 31.0059 256.964 30.3761 256.187 30.3761ZM259.47 31.7829C259.47 31.0059 260.1 30.3761 260.877 30.3761C261.654 30.3761 262.284 31.0059 262.284 31.7829V85.2415C262.284 86.0185 261.654 86.6483 260.877 86.6483C260.1 86.6483 259.47 86.0185 259.47 85.2415V31.7829ZM265.566 30.3761C264.789 30.3761 264.159 31.0059 264.159 31.7829V85.2415C264.159 86.0185 264.789 86.6483 265.566 86.6483C266.343 86.6483 266.973 86.0185 266.973 85.2415V31.7829C266.973 31.0059 266.343 30.3761 265.566 30.3761ZM268.849 31.7829C268.849 31.0059 269.479 30.3761 270.255 30.3761C271.032 30.3761 271.662 31.0059 271.662 31.7829V85.2415C271.662 86.0185 271.032 86.6483 270.255 86.6483C269.479 86.6483 268.849 86.0185 268.849 85.2415V31.7829ZM274.945 30.3761C274.168 30.3761 273.538 31.0059 273.538 31.7829V85.2415C273.538 86.0185 274.168 86.6483 274.945 86.6483C275.722 86.6483 276.352 86.0185 276.352 85.2415V31.7829C276.352 31.0059 275.722 30.3761 274.945 30.3761ZM278.228 31.7829C278.228 31.0059 278.857 30.3761 279.634 30.3761C280.411 30.3761 281.041 31.0059 281.041 31.7829V85.2415C281.041 86.0185 280.411 86.6483 279.634 86.6483C278.857 86.6483 278.228 86.0185 278.228 85.2415V31.7829ZM284.324 30.3761C283.547 30.3761 282.917 31.0059 282.917 31.7829V85.2415C282.917 86.0185 283.547 86.6483 284.324 86.6483C285.101 86.6483 285.731 86.0185 285.731 85.2415V31.7829C285.731 31.0059 285.101 30.3761 284.324 30.3761ZM287.606 31.7829C287.606 31.0059 288.236 30.3761 289.013 30.3761C289.79 30.3761 290.42 31.0059 290.42 31.7829V85.2415C290.42 86.0185 289.79 86.6483 289.013 86.6483C288.236 86.6483 287.606 86.0185 287.606 85.2415V31.7829ZM293.703 30.3761C292.926 30.3761 292.296 31.0059 292.296 31.7829V85.2415C292.296 86.0185 292.926 86.6483 293.703 86.6483C294.48 86.6483 295.11 86.0185 295.11 85.2415V31.7829C295.11 31.0059 294.48 30.3761 293.703 30.3761ZM296.985 31.7829C296.985 31.0059 297.615 30.3761 298.392 30.3761C299.169 30.3761 299.799 31.0059 299.799 31.7829V85.2415C299.799 86.0185 299.169 86.6483 298.392 86.6483C297.615 86.6483 296.985 86.0185 296.985 85.2415V31.7829ZM303.175 30.3761C302.398 30.3761 301.768 31.0059 301.768 31.7829V85.2415C301.768 86.0185 302.398 86.6483 303.175 86.6483C303.952 86.6483 304.581 86.0185 304.581 85.2415V31.7829C304.581 31.0059 303.952 30.3761 303.175 30.3761Z" fill="white"/>
<g filter="url(#filter0_d_4477_210341)">
<path fill-rule="evenodd" clip-rule="evenodd" d="M96.7501 57C95.9731 57 95.3433 57.6298 95.3433 58.4068V85.1792C95.3433 85.9562 95.9731 86.586 96.7501 86.586C97.527 86.586 98.1569 85.9562 98.1569 85.1792V58.4068C98.1569 57.6298 97.527 57 96.7501 57ZM90.6543 60.6827C90.6543 59.9058 91.2841 59.2759 92.0611 59.2759C92.8381 59.2759 93.4679 59.9058 93.4679 60.6827V85.1793C93.4679 85.9563 92.8381 86.5861 92.0611 86.5861C91.2841 86.5861 90.6543 85.9563 90.6543 85.1793V60.6827ZM87.3712 61.5516C86.5942 61.5516 85.9644 62.1814 85.9644 62.9584V85.1791C85.9644 85.9561 86.5942 86.5859 87.3712 86.5859C88.1481 86.5859 88.778 85.9561 88.778 85.1791V62.9584C88.778 62.1814 88.1481 61.5516 87.3712 61.5516ZM81.2749 63.7169C81.2749 62.94 81.9048 62.3101 82.6817 62.3101C83.4587 62.3101 84.0885 62.94 84.0885 63.7169V85.179C84.0885 85.956 83.4587 86.5859 82.6817 86.5859C81.9048 86.5859 81.2749 85.956 81.2749 85.1791V63.7169ZM77.9923 64.5862C77.2153 64.5862 76.5854 65.216 76.5854 65.993V85.1793C76.5854 85.9562 77.2153 86.5861 77.9923 86.5861C78.7692 86.5861 79.3991 85.9562 79.3991 85.1793V65.993C79.3991 65.216 78.7692 64.5862 77.9923 64.5862ZM71.8965 69.786C71.8965 69.0091 72.5263 68.3792 73.3033 68.3792C74.0802 68.3792 74.7101 69.0091 74.7101 69.786V85.1792C74.7101 85.9562 74.0802 86.586 73.3033 86.586C72.5263 86.586 71.8965 85.9562 71.8965 85.1792V69.786ZM68.6138 70.655C67.8369 70.655 67.207 71.2848 67.207 72.0618V85.1791C67.207 85.9561 67.8369 86.5859 68.6138 86.5859C69.3908 86.5859 70.0206 85.9561 70.0206 85.1791V72.0618C70.0206 71.2848 69.3908 70.655 68.6138 70.655ZM62.5176 74.3377C62.5176 73.5608 63.1474 72.9309 63.9244 72.9309C64.7013 72.9309 65.3312 73.5608 65.3312 74.3377V85.1792C65.3312 85.9562 64.7013 86.586 63.9244 86.586C63.1474 86.586 62.5176 85.9562 62.5176 85.1792V74.3377ZM59.2349 76.7238C58.458 76.7238 57.8281 77.3537 57.8281 78.1306V85.179C57.8281 85.956 58.458 86.5858 59.2349 86.5858C60.0119 86.5858 60.6417 85.956 60.6417 85.179V78.1306C60.6417 77.3537 60.0119 76.7238 59.2349 76.7238ZM53.1392 81.1652C53.1392 80.3883 53.769 79.7584 54.546 79.7584C55.3229 79.7584 55.9528 80.3883 55.9528 81.1652V85.1792C55.9528 85.9561 55.3229 86.586 54.546 86.586C53.769 86.586 53.1392 85.9561 53.1392 85.1792V81.1652ZM43.7603 82.6826C43.7603 81.9056 44.3901 81.2758 45.1671 81.2758C45.944 81.2758 46.5739 81.9056 46.5739 82.6826V85.1793C46.5739 85.9563 45.944 86.5861 45.1671 86.5861C44.3901 86.5861 43.7603 85.9563 43.7603 85.1793V82.6826ZM40.4776 82.7932C39.7006 82.7932 39.0708 83.423 39.0708 84.2V85.1794C39.0708 85.9564 39.7006 86.5862 40.4776 86.5862C41.2546 86.5862 41.8844 85.9564 41.8844 85.1794V84.2C41.8844 83.423 41.2546 82.7932 40.4776 82.7932ZM20.3135 84.9583C20.3135 84.1813 20.9433 83.5514 21.7203 83.5514C22.4972 83.5514 23.1271 84.1813 23.1271 84.9583V85.1791C23.1271 85.9561 22.4972 86.5859 21.7203 86.5859C20.9433 86.5859 20.3135 85.9561 20.3135 85.1791V84.9583ZM25.0029 84.9583C25.0029 84.1813 25.6328 83.5514 26.4097 83.5514C27.1867 83.5514 27.8165 84.1813 27.8165 84.9583V85.1791C27.8165 85.9561 27.1867 86.5859 26.4097 86.5859C25.6328 86.5859 25.0029 85.9561 25.0029 85.1791V84.9583ZM31.0992 83.5514C30.3222 83.5514 29.6924 84.1813 29.6924 84.9583V85.1791C29.6924 85.9561 30.3222 86.5859 31.0992 86.5859C31.8761 86.5859 32.506 85.9561 32.506 85.1791V84.9583C32.506 84.1813 31.8761 83.5514 31.0992 83.5514ZM34.3818 84.9583C34.3818 84.1813 35.0117 83.5514 35.7886 83.5514C36.5656 83.5514 37.1954 84.1813 37.1954 84.9583V85.1791C37.1954 85.9561 36.5656 86.5859 35.7886 86.5859C35.0117 86.5859 34.3818 85.9561 34.3818 85.1791V84.9583ZM49.856 82.0343C49.0791 82.0343 48.4492 82.6642 48.4492 83.4411V85.1792C48.4492 85.9562 49.0791 86.586 49.856 86.586C50.633 86.586 51.2628 85.9562 51.2628 85.1792V83.4411C51.2628 82.6642 50.633 82.0343 49.856 82.0343ZM100.033 62.9584C100.033 62.1814 100.663 61.5516 101.44 61.5516C102.216 61.5516 102.846 62.1814 102.846 62.9584V85.1791C102.846 85.9561 102.216 86.5859 101.44 86.5859C100.663 86.5859 100.033 85.9561 100.033 85.1791V62.9584ZM106.129 66.1034C105.352 66.1034 104.722 66.7333 104.722 67.5102V85.1793C104.722 85.9562 105.352 86.5861 106.129 86.5861C106.906 86.5861 107.536 85.9562 107.536 85.1793V67.5102C107.536 66.7333 106.906 66.1034 106.129 66.1034ZM109.411 71.3031C109.411 70.5262 110.041 69.8963 110.818 69.8963C111.595 69.8963 112.225 70.5262 112.225 71.3031V85.1791C112.225 85.956 111.595 86.5859 110.818 86.5859C110.041 86.5859 109.411 85.956 109.411 85.1791V71.3031ZM115.507 69.8963C114.73 69.8963 114.1 70.5262 114.1 71.3031V85.1791C114.1 85.956 114.73 86.5859 115.507 86.5859C116.284 86.5859 116.914 85.956 116.914 85.1791V71.3031C116.914 70.5262 116.284 69.8963 115.507 69.8963ZM118.79 72.0618C118.79 71.2848 119.419 70.655 120.196 70.655C120.973 70.655 121.603 71.2848 121.603 72.0618V85.1791C121.603 85.9561 120.973 86.5859 120.196 86.5859C119.419 86.5859 118.79 85.9561 118.79 85.1791V72.0618ZM124.886 73.6896C124.109 73.6896 123.479 74.3195 123.479 75.0964V85.1793C123.479 85.9562 124.109 86.5861 124.886 86.5861C125.663 86.5861 126.293 85.9562 126.293 85.1793V75.0964C126.293 74.3195 125.663 73.6896 124.886 73.6896ZM128.169 76.6135C128.169 75.8366 128.799 75.2067 129.576 75.2067C130.353 75.2067 130.983 75.8366 130.983 76.6135V85.1791C130.983 85.9561 130.353 86.586 129.576 86.586C128.799 86.586 128.169 85.9561 128.169 85.1791V76.6135ZM134.265 80.5172C133.488 80.5172 132.858 81.1471 132.858 81.924V85.1794C132.858 85.9563 133.488 86.5862 134.265 86.5862C135.042 86.5862 135.672 85.9563 135.672 85.1794V81.924C135.672 81.1471 135.042 80.5172 134.265 80.5172ZM137.547 84.9583C137.547 84.1813 138.177 83.5514 138.954 83.5514C139.731 83.5514 140.361 84.1813 140.361 84.9583V85.1791C140.361 85.9561 139.731 86.5859 138.954 86.5859C138.177 86.5859 137.547 85.9561 137.547 85.1791V84.9583ZM143.644 83.5514C142.867 83.5514 142.237 84.1813 142.237 84.9583V85.1791C142.237 85.9561 142.867 86.5859 143.644 86.5859C144.421 86.5859 145.05 85.9561 145.05 85.1791V84.9583C145.05 84.1813 144.421 83.5514 143.644 83.5514ZM146.926 83.4411C146.926 82.6642 147.556 82.0343 148.333 82.0343C149.11 82.0343 149.74 82.6642 149.74 83.4411V85.1792C149.74 85.9562 149.11 86.586 148.333 86.586C147.556 86.586 146.926 85.9562 146.926 85.1792V83.4411ZM153.023 77.4824C152.246 77.4824 151.616 78.1122 151.616 78.8892V85.179C151.616 85.9559 152.246 86.5858 153.023 86.5858C153.799 86.5858 154.429 85.9559 154.429 85.179V78.8892C154.429 78.1122 153.799 77.4824 153.023 77.4824ZM156.305 76.6135C156.305 75.8366 156.935 75.2067 157.711 75.2067C158.488 75.2067 159.118 75.8366 159.118 76.6135V85.1791C159.118 85.9561 158.488 86.586 157.711 86.586C156.935 86.586 156.305 85.9561 156.305 85.1791V76.6135ZM162.401 76.7238C161.624 76.7238 160.995 77.3537 160.995 78.1306V85.179C160.995 85.956 161.624 86.5858 162.401 86.5858C163.178 86.5858 163.808 85.956 163.808 85.179V78.1306C163.808 77.3537 163.178 76.7238 162.401 76.7238ZM165.684 81.1652C165.684 80.3883 166.313 79.7584 167.09 79.7584C167.867 79.7584 168.497 80.3883 168.497 81.1652V85.1792C168.497 85.9561 167.867 86.586 167.09 86.586C166.313 86.586 165.684 85.9561 165.684 85.1792V81.1652ZM171.78 81.2758C171.003 81.2758 170.373 81.9056 170.373 82.6826V85.1793C170.373 85.9563 171.003 86.5861 171.78 86.5861C172.557 86.5861 173.187 85.9563 173.187 85.1793V82.6826C173.187 81.9056 172.557 81.2758 171.78 81.2758ZM175.062 84.9583C175.062 84.1813 175.691 83.5514 176.468 83.5514C177.245 83.5514 177.875 84.1813 177.875 84.9583V85.1791C177.875 85.9561 177.245 86.5859 176.468 86.5859C175.691 86.5859 175.062 85.9561 175.062 85.1791V84.9583ZM181.158 82.7932C180.381 82.7932 179.751 83.423 179.751 84.2V85.1794C179.751 85.9564 180.381 86.5862 181.158 86.5862C181.935 86.5862 182.565 85.9564 182.565 85.1794V84.2C182.565 83.423 181.935 82.7932 181.158 82.7932ZM184.44 81.924C184.44 81.1471 185.07 80.5172 185.847 80.5172C186.624 80.5172 187.254 81.1471 187.254 81.924V85.1794C187.254 85.9563 186.624 86.5862 185.847 86.5862C185.07 86.5862 184.44 85.9563 184.44 85.1794V81.924ZM190.537 77.4824C189.76 77.4824 189.13 78.1122 189.13 78.8892V85.179C189.13 85.9559 189.76 86.5858 190.537 86.5858C191.314 86.5858 191.943 85.9559 191.943 85.179V78.8892C191.943 78.1122 191.314 77.4824 190.537 77.4824ZM193.819 81.1652C193.819 80.3883 194.449 79.7584 195.226 79.7584C196.003 79.7584 196.632 80.3883 196.632 81.1652V85.1792C196.632 85.9561 196.003 86.586 195.226 86.586C194.449 86.586 193.819 85.9561 193.819 85.1792V81.1652ZM199.915 82.0343C199.138 82.0343 198.508 82.6642 198.508 83.4411V85.1792C198.508 85.9562 199.138 86.586 199.915 86.586C200.692 86.586 201.322 85.9562 201.322 85.1792V83.4411C201.322 82.6642 200.692 82.0343 199.915 82.0343ZM203.198 84.2C203.198 83.423 203.828 82.7932 204.605 82.7932C205.382 82.7932 206.011 83.423 206.011 84.2V85.1794C206.011 85.9564 205.382 86.5862 204.605 86.5862C203.828 86.5862 203.198 85.9564 203.198 85.1794V84.2ZM209.294 82.0343C208.518 82.0343 207.888 82.6642 207.888 83.4411V85.1792C207.888 85.9562 208.518 86.586 209.294 86.586C210.071 86.586 210.701 85.9562 210.701 85.1792V83.4411C210.701 82.6642 210.071 82.0343 209.294 82.0343ZM212.577 81.924C212.577 81.1471 213.207 80.5172 213.983 80.5172C214.76 80.5172 215.39 81.1471 215.39 81.924V85.1794C215.39 85.9563 214.76 86.5862 213.983 86.5862C213.207 86.5862 212.577 85.9563 212.577 85.1794V81.924ZM218.673 79.7584C217.896 79.7584 217.267 80.3883 217.267 81.1652V85.1792C217.267 85.9561 217.896 86.586 218.673 86.586C219.45 86.586 220.08 85.9561 220.08 85.1792V81.1652C220.08 80.3883 219.45 79.7584 218.673 79.7584ZM221.956 80.4068C221.956 79.6298 222.585 79 223.362 79C224.139 79 224.769 79.6298 224.769 80.4068V85.1794C224.769 85.9563 224.139 86.5862 223.362 86.5862C222.585 86.5862 221.956 85.9563 221.956 85.1794V80.4068ZM228.052 79C227.275 79 226.645 79.6298 226.645 80.4068V85.1794C226.645 85.9563 227.275 86.5862 228.052 86.5862C228.829 86.5862 229.459 85.9563 229.459 85.1794V80.4068C229.459 79.6298 228.829 79 228.052 79ZM231.334 80.4068C231.334 79.6298 231.964 79 232.741 79C233.518 79 234.148 79.6298 234.148 80.4068V85.1794C234.148 85.9563 233.518 86.5862 232.741 86.5862C231.964 86.5862 231.334 85.9563 231.334 85.1794V80.4068ZM237.43 79C236.653 79 236.023 79.6298 236.023 80.4068V85.1794C236.023 85.9563 236.653 86.5862 237.43 86.5862C238.207 86.5862 238.837 85.9563 238.837 85.1794V80.4068C238.837 79.6298 238.207 79 237.43 79ZM240.713 80.4068C240.713 79.6298 241.343 79 242.12 79C242.897 79 243.527 79.6298 243.527 80.4068V85.1794C243.527 85.9563 242.897 86.5862 242.12 86.5862C241.343 86.5862 240.713 85.9563 240.713 85.1794V80.4068ZM246.809 79C246.032 79 245.402 79.6298 245.402 80.4068V85.1794C245.402 85.9563 246.032 86.5862 246.809 86.5862C247.586 86.5862 248.215 85.9563 248.215 85.1794V80.4068C248.215 79.6298 247.586 79 246.809 79ZM250.091 80.4068C250.091 79.6298 250.721 79 251.498 79C252.275 79 252.905 79.6298 252.905 80.4068V85.1794C252.905 85.9563 252.275 86.5862 251.498 86.5862C250.721 86.5862 250.091 85.9563 250.091 85.1794V80.4068ZM256.188 80.5172C255.411 80.5172 254.781 81.1471 254.781 81.924V85.1794C254.781 85.9563 255.411 86.5862 256.188 86.5862C256.965 86.5862 257.595 85.9563 257.595 85.1794V81.924C257.595 81.1471 256.965 80.5172 256.188 80.5172ZM259.47 83.4411C259.47 82.6642 260.1 82.0343 260.877 82.0343C261.654 82.0343 262.284 82.6642 262.284 83.4411V85.1792C262.284 85.9562 261.654 86.586 260.877 86.586C260.1 86.586 259.47 85.9562 259.47 85.1792V83.4411ZM265.566 82.7932C264.79 82.7932 264.16 83.423 264.16 84.2V85.1794C264.16 85.9564 264.79 86.5862 265.566 86.5862C266.343 86.5862 266.973 85.9564 266.973 85.1794V84.2C266.973 83.423 266.343 82.7932 265.566 82.7932ZM268.849 84.9583C268.849 84.1813 269.478 83.5514 270.255 83.5514C271.032 83.5514 271.662 84.1813 271.662 84.9583V85.1791C271.662 85.9561 271.032 86.5859 270.255 86.5859C269.478 86.5859 268.849 85.9561 268.849 85.1791V84.9583ZM274.945 82.0343C274.168 82.0343 273.538 82.6642 273.538 83.4411V85.1792C273.538 85.9562 274.168 86.586 274.945 86.586C275.722 86.586 276.352 85.9562 276.352 85.1792V83.4411C276.352 82.6642 275.722 82.0343 274.945 82.0343ZM278.228 80.4068C278.228 79.6298 278.858 79 279.635 79C280.412 79 281.042 79.6298 281.042 80.4068V85.1794C281.042 85.9563 280.412 86.5862 279.635 86.5862C278.858 86.5862 278.228 85.9563 278.228 85.1794V80.4068ZM284.324 77.4824C283.547 77.4824 282.917 78.1122 282.917 78.8892V85.179C282.917 85.9559 283.547 86.5858 284.324 86.5858C285.101 86.5858 285.731 85.9559 285.731 85.179V78.8892C285.731 78.1122 285.101 77.4824 284.324 77.4824ZM287.606 81.924C287.606 81.1471 288.236 80.5172 289.013 80.5172C289.79 80.5172 290.42 81.1471 290.42 81.924V85.1794C290.42 85.9563 289.79 86.5862 289.013 86.5862C288.236 86.5862 287.606 85.9563 287.606 85.1794V81.924ZM293.703 81.2758C292.926 81.2758 292.296 81.9056 292.296 82.6826V85.1793C292.296 85.9563 292.926 86.5861 293.703 86.5861C294.48 86.5861 295.11 85.9563 295.11 85.1793V82.6826C295.11 81.9056 294.48 81.2758 293.703 81.2758ZM296.986 81.1652C296.986 80.3883 297.616 79.7584 298.393 79.7584C299.17 79.7584 299.799 80.3883 299.799 81.1652V85.1792C299.799 85.9561 299.17 86.586 298.393 86.586C297.616 86.586 296.986 85.9561 296.986 85.1792V81.1652ZM303.175 81.8085C302.398 81.8085 301.768 82.4384 301.768 83.2153V85.1793C301.768 85.9562 302.398 86.5861 303.175 86.5861C303.952 86.5861 304.582 85.9562 304.582 85.1793V83.2153C304.582 82.4384 303.952 81.8085 303.175 81.8085Z" fill="white"/>
</g>
<path d="M96.7759 19.1488V85.9705" stroke="#7EC7FF" stroke-width="0.984412" stroke-linecap="round" stroke-linejoin="round"/>
<g filter="url(#filter1_d_4477_210341)">
<rect x="47.1001" y="1.82812" width="100.41" height="25.5947" rx="5.13845" fill="white"/>
<g opacity="0.4" filter="url(#filter2_i_4477_210341)">
<path d="M54.1534 13.7602C54.806 13.7602 55.335 13.2312 55.335 12.5786C55.335 11.9066 54.9411 10.9945 54.1534 9.84216C53.3656 11.0106 52.9717 11.9227 52.9717 12.5786C52.9717 13.2312 53.5007 13.7602 54.1534 13.7602Z" fill="url(#paint0_linear_4477_210341)"/>
</g>
<g filter="url(#filter3_i_4477_210341)">
<path d="M62.8493 15.7513C64.0476 15.7513 65.0189 14.78 65.0189 13.5817C65.0189 12.3479 64.2957 10.6732 62.8493 8.5575C61.4029 10.7028 60.6797 12.3775 60.6797 13.5817C60.6797 14.78 61.6511 15.7513 62.8493 15.7513Z" fill="url(#paint1_linear_4477_210341)"/>
</g>
<g filter="url(#filter4_i_4477_210341)">
<path d="M57.7342 21.3698C58.6971 21.3698 59.4776 20.5892 59.4776 19.6263C59.4776 18.6349 58.8965 17.2891 57.7342 15.589C56.5719 17.3129 55.9907 18.6587 55.9907 19.6263C55.9907 20.5892 56.7713 21.3698 57.7342 21.3698Z" fill="url(#paint2_linear_4477_210341)"/>
</g>
<path d="M86.7688 11.8978V6.17034H87.9798V8.53349H90.438V6.17034H91.6461V11.8978H90.438V9.53188H87.9798V11.8978H86.7688ZM94.501 11.9817C94.0592 11.9817 93.6788 11.8922 93.36 11.7132C93.0431 11.5324 92.7988 11.277 92.6273 10.947C92.4558 10.6151 92.37 10.2226 92.37 9.76959C92.37 9.32773 92.4558 8.93993 92.6273 8.6062C92.7988 8.27247 93.0403 8.01238 93.3516 7.82594C93.6648 7.6395 94.0321 7.54628 94.4535 7.54628C94.7369 7.54628 95.0007 7.59195 95.2449 7.68331C95.491 7.7728 95.7055 7.90797 95.8882 8.08882C96.0727 8.26967 96.2163 8.49713 96.3188 8.7712C96.4214 9.0434 96.4727 9.36222 96.4727 9.72765V10.0549H92.8454V9.31654H95.3512C95.3512 9.14501 95.3139 8.99306 95.2393 8.86069C95.1648 8.72832 95.0613 8.62484 94.9289 8.55027C94.7984 8.47382 94.6465 8.4356 94.4731 8.4356C94.2922 8.4356 94.1319 8.47755 93.9921 8.56145C93.8541 8.64349 93.7459 8.75442 93.6676 8.89425C93.5893 9.03222 93.5493 9.18603 93.5474 9.35569V10.0576C93.5474 10.2702 93.5865 10.4538 93.6648 10.6086C93.745 10.7633 93.8578 10.8827 94.0032 10.9666C94.1487 11.0504 94.3211 11.0924 94.5206 11.0924C94.653 11.0924 94.7742 11.0738 94.8842 11.0365C94.9942 10.9992 95.0883 10.9432 95.1666 10.8687C95.2449 10.7941 95.3046 10.7027 95.3456 10.5946L96.4475 10.6673C96.3916 10.9321 96.2769 11.1632 96.1035 11.3609C95.932 11.5566 95.7101 11.7095 95.4379 11.8195C95.1676 11.9277 94.8553 11.9817 94.501 11.9817ZM98.3963 11.9789C98.1222 11.9789 97.878 11.9314 97.6636 11.8363C97.4492 11.7394 97.2795 11.5967 97.1546 11.4084C97.0315 11.2182 96.97 10.9815 96.97 10.6981C96.97 10.4594 97.0138 10.259 97.1015 10.0968C97.1891 9.9346 97.3084 9.80409 97.4594 9.70527C97.6104 9.60646 97.782 9.53188 97.974 9.48154C98.1679 9.4312 98.3711 9.39578 98.5837 9.37527C98.8335 9.34917 99.0349 9.32493 99.1877 9.30256C99.3406 9.27832 99.4516 9.2429 99.5205 9.19629C99.5895 9.14968 99.624 9.08069 99.624 8.98934V8.97256C99.624 8.79544 99.5681 8.6584 99.4562 8.56145C99.3462 8.4645 99.1896 8.41603 98.9864 8.41603C98.772 8.41603 98.6014 8.46357 98.4746 8.55866C98.3478 8.65188 98.2639 8.76933 98.2229 8.91103L97.121 8.82154C97.177 8.56052 97.287 8.33493 97.451 8.14475C97.6151 7.95272 97.8267 7.80543 98.0859 7.70289C98.3469 7.59848 98.6489 7.54628 98.992 7.54628C99.2306 7.54628 99.459 7.57424 99.6771 7.63018C99.8971 7.68611 100.092 7.7728 100.262 7.89026C100.433 8.00772 100.568 8.15874 100.667 8.34332C100.766 8.52603 100.815 8.7451 100.815 9.00052V11.8978H99.6855V11.3021H99.652C99.583 11.4364 99.4907 11.5548 99.3751 11.6573C99.2595 11.758 99.1206 11.8372 98.9584 11.895C98.7962 11.951 98.6088 11.9789 98.3963 11.9789ZM98.7375 11.1567C98.9127 11.1567 99.0675 11.1222 99.2017 11.0532C99.336 10.9824 99.4413 10.8873 99.5177 10.768C99.5942 10.6487 99.6324 10.5135 99.6324 10.3625V9.90663C99.5951 9.93087 99.5438 9.95324 99.4786 9.97375C99.4152 9.99239 99.3434 10.0101 99.2632 10.0269C99.1831 10.0418 99.1029 10.0558 99.0227 10.0688C98.9426 10.08 98.8699 10.0903 98.8046 10.0996C98.6648 10.1201 98.5426 10.1527 98.4382 10.1975C98.3338 10.2422 98.2527 10.3028 98.1949 10.3793C98.1371 10.4538 98.1082 10.5471 98.1082 10.6589C98.1082 10.8211 98.167 10.9451 98.2844 11.0309C98.4037 11.1148 98.5548 11.1567 98.7375 11.1567ZM105.512 7.60221L104.01 11.8978H102.668L101.166 7.60221H102.424L103.317 10.6757H103.361L104.251 7.60221H105.512ZM106.778 13.5087C106.627 13.5087 106.486 13.4966 106.353 13.4723C106.223 13.45 106.115 13.4211 106.029 13.3856L106.297 12.4963C106.437 12.5392 106.563 12.5625 106.675 12.5662C106.789 12.5699 106.886 12.5438 106.968 12.4879C107.052 12.432 107.12 12.3369 107.173 12.2027L107.243 12.0209L105.702 7.60221H106.954L107.844 10.7568H107.889L108.786 7.60221H110.048L108.378 12.3621C108.298 12.5933 108.189 12.7946 108.051 12.9661C107.915 13.1395 107.742 13.2728 107.533 13.3661C107.325 13.4611 107.073 13.5087 106.778 13.5087ZM112.322 11.8978V7.60221H113.477V8.35171H113.522C113.6 8.08509 113.732 7.88374 113.916 7.74763C114.101 7.60967 114.314 7.54068 114.554 7.54068C114.614 7.54068 114.678 7.54441 114.747 7.55187C114.816 7.55933 114.877 7.56958 114.929 7.58263V8.63976C114.873 8.62298 114.796 8.60806 114.697 8.59501C114.598 8.58196 114.507 8.57544 114.425 8.57544C114.25 8.57544 114.094 8.61366 113.956 8.6901C113.82 8.76467 113.711 8.86908 113.631 9.00332C113.553 9.13756 113.514 9.2923 113.514 9.46756V11.8978H112.322ZM116.568 11.9789C116.294 11.9789 116.05 11.9314 115.835 11.8363C115.621 11.7394 115.451 11.5967 115.326 11.4084C115.203 11.2182 115.142 10.9815 115.142 10.6981C115.142 10.4594 115.185 10.259 115.273 10.0968C115.361 9.9346 115.48 9.80409 115.631 9.70527C115.782 9.60646 115.954 9.53188 116.146 9.48154C116.34 9.4312 116.543 9.39578 116.755 9.37527C117.005 9.34917 117.206 9.32493 117.359 9.30256C117.512 9.27832 117.623 9.2429 117.692 9.19629C117.761 9.14968 117.796 9.08069 117.796 8.98934V8.97256C117.796 8.79544 117.74 8.6584 117.628 8.56145C117.518 8.4645 117.361 8.41603 117.158 8.41603C116.944 8.41603 116.773 8.46357 116.646 8.55866C116.519 8.65188 116.436 8.76933 116.395 8.91103L115.293 8.82154C115.349 8.56052 115.459 8.33493 115.623 8.14475C115.787 7.95272 115.998 7.80543 116.258 7.70289C116.519 7.59848 116.821 7.54628 117.164 7.54628C117.402 7.54628 117.631 7.57424 117.849 7.63018C118.069 7.68611 118.264 7.7728 118.433 7.89026C118.605 8.00772 118.74 8.15874 118.839 8.34332C118.938 8.52603 118.987 8.7451 118.987 9.00052V11.8978H117.857V11.3021H117.824C117.755 11.4364 117.662 11.5548 117.547 11.6573C117.431 11.758 117.292 11.8372 117.13 11.895C116.968 11.951 116.78 11.9789 116.568 11.9789ZM116.909 11.1567C117.084 11.1567 117.239 11.1222 117.373 11.0532C117.508 10.9824 117.613 10.8873 117.689 10.768C117.766 10.6487 117.804 10.5135 117.804 10.3625V9.90663C117.767 9.93087 117.715 9.95324 117.65 9.97375C117.587 9.99239 117.515 10.0101 117.435 10.0269C117.355 10.0418 117.275 10.0558 117.194 10.0688C117.114 10.08 117.041 10.0903 116.976 10.0996C116.836 10.1201 116.714 10.1527 116.61 10.1975C116.505 10.2422 116.424 10.3028 116.367 10.3793C116.309 10.4538 116.28 10.5471 116.28 10.6589C116.28 10.8211 116.339 10.9451 116.456 11.0309C116.575 11.1148 116.726 11.1567 116.909 11.1567ZM119.833 11.8978V7.60221H121.024V11.8978H119.833ZM120.431 7.04848C120.254 7.04848 120.102 6.98975 119.975 6.87229C119.85 6.75297 119.788 6.61034 119.788 6.44441C119.788 6.28034 119.85 6.13957 119.975 6.02212C120.102 5.90279 120.254 5.84313 120.431 5.84313C120.608 5.84313 120.759 5.90279 120.884 6.02212C121.011 6.13957 121.074 6.28034 121.074 6.44441C121.074 6.61034 121.011 6.75297 120.884 6.87229C120.759 6.98975 120.608 7.04848 120.431 7.04848ZM123.091 9.41442V11.8978H121.9V7.60221H123.035V8.36009H123.085C123.18 8.11026 123.34 7.91263 123.563 7.76721C123.787 7.61992 124.058 7.54628 124.377 7.54628C124.676 7.54628 124.936 7.61153 125.158 7.74204C125.379 7.87255 125.552 8.05899 125.675 8.30137C125.798 8.54188 125.86 8.829 125.86 9.16273V11.8978H124.668V9.37527C124.67 9.11239 124.603 8.9073 124.467 8.76001C124.331 8.61086 124.143 8.53628 123.905 8.53628C123.744 8.53628 123.603 8.57077 123.48 8.63976C123.358 8.70874 123.263 8.80942 123.194 8.94179C123.127 9.0723 123.093 9.22985 123.091 9.41442Z" fill="#107EFF"/>
<path opacity="0.7" d="M72.2168 22.8059C71.7749 22.804 71.3974 22.6875 71.0842 22.4563C70.7709 22.2251 70.5314 21.8886 70.3654 21.4467C70.1995 21.0049 70.1165 20.4726 70.1165 19.8499C70.1165 19.229 70.1995 18.6986 70.3654 18.2586C70.5332 17.8186 70.7737 17.483 71.087 17.2518C71.4021 17.0206 71.7787 16.905 72.2168 16.905C72.6549 16.905 73.0306 17.0215 73.3438 17.2546C73.6571 17.4858 73.8966 17.8214 74.0626 18.2614C74.2304 18.6995 74.3143 19.229 74.3143 19.8499C74.3143 20.4744 74.2313 21.0077 74.0654 21.4495C73.8994 21.8895 73.6599 22.2261 73.3466 22.4591C73.0334 22.6903 72.6568 22.8059 72.2168 22.8059ZM72.2168 22.0592C72.6046 22.0592 72.9076 21.87 73.1257 21.4915C73.3457 21.113 73.4557 20.5658 73.4557 19.8499C73.4557 19.3744 73.4054 18.9727 73.3047 18.6445C73.2059 18.3145 73.0633 18.0647 72.8768 17.895C72.6922 17.7235 72.4722 17.6377 72.2168 17.6377C71.8309 17.6377 71.5279 17.8279 71.3079 18.2082C71.0879 18.5886 70.977 19.1358 70.9751 19.8499C70.9751 20.3272 71.0245 20.7308 71.1233 21.0608C71.224 21.3889 71.3666 21.6378 71.5512 21.8075C71.7358 21.9753 71.9577 22.0592 72.2168 22.0592ZM75.6532 22.764C75.5003 22.764 75.3688 22.7099 75.2588 22.6017C75.1488 22.4917 75.0938 22.3594 75.0938 22.2046C75.0938 22.0517 75.1488 21.9212 75.2588 21.8131C75.3688 21.7031 75.5003 21.6481 75.6532 21.6481C75.806 21.6481 75.9375 21.7031 76.0475 21.8131C76.1575 21.9212 76.2125 22.0517 76.2125 22.2046C76.2125 22.3072 76.1864 22.4013 76.1342 22.4871C76.0838 22.571 76.0167 22.6381 75.9328 22.6884C75.8489 22.7388 75.7557 22.764 75.6532 22.764ZM77.2011 21.5922V20.893L79.6761 16.9833H80.227V18.0125H79.8775L78.1072 20.8147V20.8594H81.4995V21.5922H77.2011ZM79.9166 22.7108V21.3796L79.9222 21.0608V16.9833H80.7416V22.7108H79.9166ZM84.4094 22.7891C84.0085 22.7891 83.6543 22.7201 83.3467 22.5822C83.0409 22.4442 82.8013 22.254 82.6279 22.0117C82.4546 21.7693 82.3688 21.4934 82.3707 21.1839C82.3688 20.9415 82.4182 20.7187 82.5189 20.5155C82.6214 20.3104 82.7603 20.1398 82.9356 20.0037C83.1108 19.8657 83.3066 19.7781 83.5229 19.7408V19.7072C83.2376 19.6383 83.0092 19.4854 82.8377 19.2486C82.6662 19.0118 82.5813 18.7396 82.5832 18.432C82.5813 18.1393 82.6587 17.8782 82.8153 17.6489C82.9738 17.4177 83.191 17.236 83.4669 17.1036C83.7429 16.9712 84.057 16.905 84.4094 16.905C84.758 16.905 85.0694 16.9721 85.3435 17.1064C85.6194 17.2387 85.8366 17.4205 85.9951 17.6517C86.1536 17.881 86.2337 18.1411 86.2356 18.432C86.2337 18.7396 86.1461 19.0118 85.9727 19.2486C85.7993 19.4854 85.5737 19.6383 85.2959 19.7072V19.7408C85.5103 19.7781 85.7033 19.8657 85.8748 20.0037C86.0482 20.1398 86.1862 20.3104 86.2887 20.5155C86.3931 20.7187 86.4463 20.9415 86.4481 21.1839C86.4463 21.4934 86.3586 21.7693 86.1853 22.0117C86.0119 22.254 85.7714 22.4442 85.4637 22.5822C85.158 22.7201 84.8065 22.7891 84.4094 22.7891ZM84.4094 22.0816C84.6462 22.0816 84.8513 22.0424 85.0247 21.9641C85.198 21.8839 85.3323 21.773 85.4274 21.6313C85.5225 21.4878 85.5709 21.32 85.5728 21.1279C85.5709 20.9284 85.5187 20.7522 85.4162 20.5994C85.3155 20.4465 85.1785 20.3262 85.0051 20.2386C84.8317 20.151 84.6331 20.1072 84.4094 20.1072C84.1838 20.1072 83.9834 20.151 83.8081 20.2386C83.6329 20.3262 83.4949 20.4465 83.3942 20.5994C83.2935 20.7522 83.2441 20.9284 83.246 21.1279C83.2441 21.32 83.2898 21.4878 83.383 21.6313C83.4781 21.773 83.6133 21.8839 83.7885 21.9641C83.9638 22.0424 84.1708 22.0816 84.4094 22.0816ZM84.4094 19.4164C84.5996 19.4164 84.7683 19.3782 84.9156 19.3017C85.0629 19.2253 85.1785 19.119 85.2624 18.9829C85.3481 18.8468 85.3919 18.6874 85.3938 18.5047C85.3919 18.3257 85.3491 18.1691 85.2652 18.0349C85.1831 17.9006 85.0685 17.7971 84.9212 17.7244C84.7739 17.6499 84.6033 17.6126 84.4094 17.6126C84.2118 17.6126 84.0384 17.6499 83.8892 17.7244C83.7419 17.7971 83.6273 17.9006 83.5452 18.0349C83.4632 18.1691 83.4231 18.3257 83.425 18.5047C83.4231 18.6874 83.4641 18.8468 83.548 18.9829C83.6319 19.119 83.7475 19.2253 83.8948 19.3017C84.044 19.3782 84.2155 19.4164 84.4094 19.4164ZM89.5454 22.7108V18.4152H90.3816V22.7108H89.5454ZM89.9677 17.7524C89.8223 17.7524 89.6974 17.7039 89.5929 17.607C89.4904 17.5082 89.4391 17.3907 89.4391 17.2546C89.4391 17.1166 89.4904 16.9992 89.5929 16.9022C89.6974 16.8034 89.8223 16.754 89.9677 16.754C90.1131 16.754 90.2371 16.8034 90.3396 16.9022C90.444 16.9992 90.4963 17.1166 90.4963 17.2546C90.4963 17.3907 90.444 17.5082 90.3396 17.607C90.2371 17.7039 90.1131 17.7524 89.9677 17.7524ZM92.3427 20.1603V22.7108H91.5065V18.4152H92.3092V19.1144H92.3623C92.4611 18.8869 92.6159 18.7042 92.8265 18.5662C93.0391 18.4282 93.3066 18.3593 93.6292 18.3593C93.9219 18.3593 94.1782 18.4208 94.3982 18.5438C94.6182 18.665 94.7888 18.8459 94.91 19.0864C95.0312 19.3269 95.0918 19.6243 95.0918 19.9785V22.7108H94.2556V20.0792C94.2556 19.7678 94.1745 19.5245 94.0123 19.3493C93.8501 19.1722 93.6273 19.0836 93.3439 19.0836C93.15 19.0836 92.9776 19.1255 92.8265 19.2094C92.6774 19.2933 92.559 19.4164 92.4714 19.5786C92.3856 19.7389 92.3427 19.9328 92.3427 20.1603ZM98.3946 16.7148L96.5489 23.5722H95.8022L97.6479 16.7148H98.3946ZM99.9412 20.1603V22.7108H99.105V16.9833H99.93V19.1144H99.9831C100.084 18.8832 100.238 18.6995 100.445 18.5634C100.652 18.4273 100.922 18.3593 101.256 18.3593C101.55 18.3593 101.807 18.4199 102.027 18.541C102.249 18.6622 102.421 18.8431 102.542 19.0836C102.665 19.3222 102.727 19.6205 102.727 19.9785V22.7108H101.89V20.0792C101.89 19.7641 101.809 19.5199 101.647 19.3465C101.485 19.1712 101.259 19.0836 100.97 19.0836C100.773 19.0836 100.596 19.1255 100.439 19.2094C100.284 19.2933 100.162 19.4164 100.073 19.5786C99.985 19.7389 99.9412 19.9328 99.9412 20.1603Z" fill="#107EFF"/>
<path opacity="0.7" d="M107.407 19.9321V20.6564H104.868V19.9321H107.407Z" fill="#107EFF"/>
<path opacity="0.7" d="M110.015 22.781V18.4854H110.851V22.781H110.015ZM110.437 17.8226C110.292 17.8226 110.167 17.7741 110.062 17.6772C109.96 17.5783 109.908 17.4609 109.908 17.3248C109.908 17.1868 109.96 17.0694 110.062 16.9724C110.167 16.8736 110.292 16.8242 110.437 16.8242C110.582 16.8242 110.706 16.8736 110.809 16.9724C110.913 17.0694 110.966 17.1868 110.966 17.3248C110.966 17.4609 110.913 17.5783 110.809 17.6772C110.706 17.7741 110.582 17.8226 110.437 17.8226ZM112.812 20.2305V22.781H111.976V18.4854H112.779V19.1845H112.832C112.93 18.9571 113.085 18.7744 113.296 18.6364C113.508 18.4984 113.776 18.4295 114.099 18.4295C114.391 18.4295 114.648 18.491 114.868 18.614C115.088 18.7352 115.258 18.9161 115.379 19.1566C115.501 19.3971 115.561 19.6945 115.561 20.0487V22.781H114.725V20.1494C114.725 19.838 114.644 19.5947 114.482 19.4195C114.319 19.2423 114.097 19.1538 113.813 19.1538C113.619 19.1538 113.447 19.1957 113.296 19.2796C113.147 19.3635 113.028 19.4866 112.941 19.6488C112.855 19.8091 112.812 20.003 112.812 20.2305ZM120.929 17.0535V22.781H120.062V17.9205H120.028L118.658 18.8154V17.9876L120.087 17.0535H120.929ZM124.478 22.8593C124.222 22.8556 123.97 22.809 123.722 22.7195C123.476 22.63 123.253 22.4808 123.051 22.272C122.85 22.0632 122.689 21.7826 122.567 21.4302C122.448 21.0779 122.388 20.6379 122.388 20.1102C122.388 19.6106 122.438 19.1668 122.537 18.779C122.637 18.3912 122.782 18.064 122.97 17.7974C123.158 17.5289 123.386 17.3248 123.653 17.185C123.919 17.0451 124.218 16.9752 124.55 16.9752C124.891 16.9752 125.194 17.0423 125.459 17.1766C125.724 17.3108 125.938 17.4963 126.102 17.7331C126.268 17.9699 126.374 18.2393 126.418 18.5413H125.565C125.508 18.3027 125.393 18.1078 125.221 17.9568C125.05 17.8058 124.826 17.7303 124.55 17.7303C124.131 17.7303 123.804 17.913 123.569 18.2784C123.336 18.6439 123.218 19.1519 123.216 19.8026H123.258C123.357 19.6404 123.478 19.5024 123.622 19.3887C123.767 19.2731 123.929 19.1845 124.108 19.123C124.289 19.0596 124.479 19.0279 124.679 19.0279C125.011 19.0279 125.311 19.109 125.579 19.2712C125.85 19.4316 126.065 19.6534 126.225 19.9368C126.386 20.2202 126.466 20.5446 126.466 20.9101C126.466 21.2755 126.383 21.6064 126.217 21.9029C126.053 22.1993 125.822 22.4342 125.523 22.6076C125.225 22.7791 124.876 22.863 124.478 22.8593ZM124.475 22.1322C124.695 22.1322 124.891 22.0781 125.065 21.97C125.238 21.8618 125.375 21.7164 125.476 21.5337C125.577 21.351 125.627 21.1468 125.627 20.9212C125.627 20.7012 125.578 20.5008 125.479 20.32C125.382 20.1391 125.248 19.9956 125.076 19.8893C124.906 19.783 124.712 19.7299 124.494 19.7299C124.328 19.7299 124.175 19.7616 124.033 19.825C123.893 19.8884 123.77 19.976 123.664 20.0879C123.557 20.1997 123.474 20.3284 123.412 20.4738C123.352 20.6173 123.323 20.7693 123.323 20.9296C123.323 21.144 123.372 21.3426 123.471 21.5253C123.571 21.708 123.708 21.8553 123.882 21.9672C124.057 22.0772 124.255 22.1322 124.475 22.1322ZM129.58 22.781V18.4854H130.383V19.1845H130.436C130.525 18.9478 130.672 18.7632 130.875 18.6308C131.078 18.4966 131.321 18.4295 131.605 18.4295C131.892 18.4295 132.132 18.4966 132.326 18.6308C132.522 18.7651 132.666 18.9496 132.76 19.1845H132.804C132.907 18.9552 133.07 18.7725 133.294 18.6364C133.518 18.4984 133.784 18.4295 134.094 18.4295C134.483 18.4295 134.801 18.5516 135.047 18.7958C135.295 19.0401 135.419 19.4083 135.419 19.9005V22.781H134.583V19.9788C134.583 19.6879 134.504 19.4773 134.345 19.3467C134.187 19.2162 133.998 19.151 133.778 19.151C133.505 19.151 133.294 19.2349 133.143 19.4027C132.992 19.5686 132.916 19.7821 132.916 20.0431V22.781H132.083V19.9257C132.083 19.6926 132.01 19.5052 131.865 19.3635C131.719 19.2218 131.53 19.151 131.297 19.151C131.139 19.151 130.992 19.1929 130.858 19.2768C130.726 19.3589 130.618 19.4735 130.536 19.6208C130.456 19.7681 130.416 19.9387 130.416 20.1326V22.781H129.58ZM136.54 22.781V18.4854H137.376V22.781H136.54ZM136.962 17.8226C136.817 17.8226 136.692 17.7741 136.588 17.6772C136.485 17.5783 136.434 17.4609 136.434 17.3248C136.434 17.1868 136.485 17.0694 136.588 16.9724C136.692 16.8736 136.817 16.8242 136.962 16.8242C137.108 16.8242 137.232 16.8736 137.334 16.9724C137.439 17.0694 137.491 17.1868 137.491 17.3248C137.491 17.4609 137.439 17.5783 137.334 17.6772C137.232 17.7741 137.108 17.8226 136.962 17.8226ZM139.337 20.2305V22.781H138.501V18.4854H139.304V19.1845H139.357C139.456 18.9571 139.611 18.7744 139.821 18.6364C140.034 18.4984 140.301 18.4295 140.624 18.4295C140.917 18.4295 141.173 18.491 141.393 18.614C141.613 18.7352 141.784 18.9161 141.905 19.1566C142.026 19.3971 142.086 19.6945 142.086 20.0487V22.781H141.25V20.1494C141.25 19.838 141.169 19.5947 141.007 19.4195C140.845 19.2423 140.622 19.1538 140.339 19.1538C140.145 19.1538 139.972 19.1957 139.821 19.2796C139.672 19.3635 139.554 19.4866 139.466 19.6488C139.38 19.8091 139.337 20.003 139.337 20.2305Z" fill="#107EFF"/>
</g>
<defs>
<filter id="filter0_d_4477_210341" x="16.562" y="55.1243" width="291.771" height="37.0891" filterUnits="userSpaceOnUse" color-interpolation-filters="sRGB">
<feFlood flood-opacity="0" result="BackgroundImageFix"/>
<feColorMatrix in="SourceAlpha" type="matrix" values="0 0 0 0 0 0 0 0 0 0 0 0 0 0 0 0 0 0 127 0" result="hardAlpha"/>
<feOffset dy="1.87574"/>
<feGaussianBlur stdDeviation="1.87574"/>
<feColorMatrix type="matrix" values="0 0 0 0 0 0 0 0 0 0 0 0 0 0 0 0 0 0 0.15 0"/>
<feBlend mode="normal" in2="BackgroundImageFix" result="effect1_dropShadow_4477_210341"/>
<feBlend mode="normal" in="SourceGraphic" in2="effect1_dropShadow_4477_210341" result="shape"/>
</filter>
<filter id="filter1_d_4477_210341" x="44.5309" y="0.543512" width="105.549" height="30.7332" filterUnits="userSpaceOnUse" color-interpolation-filters="sRGB">
<feFlood flood-opacity="0" result="BackgroundImageFix"/>
<feColorMatrix in="SourceAlpha" type="matrix" values="0 0 0 0 0 0 0 0 0 0 0 0 0 0 0 0 0 0 127 0" result="hardAlpha"/>
<feOffset dy="1.28461"/>
<feGaussianBlur stdDeviation="1.28461"/>
<feColorMatrix type="matrix" values="0 0 0 0 0 0 0 0 0 0 0 0 0 0 0 0 0 0 0.15 0"/>
<feBlend mode="normal" in2="BackgroundImageFix" result="effect1_dropShadow_4477_210341"/>
<feBlend mode="normal" in="SourceGraphic" in2="effect1_dropShadow_4477_210341" result="shape"/>
</filter>
<filter id="filter2_i_4477_210341" x="52.3294" y="8.55755" width="3.00559" height="5.2027" filterUnits="userSpaceOnUse" color-interpolation-filters="sRGB">
<feFlood flood-opacity="0" result="BackgroundImageFix"/>
<feBlend mode="normal" in="SourceGraphic" in2="BackgroundImageFix" result="shape"/>
<feColorMatrix in="SourceAlpha" type="matrix" values="0 0 0 0 0 0 0 0 0 0 0 0 0 0 0 0 0 0 127 0" result="hardAlpha"/>
<feOffset dx="-0.642307" dy="-1.28461"/>
<feGaussianBlur stdDeviation="0.96346"/>
<feComposite in2="hardAlpha" operator="arithmetic" k2="-1" k3="1"/>
<feColorMatrix type="matrix" values="0 0 0 0 0.0627451 0 0 0 0 0.494118 0 0 0 0 1 0 0 0 1 0"/>
<feBlend mode="normal" in2="shape" result="effect1_innerShadow_4477_210341"/>
</filter>
<filter id="filter3_i_4477_210341" x="60.0374" y="7.27288" width="4.98166" height="8.47846" filterUnits="userSpaceOnUse" color-interpolation-filters="sRGB">
<feFlood flood-opacity="0" result="BackgroundImageFix"/>
<feBlend mode="normal" in="SourceGraphic" in2="BackgroundImageFix" result="shape"/>
<feColorMatrix in="SourceAlpha" type="matrix" values="0 0 0 0 0 0 0 0 0 0 0 0 0 0 0 0 0 0 127 0" result="hardAlpha"/>
<feOffset dx="-0.642307" dy="-1.28461"/>
<feGaussianBlur stdDeviation="0.96346"/>
<feComposite in2="hardAlpha" operator="arithmetic" k2="-1" k3="1"/>
<feColorMatrix type="matrix" values="0 0 0 0 0.0627451 0 0 0 0 0.494118 0 0 0 0 1 0 0 0 1 0"/>
<feBlend mode="normal" in2="shape" result="effect1_innerShadow_4477_210341"/>
</filter>
<filter id="filter4_i_4477_210341" x="55.3484" y="14.3044" width="4.12912" height="7.06538" filterUnits="userSpaceOnUse" color-interpolation-filters="sRGB">
<feFlood flood-opacity="0" result="BackgroundImageFix"/>
<feBlend mode="normal" in="SourceGraphic" in2="BackgroundImageFix" result="shape"/>
<feColorMatrix in="SourceAlpha" type="matrix" values="0 0 0 0 0 0 0 0 0 0 0 0 0 0 0 0 0 0 127 0" result="hardAlpha"/>
<feOffset dx="-0.642307" dy="-1.28461"/>
<feGaussianBlur stdDeviation="0.96346"/>
<feComposite in2="hardAlpha" operator="arithmetic" k2="-1" k3="1"/>
<feColorMatrix type="matrix" values="0 0 0 0 0.0627451 0 0 0 0 0.494118 0 0 0 0 1 0 0 0 1 0"/>
<feBlend mode="normal" in2="shape" result="effect1_innerShadow_4477_210341"/>
</filter>
<linearGradient id="paint0_linear_4477_210341" x1="54.2488" y1="12.7648" x2="53.1252" y2="9.226" gradientUnits="userSpaceOnUse">
<stop stop-color="#107EFF"/>
<stop offset="1" stop-color="white"/>
</linearGradient>
<linearGradient id="paint1_linear_4477_210341" x1="63.0246" y1="13.9236" x2="60.9616" y2="7.42617" gradientUnits="userSpaceOnUse">
<stop stop-color="#107EFF"/>
<stop offset="1" stop-color="white"/>
</linearGradient>
<linearGradient id="paint2_linear_4477_210341" x1="57.8751" y1="19.901" x2="56.2172" y2="14.6799" gradientUnits="userSpaceOnUse">
<stop stop-color="#107EFF"/>
<stop offset="1" stop-color="white"/>
</linearGradient>
</defs>
</svg>
