<svg width="329" height="109" viewBox="0 0 329 109" fill="none" xmlns="http://www.w3.org/2000/svg">
<path d="M7.87376 99.881C6.34677 99.8668 5.3489 100.964 5.3489 102.342C5.35245 103.73 6.35742 104.732 7.61808 104.732C8.38867 104.732 9.04918 104.355 9.42205 103.745H9.47887C9.47532 105.417 8.84677 106.394 7.78143 106.394C7.0854 106.394 6.63796 105.968 6.49592 105.346H5.41282C5.57262 106.522 6.48171 107.353 7.78143 107.353C9.47177 107.353 10.53 105.9 10.53 103.354C10.5265 100.698 9.16992 99.8917 7.87376 99.881ZM7.87731 100.804C8.71893 100.804 9.34038 101.518 9.34038 102.317C9.34393 103.127 8.68697 103.837 7.856 103.837C7.02148 103.837 6.41779 103.169 6.41424 102.328C6.41424 101.483 7.04279 100.804 7.87731 100.804ZM12.5266 103.35C12.9137 103.35 13.2369 103.034 13.2369 102.64C13.2369 102.253 12.9137 101.934 12.5266 101.934C12.136 101.934 11.8164 102.253 11.8164 102.64C11.8164 103.034 12.136 103.35 12.5266 103.35ZM12.5266 107.321C12.9137 107.321 13.2369 107.005 13.2369 106.61C13.2369 106.223 12.9137 105.904 12.5266 105.904C12.136 105.904 11.8164 106.223 11.8164 106.61C11.8164 107.005 12.136 107.321 12.5266 107.321ZM14.4922 105.833H17.9403V107.253H18.9879V105.833H19.9503V104.902H18.9879V99.9804H17.6349L14.4922 104.945V105.833ZM17.9474 104.902H15.6428V104.846L17.8906 101.287H17.9474V104.902ZM21.1879 107.253H25.9748V106.312H22.7006V106.259L24.146 104.746C25.4776 103.4 25.8576 102.757 25.8576 101.944C25.8576 100.776 24.9059 99.881 23.5352 99.881C22.1751 99.881 21.1808 100.762 21.1808 102.09H22.2283C22.2248 101.309 22.729 100.797 23.5138 100.797C24.2525 100.797 24.8136 101.252 24.8136 101.976C24.8136 102.619 24.43 103.081 23.6488 103.908L21.1879 106.458V107.253ZM30.6809 107.253L31.3485 105.328H34.1895L34.8535 107.253H36.0183L33.4011 99.9804H32.1333L29.5162 107.253H30.6809ZM31.6681 104.405L32.7406 101.301H32.7974L33.8699 104.405H31.6681ZM37.0685 99.9804V107.253H38.1126V101.987H38.18L40.3249 107.243H41.1914L43.3363 101.99H43.4038V107.253H44.4478V99.9804H43.1161L40.8008 105.634H40.7156L38.4002 99.9804H37.0685Z" fill="white"/>
<path opacity="0.6" d="M25.9875 91.4747C25.9875 91.2125 25.7749 91 25.5128 91C25.2506 91 25.0381 91.2125 25.0381 91.4747V94.3228C25.0381 94.5849 25.2506 94.7975 25.5128 94.7975C25.7749 94.7975 25.9875 94.5849 25.9875 94.3228V91.4747Z" fill="white"/>
<path d="M75.2156 99.881C73.6886 99.8668 72.6907 100.964 72.6907 102.342C72.6942 103.73 73.6992 104.732 74.9599 104.732C75.7305 104.732 76.391 104.355 76.7638 103.745H76.8207C76.8171 105.417 76.1886 106.394 75.1232 106.394C74.4272 106.394 73.9798 105.968 73.8377 105.346H72.7546C72.9144 106.522 73.8235 107.353 75.1232 107.353C76.8136 107.353 77.8718 105.9 77.8718 103.354C77.8683 100.698 76.5117 99.8917 75.2156 99.881ZM75.2191 100.804C76.0607 100.804 76.6822 101.518 76.6822 102.317C76.6857 103.127 76.0288 103.837 75.1978 103.837C74.3633 103.837 73.7596 103.169 73.756 102.328C73.756 101.483 74.3846 100.804 75.2191 100.804ZM79.8684 103.35C80.2555 103.35 80.5787 103.034 80.5787 102.64C80.5787 102.253 80.2555 101.934 79.8684 101.934C79.4778 101.934 79.1582 102.253 79.1582 102.64C79.1582 103.034 79.4778 103.35 79.8684 103.35ZM79.8684 107.321C80.2555 107.321 80.5787 107.005 80.5787 106.61C80.5787 106.223 80.2555 105.904 79.8684 105.904C79.4778 105.904 79.1582 106.223 79.1582 106.61C79.1582 107.005 79.4778 107.321 79.8684 107.321ZM84.3873 107.353C85.8503 107.353 86.8944 106.319 86.8908 104.902C86.8944 103.496 85.9142 102.473 84.5897 102.473C84.0499 102.473 83.5492 102.679 83.2651 102.956H83.2225L83.4533 100.921H86.5392V99.9804H82.5407L82.1323 103.645L83.1373 103.794C83.4107 103.549 83.9007 103.382 84.3411 103.382C85.204 103.39 85.829 104.036 85.829 104.924C85.829 105.797 85.2218 106.429 84.3873 106.429C83.6841 106.429 83.1266 105.982 83.0698 105.357H82.0044C82.0471 106.515 83.052 107.353 84.3873 107.353ZM88.4329 107.253H89.5799L92.744 100.953V99.9804H87.9357V100.921H91.6076V100.975L88.4329 107.253ZM97.3391 107.253L98.0067 105.328H100.848L101.512 107.253H102.676L100.059 99.9804H98.7915L96.1744 107.253H97.3391ZM98.3263 104.405L99.3988 101.301H99.4556L100.528 104.405H98.3263ZM103.727 99.9804V107.253H104.771V101.987H104.838L106.983 107.243H107.85L109.994 101.99H110.062V107.253H111.106V99.9804H109.774L107.459 105.634H107.374L105.058 99.9804H103.727Z" fill="white"/>
<path opacity="0.6" d="M92.4557 91.4747C92.4557 91.2125 92.2432 91 91.981 91C91.7189 91 91.5063 91.2125 91.5063 91.4747V94.3228C91.5063 94.5849 91.7189 94.7975 91.981 94.7975C92.2432 94.7975 92.4557 94.5849 92.4557 94.3228V91.4747Z" fill="white"/>
<path d="M144.711 99.9804H143.642L141.827 101.167V102.218L143.567 101.081H143.61V107.253H144.711V99.9804ZM149.21 107.374C150.89 107.374 151.873 106.003 151.873 103.62C151.873 101.255 150.876 99.881 149.21 99.881C147.541 99.881 146.547 101.252 146.543 103.62C146.543 106 147.527 107.37 149.21 107.374ZM149.21 106.426C148.226 106.426 147.633 105.439 147.633 103.62C147.637 101.809 148.23 100.811 149.21 100.811C150.187 100.811 150.783 101.809 150.783 103.62C150.783 105.439 150.19 106.426 149.21 106.426ZM153.847 103.35C154.234 103.35 154.557 103.034 154.557 102.64C154.557 102.253 154.234 101.934 153.847 101.934C153.456 101.934 153.137 102.253 153.137 102.64C153.137 103.034 153.456 103.35 153.847 103.35ZM153.847 107.321C154.234 107.321 154.557 107.005 154.557 106.61C154.557 106.223 154.234 105.904 153.847 105.904C153.456 105.904 153.137 106.223 153.137 106.61C153.137 107.005 153.456 107.321 153.847 107.321ZM158.724 99.9804H157.656L155.841 101.167V102.218L157.581 101.081H157.624V107.253H158.724V99.9804ZM160.692 107.253H165.479V106.312H162.205V106.259L163.65 104.746C164.982 103.4 165.362 102.757 165.362 101.944C165.362 100.776 164.41 99.881 163.039 99.881C161.679 99.881 160.685 100.762 160.685 102.09H161.732C161.729 101.309 162.233 100.797 163.018 100.797C163.756 100.797 164.317 101.252 164.317 101.976C164.317 102.619 163.934 103.081 163.153 103.908L160.692 106.458V107.253ZM170.185 107.253L170.852 105.328H173.693L174.357 107.253H175.522L172.905 99.9804H171.637L169.02 107.253H170.185ZM171.172 104.405L172.244 101.301H172.301L173.374 104.405H171.172ZM176.572 99.9804V107.253H177.616V101.987H177.684L179.829 107.243H180.695L182.84 101.99H182.908V107.253H183.952V99.9804H182.62L180.305 105.634H180.219L177.904 99.9804H176.572Z" fill="white"/>
<path opacity="0.6" d="M163.924 91.4747C163.924 91.2125 163.712 91 163.45 91C163.188 91 162.975 91.2125 162.975 91.4747V94.3228C162.975 94.5849 163.188 94.7975 163.45 94.7975C163.712 94.7975 163.924 94.5849 163.924 94.3228V91.4747Z" fill="white"/>
<path d="M215.179 99.9804H214.11L212.295 101.167V102.218L214.035 101.081H214.078V107.253H215.179V99.9804ZM219.678 107.374C221.358 107.374 222.341 106.003 222.341 103.62C222.341 101.255 221.343 99.881 219.678 99.881C218.009 99.881 217.014 101.252 217.011 103.62C217.011 106 217.995 107.37 219.678 107.374ZM219.678 106.426C218.694 106.426 218.101 105.439 218.101 103.62C218.105 101.809 218.698 100.811 219.678 100.811C220.654 100.811 221.251 101.809 221.251 103.62C221.251 105.439 220.658 106.426 219.678 106.426ZM224.315 103.35C224.702 103.35 225.025 103.034 225.025 102.64C225.025 102.253 224.702 101.934 224.315 101.934C223.924 101.934 223.604 102.253 223.604 102.64C223.604 103.034 223.924 103.35 224.315 103.35ZM224.315 107.321C224.702 107.321 225.025 107.005 225.025 106.61C225.025 106.223 224.702 105.904 224.315 105.904C223.924 105.904 223.604 106.223 223.604 106.61C223.604 107.005 223.924 107.321 224.315 107.321ZM226.433 107.253H231.22V106.312H227.946V106.259L229.391 104.746C230.723 103.4 231.103 102.757 231.103 101.944C231.103 100.776 230.151 99.881 228.78 99.881C227.42 99.881 226.426 100.762 226.426 102.09H227.473C227.47 101.309 227.974 100.797 228.759 100.797C229.498 100.797 230.059 101.252 230.059 101.976C230.059 102.619 229.675 103.081 228.894 103.908L226.433 106.458V107.253ZM232.811 107.253H233.958L237.122 100.953V99.9804H232.314V100.921H235.986V100.975L232.811 107.253ZM241.717 107.253L242.385 105.328H245.226L245.89 107.253H247.054L244.437 99.9804H243.169L240.552 107.253H241.717ZM242.704 104.405L243.777 101.301H243.834L244.906 104.405H242.704ZM248.105 99.9804V107.253H249.149V101.987H249.216L251.361 107.243H252.228L254.372 101.99H254.44V107.253H255.484V99.9804H254.152L251.837 105.634H251.752L249.436 99.9804H248.105Z" fill="white"/>
<path opacity="0.6" d="M235.392 91.4747C235.392 91.2125 235.18 91 234.918 91C234.655 91 234.443 91.2125 234.443 91.4747V94.3228C234.443 94.5849 234.655 94.7975 234.918 94.7975C235.18 94.7975 235.392 94.5849 235.392 94.3228V91.4747Z" fill="white"/>
<path d="M286.803 99.9804H285.734L283.919 101.167V102.218L285.659 101.081H285.702V107.253H286.803V99.9804ZM291.302 107.374C292.982 107.374 293.965 106.003 293.965 103.62C293.965 101.255 292.967 99.881 291.302 99.881C289.633 99.881 288.638 101.252 288.635 103.62C288.635 106 289.619 107.37 291.302 107.374ZM291.302 106.426C290.318 106.426 289.725 105.439 289.725 103.62C289.729 101.809 290.322 100.811 291.302 100.811C292.278 100.811 292.875 101.809 292.875 103.62C292.875 105.439 292.282 106.426 291.302 106.426ZM295.939 103.35C296.326 103.35 296.649 103.034 296.649 102.64C296.649 102.253 296.326 101.934 295.939 101.934C295.548 101.934 295.229 102.253 295.229 102.64C295.229 103.034 295.548 103.35 295.939 103.35ZM295.939 107.321C296.326 107.321 296.649 107.005 296.649 106.61C296.649 106.223 296.326 105.904 295.939 105.904C295.548 105.904 295.229 106.223 295.229 106.61C295.229 107.005 295.548 107.321 295.939 107.321ZM297.904 105.833H301.352V107.253H302.4V105.833H303.362V104.902H302.4V99.9804H301.047L297.904 104.945V105.833ZM301.36 104.902H299.055V104.846L301.303 101.287H301.36V104.902ZM304.6 107.253H309.387V106.312H306.113V106.259L307.558 104.746C308.89 103.4 309.27 102.757 309.27 101.944C309.27 100.776 308.318 99.881 306.947 99.881C305.587 99.881 304.593 100.762 304.593 102.09H305.64C305.637 101.309 306.141 100.797 306.926 100.797C307.665 100.797 308.226 101.252 308.226 101.976C308.226 102.619 307.842 103.081 307.061 103.908L304.6 106.458V107.253ZM314.093 107.253L314.761 105.328H317.602L318.266 107.253H319.43L316.813 99.9804H315.545L312.928 107.253H314.093ZM315.08 104.405L316.153 101.301H316.21L317.282 104.405H315.08ZM320.481 99.9804V107.253H321.525V101.987H321.592L323.737 107.243H324.604L326.748 101.99H326.816V107.253H327.86V99.9804H326.528L324.213 105.634H324.128L321.812 99.9804H320.481Z" fill="white"/>
<path opacity="0.6" d="M307.329 91.4747C307.329 91.2125 307.117 91 306.855 91C306.592 91 306.38 91.2125 306.38 91.4747V94.3228C306.38 94.5849 306.592 94.7975 306.855 94.7975C307.117 94.7975 307.329 94.5849 307.329 94.3228V91.4747Z" fill="white"/>
<path opacity="0.1" fill-rule="evenodd" clip-rule="evenodd" d="M30.2812 30.9368C29.4919 30.9368 28.8521 31.5766 28.8521 32.3658V86.671C28.8521 87.4602 29.4919 88.1 30.2812 88.1C31.0704 88.1 31.7103 87.4602 31.7103 86.671V32.3658C31.7103 31.5766 31.0704 30.9368 30.2812 30.9368ZM25.5175 30.9369C24.7282 30.9369 24.0884 31.5767 24.0884 32.366V86.6711C24.0884 87.4603 24.7282 88.1002 25.5175 88.1002C26.3067 88.1002 26.9465 87.4603 26.9465 86.6711V32.366C26.9465 31.5767 26.3067 30.9369 25.5175 30.9369ZM33.6163 32.3658C33.6163 31.5766 34.2561 30.9368 35.0454 30.9368C35.8347 30.9368 36.4745 31.5766 36.4745 32.3658V86.671C36.4745 87.4602 35.8347 88.1 35.0454 88.1C34.2561 88.1 33.6163 87.4602 33.6163 86.671V32.3658ZM39.8086 30.9368C39.0194 30.9368 38.3796 31.5766 38.3796 32.3658V86.671C38.3796 87.4602 39.0194 88.1 39.8086 88.1C40.5979 88.1 41.2377 87.4602 41.2377 86.671V32.3658C41.2377 31.5766 40.5979 30.9368 39.8086 30.9368ZM43.1433 32.3658C43.1433 31.5766 43.7831 30.9368 44.5724 30.9368C45.3616 30.9368 46.0015 31.5766 46.0015 32.3658V86.671C46.0015 87.4602 45.3616 88.1 44.5724 88.1C43.7831 88.1 43.1433 87.4602 43.1433 86.671V32.3658ZM49.3356 30.9368C48.5464 30.9368 47.9065 31.5766 47.9065 32.3658V86.671C47.9065 87.4602 48.5464 88.1 49.3356 88.1C50.1249 88.1 50.7647 87.4602 50.7647 86.671V32.3658C50.7647 31.5766 50.1249 30.9368 49.3356 30.9368ZM52.6703 32.3658C52.6703 31.5766 53.3101 30.9368 54.0993 30.9368C54.8886 30.9368 55.5284 31.5766 55.5284 32.3658V86.671C55.5284 87.4602 54.8886 88.1 54.0993 88.1C53.3101 88.1 52.6703 87.4602 52.6703 86.671V32.3658ZM58.8631 30.9368C58.0738 30.9368 57.434 31.5766 57.434 32.3658V86.671C57.434 87.4602 58.0738 88.1 58.8631 88.1C59.6523 88.1 60.2921 87.4602 60.2921 86.671V32.3658C60.2921 31.5766 59.6523 30.9368 58.8631 30.9368ZM62.1977 32.3658C62.1977 31.5766 62.8375 30.9368 63.6268 30.9368C64.4161 30.9368 65.0559 31.5766 65.0559 32.3658V86.671C65.0559 87.4602 64.4161 88.1 63.6268 88.1C62.8375 88.1 62.1977 87.4602 62.1977 86.671V32.3658ZM68.39 30.9368C67.6008 30.9368 66.9609 31.5766 66.9609 32.3658V86.671C66.9609 87.4602 67.6008 88.1 68.39 88.1C69.1793 88.1 69.8191 87.4602 69.8191 86.671V32.3658C69.8191 31.5766 69.1793 30.9368 68.39 30.9368ZM71.7252 32.3658C71.7252 31.5766 72.365 30.9368 73.1542 30.9368C73.9435 30.9368 74.5833 31.5766 74.5833 32.3658V86.671C74.5833 87.4602 73.9435 88.1 73.1542 88.1C72.365 88.1 71.7252 87.4602 71.7252 86.671V32.3658ZM77.9175 30.9368C77.1282 30.9368 76.4884 31.5766 76.4884 32.3658V86.671C76.4884 87.4602 77.1282 88.1 77.9175 88.1C78.7067 88.1 79.3466 87.4602 79.3466 86.671V32.3658C79.3466 31.5766 78.7067 30.9368 77.9175 30.9368ZM81.2521 32.3658C81.2521 31.5766 81.892 30.9368 82.6812 30.9368C83.4705 30.9368 84.1103 31.5766 84.1103 32.3658V86.671C84.1103 87.4602 83.4705 88.1 82.6812 88.1C81.892 88.1 81.2521 87.4602 81.2521 86.671V32.3658ZM87.4445 30.9368C86.6552 30.9368 86.0154 31.5766 86.0154 32.3658V86.671C86.0154 87.4602 86.6552 88.1 87.4445 88.1C88.2337 88.1 88.8735 87.4602 88.8735 86.671V32.3658C88.8735 31.5766 88.2337 30.9368 87.4445 30.9368ZM90.7791 32.3658C90.7791 31.5766 91.4189 30.9368 92.2082 30.9368C92.9974 30.9368 93.6373 31.5766 93.6373 32.3658V86.671C93.6373 87.4602 92.9974 88.1 92.2082 88.1C91.4189 88.1 90.7791 87.4602 90.7791 86.671V32.3658ZM96.9719 30.9368C96.1827 30.9368 95.5428 31.5766 95.5428 32.3658V86.671C95.5428 87.4602 96.1827 88.1 96.9719 88.1C97.7612 88.1 98.401 87.4602 98.401 86.671V32.3658C98.401 31.5766 97.7612 30.9368 96.9719 30.9368ZM100.307 32.3658C100.307 31.5766 100.946 30.9368 101.736 30.9368C102.525 30.9368 103.165 31.5766 103.165 32.3658V86.671C103.165 87.4602 102.525 88.1 101.736 88.1C100.946 88.1 100.307 87.4602 100.307 86.671V32.3658ZM106.499 30.9368C105.71 30.9368 105.07 31.5766 105.07 32.3658V86.671C105.07 87.4602 105.71 88.1 106.499 88.1C107.288 88.1 107.928 87.4602 107.928 86.671V32.3658C107.928 31.5766 107.288 30.9368 106.499 30.9368ZM109.834 32.3658C109.834 31.5766 110.474 30.9368 111.263 30.9368C112.052 30.9368 112.692 31.5766 112.692 32.3658V86.671C112.692 87.4602 112.052 88.1 111.263 88.1C110.474 88.1 109.834 87.4602 109.834 86.671V32.3658ZM116.026 30.9368C115.237 30.9368 114.597 31.5766 114.597 32.3658V86.671C114.597 87.4602 115.237 88.1 116.026 88.1C116.816 88.1 117.455 87.4602 117.455 86.671V32.3658C117.455 31.5766 116.816 30.9368 116.026 30.9368ZM119.361 32.3658C119.361 31.5766 120.001 30.9368 120.79 30.9368C121.579 30.9368 122.219 31.5766 122.219 32.3658V86.671C122.219 87.4602 121.579 88.1 120.79 88.1C120.001 88.1 119.361 87.4602 119.361 86.671V32.3658ZM125.553 30.9368C124.764 30.9368 124.124 31.5766 124.124 32.3658V86.671C124.124 87.4602 124.764 88.1 125.553 88.1C126.343 88.1 126.982 87.4602 126.982 86.671V32.3658C126.982 31.5766 126.343 30.9368 125.553 30.9368ZM128.888 32.3658C128.888 31.5766 129.528 30.9368 130.317 30.9368C131.106 30.9368 131.746 31.5766 131.746 32.3658V86.671C131.746 87.4602 131.106 88.1 130.317 88.1C129.528 88.1 128.888 87.4602 128.888 86.671V32.3658ZM135.081 30.9368C134.291 30.9368 133.652 31.5766 133.652 32.3658V86.671C133.652 87.4602 134.291 88.1 135.081 88.1C135.87 88.1 136.51 87.4602 136.51 86.671V32.3658C136.51 31.5766 135.87 30.9368 135.081 30.9368ZM138.415 32.3658C138.415 31.5766 139.055 30.9368 139.844 30.9368C140.634 30.9368 141.274 31.5766 141.274 32.3658V86.671C141.274 87.4602 140.634 88.1 139.844 88.1C139.055 88.1 138.415 87.4602 138.415 86.671V32.3658ZM144.608 30.9368C143.818 30.9368 143.179 31.5766 143.179 32.3658V86.671C143.179 87.4602 143.818 88.1 144.608 88.1C145.397 88.1 146.037 87.4602 146.037 86.671V32.3658C146.037 31.5766 145.397 30.9368 144.608 30.9368ZM147.943 32.3658C147.943 31.5766 148.583 30.9368 149.372 30.9368C150.161 30.9368 150.801 31.5766 150.801 32.3658V86.671C150.801 87.4602 150.161 88.1 149.372 88.1C148.583 88.1 147.943 87.4602 147.943 86.671V32.3658ZM154.135 30.9368C153.346 30.9368 152.706 31.5766 152.706 32.3658V86.671C152.706 87.4602 153.346 88.1 154.135 88.1C154.924 88.1 155.564 87.4602 155.564 86.671V32.3658C155.564 31.5766 154.924 30.9368 154.135 30.9368ZM157.47 32.3658C157.47 31.5766 158.11 30.9368 158.899 30.9368C159.688 30.9368 160.328 31.5766 160.328 32.3658V86.671C160.328 87.4602 159.688 88.1 158.899 88.1C158.11 88.1 157.47 87.4602 157.47 86.671V32.3658ZM163.663 30.9368C162.873 30.9368 162.234 31.5766 162.234 32.3658V86.671C162.234 87.4602 162.873 88.1 163.663 88.1C164.452 88.1 165.092 87.4602 165.092 86.671V32.3658C165.092 31.5766 164.452 30.9368 163.663 30.9368ZM166.997 32.3658C166.997 31.5766 167.637 30.9368 168.426 30.9368C169.215 30.9368 169.855 31.5766 169.855 32.3658V86.671C169.855 87.4602 169.215 88.1 168.426 88.1C167.637 88.1 166.997 87.4602 166.997 86.671V32.3658ZM173.19 30.9368C172.4 30.9368 171.761 31.5766 171.761 32.3658V86.671C171.761 87.4602 172.4 88.1 173.19 88.1C173.979 88.1 174.619 87.4602 174.619 86.671V32.3658C174.619 31.5766 173.979 30.9368 173.19 30.9368ZM176.524 32.3658C176.524 31.5766 177.164 30.9368 177.953 30.9368C178.742 30.9368 179.382 31.5766 179.382 32.3658V86.671C179.382 87.4602 178.742 88.1 177.953 88.1C177.164 88.1 176.524 87.4602 176.524 86.671V32.3658ZM182.717 30.9368C181.927 30.9368 181.287 31.5766 181.287 32.3658V86.671C181.287 87.4602 181.927 88.1 182.717 88.1C183.506 88.1 184.146 87.4602 184.146 86.671V32.3658C184.146 31.5766 183.506 30.9368 182.717 30.9368ZM186.051 32.3658C186.051 31.5766 186.691 30.9368 187.48 30.9368C188.269 30.9368 188.909 31.5766 188.909 32.3658V86.671C188.909 87.4602 188.269 88.1 187.48 88.1C186.691 88.1 186.051 87.4602 186.051 86.671V32.3658ZM192.244 30.9368C191.455 30.9368 190.815 31.5766 190.815 32.3658V86.671C190.815 87.4602 191.455 88.1 192.244 88.1C193.033 88.1 193.673 87.4602 193.673 86.671V32.3658C193.673 31.5766 193.033 30.9368 192.244 30.9368ZM195.578 32.3658C195.578 31.5766 196.218 30.9368 197.007 30.9368C197.797 30.9368 198.436 31.5766 198.436 32.3658V86.671C198.436 87.4602 197.797 88.1 197.007 88.1C196.218 88.1 195.578 87.4602 195.578 86.671V32.3658ZM201.771 30.9368C200.982 30.9368 200.342 31.5766 200.342 32.3658V86.671C200.342 87.4602 200.982 88.1 201.771 88.1C202.56 88.1 203.2 87.4602 203.2 86.671V32.3658C203.2 31.5766 202.56 30.9368 201.771 30.9368ZM205.106 32.3658C205.106 31.5766 205.745 30.9368 206.535 30.9368C207.324 30.9368 207.964 31.5766 207.964 32.3658V86.671C207.964 87.4602 207.324 88.1 206.535 88.1C205.745 88.1 205.106 87.4602 205.106 86.671V32.3658ZM211.298 30.9368C210.509 30.9368 209.869 31.5766 209.869 32.3658V86.671C209.869 87.4602 210.509 88.1 211.298 88.1C212.088 88.1 212.728 87.4602 212.728 86.671V32.3658C212.728 31.5766 212.088 30.9368 211.298 30.9368ZM214.633 32.3658C214.633 31.5766 215.272 30.9368 216.062 30.9368C216.851 30.9368 217.491 31.5766 217.491 32.3658V86.671C217.491 87.4602 216.851 88.1 216.062 88.1C215.272 88.1 214.633 87.4602 214.633 86.671V32.3658ZM220.825 30.9368C220.036 30.9368 219.396 31.5766 219.396 32.3658V86.671C219.396 87.4602 220.036 88.1 220.825 88.1C221.615 88.1 222.255 87.4602 222.255 86.671V32.3658C222.255 31.5766 221.615 30.9368 220.825 30.9368ZM224.16 32.3658C224.16 31.5766 224.799 30.9368 225.589 30.9368C226.378 30.9368 227.018 31.5766 227.018 32.3658V86.671C227.018 87.4602 226.378 88.1 225.589 88.1C224.799 88.1 224.16 87.4602 224.16 86.671V32.3658ZM230.353 30.9368C229.564 30.9368 228.924 31.5766 228.924 32.3658V86.671C228.924 87.4602 229.564 88.1 230.353 88.1C231.142 88.1 231.782 87.4602 231.782 86.671V32.3658C231.782 31.5766 231.142 30.9368 230.353 30.9368ZM233.687 32.3658C233.687 31.5766 234.327 30.9368 235.116 30.9368C235.905 30.9368 236.545 31.5766 236.545 32.3658V86.671C236.545 87.4602 235.905 88.1 235.116 88.1C234.327 88.1 233.687 87.4602 233.687 86.671V32.3658ZM239.88 30.9368C239.091 30.9368 238.451 31.5766 238.451 32.3658V86.671C238.451 87.4602 239.091 88.1 239.88 88.1C240.669 88.1 241.309 87.4602 241.309 86.671V32.3658C241.309 31.5766 240.669 30.9368 239.88 30.9368ZM243.214 32.3658C243.214 31.5766 243.854 30.9368 244.644 30.9368C245.433 30.9368 246.073 31.5766 246.073 32.3658V86.671C246.073 87.4602 245.433 88.1 244.644 88.1C243.854 88.1 243.214 87.4602 243.214 86.671V32.3658ZM249.407 30.9368C248.618 30.9368 247.978 31.5766 247.978 32.3658V86.671C247.978 87.4602 248.618 88.1 249.407 88.1C250.197 88.1 250.836 87.4602 250.836 86.671V32.3658C250.836 31.5766 250.197 30.9368 249.407 30.9368ZM252.741 32.3658C252.741 31.5766 253.381 30.9368 254.171 30.9368C254.96 30.9368 255.6 31.5766 255.6 32.3658V86.671C255.6 87.4602 254.96 88.1 254.171 88.1C253.381 88.1 252.741 87.4602 252.741 86.671V32.3658ZM258.934 30.9368C258.145 30.9368 257.505 31.5766 257.505 32.3658V86.671C257.505 87.4602 258.145 88.1 258.934 88.1C259.724 88.1 260.363 87.4602 260.363 86.671V32.3658C260.363 31.5766 259.724 30.9368 258.934 30.9368ZM262.268 32.3658C262.268 31.5766 262.908 30.9368 263.697 30.9368C264.487 30.9368 265.127 31.5766 265.127 32.3658V86.671C265.127 87.4602 264.487 88.1 263.697 88.1C262.908 88.1 262.268 87.4602 262.268 86.671V32.3658ZM268.462 30.9368C267.672 30.9368 267.033 31.5766 267.033 32.3658V86.671C267.033 87.4602 267.672 88.1 268.462 88.1C269.251 88.1 269.891 87.4602 269.891 86.671V32.3658C269.891 31.5766 269.251 30.9368 268.462 30.9368ZM271.796 32.3658C271.796 31.5766 272.436 30.9368 273.225 30.9368C274.014 30.9368 274.654 31.5766 274.654 32.3658V86.671C274.654 87.4602 274.014 88.1 273.225 88.1C272.436 88.1 271.796 87.4602 271.796 86.671V32.3658ZM277.989 30.9368C277.199 30.9368 276.56 31.5766 276.56 32.3658V86.671C276.56 87.4602 277.199 88.1 277.989 88.1C278.778 88.1 279.418 87.4602 279.418 86.671V32.3658C279.418 31.5766 278.778 30.9368 277.989 30.9368ZM281.323 32.3658C281.323 31.5766 281.963 30.9368 282.752 30.9368C283.542 30.9368 284.181 31.5766 284.181 32.3658V86.671C284.181 87.4602 283.542 88.1 282.752 88.1C281.963 88.1 281.323 87.4602 281.323 86.671V32.3658ZM287.516 30.9368C286.727 30.9368 286.087 31.5766 286.087 32.3658V86.671C286.087 87.4602 286.727 88.1 287.516 88.1C288.305 88.1 288.945 87.4602 288.945 86.671V32.3658C288.945 31.5766 288.305 30.9368 287.516 30.9368ZM290.851 32.3658C290.851 31.5766 291.491 30.9368 292.28 30.9368C293.069 30.9368 293.709 31.5766 293.709 32.3658V86.671C293.709 87.4602 293.069 88.1 292.28 88.1C291.491 88.1 290.851 87.4602 290.851 86.671V32.3658ZM297.043 30.9368C296.254 30.9368 295.614 31.5766 295.614 32.3658V86.671C295.614 87.4602 296.254 88.1 297.043 88.1C297.832 88.1 298.472 87.4602 298.472 86.671V32.3658C298.472 31.5766 297.832 30.9368 297.043 30.9368ZM300.378 32.3658C300.378 31.5766 301.018 30.9368 301.807 30.9368C302.597 30.9368 303.236 31.5766 303.236 32.3658V86.671C303.236 87.4602 302.597 88.1 301.807 88.1C301.018 88.1 300.378 87.4602 300.378 86.671V32.3658ZM306.571 30.9368C305.781 30.9368 305.141 31.5766 305.141 32.3658V86.671C305.141 87.4602 305.781 88.1 306.571 88.1C307.36 88.1 308 87.4602 308 86.671V32.3658C308 31.5766 307.36 30.9368 306.571 30.9368Z" fill="white"/>
<g filter="url(#filter0_d_4477_210341)">
<path fill-rule="evenodd" clip-rule="evenodd" d="M100.307 52.3729C100.307 51.5837 100.946 50.9438 101.736 50.9438C102.525 50.9438 103.165 51.5837 103.165 52.3729V86.6709C103.165 87.4602 102.525 88.1 101.736 88.1C100.946 88.1 100.307 87.4602 100.307 86.6709V52.3729ZM96.9724 53.8021C96.1831 53.8021 95.5433 54.442 95.5433 55.2312V86.671C95.5433 87.4603 96.1831 88.1001 96.9724 88.1001C97.7617 88.1001 98.4015 87.4603 98.4015 86.671V55.2312C98.4015 54.442 97.7617 53.8021 96.9724 53.8021ZM90.7791 58.0893C90.7791 57.3 91.4189 56.6602 92.2082 56.6602C92.9974 56.6602 93.6373 57.3 93.6373 58.0893V86.6709C93.6373 87.4602 92.9974 88.1 92.2082 88.1C91.4189 88.1 90.7791 87.4602 90.7791 86.6709V58.0893ZM87.4449 57.6128C86.6557 57.6128 86.0159 58.2526 86.0159 59.0419V86.6708C86.0159 87.46 86.6557 88.0999 87.4449 88.0999C88.2342 88.0999 88.874 87.46 88.874 86.6708V59.0419C88.874 58.2526 88.2342 57.6128 87.4449 57.6128ZM81.2521 61.9001C81.2521 61.1109 81.892 60.4711 82.6812 60.4711C83.4705 60.4711 84.1103 61.1109 84.1103 61.9001V86.6709C84.1103 87.4602 83.4705 88.1 82.6812 88.1C81.892 88.1 81.2521 87.4602 81.2521 86.6709V61.9001ZM77.918 65.2345C77.1287 65.2345 76.4889 65.8744 76.4889 66.6636V86.6708C76.4889 87.46 77.1287 88.0999 77.918 88.0999C78.7072 88.0999 79.3471 87.46 79.3471 86.6708V66.6636C79.3471 65.8744 78.7072 65.2345 77.918 65.2345ZM71.7252 69.5219C71.7252 68.7327 72.365 68.0928 73.1542 68.0928C73.9435 68.0928 74.5833 68.7326 74.5833 69.5219V86.6709C74.5833 87.4602 73.9435 88.1 73.1542 88.1C72.365 88.1 71.7252 87.4602 71.7252 86.6709V69.5219ZM68.3905 70.9511C67.6013 70.9511 66.9614 71.5909 66.9614 72.3802V86.671C66.9614 87.4603 67.6013 88.1001 68.3905 88.1001C69.1798 88.1001 69.8196 87.4603 69.8196 86.671V72.3802C69.8196 71.5909 69.1798 70.9511 68.3905 70.9511ZM62.1977 77.1437C62.1977 76.3544 62.8375 75.7146 63.6268 75.7146C64.4161 75.7146 65.0559 76.3544 65.0559 77.1437V86.6709C65.0559 87.4602 64.4161 88.1 63.6268 88.1C62.8375 88.1 62.1977 87.4602 62.1977 86.6709V77.1437ZM58.8636 79.5255C58.0743 79.5255 57.4345 80.1653 57.4345 80.9546V86.6709C57.4345 87.4602 58.0743 88.1 58.8636 88.1C59.6528 88.1 60.2926 87.4602 60.2926 86.6709V80.9546C60.2926 80.1653 59.6528 79.5255 58.8636 79.5255ZM49.3361 81.4309C48.5468 81.4309 47.907 82.0707 47.907 82.86V86.6709C47.907 87.4602 48.5468 88.1 49.3361 88.1C50.1254 88.1 50.7652 87.4602 50.7652 86.6709V82.86C50.7652 82.0707 50.1254 81.4309 49.3361 81.4309ZM43.1433 84.7657C43.1433 83.9764 43.7831 83.3366 44.5724 83.3366C45.3616 83.3366 46.0015 83.9764 46.0015 84.7657V86.6711C46.0015 87.4604 45.3616 88.1002 44.5724 88.1002C43.7831 88.1002 43.1433 87.4604 43.1433 86.6711V84.7657ZM25.518 84.289C24.7287 84.289 24.0889 84.9288 24.0889 85.7181V86.6708C24.0889 87.46 24.7287 88.0999 25.518 88.0999C26.3072 88.0999 26.947 87.46 26.947 86.6708V85.718C26.947 84.9288 26.3072 84.289 25.518 84.289ZM30.2817 84.289C29.4924 84.289 28.8526 84.9288 28.8526 85.7181V86.6708C28.8526 87.46 29.4924 88.0999 30.2817 88.0999C31.0709 88.0999 31.7108 87.46 31.7108 86.6708V85.718C31.7108 84.9288 31.0709 84.289 30.2817 84.289ZM33.6163 85.7181C33.6163 84.9288 34.2561 84.289 35.0454 84.289C35.8347 84.289 36.4745 84.9288 36.4745 85.718V86.6708C36.4745 87.46 35.8347 88.0999 35.0454 88.0999C34.2561 88.0999 33.6163 87.46 33.6163 86.6708V85.7181ZM39.8091 84.289C39.0199 84.289 38.3801 84.9288 38.3801 85.7181V86.6708C38.3801 87.46 39.0199 88.0999 39.8091 88.0999C40.5984 88.0999 41.2382 87.46 41.2382 86.6708V85.718C41.2382 84.9288 40.5984 84.289 39.8091 84.289ZM52.6703 83.8129C52.6703 83.0236 53.3101 82.3838 54.0993 82.3838C54.8886 82.3838 55.5284 83.0236 55.5284 83.8129V86.671C55.5284 87.4603 54.8886 88.1001 54.0993 88.1001C53.3101 88.1001 52.6703 87.4603 52.6703 86.671V83.8129ZM106.499 56.6602C105.71 56.6602 105.07 57.3 105.07 58.0893V86.6709C105.07 87.4602 105.71 88.1 106.499 88.1C107.289 88.1 107.928 87.4602 107.928 86.6709V58.0893C107.928 57.3 107.289 56.6602 106.499 56.6602ZM109.834 63.8056C109.834 63.0163 110.474 62.3765 111.263 62.3765C112.052 62.3765 112.692 63.0163 112.692 63.8056V86.6709C112.692 87.4602 112.052 88.1 111.263 88.1C110.474 88.1 109.834 87.4602 109.834 86.6709V63.8056ZM116.027 67.14C115.238 67.14 114.598 67.7798 114.598 68.5691V86.6708C114.598 87.46 115.238 88.0999 116.027 88.0999C116.816 88.0999 117.456 87.46 117.456 86.6708V68.5691C117.456 67.7798 116.816 67.14 116.027 67.14ZM119.361 68.5691C119.361 67.7798 120.001 67.14 120.79 67.14C121.579 67.14 122.219 67.7798 122.219 68.5691V86.6708C122.219 87.46 121.579 88.0999 120.79 88.0999C120.001 88.0999 119.361 87.46 119.361 86.6708V68.5691ZM125.554 68.0928C124.765 68.0928 124.125 68.7327 124.125 69.5219V86.6709C124.125 87.4602 124.765 88.1 125.554 88.1C126.343 88.1 126.983 87.4602 126.983 86.6709V69.5219C126.983 68.7326 126.343 68.0928 125.554 68.0928ZM128.888 73.3328C128.888 72.5435 129.528 71.9037 130.317 71.9037C131.106 71.9037 131.746 72.5435 131.746 73.3328V86.6709C131.746 87.4602 131.106 88.1 130.317 88.1C129.528 88.1 128.888 87.4602 128.888 86.6709V73.3328ZM135.081 73.8092C134.292 73.8092 133.652 74.449 133.652 75.2382V86.6709C133.652 87.4602 134.292 88.1 135.081 88.1C135.871 88.1 136.51 87.4602 136.51 86.6709V75.2382C136.51 74.449 135.871 73.8092 135.081 73.8092ZM138.415 81.9074C138.415 81.1181 139.055 80.4783 139.844 80.4783C140.634 80.4783 141.274 81.1181 141.274 81.9074V86.671C141.274 87.4603 140.634 88.1001 139.844 88.1001C139.055 88.1001 138.415 87.4603 138.415 86.671V81.9074ZM144.608 84.289C143.819 84.289 143.179 84.9288 143.179 85.7181V86.6708C143.179 87.46 143.819 88.0999 144.608 88.0999C145.397 88.0999 146.037 87.46 146.037 86.6708V85.718C146.037 84.9288 145.397 84.289 144.608 84.289ZM147.943 85.7181C147.943 84.9288 148.583 84.289 149.372 84.289C150.161 84.289 150.801 84.9288 150.801 85.718V86.6708C150.801 87.46 150.161 88.0999 149.372 88.0999C148.583 88.0999 147.943 87.46 147.943 86.6708V85.7181ZM154.136 82.3838C153.346 82.3838 152.707 83.0236 152.707 83.8129V86.671C152.707 87.4603 153.346 88.1001 154.136 88.1001C154.925 88.1001 155.565 87.4603 155.565 86.671V83.8129C155.565 83.0236 154.925 82.3838 154.136 82.3838ZM157.47 78.0963C157.47 77.307 158.11 76.6672 158.899 76.6672C159.689 76.6672 160.328 77.307 160.328 78.0963V86.6708C160.328 87.46 159.689 88.0999 158.899 88.0999C158.11 88.0999 157.47 87.46 157.47 86.6708V78.0963ZM163.663 73.8092C162.873 73.8092 162.234 74.449 162.234 75.2382V86.6709C162.234 87.4602 162.873 88.1 163.663 88.1C164.452 88.1 165.092 87.4602 165.092 86.6709V75.2382C165.092 74.449 164.452 73.8092 163.663 73.8092ZM166.998 77.1437C166.998 76.3544 167.638 75.7146 168.427 75.7146C169.216 75.7146 169.856 76.3544 169.856 77.1437V86.6709C169.856 87.4602 169.216 88.1 168.427 88.1C167.638 88.1 166.998 87.4602 166.998 86.6709V77.1437ZM173.19 79.5255C172.4 79.5255 171.761 80.1653 171.761 80.9546V86.6709C171.761 87.4602 172.4 88.1 173.19 88.1C173.979 88.1 174.619 87.4602 174.619 86.6709V80.9546C174.619 80.1653 173.979 79.5255 173.19 79.5255ZM176.524 82.86C176.524 82.0707 177.164 81.4309 177.953 81.4309C178.743 81.4309 179.382 82.0707 179.382 82.86V86.6709C179.382 87.4602 178.743 88.1 177.953 88.1C177.164 88.1 176.524 87.4602 176.524 86.6709V82.86ZM182.717 84.289C181.927 84.289 181.287 84.9288 181.287 85.7181V86.6708C181.287 87.46 181.927 88.0999 182.717 88.0999C183.506 88.0999 184.146 87.46 184.146 86.6708V85.718C184.146 84.9288 183.506 84.289 182.717 84.289ZM186.052 84.7657C186.052 83.9764 186.692 83.3366 187.481 83.3366C188.27 83.3366 188.91 83.9764 188.91 84.7657V86.6711C188.91 87.4604 188.27 88.1002 187.481 88.1002C186.692 88.1002 186.052 87.4604 186.052 86.6711V84.7657ZM192.244 80.4783C191.455 80.4783 190.815 81.1181 190.815 81.9074V86.671C190.815 87.4603 191.455 88.1001 192.244 88.1001C193.033 88.1001 193.673 87.4603 193.673 86.671V81.9074C193.673 81.1181 193.033 80.4783 192.244 80.4783ZM195.579 78.0963C195.579 77.307 196.218 76.6672 197.008 76.6672C197.797 76.6672 198.437 77.307 198.437 78.0963V86.6708C198.437 87.46 197.797 88.0999 197.008 88.0999C196.218 88.0999 195.579 87.46 195.579 86.6708V78.0963ZM201.771 79.5255C200.982 79.5255 200.342 80.1653 200.342 80.9546V86.6709C200.342 87.4602 200.982 88.1 201.771 88.1C202.56 88.1 203.2 87.4602 203.2 86.6709V80.9546C203.2 80.1653 202.56 79.5255 201.771 79.5255ZM205.106 83.8129C205.106 83.0236 205.745 82.3838 206.535 82.3838C207.324 82.3838 207.964 83.0236 207.964 83.8129V86.671C207.964 87.4603 207.324 88.1001 206.535 88.1001C205.745 88.1001 205.106 87.4603 205.106 86.671V83.8129ZM211.298 83.3366C210.509 83.3366 209.869 83.9764 209.869 84.7657V86.6711C209.869 87.4604 210.509 88.1002 211.298 88.1002C212.088 88.1002 212.728 87.4604 212.728 86.6711V84.7657C212.728 83.9764 212.088 83.3366 211.298 83.3366ZM214.633 83.8129C214.633 83.0236 215.273 82.3838 216.062 82.3838C216.851 82.3838 217.491 83.0236 217.491 83.8129V86.671C217.491 87.4603 216.851 88.1001 216.062 88.1001C215.273 88.1001 214.633 87.4603 214.633 86.671V83.8129ZM220.825 80.4783C220.036 80.4783 219.396 81.1181 219.396 81.9074V86.671C219.396 87.4603 220.036 88.1001 220.825 88.1001C221.615 88.1001 222.255 87.4603 222.255 86.671V81.9074C222.255 81.1181 221.615 80.4783 220.825 80.4783ZM224.161 80.9546C224.161 80.1653 224.8 79.5255 225.59 79.5255C226.379 79.5255 227.019 80.1653 227.019 80.9546V86.6709C227.019 87.4602 226.379 88.1 225.59 88.1C224.8 88.1 224.161 87.4602 224.161 86.6709V80.9546ZM230.353 78.5729C229.564 78.5729 228.924 79.2127 228.924 80.002V86.671C228.924 87.4603 229.564 88.1001 230.353 88.1001C231.142 88.1001 231.782 87.4603 231.782 86.671V80.002C231.782 79.2127 231.142 78.5729 230.353 78.5729ZM233.688 80.002C233.688 79.2127 234.327 78.5729 235.117 78.5729C235.906 78.5729 236.546 79.2127 236.546 80.002V86.671C236.546 87.4603 235.906 88.1001 235.117 88.1001C234.327 88.1001 233.688 87.4603 233.688 86.671V80.002ZM239.88 78.5729C239.091 78.5729 238.451 79.2127 238.451 80.002V86.671C238.451 87.4603 239.091 88.1001 239.88 88.1001C240.669 88.1001 241.309 87.4603 241.309 86.671V80.002C241.309 79.2127 240.669 78.5729 239.88 78.5729ZM243.214 80.002C243.214 79.2127 243.854 78.5729 244.644 78.5729C245.433 78.5729 246.073 79.2127 246.073 80.002V86.671C246.073 87.4603 245.433 88.1001 244.644 88.1001C243.854 88.1001 243.214 87.4603 243.214 86.671V80.002ZM249.407 78.5729C248.618 78.5729 247.978 79.2127 247.978 80.002V86.671C247.978 87.4603 248.618 88.1001 249.407 88.1001C250.197 88.1001 250.836 87.4603 250.836 86.671V80.002C250.836 79.2127 250.197 78.5729 249.407 78.5729ZM252.742 80.002C252.742 79.2127 253.382 78.5729 254.171 78.5729C254.96 78.5729 255.6 79.2127 255.6 80.002V86.671C255.6 87.4603 254.96 88.1001 254.171 88.1001C253.382 88.1001 252.742 87.4603 252.742 86.671V80.002ZM258.934 78.5729C258.145 78.5729 257.505 79.2127 257.505 80.002V86.671C257.505 87.4603 258.145 88.1001 258.934 88.1001C259.724 88.1001 260.363 87.4603 260.363 86.671V80.002C260.363 79.2127 259.724 78.5729 258.934 78.5729ZM262.269 81.9074C262.269 81.1181 262.909 80.4783 263.698 80.4783C264.488 80.4783 265.128 81.1181 265.128 81.9074V86.671C265.128 87.4603 264.488 88.1001 263.698 88.1001C262.909 88.1001 262.269 87.4603 262.269 86.671V81.9074ZM268.462 82.3838C267.672 82.3838 267.033 83.0236 267.033 83.8129V86.671C267.033 87.4603 267.672 88.1001 268.462 88.1001C269.251 88.1001 269.891 87.4603 269.891 86.671V83.8129C269.891 83.0236 269.251 82.3838 268.462 82.3838ZM271.796 84.7657C271.796 83.9764 272.436 83.3366 273.225 83.3366C274.015 83.3366 274.655 83.9764 274.655 84.7657V86.6711C274.655 87.4604 274.015 88.1002 273.225 88.1002C272.436 88.1002 271.796 87.4604 271.796 86.6711V84.7657ZM277.989 84.289C277.199 84.289 276.56 84.9288 276.56 85.7181V86.6708C276.56 87.46 277.199 88.0999 277.989 88.0999C278.778 88.0999 279.418 87.46 279.418 86.6708V85.718C279.418 84.9288 278.778 84.289 277.989 84.289ZM281.323 83.8129C281.323 83.0236 281.963 82.3838 282.752 82.3838C283.542 82.3838 284.181 83.0236 284.181 83.8129V86.671C284.181 87.4603 283.542 88.1001 282.752 88.1001C281.963 88.1001 281.323 87.4603 281.323 86.671V83.8129ZM287.517 78.5729C286.727 78.5729 286.088 79.2127 286.088 80.002V86.671C286.088 87.4603 286.727 88.1001 287.517 88.1001C288.306 88.1001 288.946 87.4603 288.946 86.671V80.002C288.946 79.2127 288.306 78.5729 287.517 78.5729ZM290.851 78.0963C290.851 77.307 291.491 76.6672 292.28 76.6672C293.069 76.6672 293.709 77.307 293.709 78.0963V86.6708C293.709 87.46 293.069 88.0999 292.28 88.0999C291.491 88.0999 290.851 87.46 290.851 86.6708V78.0963ZM297.044 80.4783C296.254 80.4783 295.615 81.1181 295.615 81.9074V86.671C295.615 87.4603 296.254 88.1001 297.044 88.1001C297.833 88.1001 298.473 87.4603 298.473 86.671V81.9074C298.473 81.1181 297.833 80.4783 297.044 80.4783ZM300.378 82.86C300.378 82.0707 301.018 81.4309 301.807 81.4309C302.597 81.4309 303.236 82.0707 303.236 82.86V86.6709C303.236 87.4602 302.597 88.1 301.807 88.1C301.018 88.1 300.378 87.4602 300.378 86.6709V82.86ZM306.571 79.5255C305.782 79.5255 305.142 80.1653 305.142 80.9546V86.6709C305.142 87.4602 305.782 88.1 306.571 88.1C307.36 88.1 308 87.4602 308 86.6709V80.9546C308 80.1653 307.36 79.5255 306.571 79.5255Z" fill="white"/>
</g>
<path d="M101.762 19.595V87.4747" stroke="#7EC7FF" stroke-linecap="round" stroke-linejoin="round"/>
<g filter="url(#filter1_d_4477_210341)">
<rect x="51.2998" y="2" width="102" height="26" rx="5.21982" fill="white"/>
<g opacity="0.4" filter="url(#filter2_i_4477_210341)">
<path d="M59.2346 14.1212C59.8975 14.1212 60.4349 13.5838 60.4349 12.9208C60.4349 12.2382 60.0348 11.3117 59.2346 10.1411C58.4343 11.328 58.0342 12.2546 58.0342 12.9208C58.0342 13.5838 58.5716 14.1212 59.2346 14.1212Z" fill="url(#paint0_linear_4477_210341)"/>
</g>
<g filter="url(#filter3_i_4477_210341)">
<path d="M68.0678 16.1438C69.285 16.1438 70.2717 15.157 70.2717 13.9398C70.2717 12.6865 69.5371 10.9853 68.0678 8.83606C66.5984 11.0153 65.8638 12.7166 65.8638 13.9398C65.8638 15.157 66.8505 16.1438 68.0678 16.1438Z" fill="url(#paint1_linear_4477_210341)"/>
</g>
<g filter="url(#filter4_i_4477_210341)">
<path d="M62.8721 21.8511C63.8503 21.8511 64.6432 21.0581 64.6432 20.08C64.6432 19.0729 64.0528 17.7058 62.8721 15.9788C61.6914 17.73 61.1011 19.097 61.1011 20.08C61.1011 21.0581 61.894 21.8511 62.8721 21.8511Z" fill="url(#paint2_linear_4477_210341)"/>
</g>
<path d="M85.1585 6.28826V12.1064H86.3517V8.30531H86.4L87.9057 12.078H88.7182L90.2239 8.31951H90.2722V12.1064H91.4654V6.28826H89.9483L88.346 10.1974H88.2779L86.6756 6.28826H85.1585ZM94.3477 12.1917C95.6716 12.1917 96.4954 11.2854 96.4954 9.94167C96.4954 8.5894 95.6716 7.68599 94.3477 7.68599C93.0238 7.68599 92.2 8.5894 92.2 9.94167C92.2 11.2854 93.0238 12.1917 94.3477 12.1917ZM94.3534 11.2542C93.7426 11.2542 93.4301 10.6945 93.4301 9.93315C93.4301 9.17179 93.7426 8.60929 94.3534 8.60929C94.9528 8.60929 95.2653 9.17179 95.2653 9.93315C95.2653 10.6945 94.9528 11.2542 94.3534 11.2542ZM98.8103 12.1775C99.5149 12.1775 99.8813 11.7712 100.049 11.4076H100.1V12.1064H101.293V6.28826H100.086V8.47576H100.049C99.887 8.12065 99.5376 7.68599 98.8075 7.68599C97.8501 7.68599 97.0404 8.43031 97.0404 9.93031C97.0404 11.3905 97.816 12.1775 98.8103 12.1775ZM99.1938 11.2144C98.6001 11.2144 98.2762 10.686 98.2762 9.92463C98.2762 9.16895 98.5944 8.64906 99.1938 8.64906C99.7819 8.64906 100.111 9.14622 100.111 9.92463C100.111 10.703 99.7762 11.2144 99.1938 11.2144ZM104.197 12.1917C105.276 12.1917 106.004 11.6661 106.174 10.8564L105.055 10.7826C104.933 11.115 104.62 11.2883 104.217 11.2883C103.612 11.2883 103.228 10.8877 103.228 10.2371V10.2343H106.2V9.9019C106.2 8.41895 105.302 7.68599 104.149 7.68599C102.865 7.68599 102.032 8.59792 102.032 9.94451C102.032 11.328 102.853 12.1917 104.197 12.1917ZM103.228 9.48429C103.254 8.98713 103.632 8.5894 104.169 8.5894C104.694 8.5894 105.058 8.9644 105.061 9.48429H103.228ZM106.91 12.1064H108.12V9.6377C108.12 9.10076 108.512 8.73145 109.046 8.73145C109.214 8.73145 109.444 8.75985 109.557 8.79679V7.72292C109.449 7.69735 109.299 7.68031 109.177 7.68031C108.688 7.68031 108.287 7.9644 108.128 8.50417H108.083V7.74281H106.91V12.1064ZM111.222 12.1888C111.867 12.1888 112.285 11.9076 112.498 11.5013H112.532V12.1064H113.68V9.16326C113.68 8.12349 112.799 7.68599 111.827 7.68599C110.782 7.68599 110.094 8.18599 109.927 8.98145L111.046 9.07235C111.129 8.78258 111.387 8.56951 111.822 8.56951C112.234 8.56951 112.469 8.7769 112.469 9.13485V9.1519C112.469 9.43315 112.171 9.47008 111.413 9.54395C110.549 9.62349 109.773 9.91326 109.773 10.8877C109.773 11.7513 110.39 12.1888 111.222 12.1888ZM111.569 11.3536C111.197 11.3536 110.93 11.1803 110.93 10.8479C110.93 10.507 111.211 10.3394 111.637 10.2797C111.901 10.2428 112.333 10.1803 112.478 10.0837V10.5468C112.478 11.0042 112.1 11.3536 111.569 11.3536ZM116.86 7.74281H116.039V6.69735H114.828V7.74281H114.232V8.6519H114.828V10.9246C114.823 11.7797 115.405 12.203 116.283 12.1661C116.595 12.1547 116.817 12.0922 116.939 12.0525L116.749 11.1519C116.689 11.1633 116.561 11.1917 116.448 11.1917C116.206 11.1917 116.039 11.1008 116.039 10.7655V8.6519H116.86V7.74281ZM119.51 12.1917C120.589 12.1917 121.317 11.6661 121.487 10.8564L120.368 10.7826C120.246 11.115 119.933 11.2883 119.53 11.2883C118.925 11.2883 118.541 10.8877 118.541 10.2371V10.2343H121.513V9.9019C121.513 8.41895 120.615 7.68599 119.461 7.68599C118.177 7.68599 117.345 8.59792 117.345 9.94451C117.345 11.328 118.166 12.1917 119.51 12.1917ZM118.541 9.48429C118.567 8.98713 118.944 8.5894 119.481 8.5894C120.007 8.5894 120.371 8.9644 120.373 9.48429H118.541ZM123.994 12.1064H125.204V9.6377C125.204 9.10076 125.596 8.73145 126.13 8.73145C126.298 8.73145 126.528 8.75985 126.642 8.79679V7.72292C126.534 7.69735 126.383 7.68031 126.261 7.68031C125.772 7.68031 125.372 7.9644 125.213 8.50417H125.167V7.74281H123.994V12.1064ZM128.307 12.1888C128.952 12.1888 129.369 11.9076 129.582 11.5013H129.616V12.1064H130.764V9.16326C130.764 8.12349 129.883 7.68599 128.912 7.68599C127.866 7.68599 127.179 8.18599 127.011 8.98145L128.131 9.07235C128.213 8.78258 128.471 8.56951 128.906 8.56951C129.318 8.56951 129.554 8.7769 129.554 9.13485V9.1519C129.554 9.43315 129.256 9.47008 128.497 9.54395C127.633 9.62349 126.858 9.91326 126.858 10.8877C126.858 11.7513 127.474 12.1888 128.307 12.1888ZM128.653 11.3536C128.281 11.3536 128.014 11.1803 128.014 10.8479C128.014 10.507 128.295 10.3394 128.721 10.2797C128.986 10.2428 129.417 10.1803 129.562 10.0837V10.5468C129.562 11.0042 129.185 11.3536 128.653 11.3536ZM131.623 12.1064H132.833V7.74281H131.623V12.1064ZM132.231 7.18031C132.592 7.18031 132.887 6.90474 132.887 6.56667C132.887 6.23145 132.592 5.95588 132.231 5.95588C131.873 5.95588 131.578 6.23145 131.578 6.56667C131.578 6.90474 131.873 7.18031 132.231 7.18031ZM134.933 9.58372C134.936 9.02122 135.271 8.69167 135.76 8.69167C136.245 8.69167 136.538 9.00985 136.535 9.54395V12.1064H137.745V9.32804C137.745 8.31099 137.149 7.68599 136.24 7.68599C135.592 7.68599 135.123 8.00417 134.927 8.5127H134.876V7.74281H133.723V12.1064H134.933V9.58372Z" fill="#107EFF"/>
<path opacity="0.7" d="M77.5838 23.2704C78.9275 23.2704 79.7144 22.1738 79.7144 20.2676C79.7144 18.3755 78.9161 17.2761 77.5838 17.2761C76.2485 17.2761 75.4531 18.3727 75.4502 20.2676C75.4502 22.171 76.2372 23.2676 77.5838 23.2704ZM77.5838 22.5119C76.7968 22.5119 76.3224 21.7221 76.3224 20.2676C76.3252 18.8187 76.7997 18.0204 77.5838 18.0204C78.365 18.0204 78.8423 18.8187 78.8423 20.2676C78.8423 21.7221 78.3679 22.5119 77.5838 22.5119ZM81.0745 23.2278C81.3842 23.2278 81.6427 22.975 81.6427 22.6596C81.6427 22.35 81.3842 22.0943 81.0745 22.0943C80.762 22.0943 80.5063 22.35 80.5063 22.6596C80.5063 22.975 80.762 23.2278 81.0745 23.2278ZM84.2734 17.3556H83.4183L81.9666 18.3045V19.1454L83.3586 18.2363H83.3927V23.1738H84.2734V17.3556ZM87.8785 23.2534C89.0944 23.2647 89.9012 22.3897 89.8984 21.2733C89.9012 20.1596 89.0916 19.3613 88.0831 19.3613C87.4694 19.3613 86.9382 19.6568 86.6399 20.1483H86.5973C86.6001 18.8272 87.1001 18.0431 87.9524 18.0431C88.512 18.0431 88.8643 18.3841 88.9836 18.867H89.8501C89.7166 17.9466 88.9921 17.2761 87.9524 17.2761C86.6001 17.2761 85.7563 18.438 85.7563 20.4608C85.7535 22.6028 86.8444 23.2449 87.8785 23.2534ZM87.8757 22.5147C87.1995 22.5147 86.7052 21.9466 86.7052 21.2931C86.7081 20.6426 87.2251 20.0744 87.8956 20.0744C88.5603 20.0744 89.049 20.6113 89.0461 21.2846C89.049 21.9721 88.5404 22.5147 87.8757 22.5147ZM93.0617 23.1738H93.9112V18.8102H93.0617V23.1738ZM93.4907 18.1369C93.7833 18.1369 94.0277 17.9096 94.0277 17.6312C94.0277 17.3528 93.7833 17.1227 93.4907 17.1227C93.1953 17.1227 92.9538 17.3528 92.9538 17.6312C92.9538 17.9096 93.1953 18.1369 93.4907 18.1369ZM95.9034 20.5829C95.9034 19.8869 96.3295 19.4892 96.9204 19.4892C97.4971 19.4892 97.8465 19.867 97.8465 20.5005V23.1738H98.696V20.3983C98.696 19.3187 98.1022 18.7534 97.2102 18.7534C96.5539 18.7534 96.125 19.0574 95.9233 19.5204H95.8693V18.8102H95.0539V23.1738H95.9034V20.5829ZM102.051 17.0829H101.293L99.4176 24.0488H100.176L102.051 17.0829ZM103.622 20.5829C103.622 19.8869 104.062 19.4892 104.668 19.4892C105.253 19.4892 105.602 19.8613 105.602 20.5005V23.1738H106.452V20.3983C106.452 19.3102 105.855 18.7534 104.957 18.7534C104.278 18.7534 103.869 19.0488 103.665 19.5204H103.611V17.3556H102.773V23.1738H103.622V20.5829Z" fill="#107EFF"/>
<path opacity="0.7" d="M111.793 20.2797H109.213V21.0155H111.793V20.2797Z" fill="#107EFF"/>
<path opacity="0.7" d="M114.442 23.1738H115.291V18.8102H114.442V23.1738ZM114.871 18.1369C115.163 18.1369 115.408 17.9096 115.408 17.6312C115.408 17.3528 115.163 17.1227 114.871 17.1227C114.575 17.1227 114.334 17.3528 114.334 17.6312C114.334 17.9096 114.575 18.1369 114.871 18.1369ZM117.283 20.5829C117.283 19.8869 117.709 19.4892 118.3 19.4892C118.877 19.4892 119.226 19.867 119.226 20.5005V23.1738H120.076V20.3983C120.076 19.3187 119.482 18.7534 118.59 18.7534C117.934 18.7534 117.505 19.0574 117.303 19.5204H117.249V18.8102H116.434V23.1738H117.283V20.5829ZM125.528 17.3556H124.673L123.221 18.3045V19.1454L124.614 18.2363H124.648V23.1738H125.528V17.3556ZM129.068 23.2534C130.278 23.2534 131.133 22.5659 131.139 21.6227C131.133 20.8897 130.619 20.2733 129.969 20.1568V20.1227C130.534 19.9863 130.917 19.4551 130.923 18.8272C130.917 17.938 130.133 17.2761 129.068 17.2761C127.991 17.2761 127.207 17.938 127.213 18.8272C127.207 19.4522 127.591 19.9863 128.167 20.1227V20.1568C127.506 20.2733 126.991 20.8897 126.997 21.6227C126.991 22.5659 127.846 23.2534 129.068 23.2534ZM129.068 22.5346C128.341 22.5346 127.881 22.1483 127.886 21.5659C127.881 20.9608 128.381 20.5289 129.068 20.5289C129.744 20.5289 130.244 20.9608 130.25 21.5659C130.244 22.1483 129.787 22.5346 129.068 22.5346ZM129.068 19.8272C128.48 19.8272 128.062 19.4551 128.068 18.9011C128.062 18.3556 128.466 17.9949 129.068 17.9949C129.659 17.9949 130.062 18.3556 130.068 18.9011C130.062 19.4551 129.648 19.8272 129.068 19.8272ZM134.285 23.1738H135.135V20.4835C135.135 19.8954 135.547 19.4863 136.03 19.4863C136.501 19.4863 136.828 19.7988 136.828 20.2733V23.1738H137.675V20.3926C137.675 19.867 137.996 19.4863 138.55 19.4863C138.998 19.4863 139.368 19.7363 139.368 20.3272V23.1738H140.217V20.2477C140.217 19.2505 139.66 18.7534 138.871 18.7534C138.243 18.7534 137.771 19.0545 137.561 19.5204H137.515C137.325 19.0431 136.925 18.7534 136.342 18.7534C135.765 18.7534 135.337 19.0403 135.155 19.5204H135.101V18.8102H134.285V23.1738ZM141.356 23.1738H142.205V18.8102H141.356V23.1738ZM141.785 18.1369C142.077 18.1369 142.322 17.9096 142.322 17.6312C142.322 17.3528 142.077 17.1227 141.785 17.1227C141.489 17.1227 141.248 17.3528 141.248 17.6312C141.248 17.9096 141.489 18.1369 141.785 18.1369ZM144.197 20.5829C144.197 19.8869 144.623 19.4892 145.214 19.4892C145.791 19.4892 146.14 19.867 146.14 20.5005V23.1738H146.99V20.3983C146.99 19.3187 146.396 18.7534 145.504 18.7534C144.848 18.7534 144.419 19.0574 144.217 19.5204H144.163V18.8102H143.348V23.1738H144.197V20.5829Z" fill="#107EFF"/>
</g>
<defs>
<filter id="filter0_d_4477_210341" x="20.278" y="49.0384" width="291.533" height="44.7781" filterUnits="userSpaceOnUse" color-interpolation-filters="sRGB">
<feFlood flood-opacity="0" result="BackgroundImageFix"/>
<feColorMatrix in="SourceAlpha" type="matrix" values="0 0 0 0 0 0 0 0 0 0 0 0 0 0 0 0 0 0 127 0" result="hardAlpha"/>
<feOffset dy="1.90544"/>
<feGaussianBlur stdDeviation="1.90544"/>
<feColorMatrix type="matrix" values="0 0 0 0 0 0 0 0 0 0 0 0 0 0 0 0 0 0 0.15 0"/>
<feBlend mode="normal" in2="BackgroundImageFix" result="effect1_dropShadow_4477_210341"/>
<feBlend mode="normal" in="SourceGraphic" in2="effect1_dropShadow_4477_210341" result="shape"/>
</filter>
<filter id="filter1_d_4477_210341" x="48.6899" y="0.695045" width="107.22" height="31.2198" filterUnits="userSpaceOnUse" color-interpolation-filters="sRGB">
<feFlood flood-opacity="0" result="BackgroundImageFix"/>
<feColorMatrix in="SourceAlpha" type="matrix" values="0 0 0 0 0 0 0 0 0 0 0 0 0 0 0 0 0 0 127 0" result="hardAlpha"/>
<feOffset dy="1.30495"/>
<feGaussianBlur stdDeviation="1.30495"/>
<feColorMatrix type="matrix" values="0 0 0 0 0 0 0 0 0 0 0 0 0 0 0 0 0 0 0.15 0"/>
<feBlend mode="normal" in2="BackgroundImageFix" result="effect1_dropShadow_4477_210341"/>
<feBlend mode="normal" in="SourceGraphic" in2="effect1_dropShadow_4477_210341" result="shape"/>
</filter>
<filter id="filter2_i_4477_210341" x="57.3817" y="8.83616" width="3.05336" height="5.28506" filterUnits="userSpaceOnUse" color-interpolation-filters="sRGB">
<feFlood flood-opacity="0" result="BackgroundImageFix"/>
<feBlend mode="normal" in="SourceGraphic" in2="BackgroundImageFix" result="shape"/>
<feColorMatrix in="SourceAlpha" type="matrix" values="0 0 0 0 0 0 0 0 0 0 0 0 0 0 0 0 0 0 127 0" result="hardAlpha"/>
<feOffset dx="-0.652477" dy="-1.30495"/>
<feGaussianBlur stdDeviation="0.978716"/>
<feComposite in2="hardAlpha" operator="arithmetic" k2="-1" k3="1"/>
<feColorMatrix type="matrix" values="0 0 0 0 0.0627451 0 0 0 0 0.494118 0 0 0 0 1 0 0 0 1 0"/>
<feBlend mode="normal" in2="shape" result="effect1_innerShadow_4477_210341"/>
</filter>
<filter id="filter3_i_4477_210341" x="65.2113" y="7.53111" width="5.06068" height="8.61269" filterUnits="userSpaceOnUse" color-interpolation-filters="sRGB">
<feFlood flood-opacity="0" result="BackgroundImageFix"/>
<feBlend mode="normal" in="SourceGraphic" in2="BackgroundImageFix" result="shape"/>
<feColorMatrix in="SourceAlpha" type="matrix" values="0 0 0 0 0 0 0 0 0 0 0 0 0 0 0 0 0 0 127 0" result="hardAlpha"/>
<feOffset dx="-0.652477" dy="-1.30495"/>
<feGaussianBlur stdDeviation="0.978716"/>
<feComposite in2="hardAlpha" operator="arithmetic" k2="-1" k3="1"/>
<feColorMatrix type="matrix" values="0 0 0 0 0.0627451 0 0 0 0 0.494118 0 0 0 0 1 0 0 0 1 0"/>
<feBlend mode="normal" in2="shape" result="effect1_innerShadow_4477_210341"/>
</filter>
<filter id="filter4_i_4477_210341" x="60.4486" y="14.6738" width="4.19447" height="7.17727" filterUnits="userSpaceOnUse" color-interpolation-filters="sRGB">
<feFlood flood-opacity="0" result="BackgroundImageFix"/>
<feBlend mode="normal" in="SourceGraphic" in2="BackgroundImageFix" result="shape"/>
<feColorMatrix in="SourceAlpha" type="matrix" values="0 0 0 0 0 0 0 0 0 0 0 0 0 0 0 0 0 0 127 0" result="hardAlpha"/>
<feOffset dx="-0.652477" dy="-1.30495"/>
<feGaussianBlur stdDeviation="0.978716"/>
<feComposite in2="hardAlpha" operator="arithmetic" k2="-1" k3="1"/>
<feColorMatrix type="matrix" values="0 0 0 0 0.0627451 0 0 0 0 0.494118 0 0 0 0 1 0 0 0 1 0"/>
<feBlend mode="normal" in2="shape" result="effect1_innerShadow_4477_210341"/>
</filter>
<linearGradient id="paint0_linear_4477_210341" x1="59.3316" y1="13.11" x2="58.1901" y2="9.51519" gradientUnits="userSpaceOnUse">
<stop stop-color="#107EFF"/>
<stop offset="1" stop-color="white"/>
</linearGradient>
<linearGradient id="paint1_linear_4477_210341" x1="68.2459" y1="14.2871" x2="66.1501" y2="7.68683" gradientUnits="userSpaceOnUse">
<stop stop-color="#107EFF"/>
<stop offset="1" stop-color="white"/>
</linearGradient>
<linearGradient id="paint2_linear_4477_210341" x1="63.0153" y1="20.3591" x2="61.3312" y2="15.0553" gradientUnits="userSpaceOnUse">
<stop stop-color="#107EFF"/>
<stop offset="1" stop-color="white"/>
</linearGradient>
</defs>
</svg>
