<svg viewBox="0 0 40 40" fill="none" xmlns="http://www.w3.org/2000/svg">
<path fill-rule="evenodd" clip-rule="evenodd" d="M26.268 27.2727H13.7215C13.0793 26.1897 12.709 24.9306 12.709 23.5925C12.709 19.5943 16.0155 16.3016 19.9998 16.3016C23.9842 16.3016 27.2769 19.5943 27.2769 23.5925C27.2769 24.9306 26.9081 26.1897 26.268 27.2727ZM19.9998 8.12537C20.7607 8.12537 21.411 8.77559 21.411 9.5365V12.3449C21.411 13.1058 20.7607 13.7422 19.9998 13.7422C19.2389 13.7422 18.6025 13.1058 18.6025 12.3449V9.5365C18.6025 8.77559 19.2389 8.12537 19.9998 8.12537ZM26.9588 16.6613C26.4054 16.1217 26.4054 15.2225 26.9449 14.6829L28.951 12.6769C29.4905 12.1374 30.3898 12.1374 30.9293 12.6631C31.4689 13.2026 31.4689 14.1296 30.9293 14.6553L28.9371 16.6475C28.3976 17.2008 27.4845 17.2008 26.9588 16.6613ZM11.0627 16.6474C11.5885 17.2008 12.5015 17.2008 13.0411 16.6613C13.5806 16.1356 13.5806 15.2086 13.0549 14.6829L11.0627 12.6769C10.537 12.1512 9.62394 12.1374 9.08439 12.6631C8.54484 13.2026 8.54484 14.1295 9.07055 14.6414L11.0627 16.6474ZM34.0422 25.0036C34.8031 25.0036 35.4395 24.3534 35.4395 23.5925C35.4395 22.8316 34.8031 22.1952 34.0422 22.1952H31.2337C30.4728 22.1952 29.8364 22.8316 29.8364 23.5925C29.8364 24.3534 30.4728 25.0036 31.2337 25.0036H34.0422ZM4.56055 23.5925C4.56055 22.8316 5.19694 22.1952 5.97168 22.1952H8.76628C9.52718 22.1952 10.1774 22.8316 10.1774 23.5925C10.1774 24.3534 9.52718 25.0036 8.76628 25.0036H5.97168C5.19694 25.0036 4.56055 24.3534 4.56055 23.5925Z" fill="url(#paint0_linear)"/>
<path fill-rule="evenodd" clip-rule="evenodd" d="M9.99991 30C9.49783 30 9.09082 30.407 9.09082 30.9091C9.09082 31.4112 9.49783 31.8182 9.99991 31.8182H17.0918C17.5939 31.8182 18.0009 31.4112 18.0009 30.9091C18.0009 30.407 17.5939 30 17.0918 30H9.99991ZM20.5299 30C20.0279 30 19.6208 30.407 19.6208 30.9091C19.6208 31.4112 20.0279 31.8182 20.5299 31.8182H30.8619C31.364 31.8182 31.771 31.4112 31.771 30.9091C31.771 30.407 31.364 30 30.8619 30H20.5299ZM12.4301 34.5454C11.928 34.5454 11.521 34.9524 11.521 35.4545C11.521 35.9566 11.928 36.3636 12.4301 36.3636H21.952C22.4541 36.3636 22.8611 35.9566 22.8611 35.4545C22.8611 34.9524 22.4541 34.5454 21.952 34.5454H12.4301ZM24.4812 35.4545C24.4812 34.9524 24.8882 34.5454 25.3903 34.5454H28.4322C28.9342 34.5454 29.3412 34.9524 29.3412 35.4545C29.3412 35.9566 28.9342 36.3636 28.4322 36.3636H25.3903C24.8882 36.3636 24.4812 35.9566 24.4812 35.4545Z" fill="#CAE6FA"/>
<path fill-rule="evenodd" clip-rule="evenodd" d="M9.99991 30C9.49783 30 9.09082 30.407 9.09082 30.9091C9.09082 31.4112 9.49783 31.8182 9.99991 31.8182H17.0918C17.5939 31.8182 18.0009 31.4112 18.0009 30.9091C18.0009 30.407 17.5939 30 17.0918 30H9.99991ZM20.5299 30C20.0279 30 19.6208 30.407 19.6208 30.9091C19.6208 31.4112 20.0279 31.8182 20.5299 31.8182H30.8619C31.364 31.8182 31.771 31.4112 31.771 30.9091C31.771 30.407 31.364 30 30.8619 30H20.5299ZM12.4301 34.5454C11.928 34.5454 11.521 34.9524 11.521 35.4545C11.521 35.9566 11.928 36.3636 12.4301 36.3636H21.952C22.4541 36.3636 22.8611 35.9566 22.8611 35.4545C22.8611 34.9524 22.4541 34.5454 21.952 34.5454H12.4301ZM24.4812 35.4545C24.4812 34.9524 24.8882 34.5454 25.3903 34.5454H28.4322C28.9342 34.5454 29.3412 34.9524 29.3412 35.4545C29.3412 35.9566 28.9342 36.3636 28.4322 36.3636H25.3903C24.8882 36.3636 24.4812 35.9566 24.4812 35.4545Z" fill="url(#paint1_linear)" fill-opacity="0.25"/>
<defs>
<linearGradient id="paint0_linear" x1="20" y1="8.12537" x2="20" y2="27.2728" gradientUnits="userSpaceOnUse">
<stop stop-color="#FFD03C"/>
<stop offset="1" stop-color="#FFB422"/>
</linearGradient>
<linearGradient id="paint1_linear" x1="32.0965" y1="33.2812" x2="9.30788" y2="33.2812" gradientUnits="userSpaceOnUse">
<stop stop-color="white"/>
<stop offset="1" stop-color="white" stop-opacity="0"/>
</linearGradient>
</defs>
</svg>
