<svg viewBox="0 0 40 40" fill="none" xmlns="http://www.w3.org/2000/svg">
<path fill-rule="evenodd" clip-rule="evenodd" d="M26.4275 27.2727H14.2906C11.6591 25.4849 10 22.5054 10 18.9091C10 14.697 12.519 10.7273 16.2976 9.22226C16.5515 9.13135 16.7953 9.09094 16.9477 9.09094C17.3641 9.09094 17.5978 9.40407 17.5978 9.72731C17.5978 9.84044 17.5783 9.97943 17.5081 10.165L17.4454 10.3132C17.0797 11.1313 16.8055 12.6768 16.8055 13.8384C16.8055 19.1515 20.2184 22.4647 25.5917 22.4647C26.8106 22.4647 28.0396 22.2122 28.8014 21.9495C29.035 21.8485 29.1976 21.8081 29.3702 21.8081C29.6953 21.8081 30 22.0707 30 22.4647C30 22.6061 29.9695 22.8687 29.8578 23.1313C29.2137 24.7644 27.9985 26.2128 26.4275 27.2727Z" fill="#A45CFF"/>
<path fill-rule="evenodd" clip-rule="evenodd" d="M26.4275 27.2727H14.2906C11.6591 25.4849 10 22.5054 10 18.9091C10 14.697 12.519 10.7273 16.2976 9.22226C16.5515 9.13135 16.7953 9.09094 16.9477 9.09094C17.3641 9.09094 17.5978 9.40407 17.5978 9.72731C17.5978 9.84044 17.5783 9.97943 17.5081 10.165L17.4454 10.3132C17.0797 11.1313 16.8055 12.6768 16.8055 13.8384C16.8055 19.1515 20.2184 22.4647 25.5917 22.4647C26.8106 22.4647 28.0396 22.2122 28.8014 21.9495C29.035 21.8485 29.1976 21.8081 29.3702 21.8081C29.6953 21.8081 30 22.0707 30 22.4647C30 22.6061 29.9695 22.8687 29.8578 23.1313C29.2137 24.7644 27.9985 26.2128 26.4275 27.2727Z" fill="url(#paint0_linear)" fill-opacity="0.5"/>
<path fill-rule="evenodd" clip-rule="evenodd" d="M9.09098 30C8.5889 30 8.18188 30.407 8.18188 30.9091C8.18188 31.4112 8.5889 31.8182 9.09097 31.8182H16.1829C16.685 31.8182 17.092 31.4112 17.092 30.9091C17.092 30.407 16.685 30 16.1829 30H9.09098ZM19.6209 30C19.1188 30 18.7118 30.407 18.7118 30.9091C18.7118 31.4112 19.1188 31.8182 19.6209 31.8182H29.9529C30.4549 31.8182 30.8619 31.4112 30.8619 30.9091C30.8619 30.407 30.4549 30 29.9529 30H19.6209ZM11.521 34.5455C11.0189 34.5455 10.6119 34.9525 10.6119 35.4545C10.6119 35.9566 11.0189 36.3636 11.521 36.3636H21.0429C21.545 36.3636 21.952 35.9566 21.952 35.4545C21.952 34.9525 21.545 34.5455 21.0429 34.5455H11.521ZM23.572 35.4545C23.572 34.9525 23.979 34.5455 24.4811 34.5455H27.523C28.025 34.5455 28.432 34.9525 28.432 35.4545C28.432 35.9566 28.025 36.3636 27.523 36.3636H24.4811C23.979 36.3636 23.572 35.9566 23.572 35.4545Z" fill="#CAE6FA"/>
<path fill-rule="evenodd" clip-rule="evenodd" d="M9.09098 30C8.5889 30 8.18188 30.407 8.18188 30.9091C8.18188 31.4112 8.5889 31.8182 9.09097 31.8182H16.1829C16.685 31.8182 17.092 31.4112 17.092 30.9091C17.092 30.407 16.685 30 16.1829 30H9.09098ZM19.6209 30C19.1188 30 18.7118 30.407 18.7118 30.9091C18.7118 31.4112 19.1188 31.8182 19.6209 31.8182H29.9529C30.4549 31.8182 30.8619 31.4112 30.8619 30.9091C30.8619 30.407 30.4549 30 29.9529 30H19.6209ZM11.521 34.5455C11.0189 34.5455 10.6119 34.9525 10.6119 35.4545C10.6119 35.9566 11.0189 36.3636 11.521 36.3636H21.0429C21.545 36.3636 21.952 35.9566 21.952 35.4545C21.952 34.9525 21.545 34.5455 21.0429 34.5455H11.521ZM23.572 35.4545C23.572 34.9525 23.979 34.5455 24.4811 34.5455H27.523C28.025 34.5455 28.432 34.9525 28.432 35.4545C28.432 35.9566 28.025 36.3636 27.523 36.3636H24.4811C23.979 36.3636 23.572 35.9566 23.572 35.4545Z" fill="url(#paint1_linear)" fill-opacity="0.25"/>
<defs>
<linearGradient id="paint0_linear" x1="20" y1="9.09094" x2="20" y2="27.2728" gradientUnits="userSpaceOnUse">
<stop stop-color="white"/>
<stop offset="1" stop-color="white" stop-opacity="0"/>
</linearGradient>
<linearGradient id="paint1_linear" x1="31.1876" y1="33.2813" x2="8.39895" y2="33.2813" gradientUnits="userSpaceOnUse">
<stop stop-color="white"/>
<stop offset="1" stop-color="white" stop-opacity="0"/>
</linearGradient>
</defs>
</svg>
