<svg viewBox="0 0 40 40" fill="none" xmlns="http://www.w3.org/2000/svg">
<path d="M36.3933 11.8513C37.3906 11.8513 38.3962 11.6447 39.0195 11.4298C39.2106 11.3472 39.3436 11.3141 39.4849 11.3141C39.7508 11.3141 40.0001 11.529 40.0001 11.8513C40.0001 11.967 39.9752 12.1819 39.8838 12.3968C38.7951 15.1571 35.7118 17.2728 32.1881 17.2728C27.3264 17.2728 23.6365 13.7935 23.6365 8.94224C23.6365 5.49596 25.6975 2.24802 28.7891 1.01662C28.9968 0.942238 29.1963 0.90918 29.3209 0.90918C29.6617 0.90918 29.8528 1.16538 29.8528 1.42984C29.8528 1.5224 29.8369 1.63612 29.7794 1.78792L29.7282 1.90918C29.429 2.5786 29.2046 3.84306 29.2046 4.79348C29.2046 9.14058 31.997 11.8513 36.3933 11.8513Z" fill="#A45CFF"/>
<path d="M36.3933 11.8513C37.3906 11.8513 38.3962 11.6447 39.0195 11.4298C39.2106 11.3472 39.3436 11.3141 39.4849 11.3141C39.7508 11.3141 40.0001 11.529 40.0001 11.8513C40.0001 11.967 39.9752 12.1819 39.8838 12.3968C38.7951 15.1571 35.7118 17.2728 32.1881 17.2728C27.3264 17.2728 23.6365 13.7935 23.6365 8.94224C23.6365 5.49596 25.6975 2.24802 28.7891 1.01662C28.9968 0.942238 29.1963 0.90918 29.3209 0.90918C29.6617 0.90918 29.8528 1.16538 29.8528 1.42984C29.8528 1.5224 29.8369 1.63612 29.7794 1.78792L29.7282 1.90918C29.429 2.5786 29.2046 3.84306 29.2046 4.79348C29.2046 9.14058 31.997 11.8513 36.3933 11.8513Z" fill="url(#paint0_linear)" fill-opacity="0.5"/>
<path d="M10.945 27.2727C7.15366 27.2727 4.54541 24.9267 4.54541 21.5453C4.54541 18.8848 6.27976 16.7222 8.90145 15.9752C9.37201 11.0473 13.5936 7.27271 18.6219 7.27271C22.4536 7.27271 25.6131 9.1862 27.3474 12.5807C31.9589 12.5414 35.4545 15.7 35.4545 19.907C35.4545 24.0486 32.0799 27.2727 27.7104 27.2727H10.945Z" fill="#CAE6FA"/>
<path d="M10.945 27.2727C7.15366 27.2727 4.54541 24.9267 4.54541 21.5453C4.54541 18.8848 6.27976 16.7222 8.90145 15.9752C9.37201 11.0473 13.5936 7.27271 18.6219 7.27271C22.4536 7.27271 25.6131 9.1862 27.3474 12.5807C31.9589 12.5414 35.4545 15.7 35.4545 19.907C35.4545 24.0486 32.0799 27.2727 27.7104 27.2727H10.945Z" fill="url(#paint1_linear)" fill-opacity="0.5"/>
<path fill-rule="evenodd" clip-rule="evenodd" d="M9.99955 30.5194C10.0213 30.0129 9.38096 29.692 8.88652 29.9616L7.55522 30.6876C6.87673 31.0576 6.45287 31.6948 6.42296 32.3899L6.36427 33.7536C6.34247 34.2601 6.98285 34.581 7.47729 34.3114L8.8086 33.5854C9.48709 33.2154 9.91095 32.5782 9.94086 31.8831L9.99955 30.5194ZM3.43198 34.2041C3.92642 33.9345 4.5668 34.2554 4.545 34.7619L4.48631 36.1256C4.4564 36.8207 4.03254 37.4579 3.35405 37.8279L2.02275 38.5539C1.5283 38.8235 0.887924 38.5026 0.909721 37.9961L0.968411 36.6324C0.998322 35.9373 1.42218 35.3001 2.10067 34.9301L3.43198 34.2041ZM13.6359 34.7619C13.6577 34.2554 13.0173 33.9345 12.5229 34.2041L11.1916 34.9301C10.5131 35.3001 10.0892 35.9373 10.0593 36.6324L10.0006 37.9961C9.97883 38.5026 10.6192 38.8235 11.1137 38.5539L12.445 37.8279C13.1235 37.4579 13.5473 36.8207 13.5772 36.1256L13.6359 34.7619ZM22.7268 34.7619C22.7486 34.2554 22.1082 33.9345 21.6138 34.2041L20.2825 34.9301C19.604 35.3001 19.1801 35.9373 19.1502 36.6324L19.0915 37.9961C19.0697 38.5026 19.7101 38.8235 20.2046 38.5539L21.5359 37.8279C22.2144 37.4579 22.6382 36.8207 22.6681 36.1256L22.7268 34.7619ZM17.9774 29.9616C18.4719 29.692 19.1123 30.0129 19.0905 30.5194L19.0318 31.8831C19.0019 32.5782 18.578 33.2154 17.8995 33.5854L16.5682 34.3114C16.0738 34.581 15.4334 34.2601 15.4552 33.7536L15.5139 32.3899C15.5438 31.6948 15.9676 31.0576 16.6461 30.6876L17.9774 29.9616ZM28.1814 30.5194C28.2032 30.0129 27.5628 29.692 27.0683 29.9616L25.737 30.6876C25.0585 31.0576 24.6347 31.6948 24.6048 32.3899L24.5461 33.7536C24.5243 34.2601 25.1647 34.581 25.6591 34.3114L26.9904 33.5854C27.6689 33.2154 28.0928 32.5782 28.1227 31.8831L28.1814 30.5194Z" fill="#63A1FF"/>
<path fill-rule="evenodd" clip-rule="evenodd" d="M9.99955 30.5194C10.0213 30.0129 9.38096 29.692 8.88652 29.9616L7.55522 30.6876C6.87673 31.0576 6.45287 31.6948 6.42296 32.3899L6.36427 33.7536C6.34247 34.2601 6.98285 34.581 7.47729 34.3114L8.8086 33.5854C9.48709 33.2154 9.91095 32.5782 9.94086 31.8831L9.99955 30.5194ZM3.43198 34.2041C3.92642 33.9345 4.5668 34.2554 4.545 34.7619L4.48631 36.1256C4.4564 36.8207 4.03254 37.4579 3.35405 37.8279L2.02275 38.5539C1.5283 38.8235 0.887924 38.5026 0.909721 37.9961L0.968411 36.6324C0.998322 35.9373 1.42218 35.3001 2.10067 34.9301L3.43198 34.2041ZM13.6359 34.7619C13.6577 34.2554 13.0173 33.9345 12.5229 34.2041L11.1916 34.9301C10.5131 35.3001 10.0892 35.9373 10.0593 36.6324L10.0006 37.9961C9.97883 38.5026 10.6192 38.8235 11.1137 38.5539L12.445 37.8279C13.1235 37.4579 13.5473 36.8207 13.5772 36.1256L13.6359 34.7619ZM22.7268 34.7619C22.7486 34.2554 22.1082 33.9345 21.6138 34.2041L20.2825 34.9301C19.604 35.3001 19.1801 35.9373 19.1502 36.6324L19.0915 37.9961C19.0697 38.5026 19.7101 38.8235 20.2046 38.5539L21.5359 37.8279C22.2144 37.4579 22.6382 36.8207 22.6681 36.1256L22.7268 34.7619ZM17.9774 29.9616C18.4719 29.692 19.1123 30.0129 19.0905 30.5194L19.0318 31.8831C19.0019 32.5782 18.578 33.2154 17.8995 33.5854L16.5682 34.3114C16.0738 34.581 15.4334 34.2601 15.4552 33.7536L15.5139 32.3899C15.5438 31.6948 15.9676 31.0576 16.6461 30.6876L17.9774 29.9616ZM28.1814 30.5194C28.2032 30.0129 27.5628 29.692 27.0683 29.9616L25.737 30.6876C25.0585 31.0576 24.6347 31.6948 24.6048 32.3899L24.5461 33.7536C24.5243 34.2601 25.1647 34.581 25.6591 34.3114L26.9904 33.5854C27.6689 33.2154 28.0928 32.5782 28.1227 31.8831L28.1814 30.5194Z" fill="url(#paint2_linear)" fill-opacity="0.2"/>
<defs>
<linearGradient id="paint0_linear" x1="31.8183" y1="0.90918" x2="31.8183" y2="17.2728" gradientUnits="userSpaceOnUse">
<stop stop-color="white"/>
<stop offset="1" stop-color="white" stop-opacity="0"/>
</linearGradient>
<linearGradient id="paint1_linear" x1="20" y1="7.27271" x2="20" y2="27.2727" gradientUnits="userSpaceOnUse">
<stop stop-color="white"/>
<stop offset="1" stop-color="white" stop-opacity="0"/>
</linearGradient>
<linearGradient id="paint2_linear" x1="14.5455" y1="29.8638" x2="14.5455" y2="38.6517" gradientUnits="userSpaceOnUse">
<stop stop-color="white" stop-opacity="0"/>
<stop offset="1" stop-color="white"/>
</linearGradient>
</defs>
</svg>
