<svg viewBox="0 0 40 40" fill="none" xmlns="http://www.w3.org/2000/svg">
<path fill-rule="evenodd" clip-rule="evenodd" d="M32.4331 34.3935C32.4659 34.7459 32.2367 35.0479 31.9094 35.0479C31.533 35.0479 31.3202 34.7459 31.3529 34.3935L31.4675 32.8161L30.1909 33.7391C29.929 33.9404 29.5199 33.8901 29.3562 33.588C29.1925 33.286 29.3071 32.9 29.6344 32.749L31.0583 32.061L29.6508 31.373C29.3071 31.2052 29.2089 30.8361 29.3726 30.5508C29.5526 30.2488 29.929 30.1984 30.1909 30.3998L31.4675 31.3395L31.3366 29.7454C31.3202 29.3762 31.533 29.0909 31.9094 29.0909C32.2367 29.0909 32.4822 29.3762 32.4495 29.7454L32.3022 31.3395L33.5788 30.3998C33.8407 30.1984 34.2499 30.2656 34.4135 30.5508C34.5608 30.8361 34.4626 31.222 34.1353 31.373L32.7114 32.0778L34.1189 32.7322C34.4626 32.9 34.5772 33.3028 34.3972 33.588C34.2171 33.8733 33.8407 33.9404 33.5788 33.7391L32.2858 32.7994L32.4331 34.3935ZM14.2987 34.3935C14.3314 34.7459 14.1023 35.0479 13.7749 35.0479C13.3985 35.0479 13.1857 34.7459 13.2184 34.3935L13.3494 32.8162L12.0564 33.7391C11.7945 33.9404 11.3854 33.8901 11.2217 33.5881C11.058 33.286 11.1726 32.9001 11.5163 32.7491L12.9238 32.0611L11.5163 31.3731C11.1726 31.2053 11.0744 30.8361 11.2381 30.5509C11.4181 30.2488 11.7945 30.1985 12.0564 30.3998L13.3494 31.3395L13.2021 29.7454C13.1857 29.3762 13.3985 29.091 13.7749 29.091C14.1023 29.091 14.3478 29.3762 14.315 29.7454L14.1677 31.3395L15.4443 30.3998C15.7062 30.1985 16.1154 30.2656 16.279 30.5509C16.4263 30.8361 16.3281 31.2221 16.0008 31.3731L14.5769 32.0778L15.9844 32.7323C16.3281 32.9001 16.4427 33.3028 16.2627 33.5881C16.099 33.8733 15.7062 33.9404 15.4443 33.7391L14.1514 32.7994L14.2987 34.3935Z" fill="#63A1FF"/>
<path d="M22.8422 39.0909C23.1695 39.0909 23.3986 38.7888 23.3659 38.4364L23.2186 36.8423L24.5116 37.782C24.7735 37.9834 25.1663 37.9163 25.3299 37.631C25.51 37.3457 25.3954 36.943 25.0517 36.7752L23.6441 36.1208L25.0681 35.416C25.3954 35.265 25.4936 34.879 25.3463 34.5938C25.1826 34.3085 24.7735 34.2414 24.5116 34.4428L23.235 35.3825L23.3823 33.7883C23.415 33.4192 23.1695 33.1339 22.8422 33.1339C22.4657 33.1339 22.253 33.4192 22.2693 33.7883L22.4003 35.3825L21.1237 34.4428C20.8618 34.2414 20.4854 34.2917 20.3053 34.5938C20.1417 34.879 20.2399 35.2482 20.5836 35.416L21.9911 36.104L20.5836 36.792C20.2399 36.943 20.1253 37.329 20.289 37.631C20.4526 37.933 20.8618 37.9834 21.1237 37.782L22.4003 36.8591L22.2857 38.4364C22.253 38.7888 22.4657 39.0909 22.8422 39.0909Z" fill="#96C0FF"/>
<path d="M4.5088 39.098C4.83614 39.098 5.06527 38.7959 5.03254 38.4435L4.88524 36.8494L6.17821 37.7891C6.44008 37.9905 6.83288 37.9233 6.99655 37.6381C7.17659 37.3528 7.06202 36.9501 6.71832 36.7823L5.31077 36.1279L6.73468 35.4231C7.06202 35.2721 7.16022 34.8861 7.01292 34.6009C6.84925 34.3156 6.44008 34.2485 6.17821 34.4498L4.90161 35.3895L5.04891 33.7954C5.08164 33.4263 4.83614 33.141 4.5088 33.141C4.13237 33.141 3.9196 33.4263 3.93597 33.7954L4.0669 35.3895L2.79029 34.4498C2.52842 34.2485 2.15199 34.2988 1.97195 34.6009C1.80829 34.8861 1.90649 35.2553 2.25019 35.4231L3.65773 36.1111L2.25019 36.7991C1.90649 36.9501 1.79192 37.336 1.95559 37.6381C2.11925 37.9401 2.52842 37.9905 2.79029 37.7891L4.0669 36.8662L3.95233 38.4435C3.9196 38.7959 4.13237 39.098 4.5088 39.098Z" fill="#96C0FF"/>
<path d="M36.3932 11.8512C37.3905 11.8512 38.396 11.6446 39.0193 11.4297C39.2105 11.3471 39.3434 11.314 39.4847 11.314C39.7507 11.314 40 11.5289 40 11.8512C40 11.9669 39.9751 12.1818 39.8836 12.3967C38.7949 15.157 35.7117 17.2727 32.188 17.2727C27.3263 17.2727 23.6364 13.7934 23.6364 8.94212C23.6364 5.49583 25.6974 2.2479 28.7889 1.0165C28.9967 0.942115 29.1962 0.909058 29.3208 0.909058C29.6616 0.909058 29.8527 1.16526 29.8527 1.42972C29.8527 1.52228 29.8367 1.636 29.7793 1.7878L29.728 1.90906C29.4289 2.57848 29.2045 3.84294 29.2045 4.79336C29.2045 9.14046 31.9969 11.8512 36.3932 11.8512Z" fill="#A45CFF"/>
<path d="M36.3932 11.8512C37.3905 11.8512 38.396 11.6446 39.0193 11.4297C39.2105 11.3471 39.3434 11.314 39.4847 11.314C39.7507 11.314 40 11.5289 40 11.8512C40 11.9669 39.9751 12.1818 39.8836 12.3967C38.7949 15.157 35.7117 17.2727 32.188 17.2727C27.3263 17.2727 23.6364 13.7934 23.6364 8.94212C23.6364 5.49583 25.6974 2.2479 28.7889 1.0165C28.9967 0.942115 29.1962 0.909058 29.3208 0.909058C29.6616 0.909058 29.8527 1.16526 29.8527 1.42972C29.8527 1.52228 29.8367 1.636 29.7793 1.7878L29.728 1.90906C29.4289 2.57848 29.2045 3.84294 29.2045 4.79336C29.2045 9.14046 31.9969 11.8512 36.3932 11.8512Z" fill="url(#paint0_linear)" fill-opacity="0.5"/>
<path d="M10.945 27.2727C7.15366 27.2727 4.54541 24.9267 4.54541 21.5453C4.54541 18.8848 6.27976 16.7222 8.90145 15.9752C9.37201 11.0473 13.5936 7.27271 18.6219 7.27271C22.4536 7.27271 25.6131 9.1862 27.3474 12.5807C31.9589 12.5414 35.4545 15.7 35.4545 19.907C35.4545 24.0486 32.0799 27.2727 27.7104 27.2727H10.945Z" fill="#CAE6FA"/>
<path d="M10.945 27.2727C7.15366 27.2727 4.54541 24.9267 4.54541 21.5453C4.54541 18.8848 6.27976 16.7222 8.90145 15.9752C9.37201 11.0473 13.5936 7.27271 18.6219 7.27271C22.4536 7.27271 25.6131 9.1862 27.3474 12.5807C31.9589 12.5414 35.4545 15.7 35.4545 19.907C35.4545 24.0486 32.0799 27.2727 27.7104 27.2727H10.945Z" fill="url(#paint1_linear)" fill-opacity="0.5"/>
<defs>
<linearGradient id="paint0_linear" x1="31.8182" y1="0.909058" x2="31.8182" y2="17.2727" gradientUnits="userSpaceOnUse">
<stop stop-color="white"/>
<stop offset="1" stop-color="white" stop-opacity="0"/>
</linearGradient>
<linearGradient id="paint1_linear" x1="20" y1="7.27271" x2="20" y2="27.2727" gradientUnits="userSpaceOnUse">
<stop stop-color="white"/>
<stop offset="1" stop-color="white" stop-opacity="0"/>
</linearGradient>
</defs>
</svg>
