<svg viewBox="0 0 41 40" fill="none" xmlns="http://www.w3.org/2000/svg">
<path d="M11.6701 27.2727C7.87876 27.2727 5.27051 24.9267 5.27051 21.5453C5.27051 18.8848 7.00486 16.7222 9.62655 15.9752C10.0971 11.0473 14.3187 7.27271 19.347 7.27271C23.1787 7.27271 26.3382 9.1862 28.0725 12.5807C32.684 12.5414 36.1796 15.7 36.1796 19.907C36.1796 24.0486 32.805 27.2727 28.4355 27.2727H11.6701Z" fill="#CAE6FA"/>
<path d="M11.6701 27.2727C7.87876 27.2727 5.27051 24.9267 5.27051 21.5453C5.27051 18.8848 7.00486 16.7222 9.62655 15.9752C10.0971 11.0473 14.3187 7.27271 19.347 7.27271C23.1787 7.27271 26.3382 9.1862 28.0725 12.5807C32.684 12.5414 36.1796 15.7 36.1796 19.907C36.1796 24.0486 32.805 27.2727 28.4355 27.2727H11.6701Z" fill="url(#paint0_linear)" fill-opacity="0.5"/>
<path fill-rule="evenodd" clip-rule="evenodd" d="M10.7229 35.0478C11.0502 35.0478 11.2794 34.7458 11.2467 34.3934L11.0993 32.7993L12.3923 33.739C12.6542 33.9404 13.047 33.8732 13.2107 33.588C13.3907 33.3027 13.2761 32.9 12.9324 32.7322L11.5249 32.0778L12.9488 31.373C13.2761 31.222 13.3743 30.836 13.227 30.5508C13.0634 30.2655 12.6542 30.1984 12.3923 30.3997L11.1157 31.3394L11.263 29.7453C11.2958 29.3761 11.0502 29.0909 10.7229 29.0909C10.3465 29.0909 10.1337 29.3761 10.1501 29.7453L10.2974 31.3394L9.0044 30.3997C8.74254 30.1984 8.3661 30.2487 8.18607 30.5508C8.0224 30.836 8.1206 31.2052 8.4643 31.373L9.87184 32.061L8.4643 32.749C8.1206 32.9 8.00603 33.2859 8.1697 33.588C8.33337 33.89 8.74254 33.9404 9.0044 33.739L10.2974 32.8161L10.1664 34.3934C10.1337 34.7458 10.3465 35.0478 10.7229 35.0478ZM28.8573 35.0479C29.1847 35.0479 29.4138 34.7458 29.3811 34.3934L29.2338 32.7993L30.5267 33.739C30.7886 33.9404 31.165 33.8733 31.3451 33.588C31.5251 33.3027 31.4105 32.9 31.0668 32.7322L29.6593 32.0778L31.0832 31.373C31.4105 31.222 31.5087 30.836 31.3614 30.5508C31.1978 30.2655 30.7886 30.1984 30.5267 30.3998L29.2501 31.3395L29.3974 29.7453C29.4302 29.3762 29.1847 29.0909 28.8573 29.0909C28.4809 29.0909 28.2681 29.3762 28.2845 29.7453L28.4154 31.3395L27.1388 30.3998C26.8769 30.1984 26.5005 30.2487 26.3205 30.5508C26.1568 30.836 26.255 31.2052 26.5987 31.373L28.0062 32.061L26.5823 32.749C26.255 32.9 26.1404 33.286 26.3041 33.588C26.4678 33.89 26.8769 33.9404 27.1388 33.739L28.4154 32.8161L28.3008 34.3934C28.2681 34.7458 28.4809 35.0479 28.8573 35.0479ZM20.3138 38.4364C20.3465 38.7888 20.1174 39.0908 19.79 39.0908C19.4136 39.0908 19.2008 38.7888 19.2336 38.4364L19.3481 36.8591L18.0715 37.782C17.8097 37.9833 17.4005 37.933 17.2368 37.631C17.0731 37.3289 17.1877 36.943 17.5314 36.792L18.939 36.104L17.5314 35.416C17.1877 35.2482 17.0895 34.879 17.2532 34.5938C17.4332 34.2917 17.8097 34.2414 18.0715 34.4427L19.3481 35.3824L19.2172 33.7883C19.2008 33.4191 19.4136 33.1339 19.79 33.1339C20.1174 33.1339 20.3629 33.4191 20.3301 33.7883L20.1828 35.3824L21.4594 34.4427C21.7213 34.2414 22.1305 34.3085 22.2941 34.5938C22.4414 34.879 22.3432 35.265 22.0159 35.416L20.592 36.1207L21.9995 36.7752C22.3432 36.943 22.4578 37.3457 22.2778 37.631C22.1141 37.9162 21.7213 37.9833 21.4594 37.782L20.1665 36.8423L20.3138 38.4364Z" fill="#63A1FF"/>
<circle cx="19.7629" cy="30.6089" r="1.09091" fill="#96C0FF"/>
<circle cx="28.8258" cy="37.5728" r="1.09091" fill="#96C0FF"/>
<circle cx="10.6767" cy="37.5728" r="1.09091" fill="#96C0FF"/>
<defs>
<linearGradient id="paint0_linear" x1="20.7251" y1="7.27271" x2="20.7251" y2="27.2727" gradientUnits="userSpaceOnUse">
<stop stop-color="white"/>
<stop offset="1" stop-color="white" stop-opacity="0"/>
</linearGradient>
</defs>
</svg>
