<svg viewBox="0 0 40 40" fill="none" xmlns="http://www.w3.org/2000/svg">
<path d="M10.945 27.2727C7.15366 27.2727 4.54541 24.9267 4.54541 21.5453C4.54541 18.8848 6.27976 16.7222 8.90145 15.9752C9.37201 11.0473 13.5936 7.27271 18.6219 7.27271C22.4536 7.27271 25.6131 9.1862 27.3474 12.5807C31.9589 12.5414 35.4545 15.7 35.4545 19.907C35.4545 24.0486 32.0799 27.2727 27.7104 27.2727H10.945Z" fill="#CAE6FA"/>
<path d="M10.945 27.2727C7.15366 27.2727 4.54541 24.9267 4.54541 21.5453C4.54541 18.8848 6.27976 16.7222 8.90145 15.9752C9.37201 11.0473 13.5936 7.27271 18.6219 7.27271C22.4536 7.27271 25.6131 9.1862 27.3474 12.5807C31.9589 12.5414 35.4545 15.7 35.4545 19.907C35.4545 24.0486 32.0799 27.2727 27.7104 27.2727H10.945Z" fill="url(#paint0_linear)" fill-opacity="0.5"/>
<path d="M13.432 34.204C13.9264 33.9344 14.5668 34.2553 14.545 34.7618L14.4863 36.1256C14.4564 36.8206 14.0325 37.4578 13.3541 37.8278L12.0227 38.5538C11.5283 38.8235 10.8879 38.5025 10.9097 37.996L10.9684 36.6323C10.9983 35.9373 11.4222 35.3 12.1007 34.93L13.432 34.204Z" fill="#63A1FF"/>
<path d="M13.432 34.204C13.9264 33.9344 14.5668 34.2553 14.545 34.7618L14.4863 36.1256C14.4564 36.8206 14.0325 37.4578 13.3541 37.8278L12.0227 38.5538C11.5283 38.8235 10.8879 38.5025 10.9097 37.996L10.9684 36.6323C10.9983 35.9373 11.4222 35.3 12.1007 34.93L13.432 34.204Z" fill="url(#paint1_linear)" fill-opacity="0.2"/>
<path d="M19.7955 34.204C20.2899 33.9344 20.9303 34.2553 20.9085 34.7618L20.8498 36.1256C20.8199 36.8206 20.3961 37.4578 19.7176 37.8278L18.3863 38.5538C17.8918 38.8235 17.2514 38.5025 17.2732 37.996L17.3319 36.6323C17.3618 35.9373 17.7857 35.3 18.4642 34.93L19.7955 34.204Z" fill="#63A1FF"/>
<path d="M19.7955 34.204C20.2899 33.9344 20.9303 34.2553 20.9085 34.7618L20.8498 36.1256C20.8199 36.8206 20.3961 37.4578 19.7176 37.8278L18.3863 38.5538C17.8918 38.8235 17.2514 38.5025 17.2732 37.996L17.3319 36.6323C17.3618 35.9373 17.7857 35.3 18.4642 34.93L19.7955 34.204Z" fill="url(#paint2_linear)" fill-opacity="0.2"/>
<path d="M26.1593 34.204C26.6537 33.9344 27.2941 34.2553 27.2723 34.7618L27.2136 36.1256C27.1837 36.8206 26.7598 37.4578 26.0813 37.8278L24.75 38.5538C24.2556 38.8235 23.6152 38.5025 23.637 37.996L23.6957 36.6323C23.7256 35.9373 24.1495 35.3 24.828 34.93L26.1593 34.204Z" fill="#63A1FF"/>
<path d="M26.1593 34.204C26.6537 33.9344 27.2941 34.2553 27.2723 34.7618L27.2136 36.1256C27.1837 36.8206 26.7598 37.4578 26.0813 37.8278L24.75 38.5538C24.2556 38.8235 23.6152 38.5025 23.637 37.996L23.6957 36.6323C23.7256 35.9373 24.1495 35.3 24.828 34.93L26.1593 34.204Z" fill="url(#paint3_linear)" fill-opacity="0.2"/>
<path d="M7.06821 34.204C7.56265 33.9344 8.20303 34.2553 8.18123 34.7618L8.12254 36.1256C8.09263 36.8206 7.66877 37.4578 6.99028 37.8278L5.65898 38.5538C5.16454 38.8235 4.52415 38.5025 4.54595 37.996L4.60464 36.6323C4.63455 35.9373 5.05841 35.3 5.7369 34.93L7.06821 34.204Z" fill="#63A1FF"/>
<path d="M7.06821 34.204C7.56265 33.9344 8.20303 34.2553 8.18123 34.7618L8.12254 36.1256C8.09263 36.8206 7.66877 37.4578 6.99028 37.8278L5.65898 38.5538C5.16454 38.8235 4.52415 38.5025 4.54595 37.996L4.60464 36.6323C4.63455 35.9373 5.05841 35.3 5.7369 34.93L7.06821 34.204Z" fill="url(#paint4_linear)" fill-opacity="0.2"/>
<path d="M5.45455 30.9091L5 31.8181" stroke="#63A1FF" stroke-width="1.81818" stroke-linecap="round" stroke-linejoin="round"/>
<path d="M11.8181 30.9091L11.3635 31.8181" stroke="#63A1FF" stroke-width="1.81818" stroke-linecap="round" stroke-linejoin="round"/>
<path d="M17.2727 30.9091L16.8181 31.8181" stroke="#63A1FF" stroke-width="1.81818" stroke-linecap="round" stroke-linejoin="round"/>
<path d="M23.6364 30.9091L23.1819 31.8181" stroke="#63A1FF" stroke-width="1.81818" stroke-linecap="round" stroke-linejoin="round"/>
<path d="M30 30.9091L29.5454 31.8181" stroke="#63A1FF" stroke-width="1.81818" stroke-linecap="round" stroke-linejoin="round"/>
<defs>
<linearGradient id="paint0_linear" x1="20" y1="7.27271" x2="20" y2="27.2727" gradientUnits="userSpaceOnUse">
<stop stop-color="white"/>
<stop offset="1" stop-color="white" stop-opacity="0"/>
</linearGradient>
<linearGradient id="paint1_linear" x1="12.7274" y1="34.1062" x2="12.7274" y2="38.6517" gradientUnits="userSpaceOnUse">
<stop stop-color="white" stop-opacity="0"/>
<stop offset="1" stop-color="white"/>
</linearGradient>
<linearGradient id="paint2_linear" x1="19.0909" y1="34.1062" x2="19.0909" y2="38.6517" gradientUnits="userSpaceOnUse">
<stop stop-color="white" stop-opacity="0"/>
<stop offset="1" stop-color="white"/>
</linearGradient>
<linearGradient id="paint3_linear" x1="25.4547" y1="34.1062" x2="25.4547" y2="38.6517" gradientUnits="userSpaceOnUse">
<stop stop-color="white" stop-opacity="0"/>
<stop offset="1" stop-color="white"/>
</linearGradient>
<linearGradient id="paint4_linear" x1="6.36359" y1="34.1062" x2="6.36359" y2="38.6517" gradientUnits="userSpaceOnUse">
<stop stop-color="white" stop-opacity="0"/>
<stop offset="1" stop-color="white"/>
</linearGradient>
</defs>
</svg>
