<svg viewBox="0 0 40 40" fill="none" xmlns="http://www.w3.org/2000/svg">
<path d="M36.3932 11.8513C37.3905 11.8513 38.396 11.6447 39.0193 11.4298C39.2105 11.3471 39.3434 11.3141 39.4847 11.3141C39.7507 11.3141 40 11.529 40 11.8513C40 11.967 39.9751 12.1818 39.8836 12.3967C38.7949 15.1571 35.7117 17.2728 32.188 17.2728C27.3263 17.2728 23.6364 13.7934 23.6364 8.94218C23.6364 5.4959 25.6974 2.24796 28.7889 1.01656C28.9967 0.942177 29.1962 0.909119 29.3208 0.909119C29.6616 0.909119 29.8527 1.16532 29.8527 1.42978C29.8527 1.52234 29.8367 1.63606 29.7793 1.78786L29.728 1.90912C29.4289 2.57854 29.2045 3.843 29.2045 4.79342C29.2045 9.14052 31.9969 11.8513 36.3932 11.8513Z" fill="#A45CFF"/>
<path d="M36.3932 11.8513C37.3905 11.8513 38.396 11.6447 39.0193 11.4298C39.2105 11.3471 39.3434 11.3141 39.4847 11.3141C39.7507 11.3141 40 11.529 40 11.8513C40 11.967 39.9751 12.1818 39.8836 12.3967C38.7949 15.1571 35.7117 17.2728 32.188 17.2728C27.3263 17.2728 23.6364 13.7934 23.6364 8.94218C23.6364 5.4959 25.6974 2.24796 28.7889 1.01656C28.9967 0.942177 29.1962 0.909119 29.3208 0.909119C29.6616 0.909119 29.8527 1.16532 29.8527 1.42978C29.8527 1.52234 29.8367 1.63606 29.7793 1.78786L29.728 1.90912C29.4289 2.57854 29.2045 3.843 29.2045 4.79342C29.2045 9.14052 31.9969 11.8513 36.3932 11.8513Z" fill="url(#paint0_linear)" fill-opacity="0.5"/>
<path d="M10.945 27.2727C7.15366 27.2727 4.54541 24.9267 4.54541 21.5453C4.54541 18.8848 6.27976 16.7222 8.90145 15.9752C9.37201 11.0473 13.5936 7.27271 18.6219 7.27271C22.4536 7.27271 25.6131 9.1862 27.3474 12.5807C31.9589 12.5414 35.4545 15.7 35.4545 19.907C35.4545 24.0486 32.0799 27.2727 27.7104 27.2727H10.945Z" fill="#CAE6FA"/>
<path d="M10.945 27.2727C7.15366 27.2727 4.54541 24.9267 4.54541 21.5453C4.54541 18.8848 6.27976 16.7222 8.90145 15.9752C9.37201 11.0473 13.5936 7.27271 18.6219 7.27271C22.4536 7.27271 25.6131 9.1862 27.3474 12.5807C31.9589 12.5414 35.4545 15.7 35.4545 19.907C35.4545 24.0486 32.0799 27.2727 27.7104 27.2727H10.945Z" fill="url(#paint1_linear)" fill-opacity="0.5"/>
<path d="M9.74794 35.0478C10.0753 35.0478 10.3044 34.7458 10.2717 34.3934L10.1244 32.7993L11.4173 33.739C11.6792 33.9404 12.072 33.8732 12.2357 33.588C12.4157 33.3027 12.3012 32.9 11.9575 32.7322L10.5499 32.0778L11.9738 31.373C12.3012 31.222 12.3994 30.836 12.2521 30.5508C12.0884 30.2655 11.6792 30.1984 11.4173 30.3997L10.1407 31.3394L10.288 29.7453C10.3208 29.3761 10.0753 29.0909 9.74794 29.0909C9.3715 29.0909 9.15873 29.3761 9.1751 29.7453L9.3224 31.3394L8.02943 30.3997C7.76756 30.1984 7.39112 30.2487 7.21109 30.5508C7.04742 30.836 7.14562 31.2052 7.48932 31.373L8.89687 32.061L7.48932 32.749C7.14562 32.9 7.03106 33.2859 7.19472 33.588C7.35839 33.89 7.76756 33.9404 8.02943 33.739L9.3224 32.8161L9.19147 34.3934C9.15873 34.7458 9.3715 35.0478 9.74794 35.0478Z" fill="#63A1FF"/>
<path d="M27.8824 35.0478C28.2098 35.0478 28.4389 34.7458 28.4062 34.3934L28.2589 32.7993L29.5518 33.739C29.8137 33.9404 30.1901 33.8732 30.3702 33.588C30.5502 33.3027 30.4356 32.9 30.0919 32.7322L28.6844 32.0778L30.1083 31.373C30.4356 31.222 30.5338 30.836 30.3865 30.5508C30.2229 30.2655 29.8137 30.1984 29.5518 30.3997L28.2752 31.3394L28.4225 29.7453C28.4553 29.3761 28.2098 29.0909 27.8824 29.0909C27.506 29.0909 27.2932 29.3761 27.3096 29.7453L27.4405 31.3394L26.1639 30.3997C25.9021 30.1984 25.5256 30.2487 25.3456 30.5508C25.1819 30.836 25.2801 31.2052 25.6238 31.373L27.0314 32.061L25.6074 32.749C25.2801 32.9 25.1655 33.2859 25.3292 33.588C25.4929 33.89 25.9021 33.9404 26.1639 33.739L27.4405 32.8161L27.326 34.3934C27.2932 34.7458 27.506 35.0478 27.8824 35.0478Z" fill="#63A1FF"/>
<path d="M18.8151 39.0908C19.1424 39.0908 19.3715 38.7888 19.3388 38.4364L19.1915 36.8423L20.4845 37.782C20.7464 37.9833 21.1392 37.9162 21.3028 37.6309C21.4829 37.3457 21.3683 36.943 21.0246 36.7751L19.617 36.1207L21.041 35.416C21.3683 35.2649 21.4665 34.879 21.3192 34.5937C21.1555 34.3085 20.7464 34.2413 20.4845 34.4427L19.2079 35.3824L19.3552 33.7883C19.3879 33.4191 19.1424 33.1339 18.8151 33.1339C18.4386 33.1339 18.2259 33.4191 18.2422 33.7883L18.3732 35.3824L17.0966 34.4427C16.8347 34.2413 16.4583 34.2917 16.2782 34.5937C16.1146 34.879 16.2128 35.2482 16.5565 35.416L17.964 36.1039L16.5565 36.7919C16.2128 36.943 16.0982 37.3289 16.2619 37.6309C16.4255 37.933 16.8347 37.9833 17.0966 37.782L18.3732 36.859L18.2586 38.4364C18.2259 38.7888 18.4386 39.0908 18.8151 39.0908Z" fill="#63A1FF"/>
<circle cx="18.7881" cy="30.6089" r="1.09091" fill="#96C0FF"/>
<circle cx="27.8507" cy="37.5728" r="1.09091" fill="#96C0FF"/>
<circle cx="9.70175" cy="37.5728" r="1.09091" fill="#96C0FF"/>
<defs>
<linearGradient id="paint0_linear" x1="31.8182" y1="0.909119" x2="31.8182" y2="17.2728" gradientUnits="userSpaceOnUse">
<stop stop-color="white"/>
<stop offset="1" stop-color="white" stop-opacity="0"/>
</linearGradient>
<linearGradient id="paint1_linear" x1="20" y1="7.27271" x2="20" y2="27.2727" gradientUnits="userSpaceOnUse">
<stop stop-color="white"/>
<stop offset="1" stop-color="white" stop-opacity="0"/>
</linearGradient>
</defs>
</svg>
