<svg viewBox="0 0 40 40" fill="none" xmlns="http://www.w3.org/2000/svg">
<path d="M10.945 27.2727C7.15366 27.2727 4.54541 24.9267 4.54541 21.5453C4.54541 18.8848 6.27976 16.7222 8.90145 15.9752C9.37201 11.0473 13.5936 7.27271 18.6219 7.27271C22.4536 7.27271 25.6131 9.1862 27.3474 12.5807C31.9589 12.5414 35.4545 15.7 35.4545 19.907C35.4545 24.0486 32.0799 27.2727 27.7104 27.2727H10.945Z" fill="#CAE6FA"/>
<path d="M10.945 27.2727C7.15366 27.2727 4.54541 24.9267 4.54541 21.5453C4.54541 18.8848 6.27976 16.7222 8.90145 15.9752C9.37201 11.0473 13.5936 7.27271 18.6219 7.27271C22.4536 7.27271 25.6131 9.1862 27.3474 12.5807C31.9589 12.5414 35.4545 15.7 35.4545 19.907C35.4545 24.0486 32.0799 27.2727 27.7104 27.2727H10.945Z" fill="url(#paint0_linear)" fill-opacity="0.5"/>
<path d="M14.5454 36.3637L16.3636 33.1819" stroke="#63A1FF" stroke-width="1.81818" stroke-linecap="round" stroke-linejoin="round"/>
<path d="M14.5454 36.3637L16.3636 33.1819" stroke="url(#paint1_linear)" stroke-opacity="0.2" stroke-width="1.81818" stroke-linecap="round" stroke-linejoin="round"/>
<path d="M23.6363 30L21.8181 33.1818" stroke="#63A1FF" stroke-width="1.81818" stroke-linecap="round" stroke-linejoin="round"/>
<path d="M23.6363 30L21.8181 33.1818" stroke="url(#paint2_linear)" stroke-opacity="0.2" stroke-width="1.81818" stroke-linecap="round" stroke-linejoin="round"/>
<path fill-rule="evenodd" clip-rule="evenodd" d="M30.2029 37.6235C30.5302 37.6235 30.7593 37.3214 30.7266 36.969L30.5793 35.3749L31.8723 36.3146C32.1341 36.516 32.5106 36.4489 32.6906 36.1636C32.8706 35.8783 32.7561 35.4756 32.4124 35.3078L31.0048 34.6534L32.4287 33.9486C32.7561 33.7976 32.8543 33.4116 32.707 33.1264C32.5433 32.8411 32.1341 32.774 31.8723 32.9754L30.5957 33.915L30.743 32.3209C30.7757 31.9518 30.5302 31.6665 30.2029 31.6665C29.8264 31.6665 29.6137 31.9518 29.63 32.3209L29.761 33.915L28.4844 32.9754C28.2225 32.774 27.846 32.8243 27.666 33.1264C27.5023 33.4116 27.6005 33.7808 27.9443 33.9486L29.3518 34.6366L27.9279 35.3246C27.6005 35.4756 27.486 35.8615 27.6496 36.1636C27.8133 36.4656 28.2225 36.516 28.4844 36.3146L29.761 35.3917L29.6464 36.969C29.6137 37.3214 29.8264 37.6235 30.2029 37.6235Z" fill="#63A1FF"/>
<path fill-rule="evenodd" clip-rule="evenodd" d="M30.2029 37.6235C30.5302 37.6235 30.7593 37.3214 30.7266 36.969L30.5793 35.3749L31.8723 36.3146C32.1341 36.516 32.5106 36.4489 32.6906 36.1636C32.8706 35.8783 32.7561 35.4756 32.4124 35.3078L31.0048 34.6534L32.4287 33.9486C32.7561 33.7976 32.8543 33.4116 32.707 33.1264C32.5433 32.8411 32.1341 32.774 31.8723 32.9754L30.5957 33.915L30.743 32.3209C30.7757 31.9518 30.5302 31.6665 30.2029 31.6665C29.8264 31.6665 29.6137 31.9518 29.63 32.3209L29.761 33.915L28.4844 32.9754C28.2225 32.774 27.846 32.8243 27.666 33.1264C27.5023 33.4116 27.6005 33.7808 27.9443 33.9486L29.3518 34.6366L27.9279 35.3246C27.6005 35.4756 27.486 35.8615 27.6496 36.1636C27.8133 36.4656 28.2225 36.516 28.4844 36.3146L29.761 35.3917L29.6464 36.969C29.6137 37.3214 29.8264 37.6235 30.2029 37.6235Z" fill="url(#paint3_linear)" fill-opacity="0.2"/>
<path fill-rule="evenodd" clip-rule="evenodd" d="M8.38475 34.8962C8.71208 34.8962 8.94122 34.5941 8.90849 34.2417L8.76118 32.6476L10.0542 33.5873C10.316 33.7887 10.6925 33.7216 10.8725 33.4363C11.0525 33.151 10.938 32.7483 10.5943 32.5805L9.18672 31.9261L10.6106 31.2213C10.938 31.0703 11.0362 30.6843 10.8889 30.3991C10.7252 30.1138 10.316 30.0467 10.0542 30.2481L8.77755 31.1878L8.92485 29.5936C8.95759 29.2245 8.71208 28.9392 8.38475 28.9392C8.00831 28.9392 7.79555 29.2245 7.81191 29.5936L7.94285 31.1878L6.66624 30.2481C6.40437 30.0467 6.02793 30.097 5.8479 30.3991C5.68423 30.6843 5.78243 31.0535 6.12614 31.2213L7.53368 31.9093L6.10977 32.5973C5.78243 32.7483 5.66787 33.1343 5.83153 33.4363C5.9952 33.7383 6.40437 33.7887 6.66624 33.5873L7.94285 32.6644L7.82828 34.2417C7.79555 34.5941 8.00831 34.8962 8.38475 34.8962Z" fill="#63A1FF"/>
<defs>
<linearGradient id="paint0_linear" x1="20" y1="7.27271" x2="20" y2="27.2727" gradientUnits="userSpaceOnUse">
<stop stop-color="white"/>
<stop offset="1" stop-color="white" stop-opacity="0"/>
</linearGradient>
<linearGradient id="paint1_linear" x1="15.4545" y1="32.2728" x2="15.4545" y2="37.2728" gradientUnits="userSpaceOnUse">
<stop stop-color="#5200FF"/>
<stop offset="1" stop-color="#5200FF" stop-opacity="0"/>
</linearGradient>
<linearGradient id="paint2_linear" x1="22.7272" y1="29.0909" x2="22.7272" y2="34.0909" gradientUnits="userSpaceOnUse">
<stop stop-color="#5200FF"/>
<stop offset="1" stop-color="#5200FF" stop-opacity="0"/>
</linearGradient>
<linearGradient id="paint3_linear" x1="30.1754" y1="31.6665" x2="30.1754" y2="37.6235" gradientUnits="userSpaceOnUse">
<stop stop-color="white" stop-opacity="0"/>
<stop offset="1" stop-color="white"/>
</linearGradient>
</defs>
</svg>
