<svg viewBox="0 0 41 40" fill="none" xmlns="http://www.w3.org/2000/svg">
<path fill-rule="evenodd" clip-rule="evenodd" d="M33.408 34.3935C33.4408 34.7459 33.2116 35.0479 32.8843 35.0479C32.5079 35.0479 32.2951 34.7459 32.3278 34.3935L32.4424 32.8161L31.1658 33.7391C30.9039 33.9404 30.4948 33.8901 30.3311 33.588C30.1674 33.286 30.282 32.9 30.6093 32.749L32.0332 32.061L30.6257 31.373C30.282 31.2052 30.1838 30.8361 30.3475 30.5508C30.5275 30.2488 30.9039 30.1984 31.1658 30.3998L32.4424 31.3395L32.3115 29.7454C32.2951 29.3762 32.5079 29.0909 32.8843 29.0909C33.2116 29.0909 33.4571 29.3762 33.4244 29.7454L33.2771 31.3395L34.5537 30.3998C34.8156 30.1984 35.2248 30.2656 35.3884 30.5508C35.5357 30.8361 35.4375 31.222 35.1102 31.373L33.6863 32.0778L35.0938 32.7322C35.4375 32.9 35.5521 33.3028 35.3721 33.588C35.192 33.8733 34.8156 33.9404 34.5537 33.7391L33.2607 32.7994L33.408 34.3935ZM15.2736 34.3935C15.3064 34.7459 15.0772 35.0479 14.7499 35.0479C14.3735 35.0479 14.1607 34.7459 14.1934 34.3935L14.3244 32.8162L13.0314 33.7391C12.7695 33.9404 12.3603 33.8901 12.1967 33.5881C12.033 33.286 12.1476 32.9001 12.4913 32.7491L13.8988 32.0611L12.4913 31.3731C12.1476 31.2053 12.0494 30.8361 12.213 30.5509C12.3931 30.2488 12.7695 30.1985 13.0314 30.3998L14.3244 31.3395L14.1771 29.7454C14.1607 29.3762 14.3735 29.091 14.7499 29.091C15.0772 29.091 15.3227 29.3762 15.29 29.7454L15.1427 31.3395L16.4193 30.3998C16.6812 30.1985 17.0903 30.2656 17.254 30.5509C17.4013 30.8361 17.3031 31.2221 16.9758 31.3731L15.5519 32.0778L16.9594 32.7323C17.3031 32.9001 17.4177 33.3028 17.2376 33.5881C17.074 33.8733 16.6812 33.9404 16.4193 33.7391L15.1263 32.7994L15.2736 34.3935Z" fill="#63A1FF"/>
<path d="M23.817 39.0909C24.1444 39.0909 24.3735 38.7888 24.3408 38.4364L24.1935 36.8423L25.4864 37.782C25.7483 37.9834 26.1411 37.9163 26.3048 37.631C26.4848 37.3457 26.3702 36.943 26.0265 36.7752L24.619 36.1208L26.0429 35.416C26.3702 35.265 26.4684 34.879 26.3211 34.5938C26.1575 34.3085 25.7483 34.2414 25.4864 34.4428L24.2098 35.3825L24.3571 33.7883C24.3899 33.4192 24.1444 33.1339 23.817 33.1339C23.4406 33.1339 23.2278 33.4192 23.2442 33.7883L23.3751 35.3825L22.0985 34.4428C21.8367 34.2414 21.4602 34.2917 21.2802 34.5938C21.1165 34.879 21.2147 35.2482 21.5584 35.416L22.966 36.104L21.5584 36.792C21.2147 36.943 21.1001 37.329 21.2638 37.631C21.4275 37.933 21.8367 37.9834 22.0985 37.782L23.3751 36.8591L23.2606 38.4364C23.2278 38.7888 23.4406 39.0909 23.817 39.0909Z" fill="#96C0FF"/>
<path d="M5.48378 39.098C5.81111 39.098 6.04025 38.7959 6.00751 38.4435L5.86021 36.8494L7.15319 37.7891C7.41506 37.9905 7.80786 37.9233 7.97153 37.6381C8.15156 37.3528 8.03699 36.9501 7.69329 36.7823L6.28575 36.1279L7.70966 35.4231C8.03699 35.2721 8.13519 34.8861 7.98789 34.6009C7.82423 34.3156 7.41506 34.2485 7.15319 34.4498L5.87658 35.3895L6.02388 33.7954C6.05662 33.4263 5.81111 33.141 5.48378 33.141C5.10734 33.141 4.89457 33.4263 4.91094 33.7954L5.04188 35.3895L3.76527 34.4498C3.5034 34.2485 3.12696 34.2988 2.94693 34.6009C2.78326 34.8861 2.88146 35.2553 3.22516 35.4231L4.63271 36.1111L3.22516 36.7991C2.88146 36.9501 2.76689 37.336 2.93056 37.6381C3.09423 37.9401 3.5034 37.9905 3.76527 37.7891L5.04188 36.8662L4.92731 38.4435C4.89457 38.7959 5.10734 39.098 5.48378 39.098Z" fill="#96C0FF"/>
<path d="M11.6701 27.2727C7.87876 27.2727 5.27051 24.9267 5.27051 21.5453C5.27051 18.8848 7.00486 16.7222 9.62655 15.9752C10.0971 11.0473 14.3187 7.27271 19.347 7.27271C23.1787 7.27271 26.3382 9.1862 28.0725 12.5807C32.684 12.5414 36.1796 15.7 36.1796 19.907C36.1796 24.0486 32.805 27.2727 28.4355 27.2727H11.6701Z" fill="#CAE6FA"/>
<path d="M11.6701 27.2727C7.87876 27.2727 5.27051 24.9267 5.27051 21.5453C5.27051 18.8848 7.00486 16.7222 9.62655 15.9752C10.0971 11.0473 14.3187 7.27271 19.347 7.27271C23.1787 7.27271 26.3382 9.1862 28.0725 12.5807C32.684 12.5414 36.1796 15.7 36.1796 19.907C36.1796 24.0486 32.805 27.2727 28.4355 27.2727H11.6701Z" fill="url(#paint0_linear)" fill-opacity="0.5"/>
<defs>
<linearGradient id="paint0_linear" x1="20.7251" y1="7.27271" x2="20.7251" y2="27.2727" gradientUnits="userSpaceOnUse">
<stop stop-color="white"/>
<stop offset="1" stop-color="white" stop-opacity="0"/>
</linearGradient>
</defs>
</svg>
