<svg width="24" height="24" viewBox="0 0 24 24" fill="none" xmlns="http://www.w3.org/2000/svg">
<path d="M9.55469 5.79595H12.5659C13.4467 5.79595 14.1607 5.06556 14.1607 4.16458C14.1607 3.26359 13.4467 2.5332 12.5659 2.5332C11.8805 2.5332 11.296 2.97548 11.0705 3.59625" stroke="#2696FF" stroke-width="1.15556" stroke-linecap="round" stroke-linejoin="round"/>
<path d="M6.71094 8.49925H19.2426C20.444 8.49925 21.418 7.5254 21.418 6.32409C21.418 5.12278 20.444 4.14893 19.2426 4.14893C18.3076 4.14893 17.5104 4.73863 17.2028 5.56633" stroke="#2696FF" stroke-width="1.15556" stroke-linecap="round" stroke-linejoin="round"/>
<path d="M13.4668 11.3334H18.0063C18.8821 11.3334 19.592 12.0638 19.592 12.9648C19.592 13.8658 18.8821 14.5962 18.0063 14.5962C17.3248 14.5962 16.7437 14.1539 16.5194 13.5331" stroke="#2696FF" stroke-width="1.15556" stroke-linecap="round" stroke-linejoin="round"/>
<path fill-rule="evenodd" clip-rule="evenodd" d="M8.85374 12.0324C12.5362 13.526 13.3583 16.2444 13.5228 17.4616L13.5479 17.6881C13.695 19.4106 11.9999 21.2124 7.81846 20.1342L7.59011 20.0425C3.4012 18.3244 1.83023 13.3738 1.40931 11.6972C1.33488 11.4008 1.55736 11.128 1.86305 11.1278C3.17293 11.1271 6.41655 11.2059 8.62681 11.9432L8.85374 12.0324Z" fill="#5FE15F"/>
<path d="M14.4824 22.074C14.4824 22.074 13.1888 19.7941 11.1365 17.7616C9.08427 15.7292 6.52951 14.1919 6.52951 14.1919" stroke="#32BD3C" stroke-width="0.8" stroke-linecap="round"/>
</svg>
