<svg width="24" height="24" viewBox="0 0 24 24" fill="none" xmlns="http://www.w3.org/2000/svg">
<path fill-rule="evenodd" clip-rule="evenodd" d="M2.58118 5.22901C1.47546 7.02257 1.69993 9.34348 3.13258 10.9304C4.56523 12.5174 6.86386 12.9913 8.77926 12.0946C8.83945 12.0651 8.87512 12.002 8.86941 11.9351C8.86369 11.8681 8.81775 11.8107 8.75327 11.79C7.04187 11.196 5.79577 9.70253 5.5273 7.92371C5.25882 6.1449 6.01329 4.38093 7.48051 3.35707C7.53566 3.31974 7.56218 3.25263 7.54765 3.18721C7.53312 3.12178 7.48042 3.071 7.41424 3.05866C5.49603 2.73687 3.58854 3.59345 2.58118 5.22901Z" fill="url(#paint0_linear_5930_9928)"/>
<path fill-rule="evenodd" clip-rule="evenodd" d="M16.9136 1.65918C16.6451 1.65918 16.4146 1.83921 16.342 2.10879L16.3272 2.178L16.3223 2.25049V3.47011C16.3223 3.79669 16.587 4.06143 16.9136 4.06143C17.1821 4.06143 17.4126 3.8814 17.4852 3.61182L17.5 3.54261L17.5049 3.47011V2.25049C17.5049 1.92392 17.2402 1.65918 16.9136 1.65918ZM12.983 3.26435L12.9576 3.26747L12.879 3.28186C12.6722 3.33598 12.5108 3.49743 12.4567 3.70417C12.4183 3.85077 12.4379 4.00511 12.519 4.14871L12.5647 4.21953L12.6144 4.27574L13.4769 5.13828C13.5878 5.24919 13.7382 5.31151 13.8951 5.31154C14.1341 5.31149 14.3495 5.1676 14.4411 4.94688C14.5093 4.78265 14.4993 4.59837 14.4079 4.43118L14.3637 4.36068L14.3134 4.30244L13.454 3.44311C13.3488 3.33411 13.2067 3.27065 13.0579 3.2633L12.983 3.26435ZM20.591 7.73879C20.591 7.41222 20.8557 7.14748 21.1823 7.14748H22.4019L22.4744 7.1524L22.5436 7.16718C22.8132 7.23976 22.9932 7.47026 22.9932 7.73879C22.9932 8.06536 22.7285 8.3301 22.4019 8.3301H21.1823L21.1098 8.32519L21.0406 8.3104C20.771 8.23783 20.591 8.00732 20.591 7.73879ZM11.4253 7.14748C11.0987 7.14748 10.834 7.41222 10.834 7.73879C10.834 8.00732 11.014 8.23783 11.2836 8.3104L11.3528 8.32519L11.4253 8.3301H12.6449C12.9715 8.3301 13.2362 8.06536 13.2362 7.73879C13.2362 7.47026 13.0562 7.23976 12.7866 7.16718L12.7174 7.1524L12.6449 7.14748H11.4253ZM13.6225 10.2342C13.8473 10.1191 14.1259 10.1589 14.3097 10.3427C14.5378 10.5708 14.541 10.9396 14.3169 11.1716L13.4508 12.0377L13.3977 12.0843L13.3262 12.1309C13.2304 12.1856 13.1327 12.2109 13.0328 12.2109C12.7936 12.2109 12.578 12.0668 12.4865 11.8459C12.395 11.625 12.4456 11.3707 12.6146 11.2016L13.4772 10.339L13.5421 10.2845L13.5626 10.2694L13.6225 10.2342ZM20.3464 10.3355C20.1144 10.1114 19.7456 10.1146 19.5175 10.3427C19.3337 10.5265 19.2939 10.8051 19.4206 11.0457L19.4593 11.1103L19.5138 11.1751L20.3729 12.0342C20.5213 12.1879 20.7412 12.2495 20.9479 12.1954C21.1547 12.1413 21.3161 11.9798 21.3702 11.7731C21.4086 11.6265 21.3889 11.4722 21.3078 11.3286L21.2622 11.2577L21.2125 11.2015L20.3464 10.3355ZM16.9136 11.4162C16.6451 11.4162 16.4146 11.5962 16.342 11.8658L16.3272 11.935L16.3223 12.0075V13.2271C16.3223 13.5537 16.587 13.8184 16.9136 13.8184C17.1821 13.8184 17.4126 13.6384 17.4852 13.3688L17.5 13.2996L17.5049 13.2271V12.0075C17.5049 11.6809 17.2402 11.4162 16.9136 11.4162ZM20.5216 3.33507C20.7464 3.21999 21.025 3.25977 21.2088 3.44358C21.4369 3.67167 21.4401 4.04047 21.216 4.27249L20.3499 5.13862L20.2851 5.19304L20.2206 5.23175C19.9799 5.35849 19.7013 5.31872 19.5175 5.13491C19.2894 4.90682 19.2862 4.53801 19.5103 4.30599L20.3763 3.43987L20.4411 3.38544L20.4617 3.37031L20.5216 3.33507ZM16.9136 10.7878C15.2297 10.7878 13.8645 9.42274 13.8645 7.73879C13.8645 6.05484 15.2297 4.68974 16.9136 4.68974C18.5975 4.68974 19.9627 6.05484 19.9627 7.73879C19.9627 9.42274 18.5975 10.7878 16.9136 10.7878Z" fill="url(#paint1_linear_5930_9928)"/>
<path fill-rule="evenodd" clip-rule="evenodd" d="M6.17819 17C5.82577 17 5.48631 17.1329 5.22759 17.3722L1.22758 21.0718C0.870065 21.4025 1.10403 22 1.59101 22H22.4079C22.8949 22 23.1289 21.4025 22.7714 21.0718L18.7713 17.3722C18.5126 17.1329 18.1732 17 17.8207 17H6.17819ZM17.8804 18.1044C17.6453 17.945 17.1995 17.9121 16.8846 18.0312L12.1875 19.8059L7.4903 18.0312L7.38094 17.9971C7.07891 17.921 6.70346 17.9627 6.49457 18.1044C6.25957 18.2639 6.32435 18.4897 6.63928 18.6087L11.762 20.5446L11.8753 20.5797C12.1114 20.6381 12.3966 20.6264 12.613 20.5446L17.7356 18.6087L17.8313 18.5653C18.0613 18.4403 18.0892 18.2462 17.8804 18.1044Z" fill="url(#paint2_linear_5930_9928)"/>
<defs>
<linearGradient id="paint0_linear_5930_9928" x1="2.61312" y1="10.485" x2="8.26137" y2="14.6001" gradientUnits="userSpaceOnUse">
<stop stop-color="#FFD13C"/>
<stop offset="1" stop-color="#FF8355"/>
</linearGradient>
<linearGradient id="paint1_linear_5930_9928" x1="14.4552" y1="9.5448" x2="19.8164" y2="14.4615" gradientUnits="userSpaceOnUse">
<stop stop-color="#FFD13C"/>
<stop offset="1" stop-color="#FF8355"/>
</linearGradient>
<linearGradient id="paint2_linear_5930_9928" x1="-0.640737" y1="17.6437" x2="-0.640737" y2="23.4183" gradientUnits="userSpaceOnUse">
<stop stop-color="#FFD13C" stop-opacity="0.2"/>
<stop offset="1" stop-color="#FFD13C" stop-opacity="0.5"/>
</linearGradient>
</defs>
</svg>
