<svg width="24" height="24" viewBox="0 0 24 24" fill="none" xmlns="http://www.w3.org/2000/svg">
<mask id="mask0_5930_9912" style="mask-type:alpha" maskUnits="userSpaceOnUse" x="0" y="0" width="24" height="24">
<path d="M24 0H0V24H24V0Z" fill="white"/>
</mask>
<g mask="url(#mask0_5930_9912)">
<path opacity="0.5" d="M12.7933 8.40132L7.97348 16.7495C7.49853 17.5721 6.67847 17.8546 5.80001 17.3474C4.92154 16.8402 4.75612 15.9888 5.23107 15.1661C5.41845 14.8416 5.30725 14.4266 4.98269 14.2392C4.65814 14.0518 4.24313 14.163 4.05575 14.4876C3.22554 15.9255 3.55436 17.6179 5.12144 18.5227C6.68852 19.4275 8.3186 18.866 9.1488 17.4281L13.9686 9.07989C14.156 8.75534 14.0448 8.34033 13.7202 8.15295C13.3957 7.96557 12.9807 8.07677 12.7933 8.40132Z" fill="#639CED"/>
<path fill-rule="evenodd" clip-rule="evenodd" d="M19.3609 16.3629C19.4283 16.2172 19.4829 16.0905 19.5247 15.9829C21.1115 11.8935 19.5252 7.14572 15.6084 4.88434C11.4999 2.51228 6.30422 3.72879 3.65097 7.56134C3.57959 7.66444 3.60531 7.80589 3.70841 7.87726C3.76487 7.91635 3.83598 7.92778 3.90185 7.90836C4.72491 7.66575 5.62925 7.82896 6.6149 8.39802C7.58011 8.95528 8.16928 9.63962 8.38241 10.451L8.38236 10.451C8.47176 10.7914 8.82014 10.9948 9.16049 10.9054C9.16381 10.9046 9.16713 10.9036 9.17044 10.9027C9.97073 10.6786 10.8601 10.849 11.8385 11.4139C12.8132 11.9766 13.4046 12.6585 13.6129 13.4595L13.6129 13.4595C13.7014 13.8001 14.0492 14.0044 14.3898 13.9158C14.3934 13.9149 14.397 13.9139 14.4006 13.9129C15.1946 13.6915 16.0818 13.8637 17.0622 14.4298C17.9816 14.9606 18.5602 15.5936 18.7978 16.3288L18.7978 16.3288C18.8492 16.488 19.02 16.5753 19.1792 16.5239C19.2595 16.4979 19.3254 16.4395 19.3609 16.3629Z" fill="#3C83E8"/>
<path d="M17.5 11C19.9853 11 22 8.98528 22 6.5C22 4.01472 19.9853 2 17.5 2C15.0147 2 13 4.01472 13 6.5C13 8.98528 15.0147 11 17.5 11Z" fill="#FF1E1E"/>
<path d="M19.1163 4.7002H15.8837C15.5337 4.7002 15.25 4.98393 15.25 5.33395V7.66645C15.25 8.01646 15.5337 8.3002 15.8837 8.3002H19.1163C19.4663 8.3002 19.75 8.01646 19.75 7.66645V5.33395C19.75 4.98393 19.4663 4.7002 19.1163 4.7002Z" fill="white"/>
<path d="M15.8789 5.32812L17.4989 6.53701L19.1189 5.32812" stroke="#FF1E1E" stroke-width="0.635706" stroke-linecap="round" stroke-linejoin="round"/>
</g>
</svg>
