<svg width="24" height="24" viewBox="0 0 24 24" fill="none" xmlns="http://www.w3.org/2000/svg">
<path fill-rule="evenodd" clip-rule="evenodd" d="M10.8721 2.63703L1.01199 19.0135C0.746077 19.4551 0.7714 19.99 1.03228 20.3963C1.13833 20.5615 1.28331 20.7054 1.46347 20.8131C1.66803 20.9354 1.90211 21 2.14068 21H21.8609C22.5879 21 23.1772 20.4127 23.1772 19.6883C23.1772 19.4506 23.1123 19.2173 22.9896 19.0135L13.1295 2.63703C12.7555 2.01584 11.9469 1.81441 11.3236 2.18712C11.1383 2.29789 10.9833 2.45241 10.8721 2.63703Z" fill="#5855FF"/>
<path fill-rule="evenodd" clip-rule="evenodd" d="M14.5326 12.1116C14.8063 12.1116 14.8845 12.4196 14.6792 12.6506L10.2707 17.5234C10.1632 17.6444 10.0654 17.6664 9.96767 17.6334C9.8797 17.5894 9.85037 17.4684 9.90902 17.3254L11.1798 13.8606H9.49847C9.24432 13.8606 9.14657 13.6846 9.24432 13.4206L10.5248 10.1647C10.6128 9.94473 10.7008 9.82373 10.9745 9.82373H13.1934C13.4085 9.82373 13.4964 10.0107 13.3791 10.2417L12.5092 12.1116H14.5326Z" fill="white"/>
</svg>
