<svg width="24" height="25" viewBox="0 0 24 25" fill="none" xmlns="http://www.w3.org/2000/svg">
<path fill-rule="evenodd" clip-rule="evenodd" d="M11.9999 3.41296C11.6023 3.41296 11.2611 3.67947 11.1537 4.07855L11.1318 4.181L11.1245 4.28832V6.09379C11.1245 6.57723 11.5164 6.96914 11.9999 6.96914C12.3974 6.96914 12.7386 6.70263 12.846 6.30356L12.8679 6.2011L12.8752 6.09379V4.28832C12.8752 3.80487 12.4833 3.41296 11.9999 3.41296ZM6.18115 5.78904L6.14354 5.79365L6.02712 5.81496C5.72107 5.89507 5.48206 6.13408 5.40195 6.44013C5.34515 6.65715 5.37423 6.88562 5.49429 7.09821L5.56193 7.20305L5.6354 7.28625L6.91228 8.56312C7.0764 8.72729 7.29901 8.81955 7.53133 8.8196C7.8851 8.81953 8.20404 8.60652 8.33964 8.27978C8.44054 8.03665 8.42579 7.76385 8.29049 7.51636L8.2251 7.412L8.15061 7.32578L6.87841 6.05366C6.72256 5.8923 6.51227 5.79836 6.29195 5.78748L6.18115 5.78904ZM17.4436 12.4129C17.4436 11.9295 17.8355 11.5375 18.319 11.5375H20.1244L20.2318 11.5448L20.3342 11.5667C20.7333 11.6742 20.9998 12.0154 20.9998 12.4129C20.9998 12.8963 20.6079 13.2883 20.1244 13.2883H18.319L18.2117 13.281L18.1092 13.2591C17.7101 13.1516 17.4436 12.8104 17.4436 12.4129ZM3.87532 11.5375C3.39188 11.5375 2.99997 11.9295 2.99997 12.4129C2.99997 12.8104 3.26648 13.1516 3.66555 13.2591L3.76801 13.281L3.87532 13.2883H5.68079C6.16424 13.2883 6.55615 12.8963 6.55615 12.4129C6.55615 12.0154 6.28964 11.6742 5.89056 11.5667L5.78811 11.5448L5.68079 11.5375H3.87532ZM17.0815 16.2569C16.7381 15.9252 16.1921 15.9299 15.8544 16.2676C15.5823 16.5397 15.5235 16.9521 15.7111 17.3084L15.7684 17.404L15.849 17.4999L17.1207 18.7716C17.3405 18.9991 17.6659 19.0904 17.972 19.0103C18.278 18.9302 18.5171 18.6912 18.5972 18.3851C18.654 18.1681 18.6249 17.9396 18.5048 17.727L18.4372 17.6222L18.3637 17.539L17.0815 16.2569ZM11.9999 17.8566C11.6023 17.8566 11.2611 18.1231 11.1537 18.5222L11.1318 18.6247L11.1245 18.732V20.5374C11.1245 21.0209 11.5164 21.4128 11.9999 21.4128C12.3974 21.4128 12.7386 21.1463 12.846 20.7472L12.8679 20.6448L12.8752 20.5374V18.732C12.8752 18.2485 12.4833 17.8566 11.9999 17.8566ZM7.12793 16.107C7.46074 15.9366 7.8732 15.9955 8.1453 16.2676C8.48296 16.6053 8.4877 17.1512 8.15597 17.4947L6.87388 18.7769L6.79515 18.8458L6.68933 18.9148C6.54753 18.9958 6.40287 19.0333 6.25496 19.0333C5.90088 19.0332 5.58179 18.82 5.44633 18.4929C5.31087 18.1659 5.38573 17.7894 5.636 17.5391L6.91296 16.2621L7.0089 16.1815L7.0393 16.1591L7.12793 16.107ZM17.3409 5.89411C17.6737 5.72375 18.0862 5.78263 18.3583 6.05473C18.696 6.39239 18.7007 6.93835 18.369 7.28182L17.0869 8.56399L16.9909 8.64456L16.8953 8.70187C16.5391 8.88948 16.1266 8.8306 15.8545 8.5585C15.5169 8.22084 15.5121 7.67488 15.8439 7.33141L17.126 6.04924L17.2219 5.96867L17.2523 5.94626L17.3409 5.89411ZM11.9999 16.413C9.79076 16.413 7.9999 14.6221 7.9999 12.413C7.9999 10.2038 9.79076 8.41296 11.9999 8.41296C14.2091 8.41296 15.9999 10.2038 15.9999 12.413C15.9999 14.6221 14.2091 16.413 11.9999 16.413Z" fill="url(#paint0_linear_6853_14266)"/>
<defs>
<linearGradient id="paint0_linear_6853_14266" x1="8.36068" y1="15.0864" x2="16.2971" y2="22.3648" gradientUnits="userSpaceOnUse">
<stop stop-color="#FFD13C"/>
<stop offset="1" stop-color="#FF8355"/>
</linearGradient>
</defs>
</svg>
