<svg width="24" height="24" viewBox="0 0 24 24" fill="none" xmlns="http://www.w3.org/2000/svg">
<path fill-rule="evenodd" clip-rule="evenodd" d="M18.9135 11.6815L18.8957 11.4666L18.8803 11.3249C18.6458 9.34166 17.7156 8.42189 17.0107 7.7248C16.6048 7.32348 16.2736 6.99597 16.1927 6.58183C15.8813 4.9871 18.715 3.99899 20.6596 3.45556L20.9267 3.38205C21.0261 3.35558 21.0226 3.21507 20.9216 3.19529C20.8849 3.18809 20.8504 3.18156 20.8207 3.1763C15.151 2.17443 4.63177 5.47191 5.08652 12.3185L5.1043 12.5334L5.11968 12.6751C5.35416 14.6583 6.28433 15.5781 6.98931 16.2752C7.39517 16.6765 7.72639 17.004 7.80727 17.4182C8.11871 19.0129 5.28497 20.001 3.34042 20.5444L3.07324 20.618C2.97375 20.6444 2.97724 20.7851 3.07828 20.8049C3.10829 20.8107 3.13646 20.8161 3.16118 20.8205C8.82646 21.8326 19.3687 18.5354 18.9135 11.6815ZM12.0001 14.25C13.2865 14.25 14.3294 13.2426 14.3294 12C14.3294 10.7574 13.2865 9.75 12.0001 9.75C10.7136 9.75 9.67076 10.7574 9.67076 12C9.67076 13.2426 10.7136 14.25 12.0001 14.25Z" fill="url(#paint0_linear_3779_218087)"/>
<defs>
<linearGradient id="paint0_linear_3779_218087" x1="3.00049" y1="3" x2="3.00049" y2="21" gradientUnits="userSpaceOnUse">
<stop stop-color="#FF3E3E"/>
<stop offset="1" stop-color="#FF1E1E"/>
</linearGradient>
</defs>
</svg>
