<svg width="24" height="24" viewBox="0 0 24 24" fill="none" xmlns="http://www.w3.org/2000/svg">
<mask id="mask0_4404_207604" style="mask-type:alpha" maskUnits="userSpaceOnUse" x="2" y="2" width="20" height="20">
<path d="M12 2C12.6447 2 13.2752 2.06102 13.886 2.17759C11.9615 5.25762 11 7.4893 11 8.8739C11 11.6084 13.2386 13.9761 16 13.9761C18.7614 13.9761 21 11.6084 21 8.8739C21 8.31292 20.8422 7.61289 20.5265 6.77382C21.4613 8.29421 22 10.0842 22 12C22 17.5228 17.5228 22 12 22C6.47715 22 2 17.5228 2 12C2 6.47715 6.47715 2 12 2Z" fill="white"/>
</mask>
<g mask="url(#mask0_4404_207604)">
<path opacity="0.6" fill-rule="evenodd" clip-rule="evenodd" d="M19.4531 5.32688C17.5545 3.20406 14.8437 1.99393 12.0006 2.00002H11.9869C11.9781 2.00002 11.9769 2.00002 11.9675 2.00002H11.985H11.9738C9.13958 2.00463 6.4409 3.2173 4.55073 5.33565L4.94188 5.68914L4.54948 5.33565C1.15017 9.12527 1.15017 14.8772 4.54948 18.6668C6.43951 20.7832 9.13674 21.9948 11.9694 21.9999H12.0006C15.9394 22.0125 19.5161 19.6973 21.1275 16.0922C22.7389 12.4871 22.0827 8.26827 19.4531 5.32688ZM8.40409 4.13917C8.6867 4.00992 8.976 3.89589 9.27074 3.79759C8.64797 4.57487 8.16196 5.45302 7.83361 6.39425C7.21463 6.23315 6.6105 6.01928 6.02784 5.75495C6.72422 5.08651 7.52772 4.5403 8.40471 4.13917H8.40409ZM5.3074 6.5384C6.01585 6.8875 6.75724 7.16485 7.52057 7.36635C7.15148 8.71027 6.94979 10.0949 6.9201 11.4885H3.37791C3.48509 9.67568 4.16062 7.94316 5.30803 6.5384H5.3074ZM3.37791 12.5039H6.92073C6.95037 13.8963 7.15206 15.2797 7.5212 16.6223C6.75789 16.8236 6.0165 17.1008 5.30803 17.4496C4.16061 16.0466 3.48502 14.3154 3.37791 12.5039ZM8.40159 19.8413C7.52538 19.4404 6.72271 18.8944 6.02722 18.2262C6.60997 17.9619 7.21407 17.7479 7.83299 17.5863C8.1612 18.5277 8.64722 19.4061 9.27011 20.1836C8.97569 20.0853 8.6868 19.971 8.40471 19.8413H8.40159ZM11.4714 20.5515C10.9547 20.3788 10.4959 20.0657 10.1461 19.647C9.57302 18.9704 9.12659 18.1954 8.82835 17.3594C9.70036 17.1939 10.5842 17.0992 11.4714 17.0761V20.5521V20.5515ZM11.4714 16.0601C10.4758 16.0859 9.48422 16.1962 8.50719 16.3898C8.15649 15.1233 7.96381 13.818 7.93359 12.5039H11.4714V16.0601ZM11.4714 11.4885H7.93921C7.96955 10.1726 8.16221 8.86546 8.51281 7.597C9.49001 7.78866 10.4816 7.89706 11.477 7.92103V11.4885H11.4714ZM11.4714 6.90506C10.5844 6.88194 9.70078 6.78721 8.82898 6.62176C9.12685 5.78588 9.57286 5.01087 10.1455 4.33409C10.4953 3.91509 10.9544 3.60195 11.4714 3.42968V6.90506ZM20.6109 11.4885H17.0474C17.0179 10.0966 16.8169 8.71375 16.4488 7.37136C17.2209 7.17041 17.9708 6.89176 18.687 6.53966C19.833 7.94443 20.5072 9.6765 20.6134 11.4885H20.6109ZM15.5766 4.13478C16.4573 4.53596 17.264 5.08352 17.9628 5.75433C17.3725 6.02126 16.7607 6.23743 16.1339 6.40051C15.8039 5.45173 15.3135 4.56699 14.6843 3.78505C14.989 3.88481 15.288 4.00156 15.5797 4.13478H15.5766ZM12.4868 3.42968C13.0035 3.60125 13.4626 3.9135 13.8127 4.33159C14.3873 5.01042 14.8346 5.78803 15.1329 6.62677C14.26 6.7907 13.3753 6.88396 12.4874 6.90568V3.42968H12.4868ZM12.4868 7.92166C13.4833 7.89878 14.4761 7.79185 15.4547 7.60201C15.805 8.86862 15.9976 10.1738 16.0283 11.4879H12.4899V7.92103L12.4868 7.92166ZM12.4868 12.5039H16.0283C15.9977 13.8163 15.8051 15.1199 15.4547 16.3848C14.4763 16.193 13.4834 16.0842 12.4868 16.0595V12.5039ZM12.4868 20.5515V17.0755C13.3748 17.0972 14.2598 17.1905 15.1329 17.3544C14.8346 18.1931 14.3873 18.9707 13.8127 19.6496C13.4635 20.0674 13.0056 20.3798 12.4899 20.5521L12.4868 20.5515ZM15.5766 19.8464C15.286 19.9795 14.9881 20.0961 14.6843 20.1955C15.3137 19.4139 15.8041 18.5293 16.1339 17.5806C16.7606 17.7438 17.3724 17.9598 17.9628 18.2262C17.2651 18.8971 16.4594 19.4448 15.5797 19.8464H15.5766ZM18.6839 17.4484C17.9675 17.0965 17.2177 16.8179 16.4457 16.6167C16.8115 15.2753 17.0125 13.8942 17.0443 12.5039H20.6109C20.5053 14.3144 19.8317 16.0451 18.6864 17.4484H18.6839Z" fill="#FF8E1F"/>
<path fill-rule="evenodd" clip-rule="evenodd" d="M12.0263 2.00001C17.5457 2.01454 22.0096 6.49811 22 12.0175C21.9903 17.5369 17.5107 22.0048 11.9912 22C6.47183 21.9952 2 17.5194 2 12C2.00349 9.34437 3.06179 6.79886 4.94209 4.9235C6.82239 3.04813 9.37066 1.99652 12.0263 2.00001ZM20.7542 12.0119C20.7459 16.8417 16.8261 20.7515 11.9963 20.7473C7.16645 20.7432 3.25329 16.8267 3.25329 11.9969C3.25628 9.67313 4.18226 7.44573 5.82752 5.8047C7.47278 4.16366 9.70255 3.24342 12.0263 3.2464C16.8561 3.25887 20.7625 7.18208 20.7542 12.0119Z" fill="#FF8E1F"/>
</g>
<g filter="url(#filter0_i_4404_207604)">
<path fill-rule="evenodd" clip-rule="evenodd" d="M16 13C18.2091 13 20 11.1592 20 8.88851C20 7.3747 18.6667 4.41187 16 0C13.3333 4.41187 12 7.3747 12 8.88851C12 11.1592 13.7909 13 16 13Z" fill="url(#paint0_linear_4404_207604)"/>
</g>
<defs>
<filter id="filter0_i_4404_207604" x="11.0817" y="-1.83662" width="8.91831" height="14.8366" filterUnits="userSpaceOnUse" color-interpolation-filters="sRGB">
<feFlood flood-opacity="0" result="BackgroundImageFix"/>
<feBlend mode="normal" in="SourceGraphic" in2="BackgroundImageFix" result="shape"/>
<feColorMatrix in="SourceAlpha" type="matrix" values="0 0 0 0 0 0 0 0 0 0 0 0 0 0 0 0 0 0 127 0" result="hardAlpha"/>
<feOffset dx="-0.91831" dy="-1.83662"/>
<feGaussianBlur stdDeviation="1.37746"/>
<feComposite in2="hardAlpha" operator="arithmetic" k2="-1" k3="1"/>
<feColorMatrix type="matrix" values="0 0 0 0 0.0627451 0 0 0 0 0.494118 0 0 0 0 1 0 0 0 1 0"/>
<feBlend mode="normal" in2="shape" result="effect1_innerShadow_4404_207604"/>
</filter>
<linearGradient id="paint0_linear_4404_207604" x1="16.3232" y1="9.69712" x2="12.6558" y2="-2.08676" gradientUnits="userSpaceOnUse">
<stop stop-color="#2F9BFF"/>
<stop offset="1" stop-color="#ABD7FF"/>
</linearGradient>
</defs>
</svg>
