<svg width="24" height="24" viewBox="0 0 24 24" fill="none" xmlns="http://www.w3.org/2000/svg">
<path fill-rule="evenodd" clip-rule="evenodd" d="M12.4015 21C14.6542 21 18.6917 19.7356 18.9818 15.346C19.2666 11.0378 16.1332 10.182 14.6542 6.10594C14.2638 5.03021 14.3536 3.34636 14.4806 2.20928C14.5446 1.63604 14.0294 1.16798 13.493 1.38027C11.9829 1.97805 9.45613 3.36361 8.76703 6.10594C7.76526 10.0926 9.07241 11.4997 7.67346 11.4997C6.86911 11.4997 6.44617 10.882 6.23195 10.3569C6.15441 10.1668 5.83899 10.1455 5.7747 10.3404C5.2735 11.8602 4.32591 15.4696 5.75514 17.6502C7.6016 20.4673 10.1488 21 12.4015 21Z" fill="#FF5C00"/>
<path fill-rule="evenodd" clip-rule="evenodd" d="M12.4015 21C14.6542 21 18.6917 19.7356 18.9818 15.346C19.2666 11.0378 16.1332 10.182 14.6542 6.10594C14.2638 5.03021 14.3536 3.34636 14.4806 2.20928C14.5446 1.63604 14.0294 1.16798 13.493 1.38027C11.9829 1.97805 9.45613 3.36361 8.76703 6.10594C7.76526 10.0926 9.07241 11.4997 7.67346 11.4997C6.86911 11.4997 6.44617 10.882 6.23195 10.3569C6.15441 10.1668 5.83899 10.1455 5.7747 10.3404C5.2735 11.8602 4.32591 15.4696 5.75514 17.6502C7.6016 20.4673 10.1488 21 12.4015 21Z" fill="url(#paint0_radial_3780_218188)"/>
<path fill-rule="evenodd" clip-rule="evenodd" d="M12.4015 21C14.6542 21 18.6917 19.7356 18.9818 15.346C19.2666 11.0378 16.1332 10.182 14.6542 6.10594C14.2638 5.03021 14.3536 3.34636 14.4806 2.20928C14.5446 1.63604 14.0294 1.16798 13.493 1.38027C11.9829 1.97805 9.45613 3.36361 8.76703 6.10594C7.76526 10.0926 9.07241 11.4997 7.67346 11.4997C6.86911 11.4997 6.44617 10.882 6.23195 10.3569C6.15441 10.1668 5.83899 10.1455 5.7747 10.3404C5.2735 11.8602 4.32591 15.4696 5.75514 17.6502C7.6016 20.4673 10.1488 21 12.4015 21Z" fill="#F32C33"/>
<defs>
<radialGradient id="paint0_radial_3780_218188" cx="0" cy="0" r="1" gradientUnits="userSpaceOnUse" gradientTransform="translate(12.6531 21) rotate(91.9347) scale(19.3444 21.5682)">
<stop stop-color="#FFF494"/>
<stop offset="1" stop-color="#FF7878" stop-opacity="0.01"/>
</radialGradient>
</defs>
</svg>
