<svg viewBox="0 0 40 40" fill="none" xmlns="http://www.w3.org/2000/svg">
<path fill-rule="evenodd" clip-rule="evenodd" d="M8.33568 22.6755C8.66301 22.6755 8.89215 22.3734 8.85941 22.021L8.71211 20.4269L10.0051 21.3666C10.267 21.568 10.6434 21.5009 10.8234 21.2156C11.0035 20.9303 10.8889 20.5276 10.5452 20.3598L9.13765 19.7054L10.5616 19.0006C10.8889 18.8496 10.9871 18.4636 10.8398 18.1784C10.6761 17.8931 10.267 17.826 10.0051 18.0274L8.72848 18.967L8.87578 17.3729C8.90851 17.0038 8.66301 16.7185 8.33568 16.7185C7.95924 16.7185 7.74647 17.0038 7.76284 17.3729L7.89377 18.967L6.61717 18.0274C6.3553 17.826 5.97886 17.8763 5.79883 18.1784C5.63516 18.4636 5.73336 18.8328 6.07706 19.0006L7.4846 19.6886L6.0607 20.3766C5.73336 20.5276 5.61879 20.9136 5.78246 21.2156C5.94613 21.5176 6.3553 21.568 6.61717 21.3666L7.89377 20.4437L7.77921 22.021C7.74647 22.3734 7.95924 22.6755 8.33568 22.6755Z" fill="#C1E5FF"/>
<path fill-rule="evenodd" clip-rule="evenodd" d="M27.3552 30.5925C27.6825 30.5925 27.9117 30.2904 27.8789 29.938L27.7316 28.3439L29.0246 29.2836C29.2865 29.485 29.6629 29.4178 29.843 29.1326C30.023 28.8473 29.9084 28.4446 29.5647 28.2768L28.1572 27.6224L29.5811 26.9176C29.9084 26.7666 30.0066 26.3806 29.8593 26.0954C29.6957 25.8101 29.2865 25.743 29.0246 25.9444L27.748 26.884L27.8953 25.2899C27.928 24.9208 27.6825 24.6355 27.3552 24.6355C26.9788 24.6355 26.766 24.9208 26.7824 25.2899L26.9133 26.884L25.6367 25.9444C25.3748 25.743 24.9984 25.7933 24.8184 26.0954C24.6547 26.3806 24.7529 26.7498 25.0966 26.9176L26.5041 27.6056L25.0802 28.2936C24.7529 28.4446 24.6383 28.8305 24.802 29.1326C24.9657 29.4346 25.3748 29.485 25.6367 29.2836L26.9133 28.3607L26.7987 29.938C26.766 30.2904 26.9788 30.5925 27.3552 30.5925Z" fill="#C1E5FF"/>
<path fill-rule="evenodd" clip-rule="evenodd" d="M3.33325 11.3636C3.33325 10.6105 3.94377 10 4.69689 10H25.3029C26.0561 10 26.6666 10.6105 26.6666 11.3636C26.6666 12.1168 26.0561 12.7273 25.3029 12.7273H4.69689C3.94377 12.7273 3.33325 12.1168 3.33325 11.3636ZM6.66659 28.0302C6.66659 27.2771 7.27711 26.6666 8.03023 26.6666H18.9866C19.7397 26.6666 20.3502 27.2771 20.3502 28.0302C20.3502 28.7833 19.7397 29.3939 18.9866 29.3939H8.03023C7.27711 29.3939 6.66659 28.7833 6.66659 28.0302ZM18.0522 18.3334C17.2991 18.3334 16.6886 18.9439 16.6886 19.697C16.6886 20.4502 17.2991 21.0607 18.0522 21.0607H33.6363C34.3894 21.0607 34.9999 20.4502 34.9999 19.697C34.9999 18.9439 34.3894 18.3334 33.6363 18.3334H18.0522Z" fill="#CAE6FA"/>
<path fill-rule="evenodd" clip-rule="evenodd" d="M3.33325 11.3636C3.33325 10.6105 3.94377 10 4.69689 10H25.3029C26.0561 10 26.6666 10.6105 26.6666 11.3636C26.6666 12.1168 26.0561 12.7273 25.3029 12.7273H4.69689C3.94377 12.7273 3.33325 12.1168 3.33325 11.3636ZM6.66659 28.0302C6.66659 27.2771 7.27711 26.6666 8.03023 26.6666H18.9866C19.7397 26.6666 20.3502 27.2771 20.3502 28.0302C20.3502 28.7833 19.7397 29.3939 18.9866 29.3939H8.03023C7.27711 29.3939 6.66659 28.7833 6.66659 28.0302ZM18.0522 18.3334C17.2991 18.3334 16.6886 18.9439 16.6886 19.697C16.6886 20.4502 17.2991 21.0607 18.0522 21.0607H33.6363C34.3894 21.0607 34.9999 20.4502 34.9999 19.697C34.9999 18.9439 34.3894 18.3334 33.6363 18.3334H18.0522Z" fill="url(#paint0_linear)" fill-opacity="0.25"/>
<defs>
<linearGradient id="paint0_linear" x1="35.4545" y1="20" x2="3.63632" y2="20" gradientUnits="userSpaceOnUse">
<stop stop-color="white"/>
<stop offset="1" stop-color="white" stop-opacity="0"/>
</linearGradient>
</defs>
</svg>
