<svg viewBox="0 0 40 40" fill="none" xmlns="http://www.w3.org/2000/svg">
<path d="M10.945 27.2727C7.15366 27.2727 4.54541 24.9267 4.54541 21.5453C4.54541 18.8848 6.27976 16.7222 8.90145 15.9752C9.37201 11.0473 13.5936 7.27271 18.6219 7.27271C22.4536 7.27271 25.6131 9.1862 27.3474 12.5807C31.9589 12.5414 35.4545 15.7 35.4545 19.907C35.4545 24.0486 32.0799 27.2727 27.7104 27.2727H10.945Z" fill="#CAE6FA"/>
<path d="M10.945 27.2727C7.15366 27.2727 4.54541 24.9267 4.54541 21.5453C4.54541 18.8848 6.27976 16.7222 8.90145 15.9752C9.37201 11.0473 13.5936 7.27271 18.6219 7.27271C22.4536 7.27271 25.6131 9.1862 27.3474 12.5807C31.9589 12.5414 35.4545 15.7 35.4545 19.907C35.4545 24.0486 32.0799 27.2727 27.7104 27.2727H10.945Z" fill="url(#paint0_linear)" fill-opacity="0.5"/>
<path fill-rule="evenodd" clip-rule="evenodd" d="M13.4318 29.9616C13.9262 29.692 14.5666 30.0129 14.5448 30.5194L14.4861 31.8831C14.4562 32.5782 14.0323 33.2154 13.3538 33.5854L12.0225 34.3114C11.5281 34.581 10.8877 34.2601 10.9095 33.7536L10.9682 32.3899C10.9981 31.6948 11.422 31.0576 12.1005 30.6876L13.4318 29.9616ZM7.27205 34.7619C7.29385 34.2554 6.65347 33.9345 6.15903 34.2041L4.82772 34.9301C4.14923 35.3001 3.72537 35.9373 3.69546 36.6324L3.63677 37.9961C3.61498 38.5026 4.25536 38.8235 4.7498 38.5539L6.0811 37.8279C6.75959 37.4579 7.18345 36.8207 7.21336 36.1256L7.27205 34.7619ZM19.9993 34.7619C20.0211 34.2554 19.3807 33.9345 18.8863 34.2041L17.555 34.9301C16.8765 35.3001 16.4526 35.9373 16.4227 36.6324L16.364 37.9961C16.3422 38.5026 16.9826 38.8235 17.4771 38.5539L18.8084 37.8279C19.4869 37.4579 19.9107 36.8207 19.9406 36.1256L19.9993 34.7619ZM27.2721 30.5194C27.2939 30.0129 26.6535 29.692 26.159 29.9616L24.8277 30.6876C24.1492 31.0576 23.7254 31.6948 23.6955 32.3899L23.6368 33.7536C23.615 34.2601 24.2554 34.581 24.7498 34.3114L26.0811 33.5854C26.7596 33.2154 27.1835 32.5782 27.2134 31.8831L27.2721 30.5194Z" fill="#63A1FF"/>
<path fill-rule="evenodd" clip-rule="evenodd" d="M13.4318 29.9616C13.9262 29.692 14.5666 30.0129 14.5448 30.5194L14.4861 31.8831C14.4562 32.5782 14.0323 33.2154 13.3538 33.5854L12.0225 34.3114C11.5281 34.581 10.8877 34.2601 10.9095 33.7536L10.9682 32.3899C10.9981 31.6948 11.422 31.0576 12.1005 30.6876L13.4318 29.9616ZM7.27205 34.7619C7.29385 34.2554 6.65347 33.9345 6.15903 34.2041L4.82772 34.9301C4.14923 35.3001 3.72537 35.9373 3.69546 36.6324L3.63677 37.9961C3.61498 38.5026 4.25536 38.8235 4.7498 38.5539L6.0811 37.8279C6.75959 37.4579 7.18345 36.8207 7.21336 36.1256L7.27205 34.7619ZM19.9993 34.7619C20.0211 34.2554 19.3807 33.9345 18.8863 34.2041L17.555 34.9301C16.8765 35.3001 16.4526 35.9373 16.4227 36.6324L16.364 37.9961C16.3422 38.5026 16.9826 38.8235 17.4771 38.5539L18.8084 37.8279C19.4869 37.4579 19.9107 36.8207 19.9406 36.1256L19.9993 34.7619ZM27.2721 30.5194C27.2939 30.0129 26.6535 29.692 26.159 29.9616L24.8277 30.6876C24.1492 31.0576 23.7254 31.6948 23.6955 32.3899L23.6368 33.7536C23.615 34.2601 24.2554 34.581 24.7498 34.3114L26.0811 33.5854C26.7596 33.2154 27.1835 32.5782 27.2134 31.8831L27.2721 30.5194Z" fill="url(#paint1_linear)" fill-opacity="0.2"/>
<defs>
<linearGradient id="paint0_linear" x1="20" y1="7.27271" x2="20" y2="27.2727" gradientUnits="userSpaceOnUse">
<stop stop-color="white"/>
<stop offset="1" stop-color="white" stop-opacity="0"/>
</linearGradient>
<linearGradient id="paint1_linear" x1="15.4544" y1="29.8638" x2="15.4544" y2="38.6517" gradientUnits="userSpaceOnUse">
<stop stop-color="white" stop-opacity="0"/>
<stop offset="1" stop-color="white"/>
</linearGradient>
</defs>
</svg>
