<svg viewBox="0 0 32 32" fill="none" xmlns="http://www.w3.org/2000/svg">
<path d="M22 28C24.2091 28 26 26.24 26 24.069C26 22.0259 24.8028 18.8062 22.4083 14.41C22.3713 14.342 22.3259 14.2592 22.272 14.1614L22.2721 14.1614C22.1887 14.01 21.9993 13.9554 21.849 14.0394C21.7981 14.0679 21.7562 14.1102 21.728 14.1614C21.6744 14.2587 21.6292 14.3412 21.5923 14.4089C19.1974 18.8057 18 22.0257 18 24.069C18 26.24 19.7909 28 22 28Z" fill="#3C83E8"/>
<path opacity="0.2" d="M22 28C24.2091 28 26 26.24 26 24.069C26 22.0259 24.8028 18.8062 22.4083 14.41C22.3713 14.342 22.3259 14.2592 22.272 14.1614L22.2721 14.1614C22.1887 14.01 21.9993 13.9554 21.849 14.0394C21.7981 14.0679 21.7562 14.1102 21.728 14.1614C21.6744 14.2587 21.6292 14.3412 21.5923 14.4089C19.1974 18.8057 18 22.0257 18 24.069C18 26.24 19.7909 28 22 28Z" fill="url(#paint0_linear)"/>
<g opacity="0.8">
<path opacity="0.8" d="M8.69727 23.25C10.6303 23.25 12.1973 21.71 12.1973 19.8103C12.1973 18.0227 11.1497 15.2054 9.05453 11.3587C9.02214 11.2993 8.9824 11.2268 8.9353 11.1413L8.93532 11.1413C8.86236 11.0088 8.69664 10.961 8.56517 11.0345C8.52065 11.0594 8.48394 11.0964 8.45923 11.1413C8.41236 11.2264 8.37279 11.2985 8.34053 11.3578C6.24502 15.205 5.19727 18.0225 5.19727 19.8103C5.19727 21.71 6.76427 23.25 8.69727 23.25Z" fill="#3C83E8"/>
<path opacity="0.2" d="M8.69727 23.25C10.6303 23.25 12.1973 21.71 12.1973 19.8103C12.1973 18.0227 11.1497 15.2054 9.05453 11.3587C9.02214 11.2993 8.9824 11.2268 8.9353 11.1413L8.93532 11.1413C8.86236 11.0088 8.69664 10.961 8.56517 11.0345C8.52065 11.0594 8.48394 11.0964 8.45923 11.1413C8.41236 11.2264 8.37279 11.2985 8.34053 11.3578C6.24502 15.205 5.19727 18.0225 5.19727 19.8103C5.19727 21.71 6.76427 23.25 8.69727 23.25Z" fill="url(#paint1_linear)"/>
</g>
<g opacity="0.6">
<path d="M16.6973 12C18.078 12 19.1973 10.8686 19.1973 9.47291C19.1973 8.1595 18.449 6.08972 16.9525 3.26355C16.9293 3.21986 16.9009 3.16661 16.8673 3.10379L16.8673 3.10378C16.8152 3.00645 16.6968 2.97134 16.6029 3.02535C16.5711 3.04365 16.5449 3.07082 16.5272 3.10378C16.4938 3.1663 16.4655 3.21933 16.4425 3.26284C14.9457 6.08937 14.1973 8.15939 14.1973 9.47291C14.1973 10.8686 15.3166 12 16.6973 12Z" fill="#3C83E8"/>
<path opacity="0.2" d="M16.6973 12C18.078 12 19.1973 10.8686 19.1973 9.47291C19.1973 8.1595 18.449 6.08972 16.9525 3.26355C16.9293 3.21986 16.9009 3.16661 16.8673 3.10379L16.8673 3.10378C16.8152 3.00645 16.6968 2.97134 16.6029 3.02535C16.5711 3.04365 16.5449 3.07082 16.5272 3.10378C16.4938 3.1663 16.4655 3.21933 16.4425 3.26284C14.9457 6.08937 14.1973 8.15939 14.1973 9.47291C14.1973 10.8686 15.3166 12 16.6973 12Z" fill="url(#paint2_linear)"/>
</g>
<defs>
<linearGradient id="paint0_linear" x1="22" y1="14" x2="22" y2="28" gradientUnits="userSpaceOnUse">
<stop stop-color="white"/>
<stop offset="1" stop-color="white" stop-opacity="0"/>
</linearGradient>
<linearGradient id="paint1_linear" x1="8.69727" y1="11" x2="8.69727" y2="23.25" gradientUnits="userSpaceOnUse">
<stop stop-color="white"/>
<stop offset="1" stop-color="white" stop-opacity="0"/>
</linearGradient>
<linearGradient id="paint2_linear" x1="16.6973" y1="3" x2="16.6973" y2="12" gradientUnits="userSpaceOnUse">
<stop stop-color="white"/>
<stop offset="1" stop-color="white" stop-opacity="0"/>
</linearGradient>
</defs>
</svg>
