<svg width="32" height="32" viewBox="0 0 32 32" fill="none" xmlns="http://www.w3.org/2000/svg">
<g clip-path="url(#clip0_3702:200053)">
<path d="M14.0037 3.70703L3.5 30.9998L0.000194117 30.5065L0 28.9593L14.0037 3.70703ZM17.9963 3.70703L32 28.9588L32.0002 30.5065L28.5 30.9998L17.9963 3.70703Z" fill="#4388E9"/>
<g opacity="0.8">
<path d="M16.7148 23.2894L16.9995 28.5016C17.014 28.7669 16.7061 28.9899 16.3117 28.9997C16.303 28.9999 16.2942 29 16.2855 29H15.7145C15.3199 29 15 28.7848 15 28.5193C15 28.5134 15.0002 28.5075 15.0005 28.5017L15.2845 23.2895C15.2933 23.1279 15.4905 23 15.7307 23H16.2685C16.5087 23 16.7059 23.1279 16.7148 23.2894Z" fill="#4287E9"/>
<path opacity="0.8" d="M16.4506 15.974L16.5847 19.9944C16.5899 20.1489 16.3942 20.2769 16.1476 20.2801C16.1445 20.2801 16.1413 20.2802 16.1382 20.2802H15.8597C15.613 20.2802 15.4131 20.1548 15.4131 20.0002C15.4131 19.9983 15.4131 19.9963 15.4132 19.9944L15.5473 15.974C15.5504 15.8826 15.6694 15.8096 15.8152 15.8096H16.1827C16.3285 15.8096 16.4475 15.8826 16.4506 15.974Z" fill="#4287E9"/>
<path opacity="0.6" d="M16.2255 9.21316L16.3349 12.5085C16.338 12.6013 16.2206 12.678 16.0726 12.68C16.0708 12.68 16.0689 12.68 16.0671 12.68H15.9301C15.7821 12.68 15.6621 12.6048 15.6621 12.512C15.6621 12.5109 15.6621 12.5097 15.6622 12.5085L15.7716 9.21316C15.7736 9.15224 15.853 9.10352 15.9502 9.10352H16.0469C16.1441 9.10352 16.2235 9.15224 16.2255 9.21316Z" fill="#4287E9"/>
<g opacity="0.4" filter="url(#filter0_d_3702:200053)">
<path d="M16.0595 4.22354L16.1296 6.33736C16.1311 6.38278 16.0736 6.42037 16.0011 6.42131C16.0002 6.42132 15.9993 6.42133 15.9984 6.42133C15.9259 6.42133 15.8672 6.3845 15.8672 6.33907C15.8672 6.3385 15.8672 6.33793 15.8672 6.33736L15.9373 4.22354C15.938 4.2027 15.9652 4.18604 15.9984 4.18604C16.0317 4.18604 16.0588 4.2027 16.0595 4.22354Z" fill="#4287E9"/>
</g>
</g>
</g>
<defs>
<filter id="filter0_d_3702:200053" x="14.8672" y="4.18604" width="2.26245" height="5.23535" filterUnits="userSpaceOnUse" color-interpolation-filters="sRGB">
<feFlood flood-opacity="0" result="BackgroundImageFix"/>
<feColorMatrix in="SourceAlpha" type="matrix" values="0 0 0 0 0 0 0 0 0 0 0 0 0 0 0 0 0 0 127 0" result="hardAlpha"/>
<feOffset dy="2"/>
<feGaussianBlur stdDeviation="0.5"/>
<feColorMatrix type="matrix" values="0 0 0 0 0 0 0 0 0 0 0 0 0 0 0 0 0 0 0.125983 0"/>
<feBlend mode="normal" in2="BackgroundImageFix" result="effect1_dropShadow_3702:200053"/>
<feBlend mode="normal" in="SourceGraphic" in2="effect1_dropShadow_3702:200053" result="shape"/>
</filter>
<clipPath id="clip0_3702:200053">
<path d="M0 8C0 3.58172 3.58172 0 8 0H24C28.4183 0 32 3.58172 32 8V24C32 28.4183 28.4183 32 24 32H8C3.58172 32 0 28.4183 0 24V8Z" fill="white"/>
</clipPath>
</defs>
</svg>
