<svg width="32" height="32" viewBox="0 0 32 32" fill="none" xmlns="http://www.w3.org/2000/svg">
<path opacity="0.6" d="M24.5 11C25.8807 11 27 9.86858 27 8.47291C27 7.1595 26.2517 5.08972 24.7552 2.26355C24.7321 2.21986 24.7037 2.16661 24.67 2.10379L24.67 2.10378C24.6179 2.00645 24.4996 1.97134 24.4056 2.02535C24.3738 2.04365 24.3476 2.07082 24.33 2.10378C24.2965 2.1663 24.2682 2.21933 24.2452 2.26284C22.7484 5.08937 22 7.15939 22 8.47291C22 9.86858 23.1193 11 24.5 11Z" fill="#3C83E8"/>
<path opacity="0.4" d="M16 4C14.8954 4 14 4.89543 14 6V18.416C12.2341 19.1876 11 20.9497 11 23C11 25.7614 13.2386 28 16 28C18.7614 28 21 25.7614 21 23C21 20.9497 19.7659 19.1876 18 18.416V6C18 4.89543 17.1046 4 16 4Z" fill="#3C83E8"/>
<path d="M16 9.5C14.8954 9.5 14 10.3954 14 11.5V18.416C12.2341 19.1876 11 20.9497 11 23C11 25.7614 13.2386 28 16 28C18.7614 28 21 25.7614 21 23C21 20.9497 19.7659 19.1876 18 18.416V11.5C18 10.3954 17.1046 9.5 16 9.5Z" fill="#3C83E8"/>
<path opacity="0.1" d="M16 9.5C14.8954 9.5 14 10.3954 14 11.5V18.416C12.2341 19.1876 11 20.9497 11 23C11 25.7614 13.2386 28 16 28C18.7614 28 21 25.7614 21 23C21 20.9497 19.7659 19.1876 18 18.416V11.5C18 10.3954 17.1046 9.5 16 9.5Z" fill="url(#paint0_linear)"/>
<defs>
<linearGradient id="paint0_linear" x1="16" y1="9.5" x2="16" y2="28" gradientUnits="userSpaceOnUse">
<stop stop-color="white"/>
<stop offset="1" stop-color="white" stop-opacity="0"/>
</linearGradient>
</defs>
</svg>
