<svg width="32" height="32" viewBox="0 0 32 32" fill="none" xmlns="http://www.w3.org/2000/svg">
<g opacity="0.6">
<path d="M17.0967 5.09481C17.0967 4.50447 16.5914 4 16 4C15.4086 4 14.9139 4.50447 14.9139 5.09481V7.2737C14.9139 7.86404 15.4086 8.35778 16 8.35778C16.5914 8.35778 17.0967 7.86404 17.0967 7.2737V5.09481Z" fill="#FAC310"/>
<path d="M21.3978 9.08748C20.9784 9.50608 20.9784 10.2038 21.4085 10.6224C21.8171 11.041 22.5268 11.041 22.9462 10.6116L24.4946 9.06601C24.9139 8.65814 24.9139 7.939 24.4946 7.5204C24.0752 7.11252 23.3763 7.11252 22.9569 7.53113L21.3978 9.08748Z" fill="#FAC310"/>
<path d="M9.05382 10.6116C9.46243 11.0409 10.1721 11.0409 10.5915 10.6223C11.0108 10.2144 11.0108 9.49527 10.6022 9.0874L9.05382 7.53105C8.64522 7.12318 7.93555 7.11244 7.51619 7.52032C7.09684 7.93892 7.09684 8.65806 7.50544 9.0552L9.05382 10.6116Z" fill="#FAC310"/>
<path d="M26.914 17.0949C27.5054 17.0949 28 16.5904 28 16.0001C28 15.4098 27.5054 14.916 26.914 14.916H24.7312C24.1398 14.916 23.6451 15.4098 23.6451 16.0001C23.6451 16.5904 24.1398 17.0949 24.7312 17.0949H26.914Z" fill="#FAC310"/>
<path d="M5.09677 14.916C4.49462 14.916 4 15.4098 4 16.0001C4 16.5904 4.49462 17.0949 5.09677 17.0949H7.26882C7.86021 17.0949 8.36559 16.5904 8.36559 16.0001C8.36559 15.4098 7.86021 14.916 7.26882 14.916H5.09677Z" fill="#FAC310"/>
<path d="M22.9354 21.3877C22.5161 20.9691 21.8171 20.9799 21.3978 21.3985C20.9784 21.8063 20.9784 22.504 21.4085 22.9334L22.9677 24.479C23.3763 24.8976 24.0859 24.8869 24.5053 24.4682C24.9139 24.0496 24.9139 23.352 24.4946 22.9334L22.9354 21.3877Z" fill="#FAC310"/>
<path d="M7.50544 22.923C7.08608 23.3416 7.07533 24.05 7.48393 24.4578C7.90329 24.8764 8.62372 24.8872 9.03232 24.4793L10.5915 22.9337C11.0108 22.5151 11.0108 21.8067 10.6022 21.3988C10.1829 20.9802 9.47318 20.9802 9.05382 21.3881L7.50544 22.923Z" fill="#FAC310"/>
<path d="M17.0967 24.7262V26.9051C17.0967 27.4954 16.5914 27.9999 16 27.9999C15.4086 27.9999 14.9139 27.4954 14.9139 26.9051V24.7262C14.9139 24.1358 15.4086 23.6421 16 23.6421C16.5914 23.6421 17.0967 24.1358 17.0967 24.7262Z" fill="#FAC310"/>
</g>
<path d="M16.0099 10.5C12.9988 10.5 10.5 12.9839 10.5 16C10.5 19.0161 12.9988 21.5 16.0099 21.5C19.0209 21.5 21.5093 19.0161 21.5093 16C21.5093 12.9839 19.0209 10.5 16.0099 10.5Z" fill="url(#paint0_linear_562_74607)"/>
<defs>
<linearGradient id="paint0_linear_562_74607" x1="15.7885" y1="10.5" x2="15.7885" y2="21.5" gradientUnits="userSpaceOnUse">
<stop stop-color="#FFD13C"/>
<stop offset="1" stop-color="#FFBB55"/>
</linearGradient>
</defs>
</svg>
