<svg viewBox="0 0 32 32" fill="none" xmlns="http://www.w3.org/2000/svg">
<path d="M16 26C19.3137 26 22 23.36 22 20.1034C22 17.0388 20.2041 12.2093 16.6124 5.61495C16.5569 5.51301 16.4888 5.38875 16.4081 5.24217L16.4081 5.24215C16.283 5.01506 15.9989 4.93314 15.7736 5.05916C15.6972 5.10184 15.6343 5.16524 15.5919 5.24215C15.5116 5.38804 15.4438 5.51176 15.3884 5.6133C11.7961 12.2085 10 17.0386 10 20.1034C10 23.36 12.6863 26 16 26Z" fill="#3C83E8"/>
<path opacity="0.1" d="M16 26C19.3137 26 22 23.36 22 20.1034C22 17.0388 20.2041 12.2093 16.6124 5.61495C16.5569 5.51301 16.4888 5.38875 16.4081 5.24217L16.4081 5.24215C16.283 5.01506 15.9989 4.93314 15.7736 5.05916C15.6972 5.10184 15.6343 5.16524 15.5919 5.24215C15.5116 5.38804 15.4438 5.51176 15.3884 5.6133C11.7961 12.2085 10 17.0386 10 20.1034C10 23.36 12.6863 26 16 26Z" fill="url(#paint0_linear)"/>
<defs>
<linearGradient id="paint0_linear" x1="16" y1="5" x2="16" y2="26" gradientUnits="userSpaceOnUse">
<stop stop-color="white"/>
<stop offset="1" stop-color="white" stop-opacity="0"/>
</linearGradient>
</defs>
</svg>
