<svg viewBox="0 0 32 32" fill="none" xmlns="http://www.w3.org/2000/svg">
<path opacity="0.4" fill-rule="evenodd" clip-rule="evenodd" d="M7.30538 25.125C6.8831 25.3497 6.41675 24.9101 6.61603 24.4753L15.5436 4.99586C15.7221 4.60629 16.276 4.60715 16.4533 4.99728L25.377 24.6295C25.5761 25.0674 25.1024 25.5063 24.6809 25.2745L16.237 20.6303C16.0891 20.549 15.9102 20.5478 15.7612 20.627L7.30538 25.125Z" fill="#3C83E8"/>
<mask id="mask0" mask-type="alpha" maskUnits="userSpaceOnUse" x="6" y="4" width="20" height="22">
<path fill-rule="evenodd" clip-rule="evenodd" d="M7.30538 25.125C6.8831 25.3497 6.41675 24.9101 6.61603 24.4753L15.5436 4.99586C15.7221 4.60629 16.276 4.60715 16.4533 4.99728L25.377 24.6295C25.5761 25.0674 25.1024 25.5063 24.6809 25.2745L16.237 20.6303C16.0891 20.549 15.9102 20.5478 15.7612 20.627L7.30538 25.125Z" fill="#3C83E8"/>
</mask>
<g mask="url(#mask0)">
<rect x="16" y="4" width="10" height="22" rx="0.5" fill="#3C83E8"/>
<rect opacity="0.1" x="16" y="4" width="10" height="22" fill="url(#paint0_linear)"/>
</g>
<defs>
<linearGradient id="paint0_linear" x1="21" y1="4" x2="21" y2="26" gradientUnits="userSpaceOnUse">
<stop stop-color="white"/>
<stop offset="1" stop-color="white" stop-opacity="0"/>
</linearGradient>
</defs>
</svg>
