<svg width="32" height="32" viewBox="0 0 32 32" fill="none" xmlns="http://www.w3.org/2000/svg">
<path opacity="0.4" fill-rule="evenodd" clip-rule="evenodd" d="M23.8169 2.8541C24.0069 2.73263 24.2299 2.82639 24.3162 3.00551L24.3943 3.16753C25.5853 5.66945 26.2 7.53965 26.2 8.75378C26.2 10.0824 25.2363 11.2001 24 11.2001C22.7638 11.2001 21.8 10.0824 21.8 8.75378C21.8 7.53641 22.4185 5.65967 23.6157 3.14768C23.6343 3.10865 23.657 3.06124 23.6839 3.00551C23.7128 2.94546 23.7577 2.89189 23.8169 2.8541Z" fill="#8AB5F1"/>
<path opacity="0.3" d="M16 4C14.8954 4 14 4.89543 14 6V18.416C12.2341 19.1876 11 20.9497 11 23C11 25.7614 13.2386 28 16 28C18.7614 28 21 25.7614 21 23C21 20.9497 19.7659 19.1876 18 18.416V6C18 4.89543 17.1046 4 16 4Z" fill="#8AB5F1"/>
<path d="M16 11C14.8954 11 14 11.8954 14 13V18.416C12.2341 19.1876 11 20.9497 11 23C11 25.7614 13.2386 28 16 28C18.7614 28 21 25.7614 21 23C21 20.9497 19.7659 19.1876 18 18.416V13C18 11.8954 17.1046 11 16 11Z" fill="url(#paint0_linear_1159_114377)"/>
<defs>
<linearGradient id="paint0_linear_1159_114377" x1="16" y1="11" x2="16" y2="28" gradientUnits="userSpaceOnUse">
<stop stop-color="#FF768F"/>
<stop offset="1" stop-color="#FF3A3A"/>
</linearGradient>
</defs>
</svg>
