<svg width="32" height="32" viewBox="0 0 32 32" fill="none" xmlns="http://www.w3.org/2000/svg">
<path d="M23 28C25.2091 28 27 26.24 27 24.069C27 22.0259 25.8028 18.8062 23.4083 14.41C23.3713 14.342 23.3259 14.2592 23.272 14.1614L23.2721 14.1614C23.1887 14.01 22.9993 13.9554 22.849 14.0394C22.7981 14.0679 22.7562 14.1102 22.728 14.1614C22.6744 14.2587 22.6292 14.3412 22.5923 14.4089C20.1974 18.8057 19 22.0257 19 24.069C19 26.24 20.7909 28 23 28Z" fill="url(#paint0_linear_562_74660)"/>
<path opacity="0.8" d="M8.5 24.25C10.433 24.25 12 22.71 12 20.8103C12 19.0227 10.9524 16.2054 8.85726 12.3587C8.82487 12.2993 8.78513 12.2268 8.73804 12.1413L8.73806 12.1413C8.6651 12.0088 8.49937 11.961 8.36791 12.0345C8.32338 12.0594 8.28668 12.0964 8.26197 12.1413C8.21509 12.2264 8.17552 12.2985 8.14326 12.3578C6.04775 16.205 5 19.0225 5 20.8103C5 22.71 6.567 24.25 8.5 24.25Z" fill="url(#paint1_linear_562_74660)"/>
<path opacity="0.5" d="M16.5 13C17.8807 13 19 11.8686 19 10.4729C19 9.1595 18.2517 7.08972 16.7552 4.26355C16.7321 4.21986 16.7037 4.16661 16.67 4.10379L16.67 4.10378C16.6179 4.00645 16.4996 3.97134 16.4056 4.02535C16.3738 4.04365 16.3476 4.07082 16.33 4.10378C16.2965 4.1663 16.2682 4.21933 16.2452 4.26284C14.7484 7.08937 14 9.15939 14 10.4729C14 11.8686 15.1193 13 16.5 13Z" fill="url(#paint2_linear_562_74660)"/>
<defs>
<linearGradient id="paint0_linear_562_74660" x1="23" y1="14" x2="23" y2="28" gradientUnits="userSpaceOnUse">
<stop stop-color="#61D9FF"/>
<stop offset="1" stop-color="#61AAFF"/>
</linearGradient>
<linearGradient id="paint1_linear_562_74660" x1="8.5" y1="12" x2="8.5" y2="24.25" gradientUnits="userSpaceOnUse">
<stop stop-color="#61D9FF"/>
<stop offset="1" stop-color="#61AAFF"/>
</linearGradient>
<linearGradient id="paint2_linear_562_74660" x1="16.5" y1="4" x2="16.5" y2="13" gradientUnits="userSpaceOnUse">
<stop stop-color="#61D9FF"/>
<stop offset="1" stop-color="#61AAFF"/>
</linearGradient>
</defs>
</svg>
