<svg width="32" height="32" viewBox="0 0 32 32" fill="none" xmlns="http://www.w3.org/2000/svg">
<rect x="5.99988" y="28" width="20" height="2" rx="1" fill="#A45CFF"/>
<rect opacity="0.2" x="5.99988" y="28" width="20" height="2" rx="1" fill="url(#paint0_linear_562_74705)"/>
<path opacity="0.4" fill-rule="evenodd" clip-rule="evenodd" d="M16.0001 3.1001C16.4972 3.1001 16.9001 3.50304 16.9001 4.0001V11.9709L19.396 9.71075C19.7644 9.37711 20.3336 9.40532 20.6672 9.77376C21.0009 10.1422 20.9727 10.7113 20.6042 11.045L16.6042 14.6672C16.2613 14.9777 15.7389 14.9777 15.396 14.6672L11.396 11.045C11.0276 10.7113 10.9993 10.1422 11.333 9.77376C11.6666 9.40532 12.2358 9.37711 12.6042 9.71075L15.1001 11.9709V4.0001C15.1001 3.50304 15.503 3.1001 16.0001 3.1001Z" fill="#A45CFF"/>
<path opacity="0.6" fill-rule="evenodd" clip-rule="evenodd" d="M28.3759 15.18C28.7292 15.5296 28.7322 16.0995 28.3825 16.4528L22.9912 21.9002L26.1192 21.8733C26.6163 21.869 27.0227 22.2685 27.0269 22.7655C27.0312 23.2625 26.6318 23.6689 26.1347 23.6732L20.7386 23.7196C20.4986 23.7217 20.2677 23.6278 20.0972 23.4588C19.9267 23.2898 19.8308 23.0598 19.8308 22.8197L19.8305 17.3197C19.8304 16.8227 20.2333 16.4197 20.7304 16.4197C21.2275 16.4196 21.6304 16.8226 21.6305 17.3196L21.6307 20.716L27.1031 15.1866C27.4528 14.8333 28.0226 14.8303 28.3759 15.18Z" fill="#A45CFF"/>
<path opacity="0.6" fill-rule="evenodd" clip-rule="evenodd" d="M3.91937 15.18C3.56608 15.5296 3.56313 16.0995 3.91278 16.4528L9.3041 21.9002L6.17606 21.8733C5.67902 21.869 5.27263 22.2685 5.26835 22.7655C5.26407 23.2625 5.66354 23.6689 6.16057 23.6732L11.5567 23.7196C11.7967 23.7217 12.0276 23.6278 12.1981 23.4588C12.3685 23.2898 12.4644 23.0598 12.4645 22.8197L12.4648 17.3197C12.4649 16.8227 12.0619 16.4197 11.5649 16.4197C11.0678 16.4196 10.6649 16.8226 10.6648 17.3196L10.6646 20.716L5.19214 15.1866C4.84249 14.8333 4.27265 14.8303 3.91937 15.18Z" fill="#A45CFF"/>
<defs>
<linearGradient id="paint0_linear_562_74705" x1="15.9999" y1="28" x2="15.9999" y2="30" gradientUnits="userSpaceOnUse">
<stop stop-color="white"/>
<stop offset="1" stop-color="white" stop-opacity="0"/>
</linearGradient>
</defs>
</svg>
