<svg width="32" height="32" viewBox="0 0 32 32" fill="none" xmlns="http://www.w3.org/2000/svg">
<g clip-path="url(#clip0_3702_200053)">
<path d="M14.0037 2.70703L3 31L0.000194117 29.5065L0 27.9593L14.0037 2.70703ZM17.9963 2.70703L32 27.9588L32.0002 29.5065L29 31L17.9963 2.70703Z" fill="#818795"/>
<path d="M16.7148 23.0413L16.9995 28.4801C17.014 28.7569 16.7061 28.9896 16.3117 28.9998C16.303 29 16.2942 29.0001 16.2855 29.0001H15.7145C15.3199 29.0001 15 28.7755 15 28.4985C15 28.4924 15.0002 28.4862 15.0005 28.4801L15.2845 23.0413C15.2933 22.8727 15.4905 22.7393 15.7307 22.7393H16.2685C16.5087 22.7393 16.7059 22.8727 16.7148 23.0413Z" fill="#ABAFB9"/>
<path opacity="0.85" d="M16.4506 15.4074L16.5847 19.6026C16.5899 19.7639 16.3942 19.8974 16.1476 19.9007C16.1445 19.9008 16.1413 19.9008 16.1382 19.9008H15.8597C15.613 19.9008 15.4131 19.77 15.4131 19.6087C15.4131 19.6066 15.4131 19.6046 15.4132 19.6026L15.5473 15.4074C15.5504 15.3121 15.6694 15.2358 15.8152 15.2358H16.1827C16.3285 15.2358 16.4475 15.3121 16.4506 15.4074Z" fill="#ABAFB9"/>
<path opacity="0.7" d="M16.2255 9.28824L16.3349 12.7269C16.338 12.8237 16.2206 12.9037 16.0726 12.9058C16.0708 12.9058 16.0689 12.9058 16.0671 12.9058H15.9301C15.7821 12.9058 15.6621 12.8273 15.6621 12.7305C15.6621 12.7293 15.6621 12.7281 15.6622 12.7269L15.7716 9.28824C15.7736 9.22467 15.853 9.17383 15.9502 9.17383H16.0469C16.1441 9.17383 16.2235 9.22467 16.2255 9.28824Z" fill="#ABAFB9"/>
<g opacity="0.55" filter="url(#filter0_d_3702_200053)">
<path d="M16.0595 5.03914L16.1296 7.24486C16.1311 7.29226 16.0736 7.33148 16.0011 7.33246C16.0002 7.33248 15.9993 7.33248 15.9984 7.33248C15.9259 7.33248 15.8672 7.29405 15.8672 7.24665C15.8672 7.24605 15.8672 7.24546 15.8672 7.24486L15.9373 5.03914C15.938 5.01739 15.9652 5 15.9984 5C16.0317 5 16.0588 5.01739 16.0595 5.03914Z" fill="#ABAFB9"/>
</g>
</g>
<defs>
<filter id="filter0_d_3702_200053" x="14.8672" y="5" width="2.26245" height="5.33252" filterUnits="userSpaceOnUse" color-interpolation-filters="sRGB">
<feFlood flood-opacity="0" result="BackgroundImageFix"/>
<feColorMatrix in="SourceAlpha" type="matrix" values="0 0 0 0 0 0 0 0 0 0 0 0 0 0 0 0 0 0 127 0" result="hardAlpha"/>
<feOffset dy="2"/>
<feGaussianBlur stdDeviation="0.5"/>
<feColorMatrix type="matrix" values="0 0 0 0 0 0 0 0 0 0 0 0 0 0 0 0 0 0 0.125983 0"/>
<feBlend mode="normal" in2="BackgroundImageFix" result="effect1_dropShadow_3702_200053"/>
<feBlend mode="normal" in="SourceGraphic" in2="effect1_dropShadow_3702_200053" result="shape"/>
</filter>
<clipPath id="clip0_3702_200053">
<path d="M0 8C0 3.58172 3.58172 0 8 0H24C28.4183 0 32 3.58172 32 8V24C32 28.4183 28.4183 32 24 32H8C3.58172 32 0 28.4183 0 24V8Z" fill="white"/>
</clipPath>
</defs>
</svg>
