<svg viewBox="0 0 32 32" fill="none" xmlns="http://www.w3.org/2000/svg">
<path opacity="0.6" d="M16.0183 16.6704C16.3187 16.6704 16.6033 16.6887 16.872 16.7252L16.8685 23.5859C16.8685 25.4719 15.5604 26.95 13.4675 26.95C11.3745 26.95 10.0664 25.4719 10.0664 23.5859C10.0664 23.1602 10.4178 22.8151 10.8513 22.8151C11.2847 22.8151 11.6361 23.1602 11.6361 23.5859C11.6361 24.6649 12.2942 25.4084 13.4675 25.4084C14.6407 25.4084 15.2988 24.6649 15.2988 23.5859L15.2976 16.7087C15.5267 16.6832 15.7669 16.6704 16.0183 16.6704Z" fill="#3C83E8"/>
<path fill-rule="evenodd" clip-rule="evenodd" d="M26.9987 16.4573C26.981 16.2499 26.9614 16.0723 26.9399 15.9244C26.1208 10.3032 21.5423 6 16.0168 6C10.2209 6 5.46692 10.7347 5.00084 16.7589C4.98891 16.913 5.10603 17.0475 5.26242 17.0592C5.35041 17.0658 5.43652 17.0318 5.49543 16.967C6.21749 16.1735 7.26831 15.7768 8.64783 15.7768C10.0443 15.7768 11.104 16.1833 11.8268 16.9964L11.8268 16.9964C12.0682 17.2679 12.4871 17.2951 12.7626 17.0573C12.7857 17.0373 12.8074 17.0158 12.8275 16.9929C13.5379 16.1821 14.601 15.7768 16.0168 15.7768C17.4272 15.7768 18.4876 16.179 19.1979 16.9835L19.1978 16.9836C19.4383 17.256 19.8573 17.2847 20.1337 17.0476C20.1573 17.0273 20.1795 17.0054 20.2 16.9821C20.905 16.1785 21.9669 15.7768 23.3858 15.7768C24.6675 15.7768 25.658 16.1046 26.3572 16.7603L26.3572 16.7603C26.5095 16.903 26.7503 16.8971 26.8952 16.7471C26.9701 16.6695 27.0078 16.564 26.9987 16.4573Z" fill="#3C83E8"/>
<path opacity="0.1" fill-rule="evenodd" clip-rule="evenodd" d="M26.9987 16.4573C26.981 16.2499 26.9614 16.0723 26.9399 15.9244C26.1208 10.3032 21.5423 6 16.0168 6C10.2209 6 5.46692 10.7347 5.00084 16.7589C4.98891 16.913 5.10603 17.0475 5.26242 17.0592C5.35041 17.0658 5.43652 17.0318 5.49543 16.967C6.21749 16.1735 7.26831 15.7768 8.64783 15.7768C10.0443 15.7768 11.104 16.1833 11.8268 16.9964L11.8268 16.9964C12.0682 17.2679 12.4871 17.2951 12.7626 17.0573C12.7857 17.0373 12.8074 17.0158 12.8275 16.9929C13.5379 16.1821 14.601 15.7768 16.0168 15.7768C17.4272 15.7768 18.4876 16.179 19.1979 16.9835L19.1978 16.9836C19.4383 17.256 19.8573 17.2847 20.1337 17.0476C20.1573 17.0273 20.1795 17.0054 20.2 16.9821C20.905 16.1785 21.9669 15.7768 23.3858 15.7768C24.6675 15.7768 25.658 16.1046 26.3572 16.7603L26.3572 16.7603C26.5095 16.903 26.7503 16.8971 26.8952 16.7471C26.9701 16.6695 27.0078 16.564 26.9987 16.4573Z" fill="url(#paint0_linear)"/>
<defs>
<linearGradient id="paint0_linear" x1="16" y1="6" x2="16" y2="17.2193" gradientUnits="userSpaceOnUse">
<stop stop-color="white"/>
<stop offset="1" stop-color="white" stop-opacity="0"/>
</linearGradient>
</defs>
</svg>
