<svg viewBox="0 0 32 32" fill="none" xmlns="http://www.w3.org/2000/svg">
<path opacity="0.6" fill-rule="evenodd" clip-rule="evenodd" d="M24 8C25.6569 8 27 6.65685 27 5C27 3.34315 25.6569 2 24 2C22.3431 2 21 3.34315 21 5C21 6.65685 22.3431 8 24 8ZM24 6.5C24.8284 6.5 25.5 5.82843 25.5 5C25.5 4.17157 24.8284 3.5 24 3.5C23.1716 3.5 22.5 4.17157 22.5 5C22.5 5.82843 23.1716 6.5 24 6.5Z" fill="#3C83E8"/>
<path opacity="0.4" d="M16 4C14.8954 4 14 4.89543 14 6V18.416C12.2341 19.1876 11 20.9497 11 23C11 25.7614 13.2386 28 16 28C18.7614 28 21 25.7614 21 23C21 20.9497 19.7659 19.1876 18 18.416V6C18 4.89543 17.1046 4 16 4Z" fill="#3C83E8"/>
<path d="M16 9.5C14.8954 9.5 14 10.3954 14 11.5V18.416C12.2341 19.1876 11 20.9497 11 23C11 25.7614 13.2386 28 16 28C18.7614 28 21 25.7614 21 23C21 20.9497 19.7659 19.1876 18 18.416V11.5C18 10.3954 17.1046 9.5 16 9.5Z" fill="#3C83E8"/>
<path opacity="0.1" d="M16 9.5C14.8954 9.5 14 10.3954 14 11.5V18.416C12.2341 19.1876 11 20.9497 11 23C11 25.7614 13.2386 28 16 28C18.7614 28 21 25.7614 21 23C21 20.9497 19.7659 19.1876 18 18.416V11.5C18 10.3954 17.1046 9.5 16 9.5Z" fill="url(#paint0_linear)"/>
<defs>
<linearGradient id="paint0_linear" x1="16" y1="9.5" x2="16" y2="28" gradientUnits="userSpaceOnUse">
<stop stop-color="white"/>
<stop offset="1" stop-color="white" stop-opacity="0"/>
</linearGradient>
</defs>
</svg>
