<svg width="103" height="24" viewBox="0 0 103 24" fill="none" xmlns="http://www.w3.org/2000/svg">
<path d="M44.7719 16.8543H44.9077V11.8472C44.8059 9.21641 42.6842 7.11174 40.0534 7.02688H36.5909C33.96 7.11174 31.8554 9.21641 31.7705 11.8472V19.1457C31.7705 20.4526 32.3136 21.6917 33.2641 22.5743C34.1637 23.4569 35.3518 23.9491 36.6078 23.9661H40.0703C42.7182 23.8982 44.8398 21.7935 44.9247 19.1457H42.0392C41.9713 20.198 41.1227 21.0467 40.0703 21.0806H36.6078C35.5555 21.0297 34.7068 20.198 34.6389 19.1457V16.8543H44.7719ZM36.5909 9.91231H40.0534C41.0887 9.99718 41.9204 10.8119 42.0392 11.8472V14.0707H34.6389V11.8472C34.7408 10.8119 35.5555 9.99718 36.5909 9.91231ZM102.209 16.8883H102.362V11.8812C102.243 9.25035 100.121 7.14569 97.4735 7.06082H94.011C91.3801 7.16266 89.2755 9.25035 89.1736 11.8812V19.1796C89.1906 20.4866 89.7337 21.7256 90.6842 22.6082C91.5838 23.4738 92.7719 23.983 94.011 24H97.4735C100.121 23.9321 102.243 21.8274 102.328 19.1796H99.4424C99.3745 20.232 98.5258 21.0637 97.4735 21.1146H94.011C92.9586 21.0637 92.11 20.232 92.059 19.1796V16.8883H102.209ZM94.0279 9.94625H97.4735C98.5088 10.0481 99.3405 10.8458 99.4424 11.8812V14.1047H92.076V11.8812C92.1779 10.8458 92.9926 10.0311 94.0279 9.94625ZM14.4409 23.9661H7.43101C5.0378 23.9661 3.2047 23.1853 2.01658 21.6238C0.998197 20.3338 0.522949 18.5686 0.522949 16.3621V0H3.39141V16.3621C3.39141 17.9406 3.69692 19.1457 4.29098 19.9265C4.88504 20.7072 5.93738 21.1485 7.41404 21.1485H14.4239L14.4409 23.9661ZM20.059 7.02688H17.1736V23.9661H20.059V7.02688ZM18.6333 4.90524C19.6007 4.90524 20.3815 4.12447 20.3815 3.157C20.3815 2.18953 19.6007 1.40877 18.6333 1.40877C17.6658 1.40877 16.885 2.18953 16.885 3.157C16.8681 4.12447 17.6658 4.90524 18.6333 4.90524ZM70.605 7.02688H67.6856V23.9661H70.605V7.02688ZM69.1453 4.90524C70.1128 4.90524 70.8935 4.12447 70.8935 3.157C70.8935 2.18953 70.1128 1.40877 69.1453 1.40877C68.1778 1.40877 67.3971 2.18953 67.3971 3.157C67.3971 4.12447 68.1778 4.90524 69.1453 4.90524ZM26.5767 4.61669C27.3066 3.44555 28.5456 2.83451 30.3957 2.83451H32.2288V0.0169716H30.3108C28.3249 0.0169716 25.6432 0.560114 24.0477 3.10608C23.1821 4.59972 22.7747 6.31401 22.8256 8.02829V23.9661H25.745V14.8175C25.745 12.2376 26.9162 10.2348 29.564 10.2178H30.0562C30.3617 9.04668 31.0067 7.99435 31.8723 7.16266H30.7012C28.919 7.11174 27.1708 7.62094 25.7111 8.62235V8.04527C25.7111 6.84017 25.9996 5.66903 26.5767 4.61669ZM65.547 7.02688H62.7804L62.7295 7.24753V7.29844L59.861 19.4682L57.6715 12.2716C57.5018 11.6945 57.2302 10.5233 56.6191 10.5233H55.1934C54.6163 10.5233 54.3447 11.6945 54.158 12.2716L51.9176 19.5361L49.0491 7.31542V7.24753L48.9982 7.0099H46.2825L46.5032 7.90948L50.0845 22.2009C50.2373 22.9137 50.6616 23.9491 51.1708 23.9491H52.6984C53.2754 23.9491 53.6658 22.8798 53.8695 22.2009L55.9233 15.4795L57.96 22.2009C58.1467 22.7779 58.5371 23.9491 59.0803 23.9491H60.5909C61.1679 23.9491 61.5923 22.7779 61.762 22.2009L65.3603 7.90948L65.547 7.02688ZM86.6446 22.4555L83.5216 16.6167C85.4056 15.9547 86.7125 14.2235 86.7974 12.2207V11.7454C86.7465 9.08063 84.5399 6.95899 81.8752 7.0099H73.6602V23.9661H76.4268V19.2475C76.4268 18.3989 77.5131 16.9731 79.1764 16.9731H80.6701L83.9968 23.5248L84.2005 23.9491H87.3405L86.6446 22.4555ZM81.96 14.2744H79.2104C78.175 14.2744 77.1736 14.6308 76.3928 15.3098V9.81047H81.96C83.0463 9.7935 83.9289 10.6422 83.9798 11.7284V12.2037C83.9119 13.256 83.0124 14.3083 81.96 14.2574V14.2744Z" fill="#575F72"/>
</svg>
