<svg viewBox="0 0 40 40" fill="none" xmlns="http://www.w3.org/2000/svg">
<path d="M36.3933 11.8512C37.3906 11.8512 38.3962 11.6446 39.0195 11.4297C39.2106 11.3471 39.3436 11.314 39.4849 11.314C39.7508 11.314 40.0001 11.5289 40.0001 11.8512C40.0001 11.9669 39.9752 12.1818 39.8838 12.3967C38.7951 15.157 35.7118 17.2727 32.1881 17.2727C27.3264 17.2727 23.6365 13.7934 23.6365 8.94212C23.6365 5.49583 25.6975 2.2479 28.7891 1.0165C28.9968 0.942115 29.1963 0.909058 29.3209 0.909058C29.6617 0.909058 29.8528 1.16526 29.8528 1.42972C29.8528 1.52228 29.8369 1.636 29.7794 1.7878L29.7282 1.90906C29.429 2.57848 29.2046 3.84294 29.2046 4.79336C29.2046 9.14046 31.997 11.8512 36.3933 11.8512Z" fill="#A45CFF"/>
<path d="M36.3933 11.8512C37.3906 11.8512 38.3962 11.6446 39.0195 11.4297C39.2106 11.3471 39.3436 11.314 39.4849 11.314C39.7508 11.314 40.0001 11.5289 40.0001 11.8512C40.0001 11.9669 39.9752 12.1818 39.8838 12.3967C38.7951 15.157 35.7118 17.2727 32.1881 17.2727C27.3264 17.2727 23.6365 13.7934 23.6365 8.94212C23.6365 5.49583 25.6975 2.2479 28.7891 1.0165C28.9968 0.942115 29.1963 0.909058 29.3209 0.909058C29.6617 0.909058 29.8528 1.16526 29.8528 1.42972C29.8528 1.52228 29.8369 1.636 29.7794 1.7878L29.7282 1.90906C29.429 2.57848 29.2046 3.84294 29.2046 4.79336C29.2046 9.14046 31.997 11.8512 36.3933 11.8512Z" fill="url(#paint0_linear)" fill-opacity="0.5"/>
<path d="M10.945 27.2727C7.15366 27.2727 4.54541 24.9267 4.54541 21.5453C4.54541 18.8848 6.27976 16.7222 8.90145 15.9752C9.37201 11.0473 13.5936 7.27271 18.6219 7.27271C22.4536 7.27271 25.6131 9.1862 27.3474 12.5807C31.9589 12.5414 35.4545 15.7 35.4545 19.907C35.4545 24.0486 32.0799 27.2727 27.7104 27.2727H10.945Z" fill="#CAE6FA"/>
<path d="M10.945 27.2727C7.15366 27.2727 4.54541 24.9267 4.54541 21.5453C4.54541 18.8848 6.27976 16.7222 8.90145 15.9752C9.37201 11.0473 13.5936 7.27271 18.6219 7.27271C22.4536 7.27271 25.6131 9.1862 27.3474 12.5807C31.9589 12.5414 35.4545 15.7 35.4545 19.907C35.4545 24.0486 32.0799 27.2727 27.7104 27.2727H10.945Z" fill="url(#paint1_linear)" fill-opacity="0.5"/>
<path d="M19.7955 34.204C20.2899 33.9344 20.9303 34.2553 20.9085 34.7618L20.8498 36.1256C20.8199 36.8206 20.3961 37.4578 19.7176 37.8278L18.3863 38.5538C17.8918 38.8235 17.2514 38.5025 17.2732 37.996L17.3319 36.6323C17.3618 35.9373 17.7857 35.3 18.4642 34.93L19.7955 34.204Z" fill="#63A1FF"/>
<path d="M19.7955 34.204C20.2899 33.9344 20.9303 34.2553 20.9085 34.7618L20.8498 36.1256C20.8199 36.8206 20.3961 37.4578 19.7176 37.8278L18.3863 38.5538C17.8918 38.8235 17.2514 38.5025 17.2732 37.996L17.3319 36.6323C17.3618 35.9373 17.7857 35.3 18.4642 34.93L19.7955 34.204Z" fill="url(#paint2_linear)" fill-opacity="0.2"/>
<path d="M13.432 34.204C13.9264 33.9344 14.5668 34.2553 14.545 34.7618L14.4863 36.1256C14.4564 36.8206 14.0325 37.4578 13.3541 37.8278L12.0227 38.5538C11.5283 38.8235 10.8879 38.5025 10.9097 37.996L10.9684 36.6323C10.9983 35.9373 11.4222 35.3 12.1007 34.93L13.432 34.204Z" fill="#63A1FF"/>
<path d="M13.432 34.204C13.9264 33.9344 14.5668 34.2553 14.545 34.7618L14.4863 36.1256C14.4564 36.8206 14.0325 37.4578 13.3541 37.8278L12.0227 38.5538C11.5283 38.8235 10.8879 38.5025 10.9097 37.996L10.9684 36.6323C10.9983 35.9373 11.4222 35.3 12.1007 34.93L13.432 34.204Z" fill="url(#paint3_linear)" fill-opacity="0.2"/>
<path d="M11.8181 30.9091L11.3635 31.8181" stroke="#63A1FF" stroke-width="1.81818" stroke-linecap="round" stroke-linejoin="round"/>
<path d="M18.1818 30.9091L17.7273 31.8181" stroke="#63A1FF" stroke-width="1.81818" stroke-linecap="round" stroke-linejoin="round"/>
<path d="M24.5454 30.9091L24.0908 31.8181" stroke="#63A1FF" stroke-width="1.81818" stroke-linecap="round" stroke-linejoin="round"/>
<defs>
<linearGradient id="paint0_linear" x1="31.8183" y1="0.909058" x2="31.8183" y2="17.2727" gradientUnits="userSpaceOnUse">
<stop stop-color="white"/>
<stop offset="1" stop-color="white" stop-opacity="0"/>
</linearGradient>
<linearGradient id="paint1_linear" x1="20" y1="7.27271" x2="20" y2="27.2727" gradientUnits="userSpaceOnUse">
<stop stop-color="white"/>
<stop offset="1" stop-color="white" stop-opacity="0"/>
</linearGradient>
<linearGradient id="paint2_linear" x1="19.0909" y1="34.1062" x2="19.0909" y2="38.6517" gradientUnits="userSpaceOnUse">
<stop stop-color="white" stop-opacity="0"/>
<stop offset="1" stop-color="white"/>
</linearGradient>
<linearGradient id="paint3_linear" x1="12.7274" y1="34.1062" x2="12.7274" y2="38.6517" gradientUnits="userSpaceOnUse">
<stop stop-color="white" stop-opacity="0"/>
<stop offset="1" stop-color="white"/>
</linearGradient>
</defs>
</svg>
