<svg viewBox="0 0 40 40" fill="none" xmlns="http://www.w3.org/2000/svg">
<path d="M36.3933 11.8513C37.3906 11.8513 38.3962 11.6447 39.0195 11.4298C39.2106 11.3472 39.3436 11.3141 39.4849 11.3141C39.7508 11.3141 40.0001 11.529 40.0001 11.8513C40.0001 11.967 39.9752 12.1819 39.8838 12.3968C38.7951 15.1571 35.7118 17.2728 32.1881 17.2728C27.3264 17.2728 23.6365 13.7935 23.6365 8.94224C23.6365 5.49596 25.6975 2.24802 28.7891 1.01662C28.9968 0.942238 29.1963 0.90918 29.3209 0.90918C29.6617 0.90918 29.8528 1.16538 29.8528 1.42984C29.8528 1.5224 29.8369 1.63612 29.7794 1.78792L29.7282 1.90918C29.429 2.5786 29.2046 3.84306 29.2046 4.79348C29.2046 9.14058 31.997 11.8513 36.3933 11.8513Z" fill="#A45CFF"/>
<path d="M36.3933 11.8513C37.3906 11.8513 38.3962 11.6447 39.0195 11.4298C39.2106 11.3472 39.3436 11.3141 39.4849 11.3141C39.7508 11.3141 40.0001 11.529 40.0001 11.8513C40.0001 11.967 39.9752 12.1819 39.8838 12.3968C38.7951 15.1571 35.7118 17.2728 32.1881 17.2728C27.3264 17.2728 23.6365 13.7935 23.6365 8.94224C23.6365 5.49596 25.6975 2.24802 28.7891 1.01662C28.9968 0.942238 29.1963 0.90918 29.3209 0.90918C29.6617 0.90918 29.8528 1.16538 29.8528 1.42984C29.8528 1.5224 29.8369 1.63612 29.7794 1.78792L29.7282 1.90918C29.429 2.5786 29.2046 3.84306 29.2046 4.79348C29.2046 9.14058 31.997 11.8513 36.3933 11.8513Z" fill="url(#paint0_linear)" fill-opacity="0.5"/>
<path d="M10.945 27.2727C7.15366 27.2727 4.54541 24.9267 4.54541 21.5453C4.54541 18.8848 6.27976 16.7222 8.90145 15.9752C9.37201 11.0473 13.5936 7.27271 18.6219 7.27271C22.4536 7.27271 25.6131 9.1862 27.3474 12.5807C31.9589 12.5414 35.4545 15.7 35.4545 19.907C35.4545 24.0486 32.0799 27.2727 27.7104 27.2727H10.945Z" fill="#CAE6FA"/>
<path d="M10.945 27.2727C7.15366 27.2727 4.54541 24.9267 4.54541 21.5453C4.54541 18.8848 6.27976 16.7222 8.90145 15.9752C9.37201 11.0473 13.5936 7.27271 18.6219 7.27271C22.4536 7.27271 25.6131 9.1862 27.3474 12.5807C31.9589 12.5414 35.4545 15.7 35.4545 19.907C35.4545 24.0486 32.0799 27.2727 27.7104 27.2727H10.945Z" fill="url(#paint1_linear)" fill-opacity="0.5"/>
<path d="M8.18188 36.3637L10.0001 33.1819" stroke="#63A1FF" stroke-width="1.81818" stroke-linecap="round" stroke-linejoin="round"/>
<path d="M8.18188 36.3637L10.0001 33.1819" stroke="url(#paint2_linear)" stroke-opacity="0.2" stroke-width="1.81818" stroke-linecap="round" stroke-linejoin="round"/>
<path d="M17.2728 30L15.4546 33.1818" stroke="#63A1FF" stroke-width="1.81818" stroke-linecap="round" stroke-linejoin="round"/>
<path d="M17.2728 30L15.4546 33.1818" stroke="url(#paint3_linear)" stroke-opacity="0.2" stroke-width="1.81818" stroke-linecap="round" stroke-linejoin="round"/>
<path fill-rule="evenodd" clip-rule="evenodd" d="M24.7483 37.6235C25.0756 37.6235 25.3047 37.3214 25.272 36.969L25.1247 35.3749L26.4177 36.3146C26.6796 36.516 27.056 36.4489 27.236 36.1636C27.4161 35.8783 27.3015 35.4756 26.9578 35.3078L25.5502 34.6534L26.9742 33.9486C27.3015 33.7976 27.3997 33.4116 27.2524 33.1264C27.0887 32.8411 26.6796 32.774 26.4177 32.9754L25.1411 33.915L25.2884 32.3209C25.3211 31.9518 25.0756 31.6665 24.7483 31.6665C24.3718 31.6665 24.1591 31.9518 24.1754 32.3209L24.3064 33.915L23.0298 32.9754C22.7679 32.774 22.3915 32.8243 22.2114 33.1264C22.0478 33.4116 22.146 33.7808 22.4897 33.9486L23.8972 34.6366L22.4733 35.3246C22.146 35.4756 22.0314 35.8615 22.1951 36.1636C22.3587 36.4656 22.7679 36.516 23.0298 36.3146L24.3064 35.3917L24.1918 36.969C24.1591 37.3214 24.3718 37.6235 24.7483 37.6235Z" fill="#63A1FF"/>
<defs>
<linearGradient id="paint0_linear" x1="31.8183" y1="0.90918" x2="31.8183" y2="17.2728" gradientUnits="userSpaceOnUse">
<stop stop-color="white"/>
<stop offset="1" stop-color="white" stop-opacity="0"/>
</linearGradient>
<linearGradient id="paint1_linear" x1="20" y1="7.27271" x2="20" y2="27.2727" gradientUnits="userSpaceOnUse">
<stop stop-color="white"/>
<stop offset="1" stop-color="white" stop-opacity="0"/>
</linearGradient>
<linearGradient id="paint2_linear" x1="9.09098" y1="32.2728" x2="9.09098" y2="37.2728" gradientUnits="userSpaceOnUse">
<stop stop-color="#5200FF"/>
<stop offset="1" stop-color="#5200FF" stop-opacity="0"/>
</linearGradient>
<linearGradient id="paint3_linear" x1="16.3637" y1="29.0909" x2="16.3637" y2="34.0909" gradientUnits="userSpaceOnUse">
<stop stop-color="#5200FF"/>
<stop offset="1" stop-color="#5200FF" stop-opacity="0"/>
</linearGradient>
</defs>
</svg>
