<svg viewBox="0 0 40 40" fill="none" xmlns="http://www.w3.org/2000/svg">
<path d="M12.5708 35.0479C12.8912 35.0479 13.1154 34.7459 13.0834 34.3935L12.9392 32.7994L14.2047 33.7391C14.461 33.9404 14.8454 33.8733 15.0056 33.588C15.1818 33.3028 15.0697 32.9 14.7333 32.7322L13.3557 32.0778L14.7493 31.373C15.0697 31.222 15.1658 30.8361 15.0216 30.5508C14.8614 30.2656 14.461 30.1984 14.2047 30.3998L12.9552 31.3395L13.0994 29.7454C13.1314 29.3762 12.8912 29.0909 12.5708 29.0909C12.2024 29.0909 11.9941 29.3762 12.0102 29.7454L12.1543 31.3395L10.8889 30.3998C10.6326 30.1984 10.2642 30.2488 10.088 30.5508C9.92778 30.8361 10.0239 31.2052 10.3603 31.373L11.7378 32.061L10.3603 32.749C10.0239 32.9 9.91176 33.286 10.0719 33.588C10.2321 33.8901 10.6326 33.9404 10.8889 33.7391L12.1543 32.8161L12.0262 34.3935C11.9941 34.7459 12.2024 35.0479 12.5708 35.0479Z" fill="#63A1FF"/>
<path d="M24.1492 39.0909C24.4695 39.0909 24.6938 38.7888 24.6618 38.4364L24.5176 36.8423L25.783 37.782C26.0393 37.9834 26.4238 37.9163 26.5839 37.631C26.7601 37.3457 26.648 36.943 26.3116 36.7752L24.9341 36.1208L26.3277 35.416C26.648 35.265 26.7441 34.879 26.6 34.5938C26.4398 34.3085 26.0393 34.2414 25.783 34.4428L24.5336 35.3825L24.6778 33.7883C24.7098 33.4192 24.4695 33.1339 24.1492 33.1339C23.7807 33.1339 23.5725 33.4192 23.5885 33.7883L23.7167 35.3825L22.4672 34.4428C22.211 34.2414 21.8425 34.2917 21.6663 34.5938C21.5061 34.879 21.6023 35.2482 21.9386 35.416L23.3162 36.104L21.9386 36.792C21.6023 36.943 21.4901 37.329 21.6503 37.631C21.8105 37.933 22.211 37.9834 22.4672 37.782L23.7167 36.8591L23.6045 38.4364C23.5725 38.7888 23.7807 39.0909 24.1492 39.0909Z" fill="#63A1FF"/>
<path d="M36.3932 11.8512C37.3905 11.8512 38.396 11.6446 39.0193 11.4297C39.2105 11.3471 39.3434 11.314 39.4847 11.314C39.7507 11.314 40 11.5289 40 11.8512C40 11.9669 39.9751 12.1818 39.8836 12.3967C38.7949 15.157 35.7117 17.2727 32.188 17.2727C27.3263 17.2727 23.6364 13.7934 23.6364 8.94212C23.6364 5.49583 25.6974 2.2479 28.7889 1.0165C28.9967 0.942115 29.1962 0.909058 29.3208 0.909058C29.6616 0.909058 29.8527 1.16526 29.8527 1.42972C29.8527 1.52228 29.8367 1.636 29.7793 1.7878L29.728 1.90906C29.4289 2.57848 29.2045 3.84294 29.2045 4.79336C29.2045 9.14046 31.9969 11.8512 36.3932 11.8512Z" fill="#A45CFF"/>
<path d="M36.3932 11.8512C37.3905 11.8512 38.396 11.6446 39.0193 11.4297C39.2105 11.3471 39.3434 11.314 39.4847 11.314C39.7507 11.314 40 11.5289 40 11.8512C40 11.9669 39.9751 12.1818 39.8836 12.3967C38.7949 15.157 35.7117 17.2727 32.188 17.2727C27.3263 17.2727 23.6364 13.7934 23.6364 8.94212C23.6364 5.49583 25.6974 2.2479 28.7889 1.0165C28.9967 0.942115 29.1962 0.909058 29.3208 0.909058C29.6616 0.909058 29.8527 1.16526 29.8527 1.42972C29.8527 1.52228 29.8367 1.636 29.7793 1.7878L29.728 1.90906C29.4289 2.57848 29.2045 3.84294 29.2045 4.79336C29.2045 9.14046 31.9969 11.8512 36.3932 11.8512Z" fill="url(#paint0_linear)" fill-opacity="0.5"/>
<path d="M10.945 27.2727C7.15366 27.2727 4.54541 24.9267 4.54541 21.5453C4.54541 18.8848 6.27976 16.7222 8.90145 15.9752C9.37201 11.0473 13.5936 7.27271 18.6219 7.27271C22.4536 7.27271 25.6131 9.1862 27.3474 12.5807C31.9589 12.5414 35.4545 15.7 35.4545 19.907C35.4545 24.0486 32.0799 27.2727 27.7104 27.2727H10.945Z" fill="#CAE6FA"/>
<path d="M10.945 27.2727C7.15366 27.2727 4.54541 24.9267 4.54541 21.5453C4.54541 18.8848 6.27976 16.7222 8.90145 15.9752C9.37201 11.0473 13.5936 7.27271 18.6219 7.27271C22.4536 7.27271 25.6131 9.1862 27.3474 12.5807C31.9589 12.5414 35.4545 15.7 35.4545 19.907C35.4545 24.0486 32.0799 27.2727 27.7104 27.2727H10.945Z" fill="url(#paint1_linear)" fill-opacity="0.5"/>
<defs>
<linearGradient id="paint0_linear" x1="31.8182" y1="0.909058" x2="31.8182" y2="17.2727" gradientUnits="userSpaceOnUse">
<stop stop-color="white"/>
<stop offset="1" stop-color="white" stop-opacity="0"/>
</linearGradient>
<linearGradient id="paint1_linear" x1="20" y1="7.27271" x2="20" y2="27.2727" gradientUnits="userSpaceOnUse">
<stop stop-color="white"/>
<stop offset="1" stop-color="white" stop-opacity="0"/>
</linearGradient>
</defs>
</svg>
