<svg viewBox="0 0 40 40" fill="none" xmlns="http://www.w3.org/2000/svg">
<path d="M36.3932 11.8513C37.3905 11.8513 38.396 11.6447 39.0193 11.4298C39.2105 11.3472 39.3434 11.3141 39.4847 11.3141C39.7507 11.3141 40 11.529 40 11.8513C40 11.967 39.9751 12.1819 39.8836 12.3968C38.7949 15.1571 35.7117 17.2728 32.188 17.2728C27.3263 17.2728 23.6364 13.7935 23.6364 8.94224C23.6364 5.49596 25.6974 2.24802 28.7889 1.01662C28.9967 0.942238 29.1962 0.90918 29.3208 0.90918C29.6616 0.90918 29.8527 1.16538 29.8527 1.42984C29.8527 1.5224 29.8368 1.63612 29.7793 1.78792L29.728 1.90918C29.4289 2.5786 29.2045 3.84306 29.2045 4.79348C29.2045 9.14058 31.9969 11.8513 36.3932 11.8513Z" fill="#A45CFF"/>
<path d="M36.3932 11.8513C37.3905 11.8513 38.396 11.6447 39.0193 11.4298C39.2105 11.3472 39.3434 11.3141 39.4847 11.3141C39.7507 11.3141 40 11.529 40 11.8513C40 11.967 39.9751 12.1819 39.8836 12.3968C38.7949 15.1571 35.7117 17.2728 32.188 17.2728C27.3263 17.2728 23.6364 13.7935 23.6364 8.94224C23.6364 5.49596 25.6974 2.24802 28.7889 1.01662C28.9967 0.942238 29.1962 0.90918 29.3208 0.90918C29.6616 0.90918 29.8527 1.16538 29.8527 1.42984C29.8527 1.5224 29.8368 1.63612 29.7793 1.78792L29.728 1.90918C29.4289 2.5786 29.2045 3.84306 29.2045 4.79348C29.2045 9.14058 31.9969 11.8513 36.3932 11.8513Z" fill="url(#paint0_linear)" fill-opacity="0.5"/>
<path d="M10.945 27.2727C7.15366 27.2727 4.54541 24.9267 4.54541 21.5453C4.54541 18.8848 6.27976 16.7222 8.90145 15.9752C9.37201 11.0473 13.5936 7.27271 18.6219 7.27271C22.4536 7.27271 25.6131 9.1862 27.3474 12.5807C31.9589 12.5414 35.4545 15.7 35.4545 19.907C35.4545 24.0486 32.0799 27.2727 27.7104 27.2727H10.945Z" fill="#CAE6FA"/>
<path d="M10.945 27.2727C7.15366 27.2727 4.54541 24.9267 4.54541 21.5453C4.54541 18.8848 6.27976 16.7222 8.90145 15.9752C9.37201 11.0473 13.5936 7.27271 18.6219 7.27271C22.4536 7.27271 25.6131 9.1862 27.3474 12.5807C31.9589 12.5414 35.4545 15.7 35.4545 19.907C35.4545 24.0486 32.0799 27.2727 27.7104 27.2727H10.945Z" fill="url(#paint1_linear)" fill-opacity="0.5"/>
<path d="M7.27271 36.3636L9.09089 33.1818" stroke="#63A1FF" stroke-width="1.65289" stroke-linecap="round" stroke-linejoin="round"/>
<path d="M7.27271 36.3636L9.09089 33.1818" stroke="url(#paint2_linear)" stroke-opacity="0.2" stroke-width="1.65289" stroke-linecap="round" stroke-linejoin="round"/>
<path d="M15.4545 30L13.6364 33.1818" stroke="#63A1FF" stroke-width="1.65289" stroke-linecap="round" stroke-linejoin="round"/>
<path d="M15.4545 30L13.6364 33.1818" stroke="url(#paint3_linear)" stroke-opacity="0.2" stroke-width="1.65289" stroke-linecap="round" stroke-linejoin="round"/>
<path d="M18.1818 36.3636L19.9999 33.1818" stroke="#63A1FF" stroke-width="1.65289" stroke-linecap="round" stroke-linejoin="round"/>
<path d="M18.1818 36.3636L19.9999 33.1818" stroke="url(#paint4_linear)" stroke-opacity="0.2" stroke-width="1.65289" stroke-linecap="round" stroke-linejoin="round"/>
<path d="M26.3636 30L24.5454 33.1818" stroke="#63A1FF" stroke-width="1.65289" stroke-linecap="round" stroke-linejoin="round"/>
<path d="M26.3636 30L24.5454 33.1818" stroke="url(#paint5_linear)" stroke-opacity="0.2" stroke-width="1.65289" stroke-linecap="round" stroke-linejoin="round"/>
<defs>
<linearGradient id="paint0_linear" x1="31.8182" y1="0.90918" x2="31.8182" y2="17.2728" gradientUnits="userSpaceOnUse">
<stop stop-color="white"/>
<stop offset="1" stop-color="white" stop-opacity="0"/>
</linearGradient>
<linearGradient id="paint1_linear" x1="20" y1="7.27271" x2="20" y2="27.2727" gradientUnits="userSpaceOnUse">
<stop stop-color="white"/>
<stop offset="1" stop-color="white" stop-opacity="0"/>
</linearGradient>
<linearGradient id="paint2_linear" x1="8.1818" y1="32.2727" x2="8.1818" y2="37.2727" gradientUnits="userSpaceOnUse">
<stop stop-color="#5200FF"/>
<stop offset="1" stop-color="#5200FF" stop-opacity="0"/>
</linearGradient>
<linearGradient id="paint3_linear" x1="14.5454" y1="29.0909" x2="14.5454" y2="34.0909" gradientUnits="userSpaceOnUse">
<stop stop-color="#5200FF"/>
<stop offset="1" stop-color="#5200FF" stop-opacity="0"/>
</linearGradient>
<linearGradient id="paint4_linear" x1="19.0909" y1="32.2727" x2="19.0909" y2="37.2727" gradientUnits="userSpaceOnUse">
<stop stop-color="#5200FF"/>
<stop offset="1" stop-color="#5200FF" stop-opacity="0"/>
</linearGradient>
<linearGradient id="paint5_linear" x1="25.4545" y1="29.0909" x2="25.4545" y2="34.0909" gradientUnits="userSpaceOnUse">
<stop stop-color="#5200FF"/>
<stop offset="1" stop-color="#5200FF" stop-opacity="0"/>
</linearGradient>
</defs>
</svg>
