<svg viewBox="0 0 41 40" fill="none" xmlns="http://www.w3.org/2000/svg">
<path d="M13.5458 35.0479C13.8661 35.0479 14.0904 34.7459 14.0584 34.3935L13.9142 32.7994L15.1796 33.7391C15.4359 33.9404 15.8204 33.8733 15.9806 33.588C16.1568 33.3028 16.0446 32.9 15.7082 32.7322L14.3307 32.0778L15.7243 31.373C16.0446 31.222 16.1407 30.8361 15.9966 30.5508C15.8364 30.2656 15.4359 30.1984 15.1796 30.3998L13.9302 31.3395L14.0744 29.7454C14.1064 29.3762 13.8661 29.0909 13.5458 29.0909C13.1774 29.0909 12.9691 29.3762 12.9851 29.7454L13.1293 31.3395L11.8639 30.3998C11.6076 30.1984 11.2391 30.2488 11.0629 30.5508C10.9028 30.8361 10.9989 31.2052 11.3352 31.373L12.7128 32.061L11.3352 32.749C10.9989 32.9 10.8867 33.286 11.0469 33.588C11.2071 33.8901 11.6076 33.9404 11.8639 33.7391L13.1293 32.8161L13.0011 34.3935C12.9691 34.7459 13.1774 35.0479 13.5458 35.0479Z" fill="#63A1FF"/>
<path d="M25.1241 39.0909C25.4445 39.0909 25.6688 38.7888 25.6367 38.4364L25.4926 36.8423L26.758 37.782C27.0143 37.9834 27.3987 37.9163 27.5589 37.631C27.7351 37.3457 27.623 36.943 27.2866 36.7752L25.909 36.1208L27.3026 35.416C27.623 35.265 27.7191 34.879 27.5749 34.5938C27.4148 34.3085 27.0143 34.2414 26.758 34.4428L25.5086 35.3825L25.6527 33.7883C25.6848 33.4192 25.4445 33.1339 25.1241 33.1339C24.7557 33.1339 24.5475 33.4192 24.5635 33.7883L24.6916 35.3825L23.4422 34.4428C23.1859 34.2414 22.8175 34.2917 22.6413 34.5938C22.4811 34.879 22.5772 35.2482 22.9136 35.416L24.2912 36.104L22.9136 36.792C22.5772 36.943 22.4651 37.329 22.6253 37.631C22.7855 37.933 23.1859 37.9834 23.4422 37.782L24.6916 36.8591L24.5795 38.4364C24.5475 38.7888 24.7557 39.0909 25.1241 39.0909Z" fill="#63A1FF"/>
<path d="M11.6701 27.2727C7.87876 27.2727 5.27051 24.9267 5.27051 21.5453C5.27051 18.8848 7.00486 16.7222 9.62655 15.9752C10.0971 11.0473 14.3187 7.27271 19.347 7.27271C23.1787 7.27271 26.3382 9.1862 28.0725 12.5807C32.684 12.5414 36.1796 15.7 36.1796 19.907C36.1796 24.0486 32.805 27.2727 28.4355 27.2727H11.6701Z" fill="#CAE6FA"/>
<path d="M11.6701 27.2727C7.87876 27.2727 5.27051 24.9267 5.27051 21.5453C5.27051 18.8848 7.00486 16.7222 9.62655 15.9752C10.0971 11.0473 14.3187 7.27271 19.347 7.27271C23.1787 7.27271 26.3382 9.1862 28.0725 12.5807C32.684 12.5414 36.1796 15.7 36.1796 19.907C36.1796 24.0486 32.805 27.2727 28.4355 27.2727H11.6701Z" fill="url(#paint0_linear)" fill-opacity="0.5"/>
<defs>
<linearGradient id="paint0_linear" x1="20.7251" y1="7.27271" x2="20.7251" y2="27.2727" gradientUnits="userSpaceOnUse">
<stop stop-color="white"/>
<stop offset="1" stop-color="white" stop-opacity="0"/>
</linearGradient>
</defs>
</svg>
