<svg viewBox="0 0 40 40" fill="none" xmlns="http://www.w3.org/2000/svg">
<path d="M36.3932 11.8512C37.3905 11.8512 38.396 11.6446 39.0193 11.4297C39.2105 11.3471 39.3434 11.314 39.4847 11.314C39.7507 11.314 40 11.5289 40 11.8512C40 11.9669 39.9751 12.1818 39.8836 12.3967C38.7949 15.157 35.7117 17.2727 32.188 17.2727C27.3263 17.2727 23.6364 13.7934 23.6364 8.94212C23.6364 5.49583 25.6974 2.2479 28.7889 1.0165C28.9967 0.942115 29.1962 0.909058 29.3208 0.909058C29.6616 0.909058 29.8527 1.16526 29.8527 1.42972C29.8527 1.52228 29.8367 1.636 29.7793 1.7878L29.728 1.90906C29.4289 2.57848 29.2045 3.84294 29.2045 4.79336C29.2045 9.14046 31.9969 11.8512 36.3932 11.8512Z" fill="#A45CFF"/>
<path d="M36.3932 11.8512C37.3905 11.8512 38.396 11.6446 39.0193 11.4297C39.2105 11.3471 39.3434 11.314 39.4847 11.314C39.7507 11.314 40 11.5289 40 11.8512C40 11.9669 39.9751 12.1818 39.8836 12.3967C38.7949 15.157 35.7117 17.2727 32.188 17.2727C27.3263 17.2727 23.6364 13.7934 23.6364 8.94212C23.6364 5.49583 25.6974 2.2479 28.7889 1.0165C28.9967 0.942115 29.1962 0.909058 29.3208 0.909058C29.6616 0.909058 29.8527 1.16526 29.8527 1.42972C29.8527 1.52228 29.8367 1.636 29.7793 1.7878L29.728 1.90906C29.4289 2.57848 29.2045 3.84294 29.2045 4.79336C29.2045 9.14046 31.9969 11.8512 36.3932 11.8512Z" fill="url(#paint0_linear)" fill-opacity="0.5"/>
<path d="M10.945 27.2727C7.15366 27.2727 4.54541 24.9267 4.54541 21.5453C4.54541 18.8848 6.27976 16.7222 8.90145 15.9752C9.37201 11.0473 13.5936 7.27271 18.6219 7.27271C22.4536 7.27271 25.6131 9.1862 27.3474 12.5807C31.9589 12.5414 35.4545 15.7 35.4545 19.907C35.4545 24.0486 32.0799 27.2727 27.7104 27.2727H10.945Z" fill="#CAE6FA"/>
<path d="M10.945 27.2727C7.15366 27.2727 4.54541 24.9267 4.54541 21.5453C4.54541 18.8848 6.27976 16.7222 8.90145 15.9752C9.37201 11.0473 13.5936 7.27271 18.6219 7.27271C22.4536 7.27271 25.6131 9.1862 27.3474 12.5807C31.9589 12.5414 35.4545 15.7 35.4545 19.907C35.4545 24.0486 32.0799 27.2727 27.7104 27.2727H10.945Z" fill="url(#paint1_linear)" fill-opacity="0.5"/>
<path fill-rule="evenodd" clip-rule="evenodd" d="M23.8606 34.3935C23.8933 34.7459 23.6642 35.0479 23.3368 35.0479C22.9604 35.0479 22.7476 34.7459 22.7804 34.3935L22.8949 32.8161L21.6183 33.7391C21.3565 33.9404 20.9473 33.8901 20.7836 33.588C20.62 33.286 20.7345 32.9 21.0619 32.749L22.4858 32.061L21.0782 31.373C20.7345 31.2052 20.6363 30.8361 20.8 30.5508C20.98 30.2488 21.3565 30.1984 21.6183 30.3998L22.8949 31.3395L22.764 29.7454C22.7476 29.3762 22.9604 29.0909 23.3368 29.0909C23.6642 29.0909 23.9097 29.3762 23.8769 29.7454L23.7296 31.3395L25.0063 30.3998C25.2681 30.1984 25.6773 30.2656 25.841 30.5508C25.9883 30.8361 25.8901 31.222 25.5627 31.373L24.1388 32.0778L25.5464 32.7322C25.8901 32.9 26.0046 33.3028 25.8246 33.588C25.6446 33.8733 25.2681 33.9404 25.0063 33.7391L23.7133 32.7994L23.8606 34.3935ZM14.7934 38.4364C14.8261 38.7888 14.597 39.0909 14.2697 39.0909C13.8932 39.0909 13.6805 38.7888 13.7132 38.4364L13.8278 36.8591L12.5512 37.782C12.2893 37.9834 11.8801 37.933 11.7165 37.631C11.5528 37.329 11.6674 36.943 12.0111 36.792L13.4186 36.104L12.0111 35.416C11.6674 35.2482 11.5692 34.879 11.7328 34.5938C11.9129 34.2917 12.2893 34.2414 12.5512 34.4428L13.8278 35.3825L13.6968 33.7883C13.6805 33.4192 13.8932 33.1339 14.2697 33.1339C14.597 33.1339 14.8425 33.4192 14.8098 33.7883L14.6625 35.3825L15.9391 34.4428C16.2009 34.2414 16.6101 34.3085 16.7738 34.5938C16.9211 34.879 16.8229 35.265 16.4955 35.416L15.0716 36.1208L16.4792 36.7752C16.8229 36.943 16.9374 37.3457 16.7574 37.631C16.5937 37.9163 16.2009 37.9834 15.9391 37.782L14.6461 36.8423L14.7934 38.4364Z" fill="#63A1FF"/>
<circle cx="14.2425" cy="30.6089" r="1.09091" fill="#96C0FF"/>
<circle cx="23.3053" cy="37.5728" r="1.09091" fill="#96C0FF"/>
<defs>
<linearGradient id="paint0_linear" x1="31.8182" y1="0.909058" x2="31.8182" y2="17.2727" gradientUnits="userSpaceOnUse">
<stop stop-color="white"/>
<stop offset="1" stop-color="white" stop-opacity="0"/>
</linearGradient>
<linearGradient id="paint1_linear" x1="20" y1="7.27271" x2="20" y2="27.2727" gradientUnits="userSpaceOnUse">
<stop stop-color="white"/>
<stop offset="1" stop-color="white" stop-opacity="0"/>
</linearGradient>
</defs>
</svg>
