<svg viewBox="0 0 41 40" fill="none" xmlns="http://www.w3.org/2000/svg">
<path fill-rule="evenodd" clip-rule="evenodd" d="M24.8354 34.3935C24.8682 34.7459 24.639 35.0479 24.3117 35.0479C23.9353 35.0479 23.7225 34.7459 23.7552 34.3935L23.8698 32.8161L22.5932 33.7391C22.3313 33.9404 21.9221 33.8901 21.7585 33.588C21.5948 33.286 21.7094 32.9 22.0367 32.749L23.4606 32.061L22.0531 31.373C21.7094 31.2052 21.6112 30.8361 21.7748 30.5508C21.9549 30.2488 22.3313 30.1984 22.5932 30.3998L23.8698 31.3395L23.7389 29.7454C23.7225 29.3762 23.9353 29.0909 24.3117 29.0909C24.639 29.0909 24.8845 29.3762 24.8518 29.7454L24.7045 31.3395L25.9811 30.3998C26.243 30.1984 26.6521 30.2656 26.8158 30.5508C26.9631 30.8361 26.8649 31.222 26.5376 31.373L25.1137 32.0778L26.5212 32.7322C26.8649 32.9 26.9795 33.3028 26.7994 33.588C26.6194 33.8733 26.243 33.9404 25.9811 33.7391L24.6881 32.7994L24.8354 34.3935ZM15.7683 38.4364C15.801 38.7888 15.5719 39.0909 15.2445 39.0909C14.8681 39.0909 14.6553 38.7888 14.6881 38.4364L14.8026 36.8591L13.526 37.782C13.2641 37.9834 12.855 37.933 12.6913 37.631C12.5276 37.329 12.6422 36.943 12.9859 36.792L14.3934 36.104L12.9859 35.416C12.6422 35.2482 12.544 34.879 12.7077 34.5938C12.8877 34.2917 13.2641 34.2414 13.526 34.4428L14.8026 35.3825L14.6717 33.7883C14.6553 33.4192 14.8681 33.1339 15.2445 33.1339C15.5719 33.1339 15.8174 33.4192 15.7846 33.7883L15.6373 35.3825L16.9139 34.4428C17.1758 34.2414 17.585 34.3085 17.7486 34.5938C17.8959 34.879 17.7977 35.265 17.4704 35.416L16.0465 36.1208L17.454 36.7752C17.7977 36.943 17.9123 37.3457 17.7323 37.631C17.5686 37.9163 17.1758 37.9834 16.9139 37.782L15.621 36.8423L15.7683 38.4364Z" fill="#63A1FF"/>
<circle cx="15.2175" cy="30.6089" r="1.09091" fill="#96C0FF"/>
<circle cx="24.2802" cy="37.5728" r="1.09091" fill="#96C0FF"/>
<path d="M11.6701 27.2727C7.87876 27.2727 5.27051 24.9267 5.27051 21.5453C5.27051 18.8848 7.00486 16.7222 9.62655 15.9752C10.0971 11.0473 14.3187 7.27271 19.347 7.27271C23.1787 7.27271 26.3382 9.1862 28.0725 12.5807C32.684 12.5414 36.1796 15.7 36.1796 19.907C36.1796 24.0486 32.805 27.2727 28.4355 27.2727H11.6701Z" fill="#CAE6FA"/>
<path d="M11.6701 27.2727C7.87876 27.2727 5.27051 24.9267 5.27051 21.5453C5.27051 18.8848 7.00486 16.7222 9.62655 15.9752C10.0971 11.0473 14.3187 7.27271 19.347 7.27271C23.1787 7.27271 26.3382 9.1862 28.0725 12.5807C32.684 12.5414 36.1796 15.7 36.1796 19.907C36.1796 24.0486 32.805 27.2727 28.4355 27.2727H11.6701Z" fill="url(#paint0_linear)" fill-opacity="0.5"/>
<defs>
<linearGradient id="paint0_linear" x1="20.7251" y1="7.27271" x2="20.7251" y2="27.2727" gradientUnits="userSpaceOnUse">
<stop stop-color="white"/>
<stop offset="1" stop-color="white" stop-opacity="0"/>
</linearGradient>
</defs>
</svg>
