<svg viewBox="0 0 40 40" fill="none" xmlns="http://www.w3.org/2000/svg">
<path d="M36.3933 11.8513C37.3906 11.8513 38.3962 11.6447 39.0195 11.4298C39.2106 11.3472 39.3436 11.3141 39.4849 11.3141C39.7508 11.3141 40.0001 11.529 40.0001 11.8513C40.0001 11.967 39.9752 12.1819 39.8838 12.3968C38.7951 15.1571 35.7118 17.2728 32.1881 17.2728C27.3264 17.2728 23.6365 13.7935 23.6365 8.94224C23.6365 5.49596 25.6975 2.24802 28.7891 1.01662C28.9968 0.942238 29.1963 0.90918 29.3209 0.90918C29.6617 0.90918 29.8528 1.16538 29.8528 1.42984C29.8528 1.5224 29.8369 1.63612 29.7794 1.78792L29.7282 1.90918C29.429 2.5786 29.2046 3.84306 29.2046 4.79348C29.2046 9.14058 31.997 11.8513 36.3933 11.8513Z" fill="#A45CFF"/>
<path d="M36.3933 11.8513C37.3906 11.8513 38.3962 11.6447 39.0195 11.4298C39.2106 11.3472 39.3436 11.3141 39.4849 11.3141C39.7508 11.3141 40.0001 11.529 40.0001 11.8513C40.0001 11.967 39.9752 12.1819 39.8838 12.3968C38.7951 15.1571 35.7118 17.2728 32.1881 17.2728C27.3264 17.2728 23.6365 13.7935 23.6365 8.94224C23.6365 5.49596 25.6975 2.24802 28.7891 1.01662C28.9968 0.942238 29.1963 0.90918 29.3209 0.90918C29.6617 0.90918 29.8528 1.16538 29.8528 1.42984C29.8528 1.5224 29.8369 1.63612 29.7794 1.78792L29.7282 1.90918C29.429 2.5786 29.2046 3.84306 29.2046 4.79348C29.2046 9.14058 31.997 11.8513 36.3933 11.8513Z" fill="url(#paint0_linear)" fill-opacity="0.5"/>
<path d="M10.945 27.2727C7.15366 27.2727 4.54541 24.9267 4.54541 21.5453C4.54541 18.8848 6.27976 16.7222 8.90145 15.9752C9.37201 11.0473 13.5936 7.27271 18.6219 7.27271C22.4536 7.27271 25.6131 9.1862 27.3474 12.5807C31.9589 12.5414 35.4545 15.7 35.4545 19.907C35.4545 24.0486 32.0799 27.2727 27.7104 27.2727H10.945Z" fill="#CAE6FA"/>
<path d="M10.945 27.2727C7.15366 27.2727 4.54541 24.9267 4.54541 21.5453C4.54541 18.8848 6.27976 16.7222 8.90145 15.9752C9.37201 11.0473 13.5936 7.27271 18.6219 7.27271C22.4536 7.27271 25.6131 9.1862 27.3474 12.5807C31.9589 12.5414 35.4545 15.7 35.4545 19.907C35.4545 24.0486 32.0799 27.2727 27.7104 27.2727H10.945Z" fill="url(#paint1_linear)" fill-opacity="0.5"/>
<path d="M14.3409 29.9616C14.8354 29.692 15.4757 30.0129 15.4539 30.5194L15.3952 31.8831C15.3653 32.5782 14.9415 33.2154 14.263 33.5854L12.9317 34.3114C12.4372 34.581 11.7969 34.2601 11.8187 33.7536L11.8773 32.3899C11.9073 31.6948 12.3311 31.0576 13.0096 30.6876L14.3409 29.9616Z" fill="#63A1FF"/>
<path d="M14.3409 29.9616C14.8354 29.692 15.4757 30.0129 15.4539 30.5194L15.3952 31.8831C15.3653 32.5782 14.9415 33.2154 14.263 33.5854L12.9317 34.3114C12.4372 34.581 11.7969 34.2601 11.8187 33.7536L11.8773 32.3899C11.9073 31.6948 12.3311 31.0576 13.0096 30.6876L14.3409 29.9616Z" fill="url(#paint2_linear)" fill-opacity="0.2"/>
<path d="M23.432 29.9616C23.9264 29.692 24.5668 30.0129 24.545 30.5194L24.4863 31.8831C24.4564 32.5782 24.0325 33.2154 23.3541 33.5854L22.0227 34.3114C21.5283 34.581 20.8879 34.2601 20.9097 33.7536L20.9684 32.3899C20.9983 31.6948 21.4222 31.0576 22.1007 30.6876L23.432 29.9616Z" fill="#63A1FF"/>
<path d="M23.432 29.9616C23.9264 29.692 24.5668 30.0129 24.545 30.5194L24.4863 31.8831C24.4564 32.5782 24.0325 33.2154 23.3541 33.5854L22.0227 34.3114C21.5283 34.581 20.8879 34.2601 20.9097 33.7536L20.9684 32.3899C20.9983 31.6948 21.4222 31.0576 22.1007 30.6876L23.432 29.9616Z" fill="url(#paint3_linear)" fill-opacity="0.2"/>
<defs>
<linearGradient id="paint0_linear" x1="31.8183" y1="0.90918" x2="31.8183" y2="17.2728" gradientUnits="userSpaceOnUse">
<stop stop-color="white"/>
<stop offset="1" stop-color="white" stop-opacity="0"/>
</linearGradient>
<linearGradient id="paint1_linear" x1="20" y1="7.27271" x2="20" y2="27.2727" gradientUnits="userSpaceOnUse">
<stop stop-color="white"/>
<stop offset="1" stop-color="white" stop-opacity="0"/>
</linearGradient>
<linearGradient id="paint2_linear" x1="13.6363" y1="29.8638" x2="13.6363" y2="34.4092" gradientUnits="userSpaceOnUse">
<stop stop-color="white" stop-opacity="0"/>
<stop offset="1" stop-color="white"/>
</linearGradient>
<linearGradient id="paint3_linear" x1="22.7274" y1="29.8638" x2="22.7274" y2="34.4092" gradientUnits="userSpaceOnUse">
<stop stop-color="white" stop-opacity="0"/>
<stop offset="1" stop-color="white"/>
</linearGradient>
</defs>
</svg>
