<svg width="102" height="30" viewBox="0 0 102 30" fill="none" xmlns="http://www.w3.org/2000/svg">
<g clip-path="url(#clip0_2277_5349)">
<path d="M65.9507 3.82047L66.076 8.83091H63.2576V-0.0626221H67.1407L68.7691 4.6973H68.8317L70.2096 -0.0626221H74.218V8.83091H71.337L71.3996 3.82047H71.337L69.7086 8.83091H67.6418L66.0134 3.82047H65.9507ZM78.3516 -0.0626221H81.4831L84.9278 8.83091H81.671L81.2326 7.51567H78.4142L77.9758 8.83091H74.8443L78.3516 -0.0626221ZM79.9174 3.0689L79.1658 5.26097H80.6063L79.9174 3.0689ZM88.5604 5.26097V8.76828H85.6794V-0.0626221H88.5604V3.19416L90.9404 -0.0626221H94.4477L91.1283 4.00836L94.6356 8.83091H90.9404L88.5604 5.26097ZM95.1992 -0.0626221H101.274V2.4426H97.955V3.19416H101.024V5.51149H97.955V6.32569H101.462V8.83091H95.1366L95.1992 -0.0626221ZM67.266 19.5407C66.6397 19.5407 66.0134 19.4781 65.4497 19.2276C64.9486 19.0397 64.5102 18.7892 64.1344 18.4134C63.8213 18.1002 63.5081 17.6618 63.3829 17.2234C63.195 16.7224 63.1324 16.2213 63.1324 15.7829V10.3967H66.1386V15.4697C66.1386 15.9082 66.2639 16.2213 66.4518 16.4718C66.9528 16.9729 67.7044 16.9729 68.2054 16.4718C68.3933 16.2213 68.5186 15.9082 68.5186 15.4697V10.3967H71.5249V15.7829C71.5249 16.2839 71.4622 16.785 71.2743 17.2234C71.0864 17.6618 70.8359 18.0376 70.4601 18.4134C70.0844 18.7892 69.6459 19.0397 69.1449 19.2276C68.5186 19.4155 67.8923 19.5407 67.266 19.5407ZM75.909 19.5407C75.5332 19.5407 75.2201 19.4781 74.8443 19.4155C74.5311 19.3528 74.1554 19.2902 73.8422 19.1649C73.529 19.0397 73.2159 18.9144 72.9027 18.7265C72.6522 18.6013 72.4017 18.4134 72.1512 18.1629L73.9675 16.1587C74.218 16.4092 74.4685 16.5971 74.7817 16.785C75.0948 16.9729 75.4706 17.0355 75.8464 17.0355C75.9716 17.0355 76.1595 16.9729 76.2848 16.9729C76.4101 16.9102 76.5353 16.785 76.4727 16.6597C76.4727 16.5971 76.4727 16.5345 76.4101 16.4092C76.3474 16.3466 76.2848 16.2839 76.1595 16.2213C76.0343 16.1587 75.8464 16.0961 75.6585 16.0334C75.4706 15.9708 75.2201 15.8455 74.9069 15.7829C74.5938 15.6576 74.3432 15.5324 74.0301 15.4071C73.7796 15.2819 73.529 15.094 73.2785 14.9061C73.028 14.7182 72.9027 14.4677 72.7775 14.1545C72.6522 13.8414 72.5896 13.4656 72.5896 13.1524C72.5896 12.6514 72.7148 12.1503 72.9027 11.7745C73.1533 11.3988 73.4038 11.0856 73.7796 10.8351C74.1554 10.5846 74.5311 10.3967 74.9696 10.2714C75.408 10.1462 75.8464 10.0835 76.2848 10.0835C76.9111 10.0835 77.4748 10.2088 78.1011 10.3967C78.6648 10.6472 79.2284 10.9603 79.7295 11.3361L77.8506 13.215C77.6627 12.9645 77.4121 12.7766 77.099 12.6514C76.8485 12.5261 76.5979 12.4635 76.2848 12.4635C76.0969 12.4635 75.909 12.4635 75.7838 12.5887C75.6585 12.6514 75.5959 12.7766 75.5959 12.9019C75.5959 13.0272 75.6585 13.1524 75.7838 13.215C76.0343 13.3403 76.2222 13.4029 76.4727 13.4656C76.7858 13.5908 77.099 13.7161 77.4748 13.8414C77.7879 13.9666 78.1637 14.1545 78.4142 14.3424C78.7274 14.5303 78.9779 14.8434 79.1658 15.094C79.3537 15.4697 79.479 15.8455 79.479 16.2213C79.479 16.7224 79.3537 17.1608 79.1658 17.5992C78.9779 17.975 78.6648 18.3507 78.3516 18.6013C78.0385 18.8518 77.6 19.1023 77.1616 19.1649C76.7858 19.4781 76.3474 19.5407 75.909 19.5407ZM80.7316 10.3967H86.8067V12.9019H83.4873V13.6535H86.5562V15.9708H83.4873V16.785H86.9946V19.2902H80.6689V10.3967H80.7316ZM62.8818 25.2401C62.8818 24.5512 63.0071 23.9249 63.2576 23.2986C63.5081 22.7349 63.8213 22.2338 64.2597 21.8581C64.6981 21.4823 65.2618 21.1065 65.8255 20.9186C67.0781 20.4802 68.456 20.4802 69.7086 20.9186C70.2722 21.1065 70.8359 21.4196 71.2743 21.8581C71.7128 22.2338 72.0885 22.7975 72.2764 23.2986C72.527 23.9249 72.6522 24.5512 72.6522 25.2401C72.6522 25.929 72.527 26.5553 72.2764 27.1817C72.0259 27.7453 71.7128 28.2464 71.2743 28.6848C70.8359 29.1232 70.2722 29.4363 69.7086 29.6242C68.456 30.0627 67.0781 30.0627 65.8255 29.6242C65.2618 29.3737 64.6981 29.0606 64.2597 28.6848C63.8213 28.2464 63.4455 27.7453 63.2576 27.1817C63.0071 26.5553 62.8818 25.8664 62.8818 25.2401ZM66.076 25.2401C66.076 25.4906 66.1386 25.8038 66.2013 26.0543C66.2639 26.3048 66.3891 26.4927 66.577 26.6806C66.7023 26.8685 66.8902 26.9938 67.1407 27.0564C67.3912 27.1817 67.5791 27.1817 67.8297 27.1817C68.3307 27.1817 68.7691 26.9938 69.0823 26.618C69.2702 26.4301 69.3954 26.2422 69.4581 25.9917C69.5207 25.7411 69.5833 25.4906 69.5833 25.1775C69.5833 24.927 69.5207 24.6764 69.4581 24.4259C69.3954 24.1754 69.2702 23.9875 69.0823 23.7996C68.957 23.6117 68.7065 23.4865 68.5186 23.4238C68.2681 23.2986 68.0802 23.2986 67.8297 23.2986C67.5791 23.2986 67.3286 23.3612 67.1407 23.4238C66.9528 23.4865 66.7649 23.6743 66.577 23.7996C66.3891 23.9875 66.2639 24.1754 66.2013 24.4259C66.076 24.6764 66.076 24.927 66.076 25.2401ZM76.9111 24.238H79.6042V26.6806H76.9111V29.6869H73.9675V20.856H79.98V23.3612H76.9111V24.238Z" fill="#575F72"/>
<path d="M46.222 10.5846H38.3306V18.8518H46.222V10.5846Z" fill="#575F72"/>
<path d="M60.1263 0H12.2765L0.0634766 12.2129V29.8748H47.9759L60.1889 17.6618V0H60.1263ZM24.3015 19.7912C24.3015 20.2297 23.9884 20.5428 23.4873 20.5428C23.1116 20.6054 22.7358 20.2923 22.6731 19.8539C22.6731 19.7912 22.6731 19.7912 22.6731 19.7286V13.7161C22.6731 13.4029 22.7984 13.0271 22.9863 12.7766L23.2994 12.4008L23.3621 12.3382C23.4873 12.2129 23.6126 12.0877 23.8005 12.0877C23.8631 12.0877 24.3015 12.1503 24.3015 12.714V19.7912ZM24.3015 9.51984C24.3015 9.6451 24.2389 9.77036 24.1763 9.83299L19.2285 15.9708C18.9779 16.2839 18.6648 16.4718 18.4143 16.4718C18.1011 16.4718 17.8506 16.3466 17.6001 15.9708L13.9675 11.5866V19.7286C13.9675 20.2297 13.6543 20.5428 13.1533 20.5428C12.7775 20.6054 12.4017 20.2923 12.3391 19.8539C12.3391 19.7912 12.3391 19.7912 12.3391 19.7286V9.83299C12.2765 9.45721 12.5896 9.08142 13.028 9.01879C13.0907 9.01879 13.0907 9.01879 13.1533 9.01879C13.5917 9.01879 14.0301 9.20669 14.3433 9.58247L18.4769 14.5929L22.5479 9.51984C22.7984 9.20669 23.1116 9.08142 23.4873 9.08142H23.8631C24.1136 9.08142 24.3015 9.26932 24.3015 9.51984ZM35.9508 9.77036V19.1023C35.9508 19.9791 35.4498 20.4802 34.573 20.4802H26.5562C25.6794 20.4802 25.1784 19.9791 25.1784 19.1023V9.77036C25.1784 9.26932 25.4915 8.95616 25.9926 8.95616C26.3684 8.89353 26.7441 9.20669 26.8068 9.6451C26.8068 9.70773 26.8068 9.70773 26.8068 9.77036V18.9144H34.3224V9.77036C34.3224 9.26932 34.6356 8.95616 35.1366 8.95616C35.5124 8.89353 35.8882 9.20669 35.9508 9.6451C35.9508 9.6451 35.9508 9.70773 35.9508 9.77036ZM47.8507 19.0397C47.8507 19.9165 47.3496 20.4175 46.4728 20.4175H38.0803C37.2035 20.4175 36.7024 19.9165 36.7024 19.0397V10.4593C36.7024 9.58247 37.2035 9.08142 38.0803 9.08142H46.4102C47.287 9.08142 47.788 9.58247 47.788 10.4593V19.0397H47.8507Z" fill="#575F72"/>
<path d="M60.1891 30V21.2318L51.4834 30H60.1891Z" fill="#575F72"/>
<path d="M86.995 27.9958H80.7319V30H86.995V27.9958Z" fill="#575F72"/>
</g>
<defs>
<clipPath id="clip0_2277_5349">
<rect width="101.399" height="30" fill="white" transform="translate(0.0634766)"/>
</clipPath>
</defs>
</svg>
