<svg viewBox="0 0 40 40" fill="none" xmlns="http://www.w3.org/2000/svg">
<path fill-rule="evenodd" clip-rule="evenodd" d="M27.0061 14.5454C26.253 14.5454 25.6424 15.1559 25.6424 15.909C25.6424 16.6622 26.253 17.2727 27.0061 17.2727H33.6364C34.3895 17.2727 35 16.6622 35 15.909C35 15.1559 34.3895 14.5454 33.6364 14.5454H27.0061ZM20.701 22.8788C19.9479 22.8788 19.3374 23.4893 19.3374 24.2425C19.3374 24.9956 19.9479 25.6061 20.701 25.6061H31.3142C32.0673 25.6061 32.6778 24.9956 32.6778 24.2425C32.6778 23.4893 32.0673 22.8788 31.3142 22.8788H20.701Z" fill="#CAE6FA"/>
<path fill-rule="evenodd" clip-rule="evenodd" d="M27.0061 14.5454C26.253 14.5454 25.6424 15.1559 25.6424 15.909C25.6424 16.6622 26.253 17.2727 27.0061 17.2727H33.6364C34.3895 17.2727 35 16.6622 35 15.909C35 15.1559 34.3895 14.5454 33.6364 14.5454H27.0061ZM20.701 22.8788C19.9479 22.8788 19.3374 23.4893 19.3374 24.2425C19.3374 24.9956 19.9479 25.6061 20.701 25.6061H31.3142C32.0673 25.6061 32.6778 24.9956 32.6778 24.2425C32.6778 23.4893 32.0673 22.8788 31.3142 22.8788H20.701Z" fill="url(#paint0_linear)" fill-opacity="0.25"/>
<path fill-rule="evenodd" clip-rule="evenodd" d="M10.9046 14.5454C10.1515 14.5454 9.54095 15.1559 9.54095 15.909C9.54095 16.6622 10.1515 17.2727 10.9046 17.2727H20.8821C21.6352 17.2727 22.2457 16.6622 22.2457 15.909C22.2457 15.1559 21.6352 14.5454 20.8821 14.5454H10.9046ZM8.03038 22.8788C7.27727 22.8788 6.66675 23.4893 6.66675 24.2425C6.66675 24.9956 7.27727 25.6061 8.03038 25.6061H14.2607C15.0139 25.6061 15.6244 24.9956 15.6244 24.2425C15.6244 23.4893 15.0139 22.8788 14.2607 22.8788H8.03038Z" fill="#CAE6FA"/>
<path fill-rule="evenodd" clip-rule="evenodd" d="M10.9046 14.5454C10.1515 14.5454 9.54095 15.1559 9.54095 15.909C9.54095 16.6622 10.1515 17.2727 10.9046 17.2727H20.8821C21.6352 17.2727 22.2457 16.6622 22.2457 15.909C22.2457 15.1559 21.6352 14.5454 20.8821 14.5454H10.9046ZM8.03038 22.8788C7.27727 22.8788 6.66675 23.4893 6.66675 24.2425C6.66675 24.9956 7.27727 25.6061 8.03038 25.6061H14.2607C15.0139 25.6061 15.6244 24.9956 15.6244 24.2425C15.6244 23.4893 15.0139 22.8788 14.2607 22.8788H8.03038Z" fill="url(#paint1_linear)" fill-opacity="0.25"/>
<defs>
<linearGradient id="paint0_linear" x1="35.2248" y1="20.2485" x2="19.4873" y2="20.2485" gradientUnits="userSpaceOnUse">
<stop stop-color="white"/>
<stop offset="1" stop-color="white" stop-opacity="0"/>
</linearGradient>
<linearGradient id="paint1_linear" x1="22.4693" y1="20.2485" x2="6.81585" y2="20.2485" gradientUnits="userSpaceOnUse">
<stop stop-color="white"/>
<stop offset="1" stop-color="white" stop-opacity="0"/>
</linearGradient>
</defs>
</svg>
