<svg viewBox="0 0 40 40" fill="none" xmlns="http://www.w3.org/2000/svg">
<path d="M32.0629 18.5326C33.5034 18.5326 34.9559 18.2342 35.8562 17.9238C36.1323 17.8044 36.3244 17.7567 36.5285 17.7567C36.9126 17.7567 37.2727 18.0671 37.2727 18.5326C37.2727 18.6997 37.2367 19.0101 37.1047 19.3205C35.5321 23.3076 31.0785 26.3637 25.9887 26.3637C18.9662 26.3637 13.6364 21.3379 13.6364 14.3306C13.6364 9.35264 16.6134 4.66118 21.079 2.88248C21.3791 2.77505 21.6672 2.72729 21.8473 2.72729C22.3394 2.72729 22.6155 3.09736 22.6155 3.47936C22.6155 3.61306 22.5925 3.77732 22.5095 3.99659L22.4355 4.17174C22.0033 5.13868 21.6792 6.96513 21.6792 8.33795C21.6792 14.6171 25.7126 18.5326 32.0629 18.5326Z" fill="#A45CFF"/>
<path d="M32.0629 18.5326C33.5034 18.5326 34.9559 18.2342 35.8562 17.9238C36.1323 17.8044 36.3244 17.7567 36.5285 17.7567C36.9126 17.7567 37.2727 18.0671 37.2727 18.5326C37.2727 18.6997 37.2367 19.0101 37.1047 19.3205C35.5321 23.3076 31.0785 26.3637 25.9887 26.3637C18.9662 26.3637 13.6364 21.3379 13.6364 14.3306C13.6364 9.35264 16.6134 4.66118 21.079 2.88248C21.3791 2.77505 21.6672 2.72729 21.8473 2.72729C22.3394 2.72729 22.6155 3.09736 22.6155 3.47936C22.6155 3.61306 22.5925 3.77732 22.5095 3.99659L22.4355 4.17174C22.0033 5.13868 21.6792 6.96513 21.6792 8.33795C21.6792 14.6171 25.7126 18.5326 32.0629 18.5326Z" fill="url(#paint0_linear)" fill-opacity="0.5"/>
<path d="M6.71206 32.7272C3.81278 32.7272 1.81824 30.9144 1.81824 28.3015C1.81824 26.2457 3.14451 24.5746 5.14933 23.9974C5.50917 20.1894 8.73745 17.2727 12.5826 17.2727C15.5127 17.2727 17.9288 18.7513 19.2551 21.3743C22.7815 21.344 25.4546 23.7847 25.4546 27.0356C25.4546 30.2359 22.874 32.7272 19.5327 32.7272H6.71206Z" fill="#CAE6FA"/>
<path d="M6.71206 32.7272C3.81278 32.7272 1.81824 30.9144 1.81824 28.3015C1.81824 26.2457 3.14451 24.5746 5.14933 23.9974C5.50917 20.1894 8.73745 17.2727 12.5826 17.2727C15.5127 17.2727 17.9288 18.7513 19.2551 21.3743C22.7815 21.344 25.4546 23.7847 25.4546 27.0356C25.4546 30.2359 22.874 32.7272 19.5327 32.7272H6.71206Z" fill="url(#paint1_linear)" fill-opacity="0.5"/>
<defs>
<linearGradient id="paint0_linear" x1="25.4545" y1="2.72729" x2="25.4545" y2="26.3637" gradientUnits="userSpaceOnUse">
<stop stop-color="white"/>
<stop offset="1" stop-color="white" stop-opacity="0"/>
</linearGradient>
<linearGradient id="paint1_linear" x1="13.6364" y1="17.2727" x2="13.6364" y2="32.7272" gradientUnits="userSpaceOnUse">
<stop stop-color="white"/>
<stop offset="1" stop-color="white" stop-opacity="0"/>
</linearGradient>
</defs>
</svg>
