<svg viewBox="0 0 40 40" fill="none" xmlns="http://www.w3.org/2000/svg">
<path d="M10.945 30C7.15366 30 4.54541 27.654 4.54541 24.2726C4.54541 21.6121 6.27976 19.4495 8.90145 18.7025C9.37201 13.7746 13.5936 10 18.6219 10C22.4536 10 25.6131 11.9135 27.3474 15.308C31.9589 15.2687 35.4545 18.4273 35.4545 22.6343C35.4545 26.7759 32.0799 30 27.7104 30H10.945Z" fill="#CAE6FA"/>
<path d="M10.945 30C7.15366 30 4.54541 27.654 4.54541 24.2726C4.54541 21.6121 6.27976 19.4495 8.90145 18.7025C9.37201 13.7746 13.5936 10 18.6219 10C22.4536 10 25.6131 11.9135 27.3474 15.308C31.9589 15.2687 35.4545 18.4273 35.4545 22.6343C35.4545 26.7759 32.0799 30 27.7104 30H10.945Z" fill="url(#paint0_linear)" fill-opacity="0.5"/>
<defs>
<linearGradient id="paint0_linear" x1="20" y1="10" x2="20" y2="30" gradientUnits="userSpaceOnUse">
<stop stop-color="white"/>
<stop offset="1" stop-color="white" stop-opacity="0"/>
</linearGradient>
</defs>
</svg>
