<svg viewBox="0 0 40 40" fill="none" xmlns="http://www.w3.org/2000/svg">
<path fill-rule="evenodd" clip-rule="evenodd" d="M18.3334 2.82227C19.0943 2.82227 19.7445 3.47249 19.7445 4.2334V7.04183C19.7445 7.80273 19.0943 8.43913 18.3334 8.43913C17.5725 8.43913 16.9361 7.80273 16.9361 7.04183V4.2334C16.9361 3.47249 17.5725 2.82227 18.3334 2.82227ZM25.2922 11.3582C24.7388 10.8187 24.7388 9.91944 25.2784 9.37989L27.2844 7.37387C27.8239 6.83432 28.7232 6.83432 29.2627 7.36003C29.8023 7.89959 29.8023 8.82651 29.2627 9.35222L27.2706 11.3444C26.731 11.8978 25.8179 11.8978 25.2922 11.3582ZM9.39622 11.3444C9.92193 11.8977 10.835 11.8977 11.3746 11.3582C11.9141 10.8325 11.9141 9.90556 11.3884 9.37984L9.39622 7.37382C8.8705 6.8481 7.95741 6.83427 7.41786 7.35998C6.87831 7.89953 6.87831 8.82645 7.40403 9.33834L9.39622 11.3444ZM11.0425 18.2894C11.0425 14.2912 14.349 10.9985 18.3334 10.9985C22.3177 10.9985 25.6104 14.2912 25.6104 18.2894C25.6104 22.2876 22.3177 25.5802 18.3334 25.5802C14.349 25.5802 11.0425 22.2876 11.0425 18.2894ZM4.30505 16.8921C3.53031 16.8921 2.89392 17.5285 2.89392 18.2894C2.89392 19.0503 3.53031 19.7005 4.30505 19.7005H7.09965C7.86056 19.7005 8.51078 19.0503 8.51078 18.2894C8.51078 17.5285 7.86056 16.8921 7.09965 16.8921H4.30505ZM7.37639 29.1911C6.85068 28.6654 6.86451 27.7523 7.40406 27.2127L9.39625 25.2344C9.9358 24.7087 10.8489 24.7087 11.3884 25.2482C11.9142 25.7739 11.9142 26.687 11.3746 27.2266L9.36858 29.2188C8.84286 29.7445 7.91594 29.7307 7.37639 29.1911Z" fill="url(#paint0_linear)"/>
<path d="M20.3484 32.7272C17.4491 32.7272 15.4546 30.9144 15.4546 28.3015C15.4546 26.2457 16.7809 24.5746 18.7857 23.9974C19.1455 20.1894 22.3738 17.2727 26.219 17.2727C29.1491 17.2727 31.5652 18.7513 32.8914 21.3743C36.4179 21.344 39.091 23.7847 39.091 27.0356C39.091 30.2359 36.5104 32.7272 33.169 32.7272H20.3484Z" fill="#CAE6FA"/>
<path d="M20.3484 32.7272C17.4491 32.7272 15.4546 30.9144 15.4546 28.3015C15.4546 26.2457 16.7809 24.5746 18.7857 23.9974C19.1455 20.1894 22.3738 17.2727 26.219 17.2727C29.1491 17.2727 31.5652 18.7513 32.8914 21.3743C36.4179 21.344 39.091 23.7847 39.091 27.0356C39.091 30.2359 36.5104 32.7272 33.169 32.7272H20.3484Z" fill="url(#paint1_linear)" fill-opacity="0.5"/>
<defs>
<linearGradient id="paint0_linear" x1="16.2807" y1="2.82227" x2="16.2807" y2="29.6045" gradientUnits="userSpaceOnUse">
<stop stop-color="#FFD03C"/>
<stop offset="1" stop-color="#FFB422"/>
</linearGradient>
<linearGradient id="paint1_linear" x1="27.2728" y1="17.2727" x2="27.2728" y2="32.7272" gradientUnits="userSpaceOnUse">
<stop stop-color="white"/>
<stop offset="1" stop-color="white" stop-opacity="0"/>
</linearGradient>
</defs>
</svg>
