<svg width="24" height="24" viewBox="0 0 24 24" fill="none" xmlns="http://www.w3.org/2000/svg">
<circle cx="12" cy="12" r="3" fill="#3C83E8"/>
<path opacity="0.5" fill-rule="evenodd" clip-rule="evenodd" d="M12.7485 2.75C12.7485 2.33579 12.4128 2 11.9985 2C11.5843 2 11.2485 2.33579 11.2485 2.75V4.80533C11.2485 4.81823 11.2489 4.83106 11.2495 4.84381C7.8749 5.193 5.19282 7.87518 4.8437 11.2499C4.83098 11.2492 4.81816 11.2489 4.80528 11.2489H2.75C2.33579 11.2489 2 11.5847 2 11.9989C2 12.4131 2.33579 12.7489 2.75 12.7489H4.80528C4.81817 12.7489 4.83098 12.7486 4.84371 12.748C5.19286 16.1226 7.87492 18.8048 11.2495 19.154C11.2489 19.1667 11.2485 19.1796 11.2485 19.1925V21.2478C11.2485 21.662 11.5843 21.9978 11.9985 21.9978C12.4128 21.9978 12.7485 21.662 12.7485 21.2478V19.1925C12.7485 19.1796 12.7482 19.1667 12.7476 19.154C16.1223 18.8049 18.8044 16.1227 19.1536 12.7479C19.1666 12.7486 19.1797 12.7489 19.1929 12.7489H21.2481C21.6624 12.7489 21.9982 12.4131 21.9982 11.9989C21.9982 11.5847 21.6624 11.2489 21.2481 11.2489H19.1929C19.1797 11.2489 19.1666 11.2493 19.1536 11.2499C18.8045 7.87514 16.1223 5.1929 12.7476 4.84379C12.7482 4.83105 12.7485 4.81823 12.7485 4.80533V2.75ZM17.3921 11.9989C17.3921 14.9778 14.9773 17.3925 11.9986 17.3925C9.01996 17.3925 6.60519 14.9778 6.60519 11.9989C6.60519 9.02004 9.01996 6.60528 11.9986 6.60528C14.9773 6.60528 17.3921 9.02004 17.3921 11.9989Z" fill="#3C83E8"/>
</svg>
