<svg width="24" height="24" viewBox="0 0 24 24" fill="none" xmlns="http://www.w3.org/2000/svg">
<path opacity="0.5" fill-rule="evenodd" clip-rule="evenodd" d="M5.23202 19.9818C6.88056 21.0201 8.83245 21.6208 10.9246 21.6208C13.4364 21.6208 15.7459 20.755 17.5711 19.3056L21.907 23.6415C22.3857 24.1202 23.1618 24.1202 23.6405 23.6415C24.1192 23.1628 24.1192 22.3867 23.6405 21.908L19.3047 17.5722C20.7546 15.7469 21.6208 13.4369 21.6208 10.9247C21.6208 8.83248 21.0201 6.88059 19.9817 5.23205L18.1899 7.02394C18.8147 8.18524 19.1692 9.51355 19.1692 10.9247C19.1692 15.478 15.478 19.1692 10.9246 19.1692C9.51352 19.1692 8.18521 18.8147 7.02391 18.1899L5.23202 19.9818ZM14.8288 3.6613C13.6667 3.03533 12.3371 2.68011 10.9246 2.68011C6.37129 2.68011 2.68008 6.37132 2.68008 10.9247C2.68008 12.3372 3.0353 13.6667 3.66127 14.8289L1.86959 16.6205C0.83 14.9713 0.228516 13.0182 0.228516 10.9247C0.228516 5.01736 5.01733 0.228546 10.9246 0.228546C13.0182 0.228546 14.9713 0.83003 16.6205 1.86962L14.8288 3.6613Z" fill="#3C83E8"/>
<rect opacity="0.8" y="20.171" width="28.5261" height="2.37717" rx="1.18859" transform="rotate(-45 0 20.171)" fill="#3C83E8"/>
</svg>
