<svg viewBox="0 0 40 40" fill="none" xmlns="http://www.w3.org/2000/svg">
<path d="M9.12691 27.2727C5.33554 27.2727 2.72729 24.9267 2.72729 21.5453C2.72729 18.8848 4.46165 16.7222 7.08334 15.9752C7.5539 11.0473 11.7755 7.27271 16.8038 7.27271C20.6355 7.27271 23.795 9.1862 25.5293 12.5807C30.1408 12.5414 33.6364 15.7 33.6364 19.907C33.6364 24.0486 30.2618 27.2727 25.8923 27.2727H9.12691Z" fill="#AECFE9"/>
<path d="M18.5302 32.7273C15.6309 32.7273 13.6364 30.9144 13.6364 28.3015C13.6364 26.2457 14.9626 24.5746 16.9674 23.9974C17.3273 20.1894 20.5556 17.2727 24.4007 17.2727C27.3308 17.2727 29.7469 18.7513 31.0732 21.3743C34.5996 21.344 37.2727 23.7847 37.2727 27.0356C37.2727 30.2359 34.6921 32.7273 31.3508 32.7273H18.5302Z" fill="#CAE6FA"/>
<path d="M18.5302 32.7273C15.6309 32.7273 13.6364 30.9144 13.6364 28.3015C13.6364 26.2457 14.9626 24.5746 16.9674 23.9974C17.3273 20.1894 20.5556 17.2727 24.4007 17.2727C27.3308 17.2727 29.7469 18.7513 31.0732 21.3743C34.5996 21.344 37.2727 23.7847 37.2727 27.0356C37.2727 30.2359 34.6921 32.7273 31.3508 32.7273H18.5302Z" fill="url(#paint0_linear)" fill-opacity="0.5"/>
<defs>
<linearGradient id="paint0_linear" x1="25.4545" y1="17.2727" x2="25.4545" y2="32.7273" gradientUnits="userSpaceOnUse">
<stop stop-color="white"/>
<stop offset="1" stop-color="white" stop-opacity="0"/>
</linearGradient>
</defs>
</svg>
