<svg width="24" height="24" viewBox="0 0 24 24" fill="none" xmlns="http://www.w3.org/2000/svg">
<path opacity="0.2" d="M4.45844 14.3386L4.76428 15.0234L4.45844 14.3386ZM5.38713 13.9238L5.70345 13.2438C5.50654 13.1522 5.27959 13.1505 5.08129 13.239L5.38713 13.9238ZM1 15.8831L0.694164 15.1983C0.425888 15.3181 0.25228 15.5835 0.250022 15.8774C0.247765 16.1712 0.417274 16.4392 0.683678 16.5631L1 15.8831ZM12 20.9999L11.6837 21.6799C11.8842 21.7732 12.1158 21.7732 12.3163 21.6799L12 20.9999ZM23 15.8831L23.3163 16.5631C23.5833 16.439 23.7529 16.1701 23.75 15.8757C23.747 15.5813 23.5722 15.3158 23.3028 15.197L23 15.8831ZM19.5 14.3386L19.1972 15.0247V15.0247L19.5 14.3386ZM18.5872 13.9358L18.89 13.2496C18.6924 13.1624 18.4667 13.1646 18.2709 13.2557L18.5872 13.9358ZM12 16.9999L11.6837 17.6799C11.8842 17.7732 12.1158 17.7732 12.3163 17.6799L12 16.9999ZM4.76428 15.0234L5.69296 14.6086L5.08129 13.239L4.15261 13.6538L4.76428 15.0234ZM1.30584 16.5679L4.76428 15.0234L4.15261 13.6538L0.694164 15.1983L1.30584 16.5679ZM12.3163 20.3198L1.31632 15.2031L0.683678 16.5631L11.6837 21.6799L12.3163 20.3198ZM22.6837 15.2031L11.6837 20.3198L12.3163 21.6799L23.3163 16.5631L22.6837 15.2031ZM19.1972 15.0247L22.6972 16.5693L23.3028 15.197L19.8028 13.6524L19.1972 15.0247ZM18.2844 14.6219L19.1972 15.0247L19.8028 13.6524L18.89 13.2496L18.2844 14.6219ZM18.2709 13.2557L11.6837 16.3198L12.3163 17.6799L18.9035 14.6158L18.2709 13.2557ZM12.3163 16.3198L5.70345 13.2438L5.07081 14.6039L11.6837 17.6799L12.3163 16.3198Z" fill="#3C83E8"/>
<path d="M1 11.8831L0.694164 11.1983C0.425888 11.3181 0.25228 11.5835 0.250022 11.8774C0.247765 12.1712 0.417274 12.4392 0.683678 12.5631L1 11.8831ZM5.38713 9.92383L5.70345 9.2438C5.50654 9.1522 5.27959 9.15046 5.08129 9.23902L5.38713 9.92383ZM12 16.9999L11.6837 17.6799C11.8842 17.7732 12.1158 17.7732 12.3163 17.6799L12 16.9999ZM23 11.8831L23.3163 12.5631C23.5833 12.439 23.7529 12.1701 23.75 11.8757C23.747 11.5813 23.5722 11.3158 23.3028 11.197L23 11.8831ZM18.5872 9.93577L18.89 9.24961C18.6924 9.1624 18.4667 9.16463 18.2709 9.25574L18.5872 9.93577ZM12 12.9999L11.6837 13.6799C11.8842 13.7732 12.1158 13.7732 12.3163 13.6799L12 12.9999ZM1.30584 12.5679L5.69296 10.6086L5.08129 9.23902L0.694164 11.1983L1.30584 12.5679ZM12.3163 16.3198L1.31632 11.2031L0.683678 12.5631L11.6837 17.6799L12.3163 16.3198ZM22.6837 11.2031L11.6837 16.3198L12.3163 17.6799L23.3163 12.5631L22.6837 11.2031ZM18.2844 10.6219L22.6972 12.5693L23.3028 11.197L18.89 9.24961L18.2844 10.6219ZM18.2709 9.25574L11.6837 12.3198L12.3163 13.6799L18.9035 10.6158L18.2709 9.25574ZM12.3163 12.3198L5.70345 9.2438L5.07081 10.6039L11.6837 13.6799L12.3163 12.3198Z" fill="#8AB5F1"/>
<path fill-rule="evenodd" clip-rule="evenodd" d="M11.9343 3L23 7.88325L12 13L1 7.88325L11.9343 3Z" stroke="#3C83E8" stroke-width="1.5" stroke-linejoin="round"/>
</svg>
