<svg viewBox="0 0 40 40" fill="none" xmlns="http://www.w3.org/2000/svg">
<path d="M35.0833 14.8852C36.1914 14.8852 37.3087 14.6557 38.0013 14.4169C38.2136 14.3251 38.3614 14.2884 38.5184 14.2884C38.8139 14.2884 39.0909 14.5271 39.0909 14.8852C39.0909 15.0138 39.0632 15.2525 38.9616 15.4913C37.7519 18.5583 34.3261 20.9091 30.4109 20.9091C25.009 20.9091 20.9091 17.0432 20.9091 11.6529C20.9091 7.82371 23.1991 4.2149 26.6342 2.84667C26.865 2.76403 27.0866 2.72729 27.2251 2.72729C27.6037 2.72729 27.8161 3.01196 27.8161 3.30581C27.8161 3.40865 27.7984 3.53501 27.7346 3.70368L27.6776 3.83841C27.3452 4.58221 27.0959 5.98717 27.0959 7.04318C27.0959 11.8733 30.1985 14.8852 35.0833 14.8852Z" fill="#A45CFF"/>
<path d="M35.0833 14.8852C36.1914 14.8852 37.3087 14.6557 38.0013 14.4169C38.2136 14.3251 38.3614 14.2884 38.5184 14.2884C38.8139 14.2884 39.0909 14.5271 39.0909 14.8852C39.0909 15.0138 39.0632 15.2525 38.9616 15.4913C37.7519 18.5583 34.3261 20.9091 30.4109 20.9091C25.009 20.9091 20.9091 17.0432 20.9091 11.6529C20.9091 7.82371 23.1991 4.2149 26.6342 2.84667C26.865 2.76403 27.0866 2.72729 27.2251 2.72729C27.6037 2.72729 27.8161 3.01196 27.8161 3.30581C27.8161 3.40865 27.7984 3.53501 27.7346 3.70368L27.6776 3.83841C27.3452 4.58221 27.0959 5.98717 27.0959 7.04318C27.0959 11.8733 30.1985 14.8852 35.0833 14.8852Z" fill="url(#paint0_linear)" fill-opacity="0.5"/>
<path d="M10.945 30C7.15366 30 4.54541 27.654 4.54541 24.2726C4.54541 21.6121 6.27976 19.4495 8.90145 18.7025C9.37201 13.7746 13.5936 10 18.6219 10C22.4536 10 25.6131 11.9135 27.3474 15.308C31.9589 15.2687 35.4545 18.4273 35.4545 22.6343C35.4545 26.7759 32.0799 30 27.7104 30H10.945Z" fill="#CAE6FA"/>
<path d="M10.945 30C7.15366 30 4.54541 27.654 4.54541 24.2726C4.54541 21.6121 6.27976 19.4495 8.90145 18.7025C9.37201 13.7746 13.5936 10 18.6219 10C22.4536 10 25.6131 11.9135 27.3474 15.308C31.9589 15.2687 35.4545 18.4273 35.4545 22.6343C35.4545 26.7759 32.0799 30 27.7104 30H10.945Z" fill="url(#paint1_linear)" fill-opacity="0.5"/>
<defs>
<linearGradient id="paint0_linear" x1="30" y1="2.72729" x2="30" y2="20.9091" gradientUnits="userSpaceOnUse">
<stop stop-color="white"/>
<stop offset="1" stop-color="white" stop-opacity="0"/>
</linearGradient>
<linearGradient id="paint1_linear" x1="20" y1="10" x2="20" y2="30" gradientUnits="userSpaceOnUse">
<stop stop-color="white"/>
<stop offset="1" stop-color="white" stop-opacity="0"/>
</linearGradient>
</defs>
</svg>
