<svg viewBox="0 0 40 40" fill="none" xmlns="http://www.w3.org/2000/svg">
<path fill-rule="evenodd" clip-rule="evenodd" d="M27.5 1.6665C28.1161 1.6665 28.6425 2.192 28.6425 2.80693V5.07661C28.6425 5.69155 28.1161 6.20586 27.5 6.20586C26.884 6.20586 26.3687 5.69155 26.3687 5.07661V2.80693C26.3687 2.192 26.884 1.6665 27.5 1.6665ZM33.134 8.56504C32.6859 8.12899 32.6859 7.40225 33.1228 6.9662L34.7469 5.345C35.1837 4.90896 35.9117 4.90896 36.3486 5.33382C36.7854 5.76987 36.7854 6.51897 36.3486 6.94384L34.7357 8.55386C34.2988 9.00109 33.5596 9.00109 33.134 8.56504ZM20.2644 8.55392C20.69 9.00115 21.4292 9.00115 21.8661 8.5651C22.3029 8.14024 22.3029 7.39113 21.8773 6.96627L20.2644 5.34507C19.8387 4.9202 19.0995 4.90902 18.6627 5.33389C18.2258 5.76993 18.2258 6.51904 18.6515 6.93273L20.2644 8.55392ZM21.5972 14.1665C21.5972 10.9353 24.2742 8.27428 27.5 8.27428C30.7258 8.27428 33.3916 10.9353 33.3916 14.1665C33.3916 17.3977 30.7258 20.0587 27.5 20.0587C24.2742 20.0587 21.5972 17.3977 21.5972 14.1665ZM38.8687 15.3069C39.4847 15.3069 39.9999 14.7814 39.9999 14.1665C39.9999 13.5516 39.4847 13.0372 38.8687 13.0372H36.5949C35.9789 13.0372 35.4636 13.5516 35.4636 14.1665C35.4636 14.7814 35.9789 15.3069 36.5949 15.3069H38.8687ZM15 14.1665C15 13.5516 15.5152 13.0372 16.1425 13.0372H18.405C19.0211 13.0372 19.5475 13.5516 19.5475 14.1665C19.5475 14.7814 19.0211 15.3069 18.405 15.3069H16.1425C15.5152 15.3069 15 14.7814 15 14.1665ZM18.6514 21.378C18.2146 21.8141 18.2034 22.552 18.629 22.9769C19.0658 23.4129 19.8163 23.4241 20.2419 22.9992L21.866 21.3892C22.3028 20.9531 22.3028 20.2152 21.8772 19.7904C21.4404 19.3543 20.7011 19.3543 20.2643 19.7792L18.6514 21.378ZM28.6425 25.526V23.2563C28.6425 22.6414 28.1161 22.127 27.5 22.127C26.884 22.127 26.3687 22.6414 26.3687 23.2563V25.526C26.3687 26.1409 26.884 26.6664 27.5 26.6664C28.1161 26.6664 28.6425 26.1409 28.6425 25.526Z" fill="url(#paint0_linear)"/>
<path d="M10.945 30C7.15366 30 4.54541 27.654 4.54541 24.2726C4.54541 21.6121 6.27976 19.4495 8.90145 18.7025C9.37201 13.7746 13.5936 10 18.6219 10C22.4536 10 25.6131 11.9135 27.3474 15.308C31.9589 15.2687 35.4545 18.4273 35.4545 22.6343C35.4545 26.7759 32.0799 30 27.7104 30H10.945Z" fill="#CAE6FA"/>
<path d="M10.945 30C7.15366 30 4.54541 27.654 4.54541 24.2726C4.54541 21.6121 6.27976 19.4495 8.90145 18.7025C9.37201 13.7746 13.5936 10 18.6219 10C22.4536 10 25.6131 11.9135 27.3474 15.308C31.9589 15.2687 35.4545 18.4273 35.4545 22.6343C35.4545 26.7759 32.0799 30 27.7104 30H10.945Z" fill="url(#paint1_linear)" fill-opacity="0.5"/>
<defs>
<linearGradient id="paint0_linear" x1="27.5" y1="1.6665" x2="27.5" y2="26.6664" gradientUnits="userSpaceOnUse">
<stop stop-color="#FFD03C"/>
<stop offset="1" stop-color="#FFB422"/>
</linearGradient>
<linearGradient id="paint1_linear" x1="20" y1="10" x2="20" y2="30" gradientUnits="userSpaceOnUse">
<stop stop-color="white"/>
<stop offset="1" stop-color="white" stop-opacity="0"/>
</linearGradient>
</defs>
</svg>
