<svg width="192" height="104" viewBox="0 0 192 104" fill="none" xmlns="http://www.w3.org/2000/svg">
<g opacity="0.5" filter="url(#filter0_f)">
<path d="M49.9114 71.3014L80.4153 59L70.3606 100H4L49.9114 71.3014Z" fill="url(#paint0_linear)"/>
</g>
<g opacity="0.5" filter="url(#filter1_f)">
<path d="M142.089 71.3014L111.585 59L121.639 100H188L142.089 71.3014Z" fill="url(#paint1_linear)"/>
</g>
<g opacity="0.5" filter="url(#filter2_f)">
<path d="M56.5 65.5L27 100H96L56.5 65.5Z" fill="url(#paint2_linear)"/>
</g>
<g opacity="0.5" filter="url(#filter3_f)">
<path d="M124.5 70.5V60L150 100H96L124.5 70.5Z" fill="url(#paint3_linear)"/>
</g>
<path d="M74.8852 29.5L46.2294 45L5.00537 97L50.2513 77.5L96 97L136.878 81.7969L185.486 97L147.279 45L117.268 29.4102L96 41L74.8852 29.5Z" fill="url(#paint4_linear)"/>
<path d="M74.8852 29.5L46.2294 45L5.00537 97L50.2513 77.5L96 97L136.878 81.7969L185.486 97L147.279 45L117.268 29.4102L96 41L74.8852 29.5Z" fill="white"/>
<path d="M73.3771 33L94.9946 45L90.9727 91L53.2678 71.5L73.3771 33Z" fill="white"/>
<path d="M77.9468 68.6742L62.8904 76.4805L53.2678 71.5L58.2951 61.875L61.0045 56.6408L77.9468 68.6742Z" fill="#F5F3E9"/>
<path d="M73.3772 33L96 45V69.5L84 67L63.3225 52.25L73.3772 33Z" fill="#F5F3E9"/>
<path d="M96 74V91L67.4072 78.8125L83.6129 70.9518L96 74Z" fill="#C4ECA9"/>
<path d="M118.355 33.0433L96 45V69.5L123.839 47.4473L118.355 33.0433Z" fill="#EDE9D5"/>
<path d="M129.319 61.8395L121.113 63.5947L113.572 59.7178L125.399 51.5593L129.319 61.8395Z" fill="#EDE9D5"/>
<path d="M118.355 33.0433L145.83 46.6841L176.58 90.1059L134.711 76L118.355 33.0433Z" fill="white"/>
<path d="M137.784 42.6898L145.83 46.6841L156.595 61.8945L147.078 66.1338L129.32 61.8443L125.397 51.5653L134.793 48.8899L137.784 42.6898Z" fill="#F5F3E9"/>
<path d="M134.369 40.9934L131.718 45.7806L123.84 47.4422L118.356 33.0391L134.369 40.9934Z" fill="#F5F3E9"/>
<path d="M130.795 65.7266L148.361 69.8554L158.672 64.8162L176.58 90.106L134.71 76L130.795 65.7266Z" fill="#C4ECA9"/>
<path d="M96 74V91L134.71 76L130.794 65.7242L120.627 67.7863L110.084 62.4384L96 74Z" fill="#9DC880"/>
<path d="M73.377 33L48.7431 46.5L15.5627 88L53.2677 71.5L73.377 33Z" fill="white"/>
<path d="M73.377 33L48.7431 46.5L40.448 56.875L63.3223 52.25L73.377 33Z" fill="#EDE9D5"/>
<path d="M37.6491 60.4096L15.5627 88L53.2677 71.5L58.295 61.875L61.0204 56.6415L37.6491 60.4096Z" fill="#EDE9D5"/>
<g opacity="0.3" filter="url(#filter4_f)">
<path d="M96 57C101.799 57 106.5 55.6569 106.5 54C106.5 52.3431 101.799 51 96 51C90.201 51 85.5 52.3431 85.5 54C85.5 55.6569 90.201 57 96 57Z" fill="#202020"/>
</g>
<g opacity="0.2" filter="url(#filter5_f)">
<path d="M96 55.5C100.971 55.5 105 54.8284 105 54C105 53.1716 100.971 52.5 96 52.5C91.0294 52.5 87 53.1716 87 54C87 54.8284 91.0294 55.5 96 55.5Z" fill="#202020"/>
</g>
<g filter="url(#filter6_i)">
<path fill-rule="evenodd" clip-rule="evenodd" d="M97.9953 53.7573C110.665 42.4732 117 32.4635 117 23.7282C117 9.95462 106.315 3 96 3C85.6848 3 75 9.95462 75 23.7282C75 32.4635 81.3349 42.4732 94.0047 53.7573L94.0047 53.7573C95.142 54.7702 96.8579 54.7702 97.9953 53.7573Z" fill="url(#paint5_linear)"/>
</g>
<g filter="url(#filter7_d)">
<path d="M96 33C100.971 33 105 28.9706 105 24C105 19.0294 100.971 15 96 15C91.0294 15 87 19.0294 87 24C87 28.9706 91.0294 33 96 33Z" fill="white"/>
</g>
<defs>
<filter id="filter0_f" x="0" y="55" width="84.4153" height="49" filterUnits="userSpaceOnUse" color-interpolation-filters="sRGB">
<feFlood flood-opacity="0" result="BackgroundImageFix"/>
<feBlend mode="normal" in="SourceGraphic" in2="BackgroundImageFix" result="shape"/>
<feGaussianBlur stdDeviation="2" result="effect1_foregroundBlur"/>
</filter>
<filter id="filter1_f" x="107.585" y="55" width="84.4153" height="49" filterUnits="userSpaceOnUse" color-interpolation-filters="sRGB">
<feFlood flood-opacity="0" result="BackgroundImageFix"/>
<feBlend mode="normal" in="SourceGraphic" in2="BackgroundImageFix" result="shape"/>
<feGaussianBlur stdDeviation="2" result="effect1_foregroundBlur"/>
</filter>
<filter id="filter2_f" x="23" y="61.5" width="77" height="42.5" filterUnits="userSpaceOnUse" color-interpolation-filters="sRGB">
<feFlood flood-opacity="0" result="BackgroundImageFix"/>
<feBlend mode="normal" in="SourceGraphic" in2="BackgroundImageFix" result="shape"/>
<feGaussianBlur stdDeviation="2" result="effect1_foregroundBlur"/>
</filter>
<filter id="filter3_f" x="92" y="56" width="62" height="48" filterUnits="userSpaceOnUse" color-interpolation-filters="sRGB">
<feFlood flood-opacity="0" result="BackgroundImageFix"/>
<feBlend mode="normal" in="SourceGraphic" in2="BackgroundImageFix" result="shape"/>
<feGaussianBlur stdDeviation="2" result="effect1_foregroundBlur"/>
</filter>
<filter id="filter4_f" x="70.5" y="36" width="51" height="36" filterUnits="userSpaceOnUse" color-interpolation-filters="sRGB">
<feFlood flood-opacity="0" result="BackgroundImageFix"/>
<feBlend mode="normal" in="SourceGraphic" in2="BackgroundImageFix" result="shape"/>
<feGaussianBlur stdDeviation="7.5" result="effect1_foregroundBlur"/>
</filter>
<filter id="filter5_f" x="84" y="49.5" width="24" height="9" filterUnits="userSpaceOnUse" color-interpolation-filters="sRGB">
<feFlood flood-opacity="0" result="BackgroundImageFix"/>
<feBlend mode="normal" in="SourceGraphic" in2="BackgroundImageFix" result="shape"/>
<feGaussianBlur stdDeviation="1.5" result="effect1_foregroundBlur"/>
</filter>
<filter id="filter6_i" x="75" y="3" width="42" height="53.017" filterUnits="userSpaceOnUse" color-interpolation-filters="sRGB">
<feFlood flood-opacity="0" result="BackgroundImageFix"/>
<feBlend mode="normal" in="SourceGraphic" in2="BackgroundImageFix" result="shape"/>
<feColorMatrix in="SourceAlpha" type="matrix" values="0 0 0 0 0 0 0 0 0 0 0 0 0 0 0 0 0 0 127 0" result="hardAlpha"/>
<feOffset dy="1.5"/>
<feGaussianBlur stdDeviation="1.5"/>
<feComposite in2="hardAlpha" operator="arithmetic" k2="-1" k3="1"/>
<feColorMatrix type="matrix" values="0 0 0 0 1 0 0 0 0 1 0 0 0 0 1 0 0 0 0.2 0"/>
<feBlend mode="normal" in2="shape" result="effect1_innerShadow"/>
</filter>
<filter id="filter7_d" x="84" y="15" width="24" height="24" filterUnits="userSpaceOnUse" color-interpolation-filters="sRGB">
<feFlood flood-opacity="0" result="BackgroundImageFix"/>
<feColorMatrix in="SourceAlpha" type="matrix" values="0 0 0 0 0 0 0 0 0 0 0 0 0 0 0 0 0 0 127 0" result="hardAlpha"/>
<feOffset dy="3"/>
<feGaussianBlur stdDeviation="1.5"/>
<feColorMatrix type="matrix" values="0 0 0 0 0 0 0 0 0 0 0 0 0 0 0 0 0 0 0.2 0"/>
<feBlend mode="normal" in2="BackgroundImageFix" result="effect1_dropShadow"/>
<feBlend mode="normal" in="SourceGraphic" in2="effect1_dropShadow" result="shape"/>
</filter>
<linearGradient id="paint0_linear" x1="11.013" y1="95.3403" x2="61.9896" y2="95.9036" gradientUnits="userSpaceOnUse">
<stop stop-color="#D3D7DC"/>
<stop offset="1" stop-color="#D3D7DC" stop-opacity="0"/>
</linearGradient>
<linearGradient id="paint1_linear" x1="169.353" y1="85.9197" x2="133.978" y2="96.3196" gradientUnits="userSpaceOnUse">
<stop stop-color="#D3D7DC"/>
<stop offset="1" stop-color="#D3D7DC" stop-opacity="0"/>
</linearGradient>
<linearGradient id="paint2_linear" x1="85.7688" y1="95.5729" x2="53.2994" y2="94.3678" gradientUnits="userSpaceOnUse">
<stop stop-color="#D3D7DC"/>
<stop offset="1" stop-color="#D3D7DC" stop-opacity="0"/>
</linearGradient>
<linearGradient id="paint3_linear" x1="105.485" y1="94.7412" x2="150.002" y2="94.0416" gradientUnits="userSpaceOnUse">
<stop stop-color="#D3D7DC"/>
<stop offset="1" stop-color="#D3D7DC" stop-opacity="0"/>
</linearGradient>
<linearGradient id="paint4_linear" x1="90.7332" y1="29.4102" x2="91.0227" y2="137.197" gradientUnits="userSpaceOnUse">
<stop stop-color="#ECEFF3"/>
<stop offset="1" stop-color="white"/>
</linearGradient>
<linearGradient id="paint5_linear" x1="96" y1="3" x2="96" y2="54.517" gradientUnits="userSpaceOnUse">
<stop stop-color="#C768DD"/>
<stop offset="1" stop-color="#8B54FF"/>
</linearGradient>
</defs>
</svg>
