<svg width="40" height="40" viewBox="0 0 40 40" fill="none" xmlns="http://www.w3.org/2000/svg">
    <path fill-rule="evenodd" clip-rule="evenodd" d="M21.3302 37.4691C29.7767 29.5838 34 22.589 34 16.4848C34 6.85987 26.8768 2 20 2C13.1232 2 6 6.85987 6 16.4848C6 22.589 10.2233 29.5838 18.6698 37.4691L18.6698 37.4691C19.428 38.177 20.5719 38.177 21.3302 37.4691Z" fill="url(#paint0_linear_93_890)"/>
    <path d="M20 22C23.3137 22 26 19.3137 26 16C26 12.6863 23.3137 10 20 10C16.6863 10 14 12.6863 14 16C14 19.3137 16.6863 22 20 22Z" fill="white"/>
    <defs>
        <linearGradient id="paint0_linear_93_890" x1="20" y1="2" x2="20" y2="38" gradientUnits="userSpaceOnUse">
            <stop stop-color="#C768DD"/>
            <stop offset="1" stop-color="#8B54FF"/>
        </linearGradient>
    </defs>
</svg>
