<svg viewBox="0 0 16 16" fill="none" xmlns="http://www.w3.org/2000/svg">
<g filter="url(#filter0_i)">
<path fill-rule="evenodd" clip-rule="evenodd" d="M8.57008 14.7788C12.19 11.4932 14 8.57876 14 6.03535C14 2.02495 10.9472 0 8 0C5.0528 0 2 2.02495 2 6.03535C2 8.57876 3.80997 11.4932 7.42992 14.7788L7.42991 14.7788C7.75487 15.0737 8.24512 15.0737 8.57008 14.7788Z" fill="url(#paint0_linear)"/>
</g>
<g filter="url(#filter1_d)">
<path d="M8.00014 8.73464C9.4203 8.73464 10.5716 7.56141 10.5716 6.11415C10.5716 4.66689 9.4203 3.49365 8.00014 3.49365C6.57998 3.49365 5.42871 4.66689 5.42871 6.11415C5.42871 7.56141 6.57998 8.73464 8.00014 8.73464Z" fill="white"/>
</g>
<defs>
<filter id="filter0_i" x="2" y="0" width="12" height="16" filterUnits="userSpaceOnUse" color-interpolation-filters="sRGB">
<feFlood flood-opacity="0" result="BackgroundImageFix"/>
<feBlend mode="normal" in="SourceGraphic" in2="BackgroundImageFix" result="shape"/>
<feColorMatrix in="SourceAlpha" type="matrix" values="0 0 0 0 0 0 0 0 0 0 0 0 0 0 0 0 0 0 127 0" result="hardAlpha"/>
<feOffset dy="1"/>
<feGaussianBlur stdDeviation="1"/>
<feComposite in2="hardAlpha" operator="arithmetic" k2="-1" k3="1"/>
<feColorMatrix type="matrix" values="0 0 0 0 1 0 0 0 0 1 0 0 0 0 1 0 0 0 0.2 0"/>
<feBlend mode="normal" in2="shape" result="effect1_innerShadow"/>
</filter>
<filter id="filter1_d" x="3.42871" y="3.49365" width="9.14286" height="9.24099" filterUnits="userSpaceOnUse" color-interpolation-filters="sRGB">
<feFlood flood-opacity="0" result="BackgroundImageFix"/>
<feColorMatrix in="SourceAlpha" type="matrix" values="0 0 0 0 0 0 0 0 0 0 0 0 0 0 0 0 0 0 127 0" result="hardAlpha"/>
<feOffset dy="2"/>
<feGaussianBlur stdDeviation="1"/>
<feColorMatrix type="matrix" values="0 0 0 0 0 0 0 0 0 0 0 0 0 0 0 0 0 0 0.2 0"/>
<feBlend mode="normal" in2="BackgroundImageFix" result="effect1_dropShadow"/>
<feBlend mode="normal" in="SourceGraphic" in2="effect1_dropShadow" result="shape"/>
</filter>
<linearGradient id="paint0_linear" x1="8" y1="0" x2="8" y2="15" gradientUnits="userSpaceOnUse">
<stop stop-color="#C768DD"/>
<stop offset="1" stop-color="#8B54FF"/>
</linearGradient>
</defs>
</svg>
