<svg viewBox="0 0 40 48" fill="none" xmlns="http://www.w3.org/2000/svg">
<g opacity="0.3" filter="url(#filter0_f)">
<path d="M20 38C23.866 38 27 37.1046 27 36C27 34.8954 23.866 34 20 34C16.134 34 13 34.8954 13 36C13 37.1046 16.134 38 20 38Z" fill="#202020"/>
</g>
<g opacity="0.2" filter="url(#filter1_f)">
<path d="M20 37C23.3137 37 26 36.5523 26 36C26 35.4477 23.3137 35 20 35C16.6863 35 14 35.4477 14 36C14 36.5523 16.6863 37 20 37Z" fill="#202020"/>
</g>
<g filter="url(#filter2_i)">
<path fill-rule="evenodd" clip-rule="evenodd" d="M21.3302 35.8382C29.7767 28.3155 34 21.6423 34 15.8188C34 6.63641 26.8768 2 20 2C13.1232 2 6 6.63641 6 15.8188C6 21.6423 10.2233 28.3154 18.6698 35.8382L18.6698 35.8382C19.428 36.5135 20.5719 36.5135 21.3302 35.8382Z" fill="url(#paint0_linear)"/>
</g>
<g filter="url(#filter3_d)">
<path d="M20 22C23.3137 22 26 19.3137 26 16C26 12.6863 23.3137 10 20 10C16.6863 10 14 12.6863 14 16C14 19.3137 16.6863 22 20 22Z" fill="white"/>
</g>
<defs>
<filter id="filter0_f" x="3" y="24" width="34" height="24" filterUnits="userSpaceOnUse" color-interpolation-filters="sRGB">
<feFlood flood-opacity="0" result="BackgroundImageFix"/>
<feBlend mode="normal" in="SourceGraphic" in2="BackgroundImageFix" result="shape"/>
<feGaussianBlur stdDeviation="5" result="effect1_foregroundBlur"/>
</filter>
<filter id="filter1_f" x="12" y="33" width="16" height="6" filterUnits="userSpaceOnUse" color-interpolation-filters="sRGB">
<feFlood flood-opacity="0" result="BackgroundImageFix"/>
<feBlend mode="normal" in="SourceGraphic" in2="BackgroundImageFix" result="shape"/>
<feGaussianBlur stdDeviation="1" result="effect1_foregroundBlur"/>
</filter>
<filter id="filter2_i" x="6" y="2" width="28" height="35.3447" filterUnits="userSpaceOnUse" color-interpolation-filters="sRGB">
<feFlood flood-opacity="0" result="BackgroundImageFix"/>
<feBlend mode="normal" in="SourceGraphic" in2="BackgroundImageFix" result="shape"/>
<feColorMatrix in="SourceAlpha" type="matrix" values="0 0 0 0 0 0 0 0 0 0 0 0 0 0 0 0 0 0 127 0" result="hardAlpha"/>
<feOffset dy="1"/>
<feGaussianBlur stdDeviation="1"/>
<feComposite in2="hardAlpha" operator="arithmetic" k2="-1" k3="1"/>
<feColorMatrix type="matrix" values="0 0 0 0 1 0 0 0 0 1 0 0 0 0 1 0 0 0 0.2 0"/>
<feBlend mode="normal" in2="shape" result="effect1_innerShadow"/>
</filter>
<filter id="filter3_d" x="12" y="10" width="16" height="16" filterUnits="userSpaceOnUse" color-interpolation-filters="sRGB">
<feFlood flood-opacity="0" result="BackgroundImageFix"/>
<feColorMatrix in="SourceAlpha" type="matrix" values="0 0 0 0 0 0 0 0 0 0 0 0 0 0 0 0 0 0 127 0" result="hardAlpha"/>
<feOffset dy="2"/>
<feGaussianBlur stdDeviation="1"/>
<feColorMatrix type="matrix" values="0 0 0 0 0 0 0 0 0 0 0 0 0 0 0 0 0 0 0.2 0"/>
<feBlend mode="normal" in2="BackgroundImageFix" result="effect1_dropShadow"/>
<feBlend mode="normal" in="SourceGraphic" in2="effect1_dropShadow" result="shape"/>
</filter>
<linearGradient id="paint0_linear" x1="20" y1="2" x2="20" y2="36.3447" gradientUnits="userSpaceOnUse">
<stop stop-color="#C768DD"/>
<stop offset="1" stop-color="#8B54FF"/>
</linearGradient>
</defs>
</svg>
