<svg width="24" height="24" viewBox="0 0 24 24" fill="none" xmlns="http://www.w3.org/2000/svg">
<path d="M6 12C6 12.2811 6.0996 12.5211 6.29881 12.7202C6.49801 12.9193 6.7353 13.0188 7.01067 13.0188H10.9937V16.99C10.9937 17.2652 11.0904 17.5023 11.2837 17.7014C11.4829 17.9005 11.7232 18 12.0044 18C12.2856 18 12.5229 17.9005 12.7163 17.7014C12.9155 17.5023 13.0151 17.2652 13.0151 16.99V13.0188H16.9981C17.2735 13.0188 17.5078 12.9193 17.7012 12.7202C17.9004 12.5211 18 12.2811 18 12C18 11.7248 17.9004 11.4877 17.7012 11.2886C17.5078 11.0895 17.2735 10.99 16.9981 10.99H13.0151V7.01882C13.0151 6.74362 12.9155 6.50648 12.7163 6.3074C12.5229 6.10247 12.2856 6 12.0044 6C11.7232 6 11.4829 6.10247 11.2837 6.3074C11.0904 6.50648 10.9937 6.74362 10.9937 7.01882V10.99H7.01067C6.7353 10.99 6.49801 11.0895 6.29881 11.2886C6.0996 11.4877 6 11.7248 6 12Z" fill="#2DE886"/>
</svg>
