<svg width="150" height="150" viewBox="0 0 150 150" fill="none" xmlns="http://www.w3.org/2000/svg">
<rect width="150" height="150" rx="8" fill="white"/>
<path d="M145 5H5V145H145V5Z" fill="white"/>
<path d="M9.51562 9.51611H14.0318V14.0322H9.51562V9.51611ZM14.0318 9.51611H18.5479V14.0322H14.0318V9.51611ZM18.5479 9.51611H23.064V14.0322H18.5479V9.51611ZM23.064 9.51611H27.5801V14.0322H23.064V9.51611ZM27.5801 9.51611H32.0963V14.0322H27.5801V9.51611ZM32.0963 9.51611H36.6124V14.0322H32.0963V9.51611ZM36.6124 9.51611H41.1285V14.0322H36.6124V9.51611ZM54.6769 9.51611H59.193V14.0322H54.6769V9.51611ZM63.7092 9.51611H68.2253V14.0322H63.7092V9.51611ZM81.7737 9.51611H86.2898V14.0322H81.7737V9.51611ZM86.2898 9.51611H90.8059V14.0322H86.2898V9.51611ZM90.8059 9.51611H95.3221V14.0322H90.8059V9.51611ZM95.3221 9.51611H99.8382V14.0322H95.3221V9.51611ZM108.87 9.51611H113.387V14.0322H108.87V9.51611ZM113.387 9.51611H117.903V14.0322H113.387V9.51611ZM117.903 9.51611H122.419V14.0322H117.903V9.51611ZM122.419 9.51611H126.935V14.0322H122.419V9.51611ZM126.935 9.51611H131.451V14.0322H126.935V9.51611ZM131.451 9.51611H135.967V14.0322H131.451V9.51611ZM135.967 9.51611H140.483V14.0322H135.967V9.51611ZM9.51562 14.0322H14.0318V18.5484H9.51562V14.0322ZM36.6124 14.0322H41.1285V18.5484H36.6124V14.0322ZM45.6447 14.0322H50.1608V18.5484H45.6447V14.0322ZM54.6769 14.0322H59.193V18.5484H54.6769V14.0322ZM68.2253 14.0322H72.7414V18.5484H68.2253V14.0322ZM72.7414 14.0322H77.2576V18.5484H72.7414V14.0322ZM77.2576 14.0322H81.7737V18.5484H77.2576V14.0322ZM81.7737 14.0322H86.2898V18.5484H81.7737V14.0322ZM86.2898 14.0322H90.8059V18.5484H86.2898V14.0322ZM99.8382 14.0322H104.354V18.5484H99.8382V14.0322ZM108.87 14.0322H113.387V18.5484H108.87V14.0322ZM135.967 14.0322H140.483V18.5484H135.967V14.0322ZM9.51562 18.5484H14.0318V23.0645H9.51562V18.5484ZM18.5479 18.5484H23.064V23.0645H18.5479V18.5484ZM23.064 18.5484H27.5801V23.0645H23.064V18.5484ZM27.5801 18.5484H32.0963V23.0645H27.5801V18.5484ZM36.6124 18.5484H41.1285V23.0645H36.6124V18.5484ZM63.7092 18.5484H68.2253V23.0645H63.7092V18.5484ZM77.2576 18.5484H81.7737V23.0645H77.2576V18.5484ZM99.8382 18.5484H104.354V23.0645H99.8382V18.5484ZM108.87 18.5484H113.387V23.0645H108.87V18.5484ZM117.903 18.5484H122.419V23.0645H117.903V18.5484ZM122.419 18.5484H126.935V23.0645H122.419V18.5484ZM126.935 18.5484H131.451V23.0645H126.935V18.5484ZM135.967 18.5484H140.483V23.0645H135.967V18.5484ZM9.51562 23.0645H14.0318V27.5806H9.51562V23.0645ZM18.5479 23.0645H23.064V27.5806H18.5479V23.0645ZM23.064 23.0645H27.5801V27.5806H23.064V23.0645ZM27.5801 23.0645H32.0963V27.5806H27.5801V23.0645ZM36.6124 23.0645H41.1285V27.5806H36.6124V23.0645ZM45.6447 23.0645H50.1608V27.5806H45.6447V23.0645ZM50.1608 23.0645H54.6769V27.5806H50.1608V23.0645ZM54.6769 23.0645H59.193V27.5806H54.6769V23.0645ZM63.7092 23.0645H68.2253V27.5806H63.7092V23.0645ZM68.2253 23.0645H72.7414V27.5806H68.2253V23.0645ZM72.7414 23.0645H77.2576V27.5806H72.7414V23.0645ZM77.2576 23.0645H81.7737V27.5806H77.2576V23.0645ZM86.2898 23.0645H90.8059V27.5806H86.2898V23.0645ZM90.8059 23.0645H95.3221V27.5806H90.8059V23.0645ZM95.3221 23.0645H99.8382V27.5806H95.3221V23.0645ZM108.87 23.0645H113.387V27.5806H108.87V23.0645ZM117.903 23.0645H122.419V27.5806H117.903V23.0645ZM122.419 23.0645H126.935V27.5806H122.419V23.0645ZM126.935 23.0645H131.451V27.5806H126.935V23.0645ZM135.967 23.0645H140.483V27.5806H135.967V23.0645ZM9.51562 27.5806H14.0318V32.0968H9.51562V27.5806ZM18.5479 27.5806H23.064V32.0968H18.5479V27.5806ZM23.064 27.5806H27.5801V32.0968H23.064V27.5806ZM27.5801 27.5806H32.0963V32.0968H27.5801V27.5806ZM36.6124 27.5806H41.1285V32.0968H36.6124V27.5806ZM50.1608 27.5806H54.6769V32.0968H50.1608V27.5806ZM72.7414 27.5806H77.2576V32.0968H72.7414V27.5806ZM81.7737 27.5806H86.2898V32.0968H81.7737V27.5806ZM86.2898 27.5806H90.8059V32.0968H86.2898V27.5806ZM95.3221 27.5806H99.8382V32.0968H95.3221V27.5806ZM99.8382 27.5806H104.354V32.0968H99.8382V27.5806ZM108.87 27.5806H113.387V32.0968H108.87V27.5806ZM117.903 27.5806H122.419V32.0968H117.903V27.5806ZM122.419 27.5806H126.935V32.0968H122.419V27.5806ZM126.935 27.5806H131.451V32.0968H126.935V27.5806ZM135.967 27.5806H140.483V32.0968H135.967V27.5806ZM9.51562 32.0968H14.0318V36.6129H9.51562V32.0968ZM36.6124 32.0968H41.1285V36.6129H36.6124V32.0968ZM45.6447 32.0968H50.1608V36.6129H45.6447V32.0968ZM50.1608 32.0968H54.6769V36.6129H50.1608V32.0968ZM59.193 32.0968H63.7092V36.6129H59.193V32.0968ZM63.7092 32.0968H68.2253V36.6129H63.7092V32.0968ZM72.7414 32.0968H77.2576V36.6129H72.7414V32.0968ZM77.2576 32.0968H81.7737V36.6129H77.2576V32.0968ZM81.7737 32.0968H86.2898V36.6129H81.7737V32.0968ZM90.8059 32.0968H95.3221V36.6129H90.8059V32.0968ZM99.8382 32.0968H104.354V36.6129H99.8382V32.0968ZM108.87 32.0968H113.387V36.6129H108.87V32.0968ZM135.967 32.0968H140.483V36.6129H135.967V32.0968ZM9.51562 36.6129H14.0318V41.129H9.51562V36.6129ZM14.0318 36.6129H18.5479V41.129H14.0318V36.6129ZM18.5479 36.6129H23.064V41.129H18.5479V36.6129ZM23.064 36.6129H27.5801V41.129H23.064V36.6129ZM27.5801 36.6129H32.0963V41.129H27.5801V36.6129ZM32.0963 36.6129H36.6124V41.129H32.0963V36.6129ZM36.6124 36.6129H41.1285V41.129H36.6124V36.6129ZM45.6447 36.6129H50.1608V41.129H45.6447V36.6129ZM54.6769 36.6129H59.193V41.129H54.6769V36.6129ZM63.7092 36.6129H68.2253V41.129H63.7092V36.6129ZM72.7414 36.6129H77.2576V41.129H72.7414V36.6129ZM81.7737 36.6129H86.2898V41.129H81.7737V36.6129ZM90.8059 36.6129H95.3221V41.129H90.8059V36.6129ZM99.8382 36.6129H104.354V41.129H99.8382V36.6129ZM108.87 36.6129H113.387V41.129H108.87V36.6129ZM113.387 36.6129H117.903V41.129H113.387V36.6129ZM117.903 36.6129H122.419V41.129H117.903V36.6129ZM122.419 36.6129H126.935V41.129H122.419V36.6129ZM126.935 36.6129H131.451V41.129H126.935V36.6129ZM131.451 36.6129H135.967V41.129H131.451V36.6129ZM135.967 36.6129H140.483V41.129H135.967V36.6129ZM50.1608 41.129H54.6769V45.6451H50.1608V41.129ZM54.6769 41.129H59.193V45.6451H54.6769V41.129ZM59.193 41.129H63.7092V45.6451H59.193V41.129ZM77.2576 41.129H81.7737V45.6451H77.2576V41.129ZM95.3221 41.129H99.8382V45.6451H95.3221V41.129ZM99.8382 41.129H104.354V45.6451H99.8382V41.129ZM9.51562 45.6451H14.0318V50.1613H9.51562V45.6451ZM14.0318 45.6451H18.5479V50.1613H14.0318V45.6451ZM18.5479 45.6451H23.064V50.1613H18.5479V45.6451ZM23.064 45.6451H27.5801V50.1613H23.064V45.6451ZM27.5801 45.6451H32.0963V50.1613H27.5801V45.6451ZM36.6124 45.6451H41.1285V50.1613H36.6124V45.6451ZM41.1285 45.6451H45.6447V50.1613H41.1285V45.6451ZM45.6447 45.6451H50.1608V50.1613H45.6447V45.6451ZM50.1608 45.6451H54.6769V50.1613H50.1608V45.6451ZM59.193 45.6451H63.7092V50.1613H59.193V45.6451ZM81.7737 45.6451H86.2898V50.1613H81.7737V45.6451ZM86.2898 45.6451H90.8059V50.1613H86.2898V45.6451ZM95.3221 45.6451H99.8382V50.1613H95.3221V45.6451ZM104.354 45.6451H108.87V50.1613H104.354V45.6451ZM113.387 45.6451H117.903V50.1613H113.387V45.6451ZM122.419 45.6451H126.935V50.1613H122.419V45.6451ZM131.451 45.6451H135.967V50.1613H131.451V45.6451ZM9.51562 50.1613H14.0318V54.6774H9.51562V50.1613ZM14.0318 50.1613H18.5479V54.6774H14.0318V50.1613ZM18.5479 50.1613H23.064V54.6774H18.5479V50.1613ZM23.064 50.1613H27.5801V54.6774H23.064V50.1613ZM45.6447 50.1613H50.1608V54.6774H45.6447V50.1613ZM54.6769 50.1613H59.193V54.6774H54.6769V50.1613ZM63.7092 50.1613H68.2253V54.6774H63.7092V50.1613ZM68.2253 50.1613H72.7414V54.6774H68.2253V50.1613ZM95.3221 50.1613H99.8382V54.6774H95.3221V50.1613ZM99.8382 50.1613H104.354V54.6774H99.8382V50.1613ZM104.354 50.1613H108.87V54.6774H104.354V50.1613ZM108.87 50.1613H113.387V54.6774H108.87V50.1613ZM113.387 50.1613H117.903V54.6774H113.387V50.1613ZM117.903 50.1613H122.419V54.6774H117.903V50.1613ZM135.967 50.1613H140.483V54.6774H135.967V50.1613ZM14.0318 54.6774H18.5479V59.1935H14.0318V54.6774ZM18.5479 54.6774H23.064V59.1935H18.5479V54.6774ZM23.064 54.6774H27.5801V59.1935H23.064V54.6774ZM32.0963 54.6774H36.6124V59.1935H32.0963V54.6774ZM36.6124 54.6774H41.1285V59.1935H36.6124V54.6774ZM41.1285 54.6774H45.6447V59.1935H41.1285V54.6774ZM45.6447 54.6774H50.1608V59.1935H45.6447V54.6774ZM54.6769 54.6774H59.193V59.1935H54.6769V54.6774ZM68.2253 54.6774H72.7414V59.1935H68.2253V54.6774ZM72.7414 54.6774H77.2576V59.1935H72.7414V54.6774ZM77.2576 54.6774H81.7737V59.1935H77.2576V54.6774ZM90.8059 54.6774H95.3221V59.1935H90.8059V54.6774ZM99.8382 54.6774H104.354V59.1935H99.8382V54.6774ZM104.354 54.6774H108.87V59.1935H104.354V54.6774ZM9.51562 59.1935H14.0318V63.7097H9.51562V59.1935ZM14.0318 59.1935H18.5479V63.7097H14.0318V59.1935ZM23.064 59.1935H27.5801V63.7097H23.064V59.1935ZM27.5801 59.1935H32.0963V63.7097H27.5801V59.1935ZM32.0963 59.1935H36.6124V63.7097H32.0963V59.1935ZM41.1285 59.1935H45.6447V63.7097H41.1285V59.1935ZM63.7092 59.1935H68.2253V63.7097H63.7092V59.1935ZM68.2253 59.1935H72.7414V63.7097H68.2253V59.1935ZM90.8059 59.1935H95.3221V63.7097H90.8059V59.1935ZM95.3221 59.1935H99.8382V63.7097H95.3221V59.1935ZM113.387 59.1935H117.903V63.7097H113.387V59.1935ZM122.419 59.1935H126.935V63.7097H122.419V59.1935ZM131.451 59.1935H135.967V63.7097H131.451V59.1935ZM9.51562 63.7097H14.0318V68.2258H9.51562V63.7097ZM14.0318 63.7097H18.5479V68.2258H14.0318V63.7097ZM23.064 63.7097H27.5801V68.2258H23.064V63.7097ZM27.5801 63.7097H32.0963V68.2258H27.5801V63.7097ZM36.6124 63.7097H41.1285V68.2258H36.6124V63.7097ZM41.1285 63.7097H45.6447V68.2258H41.1285V63.7097ZM45.6447 63.7097H50.1608V68.2258H45.6447V63.7097ZM50.1608 63.7097H54.6769V68.2258H50.1608V63.7097ZM54.6769 63.7097H59.193V68.2258H54.6769V63.7097ZM63.7092 63.7097H68.2253V68.2258H63.7092V63.7097ZM72.7414 63.7097H77.2576V68.2258H72.7414V63.7097ZM77.2576 63.7097H81.7737V68.2258H77.2576V63.7097ZM81.7737 63.7097H86.2898V68.2258H81.7737V63.7097ZM86.2898 63.7097H90.8059V68.2258H86.2898V63.7097ZM122.419 63.7097H126.935V68.2258H122.419V63.7097ZM126.935 63.7097H131.451V68.2258H126.935V63.7097ZM18.5479 68.2258H23.064V72.7419H18.5479V68.2258ZM23.064 68.2258H27.5801V72.7419H23.064V68.2258ZM41.1285 68.2258H45.6447V72.7419H41.1285V68.2258ZM81.7737 68.2258H86.2898V72.7419H81.7737V68.2258ZM90.8059 68.2258H95.3221V72.7419H90.8059V68.2258ZM95.3221 68.2258H99.8382V72.7419H95.3221V68.2258ZM99.8382 68.2258H104.354V72.7419H99.8382V68.2258ZM104.354 68.2258H108.87V72.7419H104.354V68.2258ZM108.87 68.2258H113.387V72.7419H108.87V68.2258ZM117.903 68.2258H122.419V72.7419H117.903V68.2258ZM135.967 68.2258H140.483V72.7419H135.967V68.2258ZM36.6124 72.7419H41.1285V77.258H36.6124V72.7419ZM41.1285 72.7419H45.6447V77.258H41.1285V72.7419ZM54.6769 72.7419H59.193V77.258H54.6769V72.7419ZM59.193 72.7419H63.7092V77.258H59.193V72.7419ZM63.7092 72.7419H68.2253V77.258H63.7092V72.7419ZM77.2576 72.7419H81.7737V77.258H77.2576V72.7419ZM86.2898 72.7419H90.8059V77.258H86.2898V72.7419ZM117.903 72.7419H122.419V77.258H117.903V72.7419ZM122.419 72.7419H126.935V77.258H122.419V72.7419ZM126.935 72.7419H131.451V77.258H126.935V72.7419ZM9.51562 77.258H14.0318V81.7742H9.51562V77.258ZM14.0318 77.258H18.5479V81.7742H14.0318V77.258ZM23.064 77.258H27.5801V81.7742H23.064V77.258ZM27.5801 77.258H32.0963V81.7742H27.5801V77.258ZM45.6447 77.258H50.1608V81.7742H45.6447V77.258ZM50.1608 77.258H54.6769V81.7742H50.1608V77.258ZM59.193 77.258H63.7092V81.7742H59.193V77.258ZM72.7414 77.258H77.2576V81.7742H72.7414V77.258ZM95.3221 77.258H99.8382V81.7742H95.3221V77.258ZM99.8382 77.258H104.354V81.7742H99.8382V77.258ZM104.354 77.258H108.87V81.7742H104.354V77.258ZM117.903 77.258H122.419V81.7742H117.903V77.258ZM131.451 77.258H135.967V81.7742H131.451V77.258ZM9.51562 81.7742H14.0318V86.2903H9.51562V81.7742ZM14.0318 81.7742H18.5479V86.2903H14.0318V81.7742ZM18.5479 81.7742H23.064V86.2903H18.5479V81.7742ZM23.064 81.7742H27.5801V86.2903H23.064V81.7742ZM27.5801 81.7742H32.0963V86.2903H27.5801V81.7742ZM32.0963 81.7742H36.6124V86.2903H32.0963V81.7742ZM36.6124 81.7742H41.1285V86.2903H36.6124V81.7742ZM59.193 81.7742H63.7092V86.2903H59.193V81.7742ZM77.2576 81.7742H81.7737V86.2903H77.2576V81.7742ZM81.7737 81.7742H86.2898V86.2903H81.7737V81.7742ZM86.2898 81.7742H90.8059V86.2903H86.2898V81.7742ZM90.8059 81.7742H95.3221V86.2903H90.8059V81.7742ZM95.3221 81.7742H99.8382V86.2903H95.3221V81.7742ZM113.387 81.7742H117.903V86.2903H113.387V81.7742ZM122.419 81.7742H126.935V86.2903H122.419V81.7742ZM126.935 81.7742H131.451V86.2903H126.935V81.7742ZM9.51562 86.2903H14.0318V90.8064H9.51562V86.2903ZM32.0963 86.2903H36.6124V90.8064H32.0963V86.2903ZM41.1285 86.2903H45.6447V90.8064H41.1285V86.2903ZM63.7092 86.2903H68.2253V90.8064H63.7092V86.2903ZM68.2253 86.2903H72.7414V90.8064H68.2253V86.2903ZM72.7414 86.2903H77.2576V90.8064H72.7414V86.2903ZM95.3221 86.2903H99.8382V90.8064H95.3221V86.2903ZM104.354 86.2903H108.87V90.8064H104.354V86.2903ZM108.87 86.2903H113.387V90.8064H108.87V86.2903ZM113.387 86.2903H117.903V90.8064H113.387V86.2903ZM117.903 86.2903H122.419V90.8064H117.903V86.2903ZM126.935 86.2903H131.451V90.8064H126.935V86.2903ZM135.967 86.2903H140.483V90.8064H135.967V86.2903ZM9.51562 90.8064H14.0318V95.3226H9.51562V90.8064ZM18.5479 90.8064H23.064V95.3226H18.5479V90.8064ZM23.064 90.8064H27.5801V95.3226H23.064V90.8064ZM36.6124 90.8064H41.1285V95.3226H36.6124V90.8064ZM41.1285 90.8064H45.6447V95.3226H41.1285V90.8064ZM45.6447 90.8064H50.1608V95.3226H45.6447V90.8064ZM68.2253 90.8064H72.7414V95.3226H68.2253V90.8064ZM72.7414 90.8064H77.2576V95.3226H72.7414V90.8064ZM77.2576 90.8064H81.7737V95.3226H77.2576V90.8064ZM86.2898 90.8064H90.8059V95.3226H86.2898V90.8064ZM104.354 90.8064H108.87V95.3226H104.354V90.8064ZM108.87 90.8064H113.387V95.3226H108.87V90.8064ZM117.903 90.8064H122.419V95.3226H117.903V90.8064ZM126.935 90.8064H131.451V95.3226H126.935V90.8064ZM9.51562 95.3226H14.0318V99.8387H9.51562V95.3226ZM18.5479 95.3226H23.064V99.8387H18.5479V95.3226ZM45.6447 95.3226H50.1608V99.8387H45.6447V95.3226ZM54.6769 95.3226H59.193V99.8387H54.6769V95.3226ZM63.7092 95.3226H68.2253V99.8387H63.7092V95.3226ZM68.2253 95.3226H72.7414V99.8387H68.2253V95.3226ZM81.7737 95.3226H86.2898V99.8387H81.7737V95.3226ZM90.8059 95.3226H95.3221V99.8387H90.8059V95.3226ZM99.8382 95.3226H104.354V99.8387H99.8382V95.3226ZM104.354 95.3226H108.87V99.8387H104.354V95.3226ZM108.87 95.3226H113.387V99.8387H108.87V95.3226ZM117.903 95.3226H122.419V99.8387H117.903V95.3226ZM131.451 95.3226H135.967V99.8387H131.451V95.3226ZM9.51562 99.8387H14.0318V104.355H9.51562V99.8387ZM18.5479 99.8387H23.064V104.355H18.5479V99.8387ZM32.0963 99.8387H36.6124V104.355H32.0963V99.8387ZM36.6124 99.8387H41.1285V104.355H36.6124V99.8387ZM41.1285 99.8387H45.6447V104.355H41.1285V99.8387ZM45.6447 99.8387H50.1608V104.355H45.6447V99.8387ZM50.1608 99.8387H54.6769V104.355H50.1608V99.8387ZM54.6769 99.8387H59.193V104.355H54.6769V99.8387ZM63.7092 99.8387H68.2253V104.355H63.7092V99.8387ZM72.7414 99.8387H77.2576V104.355H72.7414V99.8387ZM77.2576 99.8387H81.7737V104.355H77.2576V99.8387ZM86.2898 99.8387H90.8059V104.355H86.2898V99.8387ZM99.8382 99.8387H104.354V104.355H99.8382V99.8387ZM104.354 99.8387H108.87V104.355H104.354V99.8387ZM108.87 99.8387H113.387V104.355H108.87V99.8387ZM113.387 99.8387H117.903V104.355H113.387V99.8387ZM117.903 99.8387H122.419V104.355H117.903V99.8387ZM126.935 99.8387H131.451V104.355H126.935V99.8387ZM131.451 99.8387H135.967V104.355H131.451V99.8387ZM135.967 99.8387H140.483V104.355H135.967V99.8387ZM45.6447 104.355H50.1608V108.871H45.6447V104.355ZM81.7737 104.355H86.2898V108.871H81.7737V104.355ZM86.2898 104.355H90.8059V108.871H86.2898V104.355ZM90.8059 104.355H95.3221V108.871H90.8059V104.355ZM95.3221 104.355H99.8382V108.871H95.3221V104.355ZM99.8382 104.355H104.354V108.871H99.8382V104.355ZM117.903 104.355H122.419V108.871H117.903V104.355ZM122.419 104.355H126.935V108.871H122.419V104.355ZM126.935 104.355H131.451V108.871H126.935V104.355ZM131.451 104.355H135.967V108.871H131.451V104.355ZM135.967 104.355H140.483V108.871H135.967V104.355ZM9.51562 108.871H14.0318V113.387H9.51562V108.871ZM14.0318 108.871H18.5479V113.387H14.0318V108.871ZM18.5479 108.871H23.064V113.387H18.5479V108.871ZM23.064 108.871H27.5801V113.387H23.064V108.871ZM27.5801 108.871H32.0963V113.387H27.5801V108.871ZM32.0963 108.871H36.6124V113.387H32.0963V108.871ZM36.6124 108.871H41.1285V113.387H36.6124V108.871ZM45.6447 108.871H50.1608V113.387H45.6447V108.871ZM50.1608 108.871H54.6769V113.387H50.1608V108.871ZM54.6769 108.871H59.193V113.387H54.6769V108.871ZM59.193 108.871H63.7092V113.387H59.193V108.871ZM63.7092 108.871H68.2253V113.387H63.7092V108.871ZM77.2576 108.871H81.7737V113.387H77.2576V108.871ZM81.7737 108.871H86.2898V113.387H81.7737V108.871ZM86.2898 108.871H90.8059V113.387H86.2898V108.871ZM90.8059 108.871H95.3221V113.387H90.8059V108.871ZM95.3221 108.871H99.8382V113.387H95.3221V108.871ZM99.8382 108.871H104.354V113.387H99.8382V108.871ZM108.87 108.871H113.387V113.387H108.87V108.871ZM117.903 108.871H122.419V113.387H117.903V108.871ZM122.419 108.871H126.935V113.387H122.419V108.871ZM126.935 108.871H131.451V113.387H126.935V108.871ZM9.51562 113.387H14.0318V117.903H9.51562V113.387ZM36.6124 113.387H41.1285V117.903H36.6124V113.387ZM50.1608 113.387H54.6769V117.903H50.1608V113.387ZM59.193 113.387H63.7092V117.903H59.193V113.387ZM72.7414 113.387H77.2576V117.903H72.7414V113.387ZM81.7737 113.387H86.2898V117.903H81.7737V113.387ZM95.3221 113.387H99.8382V117.903H95.3221V113.387ZM99.8382 113.387H104.354V117.903H99.8382V113.387ZM117.903 113.387H122.419V117.903H117.903V113.387ZM131.451 113.387H135.967V117.903H131.451V113.387ZM135.967 113.387H140.483V117.903H135.967V113.387ZM9.51562 117.903H14.0318V122.419H9.51562V117.903ZM18.5479 117.903H23.064V122.419H18.5479V117.903ZM23.064 117.903H27.5801V122.419H23.064V117.903ZM27.5801 117.903H32.0963V122.419H27.5801V117.903ZM36.6124 117.903H41.1285V122.419H36.6124V117.903ZM45.6447 117.903H50.1608V122.419H45.6447V117.903ZM54.6769 117.903H59.193V122.419H54.6769V117.903ZM59.193 117.903H63.7092V122.419H59.193V117.903ZM81.7737 117.903H86.2898V122.419H81.7737V117.903ZM86.2898 117.903H90.8059V122.419H86.2898V117.903ZM99.8382 117.903H104.354V122.419H99.8382V117.903ZM104.354 117.903H108.87V122.419H104.354V117.903ZM108.87 117.903H113.387V122.419H108.87V117.903ZM113.387 117.903H117.903V122.419H113.387V117.903ZM117.903 117.903H122.419V122.419H117.903V117.903ZM126.935 117.903H131.451V122.419H126.935V117.903ZM9.51562 122.419H14.0318V126.935H9.51562V122.419ZM18.5479 122.419H23.064V126.935H18.5479V122.419ZM23.064 122.419H27.5801V126.935H23.064V122.419ZM27.5801 122.419H32.0963V126.935H27.5801V122.419ZM36.6124 122.419H41.1285V126.935H36.6124V122.419ZM45.6447 122.419H50.1608V126.935H45.6447V122.419ZM50.1608 122.419H54.6769V126.935H50.1608V122.419ZM63.7092 122.419H68.2253V126.935H63.7092V122.419ZM68.2253 122.419H72.7414V126.935H68.2253V122.419ZM72.7414 122.419H77.2576V126.935H72.7414V122.419ZM77.2576 122.419H81.7737V126.935H77.2576V122.419ZM81.7737 122.419H86.2898V126.935H81.7737V122.419ZM95.3221 122.419H99.8382V126.935H95.3221V122.419ZM99.8382 122.419H104.354V126.935H99.8382V122.419ZM113.387 122.419H117.903V126.935H113.387V122.419ZM122.419 122.419H126.935V126.935H122.419V122.419ZM126.935 122.419H131.451V126.935H126.935V122.419ZM131.451 122.419H135.967V126.935H131.451V122.419ZM135.967 122.419H140.483V126.935H135.967V122.419ZM9.51562 126.935H14.0318V131.452H9.51562V126.935ZM18.5479 126.935H23.064V131.452H18.5479V126.935ZM23.064 126.935H27.5801V131.452H23.064V126.935ZM27.5801 126.935H32.0963V131.452H27.5801V126.935ZM36.6124 126.935H41.1285V131.452H36.6124V126.935ZM45.6447 126.935H50.1608V131.452H45.6447V126.935ZM50.1608 126.935H54.6769V131.452H50.1608V126.935ZM68.2253 126.935H72.7414V131.452H68.2253V126.935ZM72.7414 126.935H77.2576V131.452H72.7414V126.935ZM77.2576 126.935H81.7737V131.452H77.2576V126.935ZM81.7737 126.935H86.2898V131.452H81.7737V126.935ZM86.2898 126.935H90.8059V131.452H86.2898V126.935ZM90.8059 126.935H95.3221V131.452H90.8059V126.935ZM108.87 126.935H113.387V131.452H108.87V126.935ZM113.387 126.935H117.903V131.452H113.387V126.935ZM117.903 126.935H122.419V131.452H117.903V126.935ZM122.419 126.935H126.935V131.452H122.419V126.935ZM126.935 126.935H131.451V131.452H126.935V126.935ZM131.451 126.935H135.967V131.452H131.451V126.935ZM9.51562 131.452H14.0318V135.968H9.51562V131.452ZM36.6124 131.452H41.1285V135.968H36.6124V131.452ZM45.6447 131.452H50.1608V135.968H45.6447V131.452ZM50.1608 131.452H54.6769V135.968H50.1608V131.452ZM54.6769 131.452H59.193V135.968H54.6769V131.452ZM63.7092 131.452H68.2253V135.968H63.7092V131.452ZM68.2253 131.452H72.7414V135.968H68.2253V131.452ZM81.7737 131.452H86.2898V135.968H81.7737V131.452ZM95.3221 131.452H99.8382V135.968H95.3221V131.452ZM99.8382 131.452H104.354V135.968H99.8382V131.452ZM113.387 131.452H117.903V135.968H113.387V131.452ZM117.903 131.452H122.419V135.968H117.903V131.452ZM122.419 131.452H126.935V135.968H122.419V131.452ZM131.451 131.452H135.967V135.968H131.451V131.452ZM9.51562 135.968H14.0318V140.484H9.51562V135.968ZM14.0318 135.968H18.5479V140.484H14.0318V135.968ZM18.5479 135.968H23.064V140.484H18.5479V135.968ZM23.064 135.968H27.5801V140.484H23.064V135.968ZM27.5801 135.968H32.0963V140.484H27.5801V135.968ZM32.0963 135.968H36.6124V140.484H32.0963V135.968ZM36.6124 135.968H41.1285V140.484H36.6124V135.968ZM45.6447 135.968H50.1608V140.484H45.6447V135.968ZM50.1608 135.968H54.6769V140.484H50.1608V135.968ZM54.6769 135.968H59.193V140.484H54.6769V135.968ZM63.7092 135.968H68.2253V140.484H63.7092V135.968ZM72.7414 135.968H77.2576V140.484H72.7414V135.968ZM77.2576 135.968H81.7737V140.484H77.2576V135.968ZM81.7737 135.968H86.2898V140.484H81.7737V135.968ZM86.2898 135.968H90.8059V140.484H86.2898V135.968ZM90.8059 135.968H95.3221V140.484H90.8059V135.968ZM95.3221 135.968H99.8382V140.484H95.3221V135.968ZM117.903 135.968H122.419V140.484H117.903V135.968ZM126.935 135.968H131.451V140.484H126.935V135.968Z" fill="black"/>
</svg>
