<svg width="24" height="24" viewBox="0 0 24 24" fill="none" xmlns="http://www.w3.org/2000/svg">
<path opacity="0.5" fill-rule="evenodd" clip-rule="evenodd" d="M12 20.4C16.6392 20.4 20.4 16.6392 20.4 12C20.4 7.36081 16.6392 3.6 12 3.6C7.36081 3.6 3.6 7.36081 3.6 12C3.6 16.6392 7.36081 20.4 12 20.4ZM12 22C17.5228 22 22 17.5228 22 12C22 6.47715 17.5228 2 12 2C6.47715 2 2 6.47715 2 12C2 17.5228 6.47715 22 12 22Z" fill="#1C72EB"/>
<path d="M10.9476 13.289C10.9476 12.4037 11.245 11.9363 12.2649 11.1218C12.9943 10.5411 13.3343 10.1799 13.3343 9.53541C13.3343 8.79887 12.704 8.27479 11.847 8.27479C11.0892 8.27479 10.5864 8.5864 10.2323 9.27337C10.0411 9.59915 9.88527 9.71955 9.60198 9.71955C9.21955 9.71955 9 9.45042 9 9.09632C9 8.60765 9.29037 8.06941 9.75071 7.6728C10.2535 7.24079 10.983 7 11.9178 7C13.7025 7 14.9348 7.97025 14.9348 9.48584C14.9348 10.4986 14.4249 11.1006 13.483 11.83C12.7181 12.432 12.5127 12.6799 12.3924 13.3456C12.272 13.7564 12.0878 14.0042 11.6487 14.0042C11.2025 14.0042 10.9476 13.7068 10.9476 13.289ZM10.7068 16.0864C10.7068 15.5623 11.1388 15.1799 11.6629 15.1799C12.187 15.1799 12.619 15.5623 12.619 16.0864C12.619 16.6105 12.187 17 11.6629 17C11.1388 17 10.7068 16.6105 10.7068 16.0864Z" fill="#1C72EB"/>
</svg>
