<svg viewBox="0 0 40 40" fill="none" xmlns="http://www.w3.org/2000/svg">
<path d="M10.945 27.2727C7.15366 27.2727 4.54541 24.9267 4.54541 21.5453C4.54541 18.8848 6.27976 16.7222 8.90145 15.9752C9.37201 11.0473 13.5936 7.27271 18.6219 7.27271C22.4536 7.27271 25.6131 9.1862 27.3474 12.5807C31.9589 12.5414 35.4545 15.7 35.4545 19.907C35.4545 24.0486 32.0799 27.2727 27.7104 27.2727H10.945Z" fill="#CAE6FA"/>
<path d="M10.945 27.2727C7.15366 27.2727 4.54541 24.9267 4.54541 21.5453C4.54541 18.8848 6.27976 16.7222 8.90145 15.9752C9.37201 11.0473 13.5936 7.27271 18.6219 7.27271C22.4536 7.27271 25.6131 9.1862 27.3474 12.5807C31.9589 12.5414 35.4545 15.7 35.4545 19.907C35.4545 24.0486 32.0799 27.2727 27.7104 27.2727H10.945Z" fill="url(#paint0_linear)" fill-opacity="0.5"/>
<path d="M8.18176 30V32.7273" stroke="#63A1FF" stroke-width="1.81818" stroke-linecap="round" stroke-linejoin="round"/>
<path d="M8.18176 30V32.7273" stroke="url(#paint1_linear)" stroke-opacity="0.2" stroke-width="1.81818" stroke-linecap="round" stroke-linejoin="round"/>
<path d="M12.7273 30V33.1818V36.3636" stroke="#63A1FF" stroke-width="1.81818" stroke-linecap="round" stroke-linejoin="round"/>
<path d="M12.7273 30V33.1818V36.3636" stroke="url(#paint2_linear)" stroke-opacity="0.2" stroke-width="1.81818" stroke-linecap="round" stroke-linejoin="round"/>
<path d="M17.2727 30V32.7273" stroke="#63A1FF" stroke-width="1.81818" stroke-linecap="round" stroke-linejoin="round"/>
<path d="M17.2727 30V32.7273" stroke="url(#paint3_linear)" stroke-opacity="0.2" stroke-width="1.81818" stroke-linecap="round" stroke-linejoin="round"/>
<path d="M21.8182 30V33.1818V36.3636" stroke="#63A1FF" stroke-width="1.81818" stroke-linecap="round" stroke-linejoin="round"/>
<path d="M21.8182 30V33.1818V36.3636" stroke="url(#paint4_linear)" stroke-opacity="0.2" stroke-width="1.81818" stroke-linecap="round" stroke-linejoin="round"/>
<path d="M26.3636 30V32.7273" stroke="#63A1FF" stroke-width="1.81818" stroke-linecap="round" stroke-linejoin="round"/>
<path d="M26.3636 30V32.7273" stroke="url(#paint5_linear)" stroke-opacity="0.2" stroke-width="1.81818" stroke-linecap="round" stroke-linejoin="round"/>
<path d="M30.9091 30V33.1818V36.3636" stroke="#63A1FF" stroke-width="1.81818" stroke-linecap="round" stroke-linejoin="round"/>
<path d="M30.9091 30V33.1818V36.3636" stroke="url(#paint6_linear)" stroke-opacity="0.2" stroke-width="1.81818" stroke-linecap="round" stroke-linejoin="round"/>
<defs>
<linearGradient id="paint0_linear" x1="20" y1="7.27271" x2="20" y2="27.2727" gradientUnits="userSpaceOnUse">
<stop stop-color="white"/>
<stop offset="1" stop-color="white" stop-opacity="0"/>
</linearGradient>
<linearGradient id="paint1_linear" x1="8.68176" y1="29.2208" x2="8.68176" y2="33.5065" gradientUnits="userSpaceOnUse">
<stop stop-color="#5200FF"/>
<stop offset="1" stop-color="#5200FF" stop-opacity="0"/>
</linearGradient>
<linearGradient id="paint2_linear" x1="13.2273" y1="28.1818" x2="13.2273" y2="38.1818" gradientUnits="userSpaceOnUse">
<stop stop-color="#5200FF"/>
<stop offset="1" stop-color="#5200FF" stop-opacity="0"/>
</linearGradient>
<linearGradient id="paint3_linear" x1="17.7727" y1="29.2208" x2="17.7727" y2="33.5065" gradientUnits="userSpaceOnUse">
<stop stop-color="#5200FF"/>
<stop offset="1" stop-color="#5200FF" stop-opacity="0"/>
</linearGradient>
<linearGradient id="paint4_linear" x1="22.3182" y1="28.1818" x2="22.3182" y2="38.1818" gradientUnits="userSpaceOnUse">
<stop stop-color="#5200FF"/>
<stop offset="1" stop-color="#5200FF" stop-opacity="0"/>
</linearGradient>
<linearGradient id="paint5_linear" x1="26.8636" y1="29.2208" x2="26.8636" y2="33.5065" gradientUnits="userSpaceOnUse">
<stop stop-color="#5200FF"/>
<stop offset="1" stop-color="#5200FF" stop-opacity="0"/>
</linearGradient>
<linearGradient id="paint6_linear" x1="31.4091" y1="28.1818" x2="31.4091" y2="38.1818" gradientUnits="userSpaceOnUse">
<stop stop-color="#5200FF"/>
<stop offset="1" stop-color="#5200FF" stop-opacity="0"/>
</linearGradient>
</defs>
</svg>
