<svg viewBox="0 0 24 24" fill="none" xmlns="http://www.w3.org/2000/svg">
<path fill-rule="evenodd" clip-rule="evenodd" d="M21.487 10.1133C22.0836 10.2536 22.5041 10.7883 22.5 11.3984V12.7584C22.4991 13.4029 22.0337 13.953 21.3996 14.06L20.0451 14.2921L20.0132 14.2976L20.0047 14.325C19.8125 14.9688 19.5428 15.5869 19.1997 16.1685L19.1845 16.1938L19.1972 16.2147L19.8562 17.2909C20.1781 17.8128 20.098 18.4878 19.6646 18.9181L18.6978 19.8873C18.2403 20.3405 17.5236 20.4001 16.9966 20.0278L15.9625 19.2933L15.9389 19.2766L15.9104 19.2917C15.4111 19.5487 14.8869 19.7541 14.3451 19.9049L14.3147 19.9133L14.3102 19.9394L14.0651 21.4009C13.9576 22.0372 13.4057 22.5023 12.7623 22.5L11.4027 22.5C10.7898 22.5062 10.2541 22.0877 10.1119 21.4929L9.72238 19.8865L9.71544 19.8583L9.68809 19.85C9.18918 19.6989 8.70591 19.5002 8.2439 19.2563L8.22134 19.2443L8.19765 19.2611L6.73067 20.3008C6.20386 20.6697 5.48874 20.6086 5.03027 20.1539L4.06256 19.1844C3.63807 18.7519 3.55911 18.0872 3.87265 17.5636L4.86265 15.9417L4.87762 15.9173L4.86436 15.8927C4.60144 15.4065 4.38764 14.8953 4.22455 14.3613L4.21779 14.3383L4.19035 14.3337L2.60168 14.0627C1.96535 13.9554 1.49967 13.4039 1.5 12.7587L1.5 11.3924C1.5012 10.7821 1.91876 10.2515 2.51145 10.1072L4.16973 9.70304L4.19694 9.69663L4.20337 9.67482C4.34217 9.18637 4.5256 8.71175 4.7539 8.25184L4.76679 8.22659L4.75143 8.20475L3.70553 6.73076C3.33664 6.20642 3.39385 5.49344 3.84575 5.03055L4.81021 4.0653C5.05968 3.8152 5.39896 3.6756 5.75325 3.67779C5.99084 3.67977 6.2237 3.74448 6.43399 3.86877L7.98775 4.81487L8.00997 4.8287L8.03477 4.8146C8.56016 4.51343 9.11743 4.27175 9.69633 4.094L9.72569 4.08499L9.73194 4.05978L10.107 2.50842C10.2511 1.91456 10.7839 1.49729 11.3926 1.50001L12.7614 1.50001C13.4096 1.49887 13.9625 1.96918 14.0649 2.6045L14.3057 4.01062L14.3101 4.03801L14.3368 4.04549C14.9735 4.22381 15.5865 4.47832 16.1657 4.80543L16.1856 4.81682L16.2075 4.80359L17.2951 4.1455C17.5028 4.0184 17.7415 3.95091 17.9863 3.95042C18.3346 3.95062 18.6685 4.08926 18.9137 4.33483L19.8843 5.30169C20.3395 5.75727 20.4006 6.4747 20.0282 7.00179L19.3377 7.97374L19.3229 7.9945L19.3396 8.02393C19.6355 8.56567 19.868 9.13974 20.0303 9.72705L20.0389 9.7562L20.0702 9.7638L21.487 10.1133Z" stroke="#3C83E8" stroke-width="1.8" stroke-linejoin="round"/>
<path fill-rule="evenodd" clip-rule="evenodd" d="M12.0775 16.2783C10.3386 16.2783 8.77099 15.23 8.10564 13.6224C7.44034 12.0149 7.80808 10.1646 9.03746 8.93418C10.267 7.70363 12.1162 7.33549 13.7228 8.00149C15.3292 8.66744 16.3765 10.2362 16.3765 11.9761C16.3765 14.3521 14.4519 16.2783 12.0775 16.2783Z" stroke="#3C83E8" stroke-width="1.5"/>
</svg>
