<svg width="36" height="37" viewBox="0 0 36 37" fill="none" xmlns="http://www.w3.org/2000/svg">
<circle cx="18" cy="18.1899" r="18" fill="#3281FF" fill-opacity="0.15"/>
<path d="M22.375 14.875H23.625C23.9565 14.875 24.2745 15.0067 24.5089 15.2411C24.7433 15.4755 24.875 15.7935 24.875 16.125V26.125C24.875 26.4565 24.7433 26.7745 24.5089 27.0089C24.2745 27.2433 23.9565 27.375 23.625 27.375H12.375C12.0435 27.375 11.7255 27.2433 11.4911 27.0089C11.2567 26.7745 11.125 26.4565 11.125 26.125V16.125C11.125 15.7935 11.2567 15.4755 11.4911 15.2411C11.7255 15.0067 12.0435 14.875 12.375 14.875H13.625" stroke="#3281FF" stroke-width="1.25" stroke-linecap="round" stroke-linejoin="round"/>
<path d="M18 8.625V17.375" stroke="#3281FF" stroke-width="1.25" stroke-linecap="round" stroke-linejoin="round"/>
<path d="M14.875 11.75L18 8.625L21.125 11.75" stroke="#3281FF" stroke-width="1.25" stroke-linecap="round" stroke-linejoin="round"/>
</svg>
