<svg viewBox="0 0 40 40" fill="none" xmlns="http://www.w3.org/2000/svg">
<path d="M36.3933 11.8513C37.3906 11.8513 38.3962 11.6447 39.0195 11.4298C39.2106 11.3472 39.3436 11.3141 39.4849 11.3141C39.7508 11.3141 40.0001 11.529 40.0001 11.8513C40.0001 11.967 39.9752 12.1819 39.8838 12.3968C38.7951 15.1571 35.7118 17.2728 32.1881 17.2728C27.3264 17.2728 23.6365 13.7935 23.6365 8.94224C23.6365 5.49596 25.6975 2.24802 28.7891 1.01662C28.9968 0.942238 29.1963 0.90918 29.3209 0.90918C29.6617 0.90918 29.8528 1.16538 29.8528 1.42984C29.8528 1.5224 29.8369 1.63612 29.7794 1.78792L29.7282 1.90918C29.429 2.5786 29.2046 3.84306 29.2046 4.79348C29.2046 9.14058 31.997 11.8513 36.3933 11.8513Z" fill="#A45CFF"/>
<path d="M36.3933 11.8513C37.3906 11.8513 38.3962 11.6447 39.0195 11.4298C39.2106 11.3472 39.3436 11.3141 39.4849 11.3141C39.7508 11.3141 40.0001 11.529 40.0001 11.8513C40.0001 11.967 39.9752 12.1819 39.8838 12.3968C38.7951 15.1571 35.7118 17.2728 32.1881 17.2728C27.3264 17.2728 23.6365 13.7935 23.6365 8.94224C23.6365 5.49596 25.6975 2.24802 28.7891 1.01662C28.9968 0.942238 29.1963 0.90918 29.3209 0.90918C29.6617 0.90918 29.8528 1.16538 29.8528 1.42984C29.8528 1.5224 29.8369 1.63612 29.7794 1.78792L29.7282 1.90918C29.429 2.5786 29.2046 3.84306 29.2046 4.79348C29.2046 9.14058 31.997 11.8513 36.3933 11.8513Z" fill="url(#paint0_linear)" fill-opacity="0.5"/>
<path d="M10.945 27.2727C7.15366 27.2727 4.54541 24.9267 4.54541 21.5453C4.54541 18.8848 6.27976 16.7222 8.90145 15.9752C9.37201 11.0473 13.5936 7.27271 18.6219 7.27271C22.4536 7.27271 25.6131 9.1862 27.3474 12.5807C31.9589 12.5414 35.4545 15.7 35.4545 19.907C35.4545 24.0486 32.0799 27.2727 27.7104 27.2727H10.945Z" fill="#CAE6FA"/>
<path d="M10.945 27.2727C7.15366 27.2727 4.54541 24.9267 4.54541 21.5453C4.54541 18.8848 6.27976 16.7222 8.90145 15.9752C9.37201 11.0473 13.5936 7.27271 18.6219 7.27271C22.4536 7.27271 25.6131 9.1862 27.3474 12.5807C31.9589 12.5414 35.4545 15.7 35.4545 19.907C35.4545 24.0486 32.0799 27.2727 27.7104 27.2727H10.945Z" fill="url(#paint1_linear)" fill-opacity="0.5"/>
<path d="M12.7273 36.3637L14.5455 33.1819" stroke="#63A1FF" stroke-width="1.81818" stroke-linecap="round" stroke-linejoin="round"/>
<path d="M12.7273 36.3637L14.5455 33.1819" stroke="url(#paint2_linear)" stroke-opacity="0.2" stroke-width="1.81818" stroke-linecap="round" stroke-linejoin="round"/>
<path d="M21.8182 30L20 33.1818" stroke="#63A1FF" stroke-width="1.81818" stroke-linecap="round" stroke-linejoin="round"/>
<path d="M21.8182 30L20 33.1818" stroke="url(#paint3_linear)" stroke-opacity="0.2" stroke-width="1.81818" stroke-linecap="round" stroke-linejoin="round"/>
<path d="M9.09089 30L7.27271 33.1818" stroke="#63A1FF" stroke-width="1.81818" stroke-linecap="round" stroke-linejoin="round"/>
<path d="M9.09089 30L7.27271 33.1818" stroke="url(#paint4_linear)" stroke-opacity="0.2" stroke-width="1.81818" stroke-linecap="round" stroke-linejoin="round"/>
<path fill-rule="evenodd" clip-rule="evenodd" d="M28.3847 37.6235C28.7121 37.6235 28.9412 37.3214 28.9085 36.969L28.7612 35.3749L30.0542 36.3146C30.316 36.516 30.6925 36.4489 30.8725 36.1636C31.0525 35.8783 30.938 35.4756 30.5943 35.3078L29.1867 34.6534L30.6106 33.9486C30.938 33.7976 31.0362 33.4116 30.8889 33.1264C30.7252 32.8411 30.316 32.774 30.0542 32.9754L28.7776 33.915L28.9249 32.3209C28.9576 31.9518 28.7121 31.6665 28.3847 31.6665C28.0083 31.6665 27.7955 31.9518 27.8119 32.3209L27.9428 33.915L26.6662 32.9754C26.4044 32.774 26.0279 32.8243 25.8479 33.1264C25.6842 33.4116 25.7824 33.7808 26.1261 33.9486L27.5337 34.6366L26.1098 35.3246C25.7824 35.4756 25.6679 35.8615 25.8315 36.1636C25.9952 36.4656 26.4044 36.516 26.6662 36.3146L27.9428 35.3917L27.8283 36.969C27.7955 37.3214 28.0083 37.6235 28.3847 37.6235Z" fill="#63A1FF"/>
<defs>
<linearGradient id="paint0_linear" x1="31.8183" y1="0.90918" x2="31.8183" y2="17.2728" gradientUnits="userSpaceOnUse">
<stop stop-color="white"/>
<stop offset="1" stop-color="white" stop-opacity="0"/>
</linearGradient>
<linearGradient id="paint1_linear" x1="20" y1="7.27271" x2="20" y2="27.2727" gradientUnits="userSpaceOnUse">
<stop stop-color="white"/>
<stop offset="1" stop-color="white" stop-opacity="0"/>
</linearGradient>
<linearGradient id="paint2_linear" x1="13.6364" y1="32.2728" x2="13.6364" y2="37.2728" gradientUnits="userSpaceOnUse">
<stop stop-color="#5200FF"/>
<stop offset="1" stop-color="#5200FF" stop-opacity="0"/>
</linearGradient>
<linearGradient id="paint3_linear" x1="20.9091" y1="29.0909" x2="20.9091" y2="34.0909" gradientUnits="userSpaceOnUse">
<stop stop-color="#5200FF"/>
<stop offset="1" stop-color="#5200FF" stop-opacity="0"/>
</linearGradient>
<linearGradient id="paint4_linear" x1="8.1818" y1="29.0909" x2="8.1818" y2="34.0909" gradientUnits="userSpaceOnUse">
<stop stop-color="#5200FF"/>
<stop offset="1" stop-color="#5200FF" stop-opacity="0"/>
</linearGradient>
</defs>
</svg>
