<svg viewBox="0 0 40 40" fill="none" xmlns="http://www.w3.org/2000/svg">
<path d="M10.945 27.2727C7.15366 27.2727 4.54541 24.9267 4.54541 21.5453C4.54541 18.8848 6.27976 16.7222 8.90145 15.9752C9.37201 11.0473 13.5936 7.27271 18.6219 7.27271C22.4536 7.27271 25.6131 9.1862 27.3474 12.5807C31.9589 12.5414 35.4545 15.7 35.4545 19.907C35.4545 24.0486 32.0799 27.2727 27.7104 27.2727H10.945Z" fill="#CAE6FA"/>
<path d="M10.945 27.2727C7.15366 27.2727 4.54541 24.9267 4.54541 21.5453C4.54541 18.8848 6.27976 16.7222 8.90145 15.9752C9.37201 11.0473 13.5936 7.27271 18.6219 7.27271C22.4536 7.27271 25.6131 9.1862 27.3474 12.5807C31.9589 12.5414 35.4545 15.7 35.4545 19.907C35.4545 24.0486 32.0799 27.2727 27.7104 27.2727H10.945Z" fill="url(#paint0_linear)" fill-opacity="0.5"/>
<path fill-rule="evenodd" clip-rule="evenodd" d="M9.09098 30C8.5889 30 8.18188 30.407 8.18188 30.9091C8.18188 31.4112 8.5889 31.8182 9.09097 31.8182H16.1829C16.685 31.8182 17.092 31.4112 17.092 30.9091C17.092 30.407 16.685 30 16.1829 30H9.09098ZM19.6209 30C19.1188 30 18.7118 30.407 18.7118 30.9091C18.7118 31.4112 19.1188 31.8182 19.6209 31.8182H29.9529C30.4549 31.8182 30.8619 31.4112 30.8619 30.9091C30.8619 30.407 30.4549 30 29.9529 30H19.6209ZM11.521 34.5455C11.0189 34.5455 10.6119 34.9525 10.6119 35.4545C10.6119 35.9566 11.0189 36.3636 11.521 36.3636H21.0429C21.545 36.3636 21.952 35.9566 21.952 35.4545C21.952 34.9525 21.545 34.5455 21.0429 34.5455H11.521ZM23.572 35.4545C23.572 34.9525 23.979 34.5455 24.4811 34.5455H27.523C28.025 34.5455 28.432 34.9525 28.432 35.4545C28.432 35.9566 28.025 36.3636 27.523 36.3636H24.4811C23.979 36.3636 23.572 35.9566 23.572 35.4545Z" fill="#CAE6FA"/>
<path fill-rule="evenodd" clip-rule="evenodd" d="M9.09098 30C8.5889 30 8.18188 30.407 8.18188 30.9091C8.18188 31.4112 8.5889 31.8182 9.09097 31.8182H16.1829C16.685 31.8182 17.092 31.4112 17.092 30.9091C17.092 30.407 16.685 30 16.1829 30H9.09098ZM19.6209 30C19.1188 30 18.7118 30.407 18.7118 30.9091C18.7118 31.4112 19.1188 31.8182 19.6209 31.8182H29.9529C30.4549 31.8182 30.8619 31.4112 30.8619 30.9091C30.8619 30.407 30.4549 30 29.9529 30H19.6209ZM11.521 34.5455C11.0189 34.5455 10.6119 34.9525 10.6119 35.4545C10.6119 35.9566 11.0189 36.3636 11.521 36.3636H21.0429C21.545 36.3636 21.952 35.9566 21.952 35.4545C21.952 34.9525 21.545 34.5455 21.0429 34.5455H11.521ZM23.572 35.4545C23.572 34.9525 23.979 34.5455 24.4811 34.5455H27.523C28.025 34.5455 28.432 34.9525 28.432 35.4545C28.432 35.9566 28.025 36.3636 27.523 36.3636H24.4811C23.979 36.3636 23.572 35.9566 23.572 35.4545Z" fill="url(#paint1_linear)" fill-opacity="0.25"/>
<defs>
<linearGradient id="paint0_linear" x1="20" y1="7.27271" x2="20" y2="27.2727" gradientUnits="userSpaceOnUse">
<stop stop-color="white"/>
<stop offset="1" stop-color="white" stop-opacity="0"/>
</linearGradient>
<linearGradient id="paint1_linear" x1="31.1876" y1="33.2813" x2="8.39895" y2="33.2813" gradientUnits="userSpaceOnUse">
<stop stop-color="white"/>
<stop offset="1" stop-color="white" stop-opacity="0"/>
</linearGradient>
</defs>
</svg>
