<svg viewBox="0 0 40 40" fill="none" xmlns="http://www.w3.org/2000/svg">
<path fill-rule="evenodd" clip-rule="evenodd" d="M28.4062 34.3935C28.4389 34.7459 28.2098 35.0479 27.8824 35.0479C27.506 35.0479 27.2932 34.7459 27.3259 34.3935L27.4405 32.8161L26.1639 33.7391C25.902 33.9404 25.4929 33.8901 25.3292 33.588C25.1655 33.286 25.2801 32.9 25.6074 32.749L27.0313 32.061L25.6238 31.373C25.2801 31.2052 25.1819 30.8361 25.3456 30.5508C25.5256 30.2488 25.902 30.1984 26.1639 30.3998L27.4405 31.3395L27.3096 29.7454C27.2932 29.3762 27.506 29.0909 27.8824 29.0909C28.2098 29.0909 28.4553 29.3762 28.4225 29.7454L28.2752 31.3395L29.5518 30.3998C29.8137 30.1984 30.2229 30.2656 30.3865 30.5508C30.5338 30.8361 30.4356 31.222 30.1083 31.373L28.6844 32.0778L30.0919 32.7322C30.4356 32.9 30.5502 33.3028 30.3702 33.588C30.1901 33.8733 29.8137 33.9404 29.5518 33.7391L28.2589 32.7994L28.4062 34.3935ZM10.2717 34.3935C10.3044 34.7459 10.0753 35.0479 9.74794 35.0479C9.3715 35.0479 9.15873 34.7459 9.19147 34.3935L9.3224 32.8162L8.02943 33.7391C7.76756 33.9404 7.35839 33.8901 7.19472 33.5881C7.03106 33.286 7.14562 32.9001 7.48932 32.7491L8.89687 32.0611L7.48932 31.3731C7.14562 31.2053 7.04742 30.8361 7.21109 30.5509C7.39112 30.2488 7.76756 30.1985 8.02943 30.3998L9.3224 31.3395L9.1751 29.7454C9.15873 29.3762 9.3715 29.091 9.74794 29.091C10.0753 29.091 10.3208 29.3762 10.288 29.7454L10.1407 31.3395L11.4173 30.3998C11.6792 30.1985 12.0884 30.2656 12.2521 30.5509C12.3994 30.8361 12.3012 31.2221 11.9738 31.3731L10.5499 32.0778L11.9575 32.7323C12.3012 32.9001 12.4157 33.3028 12.2357 33.5881C12.072 33.8733 11.6792 33.9404 11.4173 33.7391L10.1244 32.7994L10.2717 34.3935Z" fill="#63A1FF"/>
<path d="M18.8151 39.0909C19.1424 39.0909 19.3715 38.7888 19.3388 38.4364L19.1915 36.8423L20.4845 37.782C20.7464 37.9834 21.1392 37.9163 21.3028 37.631C21.4829 37.3457 21.3683 36.943 21.0246 36.7752L19.617 36.1208L21.041 35.416C21.3683 35.265 21.4665 34.879 21.3192 34.5938C21.1555 34.3085 20.7464 34.2414 20.4845 34.4428L19.2079 35.3825L19.3552 33.7883C19.3879 33.4192 19.1424 33.1339 18.8151 33.1339C18.4386 33.1339 18.2259 33.4192 18.2422 33.7883L18.3732 35.3825L17.0966 34.4428C16.8347 34.2414 16.4583 34.2917 16.2782 34.5938C16.1146 34.879 16.2128 35.2482 16.5565 35.416L17.964 36.104L16.5565 36.792C16.2128 36.943 16.0982 37.329 16.2619 37.631C16.4255 37.933 16.8347 37.9834 17.0966 37.782L18.3732 36.8591L18.2586 38.4364C18.2259 38.7888 18.4386 39.0909 18.8151 39.0909Z" fill="#63A1FF"/>
<path d="M36.3932 11.8512C37.3905 11.8512 38.396 11.6446 39.0193 11.4297C39.2105 11.3471 39.3434 11.314 39.4847 11.314C39.7507 11.314 40 11.5289 40 11.8512C40 11.9669 39.9751 12.1818 39.8836 12.3967C38.7949 15.157 35.7117 17.2727 32.188 17.2727C27.3263 17.2727 23.6364 13.7934 23.6364 8.94212C23.6364 5.49583 25.6974 2.2479 28.7889 1.0165C28.9967 0.942115 29.1962 0.909058 29.3208 0.909058C29.6616 0.909058 29.8527 1.16526 29.8527 1.42972C29.8527 1.52228 29.8367 1.636 29.7793 1.7878L29.728 1.90906C29.4289 2.57848 29.2045 3.84294 29.2045 4.79336C29.2045 9.14046 31.9969 11.8512 36.3932 11.8512Z" fill="#A45CFF"/>
<path d="M36.3932 11.8512C37.3905 11.8512 38.396 11.6446 39.0193 11.4297C39.2105 11.3471 39.3434 11.314 39.4847 11.314C39.7507 11.314 40 11.5289 40 11.8512C40 11.9669 39.9751 12.1818 39.8836 12.3967C38.7949 15.157 35.7117 17.2727 32.188 17.2727C27.3263 17.2727 23.6364 13.7934 23.6364 8.94212C23.6364 5.49583 25.6974 2.2479 28.7889 1.0165C28.9967 0.942115 29.1962 0.909058 29.3208 0.909058C29.6616 0.909058 29.8527 1.16526 29.8527 1.42972C29.8527 1.52228 29.8367 1.636 29.7793 1.7878L29.728 1.90906C29.4289 2.57848 29.2045 3.84294 29.2045 4.79336C29.2045 9.14046 31.9969 11.8512 36.3932 11.8512Z" fill="url(#paint0_linear)" fill-opacity="0.5"/>
<path d="M10.945 27.2727C7.15366 27.2727 4.54541 24.9267 4.54541 21.5453C4.54541 18.8848 6.27976 16.7222 8.90145 15.9752C9.37201 11.0473 13.5936 7.27271 18.6219 7.27271C22.4536 7.27271 25.6131 9.1862 27.3474 12.5807C31.9589 12.5414 35.4545 15.7 35.4545 19.907C35.4545 24.0486 32.0799 27.2727 27.7104 27.2727H10.945Z" fill="#CAE6FA"/>
<path d="M10.945 27.2727C7.15366 27.2727 4.54541 24.9267 4.54541 21.5453C4.54541 18.8848 6.27976 16.7222 8.90145 15.9752C9.37201 11.0473 13.5936 7.27271 18.6219 7.27271C22.4536 7.27271 25.6131 9.1862 27.3474 12.5807C31.9589 12.5414 35.4545 15.7 35.4545 19.907C35.4545 24.0486 32.0799 27.2727 27.7104 27.2727H10.945Z" fill="url(#paint1_linear)" fill-opacity="0.5"/>
<defs>
<linearGradient id="paint0_linear" x1="31.8182" y1="0.909058" x2="31.8182" y2="17.2727" gradientUnits="userSpaceOnUse">
<stop stop-color="white"/>
<stop offset="1" stop-color="white" stop-opacity="0"/>
</linearGradient>
<linearGradient id="paint1_linear" x1="20" y1="7.27271" x2="20" y2="27.2727" gradientUnits="userSpaceOnUse">
<stop stop-color="white"/>
<stop offset="1" stop-color="white" stop-opacity="0"/>
</linearGradient>
</defs>
</svg>
