<svg viewBox="0 0 40 40" fill="none" xmlns="http://www.w3.org/2000/svg">
<path fill-rule="evenodd" clip-rule="evenodd" d="M28.656 34.3935C28.6887 34.7459 28.4596 35.0479 28.1322 35.0479C27.7558 35.0479 27.543 34.7459 27.5757 34.3935L27.6903 32.8161L26.4137 33.7391C26.1518 33.9404 25.7427 33.8901 25.579 33.588C25.4153 33.286 25.5299 32.9 25.8572 32.749L27.2811 32.061L25.8736 31.373C25.5299 31.2052 25.4317 30.8361 25.5954 30.5508C25.7754 30.2488 26.1518 30.1984 26.4137 30.3998L27.6903 31.3395L27.5594 29.7454C27.543 29.3762 27.7558 29.0909 28.1322 29.0909C28.4596 29.0909 28.7051 29.3762 28.6723 29.7454L28.525 31.3395L29.8016 30.3998C30.0635 30.1984 30.4727 30.2656 30.6363 30.5508C30.7836 30.8361 30.6854 31.222 30.3581 31.373L28.9342 32.0778L30.3417 32.7322C30.6854 32.9 30.8 33.3028 30.62 33.588C30.4399 33.8733 30.0635 33.9404 29.8016 33.7391L28.5087 32.7994L28.656 34.3935ZM10.5216 34.3935C10.5543 34.7459 10.3252 35.0479 9.99782 35.0479C9.62138 35.0479 9.40861 34.7459 9.44135 34.3935L9.57228 32.8162L8.27931 33.7391C8.01744 33.9404 7.60827 33.8901 7.4446 33.5881C7.28093 33.286 7.3955 32.9001 7.7392 32.7491L9.14674 32.0611L7.7392 31.3731C7.3955 31.2053 7.2973 30.8361 7.46097 30.5509C7.641 30.2488 8.01744 30.1985 8.27931 30.3998L9.57228 31.3395L9.42498 29.7454C9.40861 29.3762 9.62138 29.091 9.99782 29.091C10.3252 29.091 10.5707 29.3762 10.5379 29.7454L10.3906 31.3395L11.6672 30.3998C11.9291 30.1985 12.3383 30.2656 12.5019 30.5509C12.6492 30.8361 12.551 31.2221 12.2237 31.3731L10.7998 32.0778L12.2073 32.7323C12.551 32.9001 12.6656 33.3028 12.4856 33.5881C12.3219 33.8733 11.9291 33.9404 11.6672 33.7391L10.3743 32.7994L10.5216 34.3935Z" fill="#63A1FF"/>
<path d="M19.065 39.0909C19.3923 39.0909 19.6214 38.7888 19.5887 38.4364L19.4414 36.8423L20.7344 37.782C20.9962 37.9834 21.389 37.9163 21.5527 37.631C21.7327 37.3457 21.6182 36.943 21.2745 36.7752L19.8669 36.1208L21.2908 35.416C21.6182 35.265 21.7164 34.879 21.5691 34.5938C21.4054 34.3085 20.9962 34.2414 20.7344 34.4428L19.4578 35.3825L19.6051 33.7883C19.6378 33.4192 19.3923 33.1339 19.065 33.1339C18.6885 33.1339 18.4758 33.4192 18.4921 33.7883L18.6231 35.3825L17.3464 34.4428C17.0846 34.2414 16.7081 34.2917 16.5281 34.5938C16.3644 34.879 16.4626 35.2482 16.8063 35.416L18.2139 36.104L16.8063 36.792C16.4626 36.943 16.3481 37.329 16.5117 37.631C16.6754 37.933 17.0846 37.9834 17.3464 37.782L18.6231 36.8591L18.5085 38.4364C18.4758 38.7888 18.6885 39.0909 19.065 39.0909Z" fill="#63A1FF"/>
<path d="M10.945 27.2727C7.15366 27.2727 4.54541 24.9267 4.54541 21.5453C4.54541 18.8848 6.27976 16.7222 8.90145 15.9752C9.37201 11.0473 13.5936 7.27271 18.6219 7.27271C22.4536 7.27271 25.6131 9.1862 27.3474 12.5807C31.9589 12.5414 35.4545 15.7 35.4545 19.907C35.4545 24.0486 32.0799 27.2727 27.7104 27.2727H10.945Z" fill="#CAE6FA"/>
<path d="M10.945 27.2727C7.15366 27.2727 4.54541 24.9267 4.54541 21.5453C4.54541 18.8848 6.27976 16.7222 8.90145 15.9752C9.37201 11.0473 13.5936 7.27271 18.6219 7.27271C22.4536 7.27271 25.6131 9.1862 27.3474 12.5807C31.9589 12.5414 35.4545 15.7 35.4545 19.907C35.4545 24.0486 32.0799 27.2727 27.7104 27.2727H10.945Z" fill="url(#paint0_linear)" fill-opacity="0.5"/>
<defs>
<linearGradient id="paint0_linear" x1="20" y1="7.27271" x2="20" y2="27.2727" gradientUnits="userSpaceOnUse">
<stop stop-color="white"/>
<stop offset="1" stop-color="white" stop-opacity="0"/>
</linearGradient>
</defs>
</svg>
