<svg viewBox="0 0 40 40" fill="none" xmlns="http://www.w3.org/2000/svg">
<path d="M10.945 27.2727C7.15366 27.2727 4.54541 24.9267 4.54541 21.5453C4.54541 18.8848 6.27976 16.7222 8.90145 15.9752C9.37201 11.0473 13.5936 7.27271 18.6219 7.27271C22.4536 7.27271 25.6131 9.1862 27.3474 12.5807C31.9589 12.5414 35.4545 15.7 35.4545 19.907C35.4545 24.0486 32.0799 27.2727 27.7104 27.2727H10.945Z" fill="#CAE6FA"/>
<path d="M10.945 27.2727C7.15366 27.2727 4.54541 24.9267 4.54541 21.5453C4.54541 18.8848 6.27976 16.7222 8.90145 15.9752C9.37201 11.0473 13.5936 7.27271 18.6219 7.27271C22.4536 7.27271 25.6131 9.1862 27.3474 12.5807C31.9589 12.5414 35.4545 15.7 35.4545 19.907C35.4545 24.0486 32.0799 27.2727 27.7104 27.2727H10.945Z" fill="url(#paint0_linear)" fill-opacity="0.5"/>
<path d="M33.2987 33.724C35.0824 33.724 36.3637 32.5542 36.3637 30.9456C36.3637 29.359 35.1624 28.1818 33.619 28.1818C32.3668 28.1818 31.3184 29.0153 31.0126 30.1706C30.8961 30.5508 31.0635 30.9163 31.4057 31.026C31.7698 31.143 32.1411 30.9529 32.2794 30.5288C32.4323 29.922 32.9929 29.5052 33.619 29.5052C34.4271 29.5052 35.046 30.0974 35.046 30.9456C35.046 31.8084 34.3616 32.4006 33.2987 32.4006C31.0927 32.4006 28.6319 31.1284 25.7051 31.1284C24.1835 31.1284 22.7711 31.3697 21.4169 31.823C21.0238 31.9546 20.8345 32.2983 20.9364 32.6565C21.0456 33.0294 21.4097 33.2269 21.8174 33.0806C23.0478 32.6419 24.2927 32.4518 25.7051 32.4518C28.5591 32.4518 30.7723 33.724 33.2987 33.724ZM28.5663 39.0909C29.7967 39.0909 30.7432 38.1623 30.7432 36.8827C30.7432 35.0328 28.8648 34.0092 25.5086 34.0092C24.1689 34.0092 22.691 34.2651 21.4169 34.6892C21.0238 34.8208 20.8345 35.1718 20.9364 35.5227C21.0456 35.8956 21.4097 36.093 21.8174 35.9468C22.9677 35.5447 24.2272 35.3326 25.5086 35.3326C28.0058 35.3326 29.4254 35.9395 29.4254 36.8827C29.4254 37.4311 29.0614 37.7674 28.5663 37.7674C28.1368 37.7674 27.8383 37.4896 27.7073 37.0143C27.5762 36.6634 27.234 36.4659 26.8627 36.5829C26.4841 36.6999 26.3385 37.0948 26.4769 37.4823C26.7535 38.4109 27.5471 39.0909 28.5663 39.0909Z" fill="#CAE6FA"/>
<path d="M7.27271 36.3636L9.09089 33.1818" stroke="#63A1FF" stroke-width="1.81818" stroke-linecap="round" stroke-linejoin="round"/>
<path d="M7.27271 36.3636L9.09089 33.1818" stroke="url(#paint1_linear)" stroke-opacity="0.2" stroke-width="1.81818" stroke-linecap="round" stroke-linejoin="round"/>
<path d="M15.4547 30L13.6365 33.1818" stroke="#63A1FF" stroke-width="1.81818" stroke-linecap="round" stroke-linejoin="round"/>
<path d="M15.4547 30L13.6365 33.1818" stroke="url(#paint2_linear)" stroke-opacity="0.2" stroke-width="1.81818" stroke-linecap="round" stroke-linejoin="round"/>
<defs>
<linearGradient id="paint0_linear" x1="20" y1="7.27271" x2="20" y2="27.2727" gradientUnits="userSpaceOnUse">
<stop stop-color="white"/>
<stop offset="1" stop-color="white" stop-opacity="0"/>
</linearGradient>
<linearGradient id="paint1_linear" x1="8.1818" y1="32.2727" x2="8.1818" y2="37.2727" gradientUnits="userSpaceOnUse">
<stop stop-color="#5200FF"/>
<stop offset="1" stop-color="#5200FF" stop-opacity="0"/>
</linearGradient>
<linearGradient id="paint2_linear" x1="14.5456" y1="29.0909" x2="14.5456" y2="34.0909" gradientUnits="userSpaceOnUse">
<stop stop-color="#5200FF"/>
<stop offset="1" stop-color="#5200FF" stop-opacity="0"/>
</linearGradient>
</defs>
</svg>
