<svg width="146" height="28" viewBox="0 0 146 28" fill="none" xmlns="http://www.w3.org/2000/svg">
<path d="M13.0562 1.65804C13.2258 1.13616 13.9641 1.13616 14.1337 1.65805L16.52 9.00246C16.5959 9.23586 16.8133 9.39388 17.0588 9.39388H24.7811C25.3299 9.39388 25.558 10.0961 25.1141 10.4186L18.8666 14.9577C18.668 15.1019 18.5849 15.3576 18.6608 15.591L21.0471 22.9354C21.2167 23.4573 20.6194 23.8913 20.1754 23.5688L13.9279 19.0297C13.7294 18.8854 13.4605 18.8854 13.262 19.0297L7.01446 23.5688C6.57052 23.8913 5.9732 23.4573 6.14277 22.9354L8.52911 15.591C8.60495 15.3576 8.52187 15.1019 8.32334 14.9577L2.0758 10.4186C1.63186 10.0961 1.86002 9.39388 2.40876 9.39388H10.1311C10.3765 9.39388 10.594 9.23586 10.6699 9.00246L13.0562 1.65804Z" fill="#FFDF6A"/>
<path d="M42.5132 1.65804C42.6828 1.13616 43.4211 1.13616 43.5907 1.65805L45.9771 9.00246C46.0529 9.23586 46.2704 9.39388 46.5158 9.39388H54.2382C54.7869 9.39388 55.0151 10.0961 54.5711 10.4186L48.3236 14.9577C48.125 15.1019 48.042 15.3576 48.1178 15.591L50.5041 22.9354C50.6737 23.4573 50.0764 23.8913 49.6325 23.5688L43.3849 19.0297C43.1864 18.8854 42.9176 18.8854 42.719 19.0297L36.4715 23.5688C36.0275 23.8913 35.4302 23.4573 35.5998 22.9354L37.9861 15.591C38.062 15.3576 37.9789 15.1019 37.7804 14.9577L31.5328 10.4186C31.0889 10.0961 31.317 9.39388 31.8658 9.39388H39.5882C39.8336 9.39388 40.0511 9.23586 40.1269 9.00246L42.5132 1.65804Z" fill="#FFDF6A"/>
<path d="M71.9664 1.65804C72.1359 1.13616 72.8743 1.13616 73.0438 1.65805L75.4302 9.00246C75.506 9.23586 75.7235 9.39388 75.9689 9.39388H83.6913C84.24 9.39388 84.4682 10.0961 84.0242 10.4186L77.7767 14.9577C77.5782 15.1019 77.4951 15.3576 77.5709 15.591L79.9573 22.9354C80.1268 23.4573 79.5295 23.8913 79.0856 23.5688L72.8381 19.0297C72.6395 18.8854 72.3707 18.8854 72.1721 19.0297L65.9246 23.5688C65.4807 23.8913 64.8834 23.4573 65.0529 22.9354L67.4393 15.591C67.5151 15.3576 67.432 15.1019 67.2335 14.9577L60.986 10.4186C60.542 10.0961 60.7702 9.39388 61.3189 9.39388H69.0413C69.2867 9.39388 69.5042 9.23586 69.58 9.00246L71.9664 1.65804Z" fill="#FFDF6A"/>
<path d="M101.423 1.65804C101.593 1.13616 102.331 1.13616 102.501 1.65805L104.887 9.00246C104.963 9.23586 105.181 9.39388 105.426 9.39388H113.148C113.697 9.39388 113.925 10.0961 113.481 10.4186L107.234 14.9577C107.035 15.1019 106.952 15.3576 107.028 15.591L109.414 22.9354C109.584 23.4573 108.987 23.8913 108.543 23.5688L102.295 19.0297C102.097 18.8854 101.828 18.8854 101.629 19.0297L95.3816 23.5688C94.9377 23.8913 94.3404 23.4573 94.51 22.9354L96.8963 15.591C96.9721 15.3576 96.8891 15.1019 96.6905 14.9577L90.443 10.4186C89.9991 10.0961 90.2272 9.39388 90.7759 9.39388H98.4983C98.7437 9.39388 98.9612 9.23586 99.0371 9.00246L101.423 1.65804Z" fill="#FFDF6A"/>
<path d="M130.88 1.65804C131.05 1.13616 131.788 1.13616 131.958 1.65805L134.344 9.00246C134.42 9.23586 134.638 9.39388 134.883 9.39388H142.605C143.154 9.39388 143.382 10.0961 142.938 10.4186L136.691 14.9577C136.492 15.1019 136.409 15.3576 136.485 15.591L138.871 22.9354C139.041 23.4573 138.444 23.8913 138 23.5688L131.752 19.0297C131.554 18.8854 131.285 18.8854 131.086 19.0297L124.839 23.5688C124.395 23.8913 123.797 23.4573 123.967 22.9354L126.353 15.591C126.429 15.3576 126.346 15.1019 126.148 14.9577L119.9 10.4186C119.456 10.0961 119.684 9.39388 120.233 9.39388H127.955C128.201 9.39388 128.418 9.23586 128.494 9.00246L130.88 1.65804Z" fill="#FFDF6A"/>
<mask id="mask0_4164_92454" style="mask-type:alpha" maskUnits="userSpaceOnUse" x="119" y="1" width="25" height="23">
<path d="M132.085 18.5714L131.752 19.0297L132.085 18.5714C131.688 18.2829 131.15 18.2829 130.753 18.5714L124.506 23.1105L126.892 15.7661C127.044 15.2993 126.878 14.7879 126.481 14.4994L120.233 9.96033L127.955 9.96033C128.446 9.96033 128.881 9.64429 129.033 9.17751L131.419 1.83309L133.806 9.17751C133.957 9.6443 134.392 9.96033 134.883 9.96033H142.605L136.358 14.4994C135.961 14.7879 135.795 15.2993 135.946 15.7661L138.333 23.1105L132.085 18.5714Z" fill="#FFB423" stroke="black" stroke-width="1.13291"/>
</mask>
<g mask="url(#mask0_4164_92454)">
<rect x="131.418" width="12.462" height="27.1899" fill="#101929"/>
</g>
</svg>
