<svg width="146" height="28" viewBox="0 0 146 28" fill="none" xmlns="http://www.w3.org/2000/svg">
<path d="M13.0562 1.65804C13.2258 1.13616 13.9641 1.13616 14.1337 1.65805L16.52 9.00246C16.5959 9.23586 16.8133 9.39388 17.0588 9.39388H24.7811C25.3299 9.39388 25.558 10.0961 25.1141 10.4186L18.8666 14.9577C18.668 15.1019 18.5849 15.3576 18.6608 15.591L21.0471 22.9354C21.2167 23.4573 20.6194 23.8913 20.1754 23.5688L13.9279 19.0297C13.7294 18.8854 13.4605 18.8854 13.262 19.0297L7.01446 23.5688C6.57052 23.8913 5.9732 23.4573 6.14277 22.9354L8.52911 15.591C8.60495 15.3576 8.52187 15.1019 8.32334 14.9577L2.0758 10.4186C1.63186 10.0961 1.86002 9.39388 2.40876 9.39388H10.1311C10.3765 9.39388 10.594 9.23586 10.6699 9.00246L13.0562 1.65804Z" fill="#010838"/>
<path d="M42.5119 1.65792C42.6815 1.13604 43.4198 1.13604 43.5894 1.65792L45.9757 9.00234C46.0516 9.23573 46.2691 9.39375 46.5145 9.39375H54.2369C54.7856 9.39375 55.0137 10.0959 54.5698 10.4185L48.3223 14.9576C48.1237 15.1018 48.0407 15.3575 48.1165 15.5909L50.5028 22.9353C50.6724 23.4572 50.0751 23.8912 49.6312 23.5686L43.3836 19.0295C43.1851 18.8853 42.9162 18.8853 42.7177 19.0295L36.4702 23.5686C36.0262 23.8912 35.4289 23.4572 35.5985 22.9353L37.9848 15.5909C38.0607 15.3575 37.9776 15.1018 37.7791 14.9576L31.5315 10.4185C31.0876 10.0959 31.3157 9.39375 31.8645 9.39375H39.5869C39.8323 9.39375 40.0498 9.23573 40.1256 9.00234L42.5119 1.65792Z" fill="#010838"/>
<path d="M71.9676 1.65792C72.1372 1.13604 72.8755 1.13604 73.0451 1.65792L75.4314 9.00234C75.5073 9.23573 75.7248 9.39375 75.9702 9.39375H83.6925C84.2413 9.39375 84.4694 10.0959 84.0255 10.4185L77.778 14.9576C77.5794 15.1018 77.4963 15.3575 77.5722 15.5909L79.9585 22.9353C80.1281 23.4572 79.5308 23.8912 79.0868 23.5686L72.8393 19.0295C72.6408 18.8853 72.3719 18.8853 72.1734 19.0295L65.9259 23.5686C65.4819 23.8912 64.8846 23.4572 65.0542 22.9353L67.4405 15.5909C67.5164 15.3575 67.4333 15.1018 67.2347 14.9576L60.9872 10.4185C60.5433 10.0959 60.7714 9.39375 61.3202 9.39375H69.0425C69.2879 9.39375 69.5054 9.23573 69.5813 9.00234L71.9676 1.65792Z" fill="#010838"/>
<path d="M101.423 1.65792C101.593 1.13604 102.331 1.13604 102.501 1.65792L104.887 9.00234C104.963 9.23573 105.18 9.39375 105.426 9.39375H113.148C113.697 9.39375 113.925 10.0959 113.481 10.4185L107.234 14.9576C107.035 15.1018 106.952 15.3575 107.028 15.5909L109.414 22.9353C109.584 23.4572 108.986 23.8912 108.543 23.5686L102.295 19.0295C102.096 18.8853 101.828 18.8853 101.629 19.0295L95.3816 23.5686C94.9376 23.8912 94.3403 23.4572 94.5099 22.9353L96.8962 15.5909C96.9721 15.3575 96.889 15.1018 96.6905 14.9576L90.4429 10.4185C89.999 10.0959 90.2271 9.39375 90.7759 9.39375H98.4983C98.7437 9.39375 98.9612 9.23573 99.037 9.00234L101.423 1.65792Z" fill="#010838"/>
<path d="M130.879 1.65792C131.049 1.13604 131.787 1.13604 131.957 1.65792L134.343 9.00234C134.419 9.23573 134.636 9.39375 134.882 9.39375H142.604C143.153 9.39375 143.381 10.0959 142.937 10.4185L136.689 14.9576C136.491 15.1018 136.408 15.3575 136.484 15.5909L138.87 22.9353C139.04 23.4572 138.442 23.8912 137.998 23.5686L131.751 19.0295C131.552 18.8853 131.283 18.8853 131.085 19.0295L124.837 23.5686C124.393 23.8912 123.796 23.4572 123.966 22.9353L126.352 15.5909C126.428 15.3575 126.345 15.1018 126.146 14.9576L119.899 10.4185C119.455 10.0959 119.683 9.39375 120.232 9.39375H127.954C128.199 9.39375 128.417 9.23573 128.493 9.00234L130.879 1.65792Z" fill="#010838"/>
<mask id="mask0_1416_25510" style="mask-type:alpha" maskUnits="userSpaceOnUse" x="119" y="1" width="25" height="23">
<path d="M132.084 18.5713L131.751 19.0295L132.084 18.5713C131.687 18.2828 131.149 18.2828 130.752 18.5713L124.504 23.1104L126.891 15.7659C127.042 15.2992 126.876 14.7878 126.479 14.4993L120.232 9.96021L127.954 9.96021C128.445 9.96021 128.88 9.64417 129.031 9.17739L131.418 1.83297L133.804 9.17739C133.956 9.64417 134.391 9.96021 134.882 9.96021H142.604L136.356 14.4993C135.959 14.7878 135.793 15.2992 135.945 15.7659L138.331 23.1104L132.084 18.5713Z" fill="#FFB423" stroke="black" stroke-width="1.13291"/>
</mask>
<g mask="url(#mask0_1416_25510)">
<rect x="131.418" y="-0.000244141" width="12.462" height="27.1899" fill="#CAC9C9"/>
</g>
</svg>
