<svg viewBox="0 0 24 24" fill="none" xmlns="http://www.w3.org/2000/svg">
<g clip-path="url(#clip0)">
<path opacity="0.6" d="M11.6569 12.7977C11.8816 12.9274 12.0866 13.0639 12.2719 13.207L9.32202 18.3104C8.51181 19.7138 6.89847 20.2487 5.33309 19.3449C3.76772 18.4411 3.42429 16.7765 4.23449 15.3732C4.41736 15.0564 4.82843 14.9514 5.15263 15.1386C5.47683 15.3258 5.59141 15.7343 5.40854 16.051C4.94504 16.8538 5.11781 17.6913 5.99532 18.1979C6.87283 18.7045 7.68447 18.4354 8.14798 17.6326L11.1014 12.515C11.2837 12.5949 11.4689 12.6891 11.6569 12.7977Z" fill="#3C83E8"/>
<path fill-rule="evenodd" clip-rule="evenodd" d="M19.9612 17.3805C20.037 17.2186 20.0987 17.0779 20.1461 16.9586C21.9483 12.4223 20.3725 7.24335 16.2398 4.85736C11.9049 2.35459 6.31523 3.8247 3.37873 8.10581C3.30359 8.21535 3.33342 8.36599 3.44534 8.44227C3.50831 8.48519 3.58735 8.49702 3.65923 8.47429C4.54017 8.19564 5.49655 8.35419 6.52834 8.9499C7.57281 9.55293 8.1907 10.313 8.38199 11.2302L8.38207 11.2301C8.44594 11.5364 8.74757 11.7376 9.05579 11.6795C9.08166 11.6747 9.10712 11.668 9.132 11.6596C10.0116 11.3631 10.9809 11.5206 12.0398 12.132C13.0947 12.741 13.715 13.4982 13.9006 14.4035L13.9005 14.4035C13.9634 14.7101 14.2645 14.9123 14.573 14.8553C14.5994 14.8504 14.6254 14.8437 14.6507 14.8352C15.5233 14.5417 16.4901 14.7013 17.5513 15.314C18.5099 15.8675 19.1099 16.5391 19.3512 17.329L19.3513 17.3289C19.4038 17.5009 19.5864 17.6005 19.7592 17.5514C19.8486 17.526 19.9221 17.4638 19.9612 17.3805Z" fill="#3C83E8"/>
<path opacity="0.1" fill-rule="evenodd" clip-rule="evenodd" d="M19.9612 17.3805C20.037 17.2186 20.0987 17.0779 20.1461 16.9586C21.9483 12.4223 20.3725 7.24335 16.2398 4.85736C11.9049 2.35459 6.31523 3.8247 3.37873 8.10581C3.30359 8.21535 3.33342 8.36599 3.44534 8.44227C3.50831 8.48519 3.58735 8.49702 3.65923 8.47429C4.54017 8.19564 5.49655 8.35419 6.52834 8.9499C7.57281 9.55293 8.1907 10.313 8.38199 11.2302L8.38207 11.2301C8.44594 11.5364 8.74757 11.7376 9.05579 11.6795C9.08166 11.6747 9.10712 11.668 9.132 11.6596C10.0116 11.3631 10.9809 11.5206 12.0398 12.132C13.0947 12.741 13.715 13.4982 13.9006 14.4035L13.9005 14.4035C13.9634 14.7101 14.2645 14.9123 14.573 14.8553C14.5994 14.8504 14.6254 14.8437 14.6507 14.8352C15.5233 14.5417 16.4901 14.7013 17.5513 15.314C18.5099 15.8675 19.1099 16.5391 19.3512 17.329L19.3513 17.3289C19.4038 17.5009 19.5864 17.6005 19.7592 17.5514C19.8486 17.526 19.9221 17.4638 19.9612 17.3805Z" fill="url(#paint0_linear)"/>
</g>
<defs>
<linearGradient id="paint0_linear" x1="16.2272" y1="4.8501" x2="11.4076" y2="13.198" gradientUnits="userSpaceOnUse">
<stop stop-color="white"/>
<stop offset="1" stop-color="white" stop-opacity="0"/>
</linearGradient>
<clipPath id="clip0">
<rect width="24" height="24" fill="white"/>
</clipPath>
</defs>
</svg>
