<svg viewBox="0 0 24 24" fill="none" xmlns="http://www.w3.org/2000/svg">
<path opacity="0.4" d="M5.73096 9.28013H9.68109C10.8366 9.28013 11.7733 8.32199 11.7733 7.14006C11.7733 5.95814 10.8366 5 9.68109 5C8.78195 5 8.01528 5.58019 7.71937 6.39453" stroke="#3C83E8" stroke-width="1.8" stroke-linecap="round" stroke-linejoin="round"/>
<path d="M3.5 12.8262H18.4392C20.0153 12.8262 21.293 11.5487 21.293 9.97281C21.293 8.3969 20.0153 7.11938 18.4392 7.11938C17.2127 7.11938 16.167 7.89297 15.7634 8.97876" stroke="#3C83E8" stroke-width="1.8" stroke-linecap="round" stroke-linejoin="round"/>
<path opacity="0.6" d="M5.67383 16.5441H16.8171C17.966 16.5441 18.8973 17.5022 18.8973 18.6842C18.8973 19.8661 17.966 20.8242 16.8171 20.8242C15.9231 20.8242 15.1608 20.244 14.8666 19.4297" stroke="#3C83E8" stroke-width="1.8" stroke-linecap="round" stroke-linejoin="round"/>
</svg>
