<svg viewBox="0 0 40 40" fill="none" xmlns="http://www.w3.org/2000/svg">
<path d="M27.625 24.6004C29.2871 24.6004 30.9631 24.2561 32.0019 23.898C32.3205 23.7602 32.5421 23.7051 32.7776 23.7051C33.2208 23.7051 33.6364 24.0632 33.6364 24.6004C33.6364 24.7933 33.5948 25.1514 33.4425 25.5095C31.628 30.1101 26.4892 33.6363 20.6164 33.6363C12.5135 33.6363 6.36365 27.8374 6.36365 19.752C6.36365 14.0082 9.79871 8.59493 14.9513 6.54259C15.2976 6.41862 15.63 6.36353 15.8378 6.36353C16.4057 6.36353 16.7242 6.79052 16.7242 7.23129C16.7242 7.38556 16.6976 7.5751 16.6019 7.8281L16.5165 8.03019C16.0178 9.14589 15.6439 11.2533 15.6439 12.8374C15.6439 20.0825 20.2978 24.6004 27.625 24.6004Z" fill="#A45CFF"/>
<path d="M27.625 24.6004C29.2871 24.6004 30.9631 24.2561 32.0019 23.898C32.3205 23.7602 32.5421 23.7051 32.7776 23.7051C33.2208 23.7051 33.6364 24.0632 33.6364 24.6004C33.6364 24.7933 33.5948 25.1514 33.4425 25.5095C31.628 30.1101 26.4892 33.6363 20.6164 33.6363C12.5135 33.6363 6.36365 27.8374 6.36365 19.752C6.36365 14.0082 9.79871 8.59493 14.9513 6.54259C15.2976 6.41862 15.63 6.36353 15.8378 6.36353C16.4057 6.36353 16.7242 6.79052 16.7242 7.23129C16.7242 7.38556 16.6976 7.5751 16.6019 7.8281L16.5165 8.03019C16.0178 9.14589 15.6439 11.2533 15.6439 12.8374C15.6439 20.0825 20.2978 24.6004 27.625 24.6004Z" fill="url(#paint0_linear)" fill-opacity="0.5"/>
<defs>
<linearGradient id="paint0_linear" x1="20" y1="6.36353" x2="20" y2="33.6363" gradientUnits="userSpaceOnUse">
<stop stop-color="white"/>
<stop offset="1" stop-color="white" stop-opacity="0"/>
</linearGradient>
</defs>
</svg>
