<svg viewBox="0 0 40 40" fill="none" xmlns="http://www.w3.org/2000/svg">
<path fill-rule="evenodd" clip-rule="evenodd" d="M21.4111 5.90015C21.4111 5.13924 20.7609 4.48901 20 4.48901C19.2391 4.48901 18.6027 5.13924 18.6027 5.90015V8.70858C18.6027 9.46948 19.2391 10.1059 20 10.1059C20.7609 10.1059 21.4111 9.46948 21.4111 8.70858V5.90015ZM26.945 11.0466C26.4054 11.5862 26.4054 12.4854 26.9588 13.025C27.4845 13.5645 28.3976 13.5645 28.9372 13.0112L30.9294 11.019C31.4689 10.4933 31.4689 9.56633 30.9294 9.02678C30.3898 8.50106 29.4906 8.50106 28.951 9.04062L26.945 11.0466ZM13.0412 13.025C12.5016 13.5645 11.5886 13.5645 11.0628 13.0112L9.07066 11.0051C8.54494 10.4933 8.54494 9.56634 9.08449 9.02679C9.62404 8.50107 10.5371 8.5149 11.0628 9.04062L13.055 11.0466C13.5807 11.5724 13.5807 12.4993 13.0412 13.025ZM20 12.6653C16.0156 12.6653 12.7091 15.9579 12.7091 19.9561C12.7091 23.9543 16.0156 27.247 20 27.247C23.9844 27.247 27.277 23.9543 27.277 19.9561C27.277 15.9579 23.9844 12.6653 20 12.6653ZM35.4395 19.9561C35.4395 20.717 34.8031 21.3673 34.0422 21.3673H31.2337C30.4728 21.3673 29.8364 20.717 29.8364 19.9561C29.8364 19.1952 30.4728 18.5588 31.2337 18.5588H34.0422C34.8031 18.5588 35.4395 19.1952 35.4395 19.9561ZM5.97168 18.5588C5.19694 18.5588 4.56055 19.1952 4.56055 19.9561C4.56055 20.717 5.19694 21.3673 5.97168 21.3673H8.76628C9.52718 21.3673 10.1774 20.717 10.1774 19.9561C10.1774 19.1952 9.52718 18.5588 8.76628 18.5588H5.97168ZM26.945 26.915C27.4845 26.3754 28.3838 26.3616 28.9233 26.9011L30.9294 28.8933C31.4689 29.4329 31.4689 30.3321 30.9432 30.8717C30.4036 31.4112 29.4906 31.4251 28.9648 30.8855L26.9588 28.8933C26.4054 28.3399 26.4054 27.4407 26.945 26.915ZM9.07069 28.8795C8.53114 29.4191 8.5173 30.3321 9.04302 30.8579C9.58257 31.3974 10.5095 31.4112 11.0352 30.8855L13.0412 28.8933C13.5808 28.3538 13.5808 27.4407 13.0551 26.915C12.5155 26.3754 11.6024 26.3754 11.0629 26.9012L9.07069 28.8795ZM21.4111 34.0121V31.2037C21.4111 30.4428 20.7609 29.8064 20 29.8064C19.2391 29.8064 18.6027 30.4428 18.6027 31.2037V34.0121C18.6027 34.773 19.2391 35.4233 20 35.4233C20.7609 35.4233 21.4111 34.773 21.4111 34.0121Z" fill="url(#paint0_linear)"/>
<defs>
<linearGradient id="paint0_linear" x1="20" y1="4.48901" x2="20" y2="35.4233" gradientUnits="userSpaceOnUse">
<stop stop-color="#FFD03C"/>
<stop offset="1" stop-color="#FFB422"/>
</linearGradient>
</defs>
</svg>
