<svg viewBox="0 0 40 40" fill="none" xmlns="http://www.w3.org/2000/svg">
<path fill-rule="evenodd" clip-rule="evenodd" d="M20 4.39819C20.7609 4.39819 21.4111 5.04842 21.4111 5.80933V8.61776C21.4111 9.37866 20.7609 10.0151 20 10.0151C19.2391 10.0151 18.6027 9.37866 18.6027 8.61776V5.80933C18.6027 5.04842 19.2391 4.39819 20 4.39819ZM26.9588 12.9342C26.4055 12.3946 26.4055 11.4954 26.945 10.9558L28.951 8.94981C29.4906 8.41026 30.3898 8.41026 30.9294 8.93597C31.4689 9.47552 31.4689 10.4024 30.9294 10.9282L28.9372 12.9203C28.3976 13.4737 27.4846 13.4737 26.9588 12.9342ZM11.0628 12.9203C11.5886 13.4737 12.5016 13.4737 13.0412 12.9342C13.5807 12.4085 13.5807 11.4815 13.055 10.9558L11.0628 8.94981C10.5371 8.42409 9.62404 8.41025 9.08449 8.93597C8.54494 9.47552 8.54494 10.4024 9.07065 10.9143L11.0628 12.9203ZM20 12.5745C16.0156 12.5745 12.7092 15.8671 12.7092 19.8653C12.7092 21.2035 13.0795 22.4626 13.7218 23.5457H26.268C26.9082 22.4626 27.277 21.2035 27.277 19.8653C27.277 15.8671 23.9844 12.5745 20 12.5745ZM34.0422 21.2764C34.8031 21.2764 35.4395 20.6262 35.4395 19.8653C35.4395 19.1044 34.8031 18.468 34.0422 18.468H31.2337C30.4728 18.468 29.8364 19.1044 29.8364 19.8653C29.8364 20.6262 30.4728 21.2764 31.2337 21.2764H34.0422ZM4.56055 19.8653C4.56055 19.1044 5.19694 18.468 5.97168 18.468H8.76628C9.52718 18.468 10.1774 19.1044 10.1774 19.8653C10.1774 20.6262 9.52718 21.2764 8.76628 21.2764H5.97168C5.19694 21.2764 4.56055 20.6262 4.56055 19.8653Z" fill="url(#paint0_linear)"/>
<rect opacity="0.2" x="3.63647" y="23.5455" width="32.7273" height="1.81818" rx="0.90909" fill="#2D374F"/>
<g opacity="0.5">
<path d="M20 37.2727V30" stroke="#2D374F" stroke-width="1.5" stroke-linecap="round" stroke-linejoin="round"/>
<path d="M16.3635 33.6364L19.9999 30L23.6363 33.6364" stroke="#2D374F" stroke-width="1.5" stroke-linecap="round" stroke-linejoin="round"/>
</g>
<defs>
<linearGradient id="paint0_linear" x1="20" y1="4.39819" x2="20" y2="23.5457" gradientUnits="userSpaceOnUse">
<stop stop-color="#FFD85F"/>
<stop offset="1" stop-color="#FFCA22"/>
</linearGradient>
</defs>
</svg>
