<svg viewBox="0 0 40 40" fill="none" xmlns="http://www.w3.org/2000/svg">
<path fill-rule="evenodd" clip-rule="evenodd" d="M20.4395 4.39819C21.2004 4.39819 21.8506 5.04842 21.8506 5.80933V8.61776C21.8506 9.37866 21.2004 10.0151 20.4395 10.0151C19.6786 10.0151 19.0422 9.37866 19.0422 8.61776V5.80933C19.0422 5.04842 19.6786 4.39819 20.4395 4.39819ZM27.3983 12.9342C26.8449 12.3946 26.8449 11.4954 27.3845 10.9558L29.3905 8.94981C29.93 8.41026 30.8293 8.41026 31.3688 8.93597C31.9084 9.47552 31.9084 10.4024 31.3688 10.9282L29.3766 12.9203C28.8371 13.4737 27.924 13.4737 27.3983 12.9342ZM11.5023 12.9203C12.028 13.4737 12.9411 13.4737 13.4806 12.9342C14.0202 12.4085 14.0202 11.4815 13.4945 10.9558L11.5023 8.94981C10.9766 8.42409 10.0635 8.41025 9.52394 8.93597C8.98439 9.47552 8.98439 10.4024 9.51011 10.9143L11.5023 12.9203ZM20.4395 12.5745C16.4551 12.5745 13.1486 15.8671 13.1486 19.8653C13.1486 21.2035 13.519 22.4626 14.1612 23.5457H26.7075C27.3476 22.4626 27.7165 21.2035 27.7165 19.8653C27.7165 15.8671 24.4238 12.5745 20.4395 12.5745ZM34.4816 21.2764C35.2425 21.2764 35.8789 20.6262 35.8789 19.8653C35.8789 19.1044 35.2425 18.468 34.4816 18.468H31.6732C30.9123 18.468 30.2759 19.1044 30.2759 19.8653C30.2759 20.6262 30.9123 21.2764 31.6732 21.2764H34.4816ZM5 19.8653C5 19.1044 5.63639 18.468 6.41113 18.468H9.20573C9.96663 18.468 10.6169 19.1044 10.6169 19.8653C10.6169 20.6262 9.96663 21.2764 9.20573 21.2764H6.41113C5.63639 21.2764 5 20.6262 5 19.8653Z" fill="url(#paint0_linear)"/>
<rect opacity="0.2" x="7" y="23.5455" width="27.2727" height="1.81818" rx="0.90909" fill="#2D374F"/>
<g opacity="0.6">
<path d="M20.3635 30L20.3635 37.2727" stroke="#2D374F" stroke-width="1.5" stroke-linecap="round" stroke-linejoin="round"/>
<path d="M24 33.6363L20.3636 37.2727L16.7273 33.6363" stroke="#2D374F" stroke-width="1.5" stroke-linecap="round" stroke-linejoin="round"/>
</g>
<defs>
<linearGradient id="paint0_linear" x1="20.4395" y1="4.39819" x2="20.4395" y2="23.5457" gradientUnits="userSpaceOnUse">
<stop offset="0.286458" stop-color="#F7C424"/>
<stop offset="1" stop-color="#F7A324"/>
</linearGradient>
</defs>
</svg>
