<svg viewBox="0 0 40 40" fill="none" xmlns="http://www.w3.org/2000/svg">
<path d="M34.9758 11.5446C35.8622 11.5446 36.7561 11.3609 37.3101 11.1699C37.48 11.0965 37.5982 11.0671 37.7238 11.0671C37.9602 11.0671 38.1818 11.2581 38.1818 11.5446C38.1818 11.6474 38.1596 11.8384 38.0784 12.0294C37.1107 14.4831 34.37 16.3637 31.2378 16.3637C26.9163 16.3637 23.6364 13.2709 23.6364 8.95873C23.6364 5.89537 25.4684 3.00832 28.2164 1.91374C28.4011 1.84762 28.5784 1.81824 28.6892 1.81824C28.9921 1.81824 29.162 2.04597 29.162 2.28105C29.162 2.36332 29.1478 2.46441 29.0968 2.59934L29.0512 2.70713C28.7853 3.30217 28.5858 4.42613 28.5858 5.27095C28.5858 9.13504 31.0679 11.5446 34.9758 11.5446Z" fill="#A45CFF"/>
<path d="M34.9758 11.5446C35.8622 11.5446 36.7561 11.3609 37.3101 11.1699C37.48 11.0965 37.5982 11.0671 37.7238 11.0671C37.9602 11.0671 38.1818 11.2581 38.1818 11.5446C38.1818 11.6474 38.1596 11.8384 38.0784 12.0294C37.1107 14.4831 34.37 16.3637 31.2378 16.3637C26.9163 16.3637 23.6364 13.2709 23.6364 8.95873C23.6364 5.89537 25.4684 3.00832 28.2164 1.91374C28.4011 1.84762 28.5784 1.81824 28.6892 1.81824C28.9921 1.81824 29.162 2.04597 29.162 2.28105C29.162 2.36332 29.1478 2.46441 29.0968 2.59934L29.0512 2.70713C28.7853 3.30217 28.5858 4.42613 28.5858 5.27095C28.5858 9.13504 31.0679 11.5446 34.9758 11.5446Z" fill="url(#paint0_linear)" fill-opacity="0.5"/>
<path d="M10.945 27.2727C7.15366 27.2727 4.54541 24.9267 4.54541 21.5453C4.54541 18.8848 6.27976 16.7222 8.90145 15.9752C9.37201 11.0473 13.5936 7.27271 18.6219 7.27271C22.4536 7.27271 25.6131 9.1862 27.3474 12.5807C31.9589 12.5414 35.4545 15.7 35.4545 19.907C35.4545 24.0486 32.0799 27.2727 27.7104 27.2727H10.945Z" fill="#CAE6FA"/>
<path d="M10.945 27.2727C7.15366 27.2727 4.54541 24.9267 4.54541 21.5453C4.54541 18.8848 6.27976 16.7222 8.90145 15.9752C9.37201 11.0473 13.5936 7.27271 18.6219 7.27271C22.4536 7.27271 25.6131 9.1862 27.3474 12.5807C31.9589 12.5414 35.4545 15.7 35.4545 19.907C35.4545 24.0486 32.0799 27.2727 27.7104 27.2727H10.945Z" fill="url(#paint1_linear)" fill-opacity="0.5"/>
<path d="M21.4336 32.0153C21.8343 32.0153 21.9488 32.409 21.6482 32.7043L15.1937 38.9327C15.0362 39.0873 14.8931 39.1154 14.75 39.0733C14.6212 39.017 14.5783 38.8624 14.6641 38.6796L16.5247 34.2508H14.0631C13.691 34.2508 13.5478 34.0259 13.691 33.6884L15.5658 29.5268C15.6946 29.2456 15.8234 29.0909 16.2241 29.0909H19.4729C19.7877 29.0909 19.9165 29.33 19.7448 29.6252L18.4711 32.0153H21.4336Z" fill="url(#paint2_linear)"/>
<path d="M9.99994 30.9091L8.18176 34.0909" stroke="#63A1FF" stroke-width="1.81818" stroke-linecap="round" stroke-linejoin="round"/>
<path d="M9.99994 30.9091L8.18176 34.0909" stroke="url(#paint3_linear)" stroke-opacity="0.2" stroke-width="1.81818" stroke-linecap="round" stroke-linejoin="round"/>
<path d="M27.2728 30.9091L25.4546 34.0909" stroke="#63A1FF" stroke-width="1.81818" stroke-linecap="round" stroke-linejoin="round"/>
<path d="M27.2728 30.9091L25.4546 34.0909" stroke="url(#paint4_linear)" stroke-opacity="0.2" stroke-width="1.81818" stroke-linecap="round" stroke-linejoin="round"/>
<defs>
<linearGradient id="paint0_linear" x1="30.9091" y1="1.81824" x2="30.9091" y2="16.3637" gradientUnits="userSpaceOnUse">
<stop stop-color="white"/>
<stop offset="1" stop-color="white" stop-opacity="0"/>
</linearGradient>
<linearGradient id="paint1_linear" x1="20" y1="7.27271" x2="20" y2="27.2727" gradientUnits="userSpaceOnUse">
<stop stop-color="white"/>
<stop offset="1" stop-color="white" stop-opacity="0"/>
</linearGradient>
<linearGradient id="paint2_linear" x1="17.7273" y1="29.0909" x2="17.7273" y2="39.0909" gradientUnits="userSpaceOnUse">
<stop stop-color="#FFB422"/>
<stop offset="1" stop-color="#FFD03C"/>
</linearGradient>
<linearGradient id="paint3_linear" x1="9.09085" y1="30" x2="9.09085" y2="35" gradientUnits="userSpaceOnUse">
<stop stop-color="#5200FF"/>
<stop offset="1" stop-color="#5200FF" stop-opacity="0"/>
</linearGradient>
<linearGradient id="paint4_linear" x1="26.3637" y1="30" x2="26.3637" y2="35" gradientUnits="userSpaceOnUse">
<stop stop-color="#5200FF"/>
<stop offset="1" stop-color="#5200FF" stop-opacity="0"/>
</linearGradient>
</defs>
</svg>
