<svg width="169" height="30" viewBox="0 0 169 30" fill="none" xmlns="http://www.w3.org/2000/svg">
<path d="M55.6099 4.27759H59.4373V7.17628C59.5217 8.10498 59.2403 8.94926 58.79 9.70911C58.1427 10.469 57.3828 11.0037 56.4541 11.3977L55.6099 9.82168C56.1727 9.62468 56.6511 9.25882 57.017 8.89297C57.2984 8.61154 57.3828 8.24569 57.4954 7.76727H55.6943V4.30573H55.6099V4.27759Z" fill="#575F72"/>
<path d="M0 7.85174H1.68855V4.95305L7.48593 3.09564V7.85174H10.469V11.9606H7.48593V17.5609V18.0393V18.5178C7.48593 18.8836 7.57035 19.2776 7.68292 19.6435C7.76735 20.0093 8.04878 20.1219 8.5272 20.1219C8.80863 20.1219 9.17448 20.0375 9.45591 19.9249C9.82176 19.8405 10.2158 19.7279 10.4972 19.5591V23.4427L9.65291 23.7241C9.28705 23.8086 8.89306 23.8086 8.5272 23.9212L7.48593 24.0056H6.72608C5.79737 24.0056 4.86867 23.9211 4.02439 23.5271C3.37711 23.2457 2.89869 22.7673 2.53283 22.2326C2.16698 21.5853 1.96998 20.938 1.88555 20.1782C1.80112 19.3339 1.80112 18.4896 1.68855 17.4765V11.8761H0V7.85174Z" fill="#575F72"/>
<path d="M19.8125 19.8967C20.1784 19.8967 20.4598 19.8123 20.7412 19.6153C21.0227 19.3339 21.3041 19.0524 21.3885 18.771C21.5855 18.2926 21.7544 17.9267 21.8669 17.4765C21.9514 16.9136 22.0639 16.3508 21.9514 15.7879C21.9514 15.225 21.8669 14.6622 21.7544 14.0993C21.6699 13.6209 21.4729 13.1706 21.2759 12.8048C21.0789 12.4389 20.9101 12.1575 20.5161 11.8761C20.2347 11.6791 19.8688 11.5947 19.4748 11.5947C19.1934 11.5947 18.8275 11.6791 18.6305 11.8761C18.3491 12.1575 18.0677 12.4389 17.9833 12.7204C17.7863 13.0862 17.7018 13.5646 17.6174 14.0149C17.533 14.5778 17.4204 15.0562 17.4204 15.5909C17.4204 16.6322 17.6174 17.7297 18.0677 18.6866C18.4054 19.3339 19.0808 19.8123 19.8125 19.8967ZM19.8125 23.9211C18.6868 23.9211 17.5611 23.7241 16.548 23.4427C15.5067 23.0768 14.578 22.5984 13.7337 21.8667C12.8895 21.1068 12.2422 20.2907 11.7638 19.2494C11.2853 18.1237 11.0039 16.8292 11.0039 15.6191C11.0039 14.4089 11.2853 13.2832 11.7638 12.1575C12.2422 11.2288 12.8895 10.3001 13.7337 9.62468C14.578 8.9774 15.5067 8.41454 16.4354 8.04869C17.4767 7.68284 18.5743 7.48584 19.6155 7.48584C20.8257 7.48584 21.9514 7.68284 23.0771 8.04869C24.1183 8.41454 25.0471 8.9774 25.8913 9.73725C26.7356 10.4971 27.2985 11.3132 27.7487 12.3545C28.2272 13.4802 28.396 14.6903 28.396 15.9005C28.396 17.1106 28.199 18.2363 27.7487 19.362C27.2703 20.2907 26.7075 21.2194 25.8913 21.8948C25.0471 22.5421 24.1183 23.105 23.1896 23.3864C22.0639 23.7241 20.9382 23.9211 19.8125 23.9211Z" fill="#575F72"/>
<path d="M38.3302 23.4428H28.9868V19.334H30.2814V11.9606H29.0712V7.8518H34.953L35.6003 9.70921L36.1632 9.14636C36.4446 8.86493 36.726 8.5835 37.0075 8.3865C37.3733 8.10508 37.7673 7.90808 38.1332 7.73923C38.6116 7.54223 39.0619 7.4578 39.5403 7.4578C40.1876 7.4578 40.8348 7.54223 41.5103 7.73923C41.9887 7.82365 42.439 8.10508 42.8048 8.30208C43.0862 8.49908 43.4521 8.7805 43.6491 9.06192C43.8461 9.34335 44.0149 9.54035 44.1275 9.70921C44.6904 9.14636 45.3377 8.5835 45.9849 8.21765C46.8292 7.73922 47.7579 7.4578 48.7992 7.4578C49.8405 7.37337 50.938 7.6548 51.8949 8.10508C52.6547 8.47093 53.1894 9.03378 53.6679 9.79363C54.0337 10.5535 54.3151 11.2852 54.4277 12.1295C54.5121 13.0582 54.6247 13.9869 54.6247 14.9437V19.2495H56.1163V23.4428H48.1801V15.788V15.1407V14.3809V13.4522C48.1801 13.1707 48.0956 12.8893 47.9831 12.6079C47.8986 12.4109 47.7861 12.242 47.6172 12.045C47.4483 11.848 47.2513 11.848 46.9699 11.848C46.4071 11.7636 45.9286 12.045 45.6754 12.4953C45.3939 13.0582 45.3095 13.621 45.3939 14.1839V19.2214H47.2513V23.4428H39.2026V15.5066C39.2026 14.5779 39.2026 13.6492 39.0056 12.8049C38.9211 12.242 38.4427 11.8762 37.8799 11.9606C37.514 11.9606 37.0356 12.045 36.7542 12.439C36.4727 12.9175 36.3883 13.3677 36.3883 13.8462V19.4465H38.2457V23.4428H38.3302Z" fill="#575F72"/>
<path d="M59.5215 23.4427V17.8423H63.7147C63.7147 18.2082 63.7992 18.6022 64.0806 18.8836C64.362 19.165 64.6434 19.362 65.0093 19.5309C65.3751 19.7279 65.7691 19.8123 66.135 19.8967C66.4164 19.9812 66.7823 19.9812 67.0637 19.9812C67.3451 19.9812 67.711 19.8967 67.9924 19.7842C68.2738 19.5872 68.4708 19.3057 68.4708 18.9399C68.4708 18.6585 68.2738 18.377 67.8235 18.18C67.2607 17.983 66.7823 17.8142 66.2476 17.7016C65.6003 17.5046 64.8404 17.3358 64.1087 17.1388C63.3489 16.9418 62.6172 16.5759 61.9699 16.21C61.3226 15.8442 60.7598 15.2813 60.3939 14.6341C59.9155 13.8742 59.7466 12.9455 59.7466 12.1012C59.7466 11.3414 59.9436 10.6941 60.3095 10.0468C60.6753 9.48397 61.1538 9.00555 61.7166 8.63969C62.2795 8.27384 62.8423 7.99241 63.4896 7.79542C64.0524 7.51399 64.6153 7.42957 65.1781 7.42957C66.2194 7.42957 67.1481 7.71099 68.0768 8.18941C68.8367 8.55526 69.484 9.11811 69.8498 9.87796L70.1312 7.82356H73.9586V13.4239H69.8498C69.8498 13.0581 69.7654 12.7767 69.5684 12.4952C69.3714 12.2138 69.09 11.9324 68.8085 11.7354C68.5271 11.5384 68.1613 11.3695 67.7673 11.1725C67.4014 11.0881 67.0074 10.9755 66.6416 10.9755C66.3601 10.9755 65.9943 11.06 65.7973 11.257C65.5159 11.454 65.4314 11.8198 65.4314 12.1012C65.4314 12.4671 65.7128 12.8611 66.0787 12.9455C66.6416 13.2269 67.2044 13.4239 67.7673 13.5084L69.9061 14.1556C70.6659 14.3526 71.3977 14.7185 72.0449 15.0843C72.6922 15.4502 73.2551 16.013 73.7335 16.6603C74.2119 17.3076 74.3808 18.1519 74.3808 18.9962C74.3808 19.6434 74.1838 20.2907 73.9023 20.9661C73.6209 21.529 73.1425 22.0918 72.6078 22.4577C72.0449 22.9361 71.3977 23.2175 70.7504 23.3864C69.9905 23.5834 69.2588 23.6678 68.6115 23.6678C67.5703 23.6678 66.5571 23.4708 65.6284 23.0206C64.8686 22.6547 64.2213 22.0918 63.771 21.4446L63.4896 23.302L59.5215 23.4427Z" fill="#575F72"/>
<path d="M89.4374 15.5065C89.4374 15.9849 89.5218 16.4352 89.6344 16.9136C89.7188 17.392 89.9158 17.7579 90.1128 18.1237C90.3098 18.4896 90.4787 18.771 90.8727 18.968C91.1541 19.165 91.4355 19.3339 91.8014 19.3339C92.4486 19.3339 93.0115 18.968 93.3774 18.4052C93.8558 17.5609 94.1372 16.7166 94.0246 15.7035C94.0246 15.1406 93.9402 14.5778 93.8276 14.1275C93.7432 13.6491 93.5462 13.1988 93.3492 12.8329C93.1522 12.4671 92.9834 12.1857 92.5894 11.9887C92.3079 11.7917 92.0265 11.7072 91.6607 11.7072C91.0134 11.7072 90.3661 12.1857 90.0847 12.7485C89.5218 13.5365 89.353 14.4652 89.4374 15.5065ZM84.8502 23.6397L85.6944 24.2025C86.0603 24.484 86.5387 24.681 86.989 24.8498C87.4674 25.0468 88.0303 25.2157 88.565 25.4127C89.1278 25.6097 89.7751 25.6097 90.338 25.6097C90.9008 25.6097 91.5481 25.5252 92.1109 25.3282C92.4768 25.1312 92.8708 24.9624 93.2366 24.5684C93.5181 24.287 93.7151 24.0055 93.7995 23.6397C93.8839 23.2738 93.9965 22.9924 93.9965 22.5984V21.5571C93.9121 21.7541 93.7151 21.923 93.5181 22.0356C93.3211 22.2326 93.0397 22.4014 92.7582 22.5984C92.3924 22.7954 92.1109 22.9643 91.7169 23.0768C91.2385 23.1613 90.7882 23.2738 90.3098 23.2738C89.0997 23.2738 87.974 23.0768 86.8483 22.6266C85.9196 22.2607 85.1597 21.5853 84.5124 20.8536C83.9496 20.0937 83.4712 19.2776 83.2179 18.3207C82.9365 17.392 82.7395 16.4633 82.852 15.422C82.852 14.2963 83.049 13.1706 83.3305 12.1575C83.6119 11.2288 84.1747 10.3845 84.822 9.62468C85.4693 8.86483 86.3136 8.33012 87.2423 8.04869C88.2836 7.68284 89.3811 7.48584 90.5068 7.48584C91.1541 7.48584 91.8014 7.68284 92.4768 7.96427C92.9552 8.16127 93.4055 8.44269 93.8839 8.80854L94.5312 7.87984H102.017V11.9887H100.16V21.332C100.16 22.5421 99.9627 23.7523 99.5969 24.878C99.231 25.9192 98.5556 26.8479 97.8239 27.5796C96.9796 28.3395 95.8539 28.9868 94.7282 29.3526C93.3211 29.831 91.9139 29.9999 90.4224 29.9999C89.5781 29.9999 88.8464 29.9155 88.0021 29.7185C87.3548 29.5215 86.595 29.3526 85.9477 28.9586C85.3849 28.6772 84.822 28.3958 84.3717 28.0299L83.246 27.1856L84.8502 23.6397Z" fill="#575F72"/>
<path d="M103.255 7.85175H110.826V15.4221C110.826 16.4634 110.91 17.4765 111.192 18.4052C111.389 18.9681 111.951 19.3339 112.486 19.3339C113.049 19.3339 113.527 19.0525 113.893 18.6866C114.259 18.2082 114.456 17.5609 114.456 16.9981V12.045H112.402V7.85175H120.535V19.3339H122.026V23.5272H116.145L115.3 21.5572L114.653 22.317C114.09 22.9643 113.359 23.4427 112.514 23.7242C111.951 23.9212 111.389 24.0056 110.826 24.0056C109.784 24.0056 108.771 23.9212 107.843 23.5272C107.083 23.2457 106.435 22.7673 105.873 22.12C105.31 21.3602 104.944 20.6285 104.831 19.6998C104.634 18.5741 104.55 17.4484 104.55 16.3227V12.0168H103.255V7.85175Z" fill="#575F72"/>
<path d="M132.045 23.4427H123.349V19.3339H124.672V11.848H123.349V7.85175H130.638V19.4183H132.13L132.045 23.4427Z" fill="#575F72"/>
<path d="M139.418 15.5065C139.418 15.9849 139.503 16.4352 139.615 16.9136C139.7 17.392 139.897 17.7579 140.094 18.1238C140.291 18.4896 140.46 18.771 140.854 18.968C141.135 19.165 141.416 19.3339 141.782 19.3339C142.43 19.3339 142.992 18.968 143.358 18.4052C143.837 17.5609 144.118 16.7166 144.006 15.7035C144.006 15.1406 143.921 14.5778 143.809 14.1275C143.724 13.6491 143.527 13.1988 143.33 12.8329C143.133 12.4671 142.964 12.1857 142.57 11.9887C142.289 11.7917 142.007 11.7072 141.642 11.7072C140.994 11.7072 140.347 12.1857 140.066 12.7485C139.615 13.5365 139.334 14.4652 139.418 15.5065ZM143.921 4.10875H142.514V-6.10352e-05H150.253V19.4465H151.745V23.5553H144.456L143.893 22.4296C143.696 22.6266 143.612 22.711 143.415 22.7954C143.133 22.9924 142.852 23.1613 142.57 23.2738C142.204 23.4708 141.81 23.5553 141.445 23.6397C140.966 23.7241 140.516 23.8367 139.953 23.8367C138.912 23.8367 137.899 23.6397 136.97 23.1894C136.126 22.711 135.281 22.1481 134.718 21.4164C134.071 20.6566 133.593 19.7279 133.227 18.7992C132.861 17.7579 132.664 16.7448 132.664 15.6191C132.664 14.4934 132.861 13.3677 133.227 12.3545C133.593 11.4258 134.156 10.5815 134.803 9.8217C135.45 9.17442 136.21 8.61156 137.139 8.24571C137.983 7.87986 138.912 7.68286 139.84 7.68286C140.685 7.68286 141.613 7.76729 142.458 8.16129C142.936 8.35828 143.386 8.6397 143.865 8.92113V4.10875H143.921Z" fill="#575F72"/>
<path d="M161.004 11.5665C160.638 11.5665 160.159 11.651 159.794 11.848C159.512 12.045 159.231 12.2138 159.034 12.4952C158.837 12.7767 158.752 13.0581 158.668 13.3395C158.583 13.6209 158.583 13.8179 158.583 14.0994H163.34C163.34 13.8179 163.34 13.4521 163.255 13.1707C163.171 12.8892 163.058 12.6078 162.889 12.3264C162.692 12.045 162.523 11.848 162.242 11.7635C161.848 11.6791 161.482 11.5665 161.004 11.5665ZM168.771 21.3039C167.645 22.2326 166.435 22.9924 165.028 23.4427C163.621 23.9211 162.129 24.09 160.638 24.0056C159.597 24.0056 158.668 23.8086 157.739 23.5271C156.81 23.2457 155.882 22.6829 155.122 22.0356C154.278 21.2757 153.63 20.4596 153.152 19.4183C152.589 18.2082 152.392 16.8855 152.392 15.5909C152.392 14.3808 152.589 13.2551 153.039 12.1294C153.405 11.2007 154.081 10.272 154.812 9.51213C155.544 8.75228 156.501 8.21757 157.514 7.93614C158.555 7.57029 159.653 7.37329 160.891 7.37329C162.017 7.37329 163.227 7.57029 164.353 7.93614C165.281 8.302 166.126 8.78042 166.886 9.51213C167.533 10.1594 168.096 11.0037 168.377 11.848C168.743 12.7767 168.855 13.8179 168.855 14.8311C168.855 15.1969 168.856 15.6754 168.771 16.0412L168.49 17.1669H158.583C158.668 17.4483 158.668 17.6453 158.78 17.9268C158.865 18.2082 159.062 18.4896 159.259 18.771C159.54 19.0525 159.822 19.3339 160.188 19.4183C160.666 19.6153 161.229 19.6997 161.764 19.6997H162.692C163.058 19.6997 163.452 19.6153 163.734 19.5027C164.099 19.4183 164.578 19.2213 164.944 19.0243C165.422 18.8273 165.788 18.5459 166.154 18.18L168.771 21.3039Z" fill="#575F72"/>
</svg>
