<svg width="36" height="37" viewBox="0 0 36 37" fill="none" xmlns="http://www.w3.org/2000/svg">
<circle cx="18" cy="18.1899" r="18" fill="#FF1E1E" fill-opacity="0.15"/>
<path fill-rule="evenodd" clip-rule="evenodd" d="M23.1852 17.7611L23.1719 17.6L23.1603 17.4937C22.9844 16.0062 22.2868 15.3164 21.7581 14.7936C21.4537 14.4926 21.2053 14.247 21.1446 13.9364C20.9111 12.7403 23.0363 11.9992 24.4948 11.5917L24.6951 11.5365C24.7697 11.5167 24.767 11.4113 24.6913 11.3965C24.6638 11.3911 24.6379 11.3862 24.6156 11.3822C20.3633 10.6308 12.4739 13.1039 12.815 18.2389L12.8283 18.4001L12.8399 18.5063C13.0157 19.9937 13.7133 20.6836 14.2421 21.2064C14.5465 21.5074 14.7949 21.753 14.8555 22.0637C15.0891 23.2597 12.9638 24.0008 11.5054 24.4083L11.305 24.4635C11.2304 24.4833 11.233 24.5888 11.3088 24.6037C11.3313 24.608 11.3524 24.6121 11.371 24.6154C15.6199 25.3745 23.5266 22.9016 23.1852 17.7611ZM18.0002 19.6875C18.965 19.6875 19.7471 18.932 19.7471 18C19.7471 17.0681 18.965 16.3125 18.0002 16.3125C17.0353 16.3125 16.2532 17.0681 16.2532 18C16.2532 18.932 17.0353 19.6875 18.0002 19.6875Z" fill="url(#paint0_linear_1549_15139)"/>
<defs>
<linearGradient id="paint0_linear_1549_15139" x1="11.2505" y1="11.25" x2="11.2505" y2="24.75" gradientUnits="userSpaceOnUse">
<stop stop-color="#FF3E3E"/>
<stop offset="1" stop-color="#FF1E1E"/>
</linearGradient>
</defs>
</svg>
