<svg viewBox="0 0 40 40" fill="none" xmlns="http://www.w3.org/2000/svg">
<path d="M17.1458 20.7146C17.3841 20.2744 17.8444 20.0001 18.345 20.0001H22.5643C23.0648 20.0001 23.5252 20.2744 23.7635 20.7146L32.0009 35.931C32.3288 36.5367 31.8902 37.2728 31.2014 37.2728H9.70778C9.01899 37.2728 8.58041 36.5367 8.90832 35.931L17.1458 20.7146Z" fill="#DCE5F1"/>
<path d="M17.1458 20.7146C17.3841 20.2744 17.8444 20.0001 18.345 20.0001H22.5643C23.0648 20.0001 23.5252 20.2744 23.7635 20.7146L32.0009 35.931C32.3288 36.5367 31.8902 37.2728 31.2014 37.2728H9.70778C9.01899 37.2728 8.58041 36.5367 8.90832 35.931L17.1458 20.7146Z" fill="url(#paint0_linear)" style="mix-blend-mode:overlay"/>
<path fill-rule="evenodd" clip-rule="evenodd" d="M20.4577 8.60348C22.3581 7.97449 23.6365 6.79985 23.6365 5.4546C23.6365 3.44629 20.7874 1.81824 17.2729 1.81824C14.2878 1.81824 11.7827 2.99273 11.0957 4.57714C8.42483 4.81281 6.36377 6.33688 6.36377 8.18187C6.36377 9.66994 7.70451 10.9492 9.62459 11.5122C10.5572 12.7656 12.6134 13.6364 15.0001 13.6364C18.2636 13.6364 20.9092 12.0084 20.9092 10.0001C20.9092 9.50522 20.7486 9.03348 20.4577 8.60348Z" fill="#63A3FF"/>
<path fill-rule="evenodd" clip-rule="evenodd" d="M20.4577 8.60348C22.3581 7.97449 23.6365 6.79985 23.6365 5.4546C23.6365 3.44629 20.7874 1.81824 17.2729 1.81824C14.2878 1.81824 11.7827 2.99273 11.0957 4.57714C8.42483 4.81281 6.36377 6.33688 6.36377 8.18187C6.36377 9.66994 7.70451 10.9492 9.62459 11.5122C10.5572 12.7656 12.6134 13.6364 15.0001 13.6364C18.2636 13.6364 20.9092 12.0084 20.9092 10.0001C20.9092 9.50522 20.7486 9.03348 20.4577 8.60348Z" fill="url(#paint1_linear)" fill-opacity="0.1"/>
<path fill-rule="evenodd" clip-rule="evenodd" d="M19.0908 3.63647C20.3368 3.63647 21.4657 3.98741 22.2868 4.55579C22.4321 4.54902 22.579 4.54557 22.7272 4.54557C25.4828 4.54557 27.7612 5.73757 28.1297 7.28587C30.2001 7.42065 31.8181 8.58441 31.8181 10.0001C31.8181 11.5063 29.9866 12.7274 27.7272 12.7274C27.4611 12.7274 27.201 12.7104 26.949 12.6781C26.4889 13.2486 25.5851 13.6365 24.5454 13.6365C24.2119 13.6365 23.8924 13.5966 23.597 13.5235L21.8787 17.6242C21.7371 17.9621 21.4066 18.1819 21.0402 18.1819H19.8687C19.5024 18.1819 19.1719 17.9621 19.0303 17.6242L17.1848 13.2202C16.3356 12.8863 15.7256 12.3771 15.5254 11.7874C15.3545 11.8077 15.1789 11.8183 14.9999 11.8183C13.2427 11.8183 11.8181 10.8008 11.8181 9.54557C11.8181 8.3883 13.029 7.43306 14.5952 7.29105C14.5624 7.1368 14.5454 6.97894 14.5454 6.81829C14.5454 5.06102 16.5805 3.63647 19.0908 3.63647Z" fill="#68A0F1"/>
<path fill-rule="evenodd" clip-rule="evenodd" d="M19.0908 3.63647C20.3368 3.63647 21.4657 3.98741 22.2868 4.55579C22.4321 4.54902 22.579 4.54557 22.7272 4.54557C25.4828 4.54557 27.7612 5.73757 28.1297 7.28587C30.2001 7.42065 31.8181 8.58441 31.8181 10.0001C31.8181 11.5063 29.9866 12.7274 27.7272 12.7274C27.4611 12.7274 27.201 12.7104 26.949 12.6781C26.4889 13.2486 25.5851 13.6365 24.5454 13.6365C24.2119 13.6365 23.8924 13.5966 23.597 13.5235L21.8787 17.6242C21.7371 17.9621 21.4066 18.1819 21.0402 18.1819H19.8687C19.5024 18.1819 19.1719 17.9621 19.0303 17.6242L17.1848 13.2202C16.3356 12.8863 15.7256 12.3771 15.5254 11.7874C15.3545 11.8077 15.1789 11.8183 14.9999 11.8183C13.2427 11.8183 11.8181 10.8008 11.8181 9.54557C11.8181 8.3883 13.029 7.43306 14.5952 7.29105C14.5624 7.1368 14.5454 6.97894 14.5454 6.81829C14.5454 5.06102 16.5805 3.63647 19.0908 3.63647Z" fill="url(#paint2_linear)" fill-opacity="0.5"/>
<path fill-rule="evenodd" clip-rule="evenodd" d="M31.0327 4.53583C29.431 4.44123 28.1819 3.66765 28.1819 2.72736C28.1819 1.72321 29.6064 0.90918 31.3637 0.90918C32.6029 0.90918 33.6766 1.31395 34.202 1.90473C34.4503 1.84886 34.7192 1.8183 35 1.8183C36.2552 1.8183 37.2727 2.42882 37.2727 3.18194C37.2727 3.86705 36.4307 4.43415 35.3337 4.53098C35.0286 5.06823 34.1804 5.45467 33.1818 5.45467C32.1862 5.45467 31.3401 5.07055 31.0327 4.53583Z" fill="#8CB7F8"/>
<defs>
<linearGradient id="paint0_linear" x1="20.4546" y1="20.0001" x2="20.4546" y2="37.2729" gradientUnits="userSpaceOnUse">
<stop stop-opacity="0"/>
<stop offset="1"/>
</linearGradient>
<linearGradient id="paint1_linear" x1="15.0001" y1="1.81824" x2="15.0001" y2="13.6364" gradientUnits="userSpaceOnUse">
<stop stop-color="#FDAEFF" stop-opacity="0"/>
<stop offset="1" stop-color="#710074"/>
</linearGradient>
<linearGradient id="paint2_linear" x1="21.8181" y1="3.63647" x2="21.8181" y2="18.1819" gradientUnits="userSpaceOnUse">
<stop stop-color="white"/>
<stop offset="1" stop-color="white" stop-opacity="0"/>
</linearGradient>
</defs>
</svg>
