<svg viewBox="0 0 40 40" fill="none" xmlns="http://www.w3.org/2000/svg">
<path d="M16.3636 28.6777H13.6363C13.2747 28.6777 12.9278 28.7952 12.6721 29.0044C12.4164 29.2137 12.2727 29.4975 12.2727 29.7934C12.2727 30.0893 12.4164 30.373 12.6721 30.5823C12.9278 30.7915 13.2747 30.9091 13.6363 30.9091H16.3636C16.7253 30.9091 17.0721 30.7915 17.3278 30.5823C17.5836 30.373 17.7272 30.0893 17.7272 29.7934C17.7272 29.4975 17.5836 29.2137 17.3278 29.0044C17.0721 28.7952 16.7253 28.6777 16.3636 28.6777ZM17.7272 24.2148H10.909C10.5474 24.2148 10.2005 24.3324 9.94481 24.5416C9.68908 24.7509 9.54541 25.0346 9.54541 25.3305C9.54541 25.6265 9.68908 25.9102 9.94481 26.1195C10.2005 26.3287 10.5474 26.4463 10.909 26.4463H17.7272C18.0889 26.4463 18.4357 26.3287 18.6915 26.1195C18.9472 25.9102 19.0909 25.6265 19.0909 25.3305C19.0909 25.0346 18.9472 24.7509 18.6915 24.5416C18.4357 24.3324 18.0889 24.2148 17.7272 24.2148ZM31.3636 10.8264H10.909C10.5474 10.8264 10.2005 10.944 9.94481 11.1532C9.68908 11.3624 9.54541 11.6462 9.54541 11.9421C9.54541 12.238 9.68908 12.5218 9.94481 12.731C10.2005 12.9403 10.5474 13.0578 10.909 13.0578H31.3636C31.7253 13.0578 32.0721 12.9403 32.3278 12.731C32.5836 12.5218 32.7272 12.238 32.7272 11.9421C32.7272 11.6462 32.5836 11.3624 32.3278 11.1532C32.0721 10.944 31.7253 10.8264 31.3636 10.8264ZM28.6363 15.2892H16.3636C16.0019 15.2892 15.6551 15.4068 15.3994 15.616C15.1436 15.8252 15 16.109 15 16.4049C15 16.7008 15.1436 16.9846 15.3994 17.1938C15.6551 17.4031 16.0019 17.5206 16.3636 17.5206H28.6363C28.998 17.5206 29.3448 17.4031 29.6006 17.1938C29.8563 16.9846 30 16.7008 30 16.4049C30 16.109 29.8563 15.8252 29.6006 15.616C29.3448 15.4068 28.998 15.2892 28.6363 15.2892ZM21.8181 19.752H13.6363C13.2747 19.752 12.9278 19.8696 12.6721 20.0788C12.4164 20.2881 12.2727 20.5718 12.2727 20.8677C12.2727 21.1636 12.4164 21.4474 12.6721 21.6567C12.9278 21.8659 13.2747 21.9834 13.6363 21.9834H21.8181C22.1798 21.9834 22.5266 21.8659 22.7824 21.6567C23.0381 21.4474 23.1818 21.1636 23.1818 20.8677C23.1818 20.5718 23.0381 20.2881 22.7824 20.0788C22.5266 19.8696 22.1798 19.752 21.8181 19.752Z" fill="#63A1FF"/>
<path d="M16.3636 28.6777H13.6363C13.2747 28.6777 12.9278 28.7952 12.6721 29.0044C12.4164 29.2137 12.2727 29.4975 12.2727 29.7934C12.2727 30.0893 12.4164 30.373 12.6721 30.5823C12.9278 30.7915 13.2747 30.9091 13.6363 30.9091H16.3636C16.7253 30.9091 17.0721 30.7915 17.3278 30.5823C17.5836 30.373 17.7272 30.0893 17.7272 29.7934C17.7272 29.4975 17.5836 29.2137 17.3278 29.0044C17.0721 28.7952 16.7253 28.6777 16.3636 28.6777ZM17.7272 24.2148H10.909C10.5474 24.2148 10.2005 24.3324 9.94481 24.5416C9.68908 24.7509 9.54541 25.0346 9.54541 25.3305C9.54541 25.6265 9.68908 25.9102 9.94481 26.1195C10.2005 26.3287 10.5474 26.4463 10.909 26.4463H17.7272C18.0889 26.4463 18.4357 26.3287 18.6915 26.1195C18.9472 25.9102 19.0909 25.6265 19.0909 25.3305C19.0909 25.0346 18.9472 24.7509 18.6915 24.5416C18.4357 24.3324 18.0889 24.2148 17.7272 24.2148ZM31.3636 10.8264H10.909C10.5474 10.8264 10.2005 10.944 9.94481 11.1532C9.68908 11.3624 9.54541 11.6462 9.54541 11.9421C9.54541 12.238 9.68908 12.5218 9.94481 12.731C10.2005 12.9403 10.5474 13.0578 10.909 13.0578H31.3636C31.7253 13.0578 32.0721 12.9403 32.3278 12.731C32.5836 12.5218 32.7272 12.238 32.7272 11.9421C32.7272 11.6462 32.5836 11.3624 32.3278 11.1532C32.0721 10.944 31.7253 10.8264 31.3636 10.8264ZM28.6363 15.2892H16.3636C16.0019 15.2892 15.6551 15.4068 15.3994 15.616C15.1436 15.8252 15 16.109 15 16.4049C15 16.7008 15.1436 16.9846 15.3994 17.1938C15.6551 17.4031 16.0019 17.5206 16.3636 17.5206H28.6363C28.998 17.5206 29.3448 17.4031 29.6006 17.1938C29.8563 16.9846 30 16.7008 30 16.4049C30 16.109 29.8563 15.8252 29.6006 15.616C29.3448 15.4068 28.998 15.2892 28.6363 15.2892ZM21.8181 19.752H13.6363C13.2747 19.752 12.9278 19.8696 12.6721 20.0788C12.4164 20.2881 12.2727 20.5718 12.2727 20.8677C12.2727 21.1636 12.4164 21.4474 12.6721 21.6567C12.9278 21.8659 13.2747 21.9834 13.6363 21.9834H21.8181C22.1798 21.9834 22.5266 21.8659 22.7824 21.6567C23.0381 21.4474 23.1818 21.1636 23.1818 20.8677C23.1818 20.5718 23.0381 20.2881 22.7824 20.0788C22.5266 19.8696 22.1798 19.752 21.8181 19.752Z" fill="url(#paint0_linear)" fill-opacity="0.25"/>
<circle cx="6.67074" cy="11.9834" r="1.09091" fill="#63A1FF"/>
<circle cx="12.2931" cy="16.4391" r="1.09091" fill="#63A1FF"/>
<circle cx="25.9188" cy="20.8678" r="1.09091" fill="#63A1FF"/>
<circle cx="13.3841" cy="34.0991" r="1.09091" fill="#63A1FF"/>
<defs>
<linearGradient id="paint0_linear" x1="33.06" y1="21.1815" x2="9.76727" y2="21.1815" gradientUnits="userSpaceOnUse">
<stop stop-color="white"/>
<stop offset="1" stop-color="white" stop-opacity="0"/>
</linearGradient>
</defs>
</svg>
