<svg width="40" height="40" viewBox="0 0 40 40" fill="none" xmlns="http://www.w3.org/2000/svg">
<path opacity="0.6" fill-rule="evenodd" clip-rule="evenodd" d="M8.30999 33.0879C7.8859 33.3088 7.42348 32.8655 7.6262 32.4325L19.5453 6.97133C19.7254 6.58664 20.2728 6.5875 20.4516 6.97276L32.3669 32.6365C32.5694 33.0726 32.0998 33.5153 31.6764 33.2873L20.2331 27.1255C20.0873 27.047 19.9121 27.0458 19.7651 27.1223L8.30999 33.0879Z" fill="url(#paint0_linear)"/>
<mask id="mask0" style="mask-type:alpha" maskUnits="userSpaceOnUse" x="7" y="6" width="26" height="28">
<path fill-rule="evenodd" clip-rule="evenodd" d="M8.30999 33.0879C7.8859 33.3088 7.42348 32.8655 7.6262 32.4325L19.5453 6.97133C19.7254 6.58664 20.2728 6.5875 20.4516 6.97276L32.3669 32.6365C32.5694 33.0726 32.0998 33.5153 31.6764 33.2873L20.2331 27.1255C20.0873 27.047 19.9121 27.0458 19.7651 27.1223L8.30999 33.0879Z" fill="url(#paint1_linear)"/>
</mask>
<g mask="url(#mask0)">
<rect x="20" y="6" width="13" height="28.6" rx="0.5" fill="url(#paint2_linear)"/>
</g>
<defs>
<linearGradient id="paint0_linear" x1="20" y1="3.2" x2="9.5391" y2="31.5835" gradientUnits="userSpaceOnUse">
<stop stop-color="#DBE6FF"/>
<stop offset="1" stop-color="#67728E"/>
</linearGradient>
<linearGradient id="paint1_linear" x1="20" y1="3.2" x2="9.5391" y2="31.5835" gradientUnits="userSpaceOnUse">
<stop stop-color="#D0E3FF"/>
<stop offset="1" stop-color="#3A82E8"/>
</linearGradient>
<linearGradient id="paint2_linear" x1="26.5" y1="3.14" x2="10.6767" y2="24.1562" gradientUnits="userSpaceOnUse">
<stop stop-color="#DBE6FF"/>
<stop offset="1" stop-color="#67728E"/>
</linearGradient>
</defs>
</svg>
